<svg width="28" height="28" viewBox="0 0 28 28" fill="none" xmlns="http://www.w3.org/2000/svg">
<g clip-path="url(#clip0_2080_893)">
<path fill-rule="evenodd" clip-rule="evenodd" d="M1.83206 0.196651C1.91956 0.207588 4.41878 0.590401 7.38284 1.03884C10.3469 1.49274 13.2727 1.93571 13.8907 2.02868C14.618 2.13806 15.1102 2.24196 15.2852 2.31853C15.4383 2.38415 15.6516 2.52634 15.7664 2.63024C15.8867 2.73415 16.0563 2.97478 16.3242 3.52712L16.3516 10.6092L16.4774 10.631C16.543 10.6474 18.8508 11.1013 21.6016 11.6482C24.3524 12.1896 26.7149 12.6709 26.8516 12.7146C26.9883 12.7584 27.2235 12.906 27.393 13.0537C27.5844 13.2232 27.743 13.431 28 13.9724L27.9727 26.7146L27.836 26.9881C27.7649 27.1357 27.6008 27.3599 27.4805 27.4802C27.3602 27.6006 27.1196 27.7701 26.6328 27.9998H1.36722L1.05003 27.8521C0.880498 27.7701 0.639873 27.6006 0.51956 27.4802C0.399248 27.3599 0.235185 27.1357 0.0273726 26.7146L0.0109664 14.2185C2.8854e-05 3.39587 0.0109664 1.68415 0.0820601 1.44899C0.12581 1.29587 0.240654 1.06618 0.339091 0.934932C0.437529 0.803682 0.628935 0.617744 0.765654 0.524776C0.902373 0.431807 1.1594 0.316963 1.33987 0.262276C1.52034 0.213057 1.73909 0.180244 1.83206 0.196651ZM1.21409 1.74978C1.1594 1.9029 1.14847 4.42399 1.14847 14.1256C1.14847 24.6201 1.1594 26.3263 1.22503 26.4795C1.27425 26.5888 1.38362 26.6982 1.49847 26.7529C1.67347 26.8404 1.87581 26.8513 3.1719 26.8513H4.64847L4.67581 21.1912C4.97112 20.5787 5.11331 20.3873 5.26097 20.2615C5.39222 20.1576 5.62737 20.0263 5.7805 19.9607C6.05394 19.8568 6.19065 19.8513 8.1594 19.8513C10.0133 19.8513 10.2867 19.8623 10.5274 19.9443C10.7188 20.0099 10.9047 20.1412 11.1289 20.3709C11.386 20.6224 11.4844 20.7701 11.5555 20.9998C11.643 21.2677 11.6485 21.5959 11.6485 24.0732V26.8513H15.1485C15.1485 5.04196 15.1375 3.67478 15.0664 3.5654C15.0227 3.49978 14.9407 3.42321 14.886 3.39587C14.8367 3.36853 11.8508 2.89821 8.25784 2.35681C4.66487 1.80993 1.69534 1.36696 1.668 1.36696C1.64065 1.36696 1.54222 1.41071 1.44925 1.4654C1.36175 1.52009 1.25237 1.65134 1.21409 1.74978ZM16.3516 26.8513C25.9547 26.8513 26.3157 26.8459 26.5016 26.7584C26.6164 26.6982 26.7258 26.5888 26.775 26.4849C26.8407 26.3318 26.8516 25.4185 26.8516 20.3162C26.8516 15.1154 26.8407 14.3006 26.7696 14.1365C26.7258 14.0326 26.6328 13.9123 26.5617 13.8685C26.4961 13.8248 24.1883 13.3435 21.4375 12.8021C18.6867 12.2552 16.4172 11.8123 16.3899 11.8123C16.368 11.8123 16.3516 15.1974 16.3516 19.3318V26.8513ZM5.90628 21.317C5.87347 21.3935 5.85159 22.4052 5.85159 24.1443V26.8513H10.5L10.4727 21.3279L10.1719 21.0271C6.43675 20.9998 6.25081 21.0107 6.11409 21.0982C6.03206 21.1474 5.93909 21.2459 5.90628 21.317ZM5.23362 5.85134C6.25081 5.85134 6.59534 5.86774 6.71019 5.9279C6.79769 5.96618 6.89612 6.07009 6.9344 6.15759C6.97815 6.25056 6.99456 6.39821 6.97815 6.50759C6.96175 6.61149 6.88519 6.75915 6.66097 6.97243H3.83909L3.6969 6.83571C3.61487 6.75915 3.53831 6.61149 3.5219 6.50759C3.5055 6.39821 3.5219 6.25056 3.56565 6.15759C3.60394 6.07009 3.6969 5.96618 3.77347 5.9279C3.87737 5.87321 4.24378 5.85681 5.23362 5.85134ZM9.66878 5.85134H11.0578C12.3649 5.84587 12.4524 5.85134 12.5946 5.96071C12.6766 6.02087 12.7641 6.15759 12.7969 6.26149C12.8407 6.40915 12.8297 6.49665 12.7696 6.64431C12.7258 6.75368 12.6164 6.87399 12.5235 6.91774C12.3922 6.98337 12.1078 6.99978 11.0742 6.99978C9.94768 6.99978 9.76722 6.98884 9.62503 6.90681C9.53753 6.85212 9.43909 6.75368 9.40628 6.68806C9.37893 6.61696 9.35159 6.47478 9.35706 6.3654C9.35706 6.22868 9.40628 6.12478 9.51565 6.00993L9.66878 5.85134ZM5.23362 9.35681C6.24534 9.35134 6.59534 9.36774 6.71019 9.4279C6.79222 9.46618 6.89612 9.57009 6.9344 9.65759C6.97815 9.75056 6.99456 9.89821 6.97815 10.0076C6.96175 10.1115 6.87972 10.2592 6.66097 10.4724H3.83362L3.69144 10.3357C3.61487 10.2592 3.53284 10.1115 3.51644 10.0076C3.50003 9.89821 3.51643 9.75056 3.56018 9.65759C3.59847 9.57556 3.6969 9.47165 3.77347 9.4279C3.8719 9.37321 4.23831 9.35681 5.23362 9.35681ZM9.66878 9.35134H11.0524C12.3649 9.35134 12.4469 9.35681 12.5891 9.46071C12.6711 9.52087 12.7641 9.65759 12.7969 9.76149C12.8352 9.90915 12.8297 10.0021 12.7696 10.1443C12.7203 10.2537 12.6164 10.374 12.5235 10.4177C12.3867 10.4834 12.1024 10.4998 11.0742 10.4998C9.94768 10.4998 9.76722 10.4888 9.62503 10.4068C9.53206 10.3521 9.43362 10.2537 9.40628 10.1881C9.37347 10.117 9.35159 9.97478 9.35159 9.8654C9.35706 9.72868 9.40628 9.62478 9.51565 9.50993L9.66878 9.35134ZM5.23362 12.8568C6.24534 12.8568 6.59534 12.8732 6.71019 12.9279C6.79222 12.9717 6.89065 13.0756 6.9344 13.1631C6.97269 13.2506 6.99456 13.3982 6.97269 13.5076C6.95628 13.617 6.87972 13.7646 6.6555 13.9724H3.83362L3.69144 13.8357C3.6094 13.7646 3.53284 13.617 3.51644 13.5076C3.50003 13.3982 3.51643 13.2506 3.56018 13.1631C3.59847 13.0756 3.69144 12.9717 3.768 12.9334C3.8719 12.8787 4.23831 12.8568 5.23362 12.8568ZM9.66878 12.8513H11.0524C12.3594 12.8513 12.4469 12.8568 12.5891 12.9607C12.6711 13.0209 12.7641 13.1576 12.7914 13.2615C12.8352 13.4092 12.8297 13.5021 12.7641 13.6443C12.7203 13.7537 12.611 13.874 12.518 13.9177C12.3867 13.9888 12.1024 13.9998 11.0688 13.9998C9.94222 13.9998 9.76175 13.9888 9.61956 13.9068C9.53206 13.8521 9.43362 13.7537 9.40081 13.6881C9.37347 13.6224 9.34612 13.4748 9.35159 13.3709C9.35159 13.2342 9.40081 13.1248 9.51018 13.0154L9.66878 12.8513ZM5.23362 16.3513C6.24534 16.3513 6.59534 16.3677 6.71019 16.4224C6.79222 16.4662 6.89612 16.5701 6.9344 16.6576C6.97815 16.7506 6.99456 16.8927 6.97815 17.0076C6.96175 17.1115 6.87972 17.2591 6.66097 17.4724H3.83362L3.69144 17.3357C3.61487 17.2591 3.53831 17.1115 3.51644 17.0076C3.50003 16.8927 3.51643 16.7506 3.56018 16.6576C3.60393 16.5701 3.6969 16.4662 3.77347 16.4279C3.8719 16.3732 4.23831 16.3513 5.23362 16.3513ZM9.66878 16.3513L11.0524 16.3459C12.3649 16.3459 12.4469 16.3513 12.5891 16.4552C12.6711 16.5209 12.7641 16.6521 12.7969 16.7615C12.8352 16.9037 12.8297 16.9966 12.7696 17.1443C12.7203 17.2482 12.6164 17.3685 12.5235 17.4177C12.3922 17.4834 12.1078 17.4998 11.0742 17.4998C9.94768 17.4998 9.76722 17.4888 9.62503 17.4013C9.53206 17.3521 9.43362 17.2537 9.40628 17.1826C9.37347 17.117 9.35159 16.9748 9.35159 16.8654C9.35706 16.7287 9.40628 16.6193 9.51565 16.5099L9.66878 16.3513ZM20.1688 16.3513H21.5524C22.8594 16.3459 22.9469 16.3513 23.0891 16.4607C23.1711 16.5209 23.2641 16.6576 23.2914 16.7615C23.3352 16.9091 23.3297 16.9966 23.2641 17.1443C23.2203 17.2537 23.111 17.3685 23.018 17.4177C22.8867 17.4834 22.6024 17.4998 21.5688 17.4998C20.4422 17.4998 20.2617 17.4888 20.1196 17.4013C20.0321 17.3521 19.9336 17.2537 19.9008 17.1826C19.8735 17.117 19.8516 16.9748 19.8516 16.8654C19.8516 16.7287 19.9008 16.6248 20.0102 16.5099L20.1688 16.3513ZM20.1688 19.8513H21.5524C22.8649 19.8459 22.9469 19.8568 23.0891 19.9607C23.1711 20.0209 23.2641 20.1576 23.2969 20.2615C23.3352 20.4091 23.3297 20.4966 23.2696 20.6443C23.2203 20.7537 23.1164 20.874 23.0235 20.9177C22.8922 20.9834 22.6078 20.9998 21.5742 20.9998C20.4477 20.9998 20.2672 20.9888 20.125 20.9068C20.0375 20.8521 19.9391 20.7537 19.9063 20.6881C19.8735 20.617 19.8516 20.4748 19.8516 20.3654C19.8571 20.2287 19.9063 20.1248 20.0157 20.0099L20.1688 19.8513ZM20.1688 23.3513H21.5524C22.8594 23.3513 22.9469 23.3568 23.0891 23.4607C23.1711 23.5209 23.2641 23.6576 23.2914 23.7615C23.3352 23.9091 23.3297 24.0021 23.2641 24.1443C23.2203 24.2537 23.111 24.374 23.018 24.4177C22.8867 24.4834 22.6024 24.4998 21.5688 24.4998C20.4422 24.4998 20.2672 24.4888 20.1196 24.4068C20.0321 24.3521 19.9336 24.2537 19.9008 24.1881C19.8735 24.1224 19.8516 23.9748 19.8516 23.8709C19.8571 23.7287 19.9008 23.6248 20.0102 23.5154L20.1688 23.3513Z" fill="black"/>
</g>
<defs>
<clipPath id="clip0_2080_893">
<rect width="28" height="28" fill="white"/>
</clipPath>
</defs>
</svg>
