<svg width="20" height="20" viewBox="0 0 20 20" fill="none" xmlns="http://www.w3.org/2000/svg">
<g id="tabler:report-money">
<g id="Group">
<path id="Vector" d="M7.22226 3.51758H5.37041C4.87926 3.51758 4.40824 3.71268 4.06095 4.05997C3.71366 4.40726 3.51855 4.87829 3.51855 5.36943V16.4805C3.51855 16.9717 3.71366 17.4427 4.06095 17.79C4.40824 18.1373 4.87926 18.3324 5.37041 18.3324H14.6297C15.1208 18.3324 15.5918 18.1373 15.9391 17.79C16.2864 17.4427 16.4815 16.9717 16.4815 16.4805V5.36943C16.4815 4.87829 16.2864 4.40726 15.9391 4.05997C15.5918 3.71268 15.1208 3.51758 14.6297 3.51758H12.7778" stroke="#9DC0F2" stroke-width="2" stroke-linecap="round" stroke-linejoin="round"/>
<path id="Vector_2" d="M11.8518 9.07342H9.53698C9.16863 9.07342 8.81536 9.21975 8.55489 9.48022C8.29442 9.74069 8.14809 10.094 8.14809 10.4623C8.14809 10.8307 8.29442 11.1839 8.55489 11.4444C8.81536 11.7049 9.16863 11.8512 9.53698 11.8512H10.4629C10.8313 11.8512 11.1845 11.9975 11.445 12.258C11.7055 12.5185 11.8518 12.8717 11.8518 13.2401C11.8518 13.6084 11.7055 13.9617 11.445 14.2222C11.1845 14.4826 10.8313 14.629 10.4629 14.629H8.14809M9.99995 14.629V15.5549M9.99995 8.1475V9.07342M7.22217 3.51787C7.22217 3.02673 7.41727 2.5557 7.76456 2.20841C8.11185 1.86112 8.58288 1.66602 9.07402 1.66602H10.9259C11.417 1.66602 11.888 1.86112 12.2353 2.20841C12.5826 2.5557 12.7777 3.02673 12.7777 3.51787C12.7777 4.00901 12.5826 4.48004 12.2353 4.82732C11.888 5.17461 11.417 5.36972 10.9259 5.36972H9.07402C8.58288 5.36972 8.11185 5.17461 7.76456 4.82732C7.41727 4.48004 7.22217 4.00901 7.22217 3.51787Z" stroke="#9DC0F2" stroke-width="2" stroke-linecap="round" stroke-linejoin="round"/>
</g>
</g>
</svg>
