<svg width="25" height="22" viewBox="0 0 25 22" fill="none" xmlns="http://www.w3.org/2000/svg">
<path d="M24.3313 13.449H13.6052C13.6052 13.449 13.1964 8.25641 13.12 6.52239C13.0862 5.75395 12.4502 5.13188 11.646 5.13188H10.517C10.7662 4.66338 10.9077 4.13366 10.9077 3.57252C10.9077 1.6748 9.2994 0.130859 7.3226 0.130859C5.34576 0.130859 3.73748 1.6748 3.73748 3.57252C3.73748 4.13361 3.879 4.66329 4.12817 5.13178H2.99911C2.1948 5.13178 1.53888 5.75326 1.5251 6.52234L1.03991 13.449H0.668721C0.299381 13.449 0 13.7364 0 14.091V21.2265C0 21.5811 0.299381 21.8685 0.668721 21.8685H24.3313C24.7006 21.8685 25 21.5811 25 21.2265V14.091C25 13.7364 24.7006 13.449 24.3313 13.449ZM7.3226 1.4148C8.56195 1.4148 9.57023 2.38275 9.57023 3.57252C9.57023 4.7623 8.56195 5.73024 7.3226 5.73024C6.08321 5.73024 5.07493 4.7623 5.07493 3.57252C5.07493 2.38275 6.08321 1.4148 7.3226 1.4148ZM2.86233 6.54708C2.86779 6.47488 2.9237 6.41577 2.99911 6.41577L5.30512 6.41582C5.58727 6.60091 5.89828 6.74812 6.23017 6.85029L6.61088 7.26762L5.82364 11.7612C5.79041 11.951 5.84756 12.1451 5.97945 12.29L6.8189 13.2126C6.94591 13.3522 7.12955 13.4323 7.32255 13.4323C7.51556 13.4323 7.6992 13.3522 7.82615 13.2127L8.6656 12.2901C8.79749 12.1452 8.8547 11.9511 8.82141 11.7613L8.03639 7.28006L8.45439 6.85019C8.45994 6.84446 8.46468 6.83834 8.46992 6.83246C8.78114 6.73123 9.07352 6.59068 9.33993 6.41592H11.6459C11.7214 6.41592 11.7828 6.47493 11.7828 6.54742L12.2648 13.4491H2.38034C2.38034 13.449 2.73152 8.27004 2.86233 6.54708ZM23.6626 20.5846H1.33744V14.733H23.6626V20.5846Z" fill="white"/>
<path d="M16.0674 12.4617H22.8575C23.2268 12.4617 23.5262 12.1743 23.5262 11.8197C23.5262 11.4651 23.2268 11.1777 22.8575 11.1777H16.0674C15.6981 11.1777 15.3987 11.4651 15.3987 11.8197C15.3987 12.1743 15.6981 12.4617 16.0674 12.4617Z" fill="white"/>
<path d="M16.0674 10.3875H22.8575C23.2268 10.3875 23.5262 10.1001 23.5262 9.74549C23.5262 9.39092 23.2268 9.10352 22.8575 9.10352H16.0674C15.6981 9.10352 15.3987 9.39092 15.3987 9.74549C15.3987 10.1001 15.6981 10.3875 16.0674 10.3875Z" fill="white"/>
<path d="M16.0674 8.31324H22.8575C23.2268 8.31324 23.5262 8.02584 23.5262 7.67127C23.5262 7.3167 23.2268 7.0293 22.8575 7.0293H16.0674C15.6981 7.0293 15.3987 7.3167 15.3987 7.67127C15.3987 8.02584 15.6981 8.31324 16.0674 8.31324Z" fill="white"/>
<path d="M16.0674 6.23902H22.8575C23.2268 6.23902 23.5262 5.95162 23.5262 5.59705C23.5262 5.24248 23.2268 4.95508 22.8575 4.95508H16.0674C15.6981 4.95508 15.3987 5.24248 15.3987 5.59705C15.3987 5.95162 15.6981 6.23902 16.0674 6.23902Z" fill="white"/>
</svg>
