<svg width="24" height="24" viewBox="0 0 24 24" fill="none" xmlns="http://www.w3.org/2000/svg">
<g clip-path="url(#clip0_2057_21303)">
<path d="M18.9555 7.57793C19.8819 7.57793 20.6356 6.82424 20.6356 5.89785C20.6356 4.97147 19.8819 4.21777 18.9555 4.21777C18.029 4.21777 17.2754 4.97147 17.2754 5.89785C17.2754 6.82424 18.029 7.57793 18.9555 7.57793ZM18.9555 5.3642C19.2497 5.3642 19.489 5.60355 19.489 5.89777C19.489 6.192 19.2497 6.43135 18.9555 6.43135C18.6612 6.43135 18.4219 6.192 18.4219 5.89777C18.4219 5.60355 18.6612 5.3642 18.9555 5.3642Z" fill="white"/>
<path d="M24 7.60529C24 4.82371 21.7371 2.56068 18.9554 2.56068C16.3583 2.56068 14.214 4.53361 13.9408 7.05935L12.0382 8.28602V3.17216C12.0382 2.81337 11.7473 2.52246 11.3885 2.52246H1.29939C0.940606 2.52246 0.649697 2.81337 0.649697 3.17216V20.1785C0.290909 20.1785 0 20.4695 0 20.8282C0 21.187 0.290909 21.4779 0.649697 21.4779H12.0382C12.397 21.4779 12.6879 21.187 12.6879 20.8282C12.6879 20.4695 12.397 20.1785 12.0382 20.1785V14.3125L15.1943 16.1891C15.1551 16.3663 15.1337 16.5502 15.1337 16.739C15.1337 18.1403 16.2738 19.2804 17.6752 19.2804C19.0765 19.2804 20.2166 18.1404 20.2166 16.739C20.2166 15.8099 19.7151 14.996 18.9688 14.5528L19.4655 12.6241C22.0085 12.3676 24 10.2147 24 7.60529ZM20.2554 11.1175C19.8502 11.268 19.4123 11.3505 18.9554 11.3505C18.4985 11.3505 18.0606 11.268 17.6554 11.1175V9.37345C17.6554 9.22355 17.7498 9.09087 17.8909 9.04157L18.0002 9.00796L18.7092 9.34509C18.8649 9.41911 19.0458 9.41911 19.2015 9.34509L19.9105 9.00796L20.0198 9.04157C20.1609 9.09087 20.2553 9.22355 20.2553 9.37345V11.1175H20.2554ZM18.9555 3.86008C21.0206 3.86008 22.7007 5.54016 22.7007 7.60529C22.7007 8.7358 22.1964 9.75018 21.4019 10.4375V9.37345C21.4019 8.72747 20.9902 8.15632 20.3775 7.9522C20.3731 7.95074 20.3688 7.94937 20.3644 7.948L20.0339 7.84658C19.8969 7.80456 19.749 7.81531 19.6196 7.87689L18.9555 8.19268L18.2914 7.87689C18.1619 7.81531 18.0141 7.80456 17.8771 7.84658L17.5466 7.948C17.5422 7.94937 17.5379 7.95074 17.5335 7.9522C16.9207 8.15632 16.509 8.72747 16.509 9.37345V10.4375C15.7145 9.75018 15.2103 8.7358 15.2103 7.60529C15.2103 5.54016 16.8903 3.86008 18.9555 3.86008ZM1.94909 20.1785V3.82185H10.7389V20.1785H1.94909ZM17.6752 17.9811C16.9904 17.9811 16.4332 17.424 16.4332 16.7391C16.4332 16.0543 16.9904 15.4971 17.6752 15.4971C18.3601 15.4971 18.9173 16.0543 18.9173 16.7391C18.9173 17.424 18.3601 17.9811 17.6752 17.9811ZM17.6752 14.1976C16.9297 14.1976 16.2582 14.5204 15.7929 15.0334L12.0383 12.8009V9.83196L14.0036 8.56489C14.4019 10.6242 16.0561 12.2404 18.1348 12.5821L17.7184 14.1987C17.7039 14.1985 17.6897 14.1976 17.6752 14.1976Z" fill="white"/>
<path d="M5.08274 6.30566H3.82157C3.46278 6.30566 3.17188 6.59657 3.17188 6.95536C3.17188 7.31415 3.46278 7.60506 3.82157 7.60506H5.08274C5.44153 7.60506 5.73244 7.31415 5.73244 6.95536C5.73244 6.59657 5.44153 6.30566 5.08274 6.30566Z" fill="white"/>
<path d="M8.86619 6.30566H7.60502C7.24623 6.30566 6.95532 6.59657 6.95532 6.95536C6.95532 7.31415 7.24623 7.60506 7.60502 7.60506H8.86619C9.22498 7.60506 9.51589 7.31415 9.51589 6.95536C9.51589 6.59657 9.22498 6.30566 8.86619 6.30566Z" fill="white"/>
<path d="M5.08274 8.82812H3.82157C3.46278 8.82812 3.17188 9.11903 3.17188 9.47782C3.17188 9.83661 3.46278 10.1275 3.82157 10.1275H5.08274C5.44153 10.1275 5.73244 9.83661 5.73244 9.47782C5.73236 9.11895 5.44153 8.82812 5.08274 8.82812Z" fill="white"/>
<path d="M8.86619 8.82812H7.60502C7.24623 8.82812 6.95532 9.11903 6.95532 9.47782C6.95532 9.83661 7.24623 10.1275 7.60502 10.1275H8.86619C9.22498 10.1275 9.51589 9.83661 9.51589 9.47782C9.51589 9.11895 9.22498 8.82812 8.86619 8.82812Z" fill="white"/>
<path d="M5.08274 11.3506H3.82157C3.46278 11.3506 3.17188 11.6415 3.17188 12.0003C3.17188 12.3591 3.46278 12.65 3.82157 12.65H5.08274C5.44153 12.65 5.73244 12.3591 5.73244 12.0003C5.73244 11.6415 5.44153 11.3506 5.08274 11.3506Z" fill="white"/>
<path d="M8.86619 11.3506H7.60502C7.24623 11.3506 6.95532 11.6415 6.95532 12.0003C6.95532 12.3591 7.24623 12.65 7.60502 12.65H8.86619C9.22498 12.65 9.51589 12.3591 9.51589 12.0003C9.51589 11.6415 9.22498 11.3506 8.86619 11.3506Z" fill="white"/>
<path d="M5.08274 13.873H3.82157C3.46278 13.873 3.17188 14.164 3.17188 14.5227C3.17188 14.8815 3.46278 15.1724 3.82157 15.1724H5.08274C5.44153 15.1724 5.73244 14.8815 5.73244 14.5227C5.73244 14.164 5.44153 13.873 5.08274 13.873Z" fill="white"/>
<path d="M8.86619 13.873H7.60502C7.24623 13.873 6.95532 14.164 6.95532 14.5227C6.95532 14.8815 7.24623 15.1724 7.60502 15.1724H8.86619C9.22498 15.1724 9.51589 14.8815 9.51589 14.5227C9.51589 14.164 9.22498 13.873 8.86619 13.873Z" fill="white"/>
</g>
<defs>
<clipPath id="clip0_2057_21303">
<rect width="24" height="24" fill="white"/>
</clipPath>
</defs>
</svg>
