<svg width="20" height="20" viewBox="0 0 20 20" fill="none" xmlns="http://www.w3.org/2000/svg">
<path fill-rule="evenodd" clip-rule="evenodd" d="M15 1.25H18.75V5H17.5V3.37891L10 10.8789L7.5 8.37891L2.32422 13.5547L1.44531 12.6758L7.5 6.62109L10 9.12109L16.6211 2.5H15V1.25ZM14.7461 8.125H17.7539L18.75 9.12109V18.75H13.75L13.7305 9.12109L14.7461 8.125ZM14.9844 9.63281L15.0039 17.5H17.5039V9.62891L17.25 9.37891L15.25 9.375L14.9844 9.63281ZM8.49609 11.875H11.5078L12.5039 12.8711V18.75H7.50391L7.48438 12.875L8.49609 11.875ZM8.73438 13.3828L8.75 17.5H11.25V13.3789L10.9961 13.125H9L8.73438 13.3828ZM2.24609 14.375H5.25391L6.25 15.3711V18.75H1.25L1.23047 15.3711L2.24609 14.375ZM2.48828 15.8828L2.50391 17.5H5.00391V15.8789L4.75 15.625H2.75391L2.48828 15.8828Z" fill="#222754"/>
</svg>
