<svg width="20" height="20" viewBox="0 0 20 20" fill="none" xmlns="http://www.w3.org/2000/svg">
<g id="file - 2024-02-23T145237.673 1" clip-path="url(#clip0_2081_985)">
<path id="Path 0" fill-rule="evenodd" clip-rule="evenodd" d="M7.63675 0.00390625C7.82035 0.00390625 8.01566 0.0234375 8.11722 0.0585937C8.20707 0.0898437 8.36332 0.160156 8.46488 0.210937C8.57035 0.261719 8.73832 0.382812 8.84769 0.476562C8.96488 0.582031 9.09769 0.753906 9.31644 1.17187H10.3047C11.211 1.17187 11.3008 1.17969 11.4453 1.25C11.5625 1.30859 11.6211 1.375 11.6836 1.51562C11.7383 1.63281 11.7618 1.74219 11.75 1.81641C11.7383 1.87891 11.5157 2.58984 11.2539 3.39062C10.9961 4.1875 10.7813 4.86719 10.7813 4.89453C10.7813 4.91797 10.8633 4.99609 10.9649 5.0625C11.0664 5.12891 11.2266 5.26953 11.3164 5.375C11.4063 5.48047 11.5235 5.65625 11.5743 5.76172C11.6289 5.87109 11.6914 6.05469 11.7188 6.17187C11.75 6.30469 11.7578 6.48437 11.7422 6.65234C11.7305 6.79687 11.6836 7.00781 11.6407 7.12109C11.6016 7.23047 11.5078 7.41016 11.4375 7.51172C11.3672 7.61328 11.3164 7.70312 11.3282 7.71094C11.3399 7.71875 11.461 7.79687 11.6016 7.89062C11.7422 7.98437 12.0039 8.17578 12.1875 8.32031C12.3711 8.46484 12.7032 8.77734 13.3399 9.44922H15.8399C17.3907 9.45312 18.4219 9.46875 18.5547 9.49219C18.6719 9.51562 18.8789 9.58594 19.0118 9.64844C19.1563 9.71875 19.3477 9.85547 19.4727 9.98047C19.5977 10.1055 19.7344 10.2969 19.8047 10.4414C19.8672 10.5742 19.9414 10.7891 19.9649 10.918C19.9883 11.0508 19.9961 11.2539 19.9805 11.3867C19.9649 11.5156 19.9219 11.7109 19.8789 11.8164C19.8399 11.9258 19.7539 12.0937 19.5703 12.3828L19.6875 12.5703C19.7539 12.6719 19.8438 12.8516 19.8907 12.9687C19.9532 13.1328 19.9727 13.2695 19.9727 13.5547C19.9727 13.8398 19.9532 13.9766 19.8907 14.1406C19.8438 14.2578 19.7539 14.4375 19.5703 14.7266L19.6875 14.9141C19.7539 15.0156 19.8438 15.1953 19.8907 15.3125C19.9532 15.4766 19.9727 15.6133 19.9727 15.8984C19.9727 16.1836 19.9532 16.3203 19.8907 16.4844C19.8438 16.6016 19.7539 16.7812 19.5703 17.0703L19.6875 17.2578C19.7539 17.3594 19.8399 17.5312 19.8789 17.6367C19.9219 17.7461 19.9649 17.9375 19.9805 18.0664C19.9961 18.1992 19.9883 18.4023 19.9649 18.5352C19.9414 18.6641 19.8711 18.875 19.8086 19.0039C19.7461 19.1328 19.6368 19.3086 19.5625 19.3945C19.4883 19.4805 19.3555 19.5977 19.2735 19.6562C19.1914 19.7148 18.9922 19.8164 18.5547 20H15.8868C13.2657 20 13.2188 19.9961 12.9883 19.9141C12.8594 19.8711 12.6836 19.7891 12.5977 19.7344C12.5118 19.6836 12.3789 19.5781 12.168 19.375L11.9336 19.4531C11.8047 19.5 11.5313 19.5781 11.3282 19.6289C11.125 19.6797 10.7891 19.75 10.586 19.7852C10.3828 19.8203 9.98441 19.875 9.70707 19.9102C9.38285 19.9492 8.7305 19.9766 7.91019 19.9883C6.90238 20.0039 6.4805 19.9922 5.9766 19.9414C5.62113 19.9062 5.11332 19.8437 4.84378 19.8008C4.57425 19.7578 4.18753 19.6836 3.98441 19.6289C3.78128 19.5781 3.46488 19.4844 3.28128 19.4219C3.09769 19.3594 2.80863 19.2422 2.63675 19.1602C2.46488 19.082 2.17582 18.9219 1.99222 18.8008C1.80082 18.6758 1.50003 18.4219 1.2891 18.207C1.08207 18 0.832066 17.6992 0.730503 17.5391C0.632847 17.3789 0.484409 17.0977 0.410191 16.9141C0.332066 16.7305 0.226597 16.4062 0.171909 16.1914C0.121128 15.9766 0.0586282 15.582 0.0351907 15.3125C0.0117532 15.043 3.44571e-05 14.6133 0.0156595 14.3555C0.0273782 14.0977 0.0664407 13.7187 0.0976907 13.5156C0.132847 13.3125 0.210972 12.9414 0.277378 12.6953C0.339878 12.4492 0.472691 12.043 0.570347 11.7969C0.668003 11.5508 0.835972 11.1797 0.945347 10.9766C1.05082 10.7734 1.25003 10.4375 1.38675 10.2344C1.51957 10.0312 1.74613 9.72266 1.88675 9.55078C2.02347 9.37891 2.32816 9.05469 2.56253 8.82812C2.79691 8.60156 3.12894 8.30859 3.30082 8.17969C3.47269 8.05078 3.67582 7.90625 3.75003 7.85937C3.82425 7.8125 3.9141 7.75781 3.94535 7.73828C3.99613 7.70703 3.98441 7.67187 3.87503 7.51172C3.80472 7.41016 3.71097 7.23047 3.67191 7.12109C3.62894 7.00781 3.58207 6.79687 3.57035 6.65234C3.55472 6.48437 3.56253 6.30469 3.59378 6.17187C3.62113 6.05469 3.68363 5.87109 3.73832 5.76172C3.7891 5.65625 3.90628 5.48047 3.99613 5.375C4.08597 5.26953 4.24613 5.12891 4.34769 5.0625C4.44925 4.99609 4.53128 4.91797 4.53128 4.89453C4.53128 4.86719 4.31644 4.1875 4.05863 3.39062C3.79691 2.58984 3.57425 1.88281 3.56253 1.81641C3.55082 1.74219 3.57425 1.63281 3.62894 1.51562C3.69144 1.375 3.75003 1.30859 3.86722 1.25C4.01175 1.17969 4.1016 1.17187 5.99613 1.17187L6.13285 0.910156C6.21488 0.753906 6.34769 0.582031 6.46488 0.476562C6.57035 0.382812 6.7305 0.265625 6.81644 0.222656C6.90238 0.179687 7.05082 0.113281 7.14847 0.0742187C7.25785 0.03125 7.44144 0.0078125 7.63675 0.00390625ZM7.14847 1.48437C7.1055 1.57031 7.07035 1.69531 7.07035 1.75781C7.07035 1.82422 7.03519 1.94531 6.99222 2.03125C6.94014 2.13542 6.86201 2.21354 6.75785 2.26562C6.61722 2.33594 6.52347 2.34375 5.78128 2.34375C5.32816 2.34375 4.96097 2.35547 4.96097 2.375C4.96097 2.39062 5.13675 2.92969 5.34769 3.57422L5.7305 4.74609H9.58207C10.1758 2.92969 10.3516 2.39062 10.3516 2.37109C10.3516 2.35547 10.1407 2.34375 9.88285 2.34375H9.4141C9.4141 2.96875 9.39847 3.08203 9.33597 3.20312C9.28389 3.30729 9.20576 3.38542 9.1016 3.4375C9.01566 3.48047 8.89457 3.51562 8.82816 3.51562C8.76175 3.51562 8.64066 3.48047 8.55472 3.4375C8.45056 3.38542 8.37243 3.30729 8.32035 3.20312C8.25003 3.0625 8.24222 2.96875 8.24222 2.34375C8.24222 1.71875 8.23441 1.625 8.1641 1.48437C8.11201 1.38021 8.03389 1.30208 7.92972 1.25C7.84378 1.20703 7.71488 1.17187 7.64457 1.17187C7.57816 1.17578 7.45316 1.21094 7.37113 1.25C7.28128 1.30078 7.19925 1.38672 7.14847 1.48437ZM4.80472 6.25C4.76175 6.33594 4.7266 6.45703 4.7266 6.52344C4.7266 6.58984 4.76175 6.71094 4.80472 6.79687C4.85681 6.90104 4.93493 6.97917 5.0391 7.03125C5.19144 7.10547 5.27347 7.10937 7.65628 7.10937C10.0391 7.10937 10.1211 7.10547 10.2735 7.03125C10.3776 6.97917 10.4558 6.90104 10.5078 6.79687C10.5508 6.71094 10.586 6.58984 10.586 6.52344C10.586 6.45703 10.5508 6.33594 10.5078 6.25C10.4558 6.14583 10.3776 6.06771 10.2735 6.01562C10.1211 5.94141 10.0391 5.9375 7.64457 5.9375C5.27347 5.94141 5.17191 5.94531 5.02738 6.01562C4.93753 6.06641 4.8555 6.15234 4.80472 6.25ZM4.96878 8.50391C4.7266 8.62891 4.36722 8.84375 4.168 8.98437C3.96488 9.125 3.58597 9.45703 3.30082 9.74609C3.01957 10.0234 2.68753 10.3984 2.55863 10.5781C2.42972 10.7578 2.2305 11.0625 2.11722 11.2617C2.00394 11.4609 1.84378 11.7812 1.76175 11.9727C1.67582 12.1641 1.54691 12.5273 1.47269 12.7734C1.39847 13.0195 1.30863 13.3906 1.27347 13.5937C1.23832 13.7969 1.19925 14.1758 1.18363 14.4336C1.17191 14.7109 1.17972 15.0703 1.20707 15.3125C1.23441 15.5391 1.2891 15.8437 1.32816 15.9961C1.37113 16.1484 1.44535 16.3672 1.49613 16.4844C1.55082 16.6016 1.66019 16.8047 1.74222 16.9336C1.82425 17.0625 2.00785 17.2812 2.14847 17.4219C2.2891 17.5625 2.54691 17.7617 2.71488 17.8711C2.88675 17.9766 3.19535 18.1328 3.39847 18.2148C3.6016 18.2969 3.96097 18.4141 4.19925 18.4766C4.43363 18.5391 4.87503 18.625 5.17582 18.668C5.4766 18.7109 6.0391 18.7695 6.42582 18.793C6.86332 18.8203 7.50394 18.8281 8.12503 18.8125C8.67191 18.8008 9.35941 18.7617 9.64847 18.7305C9.93753 18.6992 10.3672 18.6367 10.6055 18.5937C10.8438 18.5469 11.1993 18.457 11.3946 18.3945L11.7578 18.2812C11.793 17.9336 11.836 17.7422 11.8789 17.6367C11.918 17.5273 12.0039 17.3594 12.0703 17.2539L12.1875 17.0703C12.0039 16.7812 11.9141 16.6016 11.8672 16.4844C11.8047 16.3203 11.7852 16.1836 11.7852 15.8984C11.7852 15.6133 11.8047 15.4766 11.8672 15.3125C11.9141 15.1953 12.0039 15.0156 12.0703 14.9102L12.1875 14.7266C12.0039 14.4375 11.9141 14.2578 11.8672 14.1406C11.8047 13.9766 11.7852 13.8398 11.7852 13.5547C11.7852 13.2695 11.8047 13.1328 11.8672 12.9687C11.9141 12.8516 12.0039 12.6719 12.0703 12.5664L12.1875 12.3828C12.0039 12.0937 11.9141 11.9141 11.8672 11.7969C11.8047 11.6328 11.7852 11.4961 11.7852 11.2109C11.7852 10.9258 11.8047 10.7891 11.8672 10.625C11.9102 10.5078 12.0118 10.3164 12.086 10.2031C12.1641 10.0937 12.2266 9.98437 12.2266 9.96094C12.2266 9.9375 12.0821 9.78516 11.9024 9.62109C11.7266 9.45703 11.4219 9.20703 11.2305 9.0625C11.0391 8.91797 10.7461 8.72656 10.586 8.63281C10.4258 8.53906 10.1993 8.42187 10.086 8.37109L9.88285 8.28125H5.41019L4.96878 8.50391ZM13.0078 10.9336C12.9649 11.0195 12.9297 11.1445 12.9297 11.207C12.9297 11.2734 12.9649 11.3945 13.0078 11.4805C13.0599 11.5846 13.1381 11.6628 13.2422 11.7148C13.3907 11.793 13.4766 11.793 15.8789 11.793C18.2813 11.793 18.3633 11.793 18.5157 11.7148C18.6198 11.6628 18.698 11.5846 18.75 11.4805C18.793 11.3945 18.8282 11.2734 18.8282 11.207C18.8282 11.1445 18.793 11.0195 18.75 10.9336C18.698 10.8294 18.6198 10.7513 18.5157 10.6992C18.3633 10.625 18.2813 10.6211 15.8672 10.625C13.4727 10.625 13.3711 10.6289 13.2305 10.7031C13.1407 10.75 13.0547 10.8359 13.0078 10.9336ZM13.0078 13.2773C12.9649 13.3633 12.9297 13.4883 12.9297 13.5508C12.9297 13.6172 12.9649 13.7383 13.0078 13.8242C13.0599 13.9284 13.1381 14.0065 13.2422 14.0586C13.3907 14.1367 13.4766 14.1367 15.8789 14.1367C18.2813 14.1367 18.3633 14.1367 18.5157 14.0586C18.6198 14.0065 18.698 13.9284 18.75 13.8242C18.793 13.7383 18.8282 13.6172 18.8282 13.5508C18.8282 13.4883 18.793 13.3633 18.75 13.2773C18.698 13.1732 18.6198 13.0951 18.5157 13.043C18.3633 12.9687 18.2813 12.9648 15.8672 12.9687C13.4727 12.9687 13.3711 12.9727 13.2305 13.0469C13.1407 13.0937 13.0547 13.1797 13.0078 13.2773ZM13.0078 15.6211C12.9649 15.707 12.9297 15.832 12.9297 15.8945C12.9297 15.9609 12.9649 16.082 13.0078 16.168C13.0599 16.2721 13.1381 16.3503 13.2422 16.4023C13.3907 16.4805 13.4766 16.4805 15.8789 16.4805C18.2813 16.4805 18.3633 16.4805 18.5157 16.4023C18.6198 16.3503 18.698 16.2721 18.75 16.168C18.793 16.082 18.8282 15.9609 18.8282 15.8945C18.8282 15.832 18.793 15.707 18.75 15.6211C18.698 15.5169 18.6198 15.4388 18.5157 15.3867C18.3633 15.3125 18.2813 15.3086 15.8672 15.3125C13.4727 15.3125 13.3711 15.3164 13.2305 15.3906C13.1407 15.4375 13.0547 15.5234 13.0078 15.6211ZM13.0078 17.9648C12.9649 18.0508 12.9297 18.1758 12.9297 18.2383C12.9297 18.3047 12.9649 18.4258 13.0078 18.5117C13.0599 18.6159 13.1381 18.694 13.2422 18.7461C13.3907 18.8242 13.4766 18.8242 15.8789 18.8242C18.2813 18.8242 18.3633 18.8242 18.5157 18.7461C18.6198 18.694 18.698 18.6159 18.75 18.5117C18.793 18.4258 18.8282 18.3047 18.8282 18.2383C18.8282 18.1758 18.793 18.0508 18.75 17.9648C18.698 17.8607 18.6198 17.7826 18.5157 17.7305C18.3633 17.6562 18.2813 17.6523 15.8672 17.6562C13.4727 17.6562 13.3711 17.6602 13.2305 17.7344C13.1407 17.7812 13.0547 17.8672 13.0078 17.9648ZM7.64457 9.45312C7.71488 9.45312 7.84378 9.48437 7.92972 9.52734C8.03389 9.57943 8.11201 9.65755 8.1641 9.76172C8.2266 9.89453 8.24222 9.99609 8.24222 10.8945L8.42582 10.9844C8.52738 11.0312 8.71878 11.1719 8.84769 11.2891C8.99613 11.4297 9.12503 11.6016 9.20707 11.7578C9.28128 11.9062 9.3516 12.1289 9.37894 12.3008C9.42191 12.5742 9.418 12.6094 9.33988 12.7812C9.2891 12.8945 9.20707 12.9961 9.12894 13.043C9.05082 13.0937 8.93363 13.1211 8.82816 13.1211C8.71878 13.1211 8.6016 13.0937 8.52347 13.043C8.45316 13 8.36722 12.918 8.32816 12.8594C8.293 12.8008 8.25003 12.6562 8.23441 12.5352C8.21878 12.418 8.17191 12.2773 8.12894 12.2227C8.08988 12.1719 7.99613 12.0937 7.92582 12.0508C7.83988 12.0039 7.7266 11.9766 7.61722 11.9805C7.51175 11.9844 7.40238 12.0156 7.34378 12.0586C7.2891 12.1016 7.20316 12.1953 7.15628 12.2656C7.1016 12.3516 7.06644 12.457 7.06644 12.5547C7.06644 12.6523 7.1016 12.7617 7.15628 12.8477C7.20316 12.9219 7.29691 13.0117 7.36332 13.0508C7.42582 13.0859 7.62894 13.1328 7.81253 13.1562C8.05472 13.1875 8.21488 13.2344 8.418 13.332C8.57035 13.4062 8.77347 13.5508 8.87503 13.6562C8.9805 13.7617 9.1016 13.9141 9.15238 14C9.20316 14.0859 9.26957 14.2461 9.30472 14.3516C9.33988 14.4609 9.37894 14.6367 9.39457 14.7422C9.40628 14.8516 9.39847 15.0547 9.37113 15.1914C9.34769 15.332 9.27347 15.5508 9.20707 15.6797C9.14066 15.8086 9.00394 16.0039 8.90238 16.1094C8.80082 16.2187 8.61332 16.3633 8.24222 16.5586V16.8711C8.24222 17.1055 8.22269 17.2227 8.1641 17.3398C8.11201 17.444 8.03389 17.5221 7.92972 17.5742C7.84378 17.6172 7.71878 17.6523 7.65628 17.6523C7.58988 17.6523 7.46878 17.6172 7.38285 17.5742C7.27868 17.5221 7.20056 17.444 7.14847 17.3398C7.08988 17.2227 7.07035 17.1055 7.07035 16.5586L6.84378 16.4453C6.72269 16.3789 6.543 16.2539 6.44535 16.1602C6.3516 16.0703 6.22269 15.9141 6.16019 15.8164C6.1016 15.7227 6.01566 15.5273 5.97269 15.3867C5.92972 15.25 5.89457 15.0469 5.89457 14.9375C5.89457 14.8008 5.92191 14.707 5.98441 14.6094C6.03128 14.5391 6.11722 14.4453 6.17191 14.4023C6.2305 14.3594 6.33988 14.3281 6.44535 14.3242C6.55472 14.3203 6.668 14.3477 6.75394 14.3945C6.82425 14.4375 6.918 14.5156 6.95707 14.5664C7.00003 14.6211 7.04691 14.7617 7.06253 14.8789C7.07816 15 7.12113 15.1445 7.15628 15.2031C7.19535 15.2617 7.28128 15.3437 7.3516 15.3867C7.42972 15.4336 7.55082 15.4687 7.65628 15.4687C7.77347 15.4687 7.87503 15.4414 7.96488 15.3789C8.04691 15.3242 8.12894 15.2227 8.17582 15.1133C8.2305 14.9844 8.24222 14.8984 8.22269 14.7812C8.20316 14.6875 8.14457 14.582 8.07035 14.5039C8.00394 14.4375 7.87894 14.3633 7.793 14.3398C7.70707 14.3164 7.57425 14.2969 7.50003 14.293C7.42191 14.293 7.28128 14.2695 7.18753 14.2422C7.08988 14.2109 6.92191 14.1445 6.81644 14.0898C6.70707 14.0352 6.53128 13.9023 6.42582 13.7969C6.31644 13.6875 6.18363 13.5156 6.12503 13.4102C6.06644 13.3047 5.99222 13.1133 5.95707 12.9844C5.92582 12.8555 5.89847 12.6562 5.89847 12.5352C5.89847 12.418 5.92191 12.2344 5.94925 12.125C5.9805 12.0195 6.05082 11.8398 6.1055 11.7266C6.1641 11.6133 6.30082 11.4297 6.4141 11.3164C6.52738 11.2031 6.72269 11.0625 7.07035 10.8945V10.4062C7.07035 9.99609 7.08207 9.89453 7.14847 9.76172C7.19535 9.66406 7.28128 9.57812 7.37113 9.53125C7.45316 9.48828 7.57425 9.45312 7.64457 9.45312Z" fill="#222754"/>
</g>
<defs>
<clipPath id="clip0_2081_985">
<rect width="20" height="20" fill="white"/>
</clipPath>
</defs>
</svg>
