<svg width="22" height="22" viewBox="0 0 22 22" fill="none" xmlns="http://www.w3.org/2000/svg">
<path d="M12.8333 6.64584C12.8333 6.96311 12.7393 7.27326 12.563 7.53706C12.3867 7.80087 12.1362 8.00648 11.8431 8.12789C11.5499 8.24931 11.2274 8.28108 10.9162 8.21918C10.605 8.15728 10.3192 8.0045 10.0949 7.78015C9.87051 7.55581 9.71772 7.26997 9.65583 6.95879C9.59393 6.64762 9.6257 6.32507 9.74711 6.03195C9.86853 5.73883 10.0741 5.48829 10.3379 5.31202C10.6017 5.13575 10.9119 5.04167 11.2292 5.04167C11.6545 5.04191 12.0624 5.211 12.3632 5.51179C12.664 5.81257 12.8331 6.22046 12.8333 6.64584ZM22 11C22 8.82441 21.3549 6.69767 20.1462 4.88873C18.9375 3.07979 17.2195 1.66989 15.2095 0.83733C13.1995 0.00476615 10.9878 -0.213071 8.85401 0.211367C6.72022 0.635804 4.76021 1.68345 3.22183 3.22183C1.68345 4.76021 0.635804 6.72022 0.211367 8.85401C-0.213071 10.9878 0.00476615 13.1995 0.83733 15.2095C1.66989 17.2195 3.07979 18.9375 4.88873 20.1462C6.69767 21.3549 8.82441 22 11 22H22V11ZM19.25 11V19.25H11C9.36831 19.25 7.77325 18.7661 6.41655 17.8596C5.05984 16.9531 4.00242 15.6646 3.378 14.1571C2.75358 12.6497 2.5902 10.9909 2.90853 9.39051C3.22685 7.79017 4.01259 6.32016 5.16637 5.16637C6.32016 4.01259 7.79017 3.22685 9.39051 2.90853C10.9909 2.5902 12.6497 2.75358 14.1571 3.378C15.6646 4.00242 16.9531 5.05984 17.8596 6.41655C18.7661 7.77325 19.25 9.36831 19.25 11ZM12.8333 11.4583C12.8333 10.8505 12.5919 10.2677 12.1621 9.83788C11.7324 9.40811 11.1495 9.16667 10.5417 9.16667H8.25V11.9167H10.0833V16.5H12.8333V11.4583Z" fill="#646D7C"/>
</svg>
