<svg width="24" height="24" viewBox="0 0 24 24" fill="none" xmlns="http://www.w3.org/2000/svg">
<path d="M18.5547 1H5.44345C2.98842 1 1 2.98842 1 5.44437V18.5584C1 21.0116 2.98842 23 5.44345 23H18.5575C21.0107 23 23.0009 21.0116 23.0009 18.5565V5.44437C22.9991 2.98842 21.0107 1 18.5547 1ZM7.08259 18.4181C6.80757 18.8994 6.19427 19.0617 5.71298 18.7866C5.23169 18.5116 5.06942 17.8983 5.34445 17.417L6.0595 16.1794C6.86807 15.9292 7.52446 16.1217 8.04517 16.7487L7.08259 18.4181ZM14.0343 15.7183H4.93283C4.37728 15.7183 3.93174 15.2728 3.93174 14.7172C3.93174 14.1617 4.37728 13.7161 4.93283 13.7161H7.48412L10.7514 8.05434L9.73106 6.28319C9.45604 5.8019 9.6183 5.1941 10.0996 4.91358C10.5809 4.63855 11.1887 4.80082 11.4692 5.28211L11.9065 6.05492L12.352 5.28486C12.6271 4.80357 13.2404 4.6413 13.7216 4.91633C14.2029 5.19135 14.3652 5.80465 14.0902 6.28502L9.79798 13.7152H12.903C13.9077 13.7161 14.4715 14.8987 14.0343 15.7183ZM18.9379 15.7238H17.4913L18.4676 17.417C18.7426 17.8983 18.5804 18.5061 18.0991 18.7866C17.6178 19.0617 17.01 18.8994 16.7295 18.4181C15.0858 15.5661 13.85 13.4329 13.0313 12.011C12.1925 10.5644 12.7921 9.11226 13.3834 8.61997C14.0407 9.74756 15.0225 11.45 16.3334 13.7216H18.9379C19.4935 13.7216 19.939 14.1672 19.939 14.7227C19.9381 15.2783 19.4935 15.7238 18.9379 15.7238Z" fill="#646D7C"/>
</svg>
