<svg width="26" height="24" viewBox="0 0 26 24" fill="none" xmlns="http://www.w3.org/2000/svg">
<path fill-rule="evenodd" clip-rule="evenodd" d="M19.47 6.16666C20.2814 6.14895 21.0667 6.45408 21.6533 7.015C22.0195 7.37917 22.2821 7.8343 22.414 8.33358C22.546 8.83287 22.5426 9.35829 22.4042 9.85583L21.3658 13.6317C21.0998 14.5992 20.5237 15.4526 19.7259 16.0611C18.928 16.6696 17.9525 16.9994 16.9492 17H8.51416C7.83463 16.9999 7.1788 16.7502 6.67122 16.2984C6.16364 15.8466 5.83967 15.2241 5.76083 14.5492L4.51083 4.75C4.50445 4.68212 4.47316 4.61901 4.42299 4.57285C4.37282 4.52668 4.30734 4.50073 4.23917 4.5H3.75C3.41848 4.5 3.10054 4.3683 2.86612 4.13388C2.6317 3.89946 2.5 3.58152 2.5 3.25C2.5 2.91848 2.6317 2.60054 2.86612 2.36612C3.10054 2.1317 3.41848 2 3.75 2H4.23917C4.91827 2.00022 5.57368 2.2496 6.08116 2.70086C6.58865 3.15213 6.91292 3.77391 6.9925 4.44833L7.21166 6.16666H19.47ZM18.2112 14.0724C18.5739 13.796 18.8363 13.4086 18.9583 12.9692L20 9.19333C20.017 9.13125 20.0194 9.06607 20.0069 9.00292C19.9945 8.93976 19.9676 8.88035 19.9284 8.82932C19.8892 8.7783 19.8386 8.73706 19.7808 8.70884C19.723 8.68062 19.6594 8.66618 19.595 8.66666H7.53083L8.24333 14.25C8.24933 14.3179 8.2804 14.3811 8.33047 14.4273C8.38054 14.4735 8.44602 14.4994 8.51416 14.5H16.9492C17.4052 14.499 17.8484 14.3488 18.2112 14.0724Z" fill="#A6ABB4"/>
<path d="M8.33338 22C9.25385 22 10 21.2538 10 20.3333C10 19.4129 9.25385 18.6667 8.33338 18.6667C7.41291 18.6667 6.66672 19.4129 6.66672 20.3333C6.66672 21.2538 7.41291 22 8.33338 22Z" fill="#A6ABB4"/>
<path d="M16.6667 22C17.5871 22 18.3333 21.2538 18.3333 20.3333C18.3333 19.4129 17.5871 18.6667 16.6667 18.6667C15.7462 18.6667 15 19.4129 15 20.3333C15 21.2538 15.7462 22 16.6667 22Z" fill="#A6ABB4"/>
</svg>
