<svg width="24" height="24" viewBox="0 0 24 24" fill="none" xmlns="http://www.w3.org/2000/svg">
<path d="M19.7917 6.68333H17.5V6.5C17.5 5.04131 16.9205 3.64236 15.8891 2.61091C14.8576 1.57946 13.4587 1 12 1C10.5413 1 9.14236 1.57946 8.11091 2.61091C7.07946 3.64236 6.5 5.04131 6.5 6.5V6.68333H4.20833C3.36061 6.69356 2.55048 7.03486 1.95101 7.63434C1.35153 8.23382 1.01023 9.04394 1 9.89167V17.9583C1.01172 19.2918 1.54666 20.5674 2.48963 21.5104C3.4326 22.4533 4.70816 22.9883 6.04167 23H17.9583C19.2918 22.9883 20.5674 22.4533 21.5104 21.5104C22.4533 20.5674 22.9883 19.2918 23 17.9583V9.89167C22.9898 9.04394 22.6485 8.23382 22.049 7.63434C21.4495 7.03486 20.6394 6.69356 19.7917 6.68333ZM9.25 6.5C9.25 5.77065 9.53973 5.07118 10.0555 4.55546C10.5712 4.03973 11.2707 3.75 12 3.75C12.7293 3.75 13.4288 4.03973 13.9445 4.55546C14.4603 5.07118 14.75 5.77065 14.75 6.5V6.68333H9.25V6.5ZM20.25 17.9583C20.2529 18.2601 20.1957 18.5594 20.0815 18.8388C19.9674 19.1181 19.7987 19.3719 19.5853 19.5853C19.3719 19.7987 19.1181 19.9674 18.8388 20.0815C18.5594 20.1957 18.2601 20.2529 17.9583 20.25H6.04167C5.7399 20.2529 5.44058 20.1957 5.16122 20.0815C4.88185 19.9674 4.62805 19.7987 4.41466 19.5853C4.20127 19.3719 4.03258 19.1181 3.91846 18.8388C3.80433 18.5594 3.74706 18.2601 3.75 17.9583V9.89167C3.74625 9.8305 3.75554 9.76924 3.77724 9.71193C3.79895 9.65462 3.83258 9.60258 3.87591 9.55925C3.91925 9.51592 3.97129 9.48228 4.0286 9.46058C4.0859 9.43887 4.14717 9.42958 4.20833 9.43333H6.5V10.625C6.5 10.9897 6.64487 11.3394 6.90273 11.5973C7.16059 11.8551 7.51033 12 7.875 12C8.23967 12 8.58941 11.8551 8.84727 11.5973C9.10513 11.3394 9.25 10.9897 9.25 10.625V9.43333H14.75V10.625C14.75 10.9897 14.8949 11.3394 15.1527 11.5973C15.4106 11.8551 15.7603 12 16.125 12C16.4897 12 16.8394 11.8551 17.0973 11.5973C17.3551 11.3394 17.5 10.9897 17.5 10.625V9.43333H19.7917C19.8528 9.42958 19.9141 9.43887 19.9714 9.46058C20.0287 9.48228 20.0808 9.51592 20.1241 9.55925C20.1674 9.60258 20.2011 9.65462 20.2228 9.71193C20.2445 9.76924 20.2537 9.8305 20.25 9.89167V17.9583Z" fill="#646D7C"/>
</svg>
