<svg width="24" height="24" viewBox="0 0 24 24" fill="none" xmlns="http://www.w3.org/2000/svg">
<path d="M13.8494 7.765C13.8494 7.48083 13.6475 7.2425 13.3721 7.19667L10.3617 6.6925C9.19608 6.5 8.35169 5.50083 8.35169 4.31833C8.35169 2.98917 9.43471 1.91667 10.7564 1.91667H11.1051V1H12.9408V1.91667C14.4552 1.91667 15.6942 3.15417 15.6942 4.66667H13.8586C13.8586 4.1625 13.4456 3.75 12.9408 3.75H10.7564C10.4443 3.75 10.1873 4.00667 10.1873 4.31833C10.1873 4.6025 10.3892 4.84083 10.6646 4.88667L13.675 5.39083C14.8406 5.58333 15.685 6.5825 15.685 7.765C15.685 9.09417 14.602 10.1667 13.2804 10.1667H12.9316V11.0833H11.096V10.1667C9.58156 10.1667 8.34251 8.92917 8.34251 7.41667H10.1781C10.1781 7.92083 10.5912 8.33333 11.096 8.33333H13.2804C13.5924 8.33333 13.8494 8.07667 13.8494 7.765ZM20.2741 3.75C18.7597 3.75 17.5207 4.9875 17.5207 6.5V11.2483C17.2728 11.1658 17.025 11.1017 16.7589 11.0833C16.0338 11.0467 15.3179 11.2942 14.7672 11.7892L12.0138 14.3192L9.26033 11.7892C8.70964 11.2942 7.99374 11.0467 7.27785 11.0925C7.01168 11.1108 6.75469 11.175 6.51606 11.2575V6.5C6.51606 4.9875 5.27701 3.75 3.76262 3.75C2.24823 3.75 1 4.9875 1 6.5V17.7108C1 18.3892 1.24781 19.0492 1.70672 19.5533L4.81811 23H7.28703L3.06508 18.325C2.90905 18.16 2.82645 17.94 2.82645 17.7108V6.5C2.82645 5.99583 3.23947 5.58333 3.74426 5.58333C4.24906 5.58333 4.66208 5.99583 4.66208 6.5V13.8333H4.67126C4.67126 14.4658 4.89153 15.1075 5.34126 15.6392L7.74593 18.1325L9.06758 16.8583L6.7088 14.4108C6.4151 14.0625 6.42428 13.5492 6.72716 13.21C6.89237 13.0267 7.11264 12.9167 7.36045 12.9075C7.60826 12.8983 7.83771 12.9808 8.0121 13.1367L11.7109 16.5283C11.9036 16.7025 12.0046 16.95 12.0046 17.2067V22.9908H13.8402V17.2067C13.8402 16.6292 13.6567 16.0608 13.3171 15.6025L15.9879 13.1458C16.1715 12.9808 16.4101 12.8983 16.6487 12.9167C16.8965 12.9258 17.1168 13.0358 17.282 13.2192C17.4289 13.3842 17.5023 13.5858 17.5115 13.7875V13.8333C17.5115 14.035 17.4564 14.2275 17.3371 14.3742L15.015 16.785L16.3367 18.0592L18.7046 15.6025C19.1268 15.0983 19.3379 14.4658 19.3379 13.8425V6.5C19.3379 5.99583 19.7509 5.58333 20.2557 5.58333C20.7605 5.58333 21.1735 5.99583 21.1735 6.5V17.7108C21.1735 17.94 21.0909 18.16 20.9349 18.325L16.713 23H19.1819L22.2933 19.5533C22.7522 19.0492 23 18.3892 23 17.7108V6.5C23 4.9875 21.761 3.75 20.2466 3.75H20.2741Z" fill="#646D7C"/>
</svg>
