<svg width="24" height="24" viewBox="0 0 24 24" fill="none" xmlns="http://www.w3.org/2000/svg">
<path fill-rule="evenodd" clip-rule="evenodd" d="M17.225 3H6.775C5.03333 3 3.475 3.91667 2.55833 5.475C1.55 7.21667 1 9.23333 1 11.25C1 15.7417 2.83333 20.4167 5.85833 20.4167C7.50833 20.4167 8.88333 19.1333 9.525 17.025C9.61667 16.8417 9.70833 16.75 9.89167 16.75H14.1083C14.2917 16.75 14.475 16.8417 14.475 17.025C15.3917 19.9583 17.1333 20.4167 18.05 20.4167C21.1667 20.4167 23 15.7417 23 11.25C23 9.23333 22.45 7.21667 21.4417 5.38333C20.6167 3.91667 18.9667 3 17.225 3ZM18.1417 17.6667C17.8667 17.6667 17.5 17.2083 17.225 16.2C16.7667 14.9167 15.575 14 14.2 14H9.89167C8.51667 14 7.325 14.9167 6.86667 16.2C6.59167 17.1167 6.13333 17.6667 5.85833 17.6667C5.30833 17.575 3.75 15.2833 3.75 11.25C3.75 9.69167 4.20833 8.13333 4.94167 6.75833C5.30833 6.11667 6.04167 5.75 6.775 5.75H17.225C17.9583 5.75 18.6917 6.11667 19.0583 6.75833C19.8833 8.13333 20.25 9.69167 20.25 11.25C20.25 15.2833 18.6917 17.575 18.1417 17.6667ZM10.6237 8.50033H10.1654V8.04199C10.1654 7.30866 9.5237 6.66699 8.79036 6.66699C8.05703 6.66699 7.41536 7.30866 7.41536 8.04199V8.50033H6.95703C6.2237 8.50033 5.58203 9.14199 5.58203 9.87533C5.58203 10.6087 6.2237 11.2503 6.95703 11.2503H7.41536V11.7087C7.41536 12.442 8.05703 13.0837 8.79036 13.0837C9.5237 13.0837 10.1654 12.442 10.1654 11.7087V11.2503H10.6237C11.357 11.2503 11.9987 10.6087 11.9987 9.87533C11.9987 9.14199 11.357 8.50033 10.6237 8.50033ZM18.4167 9.41634C18.4167 10.4289 17.5959 11.2497 16.5833 11.2497C15.5708 11.2497 14.75 10.4289 14.75 9.41634C14.75 8.40382 15.5708 7.58301 16.5833 7.58301C17.5959 7.58301 18.4167 8.40382 18.4167 9.41634Z" fill="#646D7C"/>
</svg>
