<svg width="16" height="16" viewBox="0 0 16 16" fill="none" xmlns="http://www.w3.org/2000/svg">
<path d="M14.6667 3.76547V1.66995C14.6667 1.11741 14.2187 0.67018 13.6667 0.67018C13.1147 0.67018 12.6667 1.11741 12.6667 1.66995V2.39578L10.0507 0.630855C8.80467 -0.210285 7.19533 -0.210285 5.94933 0.630855L1.616 3.55419C0.604 4.2367 0 5.37244 0 6.59282V12.3342C0 14.3557 1.64533 16 3.66667 16H5.66667C6.21867 16 6.66667 15.5528 6.66667 15.0002V9.66812C6.66667 9.48416 6.81667 9.33486 7 9.33486H9C9.18333 9.33486 9.33333 9.48416 9.33333 9.66812V15.0002C9.33333 15.5528 9.78133 16 10.3333 16H12.3333C14.3547 16 16 14.3557 16 12.3342V6.59282C16 5.49041 15.5073 4.45731 14.6667 3.76547ZM14 12.3342C14 13.2526 13.2527 14.0005 12.3333 14.0005H11.3333V9.66812C11.3333 8.38175 10.2867 7.33532 9 7.33532H7C5.71333 7.33532 4.66667 8.38175 4.66667 9.66812V14.0005H3.66667C2.74733 14.0005 2 13.2526 2 12.3342V6.59282C2 6.03762 2.27467 5.52173 2.73467 5.21114L7.068 2.28781C7.63467 1.9059 8.366 1.9059 8.93267 2.28781L13.266 5.21181C13.7253 5.52173 14.0007 6.03828 14.0007 6.59282L14 12.3342Z" fill="#A6ABB4"/>
</svg>
