<svg width="24" height="24" viewBox="0 0 24 24" fill="none" xmlns="http://www.w3.org/2000/svg">
<path d="M16.8744 6.53134C15.3188 5.14077 13.227 4.48169 11.138 4.71544C7.83342 5.0876 5.1302 7.75141 4.70945 11.0477C4.36754 13.7353 5.78103 16.3405 7.33476 17.732C7.96725 18.2975 8.33025 19.1757 8.33025 20.1428C8.33025 21.7185 9.61174 23 11.1875 23H12.6294C14.3023 23 15.6635 21.6397 15.6635 19.9659C15.6635 19.0153 16.0366 18.1591 16.6865 17.6183C18.3631 16.2232 19.3246 14.1763 19.3246 12.0038C19.3246 9.91747 18.4309 7.92191 16.8735 6.53042L16.8744 6.53134ZM14.9274 15.5054C14.2803 16.0444 13.7743 16.7282 13.4305 17.5001H13.3728V13.6428C13.9613 13.3256 14.4315 12.8169 14.69 12.1944C14.91 11.6628 14.4746 11.0835 13.8989 11.0835H10.0966C9.5219 11.0835 9.08558 11.6637 9.30557 12.1944C9.56315 12.8169 10.0343 13.3256 10.6228 13.6428V17.5001H10.5C10.1773 16.8071 9.73182 16.1847 9.16899 15.6823C8.18542 14.8014 7.22293 13.0836 7.43834 11.3951C7.69959 9.34089 9.38532 7.67991 11.446 7.44708C11.6293 7.42691 11.8108 7.41683 11.9914 7.41683C13.1225 7.41683 14.1904 7.82108 15.0429 8.5819C16.0164 9.45181 16.5756 10.6994 16.5756 12.0038C16.5756 13.3577 15.9752 14.6328 14.9274 15.5045V15.5054ZM15.9926 3.02788L16.8359 1.65564C17.2337 1.00848 18.0807 0.806816 18.727 1.20373C19.3741 1.60156 19.5767 2.44763 19.1789 3.09479L18.3356 4.46703C18.0761 4.88961 17.6252 5.12244 17.1632 5.12244C16.9166 5.12244 16.6691 5.05735 16.4445 4.91894C15.7973 4.52111 15.5948 3.67504 15.9926 3.02788ZM22.1864 7.69733L20.8775 8.28857C20.6941 8.37199 20.5016 8.41049 20.3128 8.41049C19.7894 8.41049 19.2889 8.10982 19.0588 7.60108C18.7462 6.909 19.0542 6.09409 19.7463 5.78243L21.0553 5.19119C21.7483 4.87677 22.5613 5.1866 22.8739 5.87868C23.1865 6.57076 22.8785 7.38566 22.1864 7.69733ZM4.74062 3.09388C4.34279 2.44672 4.54629 1.59972 5.19345 1.20373C5.84153 0.805899 6.6876 1.00848 7.0836 1.65656L7.92509 3.02879C8.32292 3.67595 8.11942 4.52294 7.47226 4.91894C7.24768 5.05644 6.99926 5.12244 6.75452 5.12244C6.29252 5.12244 5.84061 4.88961 5.58211 4.46611L4.74062 3.09388ZM4.81304 7.67074C4.57654 8.16391 4.08521 8.45174 3.57188 8.45174C3.37205 8.45174 3.17039 8.40865 2.97881 8.31699L1.78074 7.74316C1.09599 7.415 0.807246 6.59367 1.13541 5.90801C1.46357 5.22235 2.28673 4.93452 2.96964 5.26269L4.16771 5.83651C4.85245 6.16376 5.1412 6.986 4.81304 7.67074Z" fill="#646D7C"/>
</svg>
