<svg width="23" height="22" viewBox="0 0 23 22" fill="none" xmlns="http://www.w3.org/2000/svg">
<g clip-path="url(#clip0_1166_7347)">
<path d="M17.4583 2.75H16.8698C16.6672 1.9652 16.2102 1.26966 15.5704 0.772107C14.9305 0.274555 14.1439 0.0030376 13.3333 0L9.66667 0C8.85614 0.0030376 8.06946 0.274555 7.4296 0.772107C6.78975 1.26966 6.3328 1.9652 6.13017 2.75H5.54167C4.20498 2.75146 2.92346 3.2831 1.97828 4.22828C1.0331 5.17346 0.501456 6.45498 0.5 7.79167L0.5 16.9583C0.501456 18.295 1.0331 19.5765 1.97828 20.5217C2.92346 21.4669 4.20498 21.9985 5.54167 22H17.4583C18.7949 21.9983 20.0763 21.4666 21.0215 20.5215C21.9666 19.5763 22.4983 18.2949 22.5 16.9583V7.79167C22.4983 6.45505 21.9666 5.17367 21.0215 4.22855C20.0763 3.28342 18.7949 2.7517 17.4583 2.75ZM5.54167 5.5H17.4583C18.0661 5.5 18.649 5.74144 19.0788 6.17121C19.5086 6.60098 19.75 7.18388 19.75 7.79167V10.0833H3.25V7.79167C3.25 7.18388 3.49144 6.60098 3.92121 6.17121C4.35098 5.74144 4.93388 5.5 5.54167 5.5ZM17.4583 19.25H5.54167C4.93388 19.25 4.35098 19.0086 3.92121 18.5788C3.49144 18.149 3.25 17.5661 3.25 16.9583V12.8333H9.66667C9.66667 13.3196 9.85982 13.7859 10.2036 14.1297C10.5475 14.4735 11.0138 14.6667 11.5 14.6667C11.9862 14.6667 12.4525 14.4735 12.7964 14.1297C13.1402 13.7859 13.3333 13.3196 13.3333 12.8333H19.75V16.9583C19.75 17.5661 19.5086 18.149 19.0788 18.5788C18.649 19.0086 18.0661 19.25 17.4583 19.25Z" fill="#A6ABB4"/>
</g>
<defs>
<clipPath id="clip0_1166_7347">
<rect width="22" height="22" fill="white" transform="translate(0.5)"/>
</clipPath>
</defs>
</svg>
