<svg width="24" height="24" viewBox="0 0 24 24" fill="none" xmlns="http://www.w3.org/2000/svg">
<path d="M19.3333 9.25H17.5C15.4742 9.25 13.8333 10.8908 13.8333 12.9167V19.3333C13.8333 21.3592 15.4742 23 17.5 23H19.3333C21.3592 23 23 21.3592 23 19.3333V12.9167C23 10.8908 21.3592 9.25 19.3333 9.25ZM20.25 19.3333C20.25 19.8375 19.8375 20.25 19.3333 20.25H17.5C16.9958 20.25 16.5833 19.8375 16.5833 19.3333V12.9167C16.5833 12.4125 16.9958 12 17.5 12H19.3333C19.8375 12 20.25 12.4125 20.25 12.9167V19.3333ZM9.46083 13.8333H12V17.5H2.69583C1.76083 17.5 1 16.7392 1 15.8042V14.75C1 13.7417 1.825 12.9167 2.83333 12.9167V6.04167C2.83333 3.26417 5.0975 1 7.875 1H16.125C18.9025 1 21.1667 3.26417 21.1667 6.04167C21.1667 6.8025 20.5525 7.41667 19.7917 7.41667C19.0308 7.41667 18.4167 6.8025 18.4167 6.04167C18.4167 4.77667 17.39 3.75 16.125 3.75H7.875C6.61 3.75 5.58333 4.77667 5.58333 6.04167V12.9167H8.6175L9.46083 13.8333Z" fill="#646D7C"/>
</svg>
