<svg width="24" height="24" viewBox="0 0 24 24" fill="none" xmlns="http://www.w3.org/2000/svg">
<path d="M13.7496 10.542C13.9513 16.2538 22.3654 15.8349 21.9474 10.168L19.6319 1.97394C19.2194 0.597105 17.8462 -0.228812 16.4107 0.0590211L12.3022 0.958271C11.8622 -0.508396 9.60628 -0.173812 9.6237 1.37535V1.54494L5.47395 2.45335C3.9752 2.7531 2.7707 3.84852 2.33162 5.31244L0.0573664 12.8969C-0.305634 15.2794 1.7532 17.4372 4.1237 17.417C6.49695 17.439 8.57228 15.2629 8.18453 12.8777L5.76912 5.22535C5.85437 5.19052 5.9442 5.16302 6.03862 5.14469L9.62462 4.35819V19.2504H5.04128C3.23362 19.2806 3.23453 21.9701 5.04128 22.0004H16.958C18.7656 21.9701 18.7647 19.2806 16.958 19.2504H12.3746V3.75594L15.9698 2.9676L13.8083 10.146C13.7698 10.2744 13.7505 10.4082 13.7505 10.5429L13.7496 10.542ZM4.08703 9.03319L5.28787 12.8337H2.94762L4.08703 9.03319ZM17.9195 6.02744L19.0654 10.0837H16.6976L17.9195 6.02744Z" fill="#646D7C"/>
</svg>
