<svg width="24" height="24" viewBox="0 0 24 24" fill="none" xmlns="http://www.w3.org/2000/svg">
<path d="M23 9.70833C23 8.60008 22.2126 7.67517 21.1667 7.4625V1H18.4167C18.4167 2.94058 15.0846 4.66667 12.4583 4.66667H4.20833C2.43917 4.66667 1 6.10583 1 7.875V11.5417C1 13.0972 2.11375 14.398 3.58592 14.6895L7.27917 23H8.56067C9.41775 23 10.2079 22.571 10.6745 21.8523C11.1411 21.1346 11.2126 20.2372 10.8652 19.4543L8.77425 14.75H12.4583C15.0846 14.75 18.4167 16.4761 18.4167 18.4167H21.1667V11.9542C22.2126 11.7415 23 10.8175 23 9.70833ZM3.75 7.875C3.75 7.622 3.95533 7.41667 4.20833 7.41667H7.41667V12H4.20833C3.95533 12 3.75 11.7947 3.75 11.5417V7.875ZM12.4583 12H10.1667V7.41667H12.4583C14.3623 7.41667 16.6594 6.74658 18.4167 5.53842V13.8783C16.6594 12.6701 14.3623 12 12.4583 12Z" fill="#646D7C"/>
</svg>
