<svg width="24" height="24" viewBox="0 0 24 24" fill="none" xmlns="http://www.w3.org/2000/svg">
<path d="M17.5 23H14.75V19.7917C14.75 19.6701 14.7017 19.5535 14.6158 19.4676C14.5298 19.3816 14.4132 19.3333 14.2917 19.3333H9.70833C9.58677 19.3333 9.47019 19.3816 9.38424 19.4676C9.29829 19.5535 9.25 19.6701 9.25 19.7917V23H6.5V19.7917C6.5 18.9408 6.83802 18.1247 7.4397 17.523C8.04138 16.9214 8.85743 16.5833 9.70833 16.5833H14.2917C15.1426 16.5833 15.9586 16.9214 16.5603 17.523C17.162 18.1247 17.5 18.9408 17.5 19.7917V23ZM12 15.6667C12.6345 15.6667 13.2548 15.4785 13.7825 15.126C14.3101 14.7734 14.7213 14.2724 14.9641 13.6861C15.2069 13.0999 15.2705 12.4548 15.1467 11.8324C15.0229 11.2101 14.7173 10.6384 14.2686 10.1897C13.8199 9.74101 13.2483 9.43544 12.6259 9.31165C12.0036 9.18785 11.3585 9.25139 10.7722 9.49422C10.186 9.73705 9.6849 10.1483 9.33237 10.6759C8.97983 11.2035 8.79167 11.8238 8.79167 12.4583C8.79167 13.3092 9.12969 14.1253 9.73136 14.727C10.333 15.3286 11.1491 15.6667 12 15.6667ZM17.5 7.41667C18.1345 7.41667 18.7548 7.2285 19.2825 6.87597C19.8101 6.52343 20.2213 6.02236 20.4641 5.43611C20.7069 4.84986 20.7705 4.20478 20.6467 3.58242C20.5229 2.96006 20.2173 2.38839 19.7686 1.9397C19.3199 1.49101 18.7483 1.18544 18.1259 1.06165C17.5036 0.937854 16.8585 1.00139 16.2722 1.24422C15.686 1.48705 15.1849 1.89827 14.8324 2.42588C14.4798 2.95349 14.2917 3.57379 14.2917 4.20833C14.2917 5.05924 14.6297 5.87529 15.2314 6.47697C15.833 7.07865 16.6491 7.41667 17.5 7.41667ZM6.5 7.41667C7.13455 7.41667 7.75485 7.2285 8.28245 6.87597C8.81006 6.52343 9.22128 6.02236 9.46411 5.43611C9.70694 4.84986 9.77048 4.20478 9.64668 3.58242C9.52289 2.96006 9.21733 2.38839 8.76863 1.9397C8.31994 1.49101 7.74827 1.18544 7.12591 1.06165C6.50356 0.937854 5.85847 1.00139 5.27222 1.24422C4.68598 1.48705 4.1849 1.89827 3.83237 2.42588C3.47983 2.95349 3.29167 3.57379 3.29167 4.20833C3.29167 5.05924 3.62969 5.87529 4.23137 6.47697C4.83304 7.07865 5.6491 7.41667 6.5 7.41667ZM9.06667 8.36175C8.975 8.3535 8.88333 8.33333 8.79167 8.33333H4.20833C3.35743 8.33333 2.54138 8.67135 1.9397 9.27303C1.33802 9.87471 1 10.6908 1 11.5417L1 14.75H3.75V11.5417C3.75 11.4201 3.79829 11.3035 3.88424 11.2176C3.9702 11.1316 4.08678 11.0833 4.20833 11.0833H7.15267C7.46431 9.98569 8.13907 9.02622 9.06667 8.36175ZM19.7917 8.33333H15.2083C15.1167 8.33333 15.025 8.3535 14.9333 8.36175C15.8609 9.02622 16.5357 9.98569 16.8473 11.0833H19.7917C19.9132 11.0833 20.0298 11.1316 20.1158 11.2176C20.2017 11.3035 20.25 11.4201 20.25 11.5417V14.75H23V11.5417C23 10.6908 22.662 9.87471 22.0603 9.27303C21.4586 8.67135 20.6426 8.33333 19.7917 8.33333Z" fill="#646D7C"/>
</svg>
