<svg width="24" height="24" viewBox="0 0 24 24" fill="none" xmlns="http://www.w3.org/2000/svg">
<path d="M3.75 10.625C3.75 8.85583 5.18917 7.41667 6.95833 7.41667C8.7275 7.41667 10.1667 8.85583 10.1667 10.625C10.1667 12.3942 8.7275 13.8333 6.95833 13.8333C5.18917 13.8333 3.75 12.3942 3.75 10.625ZM6.95833 15.6667C3.67667 15.6667 1 18.3433 1 21.625C1 22.3858 1.61417 23 2.375 23C3.13583 23 3.75 22.3858 3.75 21.625C3.75 19.8558 5.18917 18.4167 6.95833 18.4167C8.7275 18.4167 10.1667 19.8558 10.1667 21.625C10.1667 22.3858 10.7808 23 11.5417 23C12.3025 23 12.9167 22.3858 12.9167 21.625C12.9167 18.3433 10.24 15.6667 6.95833 15.6667ZM17.9583 1H10.13C8.33333 1 6.665 1.9625 5.76667 3.52083C5.39083 4.18083 5.61083 5.015 6.27083 5.4C6.92167 5.77583 7.765 5.55583 8.15 4.89583C8.5625 4.19 9.32333 3.75 10.1392 3.75H17.9675C19.2325 3.75 20.2592 4.77667 20.2592 6.04167V12.4583C20.2592 13.7233 19.2325 14.75 17.9675 14.75H14.3008C13.54 14.75 12.9258 15.3642 12.9258 16.125C12.9258 16.8858 13.54 17.5 14.3008 17.5H17.9675C20.745 17.5 23.0092 15.2358 23.0092 12.4583V6.04167C23.0092 3.26417 20.745 1 17.9675 1H17.9583ZM12.4033 12.5133C12.6692 12.7792 13.0267 12.9167 13.375 12.9167C13.7233 12.9167 14.0808 12.7792 14.3467 12.5133L16.3175 10.5425L17.0875 11.3125C17.5825 11.8075 18.4167 11.4592 18.4167 10.7625V7.27917C18.4167 6.84833 18.0683 6.5 17.6375 6.5H14.1542C13.4575 6.5 13.1092 7.33417 13.6042 7.82917L14.3742 8.59917L12.4033 10.57C11.8625 11.1108 11.8625 11.9817 12.4033 12.5133Z" fill="#646D7C"/>
</svg>
