<svg width="16" height="16" viewBox="0 0 16 16" fill="none" xmlns="http://www.w3.org/2000/svg">
<path fill-rule="evenodd" clip-rule="evenodd" d="M1.40625 0H1.98438L8.00313 6.01562L8.20625 5.79688C8.325 5.66875 8.45625 5.4875 8.51875 5.35938C8.60313 5.1875 8.6375 5.0625 8.675 4.78125C8.70313 4.58437 8.75938 4.32187 8.80313 4.20312C8.84688 4.08438 8.94063 3.88437 9.0125 3.76562C9.11875 3.58437 9.44688 3.2375 12.6563 0.015625L13.3281 0.6875L10.7969 3.21875L11.4531 3.875L13.9844 1.34375L14.6563 2.01562L12.125 4.54688L12.7813 5.20312L15.3125 2.67188L15.9688 3.32812L14.1813 5.1125C12.6875 6.6 12.3563 6.91563 12.1875 7.00938C12.075 7.07188 11.9 7.15312 11.7969 7.1875C11.6938 7.225 11.4344 7.28438 11.2188 7.31563C10.95 7.35938 10.7688 7.40625 10.6406 7.46562C10.5313 7.51875 10.3563 7.64687 9.98438 7.99687L12.8469 10.8656C14.5563 12.5781 15.7438 13.7906 15.7938 13.875C15.8375 13.9531 15.9031 14.1063 15.9375 14.2188C15.9719 14.3312 16 14.4937 16 14.5781C16 14.6656 15.9781 14.8188 15.95 14.9219C15.9219 15.025 15.8656 15.175 15.825 15.2594C15.7844 15.3406 15.675 15.4812 15.5875 15.5719C15.4969 15.6656 15.3594 15.7719 15.2813 15.8125C15.2031 15.8531 15.0625 15.9094 14.9688 15.9438C14.8625 15.9781 14.7125 16 14.5781 16C14.4531 16 14.2875 15.975 14.1875 15.9406C14.0938 15.9094 13.9656 15.8594 13.9063 15.8281C13.8469 15.8 12.4969 14.4781 8 9.98438L5.11875 12.8594C2.69688 15.275 2.20625 15.75 2.0625 15.8188C1.96875 15.8656 1.80625 15.925 1.70313 15.9531C1.6 15.9781 1.4625 16 1.4 16C1.33438 16 1.2 15.9781 1.10313 15.95C1.00313 15.9219 0.843754 15.8594 0.750004 15.8125C0.656254 15.7656 0.512504 15.6562 0.428129 15.575C0.346879 15.4906 0.243754 15.3594 0.200004 15.2812C0.156254 15.2031 0.0906293 15.05 0.0562543 14.9375C0.0062543 14.7812 -0.0031207 14.6844 0.0093793 14.5156C0.0187543 14.3937 0.0531293 14.2188 0.0906293 14.125C0.125004 14.0312 0.196879 13.8906 0.246879 13.8125C0.300004 13.7344 1.51563 12.4969 5.5625 8.45312L3.59688 6.48438C1.9625 4.84375 1.60625 4.47187 1.4625 4.25C1.36875 4.10313 1.24063 3.86562 1.17813 3.71875C1.11563 3.57188 1.03438 3.32812 0.993754 3.17188C0.934379 2.92812 0.925004 2.80937 0.921879 2.26562C0.921879 1.72812 0.931254 1.59062 0.993754 1.29688C1.03438 1.10938 1.12188 0.790625 1.1875 0.59375C1.25313 0.396875 1.33125 0.18125 1.35625 0.11875L1.40625 0ZM1.9125 1.52188C1.8875 1.6375 1.8625 1.89375 1.85313 2.09375C1.84375 2.30625 1.85 2.55938 1.875 2.71563C1.89375 2.8625 1.94688 3.0875 1.99375 3.21875C2.0375 3.34687 2.12813 3.54375 2.19375 3.65625C2.29063 3.81562 2.85625 4.4 4.93125 6.475L7.54688 9.09375L8.64063 7.99687L1.95313 1.30938L1.9125 1.52188ZM9.74063 4.40625C9.67501 4.54375 9.63438 4.7125 9.60313 4.9375C9.57813 5.11562 9.525 5.36875 9.48125 5.5C9.4375 5.62812 9.34376 5.83125 9.27188 5.95C9.20001 6.07187 9.03438 6.28125 8.90313 6.41875L8.66251 6.67188L9.30938 7.32812C9.7625 6.92188 9.98438 6.75625 10.0969 6.69375C10.2063 6.63125 10.3906 6.55 10.5031 6.50938C10.6125 6.47188 10.8531 6.41875 11.0344 6.39375C11.2125 6.36875 11.425 6.32187 11.5031 6.29375C11.5781 6.26875 11.7125 6.19687 11.8 6.14062C11.8844 6.08125 11.9906 5.99687 12.0344 5.95312L12.1125 5.87187C10.5844 4.34687 10.1344 3.90625 10.1219 3.90625C10.1125 3.90625 10.0438 3.97187 9.96875 4.05312C9.89375 4.13437 9.79063 4.29375 9.74063 4.40625ZM8.65938 9.32812C13.0531 13.7219 14.3688 15.0125 14.4156 15.0281C14.4625 15.0469 14.5469 15.0625 14.6031 15.0594C14.6594 15.0594 14.7594 15.0281 14.825 14.9906C14.8969 14.95 14.9656 14.8719 15.0031 14.7969C15.0375 14.7281 15.0625 14.6406 15.0625 14.6C15.0656 14.5625 15.05 14.4906 15.0313 14.4438C15.0125 14.3969 13.725 13.0813 12.1656 11.5219C10.6063 9.9625 9.32188 8.6875 9.3125 8.6875C9.30625 8.6875 9.15313 8.83125 8.97813 9.00625L8.65938 9.32812ZM0.968754 14.4531C0.940629 14.55 0.937504 14.6094 0.965629 14.7125C0.987504 14.7906 1.04063 14.875 1.09688 14.9219C1.14688 14.9656 1.23438 15.0125 1.29063 15.0281C1.34688 15.0437 1.44375 15.0469 1.50313 15.0344C1.5625 15.025 1.66875 14.9687 1.7375 14.9156C1.80625 14.8625 2.99375 13.6844 4.37813 12.3L6.89375 9.78125C6.38438 9.27188 6.23125 9.125 6.22188 9.125C6.2125 9.125 5.03438 10.2969 3.60625 11.7281C1.4375 13.9 1 14.35 0.968754 14.4531Z" fill="#222754"/>
</svg>
