<svg width="18" height="18" viewBox="0 0 18 18" fill="none" xmlns="http://www.w3.org/2000/svg">
<g clip-path="url(#clip0_2455_421)">
<path fill-rule="evenodd" clip-rule="evenodd" d="M14.502 0.667969H18V1.93359H14.9941L11.9145 5.00977L12.1254 5.30859C12.2414 5.47383 12.4137 5.75859 12.5121 5.94141C12.607 6.12422 12.7441 6.43359 12.8145 6.62695C12.8883 6.82031 12.9832 7.14375 13.0289 7.34766C13.0711 7.55156 13.1273 7.90664 13.1484 8.13867C13.173 8.3707 13.1801 8.71172 13.1695 8.89453C13.1555 9.07734 13.1309 9.34805 13.1098 9.49219C13.0887 9.63633 13.043 9.88242 13.0043 10.0371C12.9656 10.1918 12.8848 10.452 12.8285 10.6172C12.7688 10.7824 12.6387 11.0742 12.5402 11.2676C12.4383 11.4609 12.2766 11.7352 12.1816 11.8793C12.0832 12.0234 11.8863 12.2766 11.7387 12.4418C11.5945 12.607 11.3484 12.8531 11.1937 12.9867C11.0426 13.1168 10.7719 13.3207 10.5996 13.4367C10.4273 13.5527 10.125 13.7215 9.93164 13.8129C9.73828 13.9043 9.46055 14.0203 9.31641 14.073C9.17227 14.1223 8.95781 14.1891 8.8418 14.2172C8.72578 14.2453 8.46914 14.2945 8.26875 14.3262C8.07187 14.3543 7.68516 14.3789 7.40742 14.3789C7.1332 14.3789 6.76406 14.3543 6.5918 14.3297C6.41953 14.3016 6.14883 14.2488 5.99414 14.2066C5.83945 14.168 5.60039 14.0977 5.4668 14.052C5.32969 14.0027 5.06953 13.8937 4.88672 13.8059C4.70391 13.718 4.40859 13.5527 4.23633 13.4367C4.06055 13.3207 3.76875 13.0922 3.58594 12.927C3.40313 12.7652 3.17109 12.5473 2.90039 12.2695L3.70195 11.468C4.14141 11.0285 4.48945 10.6594 4.47539 10.6418C4.46133 10.6277 4.16953 10.6172 3.22031 10.6172L0.878906 12.9551L0 12.0762L2.68594 9.38672H5.7832L14.502 0.667969ZM4.76367 12.2836C4.80234 12.3117 4.95352 12.4066 5.09766 12.4945C5.2418 12.5824 5.48789 12.709 5.64258 12.7793C5.79727 12.8461 6.075 12.941 6.25781 12.9867C6.44063 13.0359 6.75 13.0957 6.94336 13.1168C7.14023 13.1414 7.45312 13.1484 7.64648 13.1379C7.83984 13.1238 8.11758 13.0922 8.26172 13.0641C8.40586 13.0395 8.67656 12.9656 8.85938 12.9023C9.04219 12.8426 9.3375 12.7195 9.50977 12.6281C9.68555 12.5367 9.95273 12.3715 10.1074 12.2555C10.2621 12.1395 10.5117 11.918 10.6664 11.7633C10.8176 11.6051 11.0355 11.3379 11.1516 11.1621C11.2676 10.9898 11.4082 10.7578 11.4609 10.6523C11.5137 10.5469 11.6156 10.2937 11.6824 10.0898C11.7527 9.88594 11.8336 9.55547 11.8688 9.35156C11.9145 9.0668 11.925 8.85937 11.9074 8.45508C11.8934 8.05078 11.8687 7.83984 11.7949 7.55859C11.7457 7.35469 11.6473 7.05586 11.577 6.89062C11.5066 6.72539 11.3941 6.49687 11.3238 6.38086C11.257 6.26484 11.1621 6.11719 11.1129 6.05391C11.0637 5.99062 11.0145 5.93789 11.0039 5.94141C10.9934 5.94141 9.56953 7.3582 7.83984 9.08789C4.85508 12.0727 4.69688 12.2344 4.76367 12.2836ZM8.36016 1.44492C8.47969 1.44141 8.6625 1.45898 8.76445 1.48008C8.86289 1.50117 9.05977 1.57148 9.19336 1.63477C9.35508 1.71211 9.5168 1.82461 9.67148 1.97227C9.79805 2.09531 9.94219 2.26758 9.99492 2.35547C10.0441 2.44336 10.1215 2.60859 10.1602 2.72461C10.1988 2.84062 10.2445 3.05508 10.2551 3.19922C10.2691 3.40664 10.2586 3.52617 10.1988 3.76172C10.1566 3.92695 10.0758 4.14141 10.023 4.23633C9.9668 4.33477 9.82969 4.50703 9.71367 4.62305C9.60117 4.73906 9.42891 4.87969 9.33398 4.93594C9.23555 4.99219 9.07031 5.06953 8.96484 5.10469C8.85938 5.13984 8.66953 5.17851 8.54297 5.19258C8.41641 5.20312 8.20547 5.19258 8.06836 5.17148C7.93477 5.14687 7.70625 5.07305 7.56914 5.00625C7.38633 4.92187 7.24219 4.81641 7.06641 4.64062C6.88711 4.46133 6.78867 4.32422 6.70078 4.14141C6.63398 4.00078 6.56367 3.80039 6.54258 3.70195C6.52148 3.6 6.50391 3.42422 6.50391 3.31523C6.50391 3.20273 6.52852 3.00937 6.56016 2.88281C6.58828 2.75625 6.66563 2.55937 6.72539 2.44336C6.78867 2.32734 6.93984 2.13047 7.06641 2.00391C7.19297 1.87734 7.38984 1.72617 7.50586 1.66289C7.62187 1.59961 7.81172 1.52578 7.92773 1.49766C8.04375 1.46953 8.23711 1.44492 8.36016 1.44492ZM7.85039 3.00586C7.79648 3.09961 7.76953 3.20508 7.76953 3.32227C7.76953 3.44531 7.79766 3.54023 7.85391 3.63867C7.89961 3.71602 7.99805 3.81445 8.07188 3.85664C8.15273 3.90234 8.26875 3.93398 8.36016 3.9375C8.44102 3.9375 8.55 3.91992 8.60625 3.89883C8.65898 3.88125 8.74687 3.82148 8.80312 3.76875C8.85938 3.71602 8.92617 3.62109 8.95078 3.56133C8.97891 3.49805 9 3.38555 9 3.31523C9 3.24141 8.96836 3.11484 8.92969 3.03398C8.88047 2.93203 8.81016 2.85469 8.71172 2.79492C8.60625 2.73516 8.50781 2.70703 8.38477 2.70703C8.26523 2.70703 8.16328 2.73516 8.06836 2.78789C7.99102 2.83359 7.89258 2.92852 7.85039 3.00586ZM7.10156 4.99219C7.11211 4.99219 7.3125 5.18555 7.98047 5.85352L5.29102 8.54297H2.10938V7.27734H4.79883L5.94141 6.13477C6.5707 5.50547 7.09102 4.99219 7.10156 4.99219ZM2.93555 13.5738C3.09023 13.5703 3.31172 13.5949 3.42773 13.6266C3.54375 13.6547 3.73359 13.732 3.84961 13.7918C3.96211 13.8551 4.15195 13.9992 4.27148 14.1187C4.3875 14.2348 4.53164 14.4246 4.59492 14.5406C4.65469 14.6531 4.73203 14.843 4.76016 14.959C4.7918 15.075 4.81641 15.2965 4.81641 15.4512C4.81641 15.6094 4.7918 15.8168 4.76016 15.9258C4.72852 16.0312 4.6582 16.2105 4.60195 16.323C4.5457 16.432 4.40156 16.6219 4.28203 16.7449C4.15898 16.8645 3.99023 17.0051 3.90234 17.0578C3.81445 17.107 3.64219 17.1844 3.51562 17.2266C3.34336 17.2863 3.20625 17.3039 2.95312 17.3039C2.71758 17.3039 2.55234 17.2828 2.39062 17.2301C2.26406 17.1914 2.06719 17.0965 1.95117 17.0227C1.83516 16.9453 1.66289 16.7977 1.56797 16.6957C1.47656 16.5902 1.36055 16.4426 1.31836 16.3652C1.27266 16.2879 1.20234 16.1227 1.16016 15.9961C1.10391 15.8273 1.08633 15.6832 1.08633 15.4512C1.08633 15.2789 1.11094 15.0574 1.13555 14.959C1.16367 14.8641 1.23047 14.6883 1.28672 14.5723C1.35 14.4492 1.48359 14.2699 1.62773 14.1258C1.76836 13.9816 1.94766 13.8445 2.07422 13.7812C2.19023 13.725 2.36953 13.6547 2.47148 13.6266C2.56992 13.5984 2.78086 13.5738 2.93555 13.5738ZM2.52422 14.9941C2.46445 15.0539 2.39414 15.1523 2.36602 15.2156C2.34141 15.2754 2.32031 15.3809 2.32031 15.4441C2.32031 15.5039 2.35195 15.6199 2.38711 15.6973C2.42227 15.7746 2.48203 15.866 2.51719 15.8977C2.55586 15.9293 2.64375 15.982 2.71758 16.0102C2.78789 16.0418 2.90039 16.0664 2.96367 16.0664C3.02344 16.0664 3.14648 16.0312 3.23086 15.9855C3.31875 15.9434 3.42422 15.852 3.46641 15.7852C3.50859 15.7184 3.5543 15.6164 3.56836 15.5566C3.57891 15.5004 3.57539 15.3844 3.5543 15.3035C3.5332 15.2191 3.47344 15.1031 3.4207 15.0434C3.36445 14.9801 3.28359 14.9133 3.23438 14.8887C3.18516 14.8641 3.09023 14.8324 3.02344 14.8219C2.95664 14.8113 2.84062 14.8219 2.7668 14.8465C2.69648 14.8711 2.5875 14.9379 2.52422 14.9941ZM12.1289 13.5738C12.2941 13.5738 12.5156 13.5949 12.6211 13.623C12.7266 13.6512 12.9023 13.718 13.0078 13.7707C13.1203 13.8234 13.3066 13.9711 13.4508 14.1117C13.6301 14.291 13.7355 14.4352 13.827 14.625C13.9043 14.7832 13.9711 14.9941 13.9957 15.1523C14.0309 15.3598 14.0309 15.4758 13.9992 15.6973C13.9746 15.8625 13.9113 16.0734 13.848 16.207C13.7883 16.3336 13.6828 16.5059 13.6125 16.5937C13.5457 16.6816 13.4086 16.8187 13.3102 16.8961C13.2117 16.977 13.0676 17.0754 12.9902 17.1141C12.9129 17.1527 12.7547 17.2125 12.6387 17.2441C12.5191 17.2793 12.3082 17.3039 12.1465 17.3039C11.9883 17.3039 11.7738 17.2793 11.6543 17.2441C11.5383 17.2125 11.3484 17.1352 11.2359 17.0754C11.1234 17.0121 10.9336 16.868 10.8141 16.7484C10.6734 16.6078 10.5539 16.4461 10.4695 16.2738C10.3992 16.1297 10.3219 15.9117 10.2973 15.7852C10.2727 15.648 10.2621 15.4512 10.2762 15.293C10.2867 15.1488 10.3324 14.9344 10.3711 14.8184C10.4133 14.7023 10.4906 14.5371 10.5469 14.4492C10.6031 14.3613 10.7156 14.2207 10.8 14.1363C10.8844 14.052 11.0215 13.9359 11.1094 13.8762C11.1973 13.8164 11.3238 13.7461 11.3906 13.718C11.4574 13.6898 11.584 13.6441 11.6719 13.6195C11.7598 13.5949 11.9637 13.5738 12.1289 13.5738ZM11.7105 14.9871C11.6648 15.0293 11.6051 15.1172 11.5805 15.1805C11.5523 15.2402 11.5312 15.3668 11.5312 15.4617C11.5312 15.5637 11.5594 15.6691 11.6016 15.743C11.6402 15.8027 11.7246 15.8941 11.7879 15.9434C11.8477 15.9891 11.9707 16.0383 12.0586 16.0523C12.1781 16.0699 12.2555 16.0594 12.375 16.0066C12.4664 15.968 12.5789 15.8801 12.6387 15.8027C12.716 15.7043 12.7477 15.6199 12.7582 15.4898C12.7652 15.3668 12.7512 15.2719 12.709 15.1875C12.6738 15.1207 12.6211 15.0363 12.5895 14.9977C12.5578 14.9625 12.4945 14.9133 12.4453 14.8887C12.3961 14.8641 12.2941 14.8359 12.2168 14.8219C12.1289 14.8113 12.0234 14.8219 11.9355 14.8535C11.8582 14.8816 11.7563 14.9414 11.7105 14.9871Z" fill="#222754"/>
</g>
<defs>
<clipPath id="clip0_2455_421">
<rect width="18" height="18" fill="white"/>
</clipPath>
</defs>
</svg>
