<svg width="18" height="18" viewBox="0 0 18 18" fill="none" xmlns="http://www.w3.org/2000/svg">
<g clip-path="url(#clip0_2455_429)">
<path fill-rule="evenodd" clip-rule="evenodd" d="M12.3047 0L12.4453 0.0984375C12.5332 0.154687 12.607 0.242578 12.6387 0.326953C12.6668 0.397266 12.6914 0.495703 12.6914 0.544922C12.6914 0.594141 12.6668 0.685547 12.6352 0.748828C12.6035 0.808594 12.2977 1.14258 11.3379 2.10938H11.802C12.1992 2.10938 12.2906 2.11992 12.4102 2.17969C12.5039 2.22656 12.5742 2.29688 12.6211 2.39062C12.6598 2.46797 12.6914 2.57695 12.6914 2.63672C12.6914 2.69648 12.6598 2.80547 12.6211 2.88281C12.5742 2.97656 12.5039 3.04688 12.4102 3.09375C12.2766 3.16055 12.1992 3.16406 11.1164 3.16406C9.99844 3.16406 9.96328 3.16055 9.81211 3.0832C9.69609 3.02695 9.63633 2.96719 9.59062 2.86523C9.55547 2.78789 9.52734 2.68242 9.52734 2.62617C9.52734 2.57344 9.55195 2.47852 9.58359 2.41523C9.61523 2.35547 9.91758 2.02148 10.8668 1.05469H10.4062C10.0195 1.05469 9.92813 1.04414 9.80859 0.984375C9.71484 0.9375 9.64453 0.867188 9.59766 0.773438C9.55898 0.696094 9.52734 0.583594 9.52734 0.527344C9.52734 0.467578 9.55547 0.362109 9.59414 0.288281C9.6293 0.217969 9.71016 0.123047 9.77695 0.0808594C9.89297 0.00703125 9.92813 0.00703125 12.3047 0ZM0.516797 5.30859C0.580078 5.30859 0.696094 5.34023 0.773438 5.37891C0.867188 5.42578 0.9375 5.49609 0.984375 5.58984C1.05117 5.72695 1.05469 5.80078 1.05469 10.582H2.42578L2.35195 10.4309C2.30977 10.35 2.24648 10.1637 2.21133 10.0195C2.17266 9.87539 2.14453 9.66094 2.14453 9.54492C2.14453 9.42891 2.16914 9.225 2.19727 9.08789C2.22539 8.9543 2.30625 8.72227 2.37656 8.57812C2.47148 8.38477 2.58047 8.24062 2.77383 8.04727C2.96719 7.85391 3.11133 7.74492 3.30469 7.65C3.44883 7.57969 3.68086 7.49883 3.81445 7.4707C3.94805 7.44258 4.14844 7.41797 4.25391 7.41797C4.35938 7.41797 4.55977 7.44258 4.69336 7.4707C4.82695 7.49883 5.05898 7.57969 5.20312 7.65C5.39648 7.74492 5.54063 7.85391 5.73398 8.04727C5.92734 8.24062 6.03633 8.38477 6.13125 8.57812C6.20156 8.72227 6.28242 8.9543 6.31055 9.08789C6.33867 9.225 6.36328 9.42891 6.3668 9.54492C6.3668 9.72773 6.37383 9.74531 6.40547 9.66797C6.42656 9.61875 6.48984 9.48164 6.54258 9.35859C6.60586 9.225 6.71836 9.0668 6.83789 8.94727C6.95039 8.83477 7.12266 8.71172 7.25273 8.64844C7.37227 8.59219 7.55859 8.52891 7.66406 8.50781C7.79063 8.4832 9.35508 8.47266 12.1816 8.47266C15.0082 8.47266 16.5727 8.4832 16.6992 8.50781C16.8047 8.52891 16.9875 8.58867 17.1035 8.64492C17.2195 8.70117 17.3777 8.79961 17.4551 8.86641C17.5324 8.9332 17.6379 9.05273 17.6906 9.12656C17.7434 9.20039 17.8348 9.37969 18 9.77344V13.6758C18 17.4059 17.9965 17.5852 17.9332 17.7117C17.898 17.782 17.8102 17.877 17.7398 17.9227C17.666 17.9684 17.557 18 17.4727 18C17.3883 18 17.2793 17.9684 17.2055 17.9227C17.1352 17.877 17.0473 17.782 17.0121 17.7117C16.9523 17.5922 16.9453 17.4867 16.9453 15.8555H1.05469V16.7168C1.05469 17.4867 1.04766 17.5922 0.987891 17.7117C0.952734 17.782 0.864844 17.877 0.794531 17.9191C0.720703 17.9684 0.611719 18 0.527344 18C0.442969 18 0.333984 17.9684 0.260156 17.9191C0.189844 17.877 0.101953 17.782 0.0667969 17.7082C0.00351563 17.5816 0 17.3531 0 11.6543C0 5.80078 0 5.73047 0.0703125 5.58984C0.116016 5.50195 0.189844 5.42461 0.270703 5.37891C0.344531 5.34375 0.457031 5.31211 0.516797 5.30859ZM3.60703 8.70117C3.5332 8.76094 3.42773 8.87695 3.37148 8.96484C3.31523 9.05273 3.25195 9.20039 3.23086 9.29883C3.20625 9.39375 3.19922 9.54492 3.20977 9.63281C3.2168 9.7207 3.25547 9.86133 3.29414 9.94922C3.3293 10.0371 3.43125 10.1777 3.51914 10.2621C3.60352 10.35 3.74414 10.452 3.83203 10.4906C3.94453 10.5434 4.06406 10.5645 4.25391 10.5645C4.44375 10.5645 4.56328 10.5434 4.67578 10.4906C4.76367 10.452 4.9043 10.35 4.98867 10.2621C5.07656 10.1777 5.17852 10.0371 5.21719 9.94922C5.26992 9.83672 5.29102 9.71719 5.29102 9.52734C5.29102 9.3375 5.26992 9.21797 5.21719 9.10547C5.17852 9.01758 5.07656 8.87695 4.98867 8.79258C4.9043 8.70469 4.76367 8.60273 4.67578 8.56758C4.58789 8.52891 4.42266 8.49023 4.30664 8.4832C4.1625 8.47617 4.03945 8.49023 3.91992 8.53242C3.82148 8.56758 3.68438 8.64492 3.60703 8.70117ZM7.48828 9.80859C7.42148 9.94219 7.41797 10.0195 7.41797 11.3203V12.6914H16.9453C16.9453 10.0195 16.9418 9.94219 16.875 9.80859C16.8281 9.71484 16.7578 9.64453 16.6641 9.59766C16.527 9.52734 16.4531 9.52734 12.1711 9.52734C7.92422 9.53086 7.81875 9.53086 7.68867 9.59766C7.60781 9.64336 7.53398 9.7207 7.48828 9.80859ZM6.16641 10.3957L6.08203 10.582H6.36328C6.36328 10.0371 6.35625 9.87891 6.34922 9.87891C6.34219 9.87891 6.31758 9.95273 6.29297 10.0441C6.27187 10.1391 6.21562 10.2973 6.16641 10.3957ZM1.05469 14.8008H16.9453V13.7461C6.85547 13.7461 6.78164 13.7461 6.64453 13.6758C6.55078 13.6289 6.48047 13.5586 6.43359 13.4648C6.37031 13.3348 6.36328 13.2539 6.36328 12.4805V11.6367H1.05469V14.8008ZM6.87305 3.16758C8.00508 3.16406 8.03672 3.16758 8.18789 3.24492C8.30391 3.30117 8.36367 3.36094 8.40938 3.46289C8.44453 3.54023 8.47266 3.6457 8.47266 3.69844C8.47266 3.75469 8.44805 3.84961 8.41641 3.90937C8.38477 3.97266 8.07891 4.30664 7.11914 5.27344H7.5832C7.98047 5.27344 8.07187 5.28398 8.19141 5.34375C8.28516 5.39062 8.35547 5.46094 8.40234 5.55469C8.44102 5.63203 8.47266 5.74102 8.47266 5.80078C8.47266 5.85703 8.44102 5.96953 8.40234 6.04688C8.35547 6.14062 8.28516 6.21094 8.19141 6.25781C8.05781 6.32461 7.98047 6.32812 6.89766 6.32812C5.77969 6.32812 5.74453 6.32461 5.59336 6.24727C5.47734 6.19102 5.41758 6.13125 5.37188 6.0293C5.33672 5.95195 5.30859 5.84648 5.30859 5.79023C5.30859 5.7375 5.3332 5.64258 5.36484 5.5793C5.39648 5.51953 5.69883 5.18555 6.64805 4.21875H6.1875C5.80078 4.21875 5.70937 4.2082 5.58984 4.14844C5.49609 4.10156 5.42578 4.03125 5.37891 3.9375C5.34023 3.86016 5.30859 3.74766 5.30859 3.69141C5.30859 3.63164 5.34023 3.52266 5.37891 3.44531C5.42461 3.35742 5.49844 3.28008 5.5793 3.23438C5.70234 3.17109 5.79023 3.16758 6.87305 3.16758Z" fill="#222754"/>
</g>
<defs>
<clipPath id="clip0_2455_429">
<rect width="18" height="18" fill="white"/>
</clipPath>
</defs>
</svg>
