<svg width="18" height="18" viewBox="0 0 18 18" fill="none" xmlns="http://www.w3.org/2000/svg">
<g clip-path="url(#clip0_2455_433)">
<path fill-rule="evenodd" clip-rule="evenodd" d="M2.53521 0.875H10.4649L10.6172 1C10.7032 1.07031 10.793 1.1875 10.8243 1.25391C10.8633 1.35156 10.8751 1.64062 10.8751 3.375L13.1758 3.38672C15.4102 3.39453 15.4805 3.39844 15.586 3.47266C15.6407 3.51562 15.7266 3.60156 15.8555 3.76953L15.8751 15.875H16.2461C16.4649 15.875 16.668 15.8945 16.7422 15.9258C16.8126 15.957 16.918 16.0352 16.9766 16.1016C17.0391 16.1719 17.0977 16.293 17.1094 16.375C17.1211 16.4531 17.1211 16.582 17.1055 16.6562C17.0899 16.7461 17.0196 16.8516 16.7344 17.125H1.26568L1.0938 16.9609C0.968802 16.8398 0.914115 16.75 0.894584 16.6367C0.878959 16.5508 0.878959 16.4219 0.890678 16.3555C0.902396 16.2852 0.96099 16.1719 1.01958 16.1016C1.08208 16.0352 1.18755 15.957 1.25396 15.9258C1.33208 15.8945 1.53521 15.875 2.12505 15.875V8.62891C2.12505 2.70313 2.13287 1.35938 2.17583 1.25391C2.20708 1.1875 2.29693 1.07031 2.38286 1L2.53521 0.875ZM3.37505 15.8789H4.62505C4.64458 13.8438 4.64849 13.7656 4.72271 13.668C4.76568 13.6094 4.84771 13.5234 4.91021 13.4805C5.01958 13.3984 5.05474 13.3984 6.50005 13.3984C7.91802 13.3984 7.98052 13.3984 8.08208 13.4766C8.14068 13.5195 8.22661 13.6016 8.27349 13.6641C8.35161 13.7695 8.35552 13.8203 8.36333 14.8242L8.37505 15.8789H14.6251V4.62891H10.8751L10.8555 14.2305C10.7266 14.4023 10.6407 14.4883 10.5821 14.5312C10.5079 14.5859 10.418 14.6094 10.2501 14.6094C10.0821 14.6094 9.99224 14.5859 9.91411 14.5312C9.85552 14.4883 9.77349 14.4023 9.72661 14.3398L9.64458 14.2305L9.62505 2.12891H3.37505V15.8789ZM5.87505 15.8789H7.12505V14.6289H5.87505V15.8789ZM4.62505 3.37891H5.87505V4.62891H4.62505V3.37891ZM7.12505 3.37891H8.37505V4.62891H7.12505V3.37891ZM4.62505 5.87891H5.87505V7.12891H4.62505V5.87891ZM7.12505 5.87891H8.37505V7.12891H7.12505V5.87891ZM12.1251 5.87891H13.3751V7.12891H12.1251V5.87891ZM4.62505 8.37891H5.87505V9.62891H4.62505V8.37891ZM7.12505 8.37891H8.37505V9.62891H7.12505V8.37891ZM12.1251 8.37891H13.3751V9.62891H12.1251V8.37891ZM4.62505 10.8789H5.87505V12.1289H4.62505V10.8789ZM7.12505 10.8789H8.37505V12.1289H7.12505V10.8789ZM12.1251 10.8789H13.3751V12.1289H12.1251V10.8789ZM12.1251 13.3789H13.3751V14.6289H12.1251V13.3789Z" fill="#222754"/>
</g>
<defs>
<clipPath id="clip0_2455_433">
<rect width="18" height="18" fill="white"/>
</clipPath>
</defs>
</svg>
