<svg width="24" height="24" viewBox="0 0 24 24" fill="none" xmlns="http://www.w3.org/2000/svg">
<g clip-path="url(#clip0_793_53723)">
<path fill-rule="evenodd" clip-rule="evenodd" d="M4.75781 0.009375L19.2188 0L19.3875 0.107812C19.4813 0.164062 19.5984 0.290625 19.6453 0.389063C19.7297 0.553125 19.7344 0.721875 19.7344 5.67188L21.225 5.68125C22.7109 5.69531 22.7109 5.69531 22.9688 5.81719C23.1094 5.88281 23.3203 6.01875 23.4281 6.12188C23.5453 6.225 23.6953 6.43594 23.9297 6.91406V19.8984L23.8078 20.1562C23.7422 20.2969 23.6062 20.5078 23.5031 20.6156C23.4 20.7328 23.1891 20.8828 22.7109 21.1172L14.1094 21.1406V22.5938H14.8828C15.5625 22.5938 15.6797 22.6031 15.8438 22.6875C15.9688 22.75 16.0625 22.8438 16.125 22.9688C16.1766 23.0719 16.2188 23.2172 16.2188 23.2969C16.2188 23.3719 16.1812 23.5172 16.1297 23.6109C16.0828 23.7094 15.9656 23.8359 15.7031 24H8.29688L8.12812 23.8922C8.03437 23.8359 7.91719 23.7094 7.87031 23.6109C7.81875 23.5172 7.78125 23.3719 7.78125 23.2969C7.78125 23.2172 7.82344 23.0719 7.875 22.9688C7.9375 22.8438 8.03125 22.75 8.15625 22.6875C8.32031 22.6031 8.4375 22.5938 9.89062 22.5938V21.1406L1.28906 21.1172L0.984375 20.9672C0.810938 20.8828 0.6 20.7328 0.496875 20.6156C0.39375 20.5078 0.257812 20.2969 0.0703125 19.8984V6.91406L0.192187 6.65625C0.257812 6.51562 0.39375 6.30469 0.496875 6.19687C0.6 6.07969 0.810938 5.92969 1.28906 5.69531L4.26562 5.67188V3.11719C4.26562 0.726562 4.27031 0.553125 4.35469 0.384375C4.40156 0.290625 4.50938 0.164062 4.59844 0.107812L4.75781 0.009375ZM5.67188 16.9266H7.07812C7.07812 14.7234 7.0875 14.6109 7.17188 14.4422C7.23438 14.3172 7.32812 14.2234 7.45312 14.1609C7.63125 14.0719 7.73438 14.0672 9.89062 14.0672C12.0469 14.0672 12.15 14.0719 12.3281 14.1609C12.4531 14.2234 12.5469 14.3172 12.6094 14.4422C12.6938 14.6109 12.7031 14.7234 12.7031 15.7781V16.9266H18.3281V1.41094H5.67188V16.9266ZM1.44844 12.075L1.45312 16.9266H4.26562V7.08281C1.78594 7.08281 1.58906 7.09219 1.52344 7.15313C1.45312 7.22344 1.44844 7.64063 1.44844 12.075ZM19.7344 16.9266H22.5469C22.5469 7.82344 22.5375 7.21406 22.4766 7.15313C22.4156 7.09219 22.1953 7.08281 21.0703 7.08281H19.7344V16.9266ZM8.48438 16.9266H11.2969V15.4734H8.48438V16.9266ZM1.45312 18.9656C1.45312 19.4625 1.46719 19.6125 1.52344 19.6688C1.58438 19.7297 2.8125 19.7391 11.9953 19.7391C21.1781 19.7391 22.4062 19.7297 22.4719 19.6688C22.5328 19.6078 22.5469 19.4766 22.5469 18.9656V18.3328H1.45312V18.9656ZM11.2969 22.5984H12.7031V21.1453H11.2969V22.5984ZM11.9906 2.86406C16.2656 2.86406 16.3641 2.86406 16.5469 2.95781C16.6719 3.02031 16.7656 3.11406 16.8281 3.23906C16.9172 3.4125 16.9219 3.52031 16.9219 4.97344C16.9219 6.42656 16.9172 6.52969 16.8281 6.70781C16.7656 6.83281 16.6719 6.92656 16.5469 6.98906C16.3641 7.07813 16.2656 7.08281 12 7.08281C7.73438 7.08281 7.63594 7.07813 7.45312 6.98906C7.32812 6.92656 7.23438 6.83281 7.17188 6.70781C7.08281 6.52969 7.07812 6.42656 7.07812 4.97344C7.07812 3.52031 7.08281 3.4125 7.17188 3.23906C7.23281 3.11719 7.33125 3.01406 7.44375 2.95781C7.6125 2.86875 7.74375 2.86875 11.9906 2.86406ZM8.48438 5.67656H15.5156V4.27031H8.48438V5.67656ZM11.9906 8.48906C16.2656 8.48906 16.3641 8.48906 16.5469 8.58281C16.6719 8.64531 16.7656 8.73906 16.8281 8.86406C16.8797 8.96719 16.9219 9.1125 16.9219 9.19219C16.9219 9.26719 16.8797 9.41719 16.8281 9.52031C16.7656 9.64531 16.6719 9.73906 16.5469 9.80156C16.3641 9.89062 16.2656 9.89531 12 9.89531C7.73438 9.89531 7.63594 9.89062 7.45312 9.80156C7.32812 9.73906 7.23438 9.64531 7.17188 9.52031C7.12031 9.41719 7.07812 9.26719 7.07812 9.19219C7.07812 9.1125 7.12031 8.96719 7.17188 8.86406C7.23281 8.74219 7.33125 8.63906 7.44375 8.58281C7.6125 8.49375 7.74375 8.49375 11.9906 8.48906ZM11.9906 11.2547C16.2656 11.2547 16.3641 11.2547 16.5469 11.3484C16.6719 11.4109 16.7656 11.5047 16.8281 11.6297C16.8797 11.7328 16.9219 11.8781 16.9219 11.9578C16.9219 12.0328 16.8797 12.1828 16.8281 12.2859C16.7656 12.4109 16.6719 12.5047 16.5469 12.5672C16.3641 12.6562 16.2656 12.6609 12 12.6609C7.73438 12.6609 7.63594 12.6562 7.45312 12.5672C7.32812 12.5047 7.23438 12.4109 7.17188 12.2859C7.12031 12.1828 7.07812 12.0328 7.07812 11.9578C7.07812 11.8781 7.12031 11.7328 7.17188 11.6297C7.23281 11.5078 7.33125 11.4047 7.44375 11.3484C7.6125 11.2594 7.74375 11.2594 11.9906 11.2547ZM15.5062 14.1141C16.2703 14.1141 16.3781 14.1234 16.5469 14.2078C16.6719 14.2703 16.7656 14.3641 16.8281 14.4891C16.8797 14.5922 16.9219 14.7375 16.9219 14.8172C16.9219 14.8922 16.8797 15.0422 16.8281 15.1453C16.7656 15.2703 16.6719 15.3641 16.5469 15.4266C16.3781 15.5063 16.2656 15.5203 15.5156 15.5203C14.7656 15.5203 14.6531 15.5063 14.4844 15.4266C14.3594 15.3641 14.2656 15.2703 14.2031 15.1453C14.1516 15.0422 14.1094 14.8922 14.1094 14.8172C14.1094 14.7375 14.1516 14.5922 14.2031 14.4891C14.2641 14.3672 14.3625 14.2641 14.475 14.2078C14.6297 14.1281 14.7469 14.1188 15.5062 14.1141Z" fill="#F15A2B"/>
</g>
<defs>
<clipPath id="clip0_793_53723">
<rect width="24" height="24" fill="white"/>
</clipPath>
</defs>
</svg>
