<svg width="24" height="24" viewBox="0 0 24 24" fill="none" xmlns="http://www.w3.org/2000/svg">
<g clip-path="url(#clip0_793_54041)">
<path fill-rule="evenodd" clip-rule="evenodd" d="M10.4748 0.753906C10.9107 0.753906 11.4076 0.772656 11.5764 0.800781C11.7451 0.828906 12.1436 0.899219 12.467 0.960156C12.7904 1.02109 13.2826 1.15234 13.5686 1.24609C13.8545 1.33984 14.3795 1.55547 14.7404 1.73359C15.1014 1.90703 15.617 2.19297 15.8889 2.37578C16.1607 2.55391 16.5732 2.85859 16.8029 3.05547C17.0326 3.24766 17.3889 3.58516 17.5951 3.80078C17.7967 4.01641 18.0826 4.35391 18.2326 4.54609C18.3779 4.73828 18.6123 5.06641 18.7482 5.27266C18.8795 5.47891 19.1279 5.91953 19.292 6.25703C19.4561 6.59453 19.6717 7.12422 19.7795 7.44297C19.8826 7.75703 20.0186 8.27266 20.0842 8.58672C20.1451 8.90547 20.2248 9.46797 20.2529 9.84297C20.2951 10.3586 20.2951 10.6867 20.2529 11.2023C20.2248 11.5773 20.1498 12.1352 20.0842 12.4445C20.0232 12.7539 19.892 13.2367 19.7982 13.5227C19.7045 13.8086 19.5357 14.2492 19.4186 14.507C19.3061 14.7648 19.0857 15.1867 18.9311 15.4445C18.7764 15.7023 18.5092 16.1008 18.3357 16.3305C18.1623 16.5602 18.0029 16.7758 17.9748 16.8086C17.9373 16.8555 18.0311 16.9773 18.7717 17.718L19.0764 17.418C19.2451 17.2539 19.4514 17.0852 19.5357 17.043C19.6154 17.0008 19.7514 16.968 19.8264 16.968C19.9014 16.968 20.0373 16.9961 20.1217 17.0336C20.2061 17.0711 20.8482 17.6758 21.5889 18.4258C22.3342 19.1805 22.9576 19.8508 23.0279 19.968C23.0889 20.0852 23.1826 20.2961 23.2295 20.4367C23.2811 20.6008 23.3139 20.8305 23.3139 21.0695C23.3139 21.3461 23.2857 21.5336 23.2014 21.7727C23.1404 21.9555 22.9998 22.218 22.8967 22.3586C22.7889 22.4992 22.6295 22.682 22.5404 22.757C22.4514 22.8367 22.2873 22.9586 22.1701 23.0242C22.0529 23.0945 21.8232 23.193 21.6545 23.2445C21.4764 23.3055 21.2279 23.343 21.0545 23.343C20.8951 23.343 20.6326 23.3008 20.4732 23.2492C20.3092 23.1977 20.042 23.0711 19.8732 22.9633C19.6811 22.8414 19.1326 22.3352 18.4014 21.6133C17.7592 20.9805 17.1732 20.3664 17.1029 20.2492C17.0139 20.1133 16.967 19.9773 16.967 19.8648C16.967 19.7664 16.9904 19.6305 17.0186 19.5602C17.0467 19.4852 17.2154 19.2836 17.7123 18.7727L17.3045 18.3648C17.0795 18.1352 16.8826 17.9523 16.8592 17.9523C16.8404 17.9523 16.7045 18.0508 16.5545 18.1727C16.4092 18.2945 16.067 18.5383 15.7951 18.7117C15.5232 18.8898 15.092 19.1383 14.8342 19.2648C14.5764 19.3914 14.1732 19.5648 13.9436 19.6539C13.7139 19.743 13.3201 19.8695 13.0764 19.9352C12.8326 20.0055 12.4529 20.0898 12.2326 20.1273C12.0123 20.1648 11.5389 20.2211 11.1779 20.2492C10.6857 20.2914 10.3529 20.2914 9.84199 20.2539C9.46699 20.2258 8.90449 20.1461 8.58574 20.0852C8.27168 20.0195 7.75605 19.8836 7.4373 19.7805C7.12324 19.6727 6.59355 19.457 6.25605 19.293C5.91855 19.1289 5.47793 18.8805 5.27168 18.7492C5.06543 18.6133 4.7373 18.3789 4.54512 18.2336C4.35293 18.0883 4.01543 17.7977 3.7998 17.5961C3.58418 17.3945 3.2373 17.0242 3.03574 16.7805C2.82949 16.5367 2.55293 16.1664 2.41699 15.9602C2.27637 15.7539 2.06074 15.393 1.93418 15.1633C1.80762 14.9336 1.61543 14.5352 1.50762 14.2867C1.3998 14.0336 1.24512 13.6117 1.17012 13.3492C1.09043 13.082 0.987304 12.6648 0.940429 12.4211C0.888867 12.1773 0.823242 11.7227 0.790429 11.4133C0.757617 11.0664 0.743554 10.5836 0.762304 10.1477C0.781054 9.76328 0.823242 9.24297 0.865429 8.99922C0.907617 8.75547 1.00137 8.31016 1.08105 8.01484C1.15605 7.71953 1.3248 7.21328 1.45605 6.88984C1.58262 6.56641 1.78887 6.12578 1.90605 5.90547C2.02793 5.68516 2.2623 5.30547 2.42637 5.06172C2.59043 4.81797 2.87168 4.44766 3.04512 4.24141C3.21855 4.03516 3.56074 3.67891 3.7998 3.44922C4.04355 3.21953 4.40918 2.90078 4.61543 2.74609C4.82168 2.59141 5.15449 2.36172 5.35605 2.23984C5.55293 2.11797 5.93262 1.90703 6.19512 1.77109C6.4623 1.63984 6.88887 1.45234 7.14668 1.35859C7.40449 1.26484 7.78418 1.14297 7.99043 1.08672C8.19668 1.03047 8.66074 0.932031 9.02168 0.871094C9.52793 0.782031 9.86074 0.758594 10.4748 0.753906ZM9.30293 2.34766C9.09668 2.37578 8.71699 2.45078 8.45918 2.51641C8.20137 2.57734 7.79824 2.70391 7.56855 2.79297C7.33887 2.88672 6.92637 3.07422 6.65449 3.21484C6.38262 3.35547 5.96074 3.61328 5.71699 3.78672C5.47324 3.96016 5.00918 4.36328 4.68574 4.68672C4.3623 5.01016 3.95918 5.47422 3.78574 5.71797C3.6123 5.96172 3.35449 6.38359 3.21387 6.65547C3.07324 6.92734 2.88574 7.33984 2.79199 7.56953C2.70293 7.79922 2.58574 8.16953 2.52949 8.38984C2.47324 8.61016 2.39824 8.96641 2.36074 9.18672C2.32324 9.40703 2.28105 9.85703 2.2623 10.1945C2.24824 10.5555 2.25762 11.0148 2.29043 11.3195C2.32324 11.6055 2.38887 12.0367 2.44512 12.2805C2.49668 12.5242 2.5998 12.918 2.6748 13.1477C2.7498 13.3773 2.9373 13.8227 3.0873 14.132C3.24199 14.4414 3.49043 14.8867 3.6498 15.1164C3.80449 15.3461 4.08574 15.7164 4.27324 15.932C4.46074 16.1523 4.80293 16.4992 5.0373 16.7008C5.26699 16.907 5.67949 17.2211 5.95137 17.3992C6.22324 17.582 6.65449 17.8305 6.9123 17.9523C7.17012 18.0742 7.60137 18.2523 7.87324 18.3414C8.14512 18.4305 8.58105 18.5477 8.84355 18.6039C9.11074 18.6602 9.59355 18.7258 9.92168 18.7492C10.3482 18.7867 10.6998 18.7867 11.1311 18.7492C11.4686 18.7211 11.942 18.6602 12.1857 18.6086C12.4295 18.557 12.8326 18.4539 13.0764 18.3742C13.3201 18.2992 13.8357 18.0742 14.2248 17.882C14.6889 17.6523 15.1014 17.4039 15.4436 17.1461C15.7295 16.9352 16.1467 16.5695 16.3811 16.3398C16.6107 16.1055 16.9623 15.693 17.1639 15.4211C17.3982 15.107 17.6607 14.6758 17.8811 14.2258C18.0732 13.8414 18.2982 13.3211 18.3732 13.0773C18.4529 12.8336 18.5561 12.4305 18.6076 12.1867C18.6592 11.943 18.7201 11.4695 18.7482 11.132C18.7857 10.6961 18.7857 10.3492 18.7482 9.91328C18.7201 9.57578 18.6545 9.09297 18.6029 8.83516C18.5514 8.57734 18.4389 8.15547 18.3498 7.89766C18.2654 7.63984 18.092 7.20859 17.9607 6.93672C17.8342 6.66484 17.5811 6.22422 17.3982 5.95234C17.2201 5.68047 16.9061 5.27266 16.6998 5.03828C16.4982 4.80859 16.1514 4.46172 15.9311 4.27422C15.7154 4.08672 15.3686 3.81953 15.1623 3.67891C14.9561 3.54297 14.6092 3.33203 14.3889 3.21484C14.1686 3.09766 13.8311 2.93828 13.6389 2.85859C13.4467 2.77891 13.067 2.64766 12.7951 2.57266C12.5232 2.49766 12.1107 2.40391 11.8811 2.36172C11.6514 2.32422 11.1217 2.28203 10.7092 2.27266C10.2967 2.26328 9.89824 2.26797 9.81855 2.27734C9.73887 2.28672 9.50918 2.31953 9.30293 2.34766ZM18.7717 19.832C20.4498 21.4961 20.7826 21.7961 20.8811 21.8148C20.9561 21.8336 21.1107 21.8289 21.2186 21.8008C21.3404 21.768 21.4857 21.6836 21.5842 21.5852C21.6826 21.4867 21.767 21.3414 21.7998 21.2242C21.8279 21.1117 21.8326 20.957 21.8139 20.882C21.7951 20.7836 21.4951 20.4508 20.8154 19.7664C20.2857 19.232 19.8404 18.7961 19.8264 18.7961C19.8123 18.7961 19.5686 19.0305 19.2873 19.3117L18.7717 19.832ZM13.5076 6.75391C14.7873 6.75391 15.1717 6.76797 15.2889 6.81484C15.3732 6.85234 15.4998 6.94141 15.5654 7.01641C15.6357 7.09141 15.7154 7.23672 15.7436 7.33984C15.7764 7.45703 15.7951 8.08984 15.7951 9.02734C15.7951 9.96016 15.7764 10.5977 15.7436 10.7148C15.7154 10.818 15.6264 10.968 15.542 11.0523C15.4623 11.1367 15.3217 11.2305 15.2326 11.2586C15.1342 11.2867 14.9936 11.2961 14.8811 11.2727C14.7779 11.2539 14.6326 11.1789 14.5576 11.1133C14.4826 11.0477 14.3936 10.9352 14.3561 10.8648C14.3139 10.7758 14.2951 10.5461 14.2951 10.0914C14.2951 9.73984 14.2811 9.43047 14.2623 9.41172C14.2389 9.39297 13.4842 10.1102 12.5842 11.0148C11.6795 11.9148 10.8826 12.6742 10.8123 12.7023C10.742 12.7305 10.6014 12.7539 10.4982 12.7539C10.3951 12.7539 10.2498 12.7211 10.1795 12.6836C10.1092 12.6508 9.81855 12.3836 9.02168 11.582L7.68574 12.9133C6.49043 14.1039 6.33105 14.2492 6.1623 14.2773C6.05918 14.2961 5.90918 14.2961 5.83418 14.2773C5.75449 14.2633 5.62324 14.1977 5.53887 14.132C5.45449 14.0711 5.35605 13.9539 5.31855 13.8789C5.28105 13.7992 5.24824 13.6258 5.24824 13.2461L6.92168 11.568C7.84512 10.6445 8.64199 9.86641 8.69355 9.83828C8.74512 9.81016 8.88105 9.78672 8.99824 9.78672C9.11543 9.78672 9.27012 9.81953 9.3498 9.86172C9.4248 9.89922 9.72012 10.1664 10.5217 10.9727L11.8436 9.64609C12.5701 8.91953 13.1561 8.30547 13.142 8.28672C13.1326 8.26797 12.8232 8.25391 12.4529 8.25391C11.8342 8.25391 11.7732 8.24922 11.6279 8.14609C11.5389 8.08984 11.4217 7.98203 11.3701 7.90703C11.2951 7.81328 11.2717 7.70547 11.2717 7.50859C11.2717 7.30703 11.2951 7.20859 11.3795 7.08672C11.4404 7.00234 11.5764 6.88984 11.6842 6.84297C11.8623 6.76328 12.0217 6.75391 13.5076 6.75391Z" fill="#F15A2B"/>
</g>
<defs>
<clipPath id="clip0_793_54041">
<rect width="24" height="24" fill="white"/>
</clipPath>
</defs>
</svg>
