<svg width="24" height="24" viewBox="0 0 24 24" fill="none" xmlns="http://www.w3.org/2000/svg">
<g clip-path="url(#clip0_793_54053)">
<path fill-rule="evenodd" clip-rule="evenodd" d="M11.9669 0.00455794C12.5388 -0.000129563 12.7544 0.0186204 13.2278 0.121745C13.5466 0.18737 13.9638 0.295183 14.1559 0.360808C14.3481 0.421745 14.6763 0.557683 14.8825 0.65612C15.0888 0.754558 15.4591 0.965495 15.7028 1.12956C15.9841 1.31706 16.345 1.62175 16.6919 1.96393C17.0341 2.31081 17.3388 2.67175 17.5263 2.953C17.6903 3.19675 17.9013 3.56706 17.9997 3.77331C18.0981 3.97956 18.2341 4.31706 18.2997 4.52331C18.37 4.72956 18.4684 5.10924 18.5247 5.36706C18.6091 5.74675 18.6278 5.99518 18.6278 6.65612C18.6278 7.31706 18.6091 7.5655 18.5247 7.94518C18.4684 8.203 18.37 8.58268 18.2997 8.78893C18.2294 8.99518 18.0888 9.34206 17.9856 9.56237C17.8778 9.78268 17.6669 10.153 17.5122 10.3827C17.3434 10.6405 17.02 11.0155 16.6919 11.3436C16.3919 11.6436 15.9888 11.9952 15.7966 12.1264C15.6044 12.2577 15.2341 12.4733 14.9763 12.5999C14.7184 12.7264 14.3481 12.8858 14.1559 12.9514C13.9638 13.0171 13.5841 13.1202 13.3122 13.1764C12.9138 13.2608 12.6653 13.2842 12.0231 13.2842C11.4372 13.2842 11.1138 13.2655 10.8044 13.1999C10.57 13.153 10.1809 13.0546 9.9372 12.9749C9.69345 12.8999 9.24814 12.7077 8.95282 12.5577C8.65751 12.403 8.23564 12.1452 8.01532 11.9811C7.79501 11.8171 7.4247 11.4842 7.19501 11.2405C6.96064 11.0014 6.66532 10.6452 6.53407 10.453C6.39814 10.2608 6.1872 9.8905 6.05595 9.63268C5.92939 9.37487 5.76064 8.96237 5.68095 8.71862C5.60126 8.47487 5.50282 8.08112 5.45595 7.85143C5.39032 7.54206 5.37157 7.21862 5.37157 6.63268C5.37157 5.99987 5.39501 5.73737 5.4747 5.36706C5.53095 5.10924 5.62939 4.72956 5.6997 4.52331C5.76532 4.31706 5.90126 3.97956 5.9997 3.77331C6.09814 3.56706 6.30907 3.19675 6.47314 2.953C6.66064 2.67175 6.96532 2.31081 7.30751 1.96393C7.65439 1.62175 8.01532 1.31706 8.29657 1.12956C8.54032 0.965495 8.91064 0.754558 9.11689 0.65612C9.32314 0.557683 9.66064 0.421745 9.86689 0.35612C10.0731 0.285808 10.4716 0.182683 10.7575 0.121745C11.1606 0.0326829 11.4231 0.00924544 11.9622 0.00455794H11.9669ZM10.8794 1.528C10.6872 1.57018 10.3497 1.67331 10.1294 1.75768C9.90907 1.84206 9.59501 1.98737 9.42626 2.08581C9.25751 2.17956 9.01376 2.33893 8.8872 2.43268C8.75595 2.53112 8.53095 2.72331 8.37626 2.86393C8.22626 3.00456 7.97314 3.28581 7.81845 3.49206C7.66376 3.69831 7.4247 4.10143 7.28876 4.38268C7.15282 4.66393 6.99814 5.06706 6.94657 5.27331C6.89032 5.47956 6.82939 5.79831 6.80126 5.97643C6.77782 6.15456 6.75439 6.46393 6.75439 6.65612C6.75439 6.84831 6.77782 7.15768 6.80126 7.33581C6.82939 7.51393 6.89032 7.83268 6.94657 8.03893C6.99814 8.24518 7.14345 8.62487 7.26532 8.88268C7.3872 9.1405 7.55595 9.45924 7.64501 9.58581C7.73407 9.71706 7.92626 9.95612 8.06689 10.1249C8.2122 10.2936 8.50751 10.5749 8.72782 10.7483C8.94345 10.9217 9.32314 11.1702 9.56689 11.2921C9.81064 11.4186 10.1481 11.5686 10.3169 11.6249C10.4856 11.6764 10.7669 11.7561 10.9497 11.7936C11.1278 11.8311 11.4888 11.878 11.7466 11.8921C12.0044 11.9061 12.3934 11.8967 12.6138 11.8639C12.8341 11.8358 13.1809 11.7702 13.3872 11.7139C13.5934 11.6624 13.9825 11.5124 14.2544 11.3858C14.5263 11.2546 14.8731 11.0577 15.0278 10.9499C15.1825 10.8374 15.445 10.6217 15.6091 10.4717C15.7731 10.3217 16.0356 10.0264 16.1903 9.82018C16.345 9.61393 16.5841 9.2155 16.72 8.92956C16.8559 8.64362 17.0106 8.24518 17.0622 8.03893C17.1184 7.83268 17.1841 7.48581 17.2122 7.2655C17.245 7.04518 17.2544 6.65612 17.2403 6.39831C17.2263 6.1405 17.1794 5.77487 17.1419 5.59206C17.0997 5.40456 17.0247 5.11862 16.9684 4.95925C16.9169 4.79518 16.7856 4.49518 16.6825 4.28893C16.5794 4.08268 16.4059 3.78737 16.2981 3.63268C16.1856 3.478 15.97 3.2155 15.82 3.05143C15.67 2.88737 15.3653 2.62018 15.145 2.45612C14.9247 2.29206 14.5544 2.06237 14.3247 1.94987C14.0903 1.83268 13.7247 1.68737 13.5044 1.62643C13.2841 1.56081 12.9419 1.48581 12.7403 1.45768C12.5434 1.42956 12.1825 1.41081 11.9434 1.41081C11.7091 1.4155 11.4466 1.42956 11.3716 1.43893C11.2919 1.44831 11.0716 1.4905 10.8794 1.528ZM21.6138 13.8327C21.7309 13.828 21.9419 13.8467 22.0825 13.8749C22.2231 13.903 22.4997 13.9967 22.6919 14.0905C22.9263 14.203 23.1325 14.3483 23.306 14.5264C23.4513 14.6717 23.6294 14.9061 23.6997 15.0467C23.77 15.1874 23.8684 15.4217 23.92 15.5624C23.9763 15.7311 24.0044 15.9514 24.0044 16.1952C24.0044 16.4624 23.9716 16.6592 23.8966 16.8749C23.8403 17.0436 23.7325 17.2827 23.6575 17.4139C23.5684 17.5733 22.5184 18.6608 20.47 20.7092C18.7919 22.3967 17.3388 23.8264 17.0669 23.9999L10.4341 23.9764L4.64501 22.7811L0.496574 22.7858L0.332511 22.678C0.243449 22.6171 0.130949 22.4952 0.0887612 22.4061C0.0090737 22.2561 0.0043862 21.9889 0.0090737 15.5389L0.112199 15.3608C0.173136 15.253 0.290324 15.1452 0.402824 15.0936C0.580949 15.0046 0.712198 14.9999 4.64501 14.9999L4.86532 14.8639C4.99189 14.7889 5.26845 14.653 5.48876 14.5639C5.70907 14.4702 6.05595 14.353 6.2622 14.3014C6.46845 14.2452 6.81532 14.1796 7.03564 14.1514C7.26064 14.1186 7.68251 14.1092 7.99657 14.1233C8.30595 14.1374 8.71845 14.1842 8.91064 14.2264C9.10282 14.2686 9.42157 14.353 9.61376 14.4186C9.80595 14.4842 10.1528 14.6342 10.3872 14.7514C10.6169 14.8639 10.9356 15.0514 11.0903 15.1592C11.245 15.2717 11.4981 15.478 11.9341 15.8811L13.9263 15.8999C15.7638 15.9186 15.9419 15.9233 16.1997 16.0124C16.3544 16.0639 16.5934 16.1764 16.7341 16.2655C16.8747 16.3546 17.095 16.5514 17.4653 16.9639L18.8528 15.6186C19.9544 14.5499 20.2966 14.2405 20.5403 14.1139C20.7044 14.0249 20.9669 13.9264 21.1216 13.8936C21.2763 13.8608 21.4966 13.8327 21.6138 13.8327ZM20.6997 15.7874C20.47 16.0124 19.7153 16.7436 19.0263 17.4139L17.7747 18.6327C17.77 19.8139 17.7559 19.9171 17.6763 20.0483C17.6247 20.1327 17.5122 20.2452 17.4278 20.2967C17.2825 20.3858 17.1934 20.3905 13.9263 20.3905C10.8278 20.3905 10.5606 20.3858 10.4153 20.3061C10.3263 20.2639 10.2138 20.1749 10.1622 20.1092C10.1153 20.0436 10.0638 19.8842 10.0544 19.7577C10.0356 19.5796 10.0544 19.4811 10.12 19.3592C10.1763 19.2608 10.2934 19.153 10.4153 19.0874L10.6216 18.9842H16.3638C16.3638 18.0467 16.345 17.9202 16.27 17.7655C16.2184 17.6624 16.12 17.5405 16.045 17.4889C15.9747 17.4421 15.8341 17.3764 15.7309 17.3483C15.6091 17.3155 14.8684 17.2967 13.5606 17.2967C11.8684 17.2967 11.5591 17.2874 11.4044 17.2217C11.3106 17.1842 11.0809 17.0061 10.9028 16.8327C10.72 16.6639 10.4388 16.4296 10.27 16.3124C10.1013 16.1999 9.79657 16.0264 9.59032 15.9327C9.38407 15.8342 9.0372 15.7124 8.81689 15.6561C8.59657 15.6046 8.22626 15.5483 7.99657 15.5296C7.74345 15.5155 7.40595 15.5249 7.15282 15.5624C6.91845 15.5952 6.59501 15.6655 6.42626 15.7171C6.25751 15.7686 5.99032 15.8764 5.82626 15.9561L5.53095 16.1014L5.55907 21.5296C6.39345 21.6936 7.5747 21.9327 8.72314 22.1671L10.8091 22.5936H16.5747C21.5903 17.578 22.4763 16.6592 22.5278 16.5327C22.5653 16.4389 22.5981 16.2796 22.5981 16.1858C22.5981 16.0874 22.556 15.9233 22.5091 15.8202C22.4622 15.7171 22.3731 15.5811 22.3122 15.5202C22.2513 15.4546 22.1153 15.3655 22.0122 15.3186C21.9091 15.2764 21.7497 15.2389 21.6606 15.2389C21.5716 15.2389 21.4122 15.2671 21.3091 15.3046C21.1919 15.3514 20.9622 15.5296 20.6997 15.7874ZM1.41064 21.3749H4.12939V16.4061H1.41064V21.3749ZM12.0981 2.70456C12.1638 2.71862 12.2716 2.76081 12.3419 2.79362C12.4169 2.83112 12.5153 2.9155 12.5716 2.98581C12.6231 3.06081 12.6794 3.19675 12.6981 3.29518C12.7309 3.46393 12.7544 3.48737 13.0684 3.63737C13.3122 3.74987 13.4434 3.84831 13.5325 3.97018C13.6309 4.12018 13.6497 4.1905 13.6356 4.41549C13.6216 4.64987 13.5981 4.70612 13.4575 4.85143C13.3263 4.99206 13.2466 5.02956 13.0591 5.04831C12.8622 5.07174 12.7778 5.05299 12.52 4.92643C12.3513 4.84675 12.145 4.78112 12.0606 4.78112C11.9809 4.78112 11.8356 4.81393 11.7466 4.85143C11.6575 4.88893 11.5638 4.97331 11.5356 5.03893C11.5075 5.10456 11.4888 5.20768 11.4888 5.27331C11.4888 5.36706 11.545 5.41862 11.7794 5.54987C11.9434 5.63424 12.2856 5.78893 12.5434 5.88268C12.8013 5.98112 13.1247 6.13581 13.2653 6.22956C13.4059 6.32331 13.5747 6.47331 13.6497 6.56237C13.72 6.65143 13.8372 6.853 13.9075 7.00768C14.0059 7.21862 14.0434 7.38268 14.0575 7.66393C14.0716 7.93112 14.0575 8.11862 13.9966 8.32018C13.9544 8.47487 13.8466 8.71862 13.7622 8.85925C13.6778 8.99987 13.5091 9.20612 13.3919 9.31393C13.2747 9.42643 13.0684 9.56706 12.9419 9.63268C12.7263 9.74049 12.7075 9.76393 12.6841 9.94674C12.67 10.0592 12.6184 10.2092 12.5669 10.2889C12.5153 10.3686 12.4122 10.4671 12.3419 10.5092C12.2669 10.5608 12.1216 10.5936 11.9809 10.5936C11.8403 10.5936 11.695 10.5608 11.62 10.5092C11.5497 10.4671 11.4466 10.3686 11.395 10.2889C11.3434 10.2092 11.3013 10.078 11.3013 9.99362C11.3013 9.84831 11.2919 9.83893 10.9825 9.74987C10.8091 9.69831 10.5513 9.58581 10.4106 9.50143C10.27 9.41706 10.1059 9.27174 10.045 9.18268C9.97314 9.07643 9.9372 8.953 9.9372 8.81237C9.9372 8.67175 9.9747 8.54987 10.045 8.44206C10.1059 8.353 10.2278 8.24518 10.3169 8.19362C10.4059 8.14675 10.5419 8.10925 10.6216 8.10925C10.6966 8.10925 10.9075 8.18425 11.0903 8.27331C11.3341 8.39518 11.5028 8.44674 11.7466 8.4655C12.0325 8.48893 12.1028 8.47956 12.2809 8.38112C12.4028 8.32018 12.52 8.20768 12.5716 8.10925C12.6231 8.02018 12.6606 7.8655 12.6606 7.76706C12.6606 7.65456 12.6231 7.55612 12.5528 7.47643C12.4919 7.40612 12.2059 7.26081 11.8638 7.12487C11.5403 6.99362 11.1419 6.80612 10.9731 6.70768C10.8044 6.60925 10.5888 6.4405 10.4903 6.33268C10.3966 6.22956 10.27 6.04206 10.2138 5.91549C10.1341 5.74206 10.1106 5.60612 10.1106 5.24987C10.1106 4.88424 10.1294 4.753 10.2231 4.52331C10.2934 4.34987 10.4294 4.14362 10.5794 3.98425C10.7106 3.84362 10.9309 3.67487 11.0622 3.60925C11.2497 3.52018 11.3013 3.46862 11.3013 3.38424C11.3013 3.328 11.3294 3.21081 11.3669 3.12643C11.3997 3.04675 11.47 2.93893 11.5169 2.89675C11.5684 2.84987 11.6903 2.78425 11.7934 2.74675C11.8966 2.70925 12.0325 2.6905 12.0981 2.70456Z" fill="#F15A2B"/>
</g>
<defs>
<clipPath id="clip0_793_54053">
<rect width="24" height="24" fill="white"/>
</clipPath>
</defs>
</svg>
