<svg width="24" height="24" viewBox="0 0 24 24" fill="none" xmlns="http://www.w3.org/2000/svg">
<path fill-rule="evenodd" clip-rule="evenodd" d="M2.78906 2.25938L21.1641 2.25L21.5156 2.37187C21.7078 2.44219 21.975 2.56406 22.1016 2.64844C22.2328 2.73281 22.4438 2.91094 22.575 3.05156C22.7063 3.19219 22.875 3.43125 22.9547 3.58594C23.0344 3.74063 23.1328 3.98906 23.175 4.13437C23.2406 4.38281 23.25 5.12344 23.25 11.9906C23.25 18.7547 23.2406 19.5984 23.175 19.8516C23.1328 20.0063 23.0344 20.2594 22.9547 20.4141C22.8797 20.5688 22.7063 20.8078 22.575 20.9484C22.4438 21.0891 22.2328 21.2672 22.1016 21.3516C21.9703 21.4359 21.7078 21.5578 21.1641 21.75H12C2.92031 21.75 2.83125 21.7453 2.55469 21.6516C2.4 21.6 2.15156 21.4922 1.99687 21.4078C1.84687 21.3234 1.60312 21.1313 1.45312 20.9766C1.30781 20.8219 1.12031 20.5688 1.04531 20.4141C0.965625 20.2594 0.867188 20.0109 0.825 19.8656C0.759375 19.6172 0.75 18.8766 0.75 12.0141C0.75 5.26875 0.759375 4.39687 0.825 4.14844C0.867188 3.99375 0.951562 3.75 1.02187 3.60938C1.09687 3.44531 1.27031 3.225 1.49531 2.99531C1.69219 2.80313 1.93594 2.60156 2.03906 2.55469C2.14219 2.50781 2.35312 2.41875 2.50781 2.3625L2.78906 2.25938ZM2.52187 4.05937C2.45156 4.13437 2.3625 4.275 2.325 4.37344C2.26406 4.51406 2.25 4.75781 2.25 5.64844V6.75H21.75C21.75 4.75781 21.7359 4.51406 21.675 4.37344C21.6375 4.275 21.5484 4.13437 21.4781 4.05937C21.4078 3.98437 21.2672 3.88594 21.1641 3.83906C20.9859 3.75469 20.6391 3.75 12 3.75C3.36094 3.75 3.01406 3.75469 2.83594 3.83906C2.73281 3.88594 2.59219 3.98437 2.52187 4.05937ZM2.25 13.8656C2.25 19.2281 2.25469 19.4859 2.33906 19.6641C2.38594 19.7672 2.48437 19.9078 2.55937 19.9781C2.63437 20.0484 2.775 20.1375 2.87344 20.1797C3.02813 20.2406 4.0125 20.25 12 20.25C19.9875 20.25 20.9719 20.2406 21.1312 20.1797C21.225 20.1375 21.3656 20.0484 21.4406 19.9781C21.5156 19.9078 21.6141 19.7672 21.6609 19.6641C21.7453 19.4859 21.75 19.2281 21.75 13.8656V8.25H2.25V13.8656ZM4.48594 4.50469C4.57031 4.50469 4.70625 4.53281 4.79062 4.56563C4.875 4.59844 5.00156 4.69219 5.07187 4.77656C5.14219 4.85625 5.21719 5.00156 5.23125 5.1C5.24531 5.19844 5.24531 5.34844 5.22656 5.44219C5.20781 5.53594 5.11875 5.67656 5.02031 5.775C4.90781 5.8875 4.78906 5.95625 4.66406 5.98125C4.56094 6 4.40156 6 4.3125 5.98125C4.21875 5.95781 4.07344 5.87344 3.975 5.775C3.8625 5.6625 3.79531 5.54375 3.77344 5.41875C3.75469 5.31562 3.75 5.16094 3.76875 5.07656C3.78281 4.99219 3.84375 4.85625 3.90469 4.77656C3.96563 4.69688 4.0875 4.60313 4.17656 4.57031C4.26094 4.53281 4.40156 4.50469 4.48594 4.50469ZM6.73594 4.50469C6.82031 4.50469 6.95625 4.53281 7.04062 4.56563C7.125 4.59844 7.25156 4.69219 7.32187 4.77656C7.39219 4.85625 7.46719 5.00156 7.48125 5.1C7.49531 5.19844 7.49531 5.34844 7.47656 5.44219C7.45781 5.53594 7.36875 5.67656 7.27031 5.775C7.15781 5.8875 7.03906 5.95625 6.91406 5.98125C6.81094 6 6.65156 6 6.5625 5.98125C6.46875 5.95781 6.32344 5.87344 6.225 5.775C6.1125 5.6625 6.04531 5.54375 6.02344 5.41875C6.00469 5.31562 6 5.16094 6.01875 5.07656C6.03281 4.99219 6.09375 4.85625 6.15469 4.77656C6.21563 4.69688 6.3375 4.60313 6.42656 4.57031C6.51094 4.53281 6.65156 4.50469 6.73594 4.50469ZM8.98594 4.50469C9.07031 4.50469 9.20625 4.53281 9.29062 4.56563C9.375 4.59844 9.50156 4.69219 9.57187 4.77656C9.64219 4.85625 9.71719 5.00156 9.73125 5.1C9.74531 5.19844 9.74531 5.34844 9.72656 5.44219C9.70781 5.53594 9.61875 5.67656 9.52031 5.775C9.40781 5.8875 9.28906 5.95625 9.16406 5.98125C9.06094 6 8.90156 6 8.8125 5.98125C8.71875 5.95781 8.57344 5.87344 8.475 5.775C8.3625 5.6625 8.29531 5.54375 8.27344 5.41875C8.25469 5.31562 8.25 5.16094 8.26875 5.07656C8.28281 4.99219 8.34375 4.85625 8.40469 4.77656C8.46563 4.69688 8.5875 4.60313 8.67656 4.57031C8.76094 4.53281 8.90156 4.50469 8.98594 4.50469ZM6.43125 10.5141C8.44219 10.5234 8.52656 10.5281 8.64844 10.6219C8.71875 10.6734 8.82187 10.7719 8.87812 10.8469C8.97656 10.9781 8.97656 10.9875 8.97656 14.2547C8.97656 17.5172 8.97656 17.5266 8.87812 17.6578C8.82187 17.7328 8.71875 17.8359 8.64844 17.8875C8.52656 17.9766 8.45156 17.9813 6.375 17.9813C4.29844 17.9813 4.21875 17.9766 4.09688 17.8875C4.02656 17.8359 3.92812 17.7328 3.87187 17.6578C3.77344 17.5266 3.77344 17.5031 3.75937 14.3766C3.75 12.6469 3.75469 11.1609 3.76875 11.0766C3.78281 10.9922 3.84375 10.8562 3.90469 10.7766C3.96563 10.6969 4.0875 10.6031 4.17656 10.5656C4.30312 10.5187 4.76719 10.5047 6.43125 10.5141ZM5.25 16.5047H7.5V12.0047H5.25V16.5047ZM15.4313 10.5141C19.6922 10.5281 19.7766 10.5281 19.8984 10.6219C19.9688 10.6734 20.0719 10.7719 20.1281 10.8469C20.2031 10.9453 20.2266 11.0438 20.2266 11.2547C20.2266 11.4609 20.2031 11.5594 20.1281 11.6578C20.0719 11.7328 19.9688 11.8359 19.8984 11.8875C19.7766 11.9766 19.6875 11.9812 15.4781 11.9953C12.7969 12 11.1187 11.9906 11.0156 11.9625C10.9266 11.9344 10.7812 11.8406 10.6969 11.7469C10.6078 11.6484 10.5328 11.5078 10.5187 11.4047C10.5 11.3063 10.5 11.1609 10.5187 11.0766C10.5328 10.9922 10.5938 10.8562 10.6547 10.7766C10.7156 10.6969 10.8375 10.6031 10.9266 10.5703C11.0531 10.5188 11.8969 10.5094 15.4313 10.5141ZM15.4313 13.5141C19.6922 13.5281 19.7766 13.5281 19.8984 13.6219C19.9688 13.6734 20.0719 13.7719 20.1281 13.8469C20.2031 13.9453 20.2266 14.0438 20.2266 14.2547C20.2266 14.4609 20.2031 14.5594 20.1281 14.6578C20.0719 14.7328 19.9688 14.8359 19.8984 14.8875C19.7766 14.9766 19.6875 14.9812 15.4781 14.9953C12.7969 15 11.1187 14.9906 11.0156 14.9625C10.9266 14.9344 10.7812 14.8406 10.6969 14.7469C10.6078 14.6484 10.5328 14.5078 10.5187 14.4047C10.5 14.3062 10.5 14.1609 10.5187 14.0766C10.5328 13.9922 10.5938 13.8562 10.6547 13.7766C10.7156 13.6969 10.8375 13.6031 10.9266 13.5703C11.0531 13.5188 11.8969 13.5094 15.4313 13.5141ZM13.5563 16.5141C15.9891 16.5281 16.0266 16.5281 16.1578 16.6266C16.2281 16.6781 16.3313 16.7812 16.3828 16.8516C16.4484 16.9453 16.4766 17.0531 16.4766 17.2547C16.4766 17.4609 16.4531 17.5594 16.3781 17.6578C16.3219 17.7328 16.2188 17.8359 16.1484 17.8875C16.0266 17.9766 15.9375 17.9812 13.6031 17.9953C12.1219 18 11.1141 17.9906 11.0156 17.9625C10.9266 17.9344 10.7812 17.8406 10.6969 17.7469C10.6078 17.6484 10.5328 17.5078 10.5187 17.4047C10.5 17.3062 10.5 17.1609 10.5187 17.0766C10.5328 16.9922 10.5938 16.8562 10.6547 16.7766C10.7156 16.6969 10.8375 16.6031 10.9266 16.5656C11.0531 16.5187 11.5781 16.5094 13.5563 16.5141Z" fill="#F15A2B"/>
</svg>
