<svg width="24" height="24" viewBox="0 0 24 24" fill="none" xmlns="http://www.w3.org/2000/svg">
<g clip-path="url(#clip0_793_54061)">
<path fill-rule="evenodd" clip-rule="evenodd" d="M11.9719 0C12.3187 0 12.4547 0.0234375 12.7031 0.117188C12.8719 0.182812 13.1109 0.304688 13.2375 0.389063C13.3641 0.473438 13.5516 0.632812 13.65 0.75C13.7531 0.867188 13.8984 1.0875 13.9734 1.24219C14.0484 1.39688 14.1328 1.64062 14.1609 1.78125C14.1938 1.92656 14.2031 2.25469 14.1937 2.53125C14.175 2.87344 14.1375 3.10313 14.0719 3.28125C14.0156 3.42188 13.9078 3.63281 13.6969 3.96094L14.2687 4.19063C14.5781 4.3125 14.9719 4.50469 15.1406 4.61719C15.3094 4.72969 15.5203 4.9125 15.6141 5.025C15.7031 5.13281 15.825 5.30156 15.8766 5.39062C15.9328 5.47969 16.0219 5.68594 16.0734 5.85C16.1297 6.01406 16.1859 6.35156 16.2422 7.125H19.9219V11.4141L14.3438 16.6875L14.3484 21.4922L9.67969 23.9813L9.63281 16.6641L4.07812 11.4141V7.125H7.75781L7.79062 6.64688C7.80937 6.37969 7.86094 6.04688 7.90313 5.90625C7.94531 5.76562 8.04375 5.53125 8.12344 5.39062C8.20781 5.25 8.37656 5.025 8.50781 4.89844C8.63437 4.76719 8.83594 4.60781 8.95312 4.54219C9.07031 4.47656 9.42188 4.32188 10.3031 3.96094L10.1672 3.75C10.0922 3.63281 9.98438 3.42188 9.92813 3.28125C9.8625 3.10313 9.825 2.87344 9.80625 2.53125C9.79688 2.25469 9.80625 1.92656 9.83906 1.78125C9.86719 1.64062 9.95156 1.39688 10.0266 1.24219C10.1062 1.0875 10.2469 0.867188 10.3453 0.754688C10.4437 0.6375 10.65 0.464063 10.8047 0.365625C10.9594 0.2625 11.1703 0.159375 11.2734 0.13125C11.3766 0.103125 11.4797 0.0609375 11.5031 0.0375C11.5312 0.01875 11.7422 0 11.9719 0ZM11.3109 1.82812C11.2125 2.01094 11.1984 2.09062 11.2125 2.44219C11.2266 2.79375 11.2406 2.86406 11.3531 3.01406C11.4281 3.10781 11.5453 3.22031 11.625 3.25781C11.7 3.29531 11.8687 3.32812 12 3.32812C12.1266 3.32812 12.3 3.29531 12.375 3.25781C12.45 3.22031 12.5719 3.10781 12.6422 3.01406C12.7594 2.86406 12.7734 2.79375 12.7875 2.44219C12.8016 2.09062 12.7875 2.01094 12.6891 1.82812C12.6094 1.67813 12.5156 1.58438 12.3703 1.50938C12.2578 1.45312 12.0891 1.40625 12 1.40625C11.9062 1.40625 11.7422 1.45312 11.6297 1.50938C11.4844 1.58438 11.3906 1.68281 11.3109 1.82812ZM9.50156 5.89688C9.38906 6.00938 9.3 6.15469 9.25312 6.30469C9.21562 6.43125 9.19219 6.66563 9.19687 6.82031L9.21094 7.10156H14.7891C14.8078 6.66563 14.7844 6.42656 14.7422 6.29062C14.6906 6.10781 14.6203 6.00469 14.4703 5.87813C14.325 5.75156 13.9875 5.59219 13.1719 5.26875C12.5672 5.02969 12.0375 4.83281 12 4.83281C11.9625 4.83281 11.4234 5.03437 10.8047 5.27812C9.89062 5.63906 9.64687 5.75625 9.50156 5.89688ZM5.48438 10.4062H18.5156V8.53125H5.48438V10.4062ZM8.84063 13.9828L11.0625 16.0781L11.0859 21.6469L12.9375 20.6719V16.0781C16.3828 12.825 17.3766 11.8687 17.3625 11.8453C17.3531 11.8266 14.9391 11.8125 12 11.8125C9.06563 11.8125 6.65156 11.8266 6.6375 11.8453C6.62813 11.8687 7.61719 12.825 8.84063 13.9781V13.9828ZM4.3125 15.3656C4.45312 15.375 4.70625 15.4312 4.875 15.4875C5.05312 15.5437 5.29688 15.675 5.46094 15.7969C5.61562 15.9141 5.82188 16.1297 5.92031 16.2703C6.01875 16.4109 6.14531 16.6453 6.20156 16.7859C6.28594 17.0063 6.3 17.1328 6.3 17.7C6.3 18.2063 6.28125 18.4031 6.22031 18.5672C6.17344 18.6844 6.06563 18.9 5.97656 19.0453C5.8875 19.1953 5.81719 19.3266 5.82187 19.3359C5.83125 19.3453 6.05625 19.4438 6.32812 19.5516C6.6 19.6594 6.94687 19.8141 7.09687 19.8937C7.25156 19.9781 7.49531 20.1703 7.64531 20.3344C7.80469 20.5031 7.98281 20.7562 8.05781 20.9203C8.13281 21.0844 8.21719 21.3281 8.24531 21.4594C8.27344 21.6047 8.29688 22.1953 8.29688 24.0047H0V22.8187C0 21.9 0.01875 21.5766 0.075 21.3563C0.117188 21.2016 0.215625 20.9531 0.295313 20.7984C0.379688 20.6484 0.571875 20.4047 0.726562 20.2547C0.88125 20.1094 1.13437 19.9219 1.28906 19.8469C1.44375 19.7672 1.77656 19.6266 2.025 19.5328C2.27813 19.4391 2.48438 19.35 2.48438 19.3312C2.48438 19.3078 2.41875 19.2 2.33906 19.0828C2.26406 18.9656 2.15156 18.7547 2.09531 18.6141C2.01094 18.3938 1.99688 18.2578 1.99219 17.7234C1.99219 17.2406 2.01094 17.0344 2.07188 16.8563C2.11875 16.7297 2.24062 16.4906 2.34375 16.3266C2.44688 16.1625 2.64844 15.9422 2.79844 15.825C2.94844 15.7078 3.1875 15.5672 3.32812 15.5156C3.46875 15.4594 3.68906 15.3984 3.82031 15.3797C3.94688 15.3609 4.17188 15.3516 4.3125 15.3656ZM3.6375 16.9641C3.5625 17.0344 3.47344 17.1609 3.44063 17.2406C3.40313 17.325 3.375 17.5359 3.375 17.7094C3.375 17.9437 3.40313 18.0797 3.48281 18.2344C3.53906 18.3516 3.65625 18.4828 3.75 18.5391C3.85781 18.6 3.99375 18.6375 4.15312 18.6375C4.33125 18.6375 4.43438 18.6094 4.56094 18.5203C4.65938 18.4547 4.77656 18.3188 4.82812 18.2156C4.89375 18.0844 4.92188 17.9297 4.92188 17.7094C4.92188 17.5359 4.89375 17.325 4.85625 17.2406C4.82344 17.1609 4.73438 17.0344 4.65938 16.9688C4.58437 16.8984 4.44844 16.8234 4.35938 16.7906C4.27031 16.7625 4.1625 16.7391 4.125 16.7438C4.0875 16.7438 3.99375 16.7672 3.91406 16.7906C3.83437 16.8141 3.7125 16.8891 3.6375 16.9641ZM1.65 21.3187C1.56563 21.4172 1.47656 21.5719 1.45312 21.6609C1.425 21.75 1.40625 21.9984 1.40625 22.2094V22.5984H6.89062C6.89062 21.9984 6.8625 21.7406 6.82969 21.6375C6.80156 21.5344 6.69844 21.375 6.60938 21.2812C6.47344 21.1406 6.24844 21.0328 5.30625 20.6625C4.68281 20.4094 4.15781 20.2078 4.13906 20.2125C4.11563 20.2125 3.58594 20.4234 2.95312 20.6766C1.93594 21.0844 1.78594 21.1594 1.65 21.3187ZM20.0391 15.3703C20.1938 15.3844 20.4375 15.4359 20.5781 15.4828C20.7188 15.5297 20.9391 15.6375 21.0656 15.7219C21.1922 15.8062 21.3797 15.9656 21.4781 16.0828C21.5813 16.2 21.7266 16.4203 21.8016 16.575C21.8766 16.7297 21.9609 16.9734 21.9891 17.1141C22.0219 17.2594 22.0312 17.5875 22.0219 17.8641C22.0031 18.2063 21.9656 18.4359 21.9 18.6141C21.8438 18.7547 21.7312 18.975 21.6469 19.0969C21.5625 19.2188 21.5016 19.3266 21.5156 19.3359C21.5297 19.35 21.7594 19.4438 22.0312 19.5516C22.3031 19.6594 22.6266 19.8 22.7578 19.8656C22.8844 19.9359 23.1187 20.1094 23.2734 20.2547C23.4281 20.4047 23.6203 20.6484 23.7 20.7984C23.7844 20.9531 23.8828 21.1969 23.925 21.3422C23.9859 21.5625 24 21.8531 24 24.0047H15.7031V22.8563C15.7031 22.1953 15.7266 21.6047 15.7547 21.4594C15.7828 21.3281 15.8672 21.0844 15.9422 20.925C16.0172 20.7563 16.1953 20.5031 16.35 20.3391C16.5281 20.1469 16.7391 19.9828 16.95 19.875C17.1281 19.7812 17.4797 19.6266 17.7281 19.5328C17.9813 19.4391 18.1875 19.35 18.1875 19.3312C18.1875 19.3078 18.1125 19.1766 18.0234 19.0359C17.9297 18.8953 17.8219 18.675 17.775 18.5438C17.7141 18.3656 17.6953 18.1594 17.6953 17.7C17.6953 17.2453 17.7141 17.0297 17.775 16.8563C17.8219 16.7297 17.9438 16.4906 18.0469 16.3312C18.15 16.1625 18.3516 15.9422 18.5016 15.825C18.6516 15.7078 18.8906 15.5672 19.0312 15.5156C19.1719 15.4594 19.3922 15.3984 19.5234 15.3797C19.65 15.3609 19.8844 15.3562 20.0391 15.3703ZM19.3406 16.9688C19.2656 17.0344 19.1766 17.1609 19.1437 17.2406C19.1062 17.325 19.0781 17.5359 19.0781 17.7141C19.0781 17.9297 19.1063 18.0844 19.1719 18.2156C19.2234 18.3188 19.3406 18.4547 19.4391 18.5203C19.5656 18.6094 19.6687 18.6375 19.8469 18.6375C20.0063 18.6375 20.1422 18.6 20.25 18.5391C20.3438 18.4828 20.4609 18.3516 20.5172 18.2344C20.5969 18.0797 20.625 17.9438 20.625 17.7141C20.625 17.5359 20.6016 17.3391 20.5734 17.2687C20.55 17.1938 20.4563 17.0672 20.3766 16.9828C20.2922 16.8984 20.1516 16.8094 20.0625 16.7859C19.9734 16.7578 19.8656 16.7391 19.8281 16.7438C19.7906 16.7438 19.6922 16.7672 19.6172 16.7953C19.5375 16.8234 19.4156 16.8984 19.3406 16.9688ZM17.3672 21.3C17.2875 21.3844 17.1984 21.5438 17.1703 21.6422C17.1375 21.7406 17.1094 21.9984 17.1094 22.2094V22.5984H22.5938C22.5938 21.9984 22.5703 21.7453 22.5469 21.6469C22.5187 21.5531 22.4203 21.3937 22.3219 21.2953C22.1766 21.1406 21.975 21.0422 21.0094 20.6625C20.3859 20.4094 19.8609 20.2078 19.8375 20.2125C19.8188 20.2125 19.2891 20.4234 18.6562 20.6766C17.6953 21.0609 17.4844 21.1641 17.3672 21.3Z" fill="#F15A2B"/>
</g>
<defs>
<clipPath id="clip0_793_54061">
<rect width="24" height="24" fill="white"/>
</clipPath>
</defs>
</svg>
