<svg width="24" height="24" viewBox="0 0 24 24" fill="none" xmlns="http://www.w3.org/2000/svg">
<g clip-path="url(#clip0_793_53731)">
<path fill-rule="evenodd" clip-rule="evenodd" d="M8.56883 0.00446981C9.18289 -0.000217688 9.45477 0.0232198 9.99383 0.11697C10.3641 0.177907 10.8423 0.281032 11.0626 0.346657C11.2829 0.412282 11.7141 0.571657 12.0235 0.69822C12.3329 0.82947 12.7641 1.04509 12.9845 1.17634C13.2048 1.30759 13.5516 1.53259 13.7532 1.67791C13.9548 1.82322 14.3157 2.12791 14.5501 2.34822C14.7845 2.56853 15.136 2.94822 15.3376 3.19197C15.5345 3.43572 15.8063 3.81072 15.947 4.03103C16.0829 4.25134 16.261 4.56541 16.4766 5.01541L16.8751 5.02009C17.1845 5.02009 17.311 5.03884 17.4376 5.10916C17.5266 5.16072 17.6485 5.28259 17.7048 5.38103C17.7704 5.48884 17.8126 5.63416 17.8126 5.76541C17.8126 5.91072 17.7798 6.02791 17.7095 6.13572C17.6485 6.22478 17.5407 6.34197 17.4704 6.39353C17.3438 6.48728 17.2735 6.49197 14.5782 6.51541V7.87478L16.5329 7.89822L16.711 8.03884C16.8095 8.11853 16.922 8.25447 16.9595 8.34353C17.0016 8.44666 17.0157 8.58728 17.0016 8.71853C16.9876 8.83572 16.936 8.98103 16.8845 9.04666C16.8329 9.11228 16.7345 9.20603 16.6688 9.25759C16.5516 9.34197 16.4579 9.35134 14.5782 9.37478V10.8279L15.9563 10.842C17.2735 10.8513 17.3438 10.856 17.4704 10.9498C17.5407 11.0013 17.6485 11.1185 17.7095 11.2076C17.7798 11.3154 17.8126 11.4326 17.8126 11.5779C17.8126 11.6951 17.7704 11.8592 17.7188 11.9529C17.6673 12.042 17.5454 12.1638 17.447 12.2201C17.3063 12.3045 17.2032 12.3232 16.4532 12.3279L16.3313 12.5763C16.261 12.7076 16.1251 12.956 16.022 13.1248C15.8766 13.3685 15.8532 13.4388 15.9001 13.481C15.9329 13.5092 16.3641 13.9217 17.7423 15.2717L18.1407 15.267C18.4782 15.2623 18.5766 15.281 18.797 15.3842C19.0032 15.4826 19.5048 15.942 21.3891 17.7748C23.2501 19.5748 23.7516 20.0857 23.8407 20.2732C23.9016 20.4045 23.9673 20.6248 23.986 20.7654C24.0001 20.9154 23.9907 21.1217 23.9579 21.2576C23.9251 21.3888 23.8313 21.5998 23.7423 21.7263C23.6532 21.8576 23.1845 22.3638 22.7016 22.8607C21.961 23.6154 21.7782 23.7795 21.5532 23.8826C21.3376 23.9763 21.2063 23.9998 20.9438 23.9951C20.6485 23.9951 20.5641 23.9717 20.3298 23.8451C20.1282 23.7326 19.4673 23.1185 17.7657 21.4685C16.0548 19.8138 15.436 19.181 15.3423 19.0076C15.2532 18.8388 15.211 18.6842 15.197 18.4451C15.1876 18.2623 15.2016 18.0326 15.2298 17.9295C15.2766 17.7467 15.272 17.7373 15.1032 17.5638C15.0095 17.4654 14.5782 17.0482 13.3595 15.8904L13.0923 16.0498C12.9423 16.1388 12.6001 16.317 12.3282 16.4482C12.0563 16.5795 11.6157 16.7576 11.3438 16.8467C11.072 16.931 10.6313 17.0482 10.3595 17.1045C10.0876 17.156 9.60477 17.2263 9.28133 17.2498C8.87352 17.2873 8.49852 17.2873 8.0532 17.2498C7.69695 17.2263 7.16727 17.1513 6.88133 17.0904C6.5907 17.0295 6.12195 16.9029 5.83602 16.8045C5.55477 16.7107 5.0907 16.5138 4.80477 16.3732C4.52352 16.2326 4.12039 16.0076 3.91414 15.8717C3.70789 15.7357 3.35164 15.4685 3.11727 15.2763C2.88758 15.0842 2.52195 14.7373 2.30633 14.5029C2.09539 14.2732 1.78602 13.8935 1.61727 13.6638C1.4532 13.4342 1.20477 13.0404 1.06883 12.7967C0.932891 12.5529 0.736016 12.131 0.623516 11.8592C0.515703 11.5873 0.375078 11.1654 0.309453 10.9217C0.243828 10.6779 0.159453 10.2842 0.117266 10.0545C0.0750781 9.82478 0.0328906 9.36072 0.0141406 9.02322C7.81249e-05 8.67634 0.00945312 8.17478 0.0422656 7.85134C0.0703906 7.54197 0.150078 7.04509 0.215703 6.74978C0.286016 6.45447 0.417266 5.99041 0.515703 5.71853C0.609453 5.44666 0.792266 5.02478 0.914141 4.78103C1.03602 4.53728 1.25164 4.15759 1.39695 3.93728C1.53758 3.71697 1.76258 3.40291 1.89852 3.23416C2.03445 3.06541 2.32039 2.75134 2.53602 2.53572C2.75164 2.32009 3.09852 2.01072 3.30477 1.85134C3.51102 1.69197 3.82977 1.46228 4.00789 1.34978C4.1907 1.23259 4.5282 1.04041 4.75789 0.927907C4.99227 0.81072 5.38133 0.64197 5.62508 0.54822C5.86883 0.45447 6.24852 0.337282 6.46883 0.281032C6.68914 0.22947 7.0782 0.145095 7.33602 0.0982198C7.65008 0.0372823 8.0532 0.00915731 8.56883 0.00446981ZM6.93758 1.71072C6.6657 1.77634 6.23445 1.91697 5.97664 2.02009C5.71883 2.12322 5.33914 2.30603 5.13289 2.42322C4.92664 2.54041 4.57039 2.77947 4.33602 2.95291C4.10633 3.12634 3.71258 3.47791 3.46883 3.73572C3.22508 3.98884 2.89227 4.40134 2.7282 4.64509C2.56414 4.88884 2.33914 5.27791 2.22664 5.50759C2.11414 5.74197 1.95945 6.12166 1.87977 6.35134C1.80477 6.58103 1.69227 6.99353 1.63602 7.26541C1.54695 7.67322 1.5282 7.90759 1.5282 8.64822C1.5282 9.39822 1.54695 9.61384 1.63602 10.031C1.69227 10.3029 1.7907 10.6826 1.85633 10.8748C1.92195 11.067 2.09539 11.4795 2.24539 11.7888C2.40008 12.0982 2.65789 12.5388 2.81727 12.7685C2.98133 13.0029 3.31883 13.392 3.56258 13.6404C3.80633 13.8888 4.16727 14.2076 4.35945 14.3482C4.55164 14.4935 4.86102 14.6951 5.03914 14.8029C5.22195 14.9107 5.56883 15.0842 5.81258 15.1873C6.05633 15.2951 6.43602 15.431 6.65633 15.492C6.87664 15.5576 7.25633 15.642 7.50008 15.6842C7.77664 15.731 8.20789 15.7592 8.64852 15.7638C9.1032 15.7638 9.5157 15.7357 9.82039 15.6795C10.0782 15.6373 10.5188 15.5248 10.8048 15.4357C11.0907 15.3467 11.5735 15.1404 11.8829 14.9857C12.1923 14.8263 12.647 14.5498 12.8907 14.3623C13.1345 14.1795 13.5376 13.8185 13.7813 13.5654C14.0298 13.3123 14.3251 12.9654 14.447 12.7967C14.5641 12.6279 14.6766 12.4545 14.6907 12.4123C14.7141 12.3373 14.6673 12.3279 14.1376 12.3185C13.6266 12.3045 13.5376 12.2904 13.4204 12.206C13.3501 12.1498 13.247 12.0373 13.1954 11.9482C13.1063 11.7935 13.1016 11.7045 13.1016 8.67166C13.1016 5.79353 13.1063 5.54509 13.186 5.40447C13.2282 5.32009 13.336 5.20291 13.4204 5.14666C13.5516 5.04822 13.636 5.03884 14.1704 5.02947C14.4985 5.02009 14.7657 5.00603 14.7657 4.99197C14.7657 4.97791 14.6626 4.81384 14.536 4.63103C14.4095 4.44353 14.1704 4.12947 14.0063 3.93728C13.8423 3.74509 13.5704 3.46853 13.4016 3.32322C13.2376 3.17791 12.9423 2.94353 12.7501 2.80759C12.5579 2.66697 12.1876 2.44666 11.9298 2.31072C11.672 2.17947 11.2501 1.99666 10.9923 1.90759C10.7345 1.81853 10.2938 1.69666 10.0079 1.64041C9.67039 1.57478 9.26258 1.53259 8.81258 1.52322C8.43758 1.51384 7.97352 1.52322 7.78133 1.55134C7.58914 1.57478 7.20945 1.64978 6.93758 1.71072ZM14.5688 14.9295C15.8532 16.1998 16.2423 16.5748 16.2563 16.5842C16.2751 16.5888 16.3641 16.5185 16.4532 16.4248L16.6173 16.256C15.3095 14.9904 14.9157 14.6248 14.9016 14.6248C14.8876 14.6248 14.8079 14.6951 14.7235 14.7748L14.5688 14.9295ZM16.6782 18.3045C18.0095 19.617 18.961 20.5451 19.6548 21.2154C20.3438 21.8857 20.9345 22.4295 20.9673 22.4295C20.9954 22.4295 21.347 22.106 21.7407 21.7029C22.1391 21.3045 22.4532 20.9529 22.4438 20.9248C22.4345 20.892 21.4782 19.9451 20.3204 18.8248C19.1579 17.6998 18.2016 16.7857 18.1876 16.7904C18.1735 16.7904 17.8313 17.1373 17.4235 17.5498L16.6782 18.3045ZM20.6907 4.97322C20.8829 4.96853 21.1735 5.01072 21.3938 5.06697C21.6001 5.11853 21.886 5.22634 22.0266 5.31072C22.1673 5.39041 22.4251 5.59666 22.5938 5.76541C22.7626 5.93416 22.9641 6.18728 23.0345 6.32791C23.1048 6.47322 23.2079 6.70291 23.2595 6.84353C23.3485 7.07791 23.3579 7.23259 23.3766 8.46072C23.3907 9.52478 23.3766 9.89509 23.3251 10.1482C23.2876 10.331 23.1845 10.6263 23.1001 10.8045C22.9876 11.0342 22.8376 11.2404 22.5891 11.4888C22.3454 11.7326 22.1438 11.892 21.9329 11.9951C21.7641 12.0748 21.511 12.1732 21.3704 12.2107C21.2298 12.2482 20.9485 12.281 20.747 12.281C20.5501 12.281 20.2735 12.2576 20.1376 12.2295C20.0063 12.2013 19.7391 12.1076 19.5516 12.0185C19.3407 11.9201 19.1016 11.756 18.9188 11.5826C18.7595 11.4326 18.5485 11.1748 18.4501 11.0107C18.3516 10.8467 18.2251 10.5654 18.1688 10.3826C18.0704 10.0732 18.0657 9.97478 18.0657 8.62478C18.0657 7.37322 18.0751 7.16228 18.1501 6.91384C18.197 6.75916 18.3048 6.50603 18.3845 6.35134C18.4688 6.19666 18.6798 5.92478 18.8626 5.74197C19.0876 5.52166 19.2938 5.36697 19.5048 5.26384C19.6829 5.17947 19.9454 5.08103 20.0907 5.04353C20.2407 5.00603 20.5079 4.97791 20.6907 4.97322ZM19.7954 6.91853C19.7157 7.02166 19.6266 7.21384 19.5985 7.34978C19.5657 7.49978 19.5423 8.01072 19.5423 8.66228C19.5423 9.46853 19.5563 9.78259 19.6126 9.96072C19.6501 10.092 19.7485 10.2795 19.8329 10.3826C19.9173 10.481 20.0907 10.6123 20.222 10.6732C20.3673 10.7388 20.5454 10.781 20.6907 10.781C20.8173 10.781 21.0095 10.7529 21.1079 10.7248C21.2063 10.692 21.3751 10.5935 21.4782 10.4998C21.5813 10.4107 21.7079 10.2513 21.7641 10.1482C21.8579 9.97478 21.8626 9.87634 21.8766 8.74197C21.886 7.76697 21.8766 7.47634 21.8204 7.28884C21.7782 7.16228 21.6891 6.98416 21.6141 6.89041C21.5391 6.80134 21.3657 6.67009 21.2251 6.59978C21.0376 6.50134 20.9063 6.46853 20.7095 6.46853C20.5126 6.46853 20.3813 6.50134 20.1938 6.59978C20.0532 6.67478 19.8751 6.81541 19.7954 6.91853ZM11.6907 5.01541L11.8548 5.12322C11.9438 5.18416 12.0657 5.30603 12.1266 5.39509C12.1923 5.49353 12.2298 5.62478 12.2298 5.73259C12.2298 5.82634 12.2016 5.97634 12.1688 6.06072C12.136 6.14509 12.0235 6.27634 11.747 6.49197L8.3157 6.53884V7.85134L10.9407 7.89822L11.2407 8.03884C11.4329 8.13259 11.6204 8.26853 11.7657 8.42791C11.8923 8.56384 12.0423 8.77478 12.0985 8.89666C12.2016 9.10291 12.2063 9.18259 12.2063 10.9967L12.061 11.2967C11.9626 11.4982 11.8266 11.681 11.6626 11.8263C11.522 11.9529 11.3016 12.0935 11.161 12.1451C10.936 12.2295 10.7813 12.2342 9.09852 12.2342C7.36883 12.2342 7.27977 12.2295 7.12977 12.1404C7.05008 12.0888 6.93758 11.981 6.88602 11.8967C6.82508 11.7982 6.79227 11.6576 6.79227 11.5076C6.79227 11.3435 6.82039 11.2263 6.89539 11.1138C6.95633 11.0248 7.0782 10.9076 7.16727 10.856C7.32195 10.7623 7.42508 10.7576 10.7063 10.7107L10.7157 10.1013C10.7251 9.75447 10.711 9.46853 10.6829 9.43572C10.6454 9.38884 10.3079 9.37478 8.02977 9.35134L7.72977 9.20603C7.53758 9.11228 7.35008 8.97634 7.22352 8.83103C7.11102 8.70447 6.97508 8.50759 6.91883 8.39041C6.82508 8.20291 6.8157 8.09509 6.80164 7.28884C6.79227 6.57634 6.80164 6.35134 6.86258 6.16384C6.90477 6.03728 7.01727 5.82634 7.11102 5.69509C7.20945 5.56853 7.39227 5.39041 7.51883 5.30603C7.65008 5.22166 7.84695 5.12322 7.96414 5.08572C8.12352 5.03884 8.59227 5.02009 11.6907 5.01541Z" fill="#F15A2B"/>
</g>
<defs>
<clipPath id="clip0_793_53731">
<rect width="24" height="24" fill="white"/>
</clipPath>
</defs>
</svg>
