<svg width="24" height="24" viewBox="0 0 24 24" fill="none" xmlns="http://www.w3.org/2000/svg">
<g clip-path="url(#clip0_793_53739)">
<path fill-rule="evenodd" clip-rule="evenodd" d="M1.19609 0.0046875L11.9539 0L12.2492 0.135938C12.4367 0.225 12.6102 0.351562 12.7414 0.501562C12.8539 0.623437 12.9898 0.820312 13.0461 0.9375C13.1492 1.14844 13.1492 1.17188 13.1492 3.51562C13.1492 5.85938 13.1492 5.88281 13.0461 6.09375C12.9898 6.21094 12.8586 6.39844 12.7602 6.51562C12.657 6.63281 12.4555 6.7875 12.0242 7.00781H1.14922L0.914844 6.89062C0.783594 6.82969 0.586719 6.67969 0.469531 6.5625C0.352344 6.44531 0.197656 6.225 -0.00390625 5.78906L0.0242188 1.14844L0.141406 0.914062C0.202344 0.782812 0.352344 0.585938 0.469531 0.46875C0.586719 0.351562 0.797656 0.196875 0.938281 0.13125L1.19609 0.0046875ZM1.39766 3.51094C1.40234 5.04844 1.42109 5.52187 1.46328 5.56406C1.51016 5.61094 2.56484 5.625 6.58672 5.625C10.5805 5.625 11.668 5.61094 11.7102 5.56406C11.7523 5.52187 11.7664 5.01562 11.7664 3.51562C11.7664 1.96875 11.7523 1.50938 11.7102 1.4625C11.6633 1.41563 10.6086 1.40156 6.58672 1.40156C2.71484 1.40625 1.50547 1.41563 1.45391 1.4625C1.39766 1.50938 1.38828 1.85156 1.39766 3.51094ZM16.7117 1.35938C16.7867 1.35938 16.9414 1.40156 17.0539 1.45312C17.1992 1.52344 17.2742 1.59375 17.3445 1.74375C17.3961 1.85156 17.4383 2.00156 17.4383 2.07188C17.4383 2.14219 17.4055 2.26875 17.3633 2.35313C17.3211 2.4375 17.2227 2.57344 16.993 2.8125H19.5711C21.7555 2.8125 22.1914 2.82188 22.4305 2.88281C22.5852 2.925 22.8055 3.00937 22.9227 3.075C23.0398 3.14531 23.2133 3.27188 23.3117 3.36563C23.4148 3.45938 23.5602 3.63281 23.6398 3.75C23.7195 3.8625 23.832 4.0875 24.0008 4.52344V7.6875C24.0008 10.3969 23.9914 10.8891 23.9305 11.1328C23.8883 11.2875 23.7992 11.5078 23.7336 11.625C23.6633 11.7375 23.5133 11.9344 23.3961 12.0609C23.2789 12.1875 23.0773 12.3469 22.9461 12.4219C22.8195 12.4969 22.5852 12.5906 22.4305 12.6281C22.1961 12.6891 21.8727 12.6984 20.4523 12.6891C18.8398 12.6797 18.7508 12.675 18.6289 12.5859C18.5633 12.5344 18.4602 12.4313 18.4039 12.3563C18.3336 12.2672 18.3055 12.1594 18.3055 12C18.3055 11.8406 18.3336 11.7328 18.4039 11.6391C18.4602 11.5641 18.5633 11.4656 18.6289 11.4141C18.7508 11.325 18.8492 11.3156 20.4523 11.2969C22.0789 11.2734 22.1539 11.2687 22.2898 11.175C22.3648 11.1187 22.468 10.9969 22.5148 10.9031C22.5898 10.7484 22.5945 10.4953 22.5945 7.75781C22.5945 5.01562 22.5898 4.76719 22.5148 4.60781C22.468 4.51406 22.3648 4.39219 22.2898 4.34062C22.1539 4.24219 22.1023 4.24219 16.993 4.21406L17.1383 4.36875C17.2227 4.45312 17.3211 4.58906 17.3633 4.67344C17.4055 4.75781 17.4383 4.88437 17.4383 4.95469C17.4383 5.025 17.3961 5.175 17.3445 5.28281C17.2742 5.43281 17.1992 5.50781 17.0539 5.57344C16.9414 5.625 16.7961 5.66719 16.7258 5.66719C16.6508 5.67188 16.5148 5.62969 16.4211 5.58281C16.3227 5.53125 15.882 5.12344 15.4414 4.67813C14.8039 4.03594 14.6305 3.82969 14.6023 3.70312C14.5836 3.60938 14.5836 3.45469 14.6023 3.35156C14.6305 3.1875 14.7383 3.05625 15.4414 2.34844C15.882 1.90312 16.318 1.49531 16.407 1.44844C16.4961 1.40156 16.6367 1.35938 16.7117 1.35938ZM12.0242 16.9922L12.282 17.1141C12.432 17.1844 12.6242 17.3344 12.7414 17.4656C12.8539 17.5922 12.9898 17.7891 13.0461 17.9062C13.1492 18.1125 13.1492 18.1359 13.1492 20.4844C13.1492 22.8281 13.1492 22.8516 13.0461 23.0625C12.9898 23.175 12.8586 23.3672 12.7602 23.4844C12.6477 23.6156 12.4602 23.7516 11.9539 24H1.21953L0.952344 23.8688C0.802344 23.7984 0.586719 23.6484 0.469531 23.5312C0.352344 23.4141 0.202344 23.2125 0.0242188 22.8516V18.1172L0.141406 17.8828C0.202344 17.7516 0.352344 17.55 0.469531 17.4328C0.586719 17.3156 0.764844 17.1844 0.867969 17.1328C0.971094 17.0859 1.12109 17.0297 1.19609 17.0109C1.27578 16.9922 3.74141 16.9781 12.0242 16.9922ZM1.39766 20.4797C1.40234 22.0172 1.42109 22.4906 1.46328 22.5328C1.51016 22.5797 2.56484 22.5938 6.58672 22.5938C10.5805 22.5938 11.668 22.5797 11.7102 22.5328C11.7523 22.4906 11.7664 21.9844 11.7664 20.4844C11.7664 18.9375 11.7523 18.4781 11.7102 18.4313C11.6633 18.3844 10.6086 18.3703 6.58672 18.3703C2.71484 18.375 1.50547 18.3844 1.45391 18.4313C1.39766 18.4781 1.38828 18.8203 1.39766 20.4797ZM10.3836 8.49375C15.6617 8.50781 15.732 8.50781 15.9383 8.60156C16.0555 8.65312 16.2523 8.79375 16.3789 8.90625C16.5008 9.02344 16.6602 9.22031 16.8523 9.58594V14.4141L16.7305 14.6484C16.6602 14.775 16.5008 14.9766 16.3789 15.0891C16.2523 15.2062 16.0555 15.3422 15.9383 15.3937C15.732 15.4875 15.657 15.4922 10.407 15.5016C5.85547 15.5109 5.05391 15.5063 4.85234 15.4453C4.72578 15.4078 4.51484 15.3094 4.38828 15.225C4.26172 15.1359 4.08828 14.9625 4.00391 14.8359C3.91953 14.7047 3.81641 14.475 3.77422 14.3203C3.71797 14.0859 3.70391 13.6828 3.70391 12C3.70391 10.3125 3.71797 9.90938 3.77422 9.67969C3.81641 9.525 3.91953 9.29062 4.00391 9.16406C4.08828 9.03281 4.24766 8.86406 4.36016 8.78906C4.47266 8.70938 4.67422 8.61094 4.80078 8.56406C5.02109 8.48906 5.42891 8.48438 10.3836 8.49375ZM5.10078 11.9719C5.10547 13.4766 5.12422 13.9641 5.16641 14.025C5.22266 14.1047 5.50859 14.1094 10.3367 14.0953L15.4461 14.0859V9.91406C6.40391 9.89062 5.20859 9.9 5.15703 9.94687C5.10078 9.99375 5.09141 10.3312 5.10078 11.9719ZM10.3133 11.2969C13.2805 11.2969 13.5383 11.3016 13.6883 11.3766C13.7773 11.4234 13.8992 11.5312 13.9602 11.625C14.0305 11.7328 14.068 11.8547 14.068 12C14.068 12.1406 14.0305 12.2625 13.9602 12.375C13.8992 12.4641 13.7773 12.5719 13.6883 12.6188C13.5383 12.6938 13.2758 12.7031 10.3273 12.7031C8.17578 12.7031 7.08359 12.6844 6.99922 12.6516C6.92422 12.6234 6.80703 12.5438 6.73672 12.4734C6.66641 12.4078 6.58672 12.2719 6.56328 12.1734C6.53047 12.0609 6.53047 11.9344 6.56328 11.8219C6.58672 11.7234 6.66641 11.5875 6.73672 11.5219C6.80703 11.4516 6.91953 11.3719 6.98516 11.3484C7.06016 11.3203 8.30234 11.3016 10.3133 11.2969Z" fill="#F15A2B"/>
</g>
<defs>
<clipPath id="clip0_793_53739">
<rect width="24" height="24" fill="white"/>
</clipPath>
</defs>
</svg>
