<svg width="24" height="24" viewBox="0 0 24 24" fill="none" xmlns="http://www.w3.org/2000/svg">
<g clip-path="url(#clip0_793_54037)">
<path fill-rule="evenodd" clip-rule="evenodd" d="M1.80469 0.0046875L15.3984 0L15.7031 0.117188C15.8719 0.182812 16.0922 0.285938 16.1953 0.346875C16.2984 0.407813 16.4906 0.571875 16.6219 0.707813C16.7531 0.848438 16.9172 1.07344 16.9828 1.20469C17.0531 1.34063 17.1422 1.575 17.1797 1.72031C17.2406 1.95 17.25 2.50313 17.2547 8.46094L17.5219 8.69531C17.6719 8.82187 17.9156 9.06563 18.0656 9.23438C18.2203 9.40312 18.4547 9.70781 18.5859 9.91406C18.7219 10.1203 18.8953 10.4156 18.975 10.5703C19.05 10.725 19.1719 11.0109 19.2375 11.2031C19.3078 11.3953 19.4062 11.7656 19.4625 12.0234C19.5328 12.3656 19.5609 12.675 19.5656 13.1719C19.5656 13.5469 19.5375 14.0109 19.5047 14.2031C19.4719 14.3953 19.3781 14.7563 19.3031 15C19.2234 15.2437 19.0875 15.6047 18.9938 15.7969C18.9 15.9891 18.7125 16.3172 18.3234 16.8984L18.8859 17.4609L18.9938 17.3578C19.0547 17.3016 19.2094 17.2078 19.3359 17.1469C19.5187 17.0672 19.6547 17.0391 19.9453 17.0391C20.2359 17.0391 20.3719 17.0625 20.5547 17.1422C20.7422 17.2266 21.1125 17.5734 24 20.4609V22.875L23.8125 23.1094C23.7094 23.2359 23.5266 23.4188 23.4 23.5078C23.2781 23.5969 23.0625 23.7141 22.9219 23.7703C22.7812 23.8219 22.5375 23.8922 22.3828 23.9156C22.1766 23.9531 22.0078 23.9531 21.75 23.9109C21.5578 23.8828 21.2625 23.7937 21.0938 23.7141C20.8219 23.5875 20.6203 23.4047 19.2047 21.9938C17.9438 20.7328 17.6016 20.3672 17.5172 20.1797C17.4375 19.9969 17.4141 19.8609 17.4141 19.5703C17.4141 19.2797 17.4422 19.1437 17.5219 18.9609C17.5828 18.8297 17.6766 18.6797 17.8359 18.5109L17.25 17.9297V19.9688C17.25 21.6328 17.2359 22.0594 17.1797 22.2797C17.1422 22.425 17.0531 22.6594 16.9828 22.7906C16.9172 22.9266 16.7531 23.1516 16.6219 23.2922C16.4906 23.4281 16.2984 23.5922 16.1953 23.6531C16.0922 23.7141 15.8719 23.8172 15.3984 24H8.625C1.86094 24 1.85156 24 1.59375 23.9016C1.45312 23.8453 1.25156 23.7609 1.14844 23.7047C1.04531 23.6531 0.848438 23.5031 0.707813 23.3719C0.571875 23.2406 0.407813 23.0484 0.346875 22.9453C0.285938 22.8422 0.182813 22.6219 0 22.1484V12.0703C0 3.24844 0.009375 1.95938 0.0703125 1.72031C0.107813 1.575 0.196875 1.34062 0.267187 1.20937C0.332812 1.07344 0.496875 0.848437 0.628125 0.7125C0.759375 0.571875 0.942187 0.417187 1.03125 0.360937C1.12031 0.304688 1.33125 0.201562 1.5 0.13125L1.80469 0.0046875ZM1.65469 1.77656C1.59844 1.85625 1.5375 1.99219 1.52344 2.07656C1.50937 2.15625 1.50469 6.67969 1.50938 12.1266L1.52344 22.0266C1.67813 22.2281 1.78125 22.3312 1.84688 22.3828C1.97344 22.4766 2.04844 22.4766 8.625 22.4766C15.2016 22.4766 15.2766 22.4766 15.4031 22.3828C15.4688 22.3312 15.5719 22.2281 15.6281 22.1578C15.7219 22.0312 15.7266 21.975 15.7406 20.4094L15.75 18.7969C15.225 18.9797 14.8922 19.0688 14.6719 19.1109C14.4187 19.1625 14.0297 19.1906 13.5938 19.1906C13.2188 19.1906 12.8625 19.1766 12.7969 19.1625C12.6844 19.1344 12.6797 19.1344 12.7219 19.3031C12.7453 19.3969 12.75 19.5562 12.7313 19.6547C12.7172 19.7531 12.6375 19.8984 12.5531 19.9969C12.4687 20.0859 12.3234 20.1844 12.2344 20.2078C12.1359 20.2359 11.5312 20.25 10.7719 20.2406C9.5625 20.2266 9.46875 20.2219 9.34687 20.1328C9.28125 20.0812 9.17813 19.9781 9.12188 19.9078C9.04688 19.8094 9.02344 19.7062 9.02344 19.5C9.02344 19.2938 9.04688 19.1953 9.12188 19.0922C9.17813 19.0219 9.28125 18.9188 9.34687 18.8672C9.45937 18.7828 9.57188 18.7687 10.3266 18.75L11.1797 18.7266C10.7812 18.5203 10.4953 18.3469 10.2891 18.2156C10.0828 18.0797 9.7875 17.8547 9.6375 17.7141C9.48281 17.5734 9.2625 17.3578 9.14531 17.2313C9.02813 17.1094 8.82656 16.8656 8.70469 16.6922C8.57812 16.5234 8.37656 16.1812 8.25 15.9375C8.12813 15.6938 7.96875 15.3234 7.90313 15.1172C7.8375 14.9109 7.74844 14.5969 7.70625 14.4141C7.66875 14.2359 7.62188 13.8141 7.60781 13.4766C7.59375 13.125 7.60312 12.6984 7.63594 12.4688C7.66406 12.2484 7.725 11.9109 7.77656 11.7188C7.82344 11.5266 7.93125 11.1984 8.01094 10.9922C8.09531 10.7859 8.25937 10.4484 8.37656 10.2422C8.49375 10.0359 8.72344 9.69844 8.88281 9.49219C9.04219 9.28594 9.3 9 9.45 8.85938C9.60469 8.71875 9.82969 8.52656 9.95625 8.4375L10.1812 8.27344C9.56719 8.23125 9.44063 8.20312 9.34219 8.12812C9.27188 8.07187 9.16875 7.96875 9.11719 7.90313C9.04688 7.80938 9.02344 7.70156 9.02344 7.5C9.02344 7.29375 9.04688 7.19531 9.12188 7.09219C9.17813 7.02188 9.28125 6.91875 9.34687 6.86719C9.46875 6.77812 9.54844 6.77344 10.875 6.77344C12.2203 6.77344 12.2813 6.77813 12.4078 6.87188C12.4781 6.92344 12.5813 7.03125 12.6328 7.11094L12.7266 7.25156C13.6922 7.21406 14.1094 7.22812 14.3438 7.26094C14.5641 7.29375 14.9344 7.36875 15.1641 7.42969C15.3984 7.49062 15.6234 7.55156 15.6703 7.56562C15.7453 7.59375 15.75 7.44375 15.7406 4.78594C15.7266 2.00625 15.7266 1.97344 15.6281 1.84219C15.5719 1.77187 15.4688 1.66875 15.4031 1.61719C15.2766 1.52344 15.1922 1.52344 8.68125 1.51406C3.27656 1.50469 2.05781 1.51406 1.92656 1.56563C1.8375 1.59844 1.71562 1.69219 1.65469 1.77656ZM12.0844 8.97187C11.9203 9.03281 11.6625 9.14531 11.5078 9.22031C11.3531 9.3 11.0578 9.4875 10.8516 9.64219C10.6453 9.79688 10.3687 10.05 10.2375 10.2C10.1062 10.3547 9.92813 10.5844 9.84375 10.7109C9.75469 10.8422 9.60469 11.1141 9.50625 11.3203C9.4125 11.5266 9.28594 11.8641 9.22969 12.0703C9.14062 12.3844 9.12656 12.5719 9.12188 13.1953C9.12188 13.7812 9.13594 14.0109 9.20625 14.25C9.25312 14.4187 9.35156 14.7141 9.42188 14.9062C9.49687 15.0984 9.66563 15.4266 9.80156 15.6328C9.9375 15.8391 10.1719 16.1437 10.3312 16.3031C10.4906 16.4672 10.7531 16.7062 10.9219 16.8281C11.0906 16.9547 11.4281 17.1516 11.6719 17.2687C11.9156 17.3859 12.2953 17.5219 12.5156 17.5734C12.7359 17.625 13.0828 17.6812 13.2891 17.7C13.5094 17.7188 13.8469 17.7047 14.1094 17.6719C14.3531 17.6391 14.7234 17.5641 14.9297 17.4984C15.1359 17.4328 15.4219 17.3203 15.5625 17.25C15.7031 17.1797 15.9563 17.025 16.125 16.9078C16.2938 16.7906 16.5328 16.6031 16.6594 16.4953C16.7859 16.3828 17.0156 16.1203 17.1703 15.9141C17.325 15.7078 17.5172 15.4031 17.6016 15.2344C17.6859 15.0656 17.8078 14.7609 17.8734 14.5547C17.9391 14.3484 18.0141 13.9781 18.0469 13.7344C18.0797 13.4719 18.0891 13.1344 18.075 12.9141C18.0562 12.7078 18 12.3609 17.9484 12.1406C17.8969 11.9203 17.7656 11.5547 17.6578 11.3203C17.5453 11.0906 17.3859 10.7953 17.2969 10.6641C17.2078 10.5375 16.9969 10.2844 16.8234 10.1016C16.6547 9.92344 16.3453 9.66094 16.1437 9.52031C15.9375 9.37969 15.6422 9.20156 15.4828 9.13125C15.3187 9.06094 15.0047 8.94375 14.7797 8.87812C14.4469 8.77969 14.2406 8.75156 13.7344 8.7375C13.3031 8.72812 12.9844 8.74219 12.7406 8.78906C12.5391 8.82656 12.2437 8.91094 12.0844 8.97187ZM18.8906 19.5703C21.4078 22.0781 21.7172 22.3641 21.8672 22.4109C22.0125 22.4531 22.1016 22.4578 22.2562 22.4156C22.3641 22.3828 22.5187 22.2984 22.5938 22.2188C22.6734 22.1437 22.7578 21.9891 22.7906 21.8812C22.8328 21.7266 22.8281 21.6375 22.7859 21.4922C22.7391 21.3422 22.4531 21.0328 21.3375 19.9078L19.9453 18.5156L18.8906 19.5703ZM5.30625 3.75937C6.94219 3.77344 7.03125 3.77813 7.15313 3.86719C7.21875 3.91875 7.32187 4.01719 7.37812 4.09219C7.47656 4.22344 7.47656 4.26562 7.47656 6C7.47656 7.73438 7.47656 7.77656 7.37812 7.90781C7.32187 7.97812 7.21875 8.08125 7.15313 8.13281C7.03125 8.22188 6.95156 8.22656 5.25 8.22656C3.51562 8.22656 3.47344 8.22187 3.34219 8.12812C3.27188 8.07187 3.16875 7.96875 3.11719 7.89844C3.02813 7.78125 3.02344 7.6875 3.00937 6.12656C3 5.21719 3.00938 4.40625 3.02344 4.32187C3.0375 4.2375 3.09844 4.10625 3.15469 4.02188C3.21563 3.94219 3.3375 3.84844 3.42656 3.81563C3.55312 3.76406 3.95625 3.75469 5.30625 3.75937ZM4.5 6.75H6V5.25H4.5V6.75ZM11.6812 3.75937C13.6922 3.77344 13.7812 3.77813 13.9031 3.86719C13.9688 3.91875 14.0719 4.01719 14.1281 4.09219C14.2031 4.19063 14.2266 4.29375 14.2266 4.5C14.2266 4.70625 14.2031 4.80469 14.1281 4.90781C14.0719 4.97812 13.9688 5.08125 13.9031 5.13281C13.7812 5.22188 13.6875 5.22656 11.7281 5.24063C10.4859 5.25 9.61406 5.23594 9.51562 5.20781C9.42656 5.18437 9.28125 5.08594 9.20156 4.99687C9.10781 4.89844 9.0375 4.75312 9.01875 4.65C9.00469 4.55625 9.00469 4.40625 9.01875 4.32187C9.03281 4.2375 9.09844 4.10625 9.15469 4.02188C9.21562 3.94219 9.3375 3.84844 9.42656 3.81563C9.55313 3.76406 10.0172 3.75469 11.6812 3.75937ZM5.30625 9.75937C6.94219 9.77344 7.03125 9.77812 7.15313 9.86719C7.21875 9.91875 7.32187 10.0172 7.37812 10.0922C7.47656 10.2234 7.47656 10.2656 7.47656 12C7.47656 13.7344 7.47656 13.7766 7.37812 13.9078C7.32187 13.9781 7.21875 14.0813 7.15313 14.1328C7.03125 14.2219 6.95156 14.2266 5.25 14.2266C3.51562 14.2266 3.47344 14.2219 3.34219 14.1281C3.27188 14.0719 3.16875 13.9688 3.11719 13.8984C3.02813 13.7812 3.02344 13.6875 3.00937 12.1266C3 11.2172 3.00938 10.4062 3.02344 10.3219C3.0375 10.2375 3.09844 10.1062 3.15469 10.0219C3.21563 9.94219 3.3375 9.84844 3.42656 9.81562C3.55312 9.76406 3.95625 9.75469 5.30625 9.75937ZM4.5 12.75H6V11.25H4.5V12.75ZM15.5625 11.1844C15.6516 11.1984 15.7922 11.2453 15.8672 11.2922C15.9469 11.3391 16.0547 11.4703 16.1109 11.5828C16.1719 11.6953 16.2188 11.8453 16.2188 11.9156C16.2188 11.9859 16.1906 12.1125 16.1531 12.1969C16.1203 12.2813 15.5156 12.9609 14.8125 13.7109C14.1094 14.4563 13.4719 15.1031 13.3875 15.15C13.3078 15.1922 13.1625 15.2297 13.0687 15.2297C12.9703 15.2344 12.8344 15.2109 12.7641 15.1828C12.6891 15.1547 12.2906 14.7938 11.8687 14.3766C11.4469 13.9594 11.0719 13.5563 11.0344 13.4859C11.0016 13.4156 10.9688 13.2563 10.9688 13.1344C10.9688 12.9938 11.0063 12.8578 11.0625 12.7594C11.1141 12.675 11.2266 12.5672 11.3109 12.5156C11.4047 12.4547 11.5453 12.4219 11.6859 12.4219C11.8078 12.4219 11.9531 12.4453 12.0141 12.4734C12.0703 12.5016 12.3234 12.7266 12.5719 12.975C12.8578 13.2562 13.0453 13.4109 13.0687 13.3828C13.0922 13.3547 13.4672 12.9563 13.8984 12.4922C14.3297 12.0281 14.7609 11.5687 14.8547 11.4703C14.9484 11.3719 15.1078 11.2641 15.2109 11.2266C15.3188 11.1844 15.4688 11.1656 15.5625 11.1844ZM5.30625 15.7594C6.94219 15.7734 7.03125 15.7781 7.15313 15.8672C7.21875 15.9187 7.32187 16.0172 7.37812 16.0922C7.47656 16.2234 7.47656 16.2656 7.47656 18C7.47656 19.7344 7.47656 19.7766 7.37812 19.9078C7.32187 19.9781 7.21875 20.0812 7.15313 20.1328C7.03125 20.2219 6.95156 20.2266 5.25 20.2266C3.51562 20.2266 3.47344 20.2219 3.34219 20.1281C3.27188 20.0719 3.16875 19.9688 3.11719 19.8984C3.02813 19.7812 3.02344 19.6875 3.00937 18.1266C3 17.2172 3.00938 16.4062 3.02344 16.3219C3.0375 16.2375 3.09844 16.1062 3.15469 16.0219C3.21563 15.9422 3.3375 15.8484 3.42656 15.8156C3.55312 15.7641 3.95625 15.7547 5.30625 15.7594ZM4.5 18.75H6V17.25H4.5V18.75Z" fill="#F15A2B"/>
</g>
<defs>
<clipPath id="clip0_793_54037">
<rect width="24" height="24" fill="white"/>
</clipPath>
</defs>
</svg>
