<svg width="24" height="24" viewBox="0 0 24 24" fill="none" xmlns="http://www.w3.org/2000/svg">
<g clip-path="url(#clip0_793_54049)">
<path fill-rule="evenodd" clip-rule="evenodd" d="M19.6172 1.45312L20.1562 1.58906C20.4516 1.65938 20.8734 1.80469 21.0938 1.90312C21.3141 2.00625 21.6469 2.19375 21.8391 2.32031C22.0312 2.45156 22.3359 2.7 22.5187 2.88281C22.7016 3.06094 22.95 3.34687 23.0672 3.51562C23.1891 3.68438 23.3625 3.97031 23.4516 4.14844C23.5453 4.32656 23.6766 4.63594 23.7422 4.82812C23.8078 5.02031 23.8922 5.36719 23.9297 5.60156C23.9672 5.83594 24 6.22969 24 6.48281C24 6.73125 23.9766 7.03594 23.9484 7.15781C23.9203 7.28437 23.8406 7.56094 23.7797 7.78125C23.7141 8.00156 23.5688 8.35781 23.4609 8.57812C23.3484 8.79844 23.1609 9.10781 23.0438 9.26719C22.9266 9.43125 22.6922 9.69375 22.5281 9.85312C22.3641 10.0172 22.0641 10.2656 21.8625 10.4062C21.6609 10.5469 21.3141 10.7438 21.0938 10.8422C20.8734 10.9453 20.4937 11.0813 20.25 11.1469C19.8234 11.2594 19.7391 11.2688 16.5234 11.3016L15.1875 12.6328C14.4516 13.3641 13.7813 13.9922 13.6969 14.0344C13.6172 14.0766 13.4812 14.1094 13.4062 14.1094C13.3313 14.1094 13.1812 14.0672 13.0781 14.0156C12.9531 13.9531 12.8594 13.8594 12.7969 13.7344C12.7125 13.5609 12.7031 13.4531 12.7031 11.2734L12.2719 11.1609C12.0328 11.1 11.6766 10.9828 11.4844 10.9031C11.2922 10.8188 10.95 10.6359 10.7203 10.4859C10.4953 10.3406 10.1484 10.0547 9.94219 9.85781C9.74063 9.65625 9.45 9.3 9.3 9.07031C9.15 8.84062 8.9625 8.48906 8.87812 8.29688C8.79844 8.10469 8.68125 7.75313 8.62031 7.52344C8.52656 7.16719 8.5125 6.98438 8.5125 6.375C8.5125 5.76562 8.52656 5.58281 8.62031 5.22656C8.68125 4.99219 8.79844 4.64531 8.87812 4.45312C8.9625 4.26094 9.15 3.91406 9.30469 3.67969C9.45469 3.44531 9.73594 3.09844 9.93281 2.90156C10.1297 2.70469 10.4906 2.41406 10.7344 2.25469C10.9781 2.09531 11.3484 1.90313 11.5547 1.82344C11.7609 1.74375 12.1219 1.62656 12.3516 1.57031C12.7734 1.4625 12.7828 1.4625 19.6172 1.45312ZM12.0469 3.13594C11.8781 3.20625 11.625 3.34219 11.4844 3.43594C11.3438 3.53438 11.1047 3.73125 10.95 3.88125C10.8 4.02656 10.5891 4.275 10.4859 4.42969C10.3781 4.58437 10.2375 4.84687 10.1672 5.01562C10.0969 5.18438 10.0031 5.48438 9.96563 5.68594C9.92344 5.88281 9.89062 6.19688 9.89062 6.375C9.89062 6.55781 9.92344 6.86719 9.96563 7.06875C10.0078 7.26562 10.0922 7.55625 10.1578 7.71094C10.2234 7.86562 10.35 8.10938 10.4391 8.25C10.5281 8.39062 10.7344 8.64375 10.8891 8.80781C11.0484 8.97187 11.3156 9.19688 11.4844 9.30469C11.6531 9.4125 11.9156 9.55781 12.0703 9.62344C12.225 9.68906 12.5156 9.77344 12.7172 9.81562C12.9141 9.85781 13.1859 9.89062 13.3125 9.89062C13.4531 9.89062 13.6219 9.92813 13.7344 9.98438C13.8594 10.0469 13.9531 10.1406 14.0156 10.2656C14.0953 10.425 14.1094 10.5469 14.1094 11.0766V11.6953C15.3984 10.4109 15.8437 10.0078 15.9281 9.96563C16.0547 9.9 16.3125 9.89062 17.7188 9.89062C19.0266 9.89062 19.4344 9.87656 19.725 9.81562C19.9219 9.77812 20.2125 9.69375 20.3672 9.62812C20.5219 9.56719 20.7656 9.44531 20.9062 9.36094C21.0469 9.28125 21.3422 9.03281 21.5625 8.8125C21.8625 8.5125 22.0125 8.32031 22.1578 8.03906C22.2656 7.83281 22.4016 7.50469 22.4578 7.3125C22.5516 7.02187 22.5703 6.85781 22.5703 6.375C22.5703 5.89219 22.5516 5.72813 22.4578 5.4375C22.4016 5.24531 22.2656 4.91719 22.1578 4.71094C22.0125 4.42969 21.8625 4.2375 21.5625 3.9375C21.3422 3.71719 21.0469 3.46875 20.9062 3.38906C20.7656 3.30469 20.5219 3.18281 20.3672 3.12187C20.2125 3.05625 19.9219 2.97187 19.725 2.93437C19.4109 2.86875 18.9 2.85937 16.1859 2.86406C13.5469 2.86406 12.9516 2.87813 12.6797 2.93906C12.4969 2.97656 12.2156 3.06563 12.0469 3.13594ZM3.45469 4.69219C4.97344 4.6875 5.07188 4.69219 5.25 4.78125C5.35781 4.8375 5.47031 4.94063 5.51719 5.02969C5.55937 5.10938 5.91562 6.15 6.31406 7.33594C6.70781 8.52187 7.03125 9.54844 7.03125 9.62344C7.03125 9.69375 6.98906 9.82969 6.94219 9.92813C6.89063 10.0219 6.59531 10.4812 5.72344 11.7891L5.91562 12.1406C6.01875 12.3328 6.225 12.6609 6.36563 12.8672C6.50625 13.0734 6.75469 13.4016 6.90937 13.5938C7.06875 13.7859 7.41563 14.175 7.6875 14.4562C7.95937 14.7375 8.43281 15.1781 8.74688 15.4406C9.05625 15.7031 9.50156 16.0406 9.73125 16.1906C9.96094 16.3453 10.2984 16.5516 10.8047 16.8234L11.6484 16.2609C12.1125 15.9516 12.5719 15.6562 12.6703 15.6047C12.7641 15.5578 12.9 15.5156 12.975 15.5156C13.0453 15.5156 14.0719 15.8391 15.2578 16.2328C16.4438 16.6312 17.4844 16.9875 17.5687 17.0297C17.6531 17.0766 17.7563 17.1891 17.8125 17.2969C17.9016 17.475 17.9062 17.5781 17.9062 19.0547C17.9062 20.0297 17.8875 20.7188 17.8547 20.8734C17.8266 21.0047 17.7516 21.225 17.6953 21.3516C17.6344 21.4828 17.4937 21.6891 17.3812 21.8156C17.2687 21.9422 17.0859 22.1109 16.9688 22.1859C16.8516 22.2656 16.6219 22.3781 16.4531 22.4391C16.1906 22.5328 16.0594 22.5469 15.4922 22.5469C15.1313 22.5469 14.7094 22.5234 14.5547 22.5C14.4 22.4719 14.0531 22.4203 13.7812 22.3828C13.5094 22.3406 13.0453 22.2563 12.75 22.1906C12.4547 22.1203 11.8828 21.9609 11.4844 21.8344C11.0859 21.7031 10.5281 21.4969 10.2422 21.375C9.96094 21.2531 9.50625 21.0422 9.23438 20.9062C8.9625 20.7703 8.48906 20.5078 8.17969 20.3203C7.87031 20.1328 7.42969 19.8516 7.19531 19.6875C6.96562 19.5281 6.52031 19.1906 6.21094 18.9422C5.90156 18.6938 5.36719 18.2156 5.02031 17.8828C4.67812 17.55 4.20937 17.0625 3.98906 16.8047C3.76406 16.5469 3.42188 16.125 3.22969 15.8672C3.03281 15.6094 2.71406 15.1547 2.52187 14.8594C2.32969 14.5641 2.02969 14.0672 1.86094 13.7578C1.6875 13.4484 1.425 12.9094 1.275 12.5625C1.12031 12.2156 0.909375 11.6766 0.801563 11.3672C0.689063 11.0578 0.529688 10.5328 0.445312 10.1953C0.360938 9.85781 0.24375 9.32344 0.192187 9C0.140625 8.67656 0.075 8.17031 0.046875 7.875C0.0234375 7.57969 0 7.125 0 6.86719C0 6.4875 0.01875 6.34688 0.107812 6.11719C0.16875 5.9625 0.28125 5.74219 0.360937 5.625C0.435937 5.50781 0.604688 5.325 0.73125 5.2125C0.857813 5.1 1.05469 4.96406 1.17188 4.90781C1.28906 4.85625 1.49063 4.78125 1.61719 4.75313C1.77656 4.71563 2.37188 4.69219 3.45938 4.69219H3.45469ZM1.52812 6.39375C1.45781 6.49219 1.42031 6.63281 1.41094 6.82031C1.39688 6.975 1.41562 7.3875 1.44375 7.73438C1.47656 8.08125 1.53281 8.54531 1.57031 8.76562C1.60781 8.98594 1.69219 9.38438 1.75313 9.65625C1.81875 9.92813 1.95938 10.4109 2.0625 10.7344C2.17031 11.0578 2.37188 11.5828 2.50781 11.9062C2.64844 12.2297 2.89687 12.7359 3.05625 13.0312C3.21562 13.3266 3.54844 13.875 3.79688 14.25C4.05 14.625 4.43906 15.1594 4.66406 15.4453C4.89375 15.7312 5.39531 16.2797 5.78438 16.6688C6.16875 17.0578 6.70781 17.5547 6.97969 17.775C7.25156 17.9906 7.67344 18.3141 7.91719 18.4875C8.16094 18.6656 8.5875 18.9422 8.86875 19.1063C9.14531 19.2703 9.62344 19.5328 9.93281 19.6875C10.2422 19.8422 10.6687 20.0391 10.8844 20.1281C11.0953 20.2172 11.4891 20.3625 11.7609 20.4562C12.0328 20.5453 12.5062 20.6859 12.8156 20.7656C13.125 20.8406 13.6734 20.9484 14.0344 21.0047C14.4281 21.0656 14.9625 21.1031 15.3703 21.1078C15.9937 21.1172 16.0641 21.1078 16.1906 21.0187C16.2656 20.9625 16.3688 20.8453 16.4156 20.7469C16.4859 20.5969 16.4953 20.4375 16.4859 19.35L16.4719 18.1266L13.0969 17.0016C11.3578 18.15 11.0859 18.3047 10.9406 18.3234C10.7859 18.3375 10.6594 18.3 10.2141 18.0844C9.91875 17.9437 9.50625 17.7234 9.3 17.5969C9.09375 17.4703 8.74687 17.2313 8.52656 17.0672C8.30625 16.9031 7.95937 16.6266 7.75312 16.4531C7.54687 16.275 7.11094 15.8625 6.78281 15.5297C6.45937 15.2016 6.07969 14.7937 5.93906 14.625C5.79844 14.4563 5.59219 14.1938 5.47031 14.0391C5.35312 13.8844 5.14219 13.5797 4.99687 13.3594C4.85625 13.1391 4.61719 12.7078 4.46719 12.3984C4.24688 11.9297 4.20469 11.8031 4.21875 11.6484C4.2375 11.5031 4.39219 11.2312 4.88906 10.4766L5.54062 9.49219L4.41562 6.11719C2.11406 6.09844 1.91719 6.10781 1.78594 6.17344C1.70156 6.21094 1.58437 6.31406 1.52812 6.39375ZM13.3922 5.67188C13.4719 5.67188 13.6266 5.71406 13.7297 5.76562C13.8547 5.82812 13.9484 5.92188 14.0109 6.04688C14.0625 6.15 14.1047 6.3 14.1047 6.375C14.1047 6.45469 14.0625 6.6 14.0109 6.70312C13.9484 6.82812 13.8547 6.92188 13.7297 6.98438C13.6266 7.03594 13.4812 7.07812 13.4016 7.07812C13.3266 7.07812 13.1766 7.03594 13.0734 6.98438C12.9484 6.92188 12.8547 6.82812 12.7922 6.70312C12.7406 6.6 12.6984 6.45469 12.6984 6.375C12.6984 6.3 12.7406 6.15 12.7922 6.04688C12.8531 5.92969 12.9516 5.82656 13.0641 5.76562C13.1578 5.71875 13.3078 5.67656 13.3922 5.67188ZM16.2047 5.67188C16.2844 5.67188 16.4391 5.71406 16.5422 5.76562C16.6672 5.82812 16.7609 5.92188 16.8234 6.04688C16.875 6.15 16.9172 6.3 16.9172 6.375C16.9172 6.45469 16.875 6.6 16.8234 6.70312C16.7609 6.82812 16.6672 6.92188 16.5422 6.98438C16.4391 7.03594 16.2937 7.07812 16.2141 7.07812C16.1391 7.07812 15.9891 7.03594 15.8859 6.98438C15.7609 6.92188 15.6672 6.82812 15.6047 6.70312C15.5531 6.6 15.5109 6.45469 15.5109 6.375C15.5109 6.3 15.5531 6.15 15.6047 6.04688C15.6656 5.92969 15.7641 5.82656 15.8766 5.76562C15.9703 5.71875 16.1203 5.67656 16.2047 5.67188ZM19.0172 5.67188C19.0969 5.67188 19.2516 5.71406 19.3547 5.76562C19.4797 5.82812 19.5734 5.92188 19.6359 6.04688C19.6875 6.15 19.7297 6.3 19.7297 6.375C19.7297 6.45469 19.6875 6.6 19.6359 6.70312C19.5734 6.82812 19.4797 6.92188 19.3547 6.98438C19.2516 7.03594 19.1062 7.07812 19.0266 7.07812C18.9516 7.07812 18.8016 7.03594 18.6984 6.98438C18.5734 6.92188 18.4797 6.82812 18.4172 6.70312C18.3656 6.6 18.3234 6.45469 18.3234 6.375C18.3234 6.3 18.3656 6.15 18.4172 6.04688C18.4781 5.92969 18.5766 5.82656 18.6891 5.76562C18.7828 5.71875 18.9328 5.67656 19.0172 5.67188Z" fill="#F15A2B"/>
</g>
<defs>
<clipPath id="clip0_793_54049">
<rect width="24" height="24" fill="white"/>
</clipPath>
</defs>
</svg>
