<svg width="38" height="38" viewBox="0 0 38 38" fill="none" xmlns="http://www.w3.org/2000/svg">
<g filter="url(#filter0_d_793_53836)">
<rect x="3" y="2" width="32" height="32" rx="16" fill="#36A236"/>
</g>
<path fill-rule="evenodd" clip-rule="evenodd" d="M26.5806 12.9915C26.0596 12.5242 25.2494 12.5608 24.7733 13.0774L16.9652 21.5618L13.193 17.7775C12.6951 17.2799 11.8861 17.2723 11.3831 17.7624C10.8788 18.2512 10.8711 19.0507 11.3677 19.5484L16.0897 24.2851C16.3316 24.5276 16.6592 24.6628 17.0023 24.6628C17.0099 24.6628 17.0189 24.6628 17.0266 24.6641C17.3799 24.6565 17.7127 24.5074 17.9495 24.2498L26.6676 14.7764C27.1425 14.2584 27.1041 13.4602 26.5806 12.9915Z" fill="white"/>
<defs>
<filter id="filter0_d_793_53836" x="0" y="0" width="38" height="38" filterUnits="userSpaceOnUse" color-interpolation-filters="sRGB">
<feFlood flood-opacity="0" result="BackgroundImageFix"/>
<feColorMatrix in="SourceAlpha" type="matrix" values="0 0 0 0 0 0 0 0 0 0 0 0 0 0 0 0 0 0 127 0" result="hardAlpha"/>
<feOffset dy="1"/>
<feGaussianBlur stdDeviation="1.5"/>
<feColorMatrix type="matrix" values="0 0 0 0 0 0 0 0 0 0.439216 0 0 0 0 0.85098 0 0 0 0.15 0"/>
<feBlend mode="normal" in2="BackgroundImageFix" result="effect1_dropShadow_793_53836"/>
<feBlend mode="normal" in="SourceGraphic" in2="effect1_dropShadow_793_53836" result="shape"/>
</filter>
</defs>
</svg>
