<?xml version="1.0" encoding="UTF-8"?> <svg xmlns="http://www.w3.org/2000/svg" width="120" height="120" viewBox="0 0 120 120" fill="none"><path d="M118 60.6862C118 92.3165 92.0543 117.997 60 117.997C27.9456 117.997 2 92.3165 2 60.6862C2 29.0558 27.9456 3.375 60 3.375C92.0543 3.375 118 29.0558 118 60.6862Z" fill="#131D32" stroke="#445F8A" stroke-width="4"></path><ellipse cx="60.0012" cy="60.6886" rx="48.8372" ry="48.2765" fill="#1A263A"></ellipse><path d="M41.3979 28.626C40.1282 29.1862 29.8241 38.0514 29.3846 38.9282C28.0416 41.7777 30.3857 56.3664 33.7797 66.0597C38.8585 80.6727 47.0383 92.0709 57.1715 98.6711C58.2215 99.353 59.2714 99.9132 59.5156 99.9132C60.6388 99.9132 66.3524 95.578 69.7709 92.1196C81.0517 80.7458 89.1094 61.0426 89.9396 42.7276C90.0616 39.7806 90.0372 39.5858 89.5 38.7577C89.1826 38.2706 87.7908 36.9067 86.3746 35.7133C84.9584 34.5443 82.5411 32.4985 80.9784 31.2076C79.4401 29.8925 77.853 28.6991 77.4867 28.5529C76.4856 28.1876 42.2769 28.2363 41.3979 28.626Z" fill="#0C0E29" fill-opacity="0.7"></path><path d="M44.9579 34.4949C43.9309 34.949 35.5963 42.1353 35.2408 42.8461C34.1545 45.156 36.0505 56.9819 38.7958 64.8395C42.9038 76.6851 49.5202 85.9247 57.7165 91.275C58.5657 91.8278 59.415 92.2819 59.6125 92.2819C60.521 92.2819 65.1426 88.7677 67.9076 85.9642C77.0322 76.7443 83.5497 60.7725 84.2212 45.9259C84.32 43.5371 84.3002 43.3791 83.8657 42.7079C83.609 42.313 82.4832 41.2074 81.3377 40.24C80.1922 39.2924 78.2369 37.634 76.9729 36.5876C75.7287 35.5215 74.4449 34.5541 74.1486 34.4357C73.3389 34.1395 45.6689 34.179 44.9579 34.4949Z" fill="url(#paint0_linear_677_13648)"></path><path d="M44.9579 34.4949C43.9309 34.949 35.5963 42.1353 35.2408 42.8461C34.1545 45.156 36.0505 56.9819 38.7958 64.8395C42.9038 76.6851 49.5202 85.9247 57.7165 91.275C58.5657 91.8278 59.415 92.2819 59.6125 92.2819C60.521 92.2819 65.1426 88.7677 67.9076 85.9642C77.0322 76.7443 83.5497 60.7725 84.2212 45.9259C84.32 43.5371 84.3002 43.3791 83.8657 42.7079C83.609 42.313 82.4832 41.2074 81.3377 40.24C80.1922 39.2924 78.2369 37.634 76.9729 36.5876C75.7287 35.5215 74.4449 34.5541 74.1486 34.4357C73.3389 34.1395 45.6689 34.179 44.9579 34.4949ZM78.0789 39.8057L82.582 43.5766L82.4635 46.1628C81.9895 55.9947 78.1579 68.2352 72.9044 76.7246C70.9886 79.8439 68.8951 82.45 66.2486 85.0758C63.7995 87.5041 60.2445 90.3076 59.6125 90.3076C58.9805 90.3076 55.4255 87.5041 52.9764 85.0758C47.4464 79.607 43.3186 72.6181 40.3166 63.7536C38.2033 57.4557 36.7023 49.6968 36.7023 44.9585V43.5371L41.1658 39.7859L45.6294 36.0151H59.6125H73.5956L78.0789 39.8057Z" fill="#0C0E29"></path><path d="M42.9717 41.749L39.2812 44.8904V45.8132C39.3006 48.4049 40.1121 53.8829 41.1168 57.9864C44.2276 70.7289 50.8356 81.8221 58.5256 87.2019L59.5689 87.9283L60.6123 87.2019C66.3508 83.1965 71.9347 75.3036 75.4319 66.3309C77.6926 60.4603 79.4122 52.9011 79.7793 47.0109L79.9146 44.9297L76.1855 41.7686L72.4757 38.5879H59.5689H46.6621L42.9717 41.749Z" fill="#0C0E29"></path><path fill-rule="evenodd" clip-rule="evenodd" d="M57.4329 47.2051L55.1705 44L56.5666 47.6648C56.4903 47.6978 56.4058 47.723 56.3085 47.7398C56.2677 47.747 56.2196 47.7552 56.1657 47.7644C55.4677 47.8828 53.7738 48.1703 53.6756 48.8296C53.5816 49.4626 53.9543 49.8807 54.5975 49.785C54.8325 49.7503 55.0077 49.7436 55.123 49.7649C55.3346 49.8052 55.5479 49.8516 55.7628 49.9042C55.8177 49.9177 55.8619 49.9468 55.8955 49.9916C56.0951 50.2564 56.2863 50.2934 56.5443 50.3433C56.6118 50.3564 56.6839 50.3704 56.7619 50.3895C56.8201 50.403 56.8531 50.4393 56.861 50.4987C56.9158 50.9117 56.8134 51.2437 56.5537 51.4944C56.0779 51.9534 55.4997 52.4236 54.8191 52.9049C54.7355 52.9635 54.6325 52.9876 54.5318 52.9722C54.4311 52.9569 54.3403 52.9033 54.2784 52.8226C53.6851 52.0513 53.1008 51.3142 52.5254 50.6112C52.3284 50.3705 52.0267 50.225 51.6203 50.1746C51.5421 50.1651 51.4559 50.1536 51.3641 50.1414C50.7289 50.0571 49.824 49.9369 49.4088 50.1628C49.026 50.3699 48.6353 50.6022 48.2368 50.8597C47.948 51.0478 47.9234 51.2655 48.1629 51.5129L48.44 51.8C48.6762 52.0452 48.9437 52.0872 49.2426 51.926C49.5415 51.7636 49.6658 51.5028 49.6154 51.1435C49.6075 51.0853 49.6327 51.0517 49.691 51.0427C50.1981 50.9655 50.6996 50.966 51.1955 51.0444C51.2515 51.0534 51.3007 51.0757 51.3432 51.1116C51.5201 51.2593 51.7261 51.3444 51.9612 51.3668C52.025 51.3724 52.0782 51.3993 52.1207 51.4474C52.5293 51.9053 52.7689 52.3687 52.8394 52.8377C52.9155 53.3516 53.0403 53.8749 53.2138 54.4078C53.356 54.8477 53.2614 54.9065 52.9301 54.5841C52.8991 54.554 52.8645 54.5197 52.8267 54.4822C52.3019 53.9622 51.1616 52.8321 50.7152 54.0585C50.5328 54.5634 50.2333 55.061 49.8169 55.5513C49.641 55.7573 49.7451 56.0214 49.8488 56.2848C49.9125 56.4464 49.976 56.6077 49.9747 56.7552C49.9714 57.2036 50.0318 57.7476 50.413 58.0465C50.4578 58.0812 50.5037 58.0829 50.5507 58.0515C50.7824 57.8959 50.9772 57.7012 51.135 57.4672C51.1664 57.4213 51.1815 57.3704 51.1804 57.3144C51.1737 57.0939 51.1227 56.8834 51.0276 56.683C51.0029 56.6338 50.9649 56.5996 50.9134 56.5806L50.6498 56.4866C50.5871 56.4642 50.5658 56.4211 50.5859 56.3573C50.6609 56.1143 50.6906 55.8653 50.6749 55.61C50.6716 55.5541 50.6828 55.5009 50.7085 55.4505C50.8518 55.1606 51.0108 54.9104 51.1854 54.6999C51.2211 54.6573 51.2663 54.6237 51.3174 54.6018C51.3685 54.58 51.4239 54.5704 51.4793 54.574C51.5346 54.5776 51.5882 54.5943 51.6358 54.6226C51.6834 54.6509 51.7235 54.69 51.753 54.7369C52.1862 55.4242 52.6284 56.1166 53.0795 56.814C53.2138 57.0222 53.3806 57.1829 53.5799 57.2959C53.628 57.3228 53.6566 57.3642 53.6655 57.4202C53.7226 57.7605 53.8603 58.0521 54.0786 58.295C54.5807 58.8559 54.8527 59.2505 55.1969 59.9943C55.5149 60.6817 55.8994 61.3293 56.3505 61.9371C56.4938 62.1319 56.7378 62.3899 57.0826 62.7112C57.0944 62.7221 57.1062 62.7332 57.1181 62.7443C57.6324 63.2229 58.3237 63.8663 58.0414 64.654C57.6502 65.7471 57.6099 67.4498 58.436 68.4103C58.8916 68.9398 59.3366 69.4698 59.771 70.0004C60.0788 70.3743 60.1448 70.7186 59.9691 71.0331C59.5728 71.7485 59.0584 72.5086 58.426 73.3134C58.3834 73.366 58.3297 73.4024 58.2647 73.4226C57.8332 73.5586 57.0558 74.111 57.1699 74.6484C57.2069 74.8208 57.3379 74.9154 57.5629 74.9321C57.9356 74.959 58.3297 74.9506 58.745 74.907C58.8002 74.9005 58.8508 74.873 58.8856 74.8302C58.9205 74.7875 58.937 74.733 58.9314 74.6786L58.8944 74.2622C58.8855 74.1726 58.9258 74.1301 59.0153 74.1345C59.1978 74.1424 59.3361 74.1122 59.4301 74.0439C59.495 73.998 59.5348 73.9381 59.5493 73.8642C59.8202 72.5455 60.4124 71.4154 61.3259 70.474C61.5307 70.2635 61.5335 70.0514 61.3343 69.8376C60.8305 69.2958 60.5003 68.6398 60.3435 67.8696C60.3321 67.8136 60.3373 67.7555 60.3586 67.7029C60.3798 67.6503 60.4161 67.6055 60.4628 67.5741C60.502 67.5483 60.5523 67.5483 60.6139 67.5741C60.6309 67.5815 60.6462 67.5925 60.6589 67.6064C60.6717 67.6202 60.6815 67.6367 60.6878 67.6547C60.9385 68.3722 61.2531 69.0416 61.6315 69.6629C61.7737 69.8953 61.8141 70.1691 61.8549 70.4453C61.8772 70.5962 61.8996 70.7478 61.9387 70.8938C61.9463 70.9219 61.9538 70.9497 61.9612 70.9773C62.0271 71.2205 62.0872 71.4423 62.0781 71.7048C62.049 72.5365 61.9013 73.3459 61.6348 74.1329C61.5475 74.3898 61.561 74.6467 61.5744 74.9036V74.9036C61.5792 74.9874 61.6101 75.0676 61.6628 75.1332C61.7154 75.1988 61.7872 75.2465 61.8682 75.2697C62.082 75.3312 62.3043 75.3469 62.5349 75.3167C63.1478 75.2344 63.2132 74.5577 63.0235 74.0909C63.0034 74.0405 63.0045 73.9901 63.0268 73.9398C63.1757 73.614 63.1897 73.2838 63.0688 72.9491C62.7968 72.1957 62.8511 71.4053 63.2317 70.5781C63.3358 70.352 63.3213 70.1465 63.1881 69.9618C62.7425 69.3417 62.4403 68.6778 62.2813 67.9703C62.2242 67.7151 62.2813 67.527 62.4559 67.3507C63.0201 66.7854 63.3465 66.116 63.4349 65.3425C63.4438 65.2607 63.4646 65.2579 63.497 65.3341C63.6929 65.8009 63.8273 66.299 63.9 66.8285C63.9137 66.93 63.9537 66.9959 63.998 67.0687C64.0189 67.1032 64.0407 67.1391 64.0612 67.1811C64.0892 67.2393 64.0707 67.269 64.0058 67.2701C63.9218 67.2724 63.8407 67.2998 63.7623 67.3524C63.6806 67.4084 63.689 67.4353 63.7875 67.433L63.8883 67.4297C63.9431 67.4274 63.9918 67.4442 64.0343 67.48C64.2985 67.705 64.4374 68.0101 64.4508 68.3952C64.4541 68.4948 64.4329 68.5004 64.387 68.412C64.3075 68.2586 64.2381 68.0856 64.1788 67.8931C64.1743 67.8808 64.1653 67.8752 64.1519 67.8763L64.1502 67.878C64.1301 67.8802 64.1205 67.8914 64.1217 67.9116C64.1429 68.3952 64.3495 68.7702 64.7413 69.0366C64.8465 69.1071 64.9372 69.1861 65.0133 69.2734C65.0715 69.3394 65.0603 69.3557 64.9797 69.3221C64.8857 69.2818 64.7928 69.2655 64.701 69.2734C64.6069 69.2801 64.5991 69.3092 64.6775 69.3607C64.8476 69.4715 65.0139 69.5588 65.1762 69.6226C65.3217 69.6797 65.3726 69.7726 65.329 69.9014C65.3178 69.9361 65.3307 69.9518 65.3676 69.9484C65.8143 69.9159 66.2357 70.0475 66.632 70.343C66.6488 70.3553 66.6533 70.3715 66.6454 70.3917C66.6398 70.4051 66.6348 70.4186 66.6303 70.432C66.6147 70.4846 66.6326 70.5188 66.6841 70.5344C66.7002 70.5393 66.7176 70.5446 66.7362 70.5502C67.0233 70.6366 67.5816 70.8047 67.7252 71.0113C67.7309 71.0194 67.7341 71.0289 67.7344 71.0388C67.7347 71.0487 67.7321 71.0585 67.7269 71.0669C67.7217 71.0753 67.7142 71.082 67.7052 71.0861C67.6962 71.0903 67.6862 71.0917 67.6764 71.0902C67.6261 71.0835 67.5802 71.0953 67.5388 71.1255C67.4828 71.1658 67.4889 71.1815 67.5572 71.1725C68.1987 71.0818 68.6582 71.318 68.9358 71.8811C68.9672 71.9438 69.0181 71.969 69.0886 71.9567L69.1508 71.9449C69.1723 71.9409 69.1946 71.9426 69.2155 71.95C69.2364 71.9573 69.2552 71.9701 69.27 71.9869C69.3898 72.1246 69.5526 72.2186 69.7586 72.269C69.828 72.2858 69.8431 72.264 69.804 72.2035C69.7816 72.1688 69.7552 72.1375 69.725 72.1095C69.6814 72.0703 69.6814 72.0311 69.725 71.9919C70.0844 71.6617 70.1364 71.2822 69.8812 70.8535C69.8398 70.7829 69.8594 70.7544 69.94 70.7678C69.9892 70.7757 70.0396 70.7902 70.0911 70.8115C70.1784 70.8451 70.193 70.8249 70.1347 70.751C70.0732 70.6727 70.0015 70.6072 69.9198 70.5546C69.8706 70.5232 69.8398 70.479 69.8274 70.4219C69.6987 69.8185 69.373 69.387 68.8502 69.1273C68.8446 69.1239 68.8429 69.1189 68.8451 69.1122L68.8653 69.0719C68.8686 69.064 68.8743 69.0607 68.8821 69.0618C69.2101 69.1368 69.4916 69.2661 69.7267 69.4497C69.7446 69.4631 69.7614 69.4614 69.7771 69.4446L69.8107 69.4077C69.814 69.4043 69.8146 69.4015 69.8123 69.3993C69.3132 68.8403 68.5124 68.8129 67.8141 68.789C67.7888 68.7882 67.7636 68.7873 67.7386 68.7864C67.536 68.7797 67.5169 68.7165 67.6815 68.5967C67.705 68.5799 67.7246 68.5597 67.7403 68.5362C67.7761 68.4847 67.7638 68.4663 67.7033 68.4808L67.4699 68.5345C67.4039 68.5502 67.3518 68.5301 67.3137 68.4741L67.0753 68.1282C67.0451 68.0834 67.04 68.0358 67.0602 67.9855C67.0759 67.9485 67.0876 67.9105 67.0955 67.8713C67.1078 67.803 67.0887 67.7924 67.0384 67.8394C66.9712 67.9009 66.8867 67.9312 66.7848 67.93C66.7277 67.9289 66.6975 67.8998 66.6941 67.8427L66.6757 67.4666C66.6734 67.4073 66.6975 67.3608 66.7479 67.3272L66.9863 67.1694C67.0524 67.1246 67.0456 67.1039 66.9662 67.1073C66.8867 67.1106 66.8201 67.1274 66.7663 67.1576C66.6499 67.2237 66.59 67.1901 66.5867 67.0569C66.5844 66.9483 66.5637 66.8733 66.5245 66.8319C66.4742 66.7793 66.4535 66.7893 66.4624 66.8621C66.4837 67.0211 66.4316 67.1268 66.3062 67.1795C66.2757 67.1924 66.2424 67.1976 66.2094 67.1946C66.1764 67.1917 66.1445 67.1807 66.1167 67.1627C66.0889 67.1446 66.0659 67.1201 66.0498 67.0911C66.0336 67.0621 66.0248 67.0296 66.0242 66.9964C66.0141 66.5951 65.7605 66.2878 65.4163 66.0779C65.3223 66.0208 65.2876 65.9386 65.3122 65.8311C65.3223 65.7908 65.3099 65.76 65.2752 65.7387C65.2058 65.6951 65.1829 65.6346 65.2064 65.5574C65.2601 65.3816 65.3956 65.2445 65.6128 65.146C65.6989 65.1057 65.6945 65.0895 65.5993 65.0973C65.4807 65.1051 65.3559 65.1516 65.2249 65.2367C65.1958 65.2546 65.1639 65.2585 65.1292 65.2484C65.1177 65.2453 65.1072 65.2393 65.0987 65.2309C65.0902 65.2225 65.084 65.2121 65.0807 65.2005C65.0773 65.1889 65.0769 65.1766 65.0795 65.1648C65.0821 65.1529 65.0877 65.1418 65.0956 65.1326C65.1292 65.0967 65.1409 65.0548 65.1308 65.0066C65.1196 64.9518 65.0866 64.9243 65.0318 64.9243C64.9926 64.9243 64.964 64.9081 64.9461 64.8756C64.9181 64.8253 64.9249 64.7805 64.9663 64.7413C65.0178 64.6932 65.0542 64.6344 65.0754 64.565C65.0922 64.5079 65.0715 64.4743 65.0133 64.4643C64.9327 64.4497 64.8543 64.4475 64.7782 64.4575C64.7099 64.4676 64.6943 64.4435 64.7312 64.3853L64.9814 63.9958C65.0049 63.9588 64.9948 63.9398 64.9512 63.9387C64.9209 63.9376 64.8907 63.9454 64.8605 63.9622C64.7553 64.0238 64.6428 64.0294 64.523 63.979C64.4569 63.9521 64.4558 63.9224 64.5196 63.89C64.6125 63.843 64.6903 63.7825 64.753 63.7086C64.8079 63.6437 64.795 63.6247 64.7144 63.6515C64.5498 63.7053 64.4105 63.6778 64.2963 63.5693C64.1664 63.445 64.1905 63.3694 64.3685 63.3426C64.4435 63.3314 64.5023 63.2972 64.5448 63.2401C64.5862 63.1819 64.5734 63.1629 64.5062 63.1831L64.3332 63.2334C64.2649 63.2536 64.2498 63.2334 64.2879 63.173C64.336 63.0969 64.4513 63.0476 64.6338 63.0252C64.6439 63.0236 64.6534 63.0192 64.6611 63.0125C64.6689 63.0059 64.6746 62.9972 64.6778 62.9875C64.6809 62.9777 64.6812 62.9673 64.6788 62.9574C64.6764 62.9475 64.6713 62.9384 64.664 62.9312C64.5935 62.864 64.5566 62.7834 64.5532 62.6894C64.4905 62.7095 64.4357 62.686 64.3887 62.6189C64.3842 62.6126 64.3781 62.6076 64.3711 62.6045C64.364 62.6015 64.3563 62.6004 64.3486 62.6014C64.341 62.6025 64.3338 62.6056 64.3278 62.6104C64.3219 62.6153 64.3173 62.6217 64.3148 62.6289C64.2409 62.826 64.1424 62.9256 64.0192 62.9278C63.9824 62.9283 63.9464 62.9178 63.9156 62.8976C63.8848 62.8775 63.8608 62.8486 63.8465 62.8147C63.8323 62.7808 63.8285 62.7434 63.8356 62.7073C63.8428 62.6712 63.8605 62.6381 63.8866 62.6121C64.031 62.47 64.0556 62.3228 63.9605 62.1705C63.9235 62.1112 63.8955 62.1151 63.8765 62.1823C63.8463 62.2841 63.7729 62.339 63.6565 62.3468C63.5838 62.3524 63.567 62.3244 63.6062 62.2629C63.6644 62.1744 63.7299 62.1022 63.8026 62.0463C63.8575 62.0026 63.8496 61.9797 63.7791 61.9774C63.7467 61.9763 63.7192 61.9886 63.6968 62.0144C63.6521 62.0636 63.5961 62.0905 63.5289 62.095C63.3912 62.1062 63.2961 62.0099 63.2435 61.8061C63.2345 61.7714 63.2479 61.753 63.2838 61.7507C63.417 61.7463 63.52 61.6634 63.5927 61.5022C63.6308 61.416 63.6123 61.4015 63.5373 61.4586L63.497 61.4888C63.4466 61.5268 63.3996 61.5235 63.356 61.4787C63.2563 61.3791 63.1908 61.2683 63.1595 61.1462C63.1427 61.0802 63.1158 61.0757 63.0789 61.1328C63.0386 61.1955 62.9787 61.2246 62.8992 61.2201C62.8254 61.2145 62.7543 61.1893 62.686 61.1446C62.2494 60.8602 61.8128 60.572 61.3762 60.2798C60.3385 59.5863 59.4301 58.4579 59.3797 57.1666C59.373 56.9903 59.4687 56.8912 59.6182 56.8274C59.6719 56.8039 59.6954 56.8213 59.6887 56.8795C59.6853 56.9097 59.6937 56.9371 59.7139 56.9618C59.7609 57.0211 59.7883 57.0133 59.7961 56.9383C59.7995 56.9047 59.8135 56.88 59.8381 56.8644C59.8807 56.8386 59.921 56.8414 59.959 56.8728C60.0005 56.9064 60.0374 56.9181 60.0698 56.908C60.1258 56.8912 60.1297 56.8661 60.0816 56.8325C59.9988 56.7765 59.9439 56.7021 59.9171 56.6091C59.9014 56.5554 59.9092 56.5056 59.9406 56.4597C60.0335 56.3209 60.0312 56.1765 59.9338 56.0265C59.926 56.013 59.9243 55.999 59.9288 55.9845C59.9333 55.9688 59.9406 55.9565 59.9506 55.9476C59.9786 55.9252 60.0038 55.9285 60.0262 55.9576C60.043 55.9789 60.0559 56.0035 60.0648 56.0315C60.0749 56.0629 60.0967 56.0796 60.1303 56.0819C60.2322 56.0875 60.3223 56.0489 60.4007 55.966C60.4521 55.9112 60.4421 55.8961 60.3704 55.9207C60.2652 55.9565 60.1711 55.9235 60.0883 55.8216C60.0357 55.7578 60.0503 55.7293 60.132 55.736C60.2092 55.7427 60.2814 55.7365 60.3486 55.7175C60.4325 55.6918 60.5003 55.7141 60.5518 55.7847C60.6973 55.9862 60.8506 56.1798 61.0118 56.3657C61.0264 56.3836 61.0426 56.3853 61.0606 56.3707H61.0622C61.0801 56.3561 61.0824 56.3399 61.069 56.322C60.9626 56.1843 60.8579 56.0449 60.755 55.9039C60.7202 55.8546 60.7292 55.8155 60.7818 55.7864C60.8143 55.7673 60.8518 55.755 60.8943 55.7494C60.9425 55.7427 60.9497 55.7214 60.9161 55.6856C60.8971 55.6655 60.8697 55.6554 60.8339 55.6554C60.7801 55.6554 60.7359 55.6352 60.7012 55.5949C60.5915 55.4707 60.5361 55.3403 60.535 55.2037C60.535 55.1253 60.573 55.094 60.6492 55.1096L60.7264 55.1264C60.8227 55.1455 60.873 55.2042 60.8775 55.3028C60.8786 55.3475 60.8971 55.3856 60.9329 55.4169C60.9732 55.4516 60.9906 55.4427 60.985 55.3901C60.9682 55.2233 60.9134 55.066 60.8204 54.9182C60.7757 54.8443 60.793 54.8248 60.8725 54.8595C60.9744 54.9031 61.0813 54.9429 61.1932 54.9787C61.2839 55.0078 61.2996 54.9848 61.2402 54.9098C61.182 54.8371 61.1037 54.7956 61.0051 54.7856C60.9961 54.7848 60.9873 54.7821 60.9794 54.7777C60.9714 54.7733 60.9643 54.7672 60.9587 54.7598C60.953 54.7525 60.9489 54.7439 60.9465 54.7348C60.9441 54.7257 60.9435 54.7161 60.9447 54.7067C60.9481 54.6899 60.9464 54.6753 60.9397 54.663C60.9161 54.6205 60.8809 54.6048 60.8339 54.616C60.6133 54.6697 60.4527 54.6171 60.3519 54.4581C60.315 54.3999 60.3307 54.3753 60.399 54.3843L60.8674 54.443C60.9212 54.4497 60.9318 54.4318 60.8994 54.3893C60.8557 54.33 60.807 54.2762 60.7533 54.2281C60.5104 54.0098 60.5053 53.796 60.7382 53.5867C60.8076 53.524 60.8277 53.5368 60.7986 53.6253C60.7729 53.7048 60.7337 53.7742 60.6811 53.8335C60.6575 53.8615 60.6592 53.8878 60.6861 53.9124L60.7163 53.9426C60.7197 53.9449 60.7225 53.9449 60.7247 53.9426C60.8076 53.8576 60.8938 53.7758 60.9833 53.6975C61.0124 53.6728 61.0404 53.6611 61.0673 53.6622C61.1121 53.6633 61.1439 53.6846 61.163 53.726C61.1675 53.7361 61.1675 53.7462 61.163 53.7562C61.1574 53.7697 61.1495 53.782 61.1395 53.7932C61.1316 53.801 61.1311 53.8083 61.1378 53.815C61.1411 53.8195 61.1456 53.824 61.1512 53.8285C61.1669 53.843 61.1792 53.8402 61.1882 53.8201C61.2968 53.5637 61.2106 53.379 60.9296 53.2659C60.915 53.2603 60.9077 53.2503 60.9077 53.2357V53.1837C60.9077 53.1512 60.9234 53.1394 60.9548 53.1484L61.2621 53.2357C61.3102 53.2491 61.3365 53.2816 61.341 53.3331C61.3455 53.3891 61.3628 53.44 61.393 53.4859C61.4367 53.5531 61.4574 53.5464 61.4551 53.4658C61.4507 53.2553 61.4843 53.0432 61.5559 52.8294C61.5761 52.7689 61.6164 52.7314 61.6768 52.7168C61.8324 52.6799 61.9712 52.5909 62.0932 52.4499C62.1091 52.4315 62.119 52.4087 62.1217 52.3845C62.1244 52.3602 62.1197 52.3356 62.1083 52.3138C61.9852 52.0799 61.8195 51.9478 61.6113 51.9176C61.4904 51.9008 61.4798 51.8571 61.5794 51.7866C61.7943 51.6355 61.9762 51.6914 62.1251 51.9545C62.1386 51.978 62.1565 51.9825 62.1789 51.9679H62.1806C62.2063 51.9523 62.2113 51.9316 62.1957 51.9058C62.021 51.6243 61.8173 51.5213 61.5931 51.4079C61.4896 51.3556 61.3818 51.301 61.2704 51.2258C61.0398 51.0679 61.0639 51.0013 61.3427 51.0259C61.5968 51.0483 61.8151 50.9621 61.9975 50.7673C62.1252 50.6308 62.1028 50.5983 61.9304 50.6699C61.7221 50.755 61.5514 50.7522 61.4182 50.6616C61.4099 50.6552 61.4039 50.6464 61.4012 50.6363C61.3985 50.6262 61.3993 50.6155 61.4033 50.6059C61.4073 50.5963 61.4145 50.5883 61.4235 50.5832C61.4326 50.578 61.4431 50.5761 61.4535 50.5776L61.5039 50.586C61.6024 50.6039 61.6343 50.5658 61.5996 50.4718C61.5872 50.4393 61.5665 50.4136 61.5374 50.3946C61.4837 50.361 61.482 50.3246 61.5324 50.2854C61.6052 50.2283 61.6455 50.1561 61.6533 50.0688C61.66 49.9893 61.6404 49.9821 61.5945 50.047C61.4132 50.3022 61.1882 50.3184 60.9195 50.0957C60.9072 50.0856 60.8999 50.0727 60.8977 50.0571C60.8943 50.0391 60.8966 50.0229 60.9044 50.0084C60.9201 49.9781 60.9436 49.9709 60.9749 49.9865C61.0286 50.0123 61.0773 50.0168 61.121 50C61.1747 49.9798 61.2055 49.9412 61.2134 49.8841C61.2335 49.733 61.2912 49.6003 61.3863 49.4861C61.4412 49.419 61.4255 49.3915 61.3393 49.4039C61.2721 49.4128 61.2134 49.4374 61.163 49.4777C61.107 49.5236 61.0583 49.5421 61.0169 49.5332C60.9609 49.5208 60.9531 49.4945 60.9934 49.4542L61.2301 49.2208C61.3029 49.1481 61.2878 49.1106 61.1848 49.1083L60.8137 49.0983C60.8028 49.0972 60.7923 49.0931 60.7835 49.0865C60.7454 49.0563 60.7331 49.0266 60.7465 48.9975C60.76 48.9695 60.7807 48.9494 60.8087 48.9371C61.0538 48.8251 61.2654 48.6667 61.4434 48.4619C61.4479 48.4574 61.4468 48.4518 61.44 48.4451C61.4367 48.4417 61.4344 48.4372 61.4333 48.4316C61.4266 48.4104 61.4143 48.407 61.3964 48.4216C61.1814 48.5984 60.9503 48.7613 60.7029 48.9102C60.6812 48.9231 60.6556 48.9279 60.6307 48.9236L60.3083 48.8699C60.0575 48.8285 60.0547 48.7714 60.2999 48.6986C60.3939 48.6706 60.4751 48.6208 60.5434 48.5492C60.5792 48.5122 60.5725 48.501 60.5232 48.5156C60.5031 48.5212 60.4824 48.5285 60.4611 48.5374C60.4107 48.5564 60.3615 48.5542 60.3133 48.5307C60.2742 48.5105 60.2322 48.496 60.1874 48.487C60.1426 48.477 60.1275 48.4507 60.1421 48.4081L60.2629 48.0253C60.2853 47.9536 60.2708 47.9452 60.2193 48.0001L60.0094 48.2201C59.9601 48.2715 59.9148 48.2682 59.8734 48.21C59.7335 48.0174 59.5633 47.8568 59.3629 47.7281C59.3282 47.7045 59.312 47.6721 59.3142 47.6307C59.3153 47.606 59.321 47.5831 59.331 47.5618C59.3557 47.5114 59.3473 47.4678 59.3058 47.4308C59.1429 47.285 59.0831 47.0778 59.0247 46.8754C58.9514 46.6209 58.8801 46.374 58.609 46.2655C58.5317 46.2342 58.4819 46.2594 58.4595 46.3411C58.4215 46.4844 58.3431 46.6053 58.2244 46.7038C58.1953 46.7281 58.1716 46.7583 58.1549 46.7924C58.1381 46.8265 58.1286 46.8638 58.1271 46.9019L58.122 47.0127C58.1198 47.0855 58.0823 47.1264 58.0095 47.1353L57.4329 47.2051ZM61.9186 52.4902C61.7977 52.47 61.7026 52.3805 61.6332 52.2215C61.604 52.1532 61.6231 52.1347 61.6902 52.1661C61.81 52.2221 61.908 52.287 61.9841 52.3609C61.996 52.372 62.0039 52.3868 62.0067 52.4028C62.0095 52.4189 62.007 52.4354 61.9997 52.45C61.9923 52.4645 61.9804 52.4763 61.9658 52.4835C61.9512 52.4908 61.9346 52.4931 61.9186 52.4902ZM61.2956 52.9771C61.2318 52.9939 61.1876 52.9637 61.163 52.8864C61.1462 52.8293 61.1675 52.7986 61.2268 52.7941C61.257 52.7907 61.2912 52.8053 61.3292 52.8377C61.3404 52.8474 61.3488 52.86 61.3533 52.8741C61.3579 52.8882 61.3584 52.9033 61.355 52.9177C61.3515 52.9321 61.3441 52.9452 61.3336 52.9557C61.3232 52.9662 61.31 52.9736 61.2956 52.9771ZM69.5101 70.0156C69.5291 70.0357 69.5442 70.0592 69.5554 70.0861C69.5677 70.1152 69.5817 70.1387 69.5974 70.1566C69.6545 70.2249 69.6763 70.2853 69.6629 70.338C69.6472 70.4074 69.6114 70.4202 69.5554 70.3766C69.411 70.2646 69.3595 70.1516 69.401 70.0374C69.4256 69.9713 69.462 69.9641 69.5101 70.0156ZM69.6223 71.8409C69.5921 71.8842 69.5506 71.9089 69.507 71.9096C69.4854 71.91 69.4639 71.9044 69.4437 71.8932C69.4236 71.8821 69.4052 71.8655 69.3896 71.8446C69.374 71.8236 69.3614 71.7986 69.3527 71.7711C69.344 71.7435 69.3393 71.7139 69.3388 71.6839C69.3379 71.6233 69.3543 71.565 69.3845 71.5217C69.4147 71.4784 69.4562 71.4536 69.4998 71.453C69.5214 71.4526 69.5429 71.4582 69.563 71.4693C69.5832 71.4805 69.6016 71.497 69.6172 71.518C69.6328 71.539 69.6453 71.5639 69.654 71.5915C69.6627 71.6191 69.6674 71.6487 69.6679 71.6787C69.6689 71.7393 69.6524 71.7976 69.6223 71.8409Z" fill="#F9E79D"></path><path d="M35.2695 5.64942C42.8904 2.24139 51.148 0.446138 59.5121 0.378913C67.8763 0.311689 76.1623 1.97397 83.8383 5.25907L81.927 9.62292C74.8665 6.60121 67.2448 5.0722 59.5513 5.13404C51.8577 5.19587 44.2622 6.84718 37.2523 9.98198L35.2695 5.64942Z" fill="#ECD28F"></path><path d="M60.0002 13.793L66.0422 3.448H53.9581L60.0002 13.793Z" fill="#ECD28F"></path><defs><linearGradient id="paint0_linear_677_13648" x1="59.5999" y1="92.2819" x2="59.5999" y2="34.2343" gradientUnits="userSpaceOnUse"><stop stop-color="#F9E79D"></stop><stop offset="0.525" stop-color="#EDC78F"></stop><stop offset="1" stop-color="#B68852"></stop></linearGradient></defs></svg> 