<?xml version="1.0" encoding="UTF-8"?> <svg xmlns="http://www.w3.org/2000/svg" width="120" height="121" viewBox="0 0 120 121" fill="none"><circle cx="60" cy="61" r="58" fill="#131D32" stroke="#445F8A" stroke-width="4"></circle><ellipse cx="60.0091" cy="61.0032" rx="48.8372" ry="48.8372" fill="#1A263A"></ellipse><path d="M41.3979 30.3214C40.1282 30.8816 29.8241 39.7468 29.3846 40.6236C28.0416 43.4732 30.3857 58.0618 33.7797 67.7551C38.8585 82.3682 47.0383 93.7663 57.1715 100.367C58.2215 101.048 59.2714 101.609 59.5156 101.609C60.6388 101.609 66.3524 97.2734 69.7709 93.815C81.0517 82.4412 89.1094 62.738 89.9396 44.423C90.0616 41.4761 90.0372 41.2812 89.5 40.4531C89.1826 39.966 87.7908 38.6022 86.3746 37.4088C84.9584 36.2397 82.5411 34.1939 80.9784 32.9031C79.4401 31.5879 77.853 30.3945 77.4867 30.2484C76.4856 29.8831 42.2769 29.9318 41.3979 30.3214Z" fill="#0C0E29" fill-opacity="0.7"></path><path d="M44.9581 36.1903C43.9311 36.6444 35.5965 43.8308 35.241 44.5415C34.1548 46.8514 36.0508 58.6773 38.796 66.5349C42.9041 78.3805 49.5204 87.6201 57.7167 92.9704C58.566 93.5232 59.4152 93.9773 59.6128 93.9773C60.5213 93.9773 65.1428 90.4631 67.9078 87.6596C77.0324 78.4398 83.55 62.4679 84.2215 47.6214C84.3202 45.2325 84.3005 45.0746 83.866 44.4033C83.6092 44.0084 82.4835 42.9029 81.338 41.9355C80.1925 40.9878 78.2372 39.3294 76.9732 38.2831C75.7289 37.217 74.4451 36.2496 74.1489 36.1311C73.3391 35.835 45.6691 35.8744 44.9581 36.1903Z" fill="url(#paint0_linear_677_13615)"></path><path d="M44.9581 36.1903C43.9311 36.6444 35.5965 43.8308 35.241 44.5415C34.1548 46.8514 36.0508 58.6773 38.796 66.5349C42.9041 78.3805 49.5204 87.6201 57.7167 92.9704C58.566 93.5232 59.4152 93.9773 59.6127 93.9773C60.5213 93.9773 65.1428 90.4631 67.9078 87.6596C77.0324 78.4398 83.55 62.4679 84.2215 47.6214C84.3202 45.2325 84.3005 45.0746 83.866 44.4033C83.6092 44.0085 82.4835 42.9029 81.338 41.9355C80.1925 40.9878 78.2372 39.3294 76.9732 38.2831C75.7289 37.217 74.4451 36.2496 74.1489 36.1311C73.3391 35.835 45.6691 35.8744 44.9581 36.1903ZM78.0792 41.5011L82.5822 45.272L82.4637 47.8583C81.9897 57.6902 78.1582 69.9307 72.9046 78.42C70.9889 81.5394 68.8953 84.1454 66.2488 86.7712C63.7998 89.1996 60.2448 92.003 59.6127 92.003C58.9807 92.003 55.4257 89.1996 52.9767 86.7712C47.4466 81.3025 43.3188 74.3135 40.3168 65.4491C38.2035 59.1511 36.7025 51.3922 36.7025 46.654V45.2325L41.1661 41.4814L45.6296 37.7105H59.6127H73.5959L78.0792 41.5011Z" fill="#0C0E29"></path><path d="M42.9717 43.4444L39.2812 46.5859V47.5087C39.3006 50.1004 40.1121 55.5783 41.1168 59.6818C44.2276 72.4243 50.8356 83.5176 58.5256 88.8973L59.5689 89.6238L60.6123 88.8973C66.3508 84.892 71.9347 76.9991 75.4319 68.0263C77.6926 62.1557 79.4122 54.5966 79.7793 48.7064L79.9146 46.6251L76.1855 43.4641L72.4757 40.2833H59.5689H46.6621L42.9717 43.4444Z" fill="#0C0E29"></path><path fill-rule="evenodd" clip-rule="evenodd" d="M60.3867 69.4689C66.1231 69.4689 70.7734 64.8186 70.7734 59.0822C70.7734 53.3457 66.1231 48.6954 60.3867 48.6954C54.6503 48.6954 50 53.3457 50 59.0822C50 64.8186 54.6503 69.4689 60.3867 69.4689ZM60.3857 63.4126C62.7776 63.4126 64.7167 61.4735 64.7167 59.0816C64.7167 56.6897 62.7776 54.7506 60.3857 54.7506C57.9937 54.7506 56.0547 56.6897 56.0547 59.0816C56.0547 61.4735 57.9937 63.4126 60.3857 63.4126Z" fill="url(#paint1_linear_677_13615)"></path><path fill-rule="evenodd" clip-rule="evenodd" d="M64.4519 57.5102C64.2857 56.326 63.4265 54.4208 61.4427 53.1313C58.3204 51.1016 53.2526 52.208 51.2409 55.3419C49.9336 57.3787 49.7267 59.3347 50.3557 61.6719C51.072 64.3338 52.831 67.3017 56.6869 68.7018C52.2269 65.4535 51.3099 57.1864 58.604 55.1354C59.1485 54.8887 59.753 54.7513 60.3896 54.7513C60.8783 54.7513 61.348 54.8323 61.7862 54.9815L61.8073 54.9806L61.8206 54.9933C63.0007 55.4063 63.9476 56.3156 64.411 57.4711L64.4519 57.5102Z" fill="url(#paint2_linear_677_13615)"></path><path fill-rule="evenodd" clip-rule="evenodd" d="M59.5122 0.0058895C51.148 0.0738944 42.8904 1.88999 35.2695 5.33761L37.2523 9.72049C43.0647 7.09101 49.2798 5.49331 55.6195 4.98853L59.9924 12.5625L64.3659 4.98737C70.4092 5.46694 76.3436 6.93994 81.9271 9.35726L83.8383 4.94272C76.1624 1.61948 67.8764 -0.0621154 59.5122 0.0058895Z" fill="#A0BFD9"></path><defs><linearGradient id="paint0_linear_677_13615" x1="51.6802" y1="91.8353" x2="72.9612" y2="40.2409" gradientUnits="userSpaceOnUse"><stop stop-color="#E7EDF3"></stop><stop offset="0.568218" stop-color="#85A6D8"></stop></linearGradient><linearGradient id="paint1_linear_677_13615" x1="57.0522" y1="49.462" x2="63.7979" y2="68.7023" gradientUnits="userSpaceOnUse"><stop stop-color="#DAEEF0"></stop><stop offset="0.568218" stop-color="#7E9AC4"></stop></linearGradient><linearGradient id="paint2_linear_677_13615" x1="57.1291" y1="51.9878" x2="57.1291" y2="68.7018" gradientUnits="userSpaceOnUse"><stop stop-color="#A4B9D8"></stop><stop offset="1" stop-color="#8BD2DA"></stop></linearGradient></defs></svg> 