<svg width="16" height="17" viewBox="0 0 16 17" fill="none" xmlns="http://www.w3.org/2000/svg">
<g clip-path="url(#clip0_2051_18171)">
<path d="M11.5467 4.52235C10.4154 3.51101 8.89407 3.03168 7.37473 3.20168C4.9714 3.47235 3.0054 5.40968 2.6994 7.80701C2.45073 9.76168 3.47873 11.6563 4.60873 12.6683C5.06873 13.0797 5.33273 13.7183 5.33273 14.4217C5.33273 15.5677 6.26473 16.4997 7.41073 16.4997H8.4594C9.67607 16.4997 10.6661 15.5103 10.6661 14.293C10.6661 13.6017 10.9374 12.979 11.4101 12.5857C12.6294 11.571 13.3287 10.0823 13.3287 8.50235C13.3287 6.98501 12.6787 5.53368 11.5461 4.52168L11.5467 4.52235ZM10.1307 11.049C9.66007 11.441 9.29207 11.9383 9.04207 12.4997H9.00007V9.69435C9.42807 9.46368 9.77007 9.09368 9.95807 8.64101C10.1181 8.25435 9.8014 7.83301 9.38273 7.83301H6.6174C6.1994 7.83301 5.88207 8.25501 6.04207 8.64101C6.2294 9.09368 6.57207 9.46368 7.00007 9.69435V12.4997H6.91073C6.67607 11.9957 6.35207 11.543 5.94273 11.1777C5.2274 10.537 4.5274 9.28768 4.68407 8.05968C4.87407 6.56568 6.10007 5.35768 7.59873 5.18835C7.73207 5.17368 7.86407 5.16635 7.9954 5.16635C8.81807 5.16635 9.59473 5.46035 10.2147 6.01368C10.9227 6.64635 11.3294 7.55368 11.3294 8.50235C11.3294 9.48701 10.8927 10.4143 10.1307 11.0483V11.049ZM10.9054 1.97435L11.5187 0.976346C11.8081 0.505679 12.4241 0.359013 12.8941 0.647679C13.3647 0.937013 13.5121 1.55235 13.2227 2.02301L12.6094 3.02101C12.4207 3.32835 12.0927 3.49768 11.7567 3.49768C11.5774 3.49768 11.3974 3.45035 11.2341 3.34968C10.7634 3.06035 10.6161 2.44501 10.9054 1.97435ZM15.4101 5.37035L14.4581 5.80035C14.3247 5.86101 14.1847 5.88901 14.0474 5.88901C13.6667 5.88901 13.3027 5.67035 13.1354 5.30035C12.9081 4.79701 13.1321 4.20435 13.6354 3.97768L14.5874 3.54768C15.0914 3.31901 15.6827 3.54435 15.9101 4.04768C16.1374 4.55101 15.9134 5.14368 15.4101 5.37035ZM2.72207 2.02235C2.43273 1.55168 2.58073 0.935679 3.0514 0.647679C3.52273 0.358346 4.13807 0.505679 4.42607 0.977013L5.03807 1.97501C5.3274 2.44568 5.1794 3.06168 4.70873 3.34968C4.5454 3.44968 4.36473 3.49768 4.18673 3.49768C3.85073 3.49768 3.52207 3.32835 3.33407 3.02035L2.72207 2.02235ZM2.77473 5.35101C2.60273 5.70968 2.2454 5.91901 1.87207 5.91901C1.72673 5.91901 1.58007 5.88768 1.44073 5.82101L0.569401 5.40368C0.0714008 5.16501 -0.138599 4.56768 0.100067 4.06901C0.338734 3.57035 0.937401 3.36101 1.43407 3.59968L2.3054 4.01701C2.8034 4.25501 3.0134 4.85301 2.77473 5.35101Z" fill="#212E44"/>
</g>
<defs>
<clipPath id="clip0_2051_18171">
<rect width="16" height="16" fill="white" transform="translate(0 0.5)"/>
</clipPath>
</defs>
</svg>
