<svg width="16" height="17" viewBox="0 0 16 17" fill="none" xmlns="http://www.w3.org/2000/svg">
<path d="M10.2693 8.41333L7.482 3.63533C7.11733 3.01067 6.21533 3.01067 5.85067 3.63533L3.06333 8.41333C2.696 9.04267 3.15 9.83333 3.87933 9.83333H9.45333C10.182 9.83333 10.636 9.04267 10.2693 8.41333ZM6.66667 9.16667C6.29867 9.16667 6 8.868 6 8.5C6 8.132 6.29867 7.83333 6.66667 7.83333C7.03467 7.83333 7.33333 8.132 7.33333 8.5C7.33333 8.868 7.03467 9.16667 6.66667 9.16667ZM7.33333 6.5C7.33333 6.868 7.03467 7.16667 6.66667 7.16667C6.29867 7.16667 6 6.868 6 6.5V5.16667C6 4.79867 6.29867 4.5 6.66667 4.5C7.03467 4.5 7.33333 4.79867 7.33333 5.16667V6.5ZM15.7073 14.7927L12.0273 11.1127C12.844 10.006 13.3333 8.644 13.3333 7.166C13.3333 3.49067 10.3427 0.5 6.66667 0.5C2.99067 0.5 0 3.49067 0 7.16667C0 10.8427 2.99067 13.8333 6.66667 13.8333C8.14467 13.8333 9.50667 13.344 10.6133 12.5273L14.2933 16.2073C14.4887 16.4027 14.7447 16.5 15.0007 16.5C15.2567 16.5 15.5127 16.4027 15.708 16.2073C16.0987 15.8167 16.0987 15.184 15.708 14.7933L15.7073 14.7927ZM2 7.16667C2 4.594 4.09333 2.5 6.66667 2.5C9.24 2.5 11.3333 4.594 11.3333 7.16667C11.3333 8.44267 10.818 9.59933 9.98533 10.4427C9.97733 10.45 9.96733 10.452 9.96 10.4593C9.95267 10.4667 9.95067 10.4773 9.94333 10.4847C9.1 11.3173 7.94333 11.8327 6.66733 11.8327C4.094 11.8327 2.00067 9.73867 2.00067 7.166L2 7.16667Z" fill="#4D5869"/>
</svg>
