<svg width="24" height="24" viewBox="0 0 24 24" fill="none" xmlns="http://www.w3.org/2000/svg">
<g id="free-icon-font-arrow-trend-up-8535530 1" clip-path="url(#clip0_2029_36630)">
<path id="Union" fill-rule="evenodd" clip-rule="evenodd" d="M21.546 0H13V3H18.879L0 21.879L2.121 24L21 5.121V11H24V2.454C23.9992 1.8034 23.7404 1.17968 23.2804 0.719637C22.8203 0.259595 22.1966 0.000793897 21.546 0ZM6.5 11C7.39002 11 8.26004 10.7361 9.00007 10.2416C9.74009 9.74715 10.3169 9.04434 10.6575 8.22208C10.9981 7.39981 11.0872 6.49501 10.9135 5.62209C10.7399 4.74918 10.3113 3.94736 9.68198 3.31802C9.05264 2.68868 8.25082 2.2601 7.37791 2.08647C6.50499 1.91283 5.60019 2.00195 4.77792 2.34254C3.95566 2.68314 3.25285 3.25991 2.75839 3.99993C2.26392 4.73995 2 5.60998 2 6.5C2.00132 7.69307 2.47585 8.83689 3.31948 9.68052C4.16311 10.5241 5.30693 10.9987 6.5 11ZM6.5 5C6.79667 5 7.08668 5.08797 7.33335 5.2528C7.58003 5.41762 7.77229 5.65189 7.88582 5.92597C7.99935 6.20006 8.02906 6.50166 7.97118 6.79263C7.9133 7.08361 7.77044 7.35088 7.56066 7.56066C7.35088 7.77044 7.08361 7.9133 6.79263 7.97118C6.50166 8.02906 6.20006 7.99935 5.92597 7.88582C5.65189 7.77229 5.41762 7.58003 5.2528 7.33335C5.08797 7.08668 5 6.79667 5 6.5C5 6.10218 5.15803 5.72064 5.43934 5.43934C5.72064 5.15803 6.10217 5 6.5 5ZM14.9999 13.7584C15.74 13.2639 16.61 13 17.5 13C18.6931 13.0013 19.8369 13.4759 20.6805 14.3195C21.5241 15.1631 21.9987 16.3069 22 17.5C22 18.39 21.7361 19.26 21.2416 20.0001C20.7471 20.7401 20.0443 21.3169 19.2221 21.6575C18.3998 21.9981 17.495 22.0872 16.6221 21.9135C15.7492 21.7399 14.9474 21.3113 14.318 20.682C13.6887 20.0526 13.2601 19.2508 13.0865 18.3779C12.9128 17.505 13.0019 16.6002 13.3425 15.7779C13.6831 14.9557 14.2599 14.2529 14.9999 13.7584ZM16.6666 18.7472C16.9133 18.912 17.2033 19 17.5 19C17.8978 19 18.2794 18.842 18.5607 18.5607C18.842 18.2794 19 17.8978 19 17.5C19 17.2033 18.912 16.9133 18.7472 16.6666C18.5824 16.42 18.3481 16.2277 18.074 16.1142C17.7999 16.0007 17.4983 15.9709 17.2074 16.0288C16.9164 16.0867 16.6491 16.2296 16.4393 16.4393C16.2296 16.6491 16.0867 16.9164 16.0288 17.2074C15.9709 17.4983 16.0007 17.7999 16.1142 18.074C16.2277 18.3481 16.42 18.5824 16.6666 18.7472Z" fill="#333333"/>
</g>
<defs>
<clipPath id="clip0_2029_36630">
<rect width="24" height="24" fill="white"/>
</clipPath>
</defs>
</svg>
