<svg width="24" height="24" viewBox="0 0 24 24" fill="none" xmlns="http://www.w3.org/2000/svg">
<g id="free-icon-font-team-check-alt-13794452 1" clip-path="url(#clip0_2057_21728)">
<path id="Vector" d="M2 3C2 1.343 3.343 0 5 0C6.657 0 8 1.343 8 3C8 4.657 6.657 6 5 6C3.343 6 2 4.657 2 3ZM24 18C24 21.314 21.314 24 18 24C14.686 24 12 21.314 12 18C12 14.686 14.686 12 18 12C21.314 12 24 14.686 24 18ZM21.712 16.298C21.329 15.899 20.695 15.888 20.298 16.269L17.585 18.893C17.442 19.034 17.206 19.037 17.063 18.895L15.709 17.564C15.313 17.176 14.681 17.183 14.295 17.578C13.908 17.973 13.914 18.605 14.309 18.992L15.663 20.324C16.123 20.773 16.725 20.998 17.326 20.998C17.927 20.998 18.527 20.773 18.979 20.327L21.682 17.713C22.08 17.33 22.093 16.697 21.711 16.299L21.712 16.298ZM15 6C16.657 6 18 4.657 18 3C18 1.343 16.657 0 15 0C13.343 0 12 1.343 12 3C12 4.657 13.343 6 15 6ZM7 11C7 12.654 8.346 14 10 14C11.654 14 13 12.654 13 11C13 9.346 11.654 8 10 8C8.346 8 7 9.346 7 11ZM5.953 8.126C5.747 7.324 4.932 6.834 4.126 7.048C1.735 7.663 0 9.956 0 12.5C0 13.328 0.671 14 1.5 14C2.329 14 3 13.328 3 12.5C3 11.323 3.806 10.228 4.874 9.952C5.676 9.746 6.159 8.928 5.953 8.126ZM14.048 8.126C13.841 8.929 14.324 9.746 15.127 9.953C15.512 10.052 15.878 10.264 16.184 10.565C16.476 10.854 16.857 10.998 17.238 10.998C17.625 10.998 18.012 10.849 18.306 10.552C18.888 9.962 18.881 9.013 18.292 8.431C17.609 7.757 16.774 7.279 15.876 7.047C15.072 6.84 14.255 7.324 14.048 8.126ZM8.127 15.048C5.736 15.663 4.001 17.956 4.001 20.5C4.001 21.328 4.672 22 5.501 22C6.33 22 7.001 21.328 7.001 20.5C7.001 19.323 7.807 18.228 8.875 17.952C9.677 17.746 10.16 16.928 9.954 16.126C9.748 15.324 8.931 14.837 8.127 15.048Z" fill="#333333"/>
</g>
<defs>
<clipPath id="clip0_2057_21728">
<rect width="24" height="24" fill="white"/>
</clipPath>
</defs>
</svg>
