<svg width="24" height="24" viewBox="0 0 24 24" fill="none" xmlns="http://www.w3.org/2000/svg">
<g id="file - 2024-03-21T074112.000 1" clip-path="url(#clip0_2508_1457)">
<path id="Path 0" fill-rule="evenodd" clip-rule="evenodd" d="M9.76875 0H12.0094C13.2422 0 14.25 0.0140625 14.25 0.0375C14.25 0.05625 14.3156 0.440625 14.3906 0.890625C14.4703 1.34063 14.5359 1.71094 14.5453 1.71562C14.55 1.71562 14.7563 1.77656 15 1.84688C15.2437 1.91719 15.6562 2.0625 15.9141 2.16094C16.1719 2.26406 16.6359 2.47969 17.5078 2.93906L18.1875 2.45625C18.5625 2.18906 18.8859 1.96875 18.9141 1.96875C18.9422 1.96875 19.6641 2.67188 22.0781 5.08594L21.5859 5.775C21.3141 6.15937 21.0938 6.4875 21.0938 6.51562C21.0938 6.54375 21.1734 6.70312 21.2672 6.87656C21.3656 7.05469 21.5344 7.3875 21.6422 7.61719C21.75 7.84688 21.9375 8.34375 22.0594 8.71875C22.1766 9.09375 22.2797 9.41719 22.2891 9.44531C22.2938 9.47344 22.6828 9.55313 24 9.77344V12.0141C24 13.2422 23.9859 14.25 23.9625 14.25C23.9438 14.25 23.5594 14.3156 23.1094 14.3906C22.6594 14.4703 22.2891 14.5359 22.2844 14.5453C22.2844 14.55 22.2328 14.7328 22.1719 14.9531C22.1109 15.1734 21.9844 15.5531 21.8859 15.7969C21.7922 16.0406 21.6141 16.4438 21.4922 16.6875C21.3703 16.9312 21.225 17.2172 21.0563 17.5078L21.5438 18.1875C21.8109 18.5625 22.0312 18.8859 22.0312 18.9141C22.0312 18.9422 21.3281 19.6641 18.9141 22.0781L18.2203 21.5859C17.8406 21.3141 17.5125 21.0938 17.4844 21.0938C17.4562 21.0938 17.1984 21.2203 16.9078 21.3703C16.6219 21.525 16.1672 21.7359 15.9047 21.8391C15.6375 21.9469 15.2156 22.0922 14.5078 22.2938L14.2266 24H11.9859C10.7578 24 9.75 23.9859 9.75 23.9672C9.75 23.9437 9.68437 23.5594 9.60938 23.1094C9.52969 22.6594 9.46406 22.2844 9.45469 22.2844C9.45 22.2797 9.27656 22.2281 9.07031 22.1719C8.86406 22.1156 8.45156 21.975 8.15625 21.8578C7.86094 21.7406 7.48125 21.5766 7.3125 21.4922C7.14375 21.4078 6.89531 21.2719 6.51562 21.0469L5.84531 21.525C5.47969 21.7875 5.14687 22.0078 5.10938 22.0172C5.06719 22.0266 4.42969 21.4266 1.92188 18.9141L2.95312 17.4844L2.74687 17.1234C2.62969 16.9219 2.44219 16.5469 2.32969 16.2891C2.21719 16.0312 2.05781 15.6187 1.97813 15.375C1.89844 15.1313 1.80469 14.8359 1.70156 14.5078L0 14.2266V11.9906C0 10.7578 0.0140625 9.75 0.0328125 9.75C0.05625 9.75 0.440625 9.68437 0.890625 9.60938C1.34063 9.52969 1.71562 9.46406 1.71562 9.45469C1.72031 9.45 1.77188 9.28594 1.82812 9.09375C1.88437 8.90156 1.99219 8.56406 2.07188 8.34375C2.15156 8.12344 2.29688 7.77656 2.39062 7.57031C2.48438 7.36406 2.65313 7.04063 2.95312 6.51562L2.475 5.85C2.2125 5.47969 1.99219 5.14687 1.98281 5.10938C1.97344 5.06719 2.57344 4.42969 5.08594 1.92188L6.53906 2.94375L6.82031 2.775C6.975 2.68125 7.3125 2.50781 7.57031 2.38594C7.82812 2.26875 8.29219 2.08594 8.60156 1.98281C8.91094 1.87969 9.23906 1.77656 9.49219 1.70625L9.76875 0ZM10.8375 2.15156L10.7109 2.87344C9.58594 3.15 9.08906 3.29063 8.88281 3.37031C8.67656 3.44531 8.32969 3.59063 8.10938 3.69375C7.89375 3.79219 7.49062 4.0125 7.21875 4.18125C6.95156 4.34531 6.675 4.51875 6.60938 4.56094C6.49687 4.64062 6.49219 4.64062 5.89688 4.21875C5.56875 3.98906 5.28281 3.79688 5.26406 3.79688C5.24063 3.79688 4.90312 4.12031 4.50469 4.51406C3.96562 5.04844 3.79688 5.24531 3.825 5.29688C3.84844 5.33437 4.04062 5.61563 4.25156 5.92031L4.64062 6.46875C4.44844 6.77812 4.275 7.05937 4.13437 7.28906C3.99844 7.52344 3.78281 7.93125 3.66094 8.20312C3.53437 8.475 3.37031 8.8875 3.29531 9.11719C3.21563 9.35156 3.09375 9.79219 3.02344 10.1016C2.95781 10.4109 2.88281 10.6734 2.86406 10.6875C2.84062 10.7016 2.50781 10.7625 2.11406 10.8281L1.40625 10.9453C1.40625 12.9422 1.41562 13.0359 1.49062 13.0547C1.53281 13.0641 1.87031 13.1203 2.23594 13.1813L2.90156 13.2891C2.98594 13.725 3.05156 14.0203 3.10312 14.2266C3.15469 14.4328 3.27187 14.8125 3.36094 15.0703C3.45469 15.3281 3.6375 15.7594 3.76875 16.0312C3.90469 16.3031 4.15313 16.7531 4.32656 17.0297L4.64062 17.5312C3.98906 18.4406 3.79688 18.7219 3.79688 18.7406C3.79688 18.7594 4.12031 19.0969 4.51406 19.4953C5.04844 20.0344 5.24531 20.2078 5.29688 20.175C5.33906 20.1562 5.61563 19.9641 5.92031 19.7484L6.46875 19.3594C7.39687 19.9359 7.85625 20.1938 8.08594 20.2969C8.32031 20.4047 8.7 20.5641 8.92969 20.6484C9.16406 20.7328 9.64688 20.8687 10.0078 20.9578C10.3687 21.0422 10.6781 21.1266 10.6875 21.1453C10.7016 21.1641 10.7672 21.4969 10.8281 21.8859L10.9453 22.5938C12.5625 22.5938 13.0359 22.5891 13.0359 22.5844C13.0359 22.575 13.0969 22.2469 13.1625 21.8484L13.2891 21.1312C14.5266 20.8219 15.1078 20.6438 15.375 20.5359C15.6469 20.4281 16.0359 20.25 16.2422 20.1422C16.4484 20.0297 16.8234 19.8094 17.0766 19.65L17.5312 19.3594C18.4406 20.0156 18.7219 20.2031 18.7406 20.2031C18.7594 20.2031 19.1016 19.8844 19.4953 19.4906C20.0344 18.9562 20.2078 18.7547 20.1797 18.7031C20.1562 18.6656 19.9641 18.3844 19.7484 18.0844L19.3594 17.5312C19.8797 16.7156 20.1234 16.2891 20.2406 16.0547C20.3578 15.825 20.5312 15.4125 20.6297 15.1406C20.7281 14.8687 20.8734 14.3859 20.9531 14.0625C21.0328 13.7391 21.0938 13.4391 21.0938 13.3969C21.0938 13.35 21.1312 13.3031 21.1781 13.2938C21.2203 13.2797 21.5625 13.2234 21.9281 13.1625L22.5984 13.0547C22.5938 11.4375 22.5891 10.9688 22.5844 10.9688C22.575 10.9641 22.2469 10.9078 21.8484 10.8375L21.1266 10.7109C20.9531 9.91406 20.8078 9.39375 20.6906 9.04688C20.5734 8.7 20.3625 8.19375 20.2266 7.92188C20.0859 7.65 19.8328 7.21406 19.6688 6.95156L19.3594 6.46875C20.0156 5.55937 20.2031 5.28281 20.2031 5.26406C20.2031 5.24531 19.8844 4.90312 19.4906 4.50937C18.9562 3.96562 18.7594 3.79688 18.7031 3.825C18.6656 3.84844 18.3937 4.04062 18.0938 4.25156L17.5547 4.64062C16.7953 4.16719 16.3406 3.91406 16.0547 3.77344C15.7734 3.63281 15.3422 3.44531 15.0938 3.36094C14.85 3.27187 14.3531 3.13125 13.9922 3.04688C13.6313 2.95781 13.3266 2.87344 13.3125 2.85938C13.3031 2.84063 13.2375 2.50781 13.1719 2.11406L13.0547 1.40625C11.4375 1.40625 10.9688 1.41094 10.9688 1.42031C10.9688 1.425 10.9078 1.75781 10.8375 2.15156ZM11.9062 4.22344C12.1031 4.22344 12.4828 4.24219 12.75 4.27031C13.0219 4.29844 13.4016 4.35 13.5938 4.3875C13.7906 4.42969 14.1703 4.53281 14.4375 4.62187C14.7094 4.71094 15.1406 4.88906 15.3984 5.01562C15.6562 5.14219 16.0594 5.37188 16.2891 5.52188C16.5234 5.67656 16.8891 5.95781 17.1094 6.15C17.325 6.3375 17.6625 6.67031 17.8547 6.89062C18.0422 7.11094 18.3281 7.48125 18.4781 7.71094C18.6328 7.94531 18.8625 8.34375 18.9891 8.60156C19.1156 8.85938 19.2891 9.29062 19.3781 9.5625C19.4672 9.83438 19.575 10.2234 19.6172 10.4297C19.6594 10.6359 19.7156 11.0813 19.7484 11.4141C19.7859 11.8641 19.7859 12.1781 19.7484 12.6094C19.7156 12.9328 19.6594 13.3641 19.6172 13.5703C19.575 13.7766 19.4672 14.1656 19.3781 14.4375C19.2891 14.7094 19.1156 15.1406 18.9891 15.3984C18.8625 15.6562 18.6328 16.0594 18.4781 16.2891C18.3234 16.5234 18.0422 16.8891 17.8547 17.1094C17.6625 17.325 17.3297 17.6625 17.1094 17.85C16.8937 18.0422 16.5234 18.3234 16.2891 18.4781C16.0594 18.6328 15.6562 18.8625 15.3984 18.9891C15.1406 19.1156 14.7094 19.2891 14.4375 19.3781C14.1703 19.4672 13.7766 19.575 13.5703 19.6172C13.3641 19.6594 12.9234 19.7156 12.5859 19.7438C12.1359 19.7859 11.8266 19.7859 11.3906 19.7438C11.0719 19.7156 10.6359 19.6594 10.4297 19.6172C10.2234 19.575 9.83438 19.4672 9.5625 19.3781C9.29531 19.2891 8.85938 19.1156 8.60156 18.9891C8.34375 18.8625 7.94531 18.6328 7.71094 18.4781C7.48125 18.3234 7.11094 18.0422 6.89062 17.85C6.675 17.6625 6.3375 17.325 6.15 17.1094C5.95781 16.8891 5.67656 16.5234 5.52656 16.2891C5.37188 16.0594 5.14219 15.6562 5.01562 15.3984C4.88906 15.1406 4.71094 14.7094 4.62187 14.4375C4.53281 14.1656 4.425 13.7766 4.3875 13.5703C4.34531 13.3641 4.28438 12.9328 4.25625 12.6094C4.21875 12.1781 4.21875 11.8641 4.25625 11.4141C4.28438 11.0813 4.34531 10.6359 4.3875 10.4297C4.425 10.2234 4.53281 9.83438 4.62187 9.5625C4.71094 9.29062 4.88906 8.85938 5.01562 8.60156C5.14219 8.34375 5.37188 7.94531 5.52656 7.71094C5.67656 7.48125 5.95781 7.11094 6.15 6.89531C6.3375 6.675 6.675 6.34219 6.89062 6.15C7.11094 5.95781 7.48125 5.67656 7.71094 5.52188C7.94531 5.36719 8.34375 5.14219 8.60156 5.01562C8.85938 4.88906 9.29531 4.71094 9.5625 4.62187C9.83438 4.53281 10.2234 4.425 10.4297 4.3875C10.6359 4.34531 10.9734 4.29375 11.1797 4.27031C11.3859 4.25156 11.7141 4.22813 11.9062 4.22344ZM10.2422 5.88281C10.0125 5.95312 9.675 6.07031 9.49219 6.14531C9.31406 6.22031 8.98594 6.38906 8.76562 6.52031C8.55 6.65156 8.24063 6.85781 8.09063 6.97969C7.93594 7.09687 7.66875 7.33594 7.50469 7.5C7.33594 7.66875 7.10156 7.93594 6.97969 8.08594C6.8625 8.24063 6.65625 8.54531 6.52031 8.76562C6.38906 8.98594 6.22031 9.31406 6.14531 9.49219C6.07031 9.675 5.95312 10.0125 5.88281 10.2422C5.81719 10.4766 5.72813 10.9078 5.69063 11.2031C5.63906 11.5781 5.625 11.9156 5.64375 12.3047C5.6625 12.6141 5.71406 13.0594 5.76562 13.2891C5.8125 13.5234 5.92031 13.9031 6.00469 14.1328C6.08438 14.3672 6.24844 14.7422 6.37031 14.9719C6.4875 15.1969 6.71719 15.5578 6.87188 15.7687C7.03125 15.9797 7.32656 16.3125 7.52813 16.5094C7.73438 16.7109 8.025 16.9641 8.17969 17.0812L8.46094 17.2922L8.48906 13.7109L7.03594 12.3047L7.03125 10.5938H8.4375V11.7188L9.89531 13.1016L9.91406 18.0187C10.35 18.1547 10.6453 18.225 10.8516 18.2625C11.0578 18.3 11.2453 18.3281 11.2641 18.3281C11.2828 18.3281 11.2969 16.7109 11.2969 14.7328V11.1328C10.8 10.8703 10.5891 10.7109 10.4625 10.5703C10.35 10.4438 10.1953 10.2141 10.1203 10.0688C10.0453 9.91875 9.96094 9.65625 9.93281 9.48281C9.89062 9.23906 9.89062 9.08906 9.93281 8.83594C9.96094 8.65781 10.05 8.37656 10.125 8.21719C10.2094 8.04844 10.3781 7.81406 10.5234 7.66406C10.6734 7.51875 10.9078 7.35 11.0766 7.26562C11.2359 7.19063 11.5078 7.10156 11.6719 7.07344C11.9016 7.03125 12.0609 7.03125 12.3047 7.07344C12.4875 7.10156 12.7641 7.19063 12.9281 7.26562C13.0969 7.35 13.3313 7.51875 13.4766 7.66406C13.6266 7.81406 13.7953 8.04844 13.875 8.21719C13.9547 8.37656 14.0438 8.65781 14.0719 8.83594C14.1141 9.08906 14.1141 9.23906 14.0719 9.48281C14.0438 9.65625 13.9547 9.91875 13.8844 10.0688C13.8094 10.2141 13.6547 10.4438 13.5375 10.5703C13.4156 10.7109 13.2047 10.8703 13.0172 10.9688L12.7031 11.1328C12.7031 16.7109 12.7219 18.3281 12.7406 18.3281C12.7594 18.3281 12.9422 18.3 13.1484 18.2625C13.3547 18.225 13.65 18.1547 13.8047 18.1078L14.0859 18.0187L14.1094 13.1016L15.5625 11.7188V10.5938H16.9688V12.3047L15.5109 13.7109L15.5391 17.2922C15.975 16.9641 16.2703 16.7109 16.4719 16.5094C16.6781 16.3125 16.9734 15.9797 17.1281 15.7687C17.2875 15.5578 17.5125 15.1969 17.6344 14.9719C17.7563 14.7422 17.9203 14.3672 18 14.1328C18.0844 13.9031 18.1875 13.5234 18.2391 13.2891C18.2906 13.0594 18.3422 12.6141 18.3609 12.3047C18.3797 11.9156 18.3656 11.5781 18.3141 11.2031C18.2766 10.9078 18.1875 10.4766 18.1172 10.2422C18.0516 10.0125 17.9344 9.675 17.8594 9.49219C17.7844 9.31406 17.6156 8.98594 17.4797 8.76562C17.3484 8.54531 17.1422 8.24063 17.025 8.08594C16.9031 7.93594 16.6688 7.66875 16.5 7.5C16.3312 7.33594 16.0688 7.09687 15.9141 6.97969C15.7594 6.85781 15.4547 6.65156 15.2344 6.52031C15.0188 6.38906 14.6906 6.22031 14.5078 6.14531C14.3297 6.07031 13.9922 5.95312 13.7578 5.88281C13.5281 5.81719 13.1156 5.73281 12.8438 5.69531C12.5766 5.65781 12.1734 5.62969 11.9531 5.62969C11.7375 5.63438 11.3578 5.6625 11.1094 5.7C10.8656 5.73281 10.4766 5.81719 10.2422 5.88281ZM11.3906 8.8125C11.3391 8.91562 11.2969 9.06563 11.2969 9.14062C11.2969 9.22031 11.3391 9.36563 11.3906 9.46875C11.4531 9.59375 11.5469 9.6875 11.6719 9.75C11.775 9.80156 11.925 9.84375 12 9.84375C12.0797 9.84375 12.225 9.80156 12.3281 9.75C12.4531 9.6875 12.5469 9.59375 12.6094 9.46875C12.6609 9.36563 12.7031 9.22031 12.7031 9.14062C12.7031 9.06563 12.6609 8.91562 12.6094 8.8125C12.5469 8.6875 12.4531 8.59375 12.3281 8.53125C12.225 8.47969 12.075 8.4375 11.9906 8.44219C11.9062 8.44219 11.7563 8.48438 11.6625 8.53594C11.55 8.59219 11.4516 8.69531 11.3906 8.8125Z" fill="#333333"/>
</g>
<defs>
<clipPath id="clip0_2508_1457">
<rect width="24" height="24" fill="white"/>
</clipPath>
</defs>
</svg>
