<svg width="16" height="17" viewBox="0 0 16 17" fill="none" xmlns="http://www.w3.org/2000/svg">
<path fill-rule="evenodd" clip-rule="evenodd" d="M14.364 0.5H8.66667V2.5H12.586L0 15.086L1.414 16.5L14 3.914V7.83333H16V2.136C15.9995 1.70227 15.8269 1.28645 15.5202 0.979758C15.2135 0.673063 14.7977 0.500529 14.364 0.5ZM4.33333 7.83333C4.92668 7.83333 5.5067 7.65739 6.00004 7.32774C6.49339 6.9981 6.87791 6.52956 7.10497 5.98138C7.33204 5.43321 7.39145 4.83001 7.27569 4.24806C7.15993 3.66612 6.87421 3.13157 6.45465 2.71201C6.0351 2.29246 5.50055 2.00673 4.9186 1.89098C4.33666 1.77522 3.73346 1.83463 3.18528 2.06169C2.6371 2.28876 2.16857 2.67327 1.83892 3.16662C1.50928 3.65997 1.33333 4.23999 1.33333 4.83333C1.33422 5.62871 1.65057 6.39126 2.21299 6.95368C2.77541 7.5161 3.53795 7.83245 4.33333 7.83333ZM4.33333 3.83333C4.53111 3.83333 4.72445 3.89198 4.8889 4.00186C5.05335 4.11175 5.18153 4.26792 5.25721 4.45065C5.3329 4.63338 5.3527 4.83444 5.31412 5.02842C5.27553 5.2224 5.18029 5.40059 5.04044 5.54044C4.90059 5.68029 4.7224 5.77553 4.52842 5.81412C4.33444 5.8527 4.13338 5.8329 3.95065 5.75721C3.76792 5.68153 3.61175 5.55335 3.50186 5.3889C3.39198 5.22445 3.33333 5.03111 3.33333 4.83333C3.33333 4.56812 3.43869 4.31376 3.62623 4.12623C3.81376 3.93869 4.06812 3.83333 4.33333 3.83333ZM9.99996 9.67226C10.4933 9.34261 11.0733 9.16667 11.6667 9.16667C12.462 9.16755 13.2246 9.4839 13.787 10.0463C14.3494 10.6087 14.6658 11.3713 14.6667 12.1667C14.6667 12.76 14.4907 13.34 14.1611 13.8334C13.8314 14.3267 13.3629 14.7112 12.8147 14.9383C12.2665 15.1654 11.6633 15.2248 11.0814 15.109C10.4995 14.9933 9.9649 14.7075 9.54535 14.288C9.12579 13.8684 8.84007 13.3339 8.72431 12.7519C8.60855 12.17 8.66796 11.5668 8.89503 11.0186C9.12209 10.4704 9.50661 10.0019 9.99996 9.67226ZM11.1111 12.9981C11.2755 13.108 11.4689 13.1667 11.6667 13.1667C11.9319 13.1667 12.1862 13.0613 12.3738 12.8738C12.5613 12.6862 12.6667 12.4319 12.6667 12.1667C12.6667 11.9689 12.608 11.7755 12.4981 11.6111C12.3883 11.4466 12.2321 11.3185 12.0493 11.2428C11.8666 11.1671 11.6656 11.1473 11.4716 11.1859C11.2776 11.2245 11.0994 11.3197 10.9596 11.4596C10.8197 11.5994 10.7245 11.7776 10.6859 11.9716C10.6473 12.1656 10.6671 12.3666 10.7428 12.5493C10.8185 12.7321 10.9466 12.8883 11.1111 12.9981Z" fill="#374357"/>
</svg>
