<svg width="16" height="17" viewBox="0 0 16 17" fill="none" xmlns="http://www.w3.org/2000/svg">
<path d="M5.66667 3.16667V1.83333C5.66667 1.09667 6.26333 0.5 7 0.5H9C9.73667 0.5 10.3333 1.09667 10.3333 1.83333V3.16667C10.3333 3.90333 9.73667 4.5 9 4.5H7C6.26333 4.5 5.66667 3.90333 5.66667 3.16667ZM3.33333 12.5H1.33333C0.596667 12.5 0 13.0967 0 13.8333V15.1667C0 15.9033 0.596667 16.5 1.33333 16.5H3.33333C4.07 16.5 4.66667 15.9033 4.66667 15.1667V13.8333C4.66667 13.0967 4.07 12.5 3.33333 12.5ZM9 12.5H7C6.26333 12.5 5.66667 13.0967 5.66667 13.8333V15.1667C5.66667 15.9033 6.26333 16.5 7 16.5H9C9.73667 16.5 10.3333 15.9033 10.3333 15.1667V13.8333C10.3333 13.0967 9.73667 12.5 9 12.5ZM14.6667 12.5H12.6667C11.93 12.5 11.3333 13.0967 11.3333 13.8333V15.1667C11.3333 15.9033 11.93 16.5 12.6667 16.5H14.6667C15.4033 16.5 16 15.9033 16 15.1667V13.8333C16 13.0967 15.4033 12.5 14.6667 12.5ZM3.33333 9.5H7V11.1667H9V9.5H12.6667V11.1667H14.6667V9.5C14.6667 8.39733 13.7693 7.5 12.6667 7.5H9V5.83333H7V7.5H3.33333C2.23067 7.5 1.33333 8.39733 1.33333 9.5V11.1667H3.33333V9.5Z" fill="#374357"/>
</svg>
