<svg width="40" height="40" viewBox="0 0 40 40" fill="none" xmlns="http://www.w3.org/2000/svg">
<path d="M7.62581 0.369439C6.44895 1.08943 6.07888 2.62942 6.80234 3.80607L8.33259 6.30104C8.80267 7.07103 9.62448 7.49436 10.4646 7.49436C10.9097 7.49436 11.3614 7.37437 11.7698 7.12437C12.9467 6.40438 13.3168 4.86439 12.5933 3.68774L11.0631 1.19276C10.3429 0.0144426 8.80434 -0.353887 7.62581 0.369439Z" fill="#FFB92B"/>
<path d="M4.67698 13.5476C5.61047 13.5476 6.50396 13.0243 6.93403 12.1276C7.53079 10.8827 7.0057 9.38768 5.7605 8.79268L3.5818 7.74936C2.33993 7.1527 0.843009 7.67603 0.246243 8.92268C-0.350524 10.1693 0.174564 11.6627 1.41977 12.2593L3.59847 13.3026C3.94686 13.4693 4.31359 13.5476 4.67698 13.5476Z" fill="#FFB92B"/>
<path d="M28.8681 10.0557C26.0393 7.52737 22.2353 6.32905 18.4364 6.75404C12.427 7.4307 7.51122 12.274 6.74609 18.2673C6.12432 23.1539 8.69475 27.8905 11.5202 30.4205C12.6704 31.4488 13.3305 33.0454 13.3305 34.8037C13.3305 37.6687 15.6609 39.9987 18.5264 39.9987H21.1485C24.1907 39.9987 26.6661 37.5254 26.6661 34.4821C26.6661 32.7538 27.3445 31.1971 28.5264 30.2138C31.5752 27.6772 33.3239 23.9555 33.3239 20.0056C33.3239 16.2123 31.6986 12.584 28.8665 10.054L28.8681 10.0557ZM25.3275 26.3722C24.1507 27.3522 23.2305 28.5955 22.6054 29.9988H22.5004V22.9855C23.5706 22.4089 24.4257 21.4839 24.8958 20.3522C25.2959 19.3856 24.5041 18.3323 23.4572 18.3323H16.5427C15.4976 18.3323 14.7041 19.3872 15.1042 20.3522C15.5726 21.4839 16.4294 22.4089 17.4996 22.9855V29.9988H17.2762C16.6894 28.7388 15.8793 27.6072 14.8558 26.6938C13.0671 25.0922 11.3169 21.9689 11.7086 18.8989C12.1837 15.164 15.2492 12.144 18.9965 11.7207C19.3299 11.684 19.6599 11.6657 19.9883 11.6657C22.0453 11.6657 23.9873 12.4007 25.5376 13.784C27.3079 15.3656 28.3247 17.6339 28.3247 20.0056C28.3247 22.4672 27.2328 24.7855 25.3275 26.3705V26.3722Z" fill="#F65A03"/>
<path d="M28.7987 1.1914L27.2651 3.68638C26.5416 4.86303 26.91 6.40135 28.0869 7.12467C28.4953 7.37634 28.9454 7.49467 29.3938 7.49467C30.2339 7.49467 31.054 7.07134 31.5258 6.30302L33.0594 3.80804C33.7828 2.63139 33.4144 1.09307 32.2376 0.369745C31.0624 -0.351914 29.5221 0.0147488 28.7987 1.1914Z" fill="#FFB92B"/>
<path d="M36.1482 13.2513L38.5286 12.1763C39.7872 11.6096 40.3473 10.128 39.7788 8.86966C39.2104 7.61134 37.7318 7.04801 36.4716 7.61967L34.0912 8.69466C32.8327 9.26132 32.2726 10.743 32.841 12.0013C33.2594 12.9263 34.1696 13.4729 35.1214 13.4729C35.4648 13.4729 35.8148 13.4029 36.1482 13.2513Z" fill="#FFB92B"/>
</svg>
