<svg width="40" height="40" viewBox="0 0 40 40" fill="none" xmlns="http://www.w3.org/2000/svg">
<path d="M31.9163 -0.00195312H8.07867C3.61515 -0.00195312 0 3.61335 0 8.07872V31.9224C0 36.3827 3.61515 39.998 8.07867 39.998H31.9213C36.3815 39.998 40 36.3827 40 31.919V8.07872C39.9967 3.61335 36.3815 -0.00195312 31.9163 -0.00195312ZM11.0588 31.6674C10.5588 32.5424 9.44373 32.8374 8.56869 32.3374C7.69365 31.8374 7.39864 30.7223 7.89866 29.8472L9.19872 27.597C10.6688 27.142 11.8622 27.492 12.8089 28.6321L11.0588 31.6674ZM23.6977 26.7586H7.1503C6.14026 26.7586 5.33022 25.9485 5.33022 24.9385C5.33022 23.9284 6.14026 23.1183 7.1503 23.1183H11.7888L17.7291 12.8241L15.874 9.60385C15.374 8.72877 15.669 7.62368 16.544 7.11364C17.4191 6.6136 18.5241 6.90862 19.0341 7.7837L19.8292 9.18881L20.6392 7.7887C21.1392 6.91362 22.2543 6.6186 23.1293 7.11864C24.0043 7.61868 24.2993 8.73377 23.7993 9.60718L15.9957 23.1166H21.6409C23.4676 23.1183 24.4927 25.2685 23.6977 26.7586ZM32.613 26.7686H29.9829L31.758 29.8472C32.258 30.7223 31.963 31.8274 31.088 32.3374C30.2129 32.8374 29.1079 32.5424 28.5979 31.6674C25.6094 26.4819 23.3626 22.6033 21.8742 20.018C20.3492 17.3878 21.4392 14.7476 22.5143 13.8525C23.7093 15.9027 25.4944 18.998 27.8778 23.1283H32.613C33.6231 23.1283 34.4331 23.9384 34.4331 24.9485C34.4314 25.9585 33.6231 26.7686 32.613 26.7686Z" fill="#F65A03"/>
</svg>
