<svg width="24" height="24" viewBox="0 0 24 24" fill="none" xmlns="http://www.w3.org/2000/svg">
<g id="Frame 9675" clip-path="url(#clip0_2029_35922)">
<path id="Vector" d="M20.123 0.299L13 2.199V0H11V2.732L3.741 4.668L0 14.822V15.5C0 17.981 2.019 20 4.5 20C6.981 20 9 17.981 9 15.5V14.822L5.817 6.184L11 4.802V22H4V24H20V22H13V4.268L17.896 2.963L15 10.822V11.5C15 13.981 17.019 16 19.5 16C21.981 16 24 13.981 24 11.5V10.822L20.123 0.299ZM6.566 14H2.434L4.5 8.393L6.566 14ZM19.5 4.393L21.566 10H17.434L19.5 4.393Z" fill="#333333"/>
</g>
<defs>
<clipPath id="clip0_2029_35922">
<rect width="24" height="24" fill="white"/>
</clipPath>
</defs>
</svg>
