<svg width="16" height="17" viewBox="0 0 16 17" fill="none" xmlns="http://www.w3.org/2000/svg">
<g clip-path="url(#clip0_2051_18175)">
<path d="M14 4.5H9.99998C9.63132 4.5 9.33332 4.798 9.33332 5.16667C9.33332 5.53533 9.63132 5.83333 9.99998 5.83333H13.724L9.34932 10.208C8.97332 10.584 8.36132 10.584 7.98465 10.208L6.29198 8.51533C5.39598 7.61933 3.93798 7.61933 3.04198 8.51533L0.195317 11.362C-0.0653498 11.6227 -0.0653498 12.044 0.195317 12.3047C0.325317 12.4347 0.495984 12.5 0.66665 12.5C0.837317 12.5 1.00798 12.4347 1.13798 12.3047L3.98465 9.458C4.34932 9.09333 4.98465 9.09333 5.34932 9.458L7.04198 11.1507C7.93798 12.0467 9.39598 12.0467 10.292 11.1507L14.6673 6.776V10.5C14.6673 10.8687 14.9653 11.1667 15.334 11.1667C15.7027 11.1667 16.0007 10.8687 16.0007 10.5V6.5C16.0007 5.39733 15.1027 4.5 14 4.5Z" fill="#374357"/>
</g>
<defs>
<clipPath id="clip0_2051_18175">
<rect width="16" height="16" fill="white" transform="translate(0 0.5)"/>
</clipPath>
</defs>
</svg>
