<svg width="16" height="17" viewBox="0 0 16 17" fill="none" xmlns="http://www.w3.org/2000/svg">
<g clip-path="url(#clip0_2051_18179)">
<path d="M5.33401 13.8318H10.6673V14.0385C10.6673 15.3951 9.56401 16.4985 8.20734 16.4985H7.79467C6.43801 16.4985 5.33467 15.3951 5.33467 14.0385L5.33401 13.8318ZM14.0007 6.49846C14.0007 8.22513 13.2553 9.86846 11.9553 11.0071C11.4627 11.4391 11.1053 11.9491 10.8927 12.4985H5.04267C4.80401 11.9138 4.42534 11.3638 3.91267 10.8871C2.48001 9.55313 1.80134 7.66713 2.05067 5.71313C2.39401 3.01979 4.60334 0.843126 7.30467 0.537793C9.01601 0.345126 10.7247 0.885793 11.9967 2.02246C13.27 3.16046 14.0007 4.79179 14.0007 6.49846ZM10.6667 7.83313C10.6667 6.92646 10.0173 6.15979 9.12334 6.01113L7.09601 5.67313C6.84734 5.63179 6.66667 5.41846 6.66667 5.16646C6.66667 4.79913 6.96534 4.49979 7.33334 4.49979H8.84534C9.08267 4.49979 9.30401 4.62779 9.42334 4.83313C9.60667 5.15179 10.014 5.26113 10.334 5.07646C10.6527 4.89179 10.762 4.48446 10.5767 4.16579C10.2207 3.54913 9.55667 3.16579 8.84467 3.16579H8.66601V2.49913C8.66601 2.13113 8.36801 1.83246 7.99934 1.83246C7.63067 1.83246 7.33267 2.13113 7.33267 2.49913V3.16579C6.23001 3.16579 5.33267 4.06313 5.33267 5.16579C5.33267 6.07246 5.98201 6.83913 6.87601 6.98779L8.90334 7.32579C9.15201 7.36713 9.33267 7.58046 9.33267 7.83246C9.33267 8.19979 9.03401 8.49913 8.66601 8.49913H7.15401C6.91667 8.49913 6.69534 8.37113 6.57601 8.16579C6.39201 7.84646 5.98467 7.73646 5.66534 7.92246C5.34667 8.10713 5.23734 8.51446 5.42267 8.83313C5.77867 9.44979 6.44267 9.83246 7.15467 9.83246H7.33334V10.4991C7.33334 10.8671 7.63134 11.1658 8.00001 11.1658C8.36867 11.1658 8.66667 10.8671 8.66667 10.4991V9.83246C9.76934 9.83246 10.6667 8.93513 10.6667 7.83246V7.83313Z" fill="#374357"/>
</g>
<defs>
<clipPath id="clip0_2051_18179">
<rect width="16" height="16" fill="white" transform="translate(0 0.5)"/>
</clipPath>
</defs>
</svg>
