<svg width="16" height="17" viewBox="0 0 16 17" fill="none" xmlns="http://www.w3.org/2000/svg">
<g clip-path="url(#clip0_2051_18196)">
<path d="M5.35067 8.5C7.55667 8.5 9.35067 6.706 9.35067 4.5C9.35067 2.294 7.556 0.5 5.35067 0.5C3.14533 0.5 1.35067 2.294 1.35067 4.5C1.35067 6.706 3.14467 8.5 5.35067 8.5ZM5.35067 2.5C6.45333 2.5 7.35067 3.39733 7.35067 4.5C7.35067 5.60267 6.45333 6.5 5.35067 6.5C4.248 6.5 3.35067 5.60267 3.35067 4.5C3.35067 3.39733 4.248 2.5 5.35067 2.5ZM3.35067 9.83333H6.66667V11.8333H3.35067C2.61533 11.8333 2.01733 12.4313 2.01733 13.1667V16.5H0.017334V13.1667C0.017334 11.3287 1.51267 9.83333 3.35067 9.83333ZM16 11.8333L13.964 13.222L14.8113 15.8767L14.266 16.2573L12.0113 14.6987L9.79067 16.2573L9.266 15.862L10.0533 13.1807L8.00067 11.8367V11.166H10.8007L11.6573 8.25733H12.3633L13.2187 11.166H16.0013V11.8327L16 11.8333Z" fill="#374357"/>
</g>
<defs>
<clipPath id="clip0_2051_18196">
<rect width="16" height="16" fill="white" transform="translate(0 0.5)"/>
</clipPath>
</defs>
</svg>
