<svg width="16" height="17" viewBox="0 0 16 17" fill="none" xmlns="http://www.w3.org/2000/svg">
<path d="M2.66733 5.00757C2.66733 3.55427 3.83228 2.15897 5.13527 1.84697C4.76318 1.50765 4.33441 1.00966 4.33441 0.500333H7.00174C7.00174 1.00966 6.5723 1.50698 6.20087 1.84697C7.50386 2.15897 8.66882 3.55427 8.66882 5.00757C8.66882 5.83222 7.99732 6.50088 7.16845 6.50088H4.1677C3.33883 6.50088 2.66733 5.83222 2.66733 5.00757ZM15.3478 10.1455L9.78976 16.5H2.33391C1.04693 16.5 0 15.4534 0 14.1667V10.1668C0 8.88016 1.04693 7.83351 2.33391 7.83351H8.24071C8.86887 7.83351 9.44234 8.07351 9.87378 8.46617L11.4995 6.6802C11.965 6.16822 12.6025 5.86889 13.2933 5.83689C13.9821 5.80556 14.6463 6.04288 15.1584 6.50888C16.202 7.46019 16.2867 9.09149 15.3471 10.1455H15.3478ZM13.8114 7.98684C13.6961 7.88151 13.5414 7.82751 13.3873 7.83418C13.2299 7.84151 13.0852 7.90951 12.9792 8.02618L10.6473 10.5881C10.5019 11.6454 9.66306 12.5114 8.58346 12.6654L5.14261 13.1567L4.85987 11.1761L8.30139 10.6848C8.51078 10.6555 8.66882 10.4735 8.66882 10.2615C8.66882 10.0255 8.47677 9.83281 8.24071 9.83281H2.33391C2.14987 9.83281 2.0005 9.9828 2.0005 10.1661V14.166C2.0005 14.3494 2.14987 14.4994 2.33391 14.4994H8.88154L13.8474 8.82083C14.0675 8.5735 14.0488 8.20217 13.8108 7.98618L13.8114 7.98684ZM10.6693 5.62689C11.2235 5.08224 11.9136 4.72091 12.6698 4.57558V3.18028H14.3262L12.221 0.746995C11.9256 0.417668 11.4095 0.417668 11.1141 0.746995L8.99156 3.18028H10.6693V5.62689Z" fill="#374357"/>
</svg>
