<svg width="17" height="17" viewBox="0 0 17 17" fill="none" xmlns="http://www.w3.org/2000/svg">
<path fill-rule="evenodd" clip-rule="evenodd" d="M13.0707 4.37249C13.6341 4.35995 14.1793 4.57602 14.5865 4.97324C14.8407 5.23113 15.023 5.55343 15.1146 5.907C15.2063 6.26057 15.2039 6.63264 15.1078 6.98497L14.3869 9.65882C14.2023 10.344 13.8023 10.9483 13.2484 11.3792C12.6944 11.8101 12.0172 12.0437 11.3206 12.0441H5.46448C4.9927 12.044 4.53738 11.8672 4.18499 11.5473C3.8326 11.2273 3.60768 10.7865 3.55294 10.3086L2.68511 3.36928C2.68068 3.32122 2.65895 3.27653 2.62413 3.24383C2.5893 3.21114 2.54383 3.19276 2.4965 3.19225H2.15689C1.92673 3.19225 1.70599 3.09899 1.54324 2.93298C1.38049 2.76698 1.28906 2.54183 1.28906 2.30706C1.28906 2.07229 1.38049 1.84714 1.54324 1.68114C1.70599 1.51514 1.92673 1.42188 2.15689 1.42188H2.4965C2.96798 1.42203 3.42301 1.59863 3.77534 1.91819C4.12766 2.23775 4.35279 2.67807 4.40804 3.15566L4.5602 4.37249H13.0707ZM12.1968 9.97096C12.4486 9.77523 12.6308 9.50086 12.7155 9.18968L13.4387 6.51582C13.4505 6.47186 13.4521 6.42571 13.4435 6.38099C13.4349 6.33626 13.4162 6.29419 13.389 6.25805C13.3617 6.22192 13.3267 6.19272 13.2865 6.17273C13.2463 6.15275 13.2022 6.14253 13.1575 6.14287H4.78179L5.27645 10.0967C5.28062 10.1448 5.30218 10.1895 5.33695 10.2223C5.37171 10.255 5.41717 10.2733 5.46448 10.2737H11.3206C11.6372 10.273 11.9449 10.1667 12.1968 9.97096Z" fill="#F15A2B"/>
<path d="M5.33897 15.5849C5.97802 15.5849 6.49607 15.0564 6.49607 14.4046C6.49607 13.7528 5.97802 13.2244 5.33897 13.2244C4.69992 13.2244 4.18186 13.7528 4.18186 14.4046C4.18186 15.0564 4.69992 15.5849 5.33897 15.5849Z" fill="#F15A2B"/>
<path d="M11.1245 15.5849C11.7635 15.5849 12.2816 15.0564 12.2816 14.4046C12.2816 13.7528 11.7635 13.2244 11.1245 13.2244C10.4854 13.2244 9.96735 13.7528 9.96735 14.4046C9.96735 15.0564 10.4854 15.5849 11.1245 15.5849Z" fill="#F15A2B"/>
</svg>
