<svg width="20" height="20" viewBox="0 0 20 20" fill="none" xmlns="http://www.w3.org/2000/svg">
<g clip-path="url(#clip0_793_53048)">
<path fill-rule="evenodd" clip-rule="evenodd" d="M9.94165 0.00446418C10.551 0.000557931 10.844 0.0161829 11.2698 0.0825892C11.5706 0.125558 11.9651 0.19587 12.1487 0.234933C12.3323 0.277902 12.6409 0.356027 12.8323 0.410714C13.0237 0.469308 13.387 0.594308 13.6331 0.688058C13.8792 0.785714 14.2854 0.969308 14.5315 1.09431C14.7776 1.22321 15.1917 1.4615 15.4495 1.63337C15.7073 1.80134 16.0588 2.05134 16.2307 2.18806C16.4026 2.32478 16.7737 2.66462 17.0549 2.94587C17.3362 3.22712 17.6682 3.5904 17.7971 3.75056C17.9221 3.91071 18.176 4.26228 18.3557 4.53181C18.5354 4.80134 18.8088 5.28571 18.9651 5.60603C19.1252 5.93025 19.3167 6.36775 19.3948 6.58259C19.4768 6.79743 19.6057 7.23884 19.6877 7.55915C19.7698 7.88337 19.8752 8.41853 19.9221 8.75056C19.9924 9.26228 20.0042 9.48103 19.9885 10.1568C19.9807 10.6373 19.9456 11.1373 19.9065 11.4068C19.8674 11.6529 19.7698 12.1217 19.6877 12.442C19.6057 12.7662 19.4768 13.2037 19.3948 13.4185C19.3167 13.6334 19.1252 14.0748 18.9651 14.3951C18.8088 14.7193 18.5315 15.1998 18.3518 15.4693C18.1721 15.7388 17.9221 16.0904 17.7971 16.2506C17.6682 16.4107 17.3245 16.7818 17.0354 17.0709C16.7424 17.3638 16.3557 17.7154 16.1721 17.8599C15.9885 18.0006 15.6643 18.231 15.4495 18.3717C15.2346 18.5123 14.8401 18.7427 14.5706 18.8834C14.301 19.0201 13.8792 19.2154 13.6331 19.3131C13.387 19.4068 13.0237 19.5318 12.8323 19.5904C12.6409 19.6451 12.3323 19.7232 12.1487 19.7662C11.9651 19.8052 11.5706 19.8756 11.2698 19.9185C10.8674 19.981 10.5315 20.0006 10.0002 20.0006C9.4729 20.0006 9.12525 19.9771 8.71118 19.9185C8.39868 19.8717 7.87915 19.7701 7.55884 19.6881C7.23462 19.606 6.79712 19.4771 6.58228 19.3951C6.36743 19.317 5.92603 19.1256 5.60571 18.9654C5.28149 18.8092 4.80103 18.5357 4.53149 18.356C4.26196 18.1763 3.9104 17.9224 3.75024 17.7974C3.59009 17.6685 3.22681 17.3365 2.94556 17.0552C2.66431 16.774 2.33228 16.4107 2.20337 16.2506C2.07837 16.0904 1.82446 15.7388 1.64478 15.4693C1.46509 15.1998 1.19165 14.7193 1.0354 14.3951C0.875244 14.0748 0.683838 13.6334 0.605713 13.4185C0.523682 13.2037 0.394775 12.7662 0.312744 12.442C0.230713 12.1217 0.125244 11.5826 0.0783691 11.2506C0.00805664 10.7388 -0.00366211 10.5201 0.0119629 9.84431C0.0197754 9.35993 0.0549316 8.86384 0.0979004 8.59431C0.133057 8.34821 0.230713 7.88337 0.312744 7.55915C0.394775 7.23884 0.523682 6.79743 0.605713 6.58259C0.683838 6.36775 0.879151 5.93025 1.0354 5.60603C1.19165 5.28571 1.44946 4.82868 1.60181 4.5904C1.75806 4.35603 2.00024 4.01228 2.14478 3.82868C2.2854 3.64509 2.63696 3.25837 2.92993 2.9654C3.21899 2.67634 3.59009 2.33259 3.75024 2.20368C3.9104 2.07868 4.26196 1.82868 4.53149 1.649C4.80103 1.46931 5.28149 1.19196 5.60571 1.03571C5.92603 0.875558 6.36743 0.684152 6.58228 0.606027C6.79712 0.523995 7.24634 0.391183 7.57837 0.309152C7.9104 0.22712 8.40259 0.125558 8.67212 0.0825892C9.01196 0.0318079 9.39868 0.00837043 9.94165 0.00446418ZM8.24243 1.35212C7.9729 1.40681 7.50806 1.53181 7.20728 1.63337C6.90649 1.73103 6.40649 1.94196 6.09399 2.09431C5.78149 2.25056 5.3479 2.49665 5.12915 2.64509C4.91431 2.78962 4.56274 3.05525 4.3479 3.22712C4.13696 3.4029 3.82837 3.68806 3.6604 3.86384C3.49634 4.03962 3.37134 4.19196 3.38306 4.2115C3.39478 4.22712 3.57446 4.2779 3.78149 4.32868C3.99243 4.37946 4.26196 4.47321 4.39087 4.54353C4.51587 4.61384 4.71118 4.76618 4.82446 4.88337C4.93774 5.00056 5.08618 5.2115 5.15259 5.35212C5.21899 5.49274 5.29321 5.7115 5.31665 5.8404C5.34009 5.97321 5.3479 6.17634 5.33228 6.30915C5.31665 6.43806 5.24634 6.69587 5.17212 6.88728C5.07837 7.12556 5.04712 7.25837 5.06274 7.3365C5.07837 7.39509 5.11353 7.48884 5.14087 7.55134C5.17603 7.61775 5.42603 7.81306 5.84009 8.0865C6.19556 8.32478 6.49243 8.51228 6.50415 8.50837C6.51196 8.50056 6.53931 8.37165 6.55884 8.22321C6.58228 8.07478 6.63696 7.84431 6.67993 7.7154C6.72681 7.5865 6.81665 7.38337 6.88306 7.26618C6.95337 7.149 7.12915 6.92634 7.28149 6.77399C7.43384 6.62165 7.64478 6.44978 7.75415 6.38728C7.86353 6.32478 8.00025 6.23103 8.05884 6.17634C8.11743 6.12165 8.18384 6.01228 8.20337 5.93806C8.22681 5.86384 8.24243 5.65681 8.24243 5.48103C8.24243 5.30134 8.26196 5.06306 8.2854 4.95368C8.31275 4.8404 8.37525 4.649 8.42993 4.53181C8.48853 4.40681 8.63306 4.2154 8.76978 4.08259C8.90259 3.94587 9.094 3.80134 9.219 3.74275C9.33618 3.68806 9.52759 3.62556 9.64087 3.59821C9.75025 3.57478 10.0627 3.55525 10.3323 3.55525C10.7151 3.55525 10.8518 3.53962 10.9612 3.48884C11.0432 3.44978 11.1409 3.36775 11.1838 3.30134C11.2268 3.23493 11.2737 3.12165 11.2815 3.04743C11.2932 2.94978 11.2229 2.68025 11.0237 2.07087L10.7424 1.23103C10.5159 1.18806 10.219 1.17634 9.94165 1.17634C9.6604 1.18025 9.27368 1.19978 9.08228 1.21931C8.89087 1.23884 8.51196 1.29743 8.24243 1.35212ZM12.2502 2.03181C12.3713 2.39118 12.4338 2.6529 12.4495 2.85212C12.4651 3.05915 12.4534 3.21931 12.4065 3.399C12.3713 3.53962 12.2854 3.74665 12.2151 3.86384C12.1448 3.97712 11.9924 4.16071 11.8752 4.26618C11.7581 4.37165 11.5745 4.50056 11.4651 4.55134C11.3596 4.60212 11.1917 4.66071 11.094 4.68415C10.9963 4.70759 10.6799 4.72712 10.3909 4.72712C9.9104 4.72712 9.85181 4.73493 9.70728 4.82087C9.60571 4.87946 9.52759 4.9654 9.48462 5.06306C9.44165 5.16853 9.41431 5.35993 9.40259 5.66462C9.39087 5.99665 9.36353 6.17634 9.30103 6.34821C9.25806 6.47712 9.15259 6.67634 9.07056 6.79353C8.99243 6.91071 8.85181 7.05915 8.76196 7.12556C8.67212 7.19196 8.50024 7.30915 8.37524 7.38337C8.25415 7.45759 8.08618 7.60993 8.00415 7.7154C7.92212 7.82478 7.82837 7.98884 7.79321 8.0865C7.75415 8.18415 7.72681 8.37556 7.7229 8.51618C7.7229 8.73493 7.74243 8.81306 7.87525 9.0904L8.02759 9.41071C9.10962 9.44196 9.24634 9.45759 9.51196 9.54353C9.68384 9.60212 9.93775 9.7115 10.0745 9.79353C10.2112 9.87556 10.4338 10.0474 10.5667 10.1763C10.6995 10.3092 10.9143 10.5904 11.0549 10.817C11.2073 11.0592 11.387 11.2935 11.5042 11.3951C11.6135 11.4888 11.7971 11.606 11.9143 11.6529C12.0979 11.7232 12.2385 11.7388 12.9104 11.7584C13.551 11.774 13.7151 11.7896 13.8206 11.8482C13.8909 11.8834 13.9807 11.9849 14.0237 12.0709C14.094 12.2115 14.1018 12.3052 14.1018 13.0084C14.1018 13.567 14.0823 13.8756 14.0393 14.0943C14.0081 14.2584 13.9299 14.5084 13.8713 14.649C13.8127 14.7896 13.6956 15.0084 13.6057 15.1373C13.5198 15.2662 13.2229 15.6099 12.9456 15.9029C12.6682 16.192 12.3088 16.5982 12.1448 16.8013C11.9807 17.0006 11.7112 17.3717 11.5471 17.6177C11.3831 17.8638 11.1682 18.2193 11.0745 18.4107C10.9768 18.5982 10.9026 18.7584 10.9104 18.7662C10.9143 18.7779 11.094 18.7584 11.3088 18.7271C11.5237 18.6959 11.8831 18.6256 12.1096 18.5709C12.3362 18.5123 12.6956 18.4068 12.9104 18.3326C13.1252 18.2584 13.5471 18.0787 13.8479 17.9342C14.1487 17.7857 14.6057 17.524 14.8635 17.3521C15.1213 17.1802 15.5002 16.899 15.7034 16.7271C15.9065 16.5592 16.2034 16.2779 16.3635 16.1099C16.5237 15.942 16.7581 15.6685 16.887 15.5084C17.0159 15.3482 17.2385 15.0396 17.3792 14.8248C17.5237 14.6099 17.7307 14.2584 17.8401 14.0435C17.9495 13.8287 18.1018 13.5006 18.1799 13.3131C18.2581 13.1217 18.3206 12.9615 18.3206 12.9498C18.3206 12.9381 18.1487 12.9302 17.9417 12.9302C17.719 12.9302 17.4612 12.9068 17.3245 12.8677C17.1956 12.8365 17.0042 12.7623 16.8987 12.7037C16.7932 12.6451 16.6331 12.5279 16.5432 12.442C16.4534 12.356 16.3362 12.2115 16.2776 12.1217C16.219 12.0279 16.137 11.8482 16.094 11.7193C16.0419 11.5631 16.0159 11.3808 16.0159 11.1724C16.0159 10.9576 16.0432 10.7818 16.0979 10.6177C16.1448 10.481 16.2385 10.2545 16.3127 10.1099C16.4456 9.84431 16.4456 9.84431 16.4456 9.2779C16.4456 8.78962 16.4338 8.68806 16.3674 8.55525C16.3153 8.45108 16.2372 8.37295 16.1331 8.32087C16.0471 8.2779 15.9143 8.24275 15.8401 8.24275C15.7659 8.24275 15.6096 8.22321 15.5002 8.19978C15.387 8.17243 15.1956 8.10993 15.0784 8.05525C14.9534 7.99665 14.762 7.85212 14.6292 7.7154C14.4924 7.58259 14.3479 7.39118 14.2893 7.26618C14.2346 7.149 14.1721 6.95759 14.1448 6.84821C14.1213 6.73493 14.1018 6.40681 14.1018 6.12556C14.1018 5.7792 14.1226 5.5279 14.1643 5.37165C14.1956 5.24275 14.2698 5.05134 14.3284 4.94196C14.387 4.8365 14.6409 4.53571 14.8909 4.2779C15.3206 3.8365 15.3557 3.78962 15.4495 3.51618C15.5042 3.35603 15.5471 3.19978 15.5471 3.17634C15.5471 3.149 15.3948 3.01618 15.2073 2.87946C15.0159 2.74275 14.7307 2.55134 14.5706 2.44978C14.4104 2.35212 14.0588 2.16462 13.7893 2.03571C13.5198 1.91071 13.1526 1.75446 12.969 1.68806C12.7854 1.62556 12.5081 1.53571 12.3479 1.49275C12.1526 1.43806 12.0627 1.42634 12.0667 1.45759C12.0667 1.48493 12.1487 1.74275 12.2502 2.03181ZM15.8167 5.02009C15.5627 5.2779 15.3401 5.53571 15.3167 5.59821C15.2932 5.65681 15.2737 5.90681 15.2737 6.1529C15.2737 6.524 15.2854 6.62946 15.3518 6.75837C15.4039 6.86254 15.482 6.94066 15.5862 6.99275C15.6721 7.03571 15.8049 7.07087 15.8792 7.07087C15.9534 7.07087 16.1096 7.0904 16.2229 7.11384C16.3323 7.14118 16.5237 7.20368 16.6409 7.25837C16.7659 7.31696 16.9573 7.4615 17.0901 7.59821C17.2268 7.73103 17.3713 7.92243 17.4299 8.04743C17.4846 8.16462 17.5471 8.35603 17.5745 8.46931C17.5979 8.57868 17.6174 8.94587 17.6174 9.2779C17.6174 9.60993 17.5979 9.97712 17.5745 10.0904C17.551 10.1998 17.4534 10.4615 17.3596 10.6646C17.2463 10.9068 17.1838 11.0904 17.1838 11.192C17.1838 11.2896 17.219 11.399 17.2737 11.4849C17.3245 11.5592 17.426 11.6529 17.5002 11.6881C17.6096 11.7427 17.7385 11.7584 18.1448 11.7584H18.6526C18.7893 10.9068 18.8088 10.6177 18.8088 9.98103C18.8049 9.38728 18.7854 9.04353 18.7346 8.73103C18.6995 8.49275 18.6213 8.11775 18.5667 7.89118C18.512 7.66462 18.4065 7.30525 18.3323 7.0904C18.2581 6.87556 18.0784 6.45368 17.9338 6.1529C17.7893 5.85212 17.5276 5.39509 17.3518 5.13728C17.1799 4.87946 16.9338 4.53181 16.8088 4.36775C16.6838 4.19978 16.5627 4.06306 16.5432 4.06696C16.5198 4.06696 16.4534 4.17634 16.387 4.30915C16.301 4.48884 16.1565 4.67243 15.8167 5.02009ZM2.42993 5.4615C2.35181 5.58259 2.17993 5.91071 2.04712 6.19196C1.9104 6.47321 1.71899 6.94196 1.62134 7.23884C1.52368 7.53181 1.40259 7.98884 1.35181 8.25446C1.29712 8.51618 1.23462 8.94978 1.20728 9.21931C1.17993 9.51618 1.17212 9.94587 1.18384 10.3131C1.19946 10.6451 1.24634 11.1295 1.2854 11.3873C1.32837 11.6451 1.40649 12.024 1.46118 12.2271C1.51587 12.4302 1.61353 12.7584 1.67993 12.9498C1.74634 13.1412 1.92212 13.5474 2.07056 13.8482C2.21509 14.149 2.42212 14.5279 2.52368 14.6881C2.62524 14.8482 2.84399 15.1568 3.00415 15.3717C3.16821 15.5865 3.49634 15.9576 3.73071 16.1959C3.96509 16.4342 4.30103 16.7388 4.4729 16.8756C4.64478 17.0123 4.96899 17.2467 5.19556 17.3951C5.42212 17.5435 5.85181 17.7857 6.15259 17.9342C6.45337 18.0787 6.93774 18.2779 7.22681 18.3756C7.51587 18.4693 7.93774 18.5865 8.16431 18.6334C8.39087 18.6763 8.67993 18.7271 8.80493 18.7427L9.0354 18.7701C8.87915 18.4693 8.76196 18.1685 8.67603 17.9107C8.58618 17.6529 8.4729 17.2388 8.42212 16.9927C8.37134 16.7467 8.31665 16.4576 8.30103 16.3482C8.28931 16.2427 8.26196 15.9068 8.24634 15.606C8.2229 15.1685 8.19946 15.0279 8.13306 14.9029C8.09009 14.817 7.86743 14.5631 7.63696 14.3365C7.40649 14.1099 7.18774 13.8599 7.14478 13.7818C7.10571 13.6998 7.07056 13.5787 7.07056 13.5162C7.07056 13.4537 7.10571 13.3326 7.14478 13.2545C7.18774 13.1724 7.32837 13.0006 7.46118 12.8717C7.59399 12.7427 7.73853 12.567 7.7854 12.481C7.85181 12.3599 7.87134 12.2584 7.86743 12.0318C7.86743 11.7427 7.86743 11.7349 7.52759 11.067L7.18774 10.3912C4.96509 8.90681 4.45337 8.53962 4.33618 8.41462C4.24243 8.30915 4.11353 8.11775 4.05493 7.98884C3.99243 7.85603 3.93384 7.63728 3.91431 7.48103C3.89478 7.33259 3.89478 7.10993 3.9104 6.99275C3.92993 6.87556 3.99634 6.64509 4.06665 6.48493C4.1604 6.26228 4.18384 6.16071 4.16431 6.05525C4.15259 5.98103 4.10571 5.85993 4.06274 5.79353C4.01978 5.72321 3.94556 5.63728 3.89478 5.60603C3.8479 5.57478 3.64087 5.50446 3.43774 5.44978C3.23462 5.399 2.95337 5.32868 2.81665 5.29743L2.57056 5.23884L2.42993 5.4615ZM8.78931 10.9498C8.87525 11.1373 8.9729 11.399 9.00415 11.5357C9.0354 11.6685 9.06275 11.8873 9.06275 12.024C9.06275 12.1568 9.04321 12.3599 9.01978 12.4732C8.99243 12.5865 8.92212 12.7896 8.85962 12.9302C8.79712 13.0709 8.69556 13.2506 8.62915 13.3326C8.56665 13.4107 8.51587 13.4849 8.51587 13.4967C8.51587 13.5084 8.62915 13.6451 8.77368 13.8013C8.93384 13.981 9.08228 14.1959 9.17993 14.3951C9.26196 14.567 9.3479 14.8131 9.37134 14.942C9.39478 15.0709 9.41431 15.2896 9.41431 15.4302C9.41431 15.5709 9.43384 15.8443 9.45337 16.0357C9.47681 16.231 9.51978 16.5279 9.55493 16.6998C9.58618 16.8717 9.68384 17.2271 9.76978 17.4927C9.85181 17.7545 9.93384 17.9693 9.94946 17.9693C9.96509 17.9732 10.0198 17.8912 10.0667 17.7935C10.1174 17.6998 10.2581 17.4576 10.3792 17.2584C10.5042 17.0592 10.7581 16.6881 10.9456 16.4381C11.1331 16.1842 11.4104 15.8404 11.5549 15.6763C11.7034 15.5084 12.0081 15.1802 12.2307 14.942C12.4963 14.6646 12.676 14.4381 12.7385 14.2974C12.7971 14.1802 12.8635 13.9927 12.887 13.8795C12.9104 13.7662 12.9299 13.5123 12.9299 13.3131V12.9498C12.0979 12.9068 11.8909 12.8717 11.6604 12.7974C11.4885 12.7427 11.2346 12.6334 11.0979 12.5513C10.9573 12.4693 10.7385 12.2974 10.6057 12.1685C10.4729 12.0357 10.2581 11.7584 10.1135 11.5279C9.96509 11.2857 9.7854 11.0513 9.66821 10.9498C9.55884 10.856 9.37525 10.7427 9.25806 10.6998C9.14087 10.6568 8.95337 10.6099 8.844 10.5982C8.73462 10.5865 8.64087 10.5826 8.63696 10.5904C8.63306 10.5982 8.69946 10.7623 8.78931 10.9498Z" fill="#ACB9CB"/>
</g>
<defs>
<clipPath id="clip0_793_53048">
<rect width="20" height="20" fill="white"/>
</clipPath>
</defs>
</svg>
