<svg width="16" height="16" viewBox="0 0 16 16" fill="none" xmlns="http://www.w3.org/2000/svg">
<g id="free-icon-font-square-code-8778062 (1) 1" clip-path="url(#clip0_2081_1018)">
<path id="Vector" d="M9.88733 11.3333C9.63133 11.3333 9.37533 11.236 9.18 11.0407C8.78933 10.65 8.78933 10.0173 9.18 9.62667L10.5687 8.238C10.6533 8.15333 10.666 8.054 10.666 8.002C10.666 7.95067 10.6533 7.85133 10.5687 7.76667L9.17667 6.374C8.786 5.98333 8.786 5.35 9.17667 4.96C9.56733 4.56933 10.2 4.56933 10.5907 4.96L11.9827 6.352C12.4233 6.79267 12.666 7.37867 12.666 8.002C12.666 8.62533 12.4233 9.21133 11.9827 9.652L10.594 11.0407C10.3987 11.236 10.1427 11.3333 9.88667 11.3333H9.88733ZM6.82267 11.0407C7.21333 10.65 7.21333 10.0173 6.82267 9.62667L5.43067 8.23467C5.346 8.15 5.33333 8.05067 5.33333 7.99867C5.33333 7.94733 5.346 7.848 5.43067 7.76267L6.81933 6.374C7.21 5.984 7.21 5.35 6.81933 4.96C6.42867 4.56933 5.796 4.56933 5.40533 4.96L4.01667 6.34867C3.576 6.78933 3.33333 7.37533 3.33333 7.99867C3.33333 8.622 3.576 9.208 4.01667 9.64867L5.40867 11.0407C5.604 11.236 5.86 11.3333 6.116 11.3333C6.372 11.3333 6.62733 11.236 6.82267 11.0407ZM16 12.3333V3.66667C16 1.64467 14.3547 0 12.3333 0H3.66667C1.64467 0 0 1.64467 0 3.66667V12.3333C0 14.3547 1.64467 16 3.66667 16H12.3333C14.3547 16 16 14.3547 16 12.3333ZM12.3333 2C13.2527 2 14 2.748 14 3.66667V12.3333C14 13.2527 13.2527 14 12.3333 14H3.66667C2.748 14 2 13.2527 2 12.3333V3.66667C2 2.748 2.748 2 3.66667 2H12.3333Z" fill="#F15A2B"/>
</g>
<defs>
<clipPath id="clip0_2081_1018">
<rect width="16" height="16" fill="white"/>
</clipPath>
</defs>
</svg>
