<svg width="16" height="16" viewBox="0 0 16 16" fill="none" xmlns="http://www.w3.org/2000/svg">
<g id="free-icon-font-bullseye-arrow-9784361 (1) 1" clip-path="url(#clip0_2081_1020)">
<path id="Vector" d="M16 7.99955C16 12.4129 12.4133 15.9995 8 15.9995C3.58667 15.9995 0 12.4129 0 7.99955C0 3.58621 3.58667 -0.000455305 8 -0.000455305C8.12667 -0.000455305 8.25333 -0.000455305 8.38 0.00621136C8.93333 0.032878 9.36 0.499545 9.33333 1.05288C9.30667 1.60621 8.85333 2.01954 8.28667 2.00621C8.19333 2.00621 8.09333 1.99954 8 1.99954C4.69333 1.99954 2 4.69288 2 7.99955C2 11.3062 4.69333 13.9995 8 13.9995C11.3067 13.9995 14 11.3062 14 7.99955C14 7.90621 14 7.80621 13.9933 7.71288C13.9667 7.15955 14.3933 6.69288 14.9467 6.66621C15.5133 6.64621 15.9667 7.06621 15.9933 7.61955C15.9933 7.74621 16 7.87288 16 7.99955ZM7.27333 5.43288C7.80667 5.27955 8.11333 4.73288 7.96667 4.19955C7.82 3.66621 7.26 3.35955 6.73333 3.50621C4.73333 4.07288 3.34 5.91955 3.34 7.99955C3.34 10.5729 5.43333 12.6662 8.00667 12.6662C10.0867 12.6662 11.9333 11.2729 12.5 9.27288C12.6533 8.73955 12.34 8.18621 11.8067 8.03955C11.2733 7.88621 10.72 8.19955 10.5733 8.73288C10.2533 9.87288 9.19333 10.6729 8.00667 10.6729C6.53333 10.6729 5.34 9.47955 5.34 8.00621C5.34 6.81955 6.14 5.75955 7.28 5.43955L7.27333 5.43288ZM7.29333 7.29288C6.9 7.68621 6.9 8.31955 7.29333 8.70621C7.48667 8.89955 7.74667 8.99955 8 8.99955C8.25333 8.99955 8.51333 8.89955 8.70667 8.70621L12.08 5.33288H13.6667C13.9333 5.33288 14.1867 5.22621 14.3733 5.03955L15.7067 3.70621C15.9933 3.41955 16.08 2.99288 15.9267 2.61954C15.7733 2.24621 15.4067 1.99954 15 1.99954H14V0.999545C14 0.592878 13.7533 0.232878 13.38 0.072878C13.0067 -0.0804553 12.5733 0.00621136 12.2933 0.292878L10.96 1.62621C10.7733 1.81288 10.6667 2.06621 10.6667 2.33288V3.91955L7.29333 7.29288Z" fill="#F15A2B"/>
</g>
<defs>
<clipPath id="clip0_2081_1020">
<rect width="16" height="16" fill="white"/>
</clipPath>
</defs>
</svg>
