<svg width="40" height="40" viewBox="0 0 40 40" fill="none" xmlns="http://www.w3.org/2000/svg">
<path fill-rule="evenodd" clip-rule="evenodd" d="M33.332 15H29.9987C26.3154 15 23.332 17.9833 23.332 21.6667V33.3333C23.332 37.0167 26.3154 40 29.9987 40H33.332C37.0154 40 39.9987 37.0167 39.9987 33.3333V21.6667C39.9987 17.9833 37.0154 15 33.332 15ZM34.9987 33.3333C34.9987 34.25 34.2487 35 33.332 35H29.9987C29.082 35 28.332 34.25 28.332 33.3333V21.6667C28.332 20.75 29.082 20 29.9987 20H33.332C34.2487 20 34.9987 20.75 34.9987 21.6667V33.3333Z" fill="#F7851C"/>
<path d="M15.3833 23.3333H20V30H3.08333C1.38333 30 0 28.6167 0 26.9167V25C0 23.1667 1.5 21.6667 3.33333 21.6667V9.16667C3.33333 4.11667 7.45 0 12.5 0H27.5C32.55 0 36.6667 4.11667 36.6667 9.16667C36.6667 10.55 35.55 11.6667 34.1667 11.6667C32.7833 11.6667 31.6667 10.55 31.6667 9.16667C31.6667 6.86667 29.8 5 27.5 5H12.5C10.2 5 8.33333 6.86667 8.33333 9.16667V21.6667H13.85L15.3833 23.3333Z" fill="#F65A03"/>
</svg>
