<svg width="20" height="20" viewBox="0 0 20 20" fill="none" xmlns="http://www.w3.org/2000/svg">
<g id="file - 2024-02-23T144933.629 1">
<path id="Path 0" fill-rule="evenodd" clip-rule="evenodd" d="M9.34761 0.628965C13.3476 0.625059 13.5273 0.628965 13.7968 0.699278C13.9531 0.742246 14.1796 0.812559 14.2968 0.855528C14.414 0.898496 14.6484 1.0235 14.8125 1.13287C14.9804 1.23834 15.2148 1.42975 15.3398 1.55084C15.4609 1.67584 15.6445 1.91022 15.75 2.07037C15.8554 2.23053 15.9765 2.461 16.0195 2.57818C16.0625 2.69537 16.1289 2.8985 16.164 3.0274C16.2226 3.23834 16.2304 3.57428 16.2304 6.17975C16.2304 9.07818 16.2304 9.09771 16.1484 9.20709C16.1054 9.26568 16.0078 9.35553 15.9335 9.40631C15.8437 9.4649 15.7421 9.49615 15.625 9.49615C15.5078 9.49615 15.4062 9.4649 15.3164 9.40631C15.2421 9.35553 15.1445 9.26568 15.1015 9.20709C15.0195 9.09771 15.0195 9.06256 15 6.21881C14.9804 3.43756 14.9765 3.33209 14.9023 3.14459C14.8554 3.03522 14.7773 2.87115 14.7187 2.7735C14.664 2.67584 14.5234 2.50787 14.4101 2.3985C14.2929 2.28912 14.1054 2.1524 13.9921 2.09772C13.8828 2.03912 13.6875 1.9649 13.5625 1.93365C13.371 1.88287 12.7812 1.87506 9.37495 1.87506C5.9687 1.87506 5.37886 1.88287 5.18355 1.93365C5.06245 1.9649 4.86714 2.03912 4.75386 2.09772C4.64448 2.1524 4.45308 2.29303 4.33589 2.4024C4.2187 2.51568 4.06636 2.711 3.99605 2.836C3.92964 2.9649 3.8437 3.17193 3.81245 3.30084C3.75777 3.50787 3.74995 4.16803 3.74995 9.06256C3.74995 13.8594 3.75777 14.6212 3.80855 14.8165C3.8398 14.9376 3.91402 15.1329 3.97261 15.2422C4.0273 15.3555 4.16402 15.543 4.27339 15.6602C4.38277 15.7735 4.55073 15.9141 4.64839 15.9688C4.74605 16.0274 4.91011 16.1055 5.01948 16.1524C5.20308 16.2266 5.32417 16.2305 6.92183 16.2501C8.57417 16.2696 8.62886 16.2735 8.73823 16.3516C8.79683 16.3946 8.88667 16.4922 8.93745 16.5665C8.99605 16.6563 9.0273 16.7579 9.0273 16.8751C9.0273 16.9922 8.99605 17.0938 8.93745 17.1837C8.88667 17.2579 8.79683 17.3555 8.73823 17.3985C8.62886 17.4805 8.5898 17.4805 6.88277 17.4805C5.37105 17.4805 5.10542 17.4727 4.9023 17.4141C4.77339 17.379 4.57027 17.3126 4.45308 17.2696C4.33589 17.2266 4.10542 17.1055 3.94527 17.0001C3.78511 16.8946 3.54683 16.7071 3.42183 16.5782C3.29292 16.4532 3.10542 16.2149 2.99995 16.0547C2.89448 15.8946 2.77339 15.6641 2.73042 15.5469C2.68745 15.4297 2.61714 15.2032 2.57417 15.0469C2.50386 14.7735 2.49995 14.5899 2.51167 8.99225C2.51948 3.74225 2.5273 3.20318 2.58589 3.00787C2.62105 2.89068 2.68745 2.69537 2.73042 2.57818C2.77339 2.461 2.89839 2.22662 3.00777 2.05865C3.11323 1.89459 3.30464 1.66022 3.42573 1.53522C3.55073 1.41412 3.78511 1.23053 3.94527 1.12506C4.10542 1.01959 4.33589 0.898496 4.45308 0.855528C4.57027 0.812559 4.7812 0.742246 4.92183 0.703184C5.16011 0.636778 5.44527 0.632871 9.3437 0.628965H9.34761ZM14.3398 10.629C14.5234 10.629 14.8476 10.6524 15.0625 10.6837C15.2773 10.7188 15.5859 10.7891 15.746 10.8438C15.9062 10.8985 16.2109 11.0352 16.4257 11.1446C16.6367 11.2579 16.9453 11.4532 17.1093 11.586C17.2734 11.7149 17.5039 11.9376 17.625 12.0743C17.746 12.211 17.914 12.4297 18 12.5587C18.0898 12.6876 18.2226 12.9141 18.2968 13.0665C18.371 13.2188 18.4687 13.4454 18.5117 13.5743C18.5546 13.7032 18.6289 13.9766 18.6718 14.1797C18.7226 14.4141 18.7539 14.6876 18.7539 14.9219C18.7539 15.1251 18.7343 15.4141 18.7148 15.5665C18.6914 15.7188 18.6406 15.9805 18.5937 16.1524C18.5507 16.3243 18.4218 16.6563 18.3085 16.8946C18.1914 17.1368 17.9804 17.4766 17.8281 17.6758C17.6796 17.8672 17.4257 18.1407 17.2656 18.2774C17.1054 18.418 16.8867 18.586 16.7812 18.6524C16.6718 18.7227 16.4648 18.8399 16.3125 18.918C16.1601 18.9922 15.9335 19.0899 15.8046 19.1329C15.6757 19.1758 15.4023 19.2501 15.1992 19.293C14.9453 19.3516 14.6875 19.3751 14.3789 19.3751C14.0703 19.3751 13.8125 19.3516 13.5585 19.293C13.3554 19.2501 13.082 19.1797 12.9531 19.1329C12.8242 19.0899 12.5585 18.9727 12.3671 18.8751C12.1718 18.7735 11.8671 18.5743 11.6835 18.4337C11.5 18.293 11.2539 18.0665 11.1328 17.9258C11.0117 17.7891 10.8437 17.5704 10.7578 17.4415C10.6679 17.3126 10.5351 17.0782 10.457 16.9219C10.3789 16.7696 10.2734 16.504 10.2148 16.336C10.1601 16.1719 10.0898 15.8672 10.0625 15.6641C10.0312 15.461 10.0039 15.1602 10.0039 15.0001C10.0039 14.8399 10.0312 14.5391 10.0625 14.336C10.0898 14.1329 10.1601 13.8282 10.2148 13.6602C10.2734 13.4962 10.3789 13.2305 10.457 13.0743C10.5351 12.9219 10.6796 12.6719 10.7812 12.5196C10.8789 12.3712 11.1093 12.0977 11.2929 11.9141C11.4765 11.7305 11.75 11.5001 11.8984 11.4024C12.0507 11.3008 12.3007 11.1563 12.4531 11.0782C12.6093 11.0001 12.875 10.8907 13.039 10.836C13.207 10.7813 13.4921 10.7149 13.6757 10.6837C13.8593 10.6563 14.1562 10.6329 14.3398 10.629ZM13.2851 12.0782C13.1445 12.129 12.8984 12.2501 12.7382 12.3477C12.5781 12.4493 12.3359 12.6368 12.1992 12.7696C12.0664 12.8985 11.8671 13.1446 11.7617 13.3087C11.6523 13.4766 11.5273 13.711 11.4843 13.8282C11.4414 13.9454 11.375 14.1485 11.3398 14.2774C11.2968 14.4376 11.2734 14.668 11.2734 15.0001C11.2734 15.3321 11.2968 15.5626 11.3398 15.7227C11.375 15.8516 11.4414 16.0547 11.4843 16.1719C11.5273 16.2891 11.6484 16.5196 11.7539 16.6797C11.8593 16.8399 12.0546 17.086 12.1953 17.2227C12.332 17.3555 12.5859 17.5547 12.7578 17.6602C12.9296 17.7657 13.2031 17.8946 13.3632 17.9493C13.5234 18.0001 13.7773 18.0665 13.9296 18.0899C14.0898 18.1172 14.3515 18.1251 14.5546 18.1133C14.746 18.1016 15.0039 18.0626 15.121 18.0313C15.2382 18.0001 15.4335 17.9376 15.5507 17.8946C15.6679 17.8516 15.8984 17.7305 16.0585 17.6251C16.2187 17.5196 16.457 17.3321 16.582 17.2032C16.7109 17.0782 16.8984 16.8399 17.0039 16.6797C17.1093 16.5196 17.2304 16.2891 17.2734 16.1719C17.3164 16.0547 17.3828 15.8516 17.4179 15.7227C17.4609 15.5626 17.4843 15.3321 17.4843 15.0001C17.4843 14.668 17.4609 14.4376 17.4179 14.2774C17.3828 14.1485 17.3164 13.9454 17.2734 13.8282C17.2304 13.711 17.1093 13.4805 17.0039 13.3204C16.8984 13.1602 16.7109 12.9219 16.582 12.7969C16.457 12.668 16.2187 12.4805 16.0585 12.3751C15.8984 12.2696 15.6679 12.1485 15.5507 12.1055C15.4335 12.0626 15.2382 12.0001 15.121 11.9649C15.0039 11.9337 14.7109 11.9024 14.4765 11.8946C14.2031 11.8829 13.9531 11.8985 13.7929 11.9297C13.6523 11.961 13.4257 12.0274 13.2851 12.0782ZM8.48823 4.38678C10.789 4.39459 10.8593 4.3985 10.9648 4.47272C11.0195 4.51568 11.1054 4.60162 11.1523 4.66022C11.2148 4.74615 11.2343 4.82818 11.2343 5.00006C11.2343 5.16803 11.2148 5.25787 11.1562 5.336C11.1132 5.39068 11.0273 5.47662 10.9687 5.5235C10.8593 5.60553 10.832 5.60553 8.5273 5.61725C7.0937 5.62506 6.14448 5.61334 6.05855 5.5899C5.98433 5.57037 5.86323 5.48834 5.79292 5.41412C5.7187 5.33209 5.6562 5.2149 5.64448 5.12506C5.63277 5.04693 5.63277 4.92193 5.64448 4.85162C5.6562 4.78521 5.71089 4.67193 5.75777 4.60553C5.80855 4.53522 5.91011 4.45709 5.98433 4.42975C6.0898 4.38678 6.58198 4.37897 8.48823 4.38678ZM9.42573 7.51178C12.664 7.51959 12.7343 7.51959 12.8398 7.59771C12.8945 7.64068 12.9804 7.72662 13.0273 7.78521C13.0898 7.87115 13.1093 7.95318 13.1093 8.12506C13.1093 8.29693 13.0898 8.37896 13.0273 8.4649C12.9804 8.5235 12.8945 8.60943 12.8398 8.6524C12.7343 8.73053 12.6601 8.73053 9.4648 8.74225C7.42964 8.75006 6.14448 8.73834 6.05855 8.7149C5.98433 8.69537 5.86323 8.61334 5.79292 8.53912C5.7187 8.45709 5.6562 8.3399 5.64448 8.25006C5.63277 8.17193 5.63277 8.04693 5.64448 7.97662C5.6562 7.91021 5.71089 7.79693 5.75777 7.73053C5.80855 7.66021 5.91011 7.58209 5.98433 7.55475C6.0937 7.51178 6.74214 7.50396 9.42573 7.51178ZM10.1484 10.0196L10.289 10.1251C10.375 10.1915 10.457 10.3008 10.496 10.3985C10.5351 10.504 10.5507 10.6172 10.5351 10.7032C10.5234 10.7774 10.4765 10.8985 10.4335 10.9649C10.3906 11.0352 10.2851 11.129 10.1992 11.1719C10.0507 11.2462 9.9648 11.2501 8.0898 11.2501C6.55073 11.2501 6.10933 11.2383 6.00777 11.1993C5.94136 11.168 5.83589 11.0899 5.77339 11.0235C5.7148 10.9532 5.6562 10.8321 5.64448 10.7501C5.63277 10.6719 5.63277 10.5469 5.64448 10.4766C5.6562 10.4102 5.71089 10.2969 5.75777 10.2305C5.80855 10.1602 5.91011 10.0821 5.98433 10.0547C6.0898 10.0118 6.52339 10.004 10.1484 10.0196ZM7.37495 12.5118C8.58198 12.5196 8.63667 12.5235 8.74214 12.6016C8.80073 12.6446 8.89058 12.7422 8.94136 12.8165C8.99995 12.9063 9.0312 13.0079 9.0312 13.1251C9.0312 13.2422 8.99995 13.3438 8.94136 13.4337C8.89058 13.5079 8.80073 13.6055 8.74214 13.6485C8.63667 13.7266 8.57808 13.7305 7.41402 13.7422C6.69136 13.7501 6.14058 13.7383 6.05855 13.7149C5.98433 13.6954 5.86323 13.6133 5.79683 13.5391C5.7187 13.4571 5.6562 13.3399 5.64448 13.2501C5.63277 13.1719 5.63277 13.0469 5.64448 12.9766C5.6562 12.9102 5.71089 12.7969 5.75777 12.7305C5.80855 12.6602 5.91011 12.5821 5.98433 12.5547C6.08589 12.5118 6.39448 12.504 7.37495 12.5118ZM15.621 13.6719C15.6875 13.6719 15.8046 13.6954 15.875 13.7227C15.9414 13.754 16.0468 13.8321 16.1093 13.8985C16.1679 13.9688 16.2265 14.0899 16.2382 14.168C16.25 14.2501 16.25 14.379 16.2343 14.4532C16.2148 14.5626 16.0351 14.7657 15.2851 15.5196C14.7734 16.0313 14.3046 16.4805 14.2421 16.5118C14.1796 16.543 14.0546 16.5704 13.9687 16.5704C13.8828 16.5704 13.7578 16.543 13.6953 16.5118C13.6328 16.4805 13.3476 16.2188 13.0625 15.9297C12.664 15.5274 12.5429 15.379 12.5234 15.2735C12.5078 15.1993 12.5078 15.0704 12.5195 14.9883C12.5351 14.9024 12.5937 14.793 12.6718 14.711C12.7382 14.6407 12.8671 14.5587 12.9531 14.5313C13.0781 14.4883 13.1406 14.4883 13.2851 14.5313C13.4101 14.5665 13.5312 14.6485 13.9687 15.0743L14.6132 14.4297C14.9687 14.0743 15.3125 13.7579 15.375 13.7266C15.4375 13.6993 15.5507 13.6758 15.621 13.6719Z" fill="#222754"/>
</g>
</svg>
