<svg width="8" height="14" viewBox="0 0 8 14" fill="none" xmlns="http://www.w3.org/2000/svg">
<path d="M4.004 13.68V0.519999H4.704V13.68H4.004ZM4.298 12.084C3.57 12.084 2.87 11.9673 2.198 11.734C1.53533 11.4913 1.022 11.1833 0.658 10.81L1.064 10.012C1.40933 10.348 1.87133 10.6327 2.45 10.866C3.038 11.09 3.654 11.202 4.298 11.202C4.914 11.202 5.41333 11.1273 5.796 10.978C6.188 10.8193 6.47267 10.6093 6.65 10.348C6.83667 10.0867 6.93 9.79733 6.93 9.48C6.93 9.09733 6.818 8.78933 6.594 8.556C6.37933 8.32267 6.09467 8.14067 5.74 8.01C5.38533 7.87 4.99333 7.74867 4.564 7.646C4.13467 7.54333 3.70533 7.436 3.276 7.324C2.84667 7.20267 2.45 7.044 2.086 6.848C1.73133 6.652 1.442 6.39533 1.218 6.078C1.00333 5.75133 0.896 5.32667 0.896 4.804C0.896 4.31867 1.022 3.87533 1.274 3.474C1.53533 3.06333 1.932 2.73667 2.464 2.494C2.996 2.242 3.67733 2.116 4.508 2.116C5.05867 2.116 5.60467 2.19533 6.146 2.354C6.68733 2.50333 7.154 2.71333 7.546 2.984L7.196 3.81C6.776 3.53 6.328 3.32467 5.852 3.194C5.38533 3.06333 4.93267 2.998 4.494 2.998C3.906 2.998 3.42067 3.07733 3.038 3.236C2.65533 3.39467 2.37067 3.60933 2.184 3.88C2.00667 4.14133 1.918 4.44 1.918 4.776C1.918 5.15867 2.02533 5.46667 2.24 5.7C2.464 5.93333 2.75333 6.11533 3.108 6.246C3.472 6.37667 3.86867 6.49333 4.298 6.596C4.72733 6.69867 5.152 6.81067 5.572 6.932C6.00133 7.05333 6.39333 7.212 6.748 7.408C7.112 7.59467 7.40133 7.84667 7.616 8.164C7.84 8.48133 7.952 8.89667 7.952 9.41C7.952 9.886 7.82133 10.3293 7.56 10.74C7.29867 11.1413 6.89733 11.468 6.356 11.72C5.824 11.9627 5.138 12.084 4.298 12.084Z" fill="#222754"/>
</svg>
