<svg width="20" height="20" viewBox="0 0 20 20" fill="none" xmlns="http://www.w3.org/2000/svg">
<g id="file - 2024-02-23T144712.272 1">
<path id="Path 0" fill-rule="evenodd" clip-rule="evenodd" d="M8.70312 2.50439C9.21484 2.50048 9.48828 2.52001 9.85156 2.5786C10.1172 2.62548 10.5 2.7036 10.7031 2.75829C10.9062 2.81298 11.2227 2.91845 11.4062 2.98876C11.5898 3.05907 11.9141 3.2036 12.1289 3.31298C12.3438 3.41845 12.6797 3.61376 12.8711 3.73876C13.0625 3.86767 13.3555 4.0786 13.5156 4.20751C13.6758 4.33642 13.9609 4.60204 14.1445 4.78954C14.3281 4.98095 14.6016 5.30517 14.7539 5.50829C14.9023 5.71142 15.125 6.04735 15.2383 6.25048C15.3555 6.4536 15.5195 6.77001 15.6016 6.9536C15.6836 7.1372 15.8086 7.46142 15.8789 7.67626C15.9531 7.8911 16.0469 8.24267 16.0898 8.45751C16.1328 8.67235 16.1914 9.03173 16.2148 9.25829C16.2422 9.50048 16.25 9.91454 16.2383 10.2739C16.2266 10.6059 16.1875 11.0395 16.1523 11.2309C16.1211 11.4224 16.0469 11.7505 15.9922 11.9536C15.9375 12.1567 15.8594 12.3872 15.8164 12.4614C15.7773 12.5356 15.6758 12.6372 15.5938 12.6841C15.5039 12.7388 15.3828 12.77 15.2734 12.7739C15.1641 12.7739 15.0508 12.7427 14.9688 12.6958C14.9023 12.6528 14.8086 12.5591 14.7656 12.4927C14.7227 12.4224 14.6758 12.3091 14.6641 12.2466C14.6484 12.1724 14.6758 11.9966 14.7422 11.7778C14.7969 11.5864 14.8711 11.2661 14.9102 11.0747C14.9609 10.8169 14.9766 10.5317 14.9766 10.0005C14.9805 9.41064 14.9648 9.1997 14.8906 8.84814C14.8438 8.60985 14.7461 8.24267 14.6758 8.02782C14.6016 7.81298 14.4648 7.46923 14.3633 7.2661C14.2656 7.06298 14.0781 6.73485 13.9492 6.54345C13.8203 6.35204 13.5859 6.04345 13.4297 5.86376C13.2734 5.68407 12.9766 5.39501 12.7734 5.22314C12.5703 5.05517 12.2422 4.81689 12.0508 4.69579C11.8555 4.5786 11.5664 4.41845 11.4062 4.34423C11.2461 4.27001 10.9375 4.14892 10.7227 4.0747C10.5078 4.00439 10.1367 3.90673 9.90234 3.85985C9.55469 3.78954 9.33594 3.77392 8.75 3.77392C8.15625 3.77001 7.94922 3.78564 7.59766 3.85595C7.35938 3.90673 6.99219 4.00439 6.77734 4.0747C6.5625 4.14892 6.25391 4.27001 6.09375 4.34423C5.93359 4.41845 5.64062 4.5786 5.44922 4.69579C5.25391 4.81689 4.92969 5.05517 4.72656 5.22314C4.52344 5.39501 4.22656 5.68407 4.07031 5.86376C3.91406 6.04345 3.67969 6.35204 3.55078 6.54345C3.41797 6.73485 3.23047 7.07079 3.125 7.28564C3.02344 7.50048 2.875 7.86767 2.80078 8.10595C2.72656 8.34423 2.63281 8.71142 2.59375 8.92626C2.53906 9.21923 2.51953 9.49267 2.51953 10.02C2.52344 10.5786 2.53906 10.8091 2.60938 11.1528C2.65625 11.3911 2.75391 11.7583 2.82422 11.9731C2.89844 12.188 3.01953 12.4966 3.09375 12.6567C3.16797 12.8169 3.32812 13.1099 3.44531 13.3013C3.56641 13.4927 3.80469 13.8208 3.97266 14.0239C4.14453 14.227 4.43359 14.5239 4.61328 14.6802C4.79297 14.8364 5.10156 15.0708 5.29297 15.1997C5.48438 15.3286 5.80469 15.5122 5.99609 15.6059C6.1875 15.6997 6.53125 15.8403 6.75781 15.9184C6.98438 15.9927 7.35938 16.0981 7.59766 16.145C7.94922 16.2114 8.16016 16.2309 8.75 16.227C9.28516 16.227 9.5625 16.2114 9.82422 16.1606C10.0156 16.1216 10.2617 16.063 10.3711 16.0317C10.4805 16.0005 10.625 15.9849 10.7031 15.9966C10.7773 16.0083 10.8984 16.0552 10.9648 16.0942C11.0352 16.1372 11.1328 16.2466 11.1758 16.3403C11.2383 16.4653 11.2539 16.5474 11.2383 16.6802C11.2266 16.7778 11.1836 16.8989 11.1406 16.9536C11.0977 17.0083 11.0234 17.0825 10.9727 17.1216C10.9219 17.1606 10.7461 17.227 10.5859 17.27C10.4258 17.313 10.125 17.3755 9.92188 17.4106C9.65625 17.4575 9.32422 17.477 8.75 17.477C8.16406 17.477 7.84766 17.4575 7.57812 17.4106C7.375 17.3716 7.07031 17.3091 6.90234 17.2661C6.73828 17.2231 6.49219 17.1489 6.35547 17.1059C6.22266 17.0591 5.96484 16.9575 5.78125 16.8794C5.59766 16.8013 5.28125 16.645 5.07812 16.5317C4.875 16.4184 4.51172 16.1841 4.27734 16.0083C4.03906 15.8325 3.67188 15.5122 3.45312 15.2974C3.23828 15.0786 2.94922 14.7544 2.8125 14.5708C2.67188 14.3872 2.47266 14.0981 2.36719 13.9263C2.26172 13.7544 2.08984 13.438 1.98828 13.2231C1.88281 13.0083 1.73047 12.6216 1.64453 12.3638C1.55859 12.1059 1.45312 11.7192 1.41016 11.5044C1.36328 11.2895 1.30859 10.8599 1.28125 10.5474C1.24609 10.1059 1.24609 9.85985 1.28125 9.43407C1.30859 9.13329 1.36328 8.71142 1.41016 8.49657C1.45312 8.28173 1.55859 7.89501 1.64453 7.6372C1.73047 7.37939 1.88281 6.99267 1.98828 6.77782C2.08984 6.56298 2.26172 6.24657 2.36719 6.0747C2.47266 5.90282 2.67188 5.61376 2.8125 5.43017C2.94922 5.24657 3.23828 4.92235 3.45312 4.7036C3.67188 4.48876 4.03125 4.17235 4.25781 4.00439C4.48438 3.84032 4.78906 3.62939 4.94141 3.54345C5.08984 3.45751 5.39062 3.30126 5.60547 3.1997C5.82031 3.10204 6.15625 2.96532 6.34766 2.89892C6.53906 2.83642 6.91016 2.73876 7.16797 2.68407C7.42578 2.62548 7.72266 2.56689 7.83203 2.54735C7.9375 2.52782 8.33203 2.50829 8.69922 2.50439H8.70312ZM8.8125 5.6411C8.91797 5.64892 9.05078 5.69189 9.10156 5.73095C9.15234 5.77001 9.23047 5.85204 9.27734 5.91064C9.34766 6.00439 9.35938 6.08251 9.37891 6.87548L10.1172 6.8872C10.8047 6.89501 10.8672 6.90282 10.9688 6.97704C11.0273 7.02392 11.1133 7.10985 11.1562 7.16454C11.2148 7.24267 11.2344 7.33251 11.2344 7.50048C11.2344 7.67235 11.2148 7.75439 11.1523 7.84032C11.1055 7.89892 11.0195 7.98485 10.9648 8.02782C10.8633 8.10204 10.7891 8.10595 7.50391 8.12548V9.37548L8.91797 9.3872C10.2969 9.39501 10.3398 9.39892 10.5117 9.48095C10.6094 9.53173 10.75 9.62157 10.8242 9.68017C10.8984 9.74267 11.0234 9.90673 11.2344 10.2934V12.2075L11.1328 12.4028C11.0742 12.5122 10.9844 12.6528 10.9336 12.7153C10.8789 12.7778 10.7227 12.895 10.5859 12.9692C10.3516 13.0942 10.3086 13.102 9.38672 13.145L9.37109 13.563C9.36328 13.9067 9.34375 13.9966 9.28125 14.0864C9.23828 14.1411 9.15234 14.227 9.09375 14.2739C9.00781 14.3364 8.92578 14.3559 8.75391 14.3559C8.58203 14.3559 8.5 14.3364 8.41406 14.2739C8.35547 14.227 8.26953 14.1411 8.22656 14.0864C8.16016 13.9966 8.14844 13.9067 8.12891 13.1255L7.39062 13.1177C6.71875 13.1059 6.64062 13.0981 6.54297 13.0278C6.48828 12.9849 6.40234 12.8989 6.35547 12.8403C6.29297 12.7544 6.27344 12.6724 6.27344 12.5005C6.27344 12.3325 6.29297 12.2427 6.35156 12.1645C6.39453 12.1099 6.48047 12.0239 6.53906 11.977C6.64844 11.895 6.6875 11.895 10.0039 11.8755V10.6255L7.17188 10.6059L6.92188 10.4692C6.78516 10.395 6.62109 10.27 6.55859 10.1958C6.5 10.1216 6.41016 9.98095 6.35938 9.88329C6.27734 9.71532 6.27344 9.66454 6.27344 8.75048C6.27344 7.80907 6.27344 7.78954 6.37109 7.59814C6.42188 7.49267 6.53906 7.33251 6.625 7.24657C6.71094 7.16064 6.86719 7.04735 6.97656 6.99657C7.14453 6.91454 7.24219 6.89892 8.12891 6.87548V6.50439C8.12891 6.30126 8.14844 6.08642 8.17188 6.02782C8.19531 5.96532 8.24219 5.87548 8.28125 5.82079C8.31641 5.77001 8.40625 5.7036 8.48047 5.67626C8.55859 5.64501 8.70313 5.63329 8.8125 5.6411ZM13.1172 12.5005C13.1875 12.5005 13.3047 12.5239 13.3711 12.5552C13.4414 12.5864 13.8281 12.9419 14.2305 13.3442C14.8125 13.938 14.9648 14.1099 14.9844 14.2192C15 14.2934 15 14.4263 14.9844 14.5122C14.9661 14.6164 14.9089 14.7153 14.8125 14.8091C14.7188 14.9054 14.6198 14.9627 14.5156 14.9809C14.4297 14.9966 14.3008 14.9966 14.2305 14.9849C14.1602 14.9731 14.0312 14.8911 13.7539 14.6294L13.7422 15.8677C13.7344 17.0591 13.7305 17.1099 13.6523 17.2153C13.6055 17.2739 13.5195 17.3599 13.4648 17.4028C13.3867 17.4614 13.2969 17.4809 13.1289 17.4809C12.9609 17.4809 12.8711 17.4614 12.793 17.4028C12.7383 17.3599 12.6523 17.2739 12.6055 17.2153C12.5273 17.1099 12.5234 17.0591 12.5039 14.6294L12.3281 14.7974C12.2109 14.9067 12.1055 14.9692 12.0039 14.9849C11.9258 14.9966 11.7969 14.9966 11.7227 14.9809C11.6445 14.9653 11.5273 14.8911 11.4453 14.8091C11.3633 14.727 11.2891 14.6099 11.2734 14.5317C11.2578 14.4575 11.2578 14.3247 11.2734 14.2388C11.2969 14.102 11.3945 13.9809 12.0078 13.3403C12.5039 12.8247 12.7617 12.5864 12.8555 12.5513C12.9297 12.5239 13.0508 12.5044 13.1172 12.5005ZM16.9375 12.5161C17.043 12.5239 17.1758 12.5669 17.2266 12.6059C17.2773 12.645 17.3555 12.727 17.4023 12.7856C17.4805 12.8911 17.4844 12.9419 17.5039 15.3716L17.6797 15.2075C17.7812 15.1099 17.9102 15.0278 17.9805 15.0161C18.0508 15.0044 18.1797 15.0044 18.2656 15.02C18.3698 15.0382 18.4688 15.0955 18.5625 15.1919C18.6445 15.2739 18.7188 15.3911 18.7344 15.4692C18.75 15.5434 18.75 15.6763 18.7344 15.7622C18.7109 15.8989 18.6211 16.0083 17.9414 16.688C17.2617 17.3677 17.1523 17.4575 17.0156 17.4809C16.9297 17.4966 16.7969 17.4966 16.7227 17.4809C16.6133 17.4614 16.4414 17.3091 15.8164 16.688C15.1953 16.063 15.043 15.8911 15.0234 15.7817C15.0078 15.7075 15.0078 15.5747 15.0234 15.4888C15.0417 15.3846 15.099 15.2856 15.1953 15.1919C15.2773 15.1099 15.3945 15.0356 15.4727 15.02C15.5469 15.0044 15.6758 15.0044 15.7539 15.0161C15.8555 15.0317 15.9609 15.0942 16.2578 15.3716L16.2539 14.1919C16.2539 13.4419 16.2695 12.9692 16.2969 12.9028C16.3203 12.8403 16.3672 12.7505 16.4062 12.6958C16.4414 12.645 16.5312 12.5786 16.6055 12.5513C16.6836 12.52 16.8281 12.5083 16.9375 12.5161Z" fill="#222754"/>
</g>
</svg>
