<svg width="19" height="19" viewBox="0 0 19 19" fill="none" xmlns="http://www.w3.org/2000/svg">
<path fill-rule="evenodd" clip-rule="evenodd" d="M9.87637 2.93261C10.221 2.92919 10.3165 2.93943 10.4189 2.99402C10.4906 3.02815 10.5895 3.0998 10.6373 3.15439C10.685 3.20899 10.7362 3.30794 10.7499 3.37277C10.7635 3.4376 10.7669 3.54338 10.7567 3.60479C10.7465 3.6628 10.6953 3.76175 10.6407 3.82317C10.5895 3.88118 10.4974 3.94942 10.436 3.97672C10.3643 4.00743 10.163 4.02107 9.82177 4.02107C9.54539 4.02107 9.14958 4.04496 8.94486 4.07226C8.73672 4.09955 8.42963 4.16097 8.26243 4.20874C8.09183 4.2531 7.84615 4.33158 7.71649 4.37935C7.58342 4.43053 7.31727 4.55337 7.11937 4.65573C6.92147 4.75809 6.60073 4.96282 6.40282 5.10954C6.20492 5.25626 5.89783 5.52923 5.7204 5.71349C5.53614 5.90457 5.28023 6.22189 5.13351 6.44368C4.9902 6.65865 4.80936 6.96574 4.73429 7.12611C4.65923 7.28648 4.54321 7.58333 4.47497 7.79147C4.40673 7.99961 4.32143 8.34424 4.28389 8.5592C4.23612 8.83558 4.21565 9.10855 4.21565 9.48048C4.21565 9.8524 4.23612 10.1254 4.28389 10.4017C4.32143 10.6167 4.40673 10.9613 4.47497 11.1695C4.54321 11.3776 4.66605 11.6847 4.74453 11.8519C4.82642 12.0191 5.00726 12.3262 5.14375 12.5343C5.28365 12.7425 5.53273 13.053 5.70334 13.2304C5.87053 13.4078 6.13327 13.6467 6.2834 13.7627C6.43353 13.8787 6.64508 14.0288 6.75086 14.0971C6.86005 14.1687 7.06136 14.2779 7.19444 14.3462C7.33092 14.4144 7.57318 14.5202 7.73355 14.585C7.89392 14.6464 8.15324 14.7283 8.31361 14.7693C8.47398 14.8102 8.76401 14.8648 8.96192 14.8921C9.15982 14.916 9.47374 14.9399 9.6614 14.9399C9.84907 14.9399 10.163 14.916 10.3609 14.8921C10.5588 14.8648 10.8488 14.8102 11.0092 14.7693C11.1696 14.7283 11.4357 14.643 11.6063 14.5782C11.7735 14.5099 12.0635 14.3769 12.2512 14.2813C12.4355 14.1824 12.7426 13.9879 12.9336 13.8446C13.1213 13.7013 13.425 13.4317 13.6024 13.2441C13.7798 13.0564 14.0187 12.7664 14.1347 12.5992C14.2473 12.432 14.4043 12.1795 14.4793 12.0396C14.5578 11.8997 14.6738 11.6438 14.7386 11.4766C14.8069 11.3094 14.899 11.0159 14.9468 10.8283C14.9946 10.6406 15.0492 10.3472 15.073 10.18C15.0969 9.98206 15.1037 9.66473 15.0901 9.29281C15.0799 8.97548 15.0594 8.6138 15.0492 8.49096C15.0321 8.31353 15.0389 8.24187 15.0901 8.1361C15.1276 8.06444 15.2027 7.97232 15.2573 7.93137C15.3221 7.88701 15.4313 7.8563 15.5473 7.84948C15.7009 7.83924 15.7555 7.84948 15.851 7.91772C15.9158 7.95867 15.9977 8.03373 16.0318 8.0815C16.0694 8.12927 16.1171 8.29647 16.1479 8.4739C16.1752 8.64109 16.2059 8.98913 16.2195 9.24163C16.2297 9.50777 16.2229 9.87287 16.199 10.1117C16.1786 10.3369 16.1206 10.6986 16.0728 10.9136C16.0216 11.1285 15.9295 11.4595 15.8646 11.6472C15.7998 11.8348 15.6736 12.1419 15.5849 12.3296C15.4961 12.5173 15.3426 12.8005 15.2436 12.9608C15.1447 13.1212 14.9604 13.3805 14.8376 13.5409C14.7148 13.7013 14.4657 13.9777 14.2882 14.1551C14.1074 14.3325 13.814 14.5884 13.6365 14.7215C13.4591 14.8546 13.1725 15.0457 13.0053 15.148C12.8381 15.247 12.5378 15.4039 12.3399 15.4892C12.142 15.5779 11.8042 15.7042 11.5893 15.769C11.3743 15.8339 10.9614 15.9294 10.6748 15.9772C10.2824 16.0454 10.0401 16.0659 9.66823 16.0659C9.40208 16.0659 9.08475 16.0488 8.96192 16.0283C8.83908 16.0079 8.57976 15.9601 8.38186 15.9226C8.18395 15.885 7.83933 15.7929 7.61413 15.7178C7.38893 15.6428 7.03748 15.5029 6.82934 15.4039C6.6212 15.3016 6.26975 15.0968 6.04455 14.9467C5.81935 14.7966 5.48837 14.5441 5.31094 14.3871C5.13351 14.2302 4.85713 13.9469 4.70358 13.7593C4.54663 13.575 4.32484 13.2816 4.21224 13.1144C4.09964 12.9472 3.91197 12.606 3.79255 12.3637C3.67312 12.1215 3.52299 11.753 3.45816 11.5448C3.39333 11.3367 3.30802 11.0228 3.27049 10.8453C3.22955 10.6679 3.18178 10.354 3.15789 10.1458C3.13401 9.92064 3.12718 9.5726 3.13742 9.27575C3.15107 9.00278 3.18178 8.64109 3.20907 8.4739C3.23978 8.3067 3.3012 8.01326 3.34897 7.82559C3.40015 7.63793 3.48887 7.35472 3.55029 7.19435C3.6117 7.03398 3.74478 6.74395 3.84373 6.54605C3.94268 6.34814 4.10987 6.05811 4.21565 5.89774C4.31801 5.73737 4.51592 5.47805 4.64899 5.31768C4.78206 5.15731 5.02091 4.90481 5.17787 4.75468C5.33824 4.60455 5.60439 4.37935 5.77158 4.2531C5.94219 4.12685 6.23904 3.93236 6.43694 3.81635C6.63485 3.70375 6.96241 3.54338 7.17055 3.46148C7.37869 3.37618 7.68578 3.26699 7.85298 3.21922C8.02017 3.17145 8.27608 3.11004 8.41598 3.08274C8.55587 3.05203 8.84932 3.01108 9.06428 2.98379C9.27925 2.9599 9.64434 2.93602 9.87296 2.93261H9.87637ZM12.7528 2.92919L15.2948 2.92578L15.4313 3.02473C15.5064 3.07591 15.5951 3.17828 15.6258 3.24652C15.6804 3.35912 15.6872 3.49219 15.677 4.61478C15.6702 5.82268 15.6667 5.86021 15.5985 5.95575C15.5576 6.00693 15.4825 6.082 15.4347 6.11953C15.3665 6.17071 15.288 6.18777 15.1413 6.18777C14.9911 6.18777 14.9195 6.17071 14.8444 6.11612C14.7932 6.07517 14.7182 6.00011 14.6806 5.95234C14.6192 5.87045 14.6124 5.79538 14.5919 4.7888L13.6297 5.75102C12.7664 6.61429 12.6538 6.71324 12.531 6.73371C12.4559 6.74736 12.3399 6.74736 12.2751 6.73371C12.2069 6.72007 12.1045 6.65524 12.0328 6.58358C11.9612 6.51193 11.8963 6.40956 11.8827 6.34132C11.869 6.27649 11.869 6.16048 11.8827 6.08541C11.9032 5.96257 12.0055 5.84997 13.8208 4.02107H13.3397C13.0155 4.02107 12.8176 4.00743 12.746 3.97672C12.6845 3.94942 12.5924 3.88118 12.5378 3.82317C12.4866 3.76175 12.4355 3.65598 12.4252 3.58773C12.415 3.51608 12.415 3.40348 12.4286 3.33865C12.4423 3.26017 12.5037 3.16804 12.6027 3.07591L12.7528 2.92919ZM9.73306 5.67254C9.82519 5.67937 9.93779 5.71349 9.98214 5.74761C10.0299 5.78173 10.0982 5.85339 10.1357 5.90798C10.2005 5.98987 10.2108 6.05811 10.2312 6.79854L10.4428 6.84973C10.5588 6.87702 10.7669 6.9555 10.9102 7.02374C11.0501 7.09199 11.2412 7.21824 11.3368 7.30013C11.4289 7.38543 11.5585 7.53898 11.6234 7.63793C11.6882 7.74029 11.7701 7.9109 11.8042 8.02008C11.8383 8.12927 11.8656 8.27941 11.8656 8.35106C11.8656 8.42613 11.8452 8.53873 11.8179 8.60015C11.794 8.66156 11.7257 8.75369 11.6643 8.80487C11.6063 8.85606 11.5005 8.90724 11.4289 8.92089C11.3606 8.93112 11.2515 8.93112 11.19 8.92089C11.1286 8.90724 11.0263 8.84923 10.958 8.78781C10.8932 8.7264 10.8249 8.63086 10.8079 8.57285C10.7908 8.51826 10.7703 8.41589 10.7601 8.34424C10.7465 8.26235 10.6987 8.18046 10.627 8.11221C10.5656 8.05421 10.4325 7.97573 10.3302 7.93819C10.2142 7.89384 10.0163 7.86313 9.81836 7.84948C9.63752 7.84265 9.40208 7.84948 9.28948 7.86995C9.17688 7.89384 9.00286 7.94843 8.90391 7.9962C8.79472 8.04738 8.69918 8.12245 8.65824 8.19069C8.62071 8.25211 8.59 8.34083 8.59 8.38518C8.59 8.43295 8.62071 8.51826 8.65483 8.57285C8.69236 8.63086 8.7879 8.71275 8.86638 8.76052C8.94827 8.80487 9.06087 8.85606 9.11888 8.87312C9.17347 8.88677 9.44985 8.91747 9.73306 8.93454C10.0538 8.95501 10.3404 8.99254 10.5008 9.0369C10.6407 9.07784 10.8625 9.16315 10.9921 9.2348C11.1389 9.31328 11.2992 9.43612 11.4186 9.56237C11.5244 9.67838 11.6541 9.8524 11.7053 9.95476C11.7564 10.0605 11.8145 10.2448 11.8383 10.3642C11.8656 10.528 11.869 10.644 11.8418 10.7907C11.8213 10.9067 11.7633 11.0876 11.7087 11.2002C11.6507 11.3298 11.5381 11.4834 11.405 11.6096C11.2856 11.7325 11.1081 11.8621 10.9785 11.927C10.8556 11.985 10.6407 12.0635 10.2449 12.1658L10.2278 12.5616C10.2142 12.8824 10.1971 12.9711 10.1425 13.0461C10.105 13.0973 10.0299 13.1724 9.97532 13.2099C9.90367 13.2645 9.83201 13.2816 9.68188 13.2816C9.53174 13.2816 9.45668 13.2645 9.38502 13.2099C9.33043 13.1724 9.25877 13.0973 9.22124 13.0461C9.16323 12.9711 9.14958 12.8824 9.11888 12.1624L8.91415 12.1215C8.80155 12.0976 8.60364 12.0293 8.47398 11.9645C8.34091 11.8997 8.1396 11.7598 8.01335 11.6438C7.86321 11.5039 7.75061 11.3606 7.67555 11.2172C7.61413 11.0944 7.54589 10.8965 7.522 10.7737C7.4947 10.6099 7.4947 10.5178 7.522 10.4154C7.54589 10.3369 7.61072 10.2346 7.68237 10.1697C7.75061 10.1083 7.85298 10.0503 7.91439 10.0367C7.97581 10.0264 8.085 10.0264 8.15324 10.0367C8.22831 10.0503 8.33067 10.1049 8.40233 10.1697C8.47057 10.2311 8.53881 10.3267 8.55246 10.3813C8.56952 10.4393 8.59 10.5382 8.60023 10.6031C8.61388 10.685 8.66393 10.7657 8.75037 10.8453C8.82202 10.9136 8.96192 10.9955 9.06769 11.033C9.21442 11.0842 9.34749 11.0978 9.68188 11.0978C10.0163 11.0978 10.1493 11.0842 10.2961 11.033C10.3984 10.9955 10.5417 10.9136 10.6134 10.8453C10.685 10.7771 10.7499 10.6815 10.7601 10.6201C10.7703 10.5587 10.7567 10.4905 10.7226 10.4427C10.6953 10.4018 10.627 10.3267 10.5759 10.2789C10.5247 10.2311 10.3984 10.1629 10.2961 10.1254C10.1596 10.0742 9.96508 10.0435 9.61363 10.023C9.30995 10.0025 9.01992 9.96159 8.86297 9.92064C8.71966 9.87969 8.50469 9.7978 8.38527 9.73297C8.25561 9.66814 8.08159 9.53507 7.9724 9.41906C7.86663 9.31328 7.74038 9.15291 7.69261 9.06761C7.64143 8.98572 7.57659 8.81511 7.54589 8.69227C7.50494 8.53873 7.4947 8.40566 7.50835 8.2487C7.52541 8.09856 7.56977 7.94843 7.65507 7.771C7.73696 7.60381 7.83933 7.4605 7.95534 7.34448C8.05429 7.25236 8.24878 7.11928 8.38868 7.04763C8.52517 6.97939 8.75037 6.89408 9.13594 6.79854V6.45051C9.13594 6.25943 9.153 6.05811 9.17006 6.00693C9.19053 5.95575 9.23489 5.87386 9.2656 5.8295C9.29972 5.78514 9.3782 5.72714 9.44303 5.69984C9.51127 5.67595 9.63752 5.66231 9.73306 5.67254Z" fill="#222754"/>
</svg>
