<svg width="19" height="19" viewBox="0 0 19 19" fill="none" xmlns="http://www.w3.org/2000/svg">
<g clip-path="url(#clip0_2690_57236)">
<path d="M18.748 9.20703C18.748 4.2365 14.7186 0.207031 9.74805 0.207031C4.77752 0.207031 0.748047 4.2365 0.748047 9.20703C0.748047 13.6992 4.03923 17.4226 8.3418 18.0977V11.8086H6.05664V9.20703H8.3418V7.22422C8.3418 4.96859 9.68547 3.72266 11.7413 3.72266C12.7259 3.72266 13.7559 3.89844 13.7559 3.89844V6.11328H12.621C11.503 6.11328 11.1543 6.80705 11.1543 7.51883V9.20703H13.6504L13.2514 11.8086H11.1543V18.0977C15.4569 17.4226 18.748 13.6992 18.748 9.20703Z" fill="#1877F2"/>
<path d="M13.2514 11.8086L13.6504 9.20703H11.1543V7.51883C11.1543 6.80698 11.503 6.11328 12.621 6.11328H13.7559V3.89844C13.7559 3.89844 12.7259 3.72266 11.7412 3.72266C9.68547 3.72266 8.3418 4.96859 8.3418 7.22422V9.20703H6.05664V11.8086H8.3418V18.0977C8.807 18.1706 9.27717 18.2072 9.74805 18.207C10.2189 18.2072 10.6891 18.1706 11.1543 18.0977V11.8086H13.2514Z" fill="white"/>
</g>
<defs>
<clipPath id="clip0_2690_57236">
<rect width="18" height="18" fill="white" transform="translate(0.748047 0.207031)"/>
</clipPath>
</defs>
</svg>
