<svg width="20" height="20" viewBox="0 0 20 20" fill="none" xmlns="http://www.w3.org/2000/svg">
<g clip-path="url(#clip0_2468_2517)">
<path fill-rule="evenodd" clip-rule="evenodd" d="M9.90251 0.590217C10.0549 0.586311 10.4416 0.613654 10.7619 0.644904C11.0861 0.680061 11.5588 0.750373 11.8166 0.801154C12.0744 0.851936 12.4923 0.957404 12.7463 1.03162C12.9963 1.10975 13.4103 1.26209 13.6603 1.37147C13.9142 1.47694 14.2619 1.6449 14.4338 1.73865C14.6056 1.8324 14.9142 2.016 15.1173 2.14881C15.3205 2.28162 15.6564 2.52772 15.8595 2.69178C16.0627 2.85584 16.3986 3.15662 16.6017 3.35975C16.8048 3.56287 17.1095 3.89881 17.2736 4.10194C17.4377 4.30506 17.6877 4.64881 17.8283 4.86365C17.9728 5.0785 18.2189 5.5199 18.3791 5.84022C18.5392 6.16053 18.7306 6.59412 18.8048 6.79725C18.8791 7.00037 18.9923 7.37147 19.0548 7.61756C19.1213 7.86365 19.1994 8.23475 19.2345 8.43787C19.2697 8.641 19.3166 9.04725 19.34 9.33631C19.3634 9.62928 19.3713 10.0785 19.3556 10.3519C19.3439 10.6215 19.3088 11.016 19.2775 11.2308C19.2463 11.4457 19.1877 11.7894 19.0627 12.3637L19.1759 12.4808C19.2384 12.5433 19.3088 12.6371 19.3322 12.684C19.3556 12.7347 19.3752 12.8363 19.3752 12.9105C19.3752 12.9847 19.3517 13.1058 19.3205 13.1722C19.2931 13.2426 19.2345 13.3324 19.1955 13.3676C19.1525 13.4027 18.2541 13.8441 15.2736 15.2543L14.3556 17.1879C13.8478 18.2504 13.3947 19.1605 13.3478 19.2113C13.3009 19.2582 13.1838 19.3246 13.0861 19.3597C12.9338 19.4144 12.8908 19.4183 12.758 19.3715C12.6759 19.3402 12.5548 19.2582 12.3634 19.0629L11.9923 19.1449C11.7892 19.1879 11.4455 19.2465 11.2306 19.2777C11.0158 19.309 10.6213 19.3441 10.3517 19.3558C10.0783 19.3715 9.62907 19.3637 9.3361 19.3402C9.04704 19.3168 8.64079 19.2699 8.43766 19.2347C8.23454 19.1996 7.87516 19.1215 7.63688 19.0629C7.3986 19.0043 7.03141 18.891 6.81657 18.809C6.60173 18.7308 6.16423 18.5394 5.84001 18.3793C5.51969 18.2191 5.07829 17.973 4.86344 17.8285C4.6486 17.6879 4.30485 17.4379 4.10172 17.2738C3.8986 17.1097 3.56266 16.8051 3.35954 16.6019C3.15641 16.3988 2.87516 16.0902 2.73454 15.9183C2.59391 15.7465 2.33219 15.3871 2.15641 15.1176C1.97673 14.848 1.71891 14.3988 1.58219 14.1215C1.44548 13.8441 1.2736 13.4457 1.19938 13.2426C1.12126 13.0394 1.00798 12.6683 0.941569 12.4222C0.875163 12.1762 0.785319 11.7621 0.738444 11.5043C0.683756 11.1918 0.6486 10.7855 0.636881 10.2933C0.621256 9.84022 0.632975 9.37147 0.660319 9.0824C0.687663 8.82459 0.754069 8.3949 0.808756 8.12537C0.859538 7.85584 0.996256 7.36365 1.10563 7.03162C1.21891 6.68006 1.42204 6.18787 1.5861 5.85975C1.73844 5.54725 2.00797 5.0824 2.17985 4.82459C2.35173 4.56678 2.63298 4.18787 2.80485 3.98475C2.97673 3.78162 3.28141 3.4535 3.48063 3.26209C3.68376 3.06678 3.98844 2.79334 4.16032 2.65662C4.33219 2.5199 4.65641 2.28553 4.88298 2.13709C5.10954 1.98865 5.55876 1.73865 5.87907 1.5785C6.2111 1.41444 6.71891 1.2074 7.05094 1.09803C7.37516 0.992561 7.82048 0.867561 8.04704 0.820686C8.2736 0.769904 8.72282 0.699592 9.04313 0.664436C9.36735 0.625373 9.75407 0.594123 9.90251 0.590217ZM8.34001 2.04725L8.06657 2.10975C7.89469 2.54725 7.76579 2.90662 7.67204 3.18397C7.57438 3.46522 7.42985 3.93006 7.34391 4.21912C7.26188 4.50819 7.15641 4.90662 7.10954 5.09803C7.06266 5.28944 6.99235 5.61756 6.94938 5.82069C6.91032 6.02381 6.87516 6.2035 6.87516 6.22303C6.87516 6.23865 8.2736 6.25037 9.98063 6.25037H13.0861C13.0861 6.11365 13.0236 5.80115 12.9494 5.46912C12.8752 5.13709 12.7345 4.59022 12.6408 4.25819C12.5431 3.92615 12.3517 3.32069 12.2111 2.91053C12.0588 2.46912 11.9259 2.14881 11.8869 2.12147C11.8478 2.09412 11.6681 2.04725 11.4845 2.01209C11.3009 1.98084 11.0197 1.93787 10.8595 1.91444C10.6994 1.8949 10.2931 1.87928 9.9611 1.87928C9.62907 1.88319 9.18766 1.90662 8.98454 1.93397C8.78141 1.96131 8.49235 2.01209 8.34001 2.04725ZM13.6291 3.22303C13.715 3.48084 13.8556 3.9574 13.9416 4.27772C14.0314 4.60194 14.1681 5.17615 14.2502 5.55897L14.3947 6.25037C16.8478 6.25037 17.1486 6.23865 17.1486 6.2035C17.1486 6.17615 17.047 5.98475 16.922 5.78162C16.8009 5.5785 16.5861 5.26209 16.4455 5.0785C16.3088 4.8949 16.0431 4.59022 15.8595 4.39881C15.6759 4.2074 15.3791 3.92615 15.1955 3.77381C15.0119 3.62147 14.6877 3.37928 14.4728 3.23475C14.258 3.09412 13.9494 2.90272 13.7853 2.81287C13.5861 2.7035 13.4884 2.66834 13.4845 2.7035C13.4806 2.73084 13.547 2.96522 13.6291 3.22303ZM5.56657 3.19178C5.41813 3.28944 5.14469 3.48475 4.9611 3.62928C4.77751 3.7699 4.46891 4.04334 4.27751 4.23865C4.08219 4.43006 3.81657 4.72303 3.68766 4.88319C3.55876 5.04334 3.36344 5.30897 3.25407 5.46912C3.1486 5.62928 3.00407 5.85975 2.93766 5.97694C2.86735 6.09412 2.81266 6.2035 2.81266 6.22303C2.81266 6.23865 3.43766 6.25037 4.19938 6.25037H5.5861C5.61344 6.11365 5.66813 5.84803 5.72282 5.56678C5.78141 5.28944 5.89469 4.79725 5.97673 4.47303C6.05876 4.15272 6.21501 3.61756 6.32438 3.29334C6.45719 2.8949 6.50798 2.69569 6.47673 2.69569C6.44938 2.69569 6.29313 2.7699 6.13298 2.85584C5.97282 2.94569 5.71891 3.09412 5.56657 3.19178ZM2.11344 8.04725C2.04704 8.31678 1.96501 8.73475 1.93376 8.97694C1.90251 9.21522 1.87516 9.66834 1.87516 9.98084C1.87516 10.2933 1.90251 10.7543 1.93766 11.0082C1.96891 11.2582 2.03141 11.6137 2.07438 11.7972C2.11735 11.9808 2.17594 12.2113 2.20719 12.3168L2.26579 12.5004H5.41032C5.35954 11.9691 5.32829 11.6137 5.30876 11.3676C5.29313 11.1215 5.2736 10.5043 5.27751 10.0004C5.27751 9.49647 5.29313 8.85584 5.31266 8.57459C5.33219 8.29725 5.36344 7.93787 5.37907 7.78162L5.41032 7.50037C2.97672 7.50037 2.26188 7.51209 2.25407 7.53162C2.24235 7.54725 2.17985 7.77772 2.11344 8.04725ZM6.59391 8.18397C6.56266 8.51209 6.54313 9.24647 6.54313 10.0199C6.54313 10.7738 6.56657 11.5121 6.59391 11.7972C6.62126 12.0668 6.65251 12.3324 6.66032 12.3949L6.67985 12.5004C9.78923 12.5004 10.1525 12.4887 10.1408 12.4535C10.1369 12.4262 9.95719 11.8832 9.74626 11.2504C9.43376 10.3012 9.36735 10.0668 9.38297 9.92225C9.39079 9.82459 9.43376 9.69569 9.48063 9.62928C9.5236 9.56678 9.62126 9.48084 9.70329 9.44569C9.78141 9.40662 9.91032 9.37537 9.99235 9.37537C10.0744 9.37537 10.8322 9.60584 11.7775 9.92225C12.6798 10.223 13.4377 10.4691 13.4572 10.4691C13.4845 10.4691 13.4845 10.1683 13.465 9.5824C13.4494 9.09022 13.4103 8.43006 13.3791 8.10584C13.3478 7.78553 13.3205 7.516 13.3205 7.51209C13.3205 7.50428 11.8283 7.50037 10.0041 7.50037C6.87516 7.50037 6.68376 7.50428 6.66423 7.57069C6.65641 7.60584 6.62516 7.88319 6.59391 8.18397ZM14.5822 7.62928C14.5939 7.69569 14.6291 8.00037 14.6525 8.30115C14.6798 8.60194 14.7033 9.30897 14.7033 9.87147L14.7072 10.8988C17.0978 11.6957 17.8127 11.934 17.8322 11.9418C17.8556 11.9496 17.9103 11.7621 17.9572 11.516C18.008 11.2738 18.0666 10.8558 18.09 10.5863C18.1134 10.3168 18.1213 9.90662 18.1095 9.66834C18.0939 9.43006 18.0548 9.05506 18.0236 8.8285C17.9923 8.60194 17.9142 8.21522 17.8478 7.96912C17.7853 7.72303 17.7345 7.516 17.7345 7.51209C17.7345 7.50428 17.0197 7.50037 16.1486 7.50037H14.5588L14.5822 7.62928ZM11.9845 14.0004C12.5431 15.6566 13.0119 17.0082 13.0314 17.0004C13.0509 16.9926 13.3322 16.4222 13.6564 15.7308C14.0197 14.9652 14.2931 14.4301 14.3595 14.3637C14.4298 14.2933 14.9611 14.0238 15.7345 13.6605C16.4298 13.3363 17.0041 13.0512 17.0041 13.0316C17.008 13.0121 15.6564 12.5433 13.9963 11.9926L10.9767 10.9887L11.9845 14.0004ZM2.99626 14.1137C3.09782 14.2777 3.29704 14.5785 3.43766 14.7777C3.57829 14.9769 3.92204 15.3715 4.21891 15.6683C4.50797 15.9613 4.88688 16.3051 5.05876 16.4301C5.23063 16.559 5.46891 16.7269 5.5861 16.8012C5.70329 16.8793 5.94938 17.0238 6.13298 17.1254C6.31657 17.223 6.47282 17.3051 6.48454 17.3051C6.49626 17.3051 6.41813 17.0355 6.31657 16.7074C6.21501 16.3832 6.05485 15.8051 5.95719 15.4301C5.86344 15.0551 5.75016 14.5551 5.70329 14.3168C5.65641 14.0824 5.61344 13.8558 5.60172 13.8207C5.5861 13.7543 5.48844 13.7504 4.19938 13.7504C3.43766 13.7504 2.81266 13.766 2.81266 13.7816C2.81266 13.7972 2.89469 13.9457 2.99626 14.1137ZM6.89079 13.8988C6.90641 13.9769 6.98063 14.3168 7.05876 14.6488C7.13298 14.9808 7.2736 15.5238 7.36735 15.8519C7.4611 16.1801 7.63688 16.723 7.75798 17.0629C7.87907 17.3988 8.00016 17.7269 8.03141 17.7855C8.07438 17.8715 8.12516 17.8988 8.28923 17.934C8.40251 17.9574 8.65251 17.9965 8.84782 18.0277C9.03923 18.0551 9.40251 18.0941 9.6486 18.1058C9.91813 18.1254 10.3009 18.1176 10.6056 18.0902C10.883 18.0629 11.297 18.0082 11.5236 17.9652C11.7502 17.9222 11.9377 17.8832 11.9416 17.8793C11.9455 17.8754 11.6447 16.9496 11.2736 15.8207L10.6017 13.7699L6.86344 13.7504L6.89079 13.8988Z" fill="#222754"/>
</g>
<defs>
<clipPath id="clip0_2468_2517">
<rect width="20" height="20" fill="white"/>
</clipPath>
</defs>
</svg>
