<svg width="16" height="16" viewBox="0 0 16 16" fill="none" xmlns="http://www.w3.org/2000/svg">
<path fill-rule="evenodd" clip-rule="evenodd" d="M15.3333 7.20588C14.9653 7.20588 14.6667 7.49576 14.6667 7.85294V8.5H13.3333V7.52941C13.3333 6.81569 12.7354 6.23529 12 6.23529H10.3333V4.29412H11C11.368 4.29412 11.6667 4.00424 11.6667 3.64706C11.6667 3.28988 11.368 3 11 3H5C4.632 3 4.33333 3.28988 4.33333 3.64706C4.33333 4.00424 4.632 4.29412 5 4.29412H5.66667V6.23529H4C3.26465 6.23529 2.66667 6.81569 2.66667 7.52941H1.33333V6.88235C1.33333 6.52518 1.03467 6.23529 0.666667 6.23529C0.298665 6.23529 0 6.52518 0 6.88235V11.7353C0 12.0925 0.298665 12.3824 0.666667 12.3824C1.03467 12.3824 1.33333 12.0925 1.33333 11.7353V11.0882H2.82031C2.88265 11.205 2.95833 11.316 3.05697 11.4118L5.33333 13.6209C5.58496 13.8654 5.91992 14 6.27637 14H12C12.7354 14 13.3333 13.4196 13.3333 12.7059V12.0588H14.6667V12.7059C14.6667 13.0631 14.9653 13.3529 15.3333 13.3529C15.7013 13.3529 16 13.0631 16 12.7059V7.85294C16 7.49576 15.7013 7.20588 15.3333 7.20588ZM7 4.29412H9V6.23529H7V4.29412ZM2.66667 8.82353H1.33333V9.79412H2.66667V8.82353ZM12 12.7059H6.27637L4 10.4968V7.52941H12V12.7059ZM13.3333 9.79412V10.7647H14.6667V9.79412H13.3333Z" fill="#ACB9CB"/>
</svg>
