<svg width="16" height="16" viewBox="0 0 16 16" fill="none" xmlns="http://www.w3.org/2000/svg">
<path fill-rule="evenodd" clip-rule="evenodd" d="M1.97691 13.9607V13.9607C0.970017 12.9538 0.970017 11.3206 1.97691 10.3137L10.3135 1.97707C11.3204 0.969803 12.9536 0.969803 13.9605 1.97707C14.9678 2.98433 14.9678 4.61717 13.9605 5.62407L5.62391 13.9607C4.61702 14.9676 2.98417 14.9676 1.97691 13.9607Z" stroke="#ACB9CB" stroke-width="1.10526"/>
<path d="M11.4994 7.85223L14.0245 10.3774C14.9964 11.3493 14.9964 12.925 14.0245 13.8965L13.8967 14.0248C12.9248 14.9967 11.3494 14.9967 10.3772 14.0248L7.85237 11.4992" stroke="#ACB9CB" stroke-width="1.10526"/>
<path d="M4.16909 7.81624L1.91325 5.5604C0.940986 4.58851 0.940986 3.01277 1.91325 2.04088L2.04109 1.9134C3.01262 0.941138 4.58872 0.941138 5.56025 1.9134L7.81572 4.16888" stroke="#ACB9CB" stroke-width="1.10526"/>
<path d="M7.96879 5.38986V6.1267" stroke="#ACB9CB" stroke-width="1.10526"/>
<path d="M7.96879 6.86353V7.60037" stroke="#ACB9CB" stroke-width="1.10526"/>
<path d="M7.96879 8.33722V9.07406" stroke="#ACB9CB" stroke-width="1.10526"/>
<path d="M9.44248 6.86353V7.60037" stroke="#ACB9CB" stroke-width="1.10526"/>
<path d="M9.44248 8.33722V9.07406" stroke="#ACB9CB" stroke-width="1.10526"/>
<path d="M6.49511 6.86353V7.60037" stroke="#ACB9CB" stroke-width="1.10526"/>
<path d="M6.49511 8.33722V9.07406" stroke="#ACB9CB" stroke-width="1.10526"/>
<path d="M7.96879 9.81091V10.5478" stroke="#ACB9CB" stroke-width="1.10526"/>
</svg>
