<svg width="16" height="16" viewBox="0 0 16 16" fill="none" xmlns="http://www.w3.org/2000/svg">
<path d="M10.1362 14.8343H3.62459C2.90538 14.8343 2.32227 14.2511 2.32227 13.5319V8.64822C2.32227 8.30277 2.45934 7.97166 2.70385 7.72747L7.39678 3.03422C7.65106 2.78026 8.06324 2.78026 8.31752 3.03422L13.0105 7.72747C13.2546 7.97166 13.392 8.30277 13.392 8.64822V13.5319C13.392 14.2511 12.8089 14.8343 12.0897 14.8343H10.1362" stroke="#ACB9CB" stroke-width="0.976744"/>
<path d="M14.6939 7.46162L8.77748 1.54548C8.26925 1.03692 7.44423 1.03692 6.936 1.54548L1.01953 7.46162" stroke="#ACB9CB" stroke-width="0.976744"/>
<path fill-rule="evenodd" clip-rule="evenodd" d="M8.83435 8.97674C8.83435 9.51623 8.39709 9.95349 7.8576 9.95349C7.31812 9.95349 6.88086 9.51623 6.88086 8.97674C6.88086 8.43726 7.31812 8 7.8576 8C8.39709 8 8.83435 8.43726 8.83435 8.97674Z" stroke="#ACB9CB" stroke-width="0.976744"/>
<path d="M7.85615 9.95312V13.2089" stroke="#ACB9CB" stroke-width="0.976744"/>
<path d="M7.85742 12.5612H8.83417" stroke="#ACB9CB" stroke-width="0.976744"/>
<path d="M7.85742 11.5847H8.50858" stroke="#ACB9CB" stroke-width="0.976744"/>
</svg>
