<svg width="32" height="32" viewBox="0 0 32 32" fill="none" xmlns="http://www.w3.org/2000/svg">
<g id="ic_add_files">
<path id="XMLID_444_" fill-rule="evenodd" clip-rule="evenodd" d="M30.5455 5.81818H26.1818V1.45455C26.1818 0.651249 25.5306 0 24.7273 0H1.45455C0.651249 0 0 0.651249 0 1.45455V24.7273C0 25.5306 0.651249 26.1818 1.45455 26.1818H5.81818V30.5455C5.81818 31.3488 6.46943 32 7.27273 32H30.5455C31.3488 32 32 31.3488 32 30.5455V7.27273C32 6.46943 31.3488 5.81818 30.5455 5.81818ZM2.90909 23.2727V2.90906H23.2727V5.81815H7.27273C6.46943 5.81815 5.81818 6.4694 5.81818 7.27269V23.2727H2.90909ZM8.72705 29.0912H29.0907V8.72754H24.728L24.7271 8.72764L24.7261 8.72754H8.72705V29.0912Z" fill="#4272C5"/>
</g>
</svg>
