<svg width="32" height="32" viewBox="0 0 32 32" fill="none" xmlns="http://www.w3.org/2000/svg">
<g id="ic_crown">
<path id="Shape" fill-rule="evenodd" clip-rule="evenodd" d="M29.9911 24.0269H21.6328V15.4602C21.6328 14.9258 21.1986 14.4927 20.663 14.4927H16.9708V12.3203C18.3 11.5918 19.338 10.4658 19.9604 9.12964H21.0963C23.055 9.12964 24.6484 7.53955 24.6484 5.58521V3.2605C24.6484 2.72583 24.2144 2.29272 23.6786 2.29272H20.6151V0.967773C20.6151 0.43335 20.1808 0 19.6453 0H12.3295C11.794 0 11.3597 0.43335 11.3597 0.967773V2.29272H8.32312C7.78758 2.29272 7.35357 2.72583 7.35357 3.2605V5.58496C7.35357 7.53955 8.94698 9.12964 10.9057 9.12964H12.0193C12.6463 10.4697 13.6922 11.5972 15.0312 12.3232V14.4924H11.3154C10.7799 14.4924 10.3456 14.9258 10.3456 15.4602V19.2598H1.96784C1.4323 19.2598 0.998047 19.6929 0.998047 20.2275V31.0322C0.998047 31.5667 1.4323 32 1.96784 32H29.9911C30.5266 32 30.9609 31.5667 30.9609 31.0322V24.9946C30.9606 24.46 30.5266 24.0269 29.9911 24.0269ZM29.0219 30.0642H21.6334V25.9619H29.0219V30.0642ZM19.6938 16.4277H12.2858V30.0642H19.6938V16.4277ZM13.3 1.93555H18.6762V6.17285C18.6762 8.05347 17.6384 9.76587 15.999 10.6462C14.3469 9.76953 13.3 8.05151 13.3 6.16113V1.93555ZM22.7096 5.58496V4.22803H20.6156V6.17285C20.6156 6.51807 20.5902 6.85938 20.5407 7.19409H21.0971C21.9861 7.19409 22.7096 6.47241 22.7096 5.58496ZM10.9064 7.19434C10.0171 7.19434 9.29365 6.47241 9.29365 5.58521V4.22803H11.3605V6.16113C11.3605 6.5105 11.3864 6.85571 11.4368 7.19434H10.9064ZM10.346 21.1953H2.93799V30.0647H10.346V21.1953Z" fill="#F65A03"/>
</g>
</svg>
