<svg width="14" height="14" viewBox="0 0 14 14" fill="none" xmlns="http://www.w3.org/2000/svg">
<path d="M6.3 7.7C6.3 7.51435 6.37375 7.3363 6.50503 7.20503C6.6363 7.07375 6.81435 7 7 7C7.18565 7 7.3637 7.07375 7.49497 7.20503C7.62625 7.3363 7.7 7.51435 7.7 7.7V9.8C7.7 9.98565 7.62625 10.1637 7.49497 10.295C7.3637 10.4263 7.18565 10.5 7 10.5C6.81435 10.5 6.6363 10.4263 6.50503 10.295C6.37375 10.1637 6.3 9.98565 6.3 9.8V7.7ZM7 3.85C6.72152 3.85 6.45445 3.96062 6.25754 4.15754C6.06062 4.35445 5.95 4.62152 5.95 4.9C5.95 5.17848 6.06062 5.44555 6.25754 5.64246C6.45445 5.83938 6.72152 5.95 7 5.95C7.27848 5.95 7.54555 5.83938 7.74246 5.64246C7.93938 5.44555 8.05 5.17848 8.05 4.9C8.05 4.62152 7.93938 4.35445 7.74246 4.15754C7.54555 3.96062 7.27848 3.85 7 3.85ZM0 7C0 5.14348 0.737498 3.36301 2.05025 2.05025C3.36301 0.737498 5.14348 0 7 0C8.85651 0 10.637 0.737498 11.9497 2.05025C13.2625 3.36301 14 5.14348 14 7C14 8.85651 13.2625 10.637 11.9497 11.9497C10.637 13.2625 8.85651 14 7 14C5.14348 14 3.36301 13.2625 2.05025 11.9497C0.737498 10.637 0 8.85651 0 7ZM7 1.4C5.51479 1.4 4.09041 1.99 3.0402 3.0402C1.99 4.09041 1.4 5.51479 1.4 7C1.4 8.48521 1.99 9.90959 3.0402 10.9598C4.09041 12.01 5.51479 12.6 7 12.6C8.48521 12.6 9.90959 12.01 10.9598 10.9598C12.01 9.90959 12.6 8.48521 12.6 7C12.6 5.51479 12.01 4.09041 10.9598 3.0402C9.90959 1.99 8.48521 1.4 7 1.4Z" fill="#4272C5"/>
</svg>
