<svg width="42" height="42" viewBox="0 0 42 42" fill="none" xmlns="http://www.w3.org/2000/svg">
<g clip-path="url(#clip0_2085_22306)">
<path fill-rule="evenodd" clip-rule="evenodd" d="M21.0246 0.00809219C21.2379 -0.000110931 21.4758 0.0327016 21.5496 0.0819203C21.6316 0.122936 25.4625 1.3288 30.0645 2.74794C34.6664 4.16708 38.5875 5.40575 38.7762 5.49598C39.0223 5.61083 39.1781 5.75848 39.293 5.98817C39.457 6.30809 39.457 6.48036 39.457 15.1347C39.457 23.5757 39.4488 24.0022 39.293 25.1261C39.1945 25.7659 39.0141 26.6929 38.891 27.1933C38.7598 27.6936 38.5137 28.4647 38.3496 28.9159C38.1773 29.3671 37.8738 30.0725 37.6688 30.4745C37.4719 30.8765 37.1273 31.4917 36.9223 31.828C36.709 32.1643 36.2988 32.755 36.0117 33.1405C35.7246 33.5261 35.0602 34.2725 34.5352 34.814C34.0184 35.3472 33.2227 36.0772 32.7715 36.4464C32.3203 36.8073 31.582 37.3487 31.1309 37.6522C30.6797 37.9558 30.0562 38.3495 29.7363 38.53C29.4164 38.7104 28.8504 39.0222 28.4648 39.2272C28.0793 39.4241 27.3246 39.785 26.7832 40.0229C26.2418 40.269 25.3723 40.6218 24.8555 40.8104C24.3387 41.0073 23.4117 41.319 22.8047 41.5077C22.1977 41.6964 21.6316 41.885 21.5496 41.9261C21.4758 41.9671 21.2215 41.9999 21 41.9999C20.7703 41.9999 20.5242 41.9671 20.4422 41.9261C20.3684 41.885 19.7449 41.6718 19.0723 41.4667C18.3914 41.2534 17.2348 40.8433 16.4883 40.5479C15.7418 40.2526 14.618 39.7522 13.9863 39.4405C13.3547 39.1206 12.5754 38.7186 12.2637 38.53C11.9438 38.3495 11.3203 37.9558 10.8691 37.6522C10.418 37.3487 9.75352 36.8647 9.39258 36.5858C9.03164 36.2987 8.33437 35.6753 7.84219 35.1995C7.3582 34.7155 6.72656 34.0511 6.43945 33.7147C6.16055 33.3784 5.67656 32.7304 5.37305 32.2792C5.06953 31.828 4.58555 30.9749 4.30664 30.3925C4.01953 29.81 3.6668 28.9897 3.52734 28.5878C3.38789 28.1858 3.18281 27.4968 3.07617 27.0702C2.96953 26.6436 2.80547 25.7741 2.70703 25.1425C2.55117 24.035 2.54297 23.6659 2.54297 15.1511C2.54297 6.48036 2.54297 6.30809 2.70703 5.98817C2.82188 5.75848 2.97773 5.61083 3.21563 5.49598C3.4125 5.40575 7.33359 4.16708 11.9355 2.74794C16.5375 1.3288 20.3766 0.131139 20.4668 0.0901235C20.557 0.0491078 20.8031 0.00809219 21.0164 0.00809219H21.0246ZM5.68477 7.25966L5.01211 7.46473C5.06133 23.3296 5.08594 24.6667 5.19258 25.2245C5.26641 25.5854 5.40586 26.1925 5.5043 26.578C5.60273 26.9636 5.81602 27.628 5.97188 28.0546C6.13594 28.4811 6.39844 29.1128 6.5707 29.4491C6.74297 29.7854 7.13672 30.4499 7.45664 30.9257C7.77656 31.4015 8.34258 32.1397 8.72813 32.5663C9.10547 32.9929 9.7043 33.5999 10.0652 33.9116C10.418 34.2233 11.0414 34.7319 11.4516 35.0272C11.8535 35.3308 12.4688 35.7573 12.8051 35.9706C13.1414 36.1921 13.9371 36.635 14.5688 36.9632C15.2004 37.2913 16.1602 37.7507 16.7016 37.9886C17.243 38.2183 18.3914 38.6448 19.2445 38.9319C20.0977 39.219 20.8934 39.4569 21.0082 39.4569C21.123 39.4569 21.8613 39.2354 22.6488 38.9729C23.4363 38.7104 24.5438 38.3003 25.1098 38.0624C25.6758 37.8327 26.6355 37.3815 27.2426 37.0698C27.8496 36.7581 28.7191 36.2741 29.1703 35.9952C29.6215 35.7081 30.2695 35.2651 30.6059 35.0108C30.9422 34.7565 31.5492 34.2643 31.9512 33.9034C32.3531 33.5507 32.9766 32.9272 33.3293 32.5253C33.6902 32.1233 34.2398 31.4015 34.5598 30.9257C34.8797 30.4499 35.3145 29.6952 35.5359 29.244C35.7492 28.7929 36.0609 28.0382 36.2168 27.5624C36.3727 27.0866 36.5777 26.3483 36.668 25.9218C36.7582 25.4952 36.8648 24.7569 36.9141 24.2811C36.9715 23.7315 37.0043 20.5487 37.0043 15.4464V7.46473C35.3801 6.96434 31.8035 5.85692 27.9973 4.68387C24.1992 3.50262 21.041 2.54286 20.9836 2.55106C20.9344 2.55106 17.6203 3.56825 13.6254 4.80692C9.63047 6.04559 6.06211 7.14481 5.68477 7.25966ZM20.9426 6.3245C21.1641 6.3163 21.5332 6.35731 21.7629 6.40653C22.0008 6.45575 22.4027 6.5952 22.6488 6.71005C22.9113 6.83309 23.3051 7.12841 23.5922 7.41551C24.0434 7.87489 24.4781 8.62958 28.7355 16.3651C31.459 21.3198 33.4359 25.003 33.5098 25.2655C33.5836 25.5116 33.641 25.9546 33.641 26.2499C33.641 26.5452 33.5836 26.9882 33.5098 27.2343C33.4359 27.4804 33.3129 27.8167 33.2309 27.9725C33.157 28.1284 32.8863 28.4811 32.6402 28.7518C32.3859 29.0225 32.0086 29.3425 31.7871 29.4655C31.5656 29.5886 31.1637 29.7444 30.893 29.81C30.4582 29.9249 29.2688 29.9413 21.0082 29.9413C12.7723 29.9413 11.5582 29.9249 11.1234 29.8183C10.8527 29.7444 10.4672 29.5886 10.2621 29.4737C10.057 29.3507 9.7125 29.0882 9.49102 28.8831C9.27773 28.678 8.99883 28.3417 8.88398 28.1366C8.76914 27.9315 8.60508 27.5542 8.52305 27.2999C8.44102 27.0374 8.37539 26.578 8.37539 26.2745C8.37539 25.9628 8.43281 25.5116 8.50664 25.2655C8.58047 25.003 10.5574 21.3198 13.2809 16.3651C17.5465 8.62137 17.973 7.87489 18.4242 7.41551C18.6949 7.14481 19.0969 6.83309 19.3266 6.72645C19.548 6.61981 19.9172 6.48036 20.1469 6.43114C20.3684 6.37372 20.7293 6.3245 20.9426 6.3245ZM19.991 9.34325C19.8844 9.50731 17.7762 13.3136 15.307 17.8007C10.943 25.7249 10.8117 25.971 10.8527 26.3319C10.8691 26.537 10.9594 26.8159 11.0578 26.9472C11.148 27.0784 11.3531 27.2589 11.5254 27.3409C11.8043 27.4722 12.4277 27.4804 21.0082 27.4804C29.5887 27.4804 30.2121 27.4722 30.491 27.3409C30.6633 27.2589 30.8684 27.0784 30.9668 26.9472C31.0652 26.7995 31.1473 26.537 31.1555 26.2909C31.1883 25.889 31.1227 25.7741 26.5617 17.5136C22.2551 9.71239 21.9188 9.12997 21.6152 8.96591C21.443 8.85927 21.1641 8.77723 21.0082 8.77723C20.8523 8.77723 20.598 8.84286 20.4504 8.91669C20.3109 8.99051 20.0977 9.18739 19.991 9.34325ZM21.0082 13.1249C21.1641 13.1249 21.4266 13.1905 21.5824 13.2807C21.7383 13.3628 21.9516 13.5761 22.05 13.7483C22.2305 14.06 22.2387 14.1175 22.2387 17.0214C22.2387 19.9663 22.2387 19.9745 22.0418 20.3026C21.9105 20.5241 21.7465 20.68 21.5086 20.7784C21.3281 20.8522 21.0902 20.9179 20.9836 20.9179C20.8852 20.9179 20.6555 20.844 20.475 20.7538C20.2617 20.6554 20.0813 20.4831 19.9582 20.2698C19.7777 19.9335 19.7777 19.9089 19.7941 16.9229C19.8188 13.9698 19.8188 13.896 19.9992 13.6499C20.0977 13.5104 20.3027 13.3382 20.4504 13.2643C20.598 13.1905 20.8523 13.1249 21.0082 13.1249ZM21.0082 22.5585C21.1641 22.5585 21.4266 22.6241 21.5824 22.7143C21.7383 22.7964 21.9516 23.0097 22.05 23.1819C22.1566 23.3542 22.2387 23.6331 22.2387 23.789C22.2387 23.9448 22.1484 24.2237 22.0418 24.4042C21.9105 24.6257 21.7465 24.7815 21.5086 24.88C21.3281 24.9538 21.0902 25.0194 20.9836 25.0194C20.8852 25.0194 20.6555 24.9456 20.475 24.8554C20.2535 24.7569 20.0812 24.5847 19.95 24.3468C19.8023 24.0843 19.7613 23.912 19.7941 23.6659C19.8105 23.4854 19.909 23.2229 19.9992 23.0835C20.0977 22.944 20.3027 22.7718 20.4504 22.6979C20.598 22.6241 20.8523 22.5585 21.0082 22.5585Z" fill="#F15A2B"/>
</g>
<defs>
<clipPath id="clip0_2085_22306">
<rect width="42" height="42" fill="white"/>
</clipPath>
</defs>
</svg>
