<svg width="20" height="20" viewBox="0 0 20 20" fill="none" xmlns="http://www.w3.org/2000/svg">
<g id="file - 2024-02-23T145102.930 1">
<path id="Path 0" fill-rule="evenodd" clip-rule="evenodd" d="M9.92175 1.0199C10.1053 1.016 10.4999 1.04334 10.8007 1.0785C11.1014 1.10975 11.5663 1.18397 11.8358 1.23865C12.1053 1.29334 12.5272 1.40272 12.7733 1.48475C13.0194 1.56287 13.4257 1.72303 13.6718 1.8324C13.9178 1.94178 14.3241 2.15272 14.5702 2.30115C14.8163 2.44959 15.1874 2.69959 15.3905 2.85193C15.5936 3.00818 15.8944 3.25428 16.0546 3.40272C16.2147 3.54725 16.496 3.83631 16.6796 4.04334C16.8632 4.25428 17.121 4.57459 17.2577 4.76209C17.3944 4.94568 17.6171 5.28943 17.7538 5.52772C17.8944 5.766 18.1014 6.18006 18.2225 6.4574C18.3397 6.73084 18.4999 7.16053 18.5741 7.41053C18.6444 7.66443 18.7421 8.04725 18.785 8.26209C18.828 8.47693 18.8944 8.9535 18.9296 9.31678C18.996 9.9535 18.996 10.0082 18.9296 10.6644C18.8944 11.0394 18.828 11.5238 18.785 11.7387C18.7421 11.9535 18.6444 12.3363 18.5702 12.5902C18.4999 12.8402 18.3475 13.2543 18.2421 13.5043C18.1327 13.7582 17.953 14.1254 17.8436 14.3168C17.7343 14.5082 17.5507 14.809 17.4374 14.9808C17.3241 15.1527 17.1093 15.4418 16.9647 15.6254C16.8202 15.809 16.5155 16.141 16.2889 16.3676C16.0624 16.5941 15.6678 16.9379 15.41 17.1293C15.1522 17.3207 14.7225 17.6097 14.453 17.766C14.1835 17.9222 13.7538 18.1371 13.496 18.2465C13.2382 18.3558 12.8358 18.5004 12.5975 18.5746C12.3593 18.6449 11.9764 18.7387 11.7382 18.7855C11.4999 18.8285 11.0741 18.8949 10.7889 18.9262C10.5077 18.9574 10.1444 18.9847 9.99207 18.9847C9.83582 18.9847 9.43347 18.9496 9.10144 18.9105C8.76941 18.8676 8.35535 18.8051 8.18347 18.7699C8.0116 18.7347 7.66394 18.6449 7.41003 18.5707C7.16003 18.4965 6.74597 18.348 6.49597 18.2426C6.24207 18.1332 5.87488 17.9535 5.68347 17.8441C5.49207 17.7347 5.19128 17.5512 5.01941 17.4379C4.84753 17.3246 4.55847 17.1097 4.37488 16.9652C4.19128 16.8207 3.85925 16.516 3.63269 16.2894C3.40613 16.0629 3.06238 15.6683 2.87097 15.4105C2.67566 15.1527 2.41003 14.7582 2.27722 14.5316C2.14441 14.3051 1.94519 13.9183 1.83191 13.6722C1.72253 13.4262 1.58191 13.0746 1.51941 12.891C1.46082 12.7074 1.36707 12.3832 1.31238 12.1683C1.25769 11.9535 1.18738 11.6097 1.15613 11.4066C1.12488 11.2035 1.078 10.8051 1.05066 10.5277C1.00769 10.0902 1.0116 9.92615 1.06628 9.33631C1.10535 8.96131 1.17566 8.44959 1.23035 8.2035C1.28113 7.9574 1.37488 7.57459 1.44128 7.35193C1.50769 7.13318 1.66003 6.73084 1.77722 6.4574C1.89441 6.18006 2.0741 5.81678 2.17175 5.6449C2.27332 5.47303 2.44519 5.19178 2.55847 5.0199C2.67175 4.84803 2.8866 4.55897 3.03113 4.37537C3.17957 4.19178 3.46472 3.87537 3.67175 3.67225C3.87488 3.46912 4.17566 3.19178 4.33582 3.06287C4.49597 2.93006 4.78503 2.71912 4.98035 2.59022C5.17175 2.46131 5.47253 2.27381 5.64441 2.17225C5.81628 2.07459 6.17957 1.8949 6.45691 1.77772C6.73035 1.66053 7.16003 1.50428 7.41003 1.43006C7.66394 1.35584 8.00379 1.266 8.16394 1.23084C8.3241 1.19568 8.71082 1.13709 9.02332 1.09803C9.33582 1.05897 9.73816 1.02381 9.92175 1.0199ZM8.828 2.38709C8.66785 2.41053 8.35925 2.47303 8.14441 2.52381C7.92957 2.5785 7.60535 2.67615 7.42175 2.73865C7.23816 2.80115 6.87878 2.9574 6.62097 3.0824C6.36316 3.21131 5.98425 3.42225 5.78113 3.55506C5.578 3.68787 5.26941 3.91834 5.09753 4.06287C4.92566 4.2074 4.6405 4.47303 4.46472 4.65272C4.28894 4.8324 4.07019 5.0785 3.97253 5.19568C3.87878 5.31287 3.68347 5.58631 3.54285 5.80115C3.40222 6.016 3.18347 6.41053 3.05457 6.68006C2.92957 6.94959 2.77722 7.30115 2.72253 7.46131C2.66394 7.62147 2.58191 7.8949 2.53894 8.06678C2.49597 8.23865 2.43347 8.52772 2.39832 8.71131C2.36316 8.8949 2.328 9.35975 2.31628 9.74647C2.30066 10.1801 2.31238 10.6019 2.33972 10.8402C2.36316 11.0551 2.41785 11.391 2.46082 11.5824C2.49988 11.7738 2.59753 12.1371 2.67566 12.3832C2.75378 12.6293 2.92175 13.0433 3.04285 13.3012C3.16394 13.559 3.36707 13.9301 3.49207 14.1215C3.61707 14.3129 3.83191 14.6137 3.96472 14.7855C4.09753 14.9574 4.40222 15.2816 4.63269 15.5082C4.86707 15.7347 5.16394 16.0004 5.29285 16.098C5.42175 16.1996 5.66785 16.3715 5.83972 16.4847C6.0116 16.5941 6.37879 16.7972 6.66004 16.934C6.94128 17.0707 7.37097 17.2465 7.61707 17.3246C7.86316 17.4027 8.22644 17.5004 8.41785 17.5394C8.60925 17.5824 8.91785 17.6332 9.10144 17.6566C9.28504 17.6762 9.68738 17.6957 9.99988 17.6957C10.3124 17.6957 10.7147 17.6762 10.8983 17.6566C11.0819 17.6332 11.3983 17.5785 11.6014 17.5355C11.8046 17.4926 12.1835 17.3871 12.4413 17.3012C12.6991 17.2152 13.1132 17.0472 13.3593 16.9301C13.6053 16.809 13.9569 16.6137 14.1405 16.4965C14.3241 16.3754 14.578 16.1996 14.7069 16.098C14.8358 16.0004 15.1249 15.7426 15.3475 15.5277C15.5702 15.3129 15.8553 15.0043 15.9882 14.8441C16.1171 14.684 16.328 14.391 16.4569 14.1996C16.5819 14.0082 16.7889 13.6371 16.9139 13.3793C17.0428 13.1215 17.1991 12.7504 17.2655 12.559C17.3319 12.3676 17.4296 12.0394 17.4803 11.8363C17.5311 11.6332 17.6014 11.266 17.6327 11.0238C17.6678 10.7855 17.6952 10.3207 17.6952 10.0004C17.6952 9.67615 17.6678 9.21522 17.6327 8.97303C17.6014 8.73475 17.5311 8.36756 17.4803 8.16443C17.4296 7.96131 17.3319 7.63318 17.2655 7.44178C17.1991 7.25037 17.0428 6.87928 16.9139 6.62147C16.7889 6.36365 16.5936 6.01209 16.4843 5.84022C16.371 5.66834 16.1991 5.42225 16.1014 5.29334C16.0038 5.16443 15.7382 4.86756 15.5116 4.63318C15.285 4.40272 14.9569 4.10193 14.785 3.96522C14.6132 3.8324 14.3124 3.61756 14.121 3.49256C13.9296 3.36756 13.5585 3.16443 13.3007 3.04334C13.0428 2.92225 12.6288 2.75428 12.3827 2.67615C12.1366 2.59803 11.7733 2.50037 11.5819 2.46131C11.3905 2.41834 11.0819 2.36756 10.8983 2.34412C10.7147 2.32459 10.285 2.30897 9.94129 2.30897C9.59754 2.31287 9.27332 2.32068 9.21863 2.3285C9.16394 2.33631 8.98816 2.36365 8.828 2.38709ZM10.0585 5.3285C10.2382 5.33631 10.3866 5.36756 10.4882 5.42225C10.5741 5.46522 10.6913 5.55115 10.7499 5.61365C10.8085 5.67225 10.8944 5.80897 10.9413 5.91834C11.0038 6.05897 11.0272 6.18397 11.0272 6.36756C11.0272 6.50818 10.9335 7.71131 10.8241 9.04334C10.6678 10.9027 10.6053 11.5004 10.5546 11.6176C10.5155 11.7074 10.4257 11.8129 10.3358 11.8715C10.2264 11.9457 10.1288 11.973 9.99988 11.973C9.87097 11.973 9.77332 11.9457 9.66394 11.8715C9.5741 11.8129 9.48425 11.7074 9.44519 11.6176C9.39441 11.5004 9.33191 10.9027 9.17566 9.04334C9.06629 7.71131 8.97253 6.50818 8.97253 6.36756C8.97253 6.18397 8.99597 6.05897 9.05847 5.91834C9.10535 5.80897 9.19129 5.67225 9.24988 5.61365C9.30847 5.55115 9.40613 5.47303 9.46472 5.44178C9.52332 5.40662 9.62097 5.36365 9.67957 5.34803C9.73816 5.3285 9.91004 5.32068 10.0585 5.3285ZM10.0702 13.0277C10.16 13.0394 10.3007 13.0824 10.3827 13.1215C10.4608 13.1605 10.5663 13.2387 10.6132 13.2894C10.66 13.3363 10.7264 13.4457 10.7577 13.5238C10.7928 13.6058 10.8202 13.7543 10.8202 13.8558C10.8202 13.9613 10.785 14.1137 10.746 14.1996C10.7069 14.2855 10.6249 14.4027 10.5624 14.4613C10.4999 14.5199 10.3827 14.5941 10.3046 14.6254C10.2225 14.6605 10.0858 14.6879 9.99988 14.6879C9.91394 14.6879 9.77722 14.6605 9.6991 14.6254C9.61707 14.5941 9.49988 14.5199 9.44129 14.4613C9.37879 14.4027 9.29675 14.2894 9.25378 14.2074C9.21082 14.1215 9.17957 13.9808 9.17957 13.8676C9.17957 13.7582 9.20691 13.6058 9.24207 13.5238C9.27332 13.4457 9.33972 13.3363 9.3866 13.2894C9.43347 13.2387 9.52332 13.1683 9.58191 13.1371C9.6405 13.1019 9.73816 13.059 9.79675 13.0433C9.85535 13.0238 9.97644 13.0199 10.0702 13.0277Z" fill="#222754"/>
</g>
</svg>
