<svg width="20" height="20" viewBox="0 0 20 20" fill="none" xmlns="http://www.w3.org/2000/svg">
<g id="file - 2024-02-23T144912.975 1" clip-path="url(#clip0_2081_998)">
<path id="Path 0" fill-rule="evenodd" clip-rule="evenodd" d="M17.9492 0C18.1523 0 18.3281 0.0117188 18.3359 0.03125C18.3438 0.046875 18.4102 0.0703125 18.4805 0.0898438C18.5547 0.105469 18.6992 0.171875 18.8086 0.234375C18.9141 0.296875 19.0898 0.433594 19.1953 0.535156C19.3125 0.652344 19.4414 0.832031 19.5273 1.01562C19.6641 1.30078 19.668 1.32031 19.668 1.75781C19.668 2.19531 19.6641 2.21484 19.5273 2.5C19.4414 2.67969 19.3086 2.86719 19.1953 2.98047C19.0898 3.08594 18.9141 3.21875 18.8086 3.28125C18.6992 3.34375 18.4922 3.42188 18.3398 3.45703C18.1602 3.5 17.9805 3.51562 17.8125 3.50391C17.6719 3.49219 17.457 3.44531 17.332 3.40234C17.2109 3.35547 17.0859 3.33203 17.0586 3.34766C17.0352 3.36328 16.3906 3.92578 14.2578 5.82031L14.3203 6.02734C14.3672 6.17188 14.3789 6.32812 14.3672 6.58203C14.3555 6.88672 14.3359 6.97266 14.2148 7.22656C14.125 7.40625 14 7.59375 13.8828 7.70703C13.7773 7.8125 13.6055 7.94531 13.4961 8.00781C13.3906 8.07031 13.1797 8.14844 13.0273 8.18359C12.8477 8.22656 12.668 8.24219 12.5 8.23047C12.3594 8.21875 12.1484 8.17188 12.0312 8.12891C11.9141 8.08594 11.7266 7.98438 11.6133 7.90234C11.5039 7.82031 11.3555 7.67969 11.2812 7.58594C11.2109 7.49609 11.1211 7.42188 11.0859 7.42188C11.0469 7.42188 10.5547 7.51953 9.99219 7.63672C9.42578 7.75781 8.92969 7.86328 8.88672 7.875C8.83203 7.88672 8.80078 7.94141 8.77734 8.05859C8.75781 8.14844 8.67969 8.34375 8.60156 8.49219C8.51562 8.65234 8.375 8.83594 8.26172 8.9375C8.15625 9.03516 7.96094 9.16406 7.83203 9.22656C7.70312 9.28516 7.47266 9.35547 7.32422 9.38281C7.11328 9.41797 6.98828 9.41797 6.78906 9.38281C6.64062 9.35547 6.41406 9.28125 6.03516 9.09766L5.73828 9.30469C5.57812 9.41797 5.06641 9.77344 3.76953 10.6797V11.1484C3.76953 11.6094 3.76562 11.6289 3.62891 11.9141C3.54297 12.0977 3.41406 12.2773 3.29688 12.3945C3.19141 12.4961 3.01953 12.6328 2.91016 12.6953C2.80469 12.7578 2.58203 12.8398 2.42188 12.875C2.17188 12.9336 2.08203 12.9375 1.81641 12.8984C1.62109 12.8711 1.41797 12.8086 1.26953 12.7344C1.14062 12.6719 0.941406 12.5234 0.824219 12.4141C0.6875 12.2773 0.566406 12.1055 0.472656 11.9141C0.335938 11.6289 0.332031 11.6094 0.332031 11.1719C0.332031 10.7344 0.335938 10.7148 0.472656 10.4297C0.566406 10.2383 0.6875 10.0664 0.824219 9.92969C0.941406 9.82031 1.14062 9.67188 1.26953 9.60938C1.41406 9.53906 1.625 9.47266 1.81641 9.44531C2.05859 9.41016 2.17969 9.41016 2.36328 9.44922C2.49219 9.47266 2.70703 9.54688 3.08594 9.72656L5.37109 8.13281L5.33594 7.90234C5.30859 7.75 5.3125 7.58594 5.34375 7.40234C5.36719 7.25391 5.44141 7.01953 5.50781 6.88281C5.57422 6.74609 5.71484 6.55078 5.83984 6.42578C5.96484 6.30078 6.15625 6.16016 6.30078 6.09375C6.43359 6.02734 6.66797 5.95703 6.81641 5.92969C7.02734 5.89453 7.15234 5.89453 7.36328 5.93359C7.53125 5.96094 7.74219 6.03906 7.90625 6.125C8.08203 6.21875 8.24609 6.34766 8.375 6.49219C8.48438 6.61719 8.60156 6.71484 8.63281 6.71875C8.66406 6.71875 9.14844 6.62109 9.70703 6.50391C10.2656 6.38672 10.7578 6.28125 10.8008 6.27344C10.8555 6.26172 10.8945 6.19922 10.9297 6.06641C10.9609 5.96484 11.0391 5.77344 11.1055 5.64844C11.1758 5.51562 11.332 5.32422 11.4648 5.20312C11.5938 5.08594 11.7656 4.95703 11.8477 4.91797C11.9258 4.875 12.1094 4.81641 12.2578 4.78125C12.4258 4.74219 12.6094 4.72656 12.7734 4.73828C12.9141 4.75 13.1289 4.79688 13.2539 4.83984C13.375 4.88672 13.5 4.91016 13.5273 4.89453C13.5508 4.87891 14.1953 4.31641 16.3281 2.42188L16.2656 2.21484C16.2188 2.07031 16.207 1.91406 16.2188 1.66016C16.2305 1.35547 16.25 1.26953 16.3711 1.01562C16.4609 0.832031 16.582 0.652344 16.7031 0.535156C16.8086 0.433594 16.9805 0.296875 17.0898 0.234375C17.1953 0.171875 17.3398 0.105469 17.4062 0.09375C17.4727 0.0820312 17.5391 0.0546875 17.5547 0.0351562C17.5703 0.015625 17.75 0 17.9492 0ZM17.4688 1.44531C17.4102 1.53516 17.3789 1.64062 17.3789 1.75781C17.3789 1.875 17.4102 1.98047 17.4688 2.07031C17.5195 2.14453 17.6211 2.23828 17.6953 2.27344C17.7695 2.3125 17.8867 2.34375 17.9492 2.34375C18.0117 2.34375 18.1289 2.3125 18.2031 2.27344C18.2773 2.23828 18.3789 2.14453 18.4297 2.07031C18.4883 1.98047 18.5195 1.875 18.5195 1.75781C18.5195 1.64062 18.4883 1.53516 18.4297 1.44531C18.3789 1.37109 18.2773 1.27734 18.2031 1.24219C18.1289 1.20312 18.0117 1.17188 17.9492 1.17188C17.8867 1.17188 17.7695 1.20312 17.6953 1.24219C17.6211 1.27734 17.5195 1.37109 17.4688 1.44531ZM12.1562 6.17188C12.0977 6.26172 12.0664 6.36719 12.0664 6.48438C12.0664 6.60156 12.0977 6.70703 12.1562 6.79688C12.207 6.87109 12.3086 6.96484 12.3828 7C12.457 7.03906 12.5742 7.07031 12.6367 7.07031C12.6992 7.07031 12.8164 7.03906 12.8906 7C12.9648 6.96484 13.0664 6.87109 13.1172 6.79688C13.1758 6.70703 13.207 6.60156 13.207 6.48438C13.207 6.36719 13.1758 6.26172 13.1172 6.17188C13.0664 6.09766 12.9648 6.00391 12.8906 5.96875C12.8164 5.92969 12.6992 5.89844 12.6367 5.89844C12.5742 5.89844 12.457 5.92969 12.3828 5.96875C12.3086 6.00391 12.207 6.09766 12.1562 6.17188ZM6.5625 7.38281C6.51953 7.46875 6.48438 7.58984 6.48438 7.65625C6.48438 7.71875 6.51953 7.84375 6.5625 7.92969C6.61458 8.03385 6.69271 8.11198 6.79688 8.16406C6.88281 8.20703 7.00391 8.24219 7.07031 8.24219C7.13281 8.24219 7.25781 8.20703 7.34375 8.16406C7.44792 8.11198 7.52604 8.03385 7.57812 7.92969C7.62109 7.84375 7.65625 7.71875 7.65625 7.65625C7.65625 7.58984 7.62109 7.46875 7.57812 7.38281C7.52604 7.27865 7.44792 7.20052 7.34375 7.14844C7.25781 7.10547 7.12891 7.07031 7.05859 7.07031C6.99219 7.07422 6.86719 7.10938 6.78516 7.14844C6.69531 7.19922 6.61328 7.28516 6.5625 7.38281ZM1.57031 10.8594C1.51172 10.9492 1.48047 11.0547 1.48047 11.1719C1.48047 11.2891 1.51172 11.3945 1.57031 11.4844C1.62109 11.5586 1.72266 11.6523 1.79688 11.6875C1.87109 11.7266 1.98438 11.7578 2.05078 11.7578C2.11328 11.7578 2.23047 11.7266 2.30469 11.6875C2.37891 11.6523 2.48047 11.5586 2.53125 11.4844C2.58984 11.3945 2.62109 11.2891 2.62109 11.1719C2.62109 11.0547 2.58984 10.9492 2.53125 10.8594C2.48047 10.7852 2.37891 10.6914 2.30469 10.6562C2.23047 10.6172 2.11328 10.5859 2.05078 10.5859C1.98438 10.5859 1.87109 10.6172 1.79688 10.6562C1.72266 10.6914 1.62109 10.7852 1.57031 10.8594ZM17.9375 4.72656C19.4531 4.72656 19.5391 4.73047 19.6875 4.80469C19.7917 4.85677 19.8698 4.9349 19.9219 5.03906C20 5.19531 20 5.27344 20 12.3633C20 19.2656 19.9961 19.5352 19.9258 19.6797C19.8867 19.7578 19.7891 19.8633 19.7109 19.9102C19.5703 20 19.5625 20 17.9492 20C16.3359 20 16.3281 20 16.1875 19.9102C16.1094 19.8633 16.0117 19.7578 15.9727 19.6758C15.9023 19.5352 15.8984 19.2656 15.8984 12.3633C15.8984 5.27344 15.8984 5.19531 15.9766 5.03906C16.0273 4.94141 16.1094 4.85547 16.1992 4.80469C16.3398 4.73438 16.4375 4.73047 17.9375 4.72656ZM17.0703 18.8281H18.8281V5.89844H17.0703V18.8281ZM12.625 9.41406C14.1406 9.41406 14.2266 9.41797 14.375 9.49219C14.4792 9.54427 14.5573 9.6224 14.6094 9.72656C14.6875 9.87891 14.6875 9.96094 14.6875 14.707C14.6875 19.3281 14.6836 19.5391 14.6133 19.6758C14.5742 19.7578 14.4766 19.8633 14.3984 19.9102C14.2578 20 14.25 20 12.6367 20C11.0234 20 11.0156 20 10.875 19.9102C10.7969 19.8633 10.6992 19.7578 10.6602 19.6758C10.5898 19.5391 10.5859 19.3281 10.5859 14.707C10.5859 9.96094 10.5859 9.87891 10.6641 9.72656C10.7148 9.62891 10.7969 9.54297 10.8867 9.49219C11.0273 9.42188 11.125 9.41797 12.625 9.41406ZM11.7578 18.8281H13.5156V10.5859H11.7578V18.8281ZM7.35156 10.5859C8.86719 10.5859 8.95312 10.5898 9.10156 10.6641C9.20573 10.7161 9.28385 10.7943 9.33594 10.8984C9.41406 11.0508 9.41406 11.1328 9.41406 15.293C9.41406 19.3438 9.41016 19.5391 9.33984 19.6758C9.30078 19.7578 9.20312 19.8633 9.125 19.9102C8.98438 20 8.97656 20 7.36328 20C5.75 20 5.74219 20 5.60156 19.9102C5.52344 19.8633 5.42578 19.7578 5.38672 19.6758C5.31641 19.5391 5.3125 19.3438 5.3125 15.293C5.3125 11.1328 5.3125 11.0508 5.39062 10.8984C5.44141 10.8008 5.52344 10.7148 5.61328 10.6641C5.75391 10.5938 5.85156 10.5898 7.35156 10.5859ZM6.48438 18.8281H8.24219V11.7578H6.48438V18.8281ZM2.03906 14.1016C3.55469 14.1016 3.64062 14.1055 3.78906 14.1797C3.89323 14.2318 3.97135 14.3099 4.02344 14.4141C4.09766 14.5664 4.10156 14.6484 4.10156 17.0508C4.10156 19.3867 4.09766 19.5391 4.02734 19.6758C3.98828 19.7578 3.89062 19.8633 3.8125 19.9102C3.67188 20 3.66406 20 2.05078 20C0.4375 20 0.429688 20 0.289062 19.9102C0.210938 19.8633 0.113281 19.7578 0.0742188 19.6758C0.00390625 19.5391 0 19.3867 0 14.5312L0.0859375 14.3906C0.136719 14.3125 0.238281 14.2148 0.3125 14.1758C0.4375 14.1094 0.582031 14.1055 2.03906 14.1016ZM1.17188 18.8281H2.92969V15.2734H1.17188V18.8281Z" fill="#222754"/>
</g>
<defs>
<clipPath id="clip0_2081_998">
<rect width="20" height="20" fill="white"/>
</clipPath>
</defs>
</svg>
