<svg width="20" height="20" viewBox="0 0 20 20" fill="none" xmlns="http://www.w3.org/2000/svg">
<path fill-rule="evenodd" clip-rule="evenodd" d="M12.3438 0.0162149C12.4844 0.0240274 13.5352 0.328715 15.4492 0.914652C17.0391 1.39903 18.3945 1.82871 18.457 1.86778C18.5195 1.90684 18.6133 2.01621 18.75 2.28575V17.7154L18.6641 17.8912C18.6094 17.9967 18.5195 18.0943 18.4375 18.1412C18.3633 18.1842 17.0078 18.6139 15.4297 19.0982C13.0469 19.8248 12.5195 19.9732 12.3242 19.9732C12.1172 19.9732 11.4531 19.7584 6.85547 18.2076C3.61719 17.11 1.57422 16.4029 1.49219 16.3443C1.42578 16.2936 1.33984 16.1842 1.30859 16.1061C1.25391 15.9732 1.25 15.2818 1.25 10.2936C1.25 4.93809 1.25391 4.62168 1.32031 4.47325C1.35937 4.38731 1.44141 4.28184 1.50781 4.23497C1.57031 4.18809 3.94141 3.24278 6.77734 2.1295C9.61328 1.02012 11.9766 0.0865274 12.0312 0.0591837C12.0898 0.0279337 12.2188 0.0123087 12.3438 0.0162149ZM2.51953 5.14512L2.5 15.0006L4.72656 14.2389C4.72656 5.317 4.73047 5.21153 4.80469 5.04746C4.85938 4.93418 4.93359 4.85606 5.05078 4.78965C5.1875 4.71543 5.80859 4.59825 8.76953 4.10215C11.0234 3.72715 12.3711 3.51622 12.4531 3.53184C12.5195 3.54356 12.6328 3.60215 12.6992 3.66465C12.7695 3.72325 12.8477 3.817 12.875 3.8795C12.9219 3.96543 12.9297 5.08653 12.9297 10.6061C12.9297 16.8326 12.9258 17.235 12.8633 17.3678C12.8242 17.4498 12.7383 17.5475 12.6758 17.5943C12.6055 17.6412 12.4766 17.6803 12.3633 17.6881C12.2578 17.6959 11.2734 17.5943 10.1758 17.4654C9.07812 17.3326 8.14062 17.2272 8.08594 17.2272C8.01172 17.2311 8 17.2389 8.04688 17.2662C8.07812 17.2818 9.05469 17.6178 10.2148 18.0084L12.3242 18.7154L17.4805 17.1607V2.84043C13.5156 1.63731 12.3555 1.28965 12.3438 1.28965C12.332 1.29356 10.1172 2.16075 7.42188 3.21934L2.51953 5.14512ZM5.99609 5.84043C5.96094 13.8912 5.94531 14.9225 5.91016 14.9889C5.88281 15.0397 5.80078 15.1178 5.73438 15.1686C5.66406 15.2232 5.43359 15.317 5.22656 15.3834C5.01562 15.4537 4.84375 15.524 4.84375 15.5475C4.84375 15.567 4.85547 15.5865 4.875 15.5865C4.89063 15.5865 6.40625 15.7623 8.24219 15.9772C10.0781 16.192 11.6055 16.3678 11.6328 16.3678C11.668 16.3678 11.6797 15.192 11.6797 10.6256C11.6797 6.05528 11.668 4.8834 11.6328 4.88731C11.6055 4.88731 10.3242 5.10215 8.78906 5.36387L5.99609 5.84043Z" fill="#222754"/>
</svg>
