<svg width="20" height="20" viewBox="0 0 20 20" fill="none" xmlns="http://www.w3.org/2000/svg">
<path fill-rule="evenodd" clip-rule="evenodd" d="M13.0234 1.00233C13.5051 1.00943 14.0852 1.04137 14.3418 1.07332C14.5914 1.10171 14.943 1.1514 15.1152 1.18335C15.2875 1.21529 15.5934 1.27918 15.7937 1.32532C15.9906 1.37146 16.3387 1.47084 16.5637 1.54893C16.7922 1.62346 17.1367 1.76188 17.3301 1.85062C17.5234 1.9429 17.8082 2.10262 17.9629 2.20555C18.1176 2.31203 18.3461 2.50724 18.4727 2.64211C18.5992 2.77699 18.7434 2.9651 18.7961 3.06093C18.8488 3.16031 18.9156 3.33423 18.9438 3.45136C18.993 3.63947 19 4.32094 19 9.52069C19 15.2386 19 15.3842 18.9332 15.6078C18.8945 15.7355 18.7996 15.9343 18.7258 16.0514C18.6484 16.1686 18.4867 16.3602 18.3637 16.4738C18.2406 16.5909 18.0367 16.7506 17.9102 16.8358C17.7836 16.9175 17.5867 17.031 17.4707 17.0878C17.3547 17.1482 17.1156 17.2511 16.9434 17.3221C16.7711 17.3895 16.4688 17.496 16.2754 17.5528C16.082 17.6096 15.727 17.7019 15.4844 17.7515C15.2418 17.8012 14.7918 17.8758 14.4824 17.9148C14.0641 17.9681 13.8883 17.9752 13.7969 17.9503C13.7301 17.929 13.6387 17.89 13.5965 17.8616C13.5508 17.8332 13.484 17.7444 13.4453 17.6664C13.4066 17.5883 13.375 17.4747 13.375 17.4179C13.375 17.3611 13.3926 17.2688 13.4137 17.2121C13.4348 17.1588 13.484 17.0772 13.5262 17.0346C13.5684 16.9884 13.6422 16.9281 13.6914 16.9033C13.7406 16.8784 14.0078 16.8323 14.2891 16.7968C14.5703 16.7648 15.0063 16.6939 15.2559 16.6371C15.5055 16.5838 15.8465 16.4986 16.0117 16.449C16.177 16.4028 16.4441 16.307 16.6094 16.2395C16.7746 16.1721 17.0277 16.0479 17.1719 15.9627C17.316 15.8775 17.5059 15.7426 17.5902 15.6646C17.6746 15.5829 17.773 15.4587 17.8082 15.3877C17.8574 15.2848 17.875 15.1747 17.875 14.9334C17.875 14.7595 17.8645 14.6175 17.8504 14.6246C17.8328 14.6282 17.6395 14.724 17.418 14.834C17.1965 14.9476 16.7992 15.1109 16.5391 15.196C16.2789 15.2812 15.8676 15.3948 15.625 15.448C15.3824 15.5013 15.1223 15.5439 15.0449 15.5439C14.9676 15.5439 14.8551 15.5155 14.7988 15.4835C14.7426 15.4516 14.6547 15.3664 14.6055 15.2954C14.5387 15.1996 14.5176 15.1251 14.5176 14.9831C14.5176 14.8482 14.5387 14.7666 14.5914 14.6956C14.6301 14.6423 14.7109 14.5643 14.7672 14.5252C14.8234 14.4862 15.0414 14.4152 15.2559 14.3691C15.4703 14.3229 15.8219 14.2306 16.0398 14.1667C16.2543 14.0993 16.5883 13.9786 16.7746 13.8934C16.9645 13.8083 17.2141 13.6769 17.3301 13.5953C17.4461 13.5172 17.6008 13.3859 17.6746 13.3043C17.7449 13.2262 17.8188 13.1197 17.8398 13.07C17.8609 13.0203 17.875 12.8357 17.875 12.6618C17.875 12.4879 17.8645 12.3459 17.8504 12.353C17.8328 12.3566 17.6395 12.4524 17.418 12.5625C17.1965 12.676 16.7992 12.8393 16.5391 12.9245C16.2789 13.0097 15.8676 13.1232 15.625 13.1765C15.3824 13.2297 15.1223 13.2723 15.0449 13.2723C14.9676 13.2723 14.8551 13.2439 14.7988 13.212C14.7426 13.18 14.6547 13.0948 14.6055 13.0239C14.5387 12.928 14.5176 12.8535 14.5176 12.7115C14.5176 12.5766 14.5387 12.495 14.5914 12.424C14.6301 12.3708 14.7109 12.2927 14.7672 12.2537C14.8234 12.2146 15.0414 12.1436 15.2559 12.0975C15.4703 12.0513 15.8219 11.9591 16.0398 11.8952C16.2543 11.8277 16.5883 11.7071 16.7746 11.6219C16.9645 11.5367 17.2141 11.4054 17.3301 11.3237C17.4461 11.2457 17.6008 11.1143 17.6746 11.0327C17.7449 10.9546 17.8188 10.8481 17.8398 10.7984C17.8609 10.7487 17.875 10.5642 17.875 10.3903C17.875 10.2164 17.8645 10.0744 17.8469 10.0815C17.8328 10.085 17.6254 10.188 17.3828 10.3086C17.1262 10.4364 16.7324 10.5926 16.4336 10.6849C16.1523 10.7736 15.734 10.8836 15.502 10.9333C15.2699 10.983 15.0414 11.0149 14.9922 11.0043C14.943 10.9937 14.8551 10.9653 14.7988 10.9333C14.7426 10.9049 14.6547 10.8233 14.6055 10.7523C14.5387 10.6565 14.5176 10.5819 14.5176 10.44C14.5176 10.3051 14.5387 10.2235 14.5914 10.1525C14.6301 10.0992 14.7109 10.0211 14.7672 9.9821C14.8234 9.94306 15.0414 9.87207 15.2559 9.82593C15.4703 9.77979 15.8219 9.6875 16.0398 9.62362C16.2543 9.55618 16.5883 9.4355 16.7746 9.35032C16.9645 9.26514 17.2141 9.13381 17.3301 9.05218C17.4461 8.97409 17.6008 8.84277 17.6711 8.76113C17.7449 8.68305 17.8188 8.57657 17.8398 8.52688C17.8609 8.47719 17.875 8.28553 17.875 7.76378L17.4777 7.97319C17.2527 8.09386 16.859 8.26068 16.5566 8.36361C16.2648 8.45944 15.8395 8.58367 15.6074 8.63336C15.3754 8.6866 14.9711 8.76113 14.7109 8.80018C14.4508 8.83922 14.1344 8.87116 14.0078 8.87471C13.832 8.88181 13.7512 8.86406 13.6562 8.80728C13.5895 8.76823 13.498 8.6724 13.4559 8.59432C13.4102 8.51978 13.375 8.40265 13.375 8.33877C13.375 8.27843 13.3926 8.1826 13.4137 8.12581C13.4348 8.07257 13.484 7.99093 13.5262 7.94834C13.5684 7.9022 13.6422 7.84186 13.6914 7.81702C13.7406 7.79217 14.0078 7.74603 14.2891 7.71054C14.5703 7.67859 15.0063 7.60761 15.2559 7.55082C15.5055 7.49758 15.8465 7.41239 16.0117 7.3627C16.177 7.31656 16.4441 7.22073 16.6094 7.15329C16.7746 7.08586 17.0277 6.96163 17.1719 6.87645C17.316 6.79126 17.5059 6.65639 17.5902 6.57831C17.6746 6.49667 17.773 6.37245 17.8082 6.30146C17.8574 6.19853 17.875 6.0885 17.875 5.84715C17.875 5.67323 17.8645 5.52771 17.8469 5.52771C17.8328 5.52771 17.7273 5.5845 17.6113 5.64838C17.4953 5.71582 17.2422 5.8365 17.0488 5.91813C16.8555 5.99977 16.5145 6.12044 16.293 6.18433C16.0715 6.24822 15.6988 6.3405 15.4668 6.39019C15.2348 6.43988 14.8621 6.50377 14.6406 6.53571C14.4191 6.56411 14.0219 6.6067 13.7617 6.628C13.5016 6.64574 13.0727 6.66349 12.8125 6.66349C12.5523 6.66349 12.1234 6.64574 11.8633 6.628C11.6031 6.6067 11.2059 6.56411 10.9844 6.53571C10.7629 6.50377 10.3902 6.43988 10.1582 6.39019C9.92617 6.3405 9.55352 6.24822 9.33203 6.18433C9.11055 6.12044 8.76953 5.99977 8.57617 5.91813C8.38281 5.8365 8.12969 5.71582 8.01367 5.64838C7.89766 5.5845 7.79219 5.52771 7.77461 5.52771C7.76055 5.52771 7.74648 5.70162 7.73945 5.91458C7.73242 6.24822 7.72187 6.31921 7.65859 6.40439C7.61641 6.45763 7.53906 6.53571 7.48984 6.57476C7.41953 6.628 7.33867 6.64574 7.1875 6.64574C7.03633 6.64574 6.95547 6.628 6.88516 6.57476C6.83594 6.53571 6.75859 6.45763 6.71641 6.40439C6.64609 6.30501 6.64258 6.26597 6.63203 5.00241C6.62852 4.21801 6.63555 3.62882 6.66016 3.52235C6.67773 3.42651 6.74453 3.24195 6.80781 3.11417C6.87461 2.98285 7.01875 2.78054 7.15234 2.63857C7.27891 2.50724 7.50742 2.31203 7.66211 2.20555C7.8168 2.10262 8.10156 1.9429 8.29492 1.85062C8.48828 1.76188 8.83281 1.62346 9.05781 1.54893C9.28633 1.47084 9.63437 1.37146 9.83125 1.32532C10.0316 1.27918 10.3902 1.20464 10.6328 1.1656C10.8754 1.12656 11.2445 1.07687 11.459 1.05557C11.6734 1.03428 11.916 1.01298 12.0039 1.00588C12.0918 0.998782 12.5488 0.998782 13.0234 1.00233ZM11.002 2.24814C10.7875 2.27654 10.4641 2.33687 10.2812 2.37592C10.0984 2.41496 9.76445 2.50369 9.54297 2.57113C9.32148 2.63857 8.94883 2.78764 8.7168 2.90121C8.43555 3.03964 8.22461 3.17451 8.0875 3.29874C7.975 3.40167 7.85195 3.54719 7.8168 3.61818C7.77812 3.69271 7.75 3.78499 7.75 3.82404C7.75 3.86308 7.77812 3.95536 7.8168 4.02635C7.85195 4.10088 7.975 4.24641 8.0875 4.34934C8.22461 4.47356 8.43555 4.60844 8.7168 4.74686C8.94883 4.86044 9.32148 5.00951 9.54297 5.07695C9.76445 5.14438 10.0984 5.23312 10.2812 5.27216C10.4641 5.3112 10.7875 5.37154 11.002 5.39993C11.2164 5.43188 11.6031 5.47092 11.8633 5.49222C12.1234 5.50996 12.5523 5.52771 12.8125 5.52771C13.0727 5.52771 13.5016 5.50996 13.7617 5.49222C14.0219 5.47092 14.4086 5.43188 14.623 5.39993C14.8375 5.37154 15.1609 5.3112 15.3438 5.27216C15.5266 5.23312 15.8605 5.14438 16.082 5.07695C16.3035 5.00951 16.6762 4.86044 16.9082 4.74686C17.1895 4.60844 17.4004 4.47356 17.5375 4.34934C17.65 4.24641 17.773 4.10088 17.8082 4.02635C17.8469 3.95536 17.875 3.86308 17.875 3.82404C17.875 3.78499 17.8469 3.69271 17.8082 3.61818C17.773 3.54719 17.65 3.40167 17.5375 3.29874C17.4004 3.17451 17.1895 3.03964 16.9082 2.90121C16.6762 2.78764 16.3035 2.63857 16.082 2.57113C15.8605 2.50369 15.5266 2.41496 15.3438 2.37592C15.1609 2.33687 14.8375 2.27654 14.623 2.24814C14.4086 2.2162 14.0219 2.17715 13.7617 2.15586C13.5016 2.13811 13.034 2.12391 12.7246 2.12391C12.4152 2.12746 11.9898 2.14521 11.7754 2.15941C11.5609 2.17715 11.2164 2.2162 11.002 2.24814ZM7.39844 7.81702C7.88008 7.82411 8.46016 7.85606 8.7168 7.888C8.96992 7.9164 9.31797 7.96609 9.49023 7.99803C9.6625 8.02998 9.96836 8.09386 10.1652 8.14C10.3656 8.18615 10.7137 8.28553 10.9387 8.36361C11.1672 8.43815 11.5117 8.57657 11.7051 8.6653C11.8984 8.75758 12.1832 8.9173 12.3379 9.02023C12.4926 9.12671 12.7211 9.32193 12.8477 9.4568C12.9742 9.59167 13.1184 9.77979 13.1711 9.87562C13.2238 9.975 13.2906 10.1489 13.3187 10.266C13.368 10.4506 13.375 10.8162 13.375 12.9103C13.375 15.0044 13.368 15.37 13.3187 15.5545C13.2906 15.6716 13.2238 15.8456 13.1711 15.9449C13.1184 16.0408 12.9742 16.2289 12.8477 16.3638C12.7211 16.4986 12.4926 16.6939 12.3379 16.8003C12.1832 16.9033 11.8984 17.063 11.7051 17.1553C11.5117 17.244 11.1672 17.3824 10.9387 17.457C10.7137 17.535 10.3656 17.6344 10.1652 17.6806C9.96836 17.7267 9.60977 17.7977 9.36719 17.8403C9.12461 17.8793 8.75547 17.9326 8.54102 17.9574C8.32305 17.9823 7.73242 18 7.1875 18C6.64258 18 6.05195 17.9823 5.83398 17.9574C5.61953 17.9326 5.25039 17.8793 5.00781 17.8403C4.76523 17.7977 4.40664 17.7267 4.20625 17.6806C4.00937 17.6344 3.66133 17.535 3.43281 17.457C3.20781 17.3824 2.86328 17.244 2.66992 17.1553C2.47656 17.063 2.1918 16.9033 2.03711 16.7968C1.88242 16.6939 1.66094 16.5057 1.54141 16.3815C1.42539 16.2608 1.28828 16.0869 1.23555 15.9982C1.18633 15.9095 1.1125 15.7426 1.07031 15.6255C1 15.4196 1 15.3416 1 10.3725L1.08789 10.1418C1.13711 10.014 1.225 9.84013 1.28125 9.75139C1.3375 9.66266 1.48164 9.49584 1.60469 9.37517C1.72773 9.25449 1.9457 9.08057 2.08984 8.98829C2.23398 8.89246 2.50469 8.74339 2.6875 8.6582C2.87031 8.56947 3.20781 8.43815 3.43281 8.36361C3.66133 8.28553 4.00937 8.18615 4.20625 8.14C4.40664 8.09386 4.76523 8.01933 5.00781 7.98029C5.25039 7.94124 5.61953 7.89155 5.83398 7.87026C6.04844 7.84896 6.29102 7.82766 6.37891 7.82057C6.4668 7.81347 6.92383 7.81347 7.39844 7.81702ZM5.37695 9.06283C5.1625 9.09122 4.83906 9.15156 4.65625 9.1906C4.47344 9.22964 4.13945 9.31838 3.91797 9.38581C3.69648 9.45325 3.32383 9.60232 3.0918 9.7159C2.81055 9.85432 2.59961 9.9892 2.4625 10.1134C2.35 10.2164 2.22695 10.3619 2.1918 10.4329C2.15313 10.5074 2.125 10.5997 2.125 10.6387C2.125 10.6778 2.15313 10.77 2.1918 10.841C2.22695 10.9156 2.35 11.0611 2.4625 11.164C2.59961 11.2882 2.81055 11.4231 3.0918 11.5615C3.32383 11.6751 3.69648 11.8242 3.91797 11.8916C4.13945 11.9591 4.47344 12.0478 4.65625 12.0868C4.83906 12.1259 5.1625 12.1862 5.37695 12.2146C5.59141 12.2466 5.97813 12.2856 6.23828 12.3069C6.49844 12.3246 6.92734 12.3424 7.1875 12.3424C7.44766 12.3424 7.87656 12.3246 8.13672 12.3069C8.39687 12.2856 8.78359 12.2466 8.99805 12.2146C9.2125 12.1862 9.53594 12.1259 9.71875 12.0868C9.90156 12.0478 10.2355 11.9591 10.457 11.8916C10.6785 11.8242 11.0512 11.6751 11.2832 11.5615C11.5645 11.4231 11.7754 11.2882 11.9125 11.164C12.025 11.0611 12.148 10.9156 12.1832 10.841C12.2219 10.77 12.25 10.6778 12.25 10.6387C12.25 10.5997 12.2219 10.5074 12.1832 10.4329C12.148 10.3619 12.025 10.2164 11.9125 10.1134C11.7754 9.9892 11.5645 9.85432 11.2832 9.7159C11.0512 9.60232 10.6785 9.45325 10.457 9.38581C10.2355 9.31838 9.90156 9.22964 9.71875 9.1906C9.53594 9.15156 9.2125 9.09122 8.99805 9.06283C8.78359 9.03088 8.39687 8.99184 8.13672 8.97054C7.87656 8.9528 7.40898 8.9386 7.09961 8.9386C6.79023 8.94215 6.36484 8.9599 6.15039 8.97409C5.93594 8.99184 5.59141 9.03088 5.37695 9.06283ZM2.1918 13.1126C2.22695 13.1871 2.35 13.3327 2.4625 13.4356C2.59961 13.5598 2.81055 13.6947 3.0918 13.8331C3.32383 13.9467 3.69648 14.0958 3.91797 14.1632C4.13945 14.2306 4.47344 14.3194 4.65625 14.3584C4.83906 14.3974 5.1625 14.4578 5.37695 14.4862C5.59141 14.5181 5.97813 14.5572 6.23828 14.5785C6.49844 14.5962 6.92734 14.614 7.1875 14.614C7.44766 14.614 7.87656 14.5962 8.13672 14.5785C8.39687 14.5572 8.78359 14.5181 8.99805 14.4862C9.2125 14.4578 9.53594 14.3974 9.71875 14.3584C9.90156 14.3194 10.2355 14.2306 10.457 14.1632C10.6785 14.0958 11.0512 13.9467 11.2832 13.8331C11.5645 13.6947 11.7754 13.5598 11.9125 13.4356C12.025 13.3327 12.148 13.1871 12.1832 13.1126C12.2324 13.0132 12.25 12.9032 12.25 12.6618C12.25 12.4844 12.2395 12.3424 12.2219 12.3424C12.2078 12.3424 12.1023 12.3992 11.9863 12.4631C11.8703 12.5305 11.6172 12.6512 11.4238 12.7328C11.2305 12.8145 10.8895 12.9351 10.668 12.999C10.4465 13.0629 10.0738 13.1552 9.8418 13.2049C9.60977 13.2546 9.23711 13.3185 9.01562 13.3504C8.79414 13.3788 8.39687 13.4214 8.13672 13.4427C7.87656 13.4604 7.44766 13.4782 7.1875 13.4782C6.92734 13.4782 6.49844 13.4604 6.23828 13.4427C5.97813 13.4214 5.58086 13.3788 5.35938 13.3504C5.13789 13.3185 4.76523 13.2546 4.5332 13.2049C4.30117 13.1552 3.92852 13.0629 3.70703 12.999C3.48555 12.9351 3.14453 12.8145 2.95117 12.7328C2.75781 12.6512 2.50469 12.5305 2.38867 12.4631C2.27266 12.3992 2.16719 12.3424 2.14961 12.3424C2.13555 12.3424 2.125 12.4844 2.125 12.6618C2.125 12.9032 2.14258 13.0132 2.1918 13.1126ZM2.1918 15.3842C2.22695 15.4587 2.35 15.6042 2.4625 15.7071C2.59961 15.8314 2.81055 15.9662 3.0918 16.1047C3.32383 16.2182 3.69648 16.3673 3.91797 16.4348C4.13945 16.5022 4.47344 16.5909 4.65625 16.63C4.83906 16.669 5.1625 16.7293 5.37695 16.7577C5.59141 16.7897 5.97813 16.8287 6.23828 16.85C6.49844 16.8678 6.92734 16.8855 7.1875 16.8855C7.44766 16.8855 7.87656 16.8678 8.13672 16.85C8.39687 16.8287 8.78359 16.7897 8.99805 16.7577C9.2125 16.7293 9.53594 16.669 9.71875 16.63C9.90156 16.5909 10.2355 16.5022 10.457 16.4348C10.6785 16.3673 11.0512 16.2182 11.2832 16.1047C11.5645 15.9662 11.7754 15.8314 11.9125 15.7071C12.025 15.6042 12.148 15.4587 12.1832 15.3842C12.2324 15.2848 12.25 15.1747 12.25 14.9334C12.25 14.7559 12.2395 14.614 12.2219 14.614C12.2078 14.614 12.1023 14.6707 11.9863 14.7346C11.8703 14.8021 11.6172 14.9227 11.4238 15.0044C11.2305 15.086 10.8895 15.2067 10.668 15.2706C10.4465 15.3345 10.0738 15.4267 9.8418 15.4764C9.60977 15.5261 9.23711 15.59 9.01562 15.622C8.79414 15.6504 8.39687 15.6929 8.13672 15.7142C7.87656 15.732 7.44766 15.7497 7.1875 15.7497C6.92734 15.7497 6.49844 15.732 6.23828 15.7142C5.97813 15.6929 5.58086 15.6504 5.35938 15.622C5.13789 15.59 4.76523 15.5261 4.5332 15.4764C4.30117 15.4267 3.92852 15.3345 3.70703 15.2706C3.48555 15.2067 3.14453 15.086 2.95117 15.0044C2.75781 14.9227 2.50469 14.8021 2.38867 14.7346C2.27266 14.6707 2.16719 14.614 2.14961 14.614C2.13555 14.614 2.125 14.7559 2.125 14.9334C2.125 15.1747 2.14258 15.2848 2.1918 15.3842Z" fill="#222754"/>
</svg>
