<svg width="20" height="20" viewBox="0 0 20 20" fill="none" xmlns="http://www.w3.org/2000/svg">
<g id="file - 2024-02-23T144218.483 1">
<path id="Path 0" fill-rule="evenodd" clip-rule="evenodd" d="M13.5117 0C13.6367 0 13.7344 0.0273438 13.8398 0.0976562C13.918 0.152344 14.0117 0.257812 14.043 0.332031C14.0859 0.4375 14.1016 0.632812 14.1016 1.17188C14.1016 1.76172 14.0898 1.89844 14.0352 2.01562C13.9961 2.09766 13.9102 2.19531 13.8477 2.24219C13.7656 2.30078 13.6719 2.32422 13.5273 2.32422C13.3867 2.32422 13.293 2.30078 13.2188 2.24609C13.1641 2.20312 13.0781 2.11719 13.0312 2.05859C12.957 1.95703 12.9492 1.89062 12.9375 1.25781C12.9297 0.839844 12.9414 0.507812 12.9648 0.417969C12.9922 0.328125 13.0664 0.222656 13.1719 0.136719C13.3047 0.0234375 13.3672 0 13.5117 0ZM9.6875 0.761719C9.84766 0.769531 10.0781 0.8125 10.1953 0.855469C10.3125 0.898438 10.5156 1.01172 10.6445 1.10938C10.7734 1.20312 12.3984 2.80859 14.2617 4.67578C16.7656 7.19141 17.668 8.11719 17.7422 8.26172C17.8008 8.36719 17.875 8.5625 17.9062 8.69141C17.9414 8.82031 17.9688 9.02344 17.9688 9.14062C17.9688 9.25781 17.9492 9.43359 17.9258 9.53125C17.9023 9.62891 17.8398 9.80469 17.7812 9.92188C17.7227 10.0391 17.5781 10.2344 17.4609 10.3555C17.3242 10.4961 17.1523 10.6211 16.9922 10.6992C16.8516 10.7656 16.6172 10.8398 16.4648 10.8633C16.2617 10.8945 16.1289 10.8945 15.9375 10.8594C15.7969 10.8359 15.5781 10.7656 15.4492 10.7031C15.3203 10.6406 15.1797 10.5977 15.1367 10.6055C15.0938 10.6172 14.875 10.668 14.6484 10.7227C14.4219 10.7773 14.0469 10.8867 13.8086 10.9609C13.5742 11.0391 13.1875 11.1797 12.9492 11.2773C12.7148 11.375 12.3281 11.5508 12.0898 11.668C11.8555 11.7852 11.582 11.9297 11.4844 11.9844C11.3867 12.0391 11.1445 12.1875 10.9492 12.3125C10.75 12.4375 10.5859 12.5469 10.5859 12.5586C10.5859 12.5703 10.6758 12.6797 10.7852 12.8008C10.8984 12.9258 11.0312 13.0938 11.0781 13.1719C11.1289 13.2539 11.207 13.4258 11.25 13.5547C11.3021 13.7109 11.3281 13.8932 11.3281 14.1016C11.3281 14.3164 11.3008 14.4922 11.2461 14.6562C11.1992 14.793 11.1094 14.9805 11.043 15.0781C10.9727 15.1758 10.8125 15.3672 10.4375 15.7617L11.1484 16.4844C11.7344 17.0781 11.8828 17.2539 11.9844 17.4609C12.0508 17.6016 12.125 17.8281 12.1523 17.9688C12.1836 18.1602 12.1836 18.2891 12.1484 18.4961C12.125 18.6484 12.0664 18.8555 12.0156 18.9648C11.9648 19.0703 11.8555 19.2461 11.7695 19.3555C11.6836 19.4609 11.5469 19.5977 11.4609 19.6562C11.3789 19.7148 11.1797 19.8164 11.0273 19.8828C10.7891 19.9805 10.6914 20 10.4219 20C10.1875 20 10.0391 19.9766 9.88281 19.918C9.76562 19.875 9.60547 19.8008 9.53125 19.7578C9.45703 19.7109 8.69531 18.9805 6.29297 16.582L5.98828 16.875C5.82031 17.0352 5.60547 17.2148 5.50781 17.2734C5.41016 17.3281 5.22656 17.4062 5.09766 17.4414C4.92578 17.4922 4.77344 17.5039 4.51172 17.4922C4.22266 17.4766 4.11328 17.4531 3.88672 17.3477C3.64062 17.2344 3.51953 17.1289 2.59766 16.2109C1.99219 15.6055 1.53125 15.1172 1.45703 14.9922C1.38672 14.8789 1.30469 14.6797 1.26953 14.5508C1.23828 14.4219 1.21094 14.2188 1.21094 14.1016C1.21094 13.9844 1.23828 13.7852 1.26953 13.6602C1.30078 13.5391 1.36719 13.3633 1.41016 13.2695C1.46484 13.1641 2.10547 12.4883 3.27734 11.3086C4.26172 10.3203 5.1875 9.37109 5.33594 9.19922C5.48438 9.02734 5.71484 8.74609 5.84375 8.57422C5.97656 8.40234 6.21484 8.05859 6.375 7.8125C6.53906 7.56641 6.79297 7.125 6.94531 6.83594C7.09766 6.54688 7.30078 6.125 7.39453 5.89844C7.48828 5.67188 7.64844 5.24219 7.74609 4.94141C7.84375 4.64062 7.97266 4.19141 8.13281 3.49609L8.03516 3.30078C7.97656 3.19531 7.91406 3.01953 7.88672 2.91016C7.85938 2.80078 7.84766 2.56641 7.85547 2.38281C7.87109 2.10156 7.89453 2.00391 8.01562 1.75781C8.10547 1.56641 8.22656 1.39453 8.36328 1.25781C8.48047 1.14453 8.67969 1 8.80859 0.933594C8.9375 0.871094 9.12109 0.804688 9.21875 0.78125C9.31641 0.761719 9.52734 0.753906 9.6875 0.761719ZM9.10938 2.1875C9.05078 2.27734 9.02344 2.38281 9.02344 2.49219C9.02344 2.58203 9.04297 2.69531 9.06641 2.74609C9.08984 2.79297 10.6406 4.36719 12.5156 6.24219C15.3711 9.10156 15.9414 9.65625 16.0664 9.6875C16.1602 9.71484 16.2617 9.71484 16.3594 9.6875C16.4375 9.66406 16.5312 9.625 16.5664 9.59766C16.6016 9.57422 16.668 9.48828 16.7148 9.41406C16.7578 9.33984 16.7969 9.21875 16.7969 9.14844C16.7969 9.08203 16.7734 8.96484 16.7422 8.89453C16.7109 8.82031 15.3125 7.39453 13.293 5.38281C11.4297 3.51953 9.85547 1.97656 9.79688 1.95312C9.73438 1.93359 9.64062 1.91406 9.58203 1.91406C9.51953 1.91406 9.41016 1.94531 9.33594 1.98438C9.26172 2.01953 9.16016 2.11328 9.10938 2.1875ZM8.90625 5.15625C8.81641 5.44531 8.67969 5.84375 8.60547 6.03516C8.53125 6.22656 8.33594 6.66016 8.17578 6.99219C8.01562 7.32422 7.79688 7.74609 7.6875 7.92969C7.57812 8.11328 7.35156 8.46484 7.18359 8.71094C7.01562 8.95703 6.73828 9.33594 6.56641 9.55078L6.25391 9.94141L8.76953 12.4688C9.40625 11.9609 9.82812 11.6562 10.1172 11.4609C10.4062 11.2695 10.8555 10.9922 11.1133 10.8516C11.3711 10.707 11.8281 10.4844 12.1289 10.3477C12.4297 10.2148 12.9883 10.0039 13.3711 9.87891C13.75 9.75 14.0898 9.64844 14.1211 9.64844C14.1523 9.64844 14.1797 9.63672 14.1797 9.61719C14.1797 9.60156 13.0391 8.44922 11.6406 7.05078C9.98047 5.38672 9.09766 4.53125 9.08594 4.57031C9.07812 4.60156 8.99609 4.86719 8.90625 5.15625ZM3.9375 12.293C2.67969 13.5586 2.42188 13.832 2.40234 13.9453C2.38672 14.0195 2.38672 14.1523 2.40234 14.2383C2.42578 14.375 2.53125 14.5 3.33203 15.3047C3.83203 15.8086 4.28516 16.2422 4.34766 16.2734C4.40625 16.3047 4.52344 16.3281 4.60938 16.3281C4.69531 16.3281 4.8125 16.3047 4.875 16.2734C4.93359 16.2422 5.64453 15.5508 6.45703 14.7383L7.92969 13.2617L5.44922 10.7812L3.9375 12.293ZM8.76953 14.0938L9.58984 14.918C9.94141 14.5703 10.0703 14.4219 10.0977 14.3633C10.1289 14.3047 10.1562 14.1836 10.1562 14.0977C10.1562 14.0117 10.1367 13.9023 10.1133 13.8555C10.0859 13.8086 9.96875 13.668 9.84766 13.543C9.72656 13.418 9.61719 13.3164 9.60547 13.3164C9.58984 13.3164 9.39844 13.4922 9.17578 13.707L8.76953 14.0938ZM7.10938 15.7578C9.88672 18.5312 10.1562 18.7852 10.2734 18.8086C10.3477 18.8203 10.4688 18.8203 10.5469 18.8008C10.6211 18.7852 10.7422 18.7188 10.8125 18.6523C10.8867 18.5859 10.957 18.4688 10.9766 18.3867C11 18.293 11 18.1836 10.9766 18.0938C10.9453 17.9727 10.668 17.6758 9.44141 16.4531C8.62109 15.6289 7.9375 14.957 7.92969 14.957C7.91797 14.957 7.72656 15.1367 7.50781 15.3594L7.10938 15.7578ZM17.0703 1.17578C17.1758 1.18359 17.3008 1.23047 17.3789 1.28516C17.4531 1.33984 17.5391 1.4375 17.5664 1.50781C17.5938 1.57812 17.6172 1.6875 17.6172 1.75391C17.6172 1.81641 17.5898 1.92578 17.5586 1.99609C17.5273 2.06641 17.1992 2.42578 16.8281 2.79297C16.2422 3.375 16.1328 3.46875 15.9961 3.49219C15.9102 3.50781 15.7773 3.50391 15.7031 3.48047C15.6289 3.45703 15.5078 3.375 15.4414 3.30078C15.3711 3.22266 15.3008 3.10156 15.2891 3.03125C15.2773 2.96094 15.2852 2.83594 15.3125 2.75C15.3516 2.63281 15.5078 2.44531 15.9531 1.99219C16.2773 1.66016 16.6211 1.33984 16.7188 1.27734C16.8633 1.18359 16.9258 1.16406 17.0703 1.17578ZM17.6172 4.68359C18.25 4.68359 18.3555 4.69141 18.4766 4.75391C18.5508 4.79688 18.6445 4.87109 18.6836 4.92188C18.7227 4.97266 18.7656 5.10156 18.7734 5.21094C18.7891 5.35547 18.7734 5.44141 18.7188 5.54297C18.6797 5.61719 18.5742 5.71875 18.4922 5.76562C18.3477 5.85156 18.3086 5.85547 17.5898 5.84375C16.9141 5.83594 16.832 5.82812 16.7344 5.75781C16.6797 5.71484 16.5977 5.63281 16.5586 5.58203C16.5156 5.52734 16.4727 5.42187 16.457 5.34766C16.4414 5.25 16.457 5.16016 16.5156 5.03516C16.5703 4.91797 16.6484 4.82812 16.7461 4.76953C16.8867 4.69141 16.9414 4.68359 17.6172 4.68359ZM5.44141 12.6914C5.51953 12.6914 5.63281 12.7148 5.69531 12.7461C5.75391 12.7773 5.84375 12.8477 5.89844 12.9062C5.96875 12.9805 6 13.0625 6.01172 13.2109C6.01953 13.3398 6.00391 13.4531 5.96484 13.5312C5.93359 13.5938 5.67969 13.8672 5.40234 14.1406C5.02344 14.5156 4.87109 14.6406 4.76562 14.6602C4.69141 14.6758 4.57031 14.6797 4.50391 14.668C4.43359 14.6523 4.3125 14.5859 4.23438 14.5156C4.14844 14.4375 4.08203 14.332 4.05859 14.2344C4.03516 14.1484 4.03125 14.0234 4.04688 13.9609C4.0625 13.8828 4.23828 13.6758 4.56641 13.3398C4.83594 13.0625 5.11328 12.8047 5.17578 12.7656C5.24219 12.7227 5.35938 12.6914 5.44141 12.6914Z" fill="#222754"/>
</g>
</svg>
