<svg width="20" height="20" viewBox="0 0 20 20" fill="none" xmlns="http://www.w3.org/2000/svg">
<g id="file - 2024-02-23T144922.904 1">
<path id="Path 0" fill-rule="evenodd" clip-rule="evenodd" d="M4.51172 1.25813L9.97266 1.25423C15.2969 1.25032 15.4375 1.25032 15.7617 1.32845C15.9453 1.37141 16.2109 1.45345 16.3594 1.50813C16.5039 1.56282 16.7617 1.68782 16.9336 1.78938C17.1445 1.91438 17.3711 2.10188 17.6367 2.3636C17.9062 2.63313 18.082 2.85188 18.207 3.06673C18.3086 3.2386 18.4375 3.50423 18.4961 3.65266C18.5547 3.8011 18.6367 4.07454 18.6758 4.25813C18.7461 4.57454 18.75 4.86751 18.75 9.98079C18.75 15.0824 18.7461 15.3909 18.6758 15.723C18.6367 15.9144 18.5547 16.1956 18.4961 16.348C18.4375 16.5003 18.3086 16.762 18.207 16.9339C18.082 17.1488 17.9062 17.3675 17.6367 17.637C17.3711 17.8988 17.1445 18.0863 16.9336 18.2113C16.7617 18.3128 16.5039 18.4378 16.3555 18.4925C16.2109 18.5472 15.9453 18.6292 15.7617 18.6722C15.4375 18.7464 15.293 18.7503 10 18.7503C4.65625 18.7503 4.56641 18.7503 4.22656 18.6683C4.03906 18.6253 3.77344 18.5433 3.63281 18.4886C3.49219 18.43 3.27344 18.3245 3.14453 18.2503C3.01562 18.18 2.81641 18.0472 2.69922 17.9573C2.58203 17.8675 2.37109 17.6683 2.23047 17.512C2.08984 17.3597 1.89063 17.098 1.79297 16.9261C1.69141 16.7581 1.5625 16.5003 1.50391 16.348C1.44531 16.1956 1.36328 15.9261 1.32422 15.7425C1.25391 15.4261 1.25 15.1331 1.25 10.0199C1.25 4.9222 1.25391 4.6097 1.32422 4.27766C1.36328 4.08235 1.45313 3.78548 1.51953 3.6136C1.58984 3.44173 1.72656 3.16829 1.82812 3.00813C1.92578 2.84798 2.16016 2.56282 2.34375 2.37923C2.52734 2.19173 2.80078 1.96126 2.94922 1.8636C3.10156 1.76595 3.35547 1.62923 3.51562 1.56282C3.67578 1.49251 3.96875 1.39485 4.16016 1.34407L4.51172 1.25813ZM3.86719 2.78548C3.61719 2.90657 3.46484 3.01985 3.23828 3.24251C3.00781 3.47298 2.90234 3.6136 2.77734 3.87141C2.6875 4.05501 2.58984 4.32454 2.55859 4.47688C2.51172 4.70735 2.5 5.53938 2.5 10.0042C2.5 14.4691 2.51172 15.2972 2.55859 15.5316C2.58984 15.68 2.6875 15.9534 2.77734 16.137C2.90234 16.3948 3.00781 16.5355 3.23828 16.7659C3.46484 16.9886 3.61719 17.098 3.86719 17.223C4.05078 17.3128 4.32422 17.4144 4.47266 17.4456C4.70312 17.4925 5.53516 17.5042 10 17.5042C14.4648 17.5042 15.2969 17.4925 15.5273 17.4456C15.6797 17.4144 15.9492 17.3128 16.1328 17.2269C16.3867 17.098 16.5352 16.9925 16.7617 16.7659C16.9883 16.5394 17.0977 16.3909 17.2227 16.137C17.3125 15.9534 17.4102 15.68 17.4414 15.5316C17.4883 15.2972 17.5 14.4691 17.5 10.0042C17.5 5.53938 17.4883 4.70735 17.4414 4.47688C17.4102 4.32454 17.3125 4.05501 17.2227 3.87141C17.0977 3.61751 16.9883 3.46907 16.7617 3.24251C16.5352 3.01595 16.3867 2.90657 16.1328 2.78157C15.9492 2.69173 15.6797 2.59407 15.5273 2.56282C15.293 2.51204 14.4688 2.50423 9.98047 2.50813C5.62109 2.50813 4.66406 2.51985 4.45312 2.56282C4.3125 2.59407 4.05078 2.69173 3.86719 2.78548ZM10.0781 5.02766C10.1523 5.03938 10.2695 5.08235 10.332 5.11751C10.3945 5.15657 10.4883 5.26595 10.625 5.53157L10.6055 14.6058L10.5234 14.7191C10.4766 14.7777 10.3906 14.8636 10.3359 14.9066C10.2578 14.9652 10.168 14.9847 10 14.9847C9.83203 14.9847 9.74219 14.9652 9.66406 14.9066C9.60938 14.8636 9.52344 14.7777 9.39453 14.6058L9.38672 10.0589C9.375 5.68782 9.37891 5.50423 9.44922 5.3636C9.48828 5.28548 9.57031 5.18391 9.63281 5.14485C9.69531 5.10188 9.78906 5.05501 9.84375 5.03938C9.89844 5.02376 10.0039 5.01595 10.0781 5.02766ZM13.8086 7.51985C13.918 7.52766 14.0469 7.57063 14.0977 7.6097C14.1484 7.64876 14.2266 7.73079 14.3555 7.89876V14.6058L14.2734 14.7191C14.2266 14.7777 14.1406 14.8636 14.0859 14.9066C14.0078 14.9652 13.918 14.9847 13.75 14.9847C13.5781 14.9847 13.4961 14.9652 13.4102 14.9027C13.3516 14.8558 13.2656 14.7699 13.2227 14.7113C13.1445 14.6097 13.1445 14.5355 13.1328 11.3597C13.125 9.57063 13.1328 8.0511 13.1445 7.98079C13.1562 7.91438 13.207 7.8011 13.2539 7.73469C13.3047 7.66438 13.4062 7.58626 13.4805 7.55501C13.5586 7.52376 13.6914 7.50813 13.8086 7.51985ZM6.30859 9.39485C6.41797 9.40266 6.54688 9.44563 6.59766 9.4847C6.64844 9.52376 6.72656 9.60579 6.77344 9.66438C6.85547 9.77376 6.85547 9.78938 6.85547 12.1917C6.85547 14.5941 6.85547 14.6097 6.77344 14.7191C6.72656 14.7777 6.64062 14.8636 6.58594 14.9066C6.50781 14.9652 6.41797 14.9847 6.25 14.9847C6.08203 14.9847 5.99219 14.9652 5.91406 14.9066C5.85938 14.8636 5.77344 14.7777 5.72656 14.7191C5.64453 14.6097 5.64453 14.5823 5.63281 12.2972C5.625 11.0238 5.63281 9.9261 5.64453 9.85579C5.65625 9.78938 5.70703 9.6761 5.75391 9.6097C5.80469 9.53938 5.90625 9.46126 5.98047 9.43001C6.05859 9.39876 6.19141 9.38313 6.30859 9.39485Z" fill="#222754"/>
</g>
</svg>
