<svg width="20" height="20" viewBox="0 0 20 20" fill="none" xmlns="http://www.w3.org/2000/svg">
<g id="file - 2024-02-23T143320.373 1" clip-path="url(#clip0_2081_916)">
<path id="Path 0" fill-rule="evenodd" clip-rule="evenodd" d="M10.1172 0.786022C12.3398 0.782116 12.7422 0.789928 12.9102 0.84071C13.0195 0.875866 13.1758 0.942272 13.2617 0.99696C13.3477 1.04774 13.4883 1.16493 13.5781 1.25868C13.6641 1.35243 13.7773 1.49696 13.8242 1.5829C13.875 1.66883 13.9375 1.8368 13.9688 1.95399C14.0117 2.12587 14.0234 2.5829 14.0234 4.21962C14.0234 5.95008 14.0156 6.30555 13.9648 6.50477C13.9297 6.63368 13.8594 6.80946 13.8125 6.8954C13.7617 6.98133 13.6445 7.12977 13.5508 7.22352C13.457 7.31727 13.3086 7.43055 13.2227 7.47352C13.1367 7.5204 12.9961 7.5829 12.9102 7.61415C12.7969 7.65321 12.4805 7.67274 10.7031 7.69618V10.3915H12.7266C13.9023 10.3915 14.8828 10.4071 15.0781 10.4306C15.2617 10.454 15.5586 10.5243 15.7422 10.5868C15.9258 10.6532 16.168 10.7626 16.2812 10.829C16.3984 10.8993 16.5898 11.036 16.7109 11.1337C16.832 11.2313 17.0234 11.4227 17.1367 11.5634C17.25 11.704 17.4219 11.9774 17.5156 12.1688C17.6133 12.3602 17.7188 12.6259 17.7539 12.7548C17.793 12.8993 17.8281 13.2352 17.8711 14.2899L18.3398 14.3056C18.7695 14.3173 18.832 14.329 19.0742 14.4462C19.2188 14.5165 19.4219 14.6532 19.5234 14.7548C19.6289 14.8602 19.75 15.0126 19.793 15.0985C19.8398 15.1845 19.9023 15.3329 19.9375 15.4306C19.9883 15.5751 20 15.8095 20 16.7391C20 17.6727 19.9883 17.911 19.9375 18.0868C19.9023 18.204 19.8164 18.3876 19.7461 18.497C19.6797 18.6024 19.5508 18.7587 19.4609 18.8368C19.3711 18.9188 19.2383 19.0126 19.168 19.0477C19.1016 19.0829 18.9648 19.1376 18.8672 19.1649C18.7344 19.2079 18.3477 19.2196 17.2461 19.2196C16.1445 19.2196 15.7578 19.2079 15.625 19.1649C15.5273 19.1376 15.3867 19.0829 15.3125 19.0438C15.2383 19.0048 15.0898 18.8915 14.9883 18.7938C14.8828 18.6962 14.7578 18.5438 14.707 18.4579C14.6602 18.372 14.5898 18.204 14.5547 18.0868C14.5039 17.911 14.4922 17.6727 14.4922 16.7782C14.4922 15.9306 14.5039 15.6337 14.5508 15.4579C14.582 15.3368 14.668 15.1415 14.7422 15.0282C14.8125 14.9188 14.9219 14.7782 14.9844 14.7235C15.0469 14.6649 15.1719 14.5751 15.2656 14.5165C15.3555 14.4618 15.5313 14.3876 15.6523 14.3563C15.7852 14.3212 16.0469 14.2977 16.6797 14.2977V13.8173C16.6797 13.5282 16.6562 13.2391 16.6172 13.0868C16.5859 12.9462 16.4922 12.7196 16.4102 12.579C16.3242 12.4384 16.1602 12.2313 16.0391 12.1181C15.918 12.0048 15.6953 11.8563 15.5352 11.7782C15.3711 11.7001 15.1406 11.6259 14.9805 11.6024C14.8086 11.5751 13.9688 11.5673 10.7227 11.5829L10.7031 14.2977L11.1992 14.3095C11.668 14.3212 11.7148 14.329 11.9648 14.4462C12.1172 14.5165 12.3086 14.6532 12.4219 14.7665C12.5273 14.872 12.6602 15.0556 12.7148 15.1649C12.7656 15.2782 12.8281 15.4696 12.8516 15.5868C12.875 15.704 12.8906 16.2313 12.8906 16.7587C12.8906 17.2899 12.8711 17.8212 12.8477 17.9501C12.8242 18.079 12.7617 18.2665 12.7109 18.3681C12.6602 18.4735 12.5508 18.6259 12.4688 18.7157C12.3906 18.8016 12.2461 18.9227 12.1484 18.9852C12.0508 19.0438 11.8828 19.122 11.7773 19.1571C11.6094 19.2118 11.3828 19.2196 8.53516 19.2001L8.28125 19.079C8.14062 19.0126 7.94922 18.8798 7.85547 18.786C7.76563 18.6923 7.64453 18.5438 7.59375 18.4579C7.54297 18.372 7.47266 18.204 7.44141 18.0868C7.39844 17.9188 7.38281 17.622 7.38281 16.7587C7.38281 15.8446 7.39453 15.6063 7.44531 15.4306C7.48047 15.3134 7.55078 15.1454 7.60156 15.0595C7.64844 14.9735 7.76562 14.8329 7.85938 14.7431C7.95312 14.6571 8.09766 14.5438 8.18359 14.497C8.26953 14.4462 8.4375 14.3837 8.55469 14.3524C8.67188 14.3212 8.94141 14.2977 9.53125 14.2977V11.5634H7.37109C5.61719 11.5634 5.16406 11.5751 4.94141 11.622C4.79297 11.6532 4.55469 11.7391 4.42188 11.8056C4.28516 11.8759 4.06641 12.0399 3.93359 12.1688C3.76172 12.3407 3.65625 12.4931 3.37891 13.0673L3.35938 14.2977H3.73828C3.95312 14.2977 4.21875 14.3212 4.34375 14.3563C4.46875 14.3876 4.64453 14.4618 4.73438 14.5165C4.82812 14.5751 4.95312 14.6649 5.01562 14.7235C5.07812 14.7782 5.1875 14.9188 5.25781 15.0282C5.33203 15.1415 5.41797 15.3368 5.44922 15.4579C5.49609 15.6337 5.50781 15.9306 5.50781 16.7782C5.50781 17.6727 5.49609 17.911 5.44531 18.0868C5.41016 18.204 5.33984 18.372 5.29297 18.4579C5.24219 18.5438 5.11719 18.6962 5.01172 18.7938C4.91016 18.8915 4.76172 19.0048 4.6875 19.0438C4.61328 19.0829 4.47266 19.1376 4.375 19.1649C4.24219 19.2079 3.85547 19.2196 2.75391 19.2196C1.65234 19.2196 1.26562 19.2079 1.13281 19.1649C1.03516 19.1376 0.898438 19.0829 0.828125 19.0477C0.761719 19.0126 0.628906 18.9188 0.539062 18.8368C0.449219 18.7587 0.320312 18.6024 0.253906 18.497C0.183594 18.3876 0.101562 18.2118 0.0625 18.1063C0.0078125 17.9423 0 17.7352 0 16.7782C0 15.9384 0.015625 15.5985 0.0546875 15.4696C0.0820312 15.372 0.148438 15.2157 0.195312 15.1181C0.246094 15.0204 0.371094 14.8602 0.476562 14.7548C0.578125 14.6532 0.78125 14.5165 0.925781 14.4462C1.16797 14.3329 1.23438 14.3173 2.16797 14.2782L2.19141 13.6337C2.20312 13.1923 2.23438 12.911 2.28125 12.7352C2.32031 12.5946 2.39062 12.3915 2.4375 12.286C2.48438 12.1766 2.59375 11.9852 2.67578 11.8563C2.75781 11.7274 2.92188 11.5204 3.04297 11.3915C3.16406 11.2665 3.36719 11.0868 3.49609 10.997C3.625 10.9032 3.84375 10.7743 3.98438 10.7079C4.125 10.6415 4.37891 10.5477 4.55078 10.5009C4.85547 10.4188 4.92578 10.4149 9.53125 10.3915V7.69618L8.50391 7.68446C7.53516 7.67274 7.46875 7.66493 7.24609 7.57899C7.11719 7.52821 6.93359 7.42274 6.83594 7.34462C6.73828 7.26649 6.59766 7.10633 6.51953 6.98915C6.44141 6.87196 6.34766 6.68837 6.3125 6.5829C6.25391 6.40712 6.25 6.1454 6.26953 1.93446L6.39062 1.68055C6.45703 1.53602 6.59375 1.34462 6.70312 1.23524C6.80859 1.12977 6.96484 1.00868 7.05078 0.96571C7.13672 0.922741 7.27734 0.864147 7.36328 0.836803C7.48438 0.797741 8.13281 0.786022 10.1172 0.786022ZM7.42969 2.18055C7.42188 5.50477 7.4375 6.24305 7.46094 6.30165C7.48438 6.34852 7.54297 6.41493 7.58984 6.44618C7.66406 6.49696 8.01953 6.50477 10.0781 6.51649C12.3086 6.5243 12.4883 6.5204 12.6172 6.4579C12.6914 6.41883 12.7734 6.34462 12.8008 6.28993C12.8398 6.21571 12.8516 5.71962 12.8516 4.22743C12.8516 2.86024 12.8398 2.23915 12.8086 2.17665C12.7852 2.12977 12.7266 2.05946 12.6797 2.0243C12.6055 1.9618 12.4102 1.95399 10.125 1.95399H7.64844L7.42969 2.18055ZM1.21484 15.7118C1.19141 15.7821 1.17578 16.2509 1.17578 16.786C1.17578 17.4032 1.19141 17.7626 1.21875 17.8212C1.24219 17.8681 1.30078 17.9384 1.34766 17.9774C1.42188 18.036 1.55859 18.0438 2.74609 18.0438C3.55078 18.0438 4.09766 18.0321 4.14453 18.0087C4.1875 17.9852 4.25 17.9149 4.28125 17.8524C4.32812 17.7548 4.33984 17.5477 4.33984 16.7587C4.33984 16.0556 4.32422 15.7509 4.28906 15.6766C4.26562 15.622 4.19531 15.5516 4.13281 15.5204C4.05078 15.4774 3.76172 15.4696 2.74609 15.4696C1.70313 15.4696 1.44922 15.4813 1.35938 15.5282C1.30078 15.5595 1.23828 15.6376 1.21484 15.7118ZM8.62891 15.6376C8.56641 15.7118 8.55859 15.8368 8.55859 16.7665V17.8134L8.79297 18.0477H11.4688C11.6367 17.8954 11.6914 17.7938 11.707 17.7235C11.7188 17.6532 11.7227 17.1688 11.7148 16.6454L11.7031 15.6962L11.4492 15.4696C9.28125 15.4696 8.82422 15.4852 8.77344 15.5126C8.73047 15.536 8.66406 15.5946 8.62891 15.6376ZM15.7305 15.6688C15.6797 15.747 15.6719 15.9227 15.668 16.747C15.668 17.5477 15.6797 17.7548 15.7266 17.8524C15.7578 17.9149 15.8203 17.9852 15.8633 18.0087C15.9102 18.0321 16.457 18.0438 17.2578 18.0438C18.4492 18.0438 18.5859 18.036 18.6602 17.9774C18.707 17.9384 18.7656 17.8681 18.7891 17.8212C18.8164 17.7626 18.832 17.4032 18.832 16.786C18.832 16.2509 18.8164 15.7821 18.793 15.7118C18.7695 15.6337 18.7109 15.5634 18.6367 15.5282C18.5391 15.4774 18.3008 15.4696 17.2383 15.4696C16.25 15.4696 15.9414 15.4813 15.875 15.5204C15.8281 15.5516 15.7656 15.6141 15.7305 15.6688Z" fill="#222754"/>
</g>
<defs>
<clipPath id="clip0_2081_916">
<rect width="20" height="20" fill="white"/>
</clipPath>
</defs>
</svg>
