<svg width="20" height="20" viewBox="0 0 20 20" fill="none" xmlns="http://www.w3.org/2000/svg">
<g id="file - 2024-02-23T144818.581 1" clip-path="url(#clip0_2081_1000)">
<path id="Path 0" fill-rule="evenodd" clip-rule="evenodd" d="M10.6249 0V9.375H19.9999V10.0117C19.9999 10.3594 19.9725 10.8555 19.9413 11.1133C19.9061 11.3711 19.8358 11.7969 19.785 12.0625C19.7304 12.3242 19.5975 12.8086 19.4921 13.1328C19.3827 13.4609 19.1679 13.9961 19.0116 14.3164C18.8554 14.6406 18.6132 15.0781 18.4804 15.293C18.3436 15.5078 18.1132 15.8438 17.9686 16.0352C17.8202 16.2266 17.5624 16.5352 17.3944 16.7188C17.2264 16.9023 16.9296 17.1992 16.7382 17.3789C16.5468 17.5586 16.2186 17.832 16.0155 17.9844C15.8124 18.1367 15.4843 18.3633 15.2929 18.4805C15.1014 18.6016 14.7929 18.7773 14.6093 18.875C14.4257 18.9688 14.1093 19.1211 13.9061 19.207C13.703 19.293 13.3163 19.4375 13.0468 19.5234C12.7772 19.6094 12.3866 19.7148 12.1757 19.7617C11.9686 19.8047 11.5546 19.8789 11.2616 19.9219C10.8749 19.9766 10.5155 20 9.99988 20C9.46863 20 9.1327 19.9805 8.73035 19.918C8.42957 19.875 8.01551 19.8047 7.81238 19.7578C7.60926 19.7148 7.17566 19.5938 6.85535 19.4883C6.5077 19.3711 5.99988 19.1602 5.60535 18.9688C5.24207 18.7891 4.74598 18.5117 4.5116 18.3555C4.27332 18.1953 3.91395 17.9336 3.71082 17.7656C3.5077 17.6016 3.14441 17.2695 2.90223 17.0234C2.66004 16.7812 2.34363 16.4336 2.1991 16.25C2.05067 16.0664 1.81629 15.7422 1.67176 15.5273C1.53113 15.3125 1.32801 14.9766 1.22254 14.7852C1.11317 14.5938 0.953009 14.2656 0.859259 14.0625C0.769415 13.8594 0.609259 13.4336 0.50379 13.1172C0.398321 12.7969 0.269415 12.3242 0.218634 12.0625C0.163946 11.7969 0.0897275 11.3633 0.0545713 11.0938C0.00379004 10.707 -0.00402246 10.4375 0.0116025 9.80469C0.0233213 9.36328 0.0623838 8.82031 0.09754 8.59375C0.132696 8.36719 0.195196 8.01562 0.242071 7.8125C0.28504 7.60938 0.402228 7.1875 0.507696 6.875C0.609259 6.5625 0.777228 6.125 0.87879 5.89844C0.980353 5.67188 1.16785 5.30469 1.29676 5.07812C1.42567 4.85156 1.64832 4.5 1.79285 4.29688C1.93348 4.09375 2.17566 3.77734 2.32801 3.59375C2.48035 3.41016 2.76941 3.09766 2.97254 2.89453C3.17566 2.69531 3.5077 2.39453 3.71082 2.23047C3.91395 2.06641 4.2577 1.81641 4.47254 1.67188C4.68738 1.53125 5.02332 1.32812 5.21473 1.22266C5.40613 1.11328 5.73426 0.953125 5.93738 0.859375C6.14051 0.769531 6.56238 0.609375 6.87488 0.507812C7.18738 0.402344 7.61707 0.28125 7.83191 0.238281C8.04676 0.191406 8.43348 0.121094 8.69129 0.0820312C9.0077 0.03125 9.39441 0.0078125 10.6249 0ZM8.28113 1.43359C7.99207 1.48828 7.55066 1.59766 7.30457 1.67969C7.05848 1.76172 6.64441 1.92187 6.3866 2.03516C6.12879 2.15234 5.73426 2.35938 5.5077 2.49609C5.28113 2.63281 4.92957 2.87109 4.72645 3.02344C4.52332 3.17578 4.16785 3.48438 3.93348 3.71094C3.6952 3.9375 3.36316 4.29688 3.19129 4.51172C3.01941 4.72656 2.77332 5.0625 2.64832 5.25391C2.52332 5.44531 2.30848 5.83203 2.16785 6.11328C2.03113 6.39453 1.85535 6.78906 1.78113 6.99219C1.70692 7.19531 1.60145 7.53906 1.54676 7.75391C1.48817 7.96875 1.41004 8.35547 1.36707 8.61328C1.3241 8.87109 1.27723 9.34766 1.26551 9.66797C1.24988 10.0156 1.2577 10.4609 1.28504 10.7617C1.31238 11.0391 1.37488 11.4805 1.42957 11.7383C1.48035 11.9961 1.5702 12.3555 1.62488 12.5391C1.67957 12.7227 1.80457 13.0625 1.90223 13.3008C1.99598 13.5391 2.16395 13.8984 2.27332 14.1016C2.3827 14.3047 2.5702 14.6211 2.69129 14.8047C2.80848 14.9883 3.04285 15.3047 3.20691 15.5078C3.37098 15.7109 3.6952 16.0625 3.93348 16.2891C4.16785 16.5156 4.52332 16.8242 4.72645 16.9766C4.92957 17.1289 5.26551 17.3555 5.46863 17.4805C5.67176 17.6055 6.01551 17.793 6.23035 17.8945C6.4452 17.9922 6.78895 18.1406 6.99207 18.2148C7.1952 18.293 7.53895 18.3984 7.75379 18.457C7.96863 18.5117 8.36316 18.5938 8.6327 18.6406C9.02723 18.7109 9.28504 18.7266 9.98035 18.7266C10.6249 18.7266 10.9452 18.7109 11.2694 18.6602C11.5077 18.6211 11.91 18.5352 12.1679 18.4727C12.4257 18.4062 12.8046 18.293 13.0077 18.2148C13.2108 18.1367 13.5194 18.0117 13.6913 17.9336C13.8632 17.8516 14.1796 17.6836 14.3944 17.5586C14.6093 17.4336 14.9061 17.2422 15.0585 17.1367C15.2108 17.0273 15.4647 16.832 15.6249 16.6953C15.785 16.5625 16.078 16.2891 16.2733 16.0859C16.4686 15.8867 16.7225 15.6016 16.8436 15.4492C16.9647 15.2969 17.1679 15.0156 17.2929 14.8242C17.4218 14.6328 17.6093 14.3242 17.7069 14.1406C17.8046 13.957 17.9647 13.625 18.0585 13.3984C18.1561 13.1719 18.285 12.8125 18.3514 12.5977C18.4139 12.3828 18.496 12.0859 18.5311 11.9336C18.5663 11.7812 18.621 11.4922 18.6522 11.2891C18.6835 11.0859 18.7108 10.8516 18.7108 10.7695V10.625H9.37488V1.28906C9.08582 1.29688 8.96082 1.30469 8.90613 1.31641C8.85145 1.32422 8.5702 1.375 8.28113 1.43359ZM12.2811 0H13.0038C13.5468 0 13.8358 0.0195312 14.1405 0.0742188C14.3671 0.117188 14.6639 0.175781 14.8046 0.210938C14.9452 0.242188 15.2186 0.324219 15.41 0.394531C15.6014 0.460938 15.8827 0.574219 16.035 0.644531C16.1874 0.710938 16.4764 0.871094 16.6796 0.992188C16.8827 1.11719 17.1913 1.33203 17.3632 1.46484C17.535 1.60156 17.8358 1.875 18.0311 2.07422C18.2225 2.27734 18.4452 2.51953 18.5233 2.61719C18.5975 2.71484 18.7499 2.92578 18.8593 3.08594C18.9647 3.24609 19.1522 3.57422 19.2694 3.80859C19.3905 4.04688 19.5507 4.42188 19.6249 4.64844C19.6991 4.875 19.7968 5.22656 19.8436 5.42969C19.8866 5.63281 19.9413 5.98438 19.9647 6.21094C19.9882 6.4375 19.9999 6.87109 19.9921 7.17578C19.9804 7.66797 19.9725 7.74219 19.8983 7.83984C19.8514 7.89844 19.7655 7.98438 19.7108 8.02734C19.6054 8.10547 19.5429 8.10547 12.2694 8.10547L12.16 8.02344C12.1014 7.97656 12.0155 7.89062 11.9725 7.83594C11.8944 7.73047 11.8944 7.65625 11.8827 4.14844C11.8749 1.73437 11.8827 0.519531 11.9139 0.421875C11.9374 0.324219 12.0116 0.226562 12.1171 0.136719L12.2811 0ZM13.1249 6.875H18.7694C18.7225 6.28516 18.6757 5.95703 18.6327 5.76172C18.5936 5.57031 18.5155 5.26953 18.4569 5.09766C18.4022 4.92578 18.285 4.63672 18.1991 4.45312C18.1132 4.26953 17.9257 3.94531 17.7811 3.73047C17.6171 3.48047 17.3671 3.18359 17.0936 2.91016C16.8163 2.63281 16.5194 2.38281 16.2694 2.21875C16.0546 2.07422 15.7108 1.87891 15.5077 1.78516C15.3046 1.6875 14.996 1.56641 14.8241 1.51172C14.6522 1.45703 14.3632 1.38672 14.1796 1.35156C13.996 1.31641 13.6874 1.27734 13.4921 1.26172L13.1366 1.23828L13.1249 6.875Z" fill="#222754"/>
</g>
<defs>
<clipPath id="clip0_2081_1000">
<rect width="20" height="20" fill="white"/>
</clipPath>
</defs>
</svg>
