<svg width="38" height="38" viewBox="0 0 38 38" fill="none" xmlns="http://www.w3.org/2000/svg">
<path fill-rule="evenodd" clip-rule="evenodd" d="M7.09531 6.30859C7.30313 6.30859 7.44414 6.36055 7.59258 6.49414C7.70391 6.59805 7.83008 6.76875 7.86719 6.8875C7.91172 6.99883 7.92656 7.18437 7.89688 7.31055C7.85977 7.45898 7.52578 7.85977 5.90039 9.50742L14.7324 9.5L13.7156 8.4832C12.7063 7.46641 12.6988 7.45898 12.6988 7.125C12.6988 6.84297 12.7359 6.75391 12.9512 6.54609C13.1516 6.36797 13.2777 6.30859 13.493 6.30859C13.7527 6.31602 13.8641 6.40508 15.534 8.075C16.6027 9.14375 17.3227 9.92305 17.3746 10.0566C17.4191 10.2125 17.4191 10.3461 17.3672 10.502C17.3227 10.6281 16.5582 11.4594 15.5637 12.4539C14.1387 13.8789 13.7973 14.1832 13.582 14.2203C13.4089 14.2549 13.248 14.2302 13.0996 14.1461C12.9734 14.0867 12.8324 13.9457 12.7879 13.8418C12.7359 13.7379 12.6914 13.5301 12.6914 13.3742C12.6988 13.1219 12.773 13.0254 13.6563 12.1348C14.1906 11.6004 14.5988 11.1477 14.5691 11.1105C14.532 11.0809 12.5949 11.0586 10.2645 11.0586C7.92656 11.0586 5.99688 11.0809 5.98203 11.1105C5.95977 11.1477 6.36055 11.5855 6.87266 12.0977C7.45898 12.6914 7.82266 13.1145 7.86719 13.2629C7.92656 13.4484 7.91172 13.5746 7.83008 13.7676C7.7707 13.916 7.62227 14.0793 7.49609 14.1387C7.36992 14.198 7.20664 14.25 7.125 14.25C7.04336 14.25 6.8875 14.2055 6.77617 14.1461C6.65742 14.0867 5.81133 13.2777 4.88359 12.3426C3.28789 10.7395 3.19141 10.6355 3.19141 10.3684C3.19141 10.2199 3.23594 10.0047 3.29531 9.88594C3.35469 9.77461 4.17109 8.92852 5.10625 7.99336C6.73906 6.38281 6.8207 6.30859 7.09531 6.30859ZM22.9559 6.30859C23.275 6.30859 23.4977 6.36055 23.8613 6.53125C24.1508 6.66484 24.4773 6.89492 24.6852 7.10273C24.8855 7.31797 25.0785 7.61484 25.1676 7.84492C25.2938 8.20117 25.3086 8.44609 25.3086 12.7285H26.0656C26.7188 12.7285 26.8746 12.7508 27.1492 12.8992C27.3199 12.9883 27.5945 13.1887 27.7652 13.3445C27.9285 13.493 28.1512 13.7973 28.2477 14.0125C28.4109 14.3762 28.4406 14.3984 28.6336 14.3465C28.7449 14.3094 29.0641 14.2871 29.3535 14.2945C29.7395 14.2945 29.977 14.3465 30.2738 14.4801C30.5336 14.5914 30.8082 14.7992 31.0383 15.0664C31.2387 15.2891 31.4465 15.5859 31.491 15.7195C31.5801 15.957 31.5875 15.9645 31.877 15.9051C32.0402 15.8754 32.3594 15.8457 32.582 15.8531C32.8542 15.8581 33.1337 15.9249 33.4207 16.0535C33.6508 16.1648 33.9922 16.4098 34.1852 16.6027C34.393 16.8254 34.5785 17.1148 34.6676 17.3672C34.816 17.7605 34.816 17.9312 34.7641 25.9395L34.5711 26.6445C34.4672 27.0305 34.2816 27.602 34.1555 27.9062C34.0293 28.2105 33.7324 28.7672 33.4949 29.1457C33.2574 29.5242 32.8492 30.0734 32.582 30.3703C32.3148 30.6598 31.8473 31.1051 31.543 31.3426C31.2387 31.5875 30.7563 31.9215 30.4668 32.0848C30.1773 32.248 29.7172 32.4781 29.4277 32.5969C29.1383 32.7156 28.5 32.916 28.0027 33.0348C27.2457 33.2129 26.934 33.25 26.1621 33.25C25.3828 33.25 25.1008 33.2129 24.4031 33.0348C23.943 32.916 23.3344 32.7156 23.0449 32.5895C22.7555 32.4559 22.2582 32.1738 21.9316 31.9512C21.6051 31.7359 21.1449 31.3648 20.9 31.1199C20.6625 30.8824 18.8516 28.7449 16.8773 26.3699C14.9031 23.9875 13.2035 21.9168 13.107 21.7609C13.0031 21.6125 12.8695 21.2859 12.7953 21.041C12.7063 20.707 12.684 20.4547 12.7137 20.0391C12.7508 19.6383 12.825 19.3488 12.9883 19.0148C13.107 18.7625 13.3594 18.4062 13.5449 18.2207C13.7305 18.0352 14.0719 17.7977 14.3094 17.6789C14.6879 17.5008 14.8141 17.4785 15.5117 17.4785C16.15 17.4785 16.3801 17.5082 16.7734 17.6566C17.0406 17.7531 17.4266 17.9387 17.627 18.0723C17.8348 18.2059 18.332 18.5918 18.7402 18.9406C19.1484 19.282 19.5566 19.6086 19.6531 19.6531C19.7422 19.7051 19.8832 19.7422 19.9648 19.7422C20.0465 19.7422 20.2172 19.6605 20.5586 19.3711L20.5957 8.20117L20.8035 7.75586C20.9148 7.51094 21.1152 7.19922 21.2488 7.0582C21.3824 6.92461 21.7164 6.69453 22.0059 6.56094C22.4066 6.37539 22.6293 6.31602 22.9559 6.30859ZM22.2285 8.29766L22.1543 19.5566C21.7684 20.3582 21.5754 20.6105 21.3676 20.7812C21.1895 20.9223 20.8852 21.1004 20.6922 21.1672C20.4918 21.2414 20.1504 21.3008 19.9277 21.3008C19.6977 21.3008 19.3488 21.234 19.1336 21.1523C18.8738 21.0559 18.4285 20.7367 17.8125 20.2246C17.3004 19.7941 16.7215 19.3562 16.5137 19.2598C16.3059 19.1484 15.9496 19.052 15.6973 19.0223C15.3336 18.9852 15.1926 19.0074 14.9402 19.141C14.6805 19.2672 14.584 19.3785 14.4207 19.7273C14.2648 20.0687 14.2352 20.2098 14.2797 20.4473C14.3094 20.6105 14.3836 20.8258 14.4504 20.9297C14.5172 21.0336 16.1129 22.9707 17.9832 25.2344C19.8609 27.498 21.5977 29.5687 21.85 29.8211C22.1023 30.0809 22.4883 30.4223 22.7109 30.5781C22.9336 30.7266 23.2973 30.9418 23.5125 31.0531C23.7203 31.157 24.1879 31.3352 24.5441 31.4391C25.1082 31.6098 25.3309 31.632 26.1621 31.632C26.9488 31.632 27.2605 31.5949 27.832 31.4465C28.218 31.35 28.7523 31.1645 29.0195 31.0457C29.2867 30.927 29.7469 30.6746 30.0363 30.4816C30.3332 30.2887 30.823 29.8879 31.1199 29.5984C31.4242 29.3016 31.8102 28.8414 31.9883 28.5742C32.1664 28.307 32.441 27.8246 32.5895 27.498C32.7453 27.1715 32.9457 26.6223 33.0348 26.2734C33.198 25.6648 33.2055 25.4941 33.2352 21.8574C33.2574 18.5398 33.25 18.0426 33.1461 17.8496C33.0793 17.7309 32.9457 17.5824 32.8418 17.5379C32.7379 17.4859 32.5375 17.4414 32.3891 17.4414C32.1961 17.4414 32.0699 17.5008 31.9066 17.6641L31.6914 17.8867C31.6914 19.475 31.6543 19.898 31.5949 20.0613C31.543 20.1875 31.4168 20.3582 31.3129 20.4324C31.2164 20.4992 31.016 20.5586 30.875 20.5586C30.734 20.5586 30.5336 20.4992 30.4371 20.4324C30.3332 20.3582 30.207 20.1875 30.1551 20.0613C30.0883 19.8832 30.0586 19.3488 30.0586 18.0945C30.066 16.4691 30.0512 16.3504 29.9102 16.1648C29.8285 16.0461 29.643 15.9273 29.502 15.8828C29.3016 15.8234 29.1828 15.8383 28.9824 15.9199C28.834 15.9793 28.6707 16.1277 28.6113 16.2539C28.5223 16.432 28.5 16.818 28.5 18.2207C28.5 19.7496 28.4852 19.9945 28.3738 20.1875C28.2996 20.3062 28.166 20.4398 28.077 20.4844C27.9805 20.5215 27.7875 20.5586 27.6465 20.5586C27.4535 20.5586 27.3273 20.4992 27.1641 20.3359L26.9414 20.1133C26.9414 15.4449 26.9191 14.9477 26.8301 14.7324C26.7707 14.584 26.6223 14.4207 26.4961 14.3613C26.3773 14.302 26.2066 14.25 26.125 14.25C26.0434 14.25 25.8727 14.302 25.7539 14.3613C25.6277 14.4207 25.4793 14.584 25.4199 14.7324C25.3309 14.9477 25.3086 15.4449 25.3086 17.5527V20.1133C24.9301 20.4992 24.8039 20.5586 24.6109 20.5586C24.4625 20.5586 24.2695 20.5215 24.1805 20.4844C24.084 20.4398 23.9504 20.3062 23.8836 20.1875C23.7574 19.9797 23.75 19.5566 23.75 14.25C23.75 8.94336 23.7426 8.52031 23.6238 8.3125C23.5496 8.19375 23.416 8.06016 23.327 8.01562C23.2305 7.97852 23.0449 7.94141 22.9039 7.94141C22.7406 7.94141 22.5699 8.0082 22.4363 8.11953L22.2285 8.29766Z" fill="#F15A2B"/>
</svg>
