<svg width="20" height="20" viewBox="0 0 20 20" fill="none" xmlns="http://www.w3.org/2000/svg">
<path fill-rule="evenodd" clip-rule="evenodd" d="M13.9053 8.76953C14.2764 8.77734 14.5889 8.80859 14.8038 8.85937C14.9874 8.90234 15.2686 8.98438 15.4288 9.03906C15.5889 9.09766 15.8428 9.20703 15.9952 9.28516C16.1475 9.35938 16.4014 9.50781 16.5616 9.61719C16.7217 9.72656 17.042 10 17.2686 10.2266C17.5186 10.4766 17.7725 10.7734 17.9014 10.9727C18.0186 11.1562 18.171 11.418 18.2413 11.5586C18.3116 11.6992 18.4249 11.9883 18.4991 12.2031C18.5694 12.418 18.6553 12.7773 18.6866 13.0039C18.7217 13.2305 18.7491 13.5625 18.7491 13.7461C18.7491 13.9297 18.7217 14.2617 18.6866 14.4883C18.6553 14.7148 18.5694 15.0742 18.4991 15.2891C18.4249 15.5039 18.3038 15.8125 18.2217 15.9727C18.1397 16.1328 17.9835 16.3984 17.878 16.5586C17.7686 16.7188 17.5108 17.0234 17.3077 17.2344C17.1006 17.4453 16.7842 17.7227 16.6006 17.8477C16.417 17.9688 16.1475 18.1328 15.9952 18.2109C15.8428 18.2852 15.5733 18.3984 15.3897 18.4648C15.2061 18.5273 14.9092 18.6133 14.7256 18.6523C14.4795 18.707 14.2295 18.7266 13.7491 18.7266C13.2686 18.7266 13.0186 18.707 12.7725 18.6523C12.5889 18.6133 12.292 18.5273 12.1085 18.4648C11.9249 18.3984 11.6553 18.2852 11.503 18.207C11.3506 18.1328 11.1241 18 10.9952 17.9141C10.8663 17.8281 10.7061 17.7148 10.6436 17.6641C10.5811 17.6094 10.3819 17.4258 10.2022 17.25C10.0225 17.0742 9.77642 16.7812 9.65142 16.5977C9.52642 16.4141 9.36236 16.1445 9.28814 15.9922C9.21002 15.8398 9.10064 15.5859 9.04205 15.4258C8.98736 15.2656 8.90533 14.9844 8.86236 14.8008C8.8233 14.6172 8.77642 14.25 8.7647 13.9805C8.74517 13.6172 8.75689 13.375 8.80377 13.043C8.84283 12.7969 8.92877 12.418 8.99908 12.2031C9.0733 11.9883 9.19439 11.6797 9.27642 11.5195C9.35845 11.3594 9.5147 11.0938 9.62408 10.9336C9.72955 10.7734 9.90923 10.543 10.0147 10.4258C10.1202 10.3086 10.3155 10.1172 10.4444 10C10.5772 9.88672 10.8038 9.70703 10.9561 9.60547C11.1085 9.50391 11.3506 9.35938 11.503 9.28516C11.6553 9.20703 11.9249 9.09375 12.1085 9.02734C12.292 8.96484 12.5811 8.88281 12.753 8.85156C12.9249 8.81641 13.128 8.78125 13.2022 8.76953C13.2764 8.76172 13.5928 8.76172 13.9053 8.76953ZM12.7335 10.1367C12.6163 10.1719 12.3975 10.25 12.2452 10.3164C12.0928 10.3828 11.8506 10.5156 11.6983 10.6133C11.546 10.707 11.2764 10.9375 11.0928 11.125C10.9092 11.3086 10.6749 11.5938 10.5772 11.7539C10.4756 11.9141 10.3428 12.1797 10.2764 12.3398C10.2139 12.5 10.128 12.7539 10.0928 12.9062C10.042 13.1016 10.0225 13.3438 10.0225 13.7461C10.0186 14.2188 10.0342 14.3672 10.1085 14.6445C10.1592 14.8281 10.2374 15.0664 10.2803 15.1719C10.3272 15.2812 10.4444 15.5078 10.542 15.6758C10.6397 15.8438 10.8389 16.1094 10.9795 16.2617C11.1202 16.4141 11.3585 16.6289 11.5069 16.7422C11.6553 16.8516 11.917 17.0117 12.0889 17.0977C12.2608 17.1836 12.5225 17.2891 12.6749 17.3359C12.8272 17.3789 13.0889 17.4375 13.2608 17.4609C13.4366 17.4844 13.7413 17.4961 13.9639 17.4805C14.1788 17.4688 14.4678 17.4297 14.6085 17.3984C14.7491 17.3633 14.9756 17.2891 15.1163 17.2344C15.2569 17.1797 15.5108 17.0547 15.6827 16.9531C15.8975 16.8281 16.1163 16.6523 16.3858 16.3828C16.6553 16.1133 16.8311 15.8945 16.9561 15.6797C17.0577 15.5078 17.1827 15.2539 17.2374 15.1133C17.292 14.9727 17.3702 14.7383 17.4092 14.5859C17.4561 14.3867 17.4756 14.1562 17.4756 13.7461C17.4756 13.2812 17.46 13.1211 17.3858 12.8477C17.3389 12.6641 17.2608 12.4297 17.2178 12.3203C17.171 12.2148 17.0538 11.9844 16.9561 11.8125C16.8311 11.5977 16.6553 11.3789 16.3858 11.1094C16.1124 10.8359 15.9014 10.6641 15.6827 10.5391C15.5108 10.4414 15.2842 10.3242 15.1749 10.2773C15.0694 10.2344 14.8389 10.1602 14.667 10.1133C14.4561 10.0586 14.2022 10.0234 13.8858 10.0156C13.628 10.0078 13.3116 10.0156 13.1827 10.0391C13.0538 10.0586 12.8506 10.1016 12.7335 10.1367ZM8.02642 10.8203C8.09283 10.8164 8.22173 10.8555 8.31939 10.9023C8.4483 10.9688 8.51861 11.0391 8.58502 11.168C8.65533 11.3008 8.67095 11.3867 8.65533 11.5195C8.64361 11.6172 8.60455 11.7383 8.56158 11.793C8.51861 11.8477 8.44439 11.9219 8.39361 11.957C8.34283 11.9961 8.0733 12.0703 7.79205 12.125C7.5108 12.1797 7.10064 12.2891 6.87408 12.3672C6.64752 12.4414 6.3233 12.5703 6.15142 12.6484C5.97955 12.7305 5.6983 12.8789 5.52642 12.9844C5.35455 13.0898 5.0733 13.2773 4.90142 13.4062C4.72955 13.5352 4.39361 13.8359 4.15923 14.0742C3.92486 14.3125 3.61627 14.6719 3.47564 14.8711C3.33502 15.0703 3.15533 15.3477 3.06939 15.4961C2.98736 15.6406 2.84283 15.9336 2.74908 16.1484C2.65923 16.3633 2.55767 16.6211 2.53033 16.7266C2.48736 16.8828 2.48736 16.9336 2.53814 17.0742C2.5733 17.168 2.65923 17.2852 2.89752 17.4766L6.00689 17.4961C8.1983 17.5117 9.14361 17.5273 9.1983 17.5586C9.24127 17.582 9.3233 17.6562 9.3858 17.7266C9.44439 17.793 9.50299 17.9062 9.5147 17.9766C9.52642 18.043 9.52642 18.1719 9.5108 18.2578C9.49127 18.3711 9.43658 18.4609 9.1397 18.7461H2.83111L2.5772 18.6562C2.43658 18.6094 2.23736 18.5156 2.12798 18.4453C2.02252 18.3789 1.85064 18.2383 1.75298 18.1328C1.65533 18.0312 1.51861 17.8398 1.45611 17.7109C1.3897 17.582 1.31158 17.3633 1.28814 17.2227C1.25689 17.0781 1.24517 16.8594 1.2608 16.7148C1.27252 16.5742 1.33892 16.3125 1.40533 16.1289C1.47173 15.9453 1.62017 15.6055 1.73345 15.3672C1.84673 15.1289 2.02642 14.7969 2.13189 14.625C2.23736 14.4531 2.44048 14.1641 2.5772 13.9805C2.71392 13.7969 3.00298 13.4648 3.22173 13.2422C3.43658 13.0195 3.75298 12.7266 3.92486 12.5859C4.09673 12.4492 4.39752 12.2266 4.58892 12.0977C4.78423 11.9687 5.17877 11.7461 5.46783 11.6016C5.75689 11.457 6.21392 11.2656 6.48345 11.1797C6.75298 11.0898 7.18267 10.9727 7.44048 10.918C7.6983 10.8633 7.96002 10.8203 8.02642 10.8203ZM9.96002 1.25C10.1631 1.25 10.4991 1.27344 10.7022 1.30859C10.9053 1.33984 11.2061 1.41016 11.3663 1.46484C11.5264 1.51953 11.7999 1.63672 11.9717 1.72266C12.1436 1.80859 12.3897 1.95313 12.5186 2.04688C12.6475 2.13672 12.8467 2.29688 12.9639 2.40234C13.0811 2.50781 13.2881 2.73438 13.4249 2.90625C13.5811 3.09766 13.7647 3.39844 13.9053 3.6875C14.0342 3.94531 14.171 4.29688 14.2139 4.46875C14.2608 4.64062 14.3116 4.90625 14.335 5.05469C14.3545 5.20312 14.3741 5.46875 14.3741 5.64062C14.3741 5.8125 14.3467 6.11328 14.3155 6.30469C14.2803 6.49609 14.2178 6.76953 14.171 6.91016C14.1241 7.05078 14.0616 7.20703 14.0264 7.25781C13.9913 7.30859 13.8975 7.38281 13.8194 7.42188C13.7374 7.46484 13.6085 7.49609 13.5342 7.49609C13.46 7.49609 13.335 7.46484 13.253 7.42578C13.1749 7.39063 13.0772 7.31641 13.0381 7.26172C12.9952 7.20703 12.9444 7.09375 12.9249 7.00781C12.8936 6.88281 12.9014 6.80078 12.9639 6.59766C13.0069 6.45703 13.0577 6.23828 13.0811 6.10938C13.1045 5.98047 13.1241 5.76172 13.1241 5.62109C13.1241 5.48047 13.1045 5.26172 13.085 5.13281C13.0616 5.00391 12.9991 4.76562 12.9483 4.60547C12.8936 4.44531 12.7881 4.20703 12.71 4.07812C12.6358 3.94922 12.4991 3.75 12.4092 3.63281C12.3194 3.51562 12.1124 3.31641 11.9522 3.1875C11.792 3.05859 11.5186 2.89062 11.3467 2.80859C11.1749 2.72266 10.921 2.625 10.7803 2.58984C10.5967 2.53906 10.3819 2.51953 9.99908 2.51953C9.60455 2.51953 9.40924 2.53516 9.21783 2.58984C9.0772 2.62891 8.8233 2.73047 8.65142 2.8125C8.47955 2.89453 8.21783 3.05469 8.06939 3.16797C7.92095 3.28125 7.71783 3.47656 7.62017 3.59766C7.52252 3.71875 7.37798 3.92188 7.30377 4.04688C7.22955 4.17188 7.12798 4.38672 7.0772 4.52734C7.02642 4.66797 6.96002 4.91016 6.92877 5.0625C6.89752 5.21875 6.87408 5.47266 6.87408 5.62109C6.87408 5.76953 6.89752 6.02344 6.92877 6.17578C6.96002 6.33203 7.03814 6.60156 7.10455 6.77344C7.17095 6.94531 7.28814 7.18359 7.36627 7.30078C7.4483 7.41797 7.58111 7.59375 7.67095 7.69141C7.75689 7.78906 7.94439 7.96094 8.08502 8.07422C8.22564 8.1875 8.49908 8.35547 8.69048 8.44922C8.88189 8.54297 9.08502 8.66797 9.1397 8.73047C9.19439 8.79297 9.25298 8.91016 9.26861 8.98828C9.28424 9.07031 9.28033 9.20312 9.25689 9.28125C9.23736 9.36328 9.16314 9.48828 9.09283 9.55859C9.0147 9.63281 8.89752 9.69922 8.79986 9.72266C8.66705 9.75391 8.58892 9.74609 8.4483 9.69922C8.34283 9.66406 8.14752 9.57812 8.00689 9.50781C7.86627 9.4375 7.62017 9.28516 7.46002 9.17187C7.29986 9.05859 7.03423 8.83203 6.87408 8.66797C6.71392 8.50391 6.49908 8.25 6.40142 8.10156C6.29986 7.94922 6.16314 7.71484 6.09283 7.57422C6.02252 7.43359 5.92095 7.19531 5.87017 7.04688C5.81939 6.89844 5.74908 6.64844 5.71783 6.5C5.68267 6.35156 5.64752 6.03516 5.6358 5.79688C5.62017 5.48047 5.63189 5.25781 5.68267 4.95703C5.71783 4.73047 5.79205 4.41797 5.84283 4.26172C5.89361 4.10938 6.0147 3.82812 6.10845 3.63672C6.2022 3.44922 6.38189 3.15625 6.5108 2.98438C6.6397 2.8125 6.85845 2.56641 6.99517 2.44141C7.13189 2.31641 7.35064 2.13672 7.47955 2.04688C7.60845 1.95313 7.85455 1.80859 8.02642 1.72266C8.1983 1.63672 8.47173 1.51953 8.63189 1.46484C8.79205 1.41016 9.0733 1.33984 9.25689 1.30859C9.44048 1.28125 9.75689 1.25391 9.96002 1.25ZM13.7413 10.6211C13.8077 10.6211 13.9249 10.6445 13.9952 10.6719C14.0616 10.7031 14.167 10.7812 14.2295 10.8477C14.2881 10.918 14.3428 11.0312 14.3545 11.0977C14.3741 11.2109 14.4014 11.2344 14.542 11.2695C14.6436 11.3008 14.753 11.3711 14.835 11.457C14.9014 11.5352 14.9717 11.6562 14.9835 11.7227C14.9952 11.793 14.9952 11.918 14.9835 11.9961C14.9717 12.0781 14.9131 12.1992 14.8545 12.2695C14.792 12.3359 14.6866 12.4141 14.6202 12.4453C14.5303 12.4805 14.3038 12.4961 13.9053 12.4961C13.3272 12.4961 13.3155 12.5 13.2217 12.5938C13.167 12.6484 13.1241 12.7383 13.1241 12.7969C13.1202 12.8594 13.1553 12.9492 13.1983 13.0039C13.2725 13.0977 13.292 13.1016 13.8545 13.1211C14.3936 13.1406 14.4522 13.1523 14.6866 13.2617C14.8272 13.3242 15.0264 13.457 15.128 13.5508C15.253 13.6641 15.3702 13.8281 15.46 14.0156C15.5967 14.2891 15.6045 14.332 15.6045 14.6797C15.6045 15.0156 15.5928 15.082 15.4874 15.3086C15.421 15.4492 15.2881 15.6484 15.1944 15.75C15.085 15.8672 14.917 15.9922 14.7452 16.0742C14.5928 16.1484 14.4561 16.207 14.4327 16.207C14.4092 16.207 14.378 16.2812 14.3624 16.3711C14.3389 16.4844 14.2842 16.5859 14.1866 16.6797C14.0889 16.7773 13.9874 16.832 13.8858 16.8516C13.7999 16.8672 13.671 16.8672 13.6045 16.8555C13.5342 16.8438 13.4131 16.7734 13.335 16.7031C13.2491 16.625 13.1788 16.5195 13.1553 16.4219C13.1202 16.2852 13.0967 16.2617 12.9522 16.2227C12.8545 16.1953 12.7413 16.1211 12.667 16.0352C12.5889 15.9531 12.5264 15.832 12.5147 15.7461C12.503 15.668 12.503 15.543 12.5147 15.4727C12.5264 15.4062 12.585 15.293 12.6475 15.2227C12.7061 15.1562 12.8116 15.0781 12.8819 15.0469C12.9678 15.0117 13.1944 14.9961 13.5928 14.9961C14.171 14.9961 14.1827 14.9922 14.2764 14.8984C14.3311 14.8438 14.3741 14.7539 14.3741 14.6914C14.378 14.6328 14.3428 14.543 14.2999 14.4883C14.2256 14.3945 14.2061 14.3906 13.6436 14.3711C13.1045 14.3516 13.046 14.3398 12.8116 14.2305C12.671 14.168 12.4717 14.0352 12.3702 13.9414C12.2452 13.8281 12.128 13.6641 12.0381 13.4766C11.9014 13.2031 11.8936 13.1602 11.8936 12.8125C11.8936 12.4766 11.9053 12.4102 12.0108 12.1836C12.0772 12.043 12.21 11.8438 12.3038 11.7422C12.4131 11.625 12.5811 11.5 12.753 11.418C12.9053 11.3438 13.042 11.2852 13.0655 11.2852C13.0889 11.2852 13.1163 11.2148 13.1358 11.1289C13.1514 11.043 13.2061 10.918 13.253 10.8516C13.3038 10.7812 13.4053 10.7031 13.4795 10.6758C13.5538 10.6484 13.671 10.625 13.7413 10.6211Z" fill="#ACB9CB"/>
</svg>
