<svg width="20" height="20" viewBox="0 0 20 20" fill="none" xmlns="http://www.w3.org/2000/svg">
<path fill-rule="evenodd" clip-rule="evenodd" d="M2.4257 0H9.98795C17.2771 0 17.5542 0.00390625 17.6626 0.0703125C17.751 0.132812 17.9679 0.59375 20 5.19531V6.48438C20 7.49609 19.9879 7.83984 19.9357 8.07812C19.9036 8.24609 19.7992 8.53125 19.6988 8.73047C19.5944 8.94141 19.4377 9.17578 19.3092 9.31641C19.1888 9.44531 18.996 9.61719 18.6747 9.84375L18.6546 18.2227L18.5622 18.457C18.51 18.5859 18.4137 18.7891 18.3414 18.9062C18.2731 19.0234 18.1044 19.2266 17.9719 19.3555C17.8353 19.4844 17.6185 19.6445 17.4859 19.7148C17.3574 19.7812 17.1245 19.8711 16.9679 19.918C16.6867 20 16.6586 20 3.31325 20L2.99197 19.9062C2.79116 19.8477 2.55823 19.7383 2.36948 19.6172C2.20482 19.5117 1.99197 19.3398 1.90361 19.2344C1.81124 19.1289 1.68273 18.9453 1.61446 18.8281C1.54618 18.7109 1.4498 18.4727 1.40562 18.3008C1.3253 17.9961 1.3253 17.8906 1.3253 9.86328L1.07631 9.66797C0.939759 9.5625 0.738956 9.36719 0.630522 9.23828C0.522088 9.10938 0.365462 8.86328 0.281124 8.69141C0.196787 8.51953 0.0963856 8.24219 0.064257 8.07812C0.0120482 7.83594 0 7.5 0 5.19531L1.09639 2.71094C1.90763 0.859375 2.22088 0.195312 2.30522 0.113281L2.4257 0ZM2.08835 2.83203C1.64257 3.83984 1.27309 4.69531 1.26104 4.73438C1.249 4.80078 1.68675 4.80469 10.004 4.80469C14.8193 4.80469 18.759 4.78906 18.759 4.77344C18.759 4.75781 18.3815 3.89062 17.9237 2.85156L17.0884 0.957031C6.12048 0.941406 2.93173 0.949219 2.91968 0.964844C2.90763 0.980469 2.53414 1.82031 2.08835 2.83203ZM0.967871 6.73828C0.967871 7.28906 0.983936 7.78125 1.01205 7.89844C1.03614 8.01172 1.12048 8.22656 1.2008 8.37109C1.28112 8.51953 1.42972 8.71484 1.53012 8.80469C1.62651 8.89453 1.79116 9.01562 1.89157 9.07031C1.98795 9.12891 2.18072 9.20312 2.31325 9.23438C2.44578 9.26953 2.6988 9.29688 2.8755 9.29688C3.05221 9.29297 3.28514 9.26953 3.39759 9.24219C3.50602 9.21484 3.69478 9.14062 3.81526 9.07812C3.93574 9.01562 4.10843 8.89453 4.19679 8.80859C4.28916 8.72266 4.40964 8.58203 4.46586 8.49609C4.52209 8.41016 4.59839 8.25781 4.63855 8.16406C4.6747 8.06641 4.72691 7.84766 4.74699 7.67578C4.77108 7.50391 4.80321 7.33203 4.82329 7.29297C4.84337 7.25391 4.91968 7.19141 4.99197 7.14844C5.06426 7.10547 5.17671 7.07031 5.24498 7.07031C5.30924 7.07031 5.42169 7.10547 5.49398 7.14844C5.56626 7.19141 5.64257 7.25391 5.66265 7.29297C5.68273 7.33203 5.71888 7.51172 5.74297 7.69531C5.77108 7.92578 5.82731 8.10547 5.91968 8.30078C5.99598 8.44922 6.13655 8.65234 6.23293 8.74609C6.32932 8.84375 6.48996 8.96875 6.59036 9.03125C6.68675 9.09375 6.88755 9.17578 7.03213 9.21875C7.20884 9.27344 7.40562 9.29688 7.64257 9.29688C7.86345 9.29688 8.08032 9.26953 8.2249 9.22656C8.35341 9.1875 8.55422 9.09375 8.6747 9.01953C8.79518 8.94531 8.96386 8.80469 9.05622 8.70703C9.14458 8.60938 9.26506 8.43359 9.3253 8.31641C9.38153 8.19922 9.4498 8.01172 9.4739 7.89844C9.49799 7.78516 9.52209 7.64062 9.52209 7.57812C9.52209 7.51172 9.54618 7.40234 9.57831 7.33203C9.61446 7.26172 9.69478 7.17578 9.75904 7.13672C9.82731 7.09766 9.93574 7.07031 10.004 7.07031C10.0683 7.07031 10.1767 7.09766 10.245 7.13672C10.3092 7.17578 10.3936 7.26172 10.4257 7.33203C10.4578 7.40234 10.4859 7.51172 10.4859 7.57812C10.4859 7.64062 10.506 7.78516 10.5301 7.89844C10.5542 8.01172 10.6386 8.22656 10.7189 8.37109C10.7992 8.51953 10.9478 8.71484 11.0482 8.80469C11.1446 8.89453 11.3092 9.01562 11.4096 9.07031C11.506 9.12891 11.6988 9.20312 11.8313 9.23438C11.9639 9.26953 12.2169 9.29688 12.3936 9.29688C12.5703 9.29297 12.8032 9.26953 12.9157 9.24219C13.0241 9.21484 13.2129 9.14062 13.3333 9.07812C13.4538 9.01562 13.6265 8.89453 13.7149 8.80859C13.8072 8.72266 13.9277 8.58203 13.9839 8.49609C14.0402 8.41016 14.1165 8.25781 14.1566 8.16406C14.1928 8.06641 14.245 7.84766 14.2651 7.67578C14.2892 7.50391 14.3213 7.33203 14.3414 7.29297C14.3614 7.25391 14.4377 7.19141 14.51 7.14844C14.5823 7.10547 14.6948 7.07031 14.7631 7.07031C14.8273 7.07031 14.9398 7.10547 15.012 7.14844C15.0843 7.19141 15.1606 7.25391 15.1807 7.29297C15.2008 7.33203 15.2369 7.51172 15.261 7.69531C15.2892 7.92578 15.3454 8.10938 15.4377 8.30078C15.5141 8.44922 15.6466 8.64844 15.739 8.73828C15.8313 8.82812 15.992 8.95703 16.0964 9.02344C16.2008 9.08984 16.4056 9.17578 16.5502 9.21875C16.7269 9.27344 16.9237 9.29688 17.1606 9.29688C17.3815 9.29688 17.5984 9.26953 17.743 9.22656C17.8715 9.1875 18.0723 9.09375 18.1928 9.01953C18.3133 8.94531 18.4819 8.80469 18.5743 8.70703C18.6627 8.60938 18.7831 8.43359 18.8434 8.31641C18.8996 8.19922 18.9679 8.01172 18.992 7.89844C19.0201 7.77734 19.0402 7.30469 19.0402 6.73828V5.78125H0.967871V6.73828ZM4.71084 9.62109C4.58233 9.72266 4.33735 9.875 4.16064 9.95703C3.98394 10.043 3.69478 10.1406 3.51807 10.1758C3.28514 10.2227 3.06827 10.2383 2.74297 10.2266L2.28916 10.2148L2.31325 18.0664C2.46988 18.3984 2.57831 18.5625 2.65462 18.6445C2.73092 18.7266 2.91165 18.8516 3.05221 18.918L3.31325 19.043H6.93173C6.96787 14.0781 6.9759 13.793 7.03614 13.6914C7.07229 13.625 7.16466 13.5117 7.23695 13.4414C7.31325 13.3672 7.44578 13.2734 7.53414 13.2266C7.69076 13.1445 7.72289 13.1445 10.004 13.1445C12.2329 13.1445 12.3173 13.1445 12.4699 13.2227C12.5582 13.2656 12.6948 13.3594 12.7711 13.4375C12.8474 13.5117 12.9478 13.6523 12.992 13.75C13.0723 13.918 13.0763 13.9922 13.0843 16.4922L13.0964 19.0625L16.6908 19.043C17.0321 18.8867 17.1928 18.7852 17.2731 18.7227C17.3494 18.6562 17.4739 18.4922 17.5542 18.3516L17.6948 18.1055L17.7149 10.2148C16.8594 10.2383 16.7068 10.2266 16.4297 10.1602C16.241 10.1133 15.9799 10.0273 15.8474 9.96484C15.7149 9.90234 15.494 9.76953 15.3614 9.66406C15.2249 9.55859 15.0402 9.38672 14.9478 9.28516C14.8554 9.18359 14.7751 9.09375 14.7671 9.08984C14.759 9.08594 14.6747 9.16797 14.5823 9.27734C14.494 9.38281 14.3213 9.54688 14.2088 9.64062C14.0924 9.73047 13.8554 9.875 13.6787 9.95703C13.502 10.0391 13.2249 10.1367 13.0643 10.1719C12.9036 10.2031 12.5984 10.2344 12.3815 10.2305C12.1647 10.2305 11.8635 10.207 11.7108 10.1758C11.5542 10.1445 11.257 10.0352 11.0482 9.93359C10.7309 9.78125 10.6064 9.69531 10.3333 9.42578L10.004 9.10156C9.51807 9.57422 9.26104 9.77734 9.12048 9.85938C8.9759 9.94141 8.72289 10.0508 8.55823 10.1055C8.32129 10.1836 8.14859 10.207 7.75502 10.2227C7.32932 10.2383 7.19679 10.2305 6.91165 10.1602C6.72289 10.1133 6.46185 10.0273 6.32932 9.96484C6.19679 9.90234 5.9759 9.76953 5.84337 9.66406C5.70683 9.55859 5.51807 9.38281 5.4257 9.27734C5.32932 9.16797 5.249 9.07812 5.24498 9.07422C5.24096 9.07031 5.16867 9.14844 5.08835 9.25C5.00402 9.34766 4.83534 9.51562 4.71084 9.62109ZM7.91566 19.0625L12.1124 19.043C12.1285 15.3789 12.1245 14.2578 12.1124 14.1875L12.0924 14.0625H7.91566V19.0625Z" fill="black"/>
</svg>
