<svg width="20" height="20" viewBox="0 0 20 20" fill="none" xmlns="http://www.w3.org/2000/svg">
<g clip-path="url(#clip0_2057_21486)">
<path d="M10.0001 18.3337C14.6025 18.3337 18.3334 14.6027 18.3334 10.0003C18.3334 5.39795 14.6025 1.66699 10.0001 1.66699C5.39771 1.66699 1.66675 5.39795 1.66675 10.0003C1.66675 14.6027 5.39771 18.3337 10.0001 18.3337Z" stroke="#FF8177" stroke-width="2"/>
<g clip-path="url(#clip1_2057_21486)">
<path d="M12.2198 6.71997C12.2887 6.64714 12.3715 6.58887 12.4633 6.54858C12.5551 6.50829 12.654 6.48682 12.7542 6.48542C12.8545 6.48403 12.954 6.50275 13.0469 6.54046C13.1397 6.57818 13.2241 6.63414 13.295 6.70502C13.3659 6.77591 13.4218 6.86028 13.4596 6.95316C13.4973 7.04604 13.516 7.14554 13.5146 7.24578C13.5132 7.34602 13.4917 7.44496 13.4514 7.53675C13.4112 7.62855 13.3529 7.71134 13.28 7.78022L11.0825 9.97772C11.0796 9.98063 11.0773 9.98408 11.0758 9.98787C11.0742 9.99167 11.0734 9.99574 11.0734 9.99985C11.0734 10.004 11.0742 10.008 11.0758 10.0118C11.0773 10.0156 11.0796 10.0191 11.0825 10.022L13.28 12.2195C13.3506 12.2889 13.4068 12.3716 13.4452 12.4628C13.4837 12.5541 13.5037 12.652 13.5041 12.751C13.5045 12.85 13.4853 12.9481 13.4476 13.0397C13.41 13.1312 13.3545 13.2144 13.2845 13.2844C13.2145 13.3545 13.1313 13.4099 13.0398 13.4476C12.9483 13.4853 12.8502 13.5046 12.7512 13.5042C12.6521 13.5038 12.5542 13.4838 12.463 13.4453C12.3717 13.4069 12.289 13.3508 12.2195 13.2802L10.022 11.0827C10.0191 11.0798 10.0157 11.0775 10.0119 11.0759C10.0081 11.0744 10.004 11.0735 9.99992 11.0735C9.99581 11.0735 9.99174 11.0744 9.98795 11.0759C9.98415 11.0775 9.9807 11.0798 9.9778 11.0827L7.7803 13.2802C7.71087 13.3508 7.62816 13.4069 7.53693 13.4454C7.44569 13.4839 7.34775 13.5039 7.24875 13.5043C7.14974 13.5047 7.05164 13.4855 6.96009 13.4478C6.86854 13.4101 6.78535 13.3547 6.71534 13.2847C6.64532 13.2147 6.58986 13.1315 6.55215 13.04C6.51443 12.9484 6.49522 12.8503 6.49561 12.7513C6.496 12.6523 6.51599 12.5544 6.55443 12.4631C6.59286 12.3719 6.64898 12.2892 6.71955 12.2197L8.91705 10.0222C8.91996 10.0193 8.92227 10.0159 8.92384 10.0121C8.92542 10.0083 8.92623 10.0042 8.92623 10.0001C8.92623 9.99599 8.92542 9.99192 8.92384 9.98812C8.92227 9.98433 8.91996 9.98088 8.91705 9.97797L6.71955 7.78047C6.58077 7.63945 6.50334 7.4493 6.50412 7.25145C6.50491 7.0536 6.58384 6.86407 6.72372 6.72415C6.86361 6.58423 7.05312 6.50525 7.25098 6.50442C7.44883 6.50359 7.63899 6.58098 7.78005 6.71972L9.97755 8.91722C9.98045 8.92013 9.9839 8.92244 9.9877 8.92402C9.99149 8.92559 9.99556 8.9264 9.99967 8.9264C10.0038 8.9264 10.0079 8.92559 10.0117 8.92402C10.0154 8.92244 10.0189 8.92013 10.0218 8.91722L12.2193 6.71972L12.2198 6.71997Z" fill="#FF8177"/>
</g>
</g>
<defs>
<clipPath id="clip0_2057_21486">
<rect width="20" height="20" fill="white"/>
</clipPath>
<clipPath id="clip1_2057_21486">
<rect width="8" height="8" fill="white" transform="translate(6 6)"/>
</clipPath>
</defs>
</svg>
