<svg width="24" height="24" viewBox="0 0 24 24" fill="none" xmlns="http://www.w3.org/2000/svg">
<g clip-path="url(#clip0_2057_21338)">
<path d="M12.4198 15.9147H11.0892C10.6054 15.9147 10.2135 15.549 10.2135 15.0976C10.2135 14.6461 10.6054 14.2805 11.0892 14.2805H13.431C13.7503 14.2805 14.0116 14.0367 14.0116 13.7387C14.0116 13.4408 13.7503 13.197 13.431 13.197H12.3327V12.4431C12.3327 12.1451 12.0714 11.9014 11.7521 11.9014C11.4327 11.9014 11.1715 12.1451 11.1715 12.4431V13.197H11.0892C9.9667 13.197 9.05225 14.0502 9.05225 15.0976C9.05225 16.1449 9.9667 16.9981 11.0892 16.9981H12.4198C12.9036 16.9981 13.2955 17.3638 13.2955 17.8152C13.2955 18.2667 12.9036 18.6323 12.4198 18.6323H10.0344C9.71511 18.6323 9.45383 18.8761 9.45383 19.1741C9.45383 19.472 9.71511 19.7158 10.0344 19.7158H11.1763V20.4878C11.1763 20.7857 11.4376 21.0295 11.7569 21.0295C12.0762 21.0295 12.3375 20.7857 12.3375 20.4878V19.7158H12.4343C12.4391 19.7158 12.444 19.7158 12.4488 19.7158C13.5616 19.7023 14.4567 18.8535 14.4567 17.8152C14.4567 16.7679 13.5423 15.9147 12.4198 15.9147Z" fill="white"/>
<path d="M20.4809 14.6872C19.8712 13.378 19.0294 12.1095 17.9649 10.9222C16.6779 9.47758 15.3957 8.5115 14.7425 8.06457L17.2101 3.79394C17.3311 3.58177 17.2924 3.31993 17.1037 3.1529C16.465 2.57054 15.7876 2.28613 15.0328 2.28613C14.341 2.28613 13.7071 2.52991 13.1555 2.7466C12.7201 2.91364 12.3088 3.07615 11.975 3.07615C11.8734 3.07615 11.7863 3.06261 11.6992 3.03101C10.5476 2.63826 9.66221 2.39448 8.80582 2.39448C7.72201 2.39448 6.79788 2.80077 5.8931 3.66754C5.7044 3.84812 5.67537 4.13252 5.82536 4.3447L8.48648 8.09617C7.82846 8.55213 6.57047 9.50918 5.30765 10.9222C4.24804 12.1095 3.40132 13.378 2.79168 14.6872C2.02721 16.335 1.64014 18.0549 1.64014 19.7975C1.64014 22.1134 3.66259 24.0004 6.14469 24.0004H17.1279C19.61 24.0004 21.6324 22.1134 21.6324 19.7975C21.6324 18.0549 21.2454 16.335 20.4809 14.6872ZM7.06399 4.11898C7.62524 3.66754 8.16231 3.46891 8.80582 3.46891C9.49287 3.46891 10.267 3.6856 11.2976 4.04224C11.5105 4.11447 11.7379 4.15058 11.9701 4.15058C12.5362 4.15058 13.0781 3.94292 13.5958 3.73977C14.0942 3.54565 14.5684 3.36056 15.028 3.36056C15.2506 3.36056 15.5651 3.39668 15.9618 3.65851L13.6394 7.68536H9.59447L7.06399 4.11898ZM17.1279 22.917H6.14469C4.30126 22.917 2.80135 21.5175 2.80135 19.7975C2.80135 16.9038 3.93838 14.159 6.17372 11.64C7.58654 10.0464 9.02354 9.05774 9.459 8.76882H13.8039C14.2442 9.05323 15.6764 10.0464 17.0892 11.64C19.3293 14.159 20.4615 16.8993 20.4615 19.7975C20.4712 21.5175 18.9713 22.917 17.1279 22.917Z" fill="white"/>
</g>
<defs>
<clipPath id="clip0_2057_21338">
<path d="M0 0H12C18.6274 0 24 5.37258 24 12V24H0V0Z" fill="white"/>
</clipPath>
</defs>
</svg>
