<svg width="20" height="20" viewBox="0 0 20 20" fill="none" xmlns="http://www.w3.org/2000/svg">
<g id="file - 2024-02-23T143023.331 1" clip-path="url(#clip0_2507_1130)">
<path id="Path 0" fill-rule="evenodd" clip-rule="evenodd" d="M2.79297 0H14.375L14.6211 0.109375C14.7539 0.167969 14.9414 0.289062 15.0312 0.375C15.1289 0.460938 15.2539 0.636719 15.4492 1.03516L15.4883 8.32422L15.7617 8.43359C15.9141 8.49609 16.1562 8.61719 16.3086 8.70703C16.4609 8.80078 16.7031 8.97266 16.8516 9.09375C17 9.21875 17.2344 9.45703 17.3711 9.62891C17.5156 9.80859 17.7109 10.1211 17.8359 10.3711C17.9805 10.6641 18.0859 10.9492 18.1641 11.2695C18.2617 11.6602 18.2812 11.8164 18.2812 12.207C18.2812 12.582 18.2578 12.7578 18.1797 13.0859C18.1211 13.3125 18.0234 13.6172 17.957 13.7695C17.8945 13.9219 17.7695 14.1641 17.6797 14.3125C17.5898 14.4609 17.4102 14.6953 17.0352 15.0977L17.0234 17.3516C17.0117 19.5664 17.0117 19.6055 16.9297 19.7148C16.8867 19.7734 16.7891 19.8633 16.7148 19.9141C16.6328 19.9688 16.5234 20.0039 16.4258 20.0039C16.3125 20.0039 16.1758 19.9531 15.9375 19.8203C15.7539 19.7188 15.3008 19.4648 14.9297 19.2539C14.5625 19.0391 14.2422 18.8672 14.2188 18.8672C14.1953 18.8672 13.7344 19.1211 13.1914 19.4336C12.3359 19.9258 12.1836 20 12.0312 20C11.8945 20 11.8164 19.9766 11.6875 19.8828C11.5977 19.8203 11.4961 19.7031 11.4648 19.6289C11.418 19.5195 11.4062 19.2773 11.4062 17.1875L2.75391 17.168L2.5 17.043C2.35547 16.9727 2.17969 16.8477 2.09375 16.75C2.00781 16.6602 1.89453 16.4844 1.73828 16.1523V1.03516L1.83984 0.820312C1.89453 0.703125 2.00781 0.527344 2.09375 0.433594C2.1875 0.332031 2.35547 0.214844 2.51953 0.132812L2.79297 0ZM2.97656 8.63281L2.98828 15.918L11.4062 15.9375V15.0977C11.1914 14.8867 11.0469 14.7188 10.9492 14.5898C10.8516 14.4609 10.6992 14.207 10.6055 14.0234C10.5156 13.8398 10.3945 13.5508 10.3398 13.3789C10.2852 13.207 10.2227 12.9297 10.1992 12.7617C10.1758 12.5977 10.1562 12.3359 10.1562 12.1875C10.1562 12.0352 10.1758 11.7773 10.1992 11.6094C10.2227 11.4453 10.2852 11.168 10.3398 10.9961C10.3945 10.8242 10.5078 10.543 10.5938 10.3711C10.6797 10.1992 10.8242 9.95312 10.918 9.82422C11.0117 9.69531 11.207 9.46875 11.3516 9.32422C11.5 9.17969 11.7227 8.98828 11.8438 8.89453C11.9648 8.80469 12.2109 8.65625 12.3906 8.56641C12.5703 8.48047 12.8633 8.35938 13.0469 8.30078C13.2305 8.24219 13.5664 8.17578 13.8008 8.15234L14.2188 8.10547L14.1992 1.26953C4.14453 1.25 3.00391 1.25781 2.98828 1.29688C2.97656 1.32422 2.97266 4.625 2.97656 8.63281ZM13.3008 9.53125C13.1719 9.57422 12.9531 9.67578 12.8125 9.75391C12.6641 9.83594 12.4258 10.0273 12.2422 10.2109C12.0469 10.4062 11.8711 10.6289 11.7773 10.8008C11.6914 10.9492 11.582 11.207 11.5273 11.3672C11.4453 11.6211 11.4297 11.7305 11.4336 12.1875C11.4336 12.6523 11.4453 12.75 11.5352 13.0273C11.5938 13.1992 11.7031 13.4531 11.7852 13.5938C11.8672 13.7344 12.0742 13.9883 12.2461 14.1602C12.418 14.332 12.6758 14.5391 12.8125 14.6211C12.9531 14.6992 13.207 14.8125 13.3789 14.8711C13.6562 14.9609 13.7539 14.9727 14.2188 14.9727C14.6836 14.9727 14.7812 14.9609 15.0586 14.8711C15.2305 14.8125 15.4844 14.6992 15.625 14.6211C15.7656 14.5391 16.0195 14.332 16.1914 14.1602C16.3633 13.9883 16.5703 13.7344 16.6523 13.5938C16.7344 13.4531 16.8438 13.1992 16.9023 13.0273C16.9922 12.75 17.0039 12.6523 17.0039 12.1875C17.0039 11.7227 16.9922 11.6211 16.9023 11.3477C16.8438 11.1758 16.7344 10.9219 16.6523 10.7812C16.5703 10.6406 16.3633 10.3867 16.1914 10.2148C16.0195 10.043 15.7656 9.83594 15.625 9.75391C15.4844 9.67188 15.2305 9.5625 15.0586 9.50781C14.832 9.43359 14.6367 9.40234 14.3359 9.39453C14.1094 9.38281 13.8359 9.39453 13.7305 9.41406C13.6211 9.43359 13.4297 9.48438 13.3008 9.53125ZM12.6523 17.1094C12.6562 17.7539 12.6641 18.2812 12.6758 18.2812C12.6875 18.2812 12.9883 18.1094 13.3477 17.8984C13.9609 17.543 14.0195 17.5195 14.2188 17.5195C14.418 17.5195 14.4766 17.543 15.0859 17.8984C15.4492 18.1094 15.75 18.2812 15.7617 18.2812C15.7734 18.2812 15.7812 17.7539 15.7812 17.1094V15.9375C15.3438 16.0898 15.0547 16.1602 14.8633 16.1914C14.668 16.2227 14.3789 16.25 14.2188 16.25C14.0586 16.25 13.7578 16.2227 13.5547 16.1875C13.3516 16.1523 13.0625 16.082 12.918 16.0312L12.6484 15.9414L12.6523 17.1094ZM8.17188 3.13281C10.9414 3.14062 11.0117 3.14453 11.1172 3.21875C11.1758 3.26172 11.2578 3.34766 11.3047 3.41016C11.3672 3.49219 11.3867 3.57422 11.3867 3.74609C11.3867 3.92188 11.3672 4.00391 11.3047 4.08594C11.2578 4.14844 11.1758 4.23047 11.1172 4.27344C11.0117 4.35156 10.9414 4.35156 8.23047 4.36328C6.69922 4.37109 5.39453 4.36719 5.32422 4.35547C5.25 4.34375 5.13281 4.26953 5.04297 4.1875C4.9375 4.08594 4.88281 3.99219 4.86328 3.88281C4.84766 3.79688 4.84766 3.67187 4.85938 3.60156C4.87109 3.53125 4.92578 3.41797 4.97656 3.35156C5.02344 3.28516 5.125 3.20703 5.19922 3.17578C5.30859 3.13672 5.875 3.125 8.17188 3.13281ZM8.17188 5.63281C10.9414 5.64062 11.0117 5.64453 11.1172 5.71875C11.1758 5.76172 11.2578 5.84766 11.3047 5.91016C11.3672 5.99219 11.3867 6.07422 11.3867 6.24609C11.3867 6.42188 11.3672 6.50391 11.3047 6.58594C11.2578 6.64844 11.1758 6.73047 11.1172 6.77344C11.0117 6.85156 10.9414 6.85156 8.23047 6.86328C6.69922 6.87109 5.39453 6.86719 5.32422 6.85547C5.25 6.84375 5.13281 6.76953 5.04297 6.6875C4.9375 6.58594 4.88281 6.49219 4.86328 6.38281C4.84766 6.29687 4.84766 6.17188 4.85938 6.10156C4.87109 6.03125 4.92578 5.91797 4.97656 5.85156C5.02344 5.78516 5.125 5.70703 5.19922 5.67578C5.30859 5.63672 5.875 5.625 8.17188 5.63281ZM7.07812 8.13281C8.75391 8.14062 8.82813 8.14453 8.92969 8.21875C8.98828 8.26172 9.07031 8.34766 9.11719 8.41016C9.17969 8.49219 9.19922 8.57422 9.19922 8.74609C9.19922 8.92188 9.17969 9.00391 9.11719 9.08594C9.07031 9.14844 8.98828 9.23047 8.92969 9.27344C8.82813 9.35156 8.75391 9.35547 7.13672 9.36328C6.20703 9.37109 5.39453 9.36719 5.32422 9.35547C5.25 9.34375 5.13281 9.26953 5.04297 9.1875C4.9375 9.08594 4.88281 8.99219 4.86328 8.88281C4.84766 8.79688 4.84766 8.67188 4.85938 8.60156C4.87109 8.53125 4.92578 8.41797 4.97656 8.35156C5.02344 8.28516 5.125 8.20703 5.19922 8.17578C5.30469 8.13672 5.69141 8.125 7.07812 8.13281ZM15.2148 10.6758C15.3242 10.6875 15.4531 10.7266 15.5039 10.7656C15.5547 10.8047 15.6328 10.8867 15.6797 10.9492C15.7422 11.0312 15.7617 11.1133 15.7617 11.5117L15.0586 12.5586C14.6719 13.1367 14.3047 13.6445 14.2461 13.6875C14.1641 13.7461 14.0742 13.7656 13.9102 13.7656C13.6914 13.7656 13.6758 13.7578 13.1055 13.375C12.7852 13.1602 12.4883 12.9375 12.4453 12.875C12.3867 12.793 12.3633 12.7031 12.3633 12.5352C12.3633 12.3711 12.3867 12.2812 12.4414 12.2031C12.4844 12.1445 12.5703 12.0586 12.6289 12.0156C12.7148 11.9531 12.7969 11.9297 12.9648 11.9297C13.168 11.9297 13.2188 11.9492 13.7305 12.293L14.1602 11.6445C14.3984 11.2891 14.6289 10.9453 14.6719 10.8828C14.7188 10.8203 14.8125 10.7461 14.8867 10.7148C14.9648 10.6836 15.1016 10.668 15.2148 10.6758Z" fill="#222754"/>
</g>
<defs>
<clipPath id="clip0_2507_1130">
<rect width="20" height="20" fill="white"/>
</clipPath>
</defs>
</svg>
