<svg width="20" height="20" viewBox="0 0 20 20" fill="none" xmlns="http://www.w3.org/2000/svg">
<g clip-path="url(#clip0_2446_1532)">
<path fill-rule="evenodd" clip-rule="evenodd" d="M10.6254 0V9.375H20.0004V10.0117C20.0004 10.3594 19.973 10.8555 19.9418 11.1133C19.9066 11.3711 19.8363 11.7969 19.7855 12.0625C19.7308 12.3242 19.598 12.8086 19.4926 13.1328C19.3832 13.4609 19.1683 13.9961 19.0121 14.3164C18.8558 14.6406 18.6137 15.0781 18.4808 15.293C18.3441 15.5078 18.1137 15.8438 17.9691 16.0352C17.8207 16.2266 17.5629 16.5352 17.3949 16.7188C17.2269 16.9023 16.9301 17.1992 16.7387 17.3789C16.5472 17.5586 16.2191 17.832 16.016 17.9844C15.8129 18.1367 15.4847 18.3633 15.2933 18.4805C15.1019 18.6016 14.7933 18.7773 14.6097 18.875C14.4262 18.9688 14.1097 19.1211 13.9066 19.207C13.7035 19.293 13.3168 19.4375 13.0472 19.5234C12.7777 19.6094 12.3871 19.7148 12.1762 19.7617C11.9691 19.8047 11.5551 19.8789 11.2621 19.9219C10.8754 19.9766 10.516 20 10.0004 20C9.46912 20 9.13318 19.9805 8.73084 19.918C8.43006 19.875 8.016 19.8047 7.81287 19.7578C7.60975 19.7148 7.17615 19.5938 6.85584 19.4883C6.50818 19.3711 6.00037 19.1602 5.60584 18.9688C5.24256 18.7891 4.74647 18.5117 4.51209 18.3555C4.27381 18.1953 3.91443 17.9336 3.71131 17.7656C3.50818 17.6016 3.1449 17.2695 2.90272 17.0234C2.66053 16.7812 2.34412 16.4336 2.19959 16.25C2.05115 16.0664 1.81678 15.7422 1.67225 15.5273C1.53162 15.3125 1.3285 14.9766 1.22303 14.7852C1.11365 14.5938 0.953497 14.2656 0.859747 14.0625C0.769903 13.8594 0.609747 13.4336 0.504278 13.1172C0.39881 12.7969 0.269903 12.3242 0.219122 12.0625C0.164435 11.7969 0.0902158 11.3633 0.0550596 11.0938C0.00427832 10.707 -0.00353418 10.4375 0.0120908 9.80469C0.0238096 9.36328 0.0628721 8.82031 0.0980283 8.59375C0.133185 8.36719 0.195685 8.01562 0.24256 7.8125C0.285528 7.60938 0.402716 7.1875 0.508185 6.875C0.609747 6.5625 0.777716 6.125 0.879278 5.89844C0.980841 5.67188 1.16834 5.30469 1.29725 5.07812C1.42615 4.85156 1.64881 4.5 1.79334 4.29688C1.93397 4.09375 2.17615 3.77734 2.3285 3.59375C2.48084 3.41016 2.7699 3.09766 2.97303 2.89453C3.17615 2.69531 3.50818 2.39453 3.71131 2.23047C3.91443 2.06641 4.25818 1.81641 4.47303 1.67188C4.68787 1.53125 5.02381 1.32812 5.21522 1.22266C5.40662 1.11328 5.73475 0.953125 5.93787 0.859375C6.141 0.769531 6.56287 0.609375 6.87537 0.507812C7.18787 0.402344 7.61756 0.28125 7.8324 0.238281C8.04725 0.191406 8.43397 0.121094 8.69178 0.0820312C9.00818 0.03125 9.3949 0.0078125 10.6254 0ZM8.28162 1.43359C7.99256 1.48828 7.55115 1.59766 7.30506 1.67969C7.05897 1.76172 6.6449 1.92187 6.38709 2.03516C6.12928 2.15234 5.73475 2.35938 5.50818 2.49609C5.28162 2.63281 4.93006 2.87109 4.72693 3.02344C4.52381 3.17578 4.16834 3.48438 3.93397 3.71094C3.69568 3.9375 3.36365 4.29688 3.19178 4.51172C3.0199 4.72656 2.77381 5.0625 2.64881 5.25391C2.52381 5.44531 2.30897 5.83203 2.16834 6.11328C2.03162 6.39453 1.85584 6.78906 1.78162 6.99219C1.7074 7.19531 1.60193 7.53906 1.54725 7.75391C1.48865 7.96875 1.41053 8.35547 1.36756 8.61328C1.32459 8.87109 1.27772 9.34766 1.266 9.66797C1.25037 10.0156 1.25818 10.4609 1.28553 10.7617C1.31287 11.0391 1.37537 11.4805 1.43006 11.7383C1.48084 11.9961 1.57068 12.3555 1.62537 12.5391C1.68006 12.7227 1.80506 13.0625 1.90272 13.3008C1.99647 13.5391 2.16443 13.8984 2.27381 14.1016C2.38318 14.3047 2.57068 14.6211 2.69178 14.8047C2.80897 14.9883 3.04334 15.3047 3.2074 15.5078C3.37147 15.7109 3.69568 16.0625 3.93397 16.2891C4.16834 16.5156 4.52381 16.8242 4.72693 16.9766C4.93006 17.1289 5.266 17.3555 5.46912 17.4805C5.67225 17.6055 6.016 17.793 6.23084 17.8945C6.44568 17.9922 6.78943 18.1406 6.99256 18.2148C7.19568 18.293 7.53943 18.3984 7.75428 18.457C7.96912 18.5117 8.36365 18.5938 8.63318 18.6406C9.02772 18.7109 9.28553 18.7266 9.98084 18.7266C10.6254 18.7266 10.9457 18.7109 11.2699 18.6602C11.5082 18.6211 11.9105 18.5352 12.1683 18.4727C12.4262 18.4062 12.8051 18.293 13.0082 18.2148C13.2113 18.1367 13.5199 18.0117 13.6918 17.9336C13.8637 17.8516 14.1801 17.6836 14.3949 17.5586C14.6097 17.4336 14.9066 17.2422 15.059 17.1367C15.2113 17.0273 15.4652 16.832 15.6254 16.6953C15.7855 16.5625 16.0785 16.2891 16.2738 16.0859C16.4691 15.8867 16.723 15.6016 16.8441 15.4492C16.9652 15.2969 17.1683 15.0156 17.2933 14.8242C17.4222 14.6328 17.6097 14.3242 17.7074 14.1406C17.8051 13.957 17.9652 13.625 18.059 13.3984C18.1566 13.1719 18.2855 12.8125 18.3519 12.5977C18.4144 12.3828 18.4965 12.0859 18.5316 11.9336C18.5668 11.7812 18.6215 11.4922 18.6527 11.2891C18.684 11.0859 18.7113 10.8516 18.7113 10.7695V10.625H9.37537V1.28906C9.08631 1.29688 8.96131 1.30469 8.90662 1.31641C8.85193 1.32422 8.57068 1.375 8.28162 1.43359ZM12.2816 0H13.0043C13.5472 0 13.8363 0.0195312 14.141 0.0742188C14.3676 0.117188 14.6644 0.175781 14.8051 0.210938C14.9457 0.242188 15.2191 0.324219 15.4105 0.394531C15.6019 0.460938 15.8832 0.574219 16.0355 0.644531C16.1879 0.710938 16.4769 0.871094 16.6801 0.992188C16.8832 1.11719 17.1918 1.33203 17.3637 1.46484C17.5355 1.60156 17.8363 1.875 18.0316 2.07422C18.223 2.27734 18.4457 2.51953 18.5238 2.61719C18.598 2.71484 18.7504 2.92578 18.8597 3.08594C18.9652 3.24609 19.1527 3.57422 19.2699 3.80859C19.391 4.04688 19.5512 4.42188 19.6254 4.64844C19.6996 4.875 19.7972 5.22656 19.8441 5.42969C19.8871 5.63281 19.9418 5.98438 19.9652 6.21094C19.9887 6.4375 20.0004 6.87109 19.9926 7.17578C19.9808 7.66797 19.973 7.74219 19.8988 7.83984C19.8519 7.89844 19.766 7.98438 19.7113 8.02734C19.6058 8.10547 19.5433 8.10547 12.2699 8.10547L12.1605 8.02344C12.1019 7.97656 12.016 7.89062 11.973 7.83594C11.8949 7.73047 11.8949 7.65625 11.8832 4.14844C11.8754 1.73437 11.8832 0.519531 11.9144 0.421875C11.9379 0.324219 12.0121 0.226562 12.1176 0.136719L12.2816 0ZM13.1254 6.875H18.7699C18.723 6.28516 18.6762 5.95703 18.6332 5.76172C18.5941 5.57031 18.516 5.26953 18.4574 5.09766C18.4027 4.92578 18.2855 4.63672 18.1996 4.45312C18.1137 4.26953 17.9262 3.94531 17.7816 3.73047C17.6176 3.48047 17.3676 3.18359 17.0941 2.91016C16.8168 2.63281 16.5199 2.38281 16.2699 2.21875C16.0551 2.07422 15.7113 1.87891 15.5082 1.78516C15.3051 1.6875 14.9965 1.56641 14.8246 1.51172C14.6527 1.45703 14.3637 1.38672 14.1801 1.35156C13.9965 1.31641 13.6879 1.27734 13.4926 1.26172L13.1371 1.23828L13.1254 6.875Z" fill="#222754"/>
</g>
<defs>
<clipPath id="clip0_2446_1532">
<rect width="20" height="20" fill="white"/>
</clipPath>
</defs>
</svg>
