<svg width="20" height="20" viewBox="0 0 20 20" fill="none" xmlns="http://www.w3.org/2000/svg">
<g id="file - 2024-02-23T143422.093 1">
<path id="Path 0" fill-rule="evenodd" clip-rule="evenodd" d="M10.0284 0.000789345C11.4253 -0.00366581 11.7733 0.00969958 12.0007 0.0676166C12.1539 0.107713 12.3952 0.192361 12.5344 0.254733C12.6736 0.321561 12.9149 0.495312 13.0727 0.642332C13.2352 0.793808 13.4161 1.02548 13.495 1.17695C13.5739 1.32397 13.6621 1.55564 13.6946 1.68929C13.7317 1.86305 13.7456 2.37093 13.7317 3.44908C13.7131 4.8881 13.7085 4.9772 13.6064 5.2757C13.5461 5.44499 13.4347 5.70785 13.3605 5.85487C13.2816 6.00189 13.1563 6.21128 13.0774 6.32266C12.9985 6.43404 12.8268 6.63007 12.6968 6.76372C12.5715 6.89292 12.3395 7.08895 12.1864 7.19587C12.0332 7.29834 11.764 7.44982 11.5831 7.52555C11.4021 7.60575 11.1004 7.70822 10.9102 7.75277C10.6735 7.81068 10.3997 7.83741 10.0516 7.83741C9.68965 7.83741 9.43441 7.81068 9.16989 7.74831C8.9657 7.6993 8.66406 7.59684 8.49699 7.5211C8.32993 7.44536 8.07005 7.29834 7.9169 7.19142C7.76376 7.08895 7.52244 6.88401 7.37858 6.74145C7.23936 6.59443 7.05373 6.37612 6.96556 6.25583C6.87738 6.13109 6.74744 5.90388 6.67319 5.74349C6.59894 5.5831 6.49685 5.30243 6.44116 5.11977C6.36227 4.83018 6.34834 4.60742 6.32514 3.49363C6.31122 2.66052 6.32514 2.0858 6.35762 1.87641C6.38547 1.70266 6.469 1.4309 6.53861 1.27496C6.61286 1.11458 6.77529 0.891821 6.91915 0.740346C7.05837 0.597781 7.28113 0.415119 7.40642 0.339381C7.53636 0.259189 7.79624 0.152265 7.98651 0.0988028C8.316 0.00524446 8.42274 0.000789345 10.0284 0.000789345ZM7.92154 1.82295C7.83337 1.96551 7.82409 2.06353 7.81017 3.07039C7.80088 3.69412 7.81481 4.31338 7.84729 4.51832C7.87514 4.74108 7.94939 4.98611 8.03756 5.16432C8.11645 5.3247 8.25567 5.54301 8.34849 5.65439C8.4413 5.76131 8.64549 5.93952 8.79864 6.04644C8.97034 6.16673 9.20238 6.27365 9.40193 6.33157C9.65717 6.40285 9.81959 6.42067 10.1676 6.40731C10.576 6.38949 10.6456 6.37612 10.9798 6.21128C11.2211 6.0999 11.4392 5.94843 11.6063 5.78804C11.7501 5.64993 11.9265 5.41826 12.01 5.25342C12.0889 5.09304 12.1771 4.87473 12.2049 4.76335C12.2328 4.65198 12.256 3.99261 12.256 3.2486V1.93433C12.075 1.67593 11.959 1.56901 11.8847 1.53336C11.7687 1.47545 11.4624 1.46654 10.0377 1.46654C8.34385 1.46654 8.32528 1.46654 8.17214 1.56455C8.08397 1.62247 7.97259 1.7383 7.92154 1.82295ZM7.12798 8.61261C7.25792 8.62152 7.41107 8.67053 7.47139 8.71508C7.53172 8.75963 7.62454 8.85319 7.68023 8.92002C7.76376 9.0314 7.87514 9.69967 8.53412 14.1103C8.94714 16.8992 9.28127 19.256 9.27199 19.354C9.26271 19.4609 9.20702 19.599 9.13277 19.6971C9.06316 19.7906 8.94714 19.8975 8.86825 19.9332C8.78936 19.9688 8.64085 20 8.53412 20C8.42274 20 8.27424 19.9644 8.19534 19.9198C8.11645 19.8753 6.77529 18.3382 5.21137 16.4982C3.48503 14.4756 2.32485 13.0722 2.25524 12.9386C2.19955 12.8138 2.11602 12.5911 2.07425 12.4351C2.03248 12.2837 2 12.0921 2 12.0119C2 11.9362 2.04177 11.7223 2.09281 11.5441C2.14386 11.3704 2.23668 11.1298 2.29701 11.0095C2.35733 10.8937 2.49192 10.711 2.59401 10.5996C2.69147 10.4882 2.86781 10.3368 2.97455 10.2655C3.08593 10.1942 4.01407 9.78432 5.03502 9.36108C6.77993 8.63934 6.90987 8.59479 7.12798 8.61261ZM3.83308 11.4327C3.75419 11.4817 3.65673 11.5931 3.61497 11.6822C3.56856 11.7713 3.53143 11.9273 3.53143 12.0253C3.53143 12.1233 3.54536 12.2391 3.56392 12.2792C3.58248 12.3238 4.45029 13.3574 5.48981 14.5736C6.52933 15.7943 7.38786 16.7834 7.39714 16.7745C7.40178 16.7611 7.19295 15.3132 6.93307 13.5534C6.66855 11.7936 6.45044 10.3501 6.44116 10.3501C6.43188 10.3457 5.87499 10.5684 5.19745 10.8446C4.52454 11.1253 3.91197 11.3882 3.83308 11.4327ZM13.0217 8.60816C13.1238 8.61707 13.9916 8.94675 14.9708 9.35217C15.9407 9.74868 16.8271 10.1318 16.9431 10.1986C17.0591 10.2699 17.2633 10.4392 17.3979 10.5729C17.5278 10.711 17.6995 10.9471 17.7784 11.103C17.8527 11.2545 17.9408 11.5085 17.9687 11.6689C18.0104 11.8916 18.0104 12.0386 17.9687 12.2926C17.9362 12.4975 17.8527 12.747 17.7552 12.9386C17.6345 13.1747 16.9245 14.0345 14.878 16.4359C13.3883 18.1868 12.0703 19.706 11.9543 19.8129C11.764 19.9822 11.7223 20 11.5135 20C11.3464 20 11.235 19.9688 11.1051 19.8886C11.0123 19.8307 10.8916 19.7149 10.8452 19.6347C10.7849 19.5367 10.757 19.4119 10.7617 19.2649C10.7663 19.1446 11.1004 16.7967 11.5135 14.0524C12.1631 9.70413 12.2745 9.04476 12.3627 8.91111C12.4184 8.82646 12.5483 8.71954 12.6504 8.67498C12.7664 8.62152 12.9057 8.59925 13.0217 8.60816ZM13.0913 13.5177C12.8361 15.233 12.6319 16.672 12.6365 16.7165C12.6458 16.77 13.2908 16.0483 14.5299 14.5959C15.9221 12.9608 16.428 12.3416 16.4744 12.1946C16.5254 12.0475 16.5254 11.9673 16.4836 11.8381C16.4558 11.7446 16.3769 11.6065 16.3073 11.5352C16.2098 11.4372 15.8339 11.2545 14.8965 10.8669C14.1911 10.5729 13.6018 10.3323 13.5832 10.3323C13.5693 10.3323 13.5554 10.3457 13.5554 10.3679C13.5554 10.3858 13.3465 11.8025 13.0913 13.5177ZM10.098 8.61261C10.228 8.62152 10.3811 8.67053 10.4414 8.71508C10.5018 8.75963 10.5946 8.85319 10.6503 8.92002C10.7431 9.04476 10.7477 9.08931 10.7477 10.3769C10.7477 11.6644 10.7431 11.7089 10.6503 11.8337C10.5946 11.9005 10.4925 11.9985 10.4275 12.0475C10.3347 12.1144 10.228 12.1366 10.0284 12.1366C9.82887 12.1366 9.72214 12.1144 9.62932 12.0475C9.56435 11.9985 9.46226 11.9005 9.40657 11.8337C9.31376 11.7134 9.30911 11.651 9.29519 10.4971C9.28591 9.82887 9.29055 9.21851 9.30447 9.13832C9.3184 9.06258 9.38337 8.93338 9.43905 8.85765C9.49938 8.77745 9.62004 8.68835 9.70822 8.65716C9.80103 8.61707 9.95881 8.59925 10.098 8.61261Z" fill="#222754"/>
</g>
</svg>
