<svg width="1437" height="98" viewBox="0 0 1437 98" fill="none" xmlns="http://www.w3.org/2000/svg">
<circle cx="1427" cy="10" r="9.5" fill="#A6ABB4" stroke="#E1E1E1"/>
<circle cx="10" cy="10" r="9.5" fill="#A6ABB4" stroke="#E1E1E1"/>
<path d="M10 20.5002V20.5002C10 48.9428 33.0572 72 61.4998 72L1375.5 72C1404.22 72 1427.5 48.7189 1427.5 20.0001V20.0001" stroke="#E1E1E1" stroke-width="1.5"/>
<rect x="483.75" y="48.75" width="424.5" height="48.5" rx="24.25" fill="#F6F6F6" stroke="#E1E1E1" stroke-width="1.5"/>
<path d="M619.701 79H616.985V71.5645C616.985 71.3594 616.988 71.1074 616.994 70.8086C617 70.5039 617.009 70.1934 617.021 69.877C617.032 69.5547 617.044 69.2646 617.056 69.0068C616.991 69.083 616.859 69.2148 616.66 69.4023C616.467 69.584 616.285 69.748 616.115 69.8945L614.639 71.0811L613.329 69.4463L617.469 66.1504H619.701V79ZM632.56 76.3369H631.013V79H628.358V76.3369H622.874V74.4473L628.508 66.1504H631.013V74.2275H632.56V76.3369ZM628.358 74.2275V72.0479C628.358 71.8428 628.361 71.5996 628.367 71.3184C628.379 71.0371 628.391 70.7559 628.402 70.4746C628.414 70.1934 628.426 69.9443 628.438 69.7275C628.455 69.5049 628.467 69.3496 628.473 69.2617H628.402C628.291 69.502 628.174 69.7363 628.051 69.9648C627.928 70.1875 627.784 70.4219 627.62 70.668L625.265 74.2275H628.358ZM633.403 75.2734V73.0762H638.123V75.2734H633.403ZM648.371 79H639.389V77.1104L642.614 73.8496C643.265 73.1816 643.786 72.625 644.179 72.1797C644.577 71.7285 644.864 71.3184 645.04 70.9492C645.222 70.5801 645.312 70.1846 645.312 69.7627C645.312 69.2529 645.169 68.8721 644.882 68.6201C644.601 68.3623 644.223 68.2334 643.748 68.2334C643.25 68.2334 642.767 68.3477 642.298 68.5762C641.829 68.8047 641.34 69.1299 640.83 69.5518L639.354 67.8027C639.723 67.4863 640.112 67.1875 640.522 66.9062C640.938 66.625 641.419 66.3994 641.964 66.2295C642.515 66.0537 643.174 65.9658 643.941 65.9658C644.785 65.9658 645.509 66.1182 646.112 66.4229C646.722 66.7275 647.19 67.1436 647.519 67.6709C647.847 68.1924 648.011 68.7842 648.011 69.4463C648.011 70.1553 647.87 70.8027 647.589 71.3887C647.308 71.9746 646.897 72.5547 646.358 73.1289C645.825 73.7031 645.181 74.3389 644.425 75.0361L642.772 76.5918V76.7148H648.371V79ZM654.119 65.9834C654.857 65.9834 655.537 66.0977 656.158 66.3262C656.785 66.5547 657.286 66.9004 657.661 67.3633C658.036 67.8203 658.224 68.3945 658.224 69.0859C658.224 69.6016 658.121 70.0527 657.916 70.4395C657.717 70.8262 657.444 71.166 657.099 71.459C656.753 71.7461 656.36 71.998 655.921 72.2148C656.378 72.4551 656.812 72.7363 657.222 73.0586C657.632 73.375 657.966 73.7471 658.224 74.1748C658.487 74.6025 658.619 75.1006 658.619 75.6689C658.619 76.3838 658.429 77.0049 658.048 77.5322C657.667 78.0537 657.14 78.458 656.466 78.7451C655.792 79.0322 655.01 79.1758 654.119 79.1758C653.158 79.1758 652.341 79.0381 651.667 78.7627C650.993 78.4873 650.48 78.0947 650.129 77.585C649.777 77.0693 649.602 76.4541 649.602 75.7393C649.602 75.1533 649.71 74.6436 649.927 74.21C650.149 73.7764 650.448 73.4043 650.823 73.0938C651.198 72.7773 651.611 72.5078 652.062 72.2852C651.682 72.0449 651.333 71.7725 651.017 71.4678C650.706 71.1631 650.457 70.8145 650.27 70.4219C650.088 70.0293 649.997 69.5781 649.997 69.0684C649.997 68.3887 650.188 67.8203 650.568 67.3633C650.955 66.9062 651.462 66.5635 652.089 66.335C652.716 66.1006 653.393 65.9834 654.119 65.9834ZM652.115 75.5811C652.115 76.0439 652.279 76.4277 652.607 76.7324C652.941 77.0312 653.434 77.1807 654.084 77.1807C654.758 77.1807 655.262 77.0371 655.596 76.75C655.93 76.457 656.097 76.0732 656.097 75.5986C656.097 75.2705 656 74.9834 655.807 74.7373C655.619 74.4912 655.382 74.2715 655.095 74.0781C654.808 73.8789 654.518 73.6943 654.225 73.5244L653.987 73.4014C653.612 73.5713 653.284 73.7617 653.003 73.9727C652.728 74.1836 652.511 74.4209 652.353 74.6846C652.194 74.9482 652.115 75.2471 652.115 75.5811ZM654.102 67.9697C653.656 67.9697 653.287 68.084 652.994 68.3125C652.701 68.541 652.555 68.8633 652.555 69.2793C652.555 69.5723 652.625 69.8301 652.766 70.0527C652.912 70.2695 653.103 70.46 653.337 70.624C653.577 70.7881 653.838 70.9404 654.119 71.0811C654.389 70.9521 654.641 70.8086 654.875 70.6504C655.109 70.4922 655.3 70.3018 655.446 70.0791C655.593 69.8564 655.666 69.5898 655.666 69.2793C655.666 68.8633 655.517 68.541 655.218 68.3125C654.925 68.084 654.553 67.9697 654.102 67.9697ZM666.942 65.3242V68.7432C666.942 69.1357 666.931 69.5166 666.907 69.8857C666.89 70.2549 666.875 70.542 666.863 70.7471H666.942C667.206 70.3135 667.587 69.9473 668.085 69.6484C668.583 69.3496 669.219 69.2002 669.992 69.2002C671.199 69.2002 672.16 69.6191 672.875 70.457C673.596 71.2891 673.956 72.5283 673.956 74.1748C673.956 75.2588 673.792 76.1729 673.464 76.917C673.136 77.6611 672.673 78.2236 672.075 78.6045C671.478 78.9854 670.771 79.1758 669.957 79.1758C669.195 79.1758 668.568 79.0352 668.076 78.7539C667.59 78.4668 667.215 78.1182 666.951 77.708H666.837L666.538 79H665.483V65.3242H666.942ZM669.755 70.4219C669.058 70.4219 668.504 70.5596 668.094 70.835C667.684 71.1045 667.388 71.5146 667.206 72.0654C667.03 72.6104 666.942 73.3018 666.942 74.1396V74.2188C666.942 75.4316 667.145 76.3604 667.549 77.0049C667.953 77.6436 668.688 77.9629 669.755 77.9629C670.651 77.9629 671.322 77.6348 671.768 76.9785C672.219 76.3223 672.444 75.3848 672.444 74.166C672.444 72.9238 672.222 71.9893 671.776 71.3623C671.337 70.7354 670.663 70.4219 669.755 70.4219ZM684.459 69.3672V79H683.264L683.053 77.6465H682.974C682.774 77.9805 682.517 78.2617 682.2 78.4902C681.884 78.7188 681.526 78.8887 681.128 79C680.735 79.1172 680.316 79.1758 679.871 79.1758C679.109 79.1758 678.471 79.0527 677.955 78.8066C677.439 78.5605 677.05 78.1797 676.786 77.6641C676.528 77.1484 676.399 76.4863 676.399 75.6777V69.3672H677.876V75.5723C677.876 76.375 678.058 76.9756 678.421 77.374C678.784 77.7666 679.338 77.9629 680.082 77.9629C680.797 77.9629 681.365 77.8281 681.787 77.5586C682.215 77.2891 682.522 76.8936 682.71 76.3721C682.897 75.8447 682.991 75.2002 682.991 74.4385V69.3672H684.459ZM693.775 76.3633C693.775 76.9785 693.62 77.4971 693.31 77.9189C693.005 78.335 692.565 78.6484 691.991 78.8594C691.423 79.0703 690.743 79.1758 689.952 79.1758C689.278 79.1758 688.695 79.123 688.203 79.0176C687.711 78.9121 687.28 78.7627 686.911 78.5693V77.2246C687.304 77.418 687.772 77.5938 688.317 77.752C688.862 77.9102 689.419 77.9893 689.987 77.9893C690.819 77.9893 691.423 77.8545 691.798 77.585C692.173 77.3154 692.36 76.9492 692.36 76.4863C692.36 76.2227 692.284 75.9912 692.132 75.792C691.985 75.5869 691.736 75.3906 691.385 75.2031C691.033 75.0098 690.547 74.7988 689.926 74.5703C689.311 74.3359 688.777 74.1045 688.326 73.876C687.881 73.6416 687.535 73.3574 687.289 73.0234C687.049 72.6895 686.929 72.2559 686.929 71.7227C686.929 70.9082 687.257 70.2842 687.913 69.8506C688.575 69.4111 689.442 69.1914 690.515 69.1914C691.095 69.1914 691.637 69.25 692.141 69.3672C692.65 69.4785 693.125 69.6309 693.564 69.8242L693.072 70.9932C692.674 70.8232 692.249 70.6797 691.798 70.5625C691.347 70.4453 690.887 70.3867 690.418 70.3867C689.744 70.3867 689.226 70.498 688.862 70.7207C688.505 70.9434 688.326 71.248 688.326 71.6348C688.326 71.9336 688.408 72.1797 688.572 72.373C688.742 72.5664 689.012 72.748 689.381 72.918C689.75 73.0879 690.236 73.2871 690.84 73.5156C691.443 73.7383 691.965 73.9697 692.404 74.21C692.844 74.4443 693.181 74.7314 693.415 75.0713C693.655 75.4053 693.775 75.8359 693.775 76.3633ZM697.581 69.3672V79H696.122V69.3672H697.581ZM696.869 65.7637C697.109 65.7637 697.314 65.8428 697.484 66.001C697.66 66.1533 697.748 66.3936 697.748 66.7217C697.748 67.0439 697.66 67.2842 697.484 67.4424C697.314 67.6006 697.109 67.6797 696.869 67.6797C696.617 67.6797 696.406 67.6006 696.236 67.4424C696.072 67.2842 695.99 67.0439 695.99 66.7217C695.99 66.3936 696.072 66.1533 696.236 66.001C696.406 65.8428 696.617 65.7637 696.869 65.7637ZM705.236 69.1914C706.379 69.1914 707.243 69.4727 707.829 70.0352C708.415 70.5918 708.708 71.4883 708.708 72.7246V79H707.267V72.8213C707.267 72.0186 707.082 71.418 706.713 71.0195C706.35 70.6211 705.79 70.4219 705.034 70.4219C703.968 70.4219 703.218 70.7236 702.784 71.3271C702.351 71.9307 702.134 72.8066 702.134 73.9551V79H700.675V69.3672H701.853L702.072 70.7559H702.151C702.356 70.416 702.617 70.1318 702.934 69.9033C703.25 69.6689 703.604 69.4932 703.997 69.376C704.39 69.2529 704.803 69.1914 705.236 69.1914ZM715.423 69.1914C716.243 69.1914 716.946 69.373 717.532 69.7363C718.118 70.0996 718.566 70.6094 718.877 71.2656C719.188 71.916 719.343 72.6777 719.343 73.5508V74.4561H712.689C712.707 75.5869 712.988 76.4482 713.533 77.04C714.078 77.6318 714.846 77.9277 715.836 77.9277C716.445 77.9277 716.984 77.8721 717.453 77.7607C717.922 77.6494 718.408 77.4854 718.912 77.2686V78.5518C718.426 78.7686 717.942 78.9268 717.462 79.0264C716.987 79.126 716.425 79.1758 715.774 79.1758C714.849 79.1758 714.04 78.9883 713.349 78.6133C712.663 78.2324 712.13 77.6758 711.749 76.9434C711.368 76.2109 711.178 75.3145 711.178 74.2539C711.178 73.2168 711.351 72.3203 711.696 71.5645C712.048 70.8027 712.54 70.2168 713.173 69.8066C713.812 69.3965 714.562 69.1914 715.423 69.1914ZM715.405 70.3867C714.626 70.3867 714.005 70.6416 713.542 71.1514C713.079 71.6611 712.804 72.373 712.716 73.2871H717.813C717.808 72.7129 717.717 72.209 717.541 71.7754C717.371 71.3359 717.11 70.9961 716.759 70.7559C716.407 70.5098 715.956 70.3867 715.405 70.3867ZM728.053 76.3633C728.053 76.9785 727.897 77.4971 727.587 77.9189C727.282 78.335 726.843 78.6484 726.269 78.8594C725.7 79.0703 725.021 79.1758 724.229 79.1758C723.556 79.1758 722.973 79.123 722.48 79.0176C721.988 78.9121 721.558 78.7627 721.188 78.5693V77.2246C721.581 77.418 722.05 77.5938 722.595 77.752C723.14 77.9102 723.696 77.9893 724.265 77.9893C725.097 77.9893 725.7 77.8545 726.075 77.585C726.45 77.3154 726.638 76.9492 726.638 76.4863C726.638 76.2227 726.562 75.9912 726.409 75.792C726.263 75.5869 726.014 75.3906 725.662 75.2031C725.311 75.0098 724.824 74.7988 724.203 74.5703C723.588 74.3359 723.055 74.1045 722.604 73.876C722.158 73.6416 721.812 73.3574 721.566 73.0234C721.326 72.6895 721.206 72.2559 721.206 71.7227C721.206 70.9082 721.534 70.2842 722.19 69.8506C722.853 69.4111 723.72 69.1914 724.792 69.1914C725.372 69.1914 725.914 69.25 726.418 69.3672C726.928 69.4785 727.402 69.6309 727.842 69.8242L727.35 70.9932C726.951 70.8232 726.526 70.6797 726.075 70.5625C725.624 70.4453 725.164 70.3867 724.695 70.3867C724.021 70.3867 723.503 70.498 723.14 70.7207C722.782 70.9434 722.604 71.248 722.604 71.6348C722.604 71.9336 722.686 72.1797 722.85 72.373C723.02 72.5664 723.289 72.748 723.658 72.918C724.027 73.0879 724.514 73.2871 725.117 73.5156C725.721 73.7383 726.242 73.9697 726.682 74.21C727.121 74.4443 727.458 74.7314 727.692 75.0713C727.933 75.4053 728.053 75.8359 728.053 76.3633ZM736.631 76.3633C736.631 76.9785 736.476 77.4971 736.165 77.9189C735.86 78.335 735.421 78.6484 734.847 78.8594C734.278 79.0703 733.599 79.1758 732.808 79.1758C732.134 79.1758 731.551 79.123 731.059 79.0176C730.566 78.9121 730.136 78.7627 729.767 78.5693V77.2246C730.159 77.418 730.628 77.5938 731.173 77.752C731.718 77.9102 732.274 77.9893 732.843 77.9893C733.675 77.9893 734.278 77.8545 734.653 77.585C735.028 77.3154 735.216 76.9492 735.216 76.4863C735.216 76.2227 735.14 75.9912 734.987 75.792C734.841 75.5869 734.592 75.3906 734.24 75.2031C733.889 75.0098 733.402 74.7988 732.781 74.5703C732.166 74.3359 731.633 74.1045 731.182 73.876C730.736 73.6416 730.391 73.3574 730.145 73.0234C729.904 72.6895 729.784 72.2559 729.784 71.7227C729.784 70.9082 730.112 70.2842 730.769 69.8506C731.431 69.4111 732.298 69.1914 733.37 69.1914C733.95 69.1914 734.492 69.25 734.996 69.3672C735.506 69.4785 735.98 69.6309 736.42 69.8242L735.928 70.9932C735.529 70.8232 735.104 70.6797 734.653 70.5625C734.202 70.4453 733.742 70.3867 733.273 70.3867C732.6 70.3867 732.081 70.498 731.718 70.7207C731.36 70.9434 731.182 71.248 731.182 71.6348C731.182 71.9336 731.264 72.1797 731.428 72.373C731.598 72.5664 731.867 72.748 732.236 72.918C732.605 73.0879 733.092 73.2871 733.695 73.5156C734.299 73.7383 734.82 73.9697 735.26 74.21C735.699 74.4443 736.036 74.7314 736.271 75.0713C736.511 75.4053 736.631 75.8359 736.631 76.3633ZM747.081 79.1758C745.862 79.1758 744.896 78.7598 744.181 77.9277C743.472 77.0957 743.117 75.8594 743.117 74.2188C743.117 72.5605 743.48 71.3096 744.207 70.4658C744.934 69.6162 745.9 69.1914 747.107 69.1914C747.617 69.1914 748.062 69.2588 748.443 69.3936C748.824 69.5283 749.152 69.71 749.428 69.9385C749.703 70.1611 749.935 70.416 750.122 70.7031H750.228C750.204 70.5215 750.181 70.2725 750.157 69.9561C750.134 69.6396 750.122 69.3818 750.122 69.1826V65.3242H751.581V79H750.403L750.184 77.6289H750.122C749.94 77.916 749.709 78.1768 749.428 78.4111C749.152 78.6455 748.821 78.833 748.435 78.9736C748.054 79.1084 747.603 79.1758 747.081 79.1758ZM747.31 77.9629C748.341 77.9629 749.07 77.6699 749.498 77.084C749.926 76.498 750.14 75.6279 750.14 74.4736V74.21C750.14 72.9854 749.935 72.0449 749.524 71.3887C749.12 70.7324 748.382 70.4043 747.31 70.4043C746.413 70.4043 745.742 70.75 745.297 71.4414C744.852 72.127 744.629 73.0645 744.629 74.2539C744.629 75.4375 744.849 76.3516 745.288 76.9961C745.733 77.6406 746.407 77.9629 747.31 77.9629ZM758.278 69.209C759.427 69.209 760.279 69.4668 760.836 69.9824C761.393 70.498 761.671 71.3213 761.671 72.4521V79H760.607L760.326 77.5762H760.256C759.986 77.9277 759.705 78.2236 759.412 78.4639C759.119 78.6982 758.779 78.877 758.393 79C758.012 79.1172 757.543 79.1758 756.986 79.1758C756.4 79.1758 755.879 79.0732 755.422 78.8682C754.971 78.6631 754.613 78.3525 754.35 77.9365C754.092 77.5205 753.963 76.9932 753.963 76.3545C753.963 75.3936 754.344 74.6553 755.105 74.1396C755.867 73.624 757.027 73.3428 758.586 73.2959L760.247 73.2256V72.6367C760.247 71.8047 760.068 71.2217 759.711 70.8877C759.354 70.5537 758.85 70.3867 758.199 70.3867C757.695 70.3867 757.215 70.46 756.758 70.6064C756.301 70.7529 755.867 70.9258 755.457 71.125L755.009 70.0176C755.442 69.7949 755.94 69.6045 756.503 69.4463C757.065 69.2881 757.657 69.209 758.278 69.209ZM760.229 74.2539L758.762 74.3154C757.561 74.3623 756.714 74.5586 756.222 74.9043C755.729 75.25 755.483 75.7393 755.483 76.3721C755.483 76.9229 755.65 77.3301 755.984 77.5938C756.318 77.8574 756.761 77.9893 757.312 77.9893C758.167 77.9893 758.867 77.752 759.412 77.2773C759.957 76.8027 760.229 76.0908 760.229 75.1416V74.2539ZM763.156 69.3672H764.721L766.848 74.957C766.971 75.2852 767.085 75.6016 767.19 75.9062C767.296 76.2051 767.39 76.4922 767.472 76.7676C767.554 77.043 767.618 77.3096 767.665 77.5674H767.727C767.809 77.2744 767.926 76.8906 768.078 76.416C768.23 75.9355 768.395 75.4463 768.57 74.9482L770.583 69.3672H772.156L767.964 80.415C767.741 81.0068 767.48 81.5225 767.182 81.9619C766.889 82.4014 766.531 82.7383 766.109 82.9727C765.688 83.2129 765.178 83.333 764.58 83.333C764.305 83.333 764.062 83.3154 763.851 83.2803C763.64 83.251 763.458 83.2158 763.306 83.1748V82.0059C763.435 82.0352 763.59 82.0615 763.771 82.085C763.959 82.1084 764.152 82.1201 764.352 82.1201C764.715 82.1201 765.028 82.0498 765.292 81.9092C765.562 81.7744 765.793 81.5752 765.986 81.3115C766.18 81.0479 766.347 80.7344 766.487 80.3711L767.015 79.0176L763.156 69.3672ZM779.926 76.3633C779.926 76.9785 779.771 77.4971 779.46 77.9189C779.155 78.335 778.716 78.6484 778.142 78.8594C777.573 79.0703 776.894 79.1758 776.103 79.1758C775.429 79.1758 774.846 79.123 774.354 79.0176C773.861 78.9121 773.431 78.7627 773.062 78.5693V77.2246C773.454 77.418 773.923 77.5938 774.468 77.752C775.013 77.9102 775.569 77.9893 776.138 77.9893C776.97 77.9893 777.573 77.8545 777.948 77.585C778.323 77.3154 778.511 76.9492 778.511 76.4863C778.511 76.2227 778.435 75.9912 778.282 75.792C778.136 75.5869 777.887 75.3906 777.535 75.2031C777.184 75.0098 776.697 74.7988 776.076 74.5703C775.461 74.3359 774.928 74.1045 774.477 73.876C774.031 73.6416 773.686 73.3574 773.439 73.0234C773.199 72.6895 773.079 72.2559 773.079 71.7227C773.079 70.9082 773.407 70.2842 774.063 69.8506C774.726 69.4111 775.593 69.1914 776.665 69.1914C777.245 69.1914 777.787 69.25 778.291 69.3672C778.801 69.4785 779.275 69.6309 779.715 69.8242L779.223 70.9932C778.824 70.8232 778.399 70.6797 777.948 70.5625C777.497 70.4453 777.037 70.3867 776.568 70.3867C775.895 70.3867 775.376 70.498 775.013 70.7207C774.655 70.9434 774.477 71.248 774.477 71.6348C774.477 71.9336 774.559 72.1797 774.723 72.373C774.893 72.5664 775.162 72.748 775.531 72.918C775.9 73.0879 776.387 73.2871 776.99 73.5156C777.594 73.7383 778.115 73.9697 778.555 74.21C778.994 74.4443 779.331 74.7314 779.565 75.0713C779.806 75.4053 779.926 75.8359 779.926 76.3633Z" fill="#212E44"/>
</svg>
