<svg width="18" height="18" viewBox="0 0 18 18" fill="none" xmlns="http://www.w3.org/2000/svg">
<path fill-rule="evenodd" clip-rule="evenodd" d="M8.88427 1.00228C9.04989 0.999153 9.13427 1.0179 9.28739 1.08665C9.39677 1.13353 9.54677 1.2304 9.62489 1.30228C9.70302 1.37415 9.79364 1.48353 9.82802 1.54915C9.86239 1.61478 9.98114 1.92103 10.2968 2.79603L11.953 2.81165C13.5811 2.82728 13.6124 2.82728 13.7499 2.89603C13.828 2.93353 13.9593 3.02415 14.0436 3.09915C14.1374 3.18353 14.2311 3.30853 14.3905 3.63665L14.4093 5.04603L14.6343 5.08665C14.7593 5.10853 14.9624 5.17415 15.0843 5.23353C15.2124 5.29603 15.3905 5.41478 15.4905 5.50853C15.5905 5.60228 15.7218 5.75228 15.7811 5.84603C15.8405 5.93978 15.9249 6.1054 15.9686 6.2179C16.0436 6.4179 16.0436 6.4429 16.078 8.66478L16.203 8.69915C16.2718 8.72103 16.3905 8.77103 16.4686 8.8179C16.5468 8.86165 16.6561 8.95228 16.7155 9.0179C16.7749 9.08665 16.8624 9.22728 16.9999 9.5304V12.4679L16.9124 12.6648C16.8624 12.7742 16.7624 12.921 16.678 13.0085C16.5968 13.0898 16.4561 13.1898 16.3655 13.2335C16.278 13.2773 16.1718 13.3117 16.0624 13.3117V14.3835C16.0624 15.3617 16.0561 15.4742 15.9999 15.7023C15.9624 15.8398 15.8936 16.0242 15.8468 16.1085C15.7968 16.196 15.6936 16.3367 15.6186 16.421C15.5405 16.5085 15.3968 16.6335 15.2936 16.7023C15.1936 16.7679 14.9936 16.8648 14.5936 16.9992H2.46864L2.20927 16.9117C2.06864 16.8648 1.86864 16.7679 1.76864 16.7023C1.66552 16.6335 1.52177 16.5085 1.44364 16.421C1.36864 16.3367 1.26552 16.196 1.21552 16.1085C1.16864 16.0242 1.09989 15.8398 1.06239 15.7023C0.999891 15.4554 0.999891 15.4023 1.01552 6.42103L1.09364 6.2179C1.13739 6.1054 1.22177 5.93978 1.28114 5.84603C1.34052 5.75228 1.46864 5.6054 1.56239 5.5179C1.65614 5.4304 1.83114 5.30853 1.95302 5.24603C2.07489 5.18353 2.26552 5.1179 2.38114 5.09915C2.49989 5.07728 2.59364 5.05228 2.59364 5.03978C2.59364 5.02415 2.54677 4.8804 2.48427 4.7179C2.42489 4.5554 2.36239 4.3429 2.34364 4.24915C2.32177 4.1304 2.32177 4.02415 2.34364 3.9054C2.36239 3.81165 2.40614 3.67103 2.44364 3.5929C2.48114 3.51478 2.57489 3.3929 2.64677 3.32103C2.72177 3.24603 2.82802 3.16165 2.88114 3.13353C2.93739 3.1054 4.26239 2.61478 5.82802 2.0429C8.47489 1.07728 8.68739 1.0054 8.88114 1.00228H8.88427ZM3.29677 4.01478C3.25927 4.07103 3.27489 4.13353 3.43427 4.5679L3.61239 5.06165H8.00302C8.01864 3.66165 8.02177 3.63353 8.09989 3.4679C8.14364 3.37415 8.22802 3.23978 8.29052 3.17103C8.34989 3.10228 8.49052 2.99915 8.59989 2.93978C8.75927 2.8554 8.84989 2.8304 9.04364 2.81478C9.17489 2.8054 9.28427 2.7804 9.28427 2.76478C9.28427 2.74603 9.23114 2.5929 9.17177 2.42103C9.10927 2.24915 9.04364 2.0804 9.02489 2.04603C9.00927 2.01165 8.97802 1.97415 8.95927 1.96165C8.94052 1.94915 8.90302 1.93978 8.87802 1.93978C8.85302 1.9429 7.59364 2.39603 6.08427 2.94915C4.13114 3.66165 3.32489 3.97103 3.29677 4.01478ZM8.93739 4.4554L8.94052 5.06165H13.4718C13.4718 3.95228 13.4624 3.83353 13.4249 3.79603C13.3843 3.7554 13.0968 3.74915 11.2093 3.74915C9.27802 3.74915 9.03427 3.7554 8.98739 3.79915C8.94364 3.83978 8.93739 3.9304 8.93739 4.4554ZM2.24364 6.16165C2.18114 6.21165 2.09052 6.31478 2.04052 6.39603L1.95614 6.54603C1.94052 14.7742 1.94677 15.4085 1.98427 15.5304C2.00927 15.6085 2.08427 15.7273 2.14989 15.796C2.21552 15.8648 2.32489 15.9492 2.39364 15.9835C2.51864 16.046 2.59052 16.046 8.53427 16.046C14.478 16.046 14.5499 16.046 14.6749 15.9835C14.7436 15.9492 14.853 15.8648 14.9186 15.796C14.9843 15.7273 15.0561 15.6085 15.0843 15.5304C15.1186 15.4179 15.128 15.1835 15.128 14.3648V13.3429C13.1999 13.3242 12.9874 13.3148 12.8311 13.271C12.728 13.2398 12.5155 13.1554 12.3624 13.0804C12.1561 12.9804 12.0155 12.8804 11.8343 12.7148C11.6999 12.5867 11.528 12.3929 11.4561 12.2804C11.3811 12.1679 11.2874 11.9929 11.2468 11.8898C11.203 11.7867 11.1499 11.6242 11.1249 11.5304C11.0999 11.4273 11.0811 11.2085 11.0811 10.9835C11.0843 10.7242 11.0999 10.546 11.1405 10.4054C11.1686 10.2929 11.2405 10.1054 11.2999 9.98353C11.3561 9.86165 11.4811 9.6679 11.5749 9.54603C11.6686 9.42415 11.828 9.26165 11.928 9.18353C12.0311 9.1054 12.1905 8.99603 12.2843 8.9429C12.378 8.88978 12.5686 8.80853 12.7061 8.75853L12.9561 8.67103L15.128 8.6554L15.1124 6.54603C14.978 6.31478 14.8874 6.21165 14.8249 6.16165C14.7593 6.11478 14.6593 6.06165 14.5968 6.03978C14.5124 6.01165 13.0999 6.00228 8.53427 6.00228C3.96864 6.00228 2.55614 6.01165 2.47177 6.03978C2.40927 6.06165 2.30927 6.11478 2.24364 6.16165ZM12.6936 9.78978C12.603 9.84603 12.4624 9.96165 12.3811 10.046C12.303 10.1335 12.203 10.2742 12.1624 10.3585C12.1186 10.446 12.0655 10.5835 12.0436 10.671C12.0218 10.7554 12.003 10.8929 12.003 10.9742C12.003 11.0585 12.0186 11.1992 12.0374 11.2867C12.0561 11.3773 12.1155 11.5367 12.1686 11.6398C12.2218 11.7429 12.3343 11.8992 12.4218 11.9867C12.5093 12.0742 12.6561 12.1835 12.7436 12.2273C12.8343 12.2742 12.9905 12.3335 13.0874 12.3585C13.2343 12.396 13.5186 12.4054 14.6124 12.4054C15.8624 12.4085 15.9593 12.4023 16.0093 12.3523C16.0593 12.3023 16.0655 12.1835 16.0655 10.9898C16.0655 9.87103 16.0593 9.6804 16.0186 9.63978C15.978 9.59915 15.778 9.5929 14.5874 9.59603C13.4749 9.59603 13.1718 9.6054 13.0343 9.6429C12.9405 9.6679 12.7874 9.73353 12.6936 9.78978ZM13.3999 10.5304C13.4561 10.5304 13.553 10.5554 13.6155 10.5835C13.6811 10.6148 13.7593 10.6835 13.7936 10.7335C13.8311 10.7835 13.8655 10.8835 13.8718 10.9523C13.8843 11.046 13.8686 11.1117 13.8124 11.2117C13.7624 11.3023 13.6968 11.3679 13.6124 11.4054C13.5436 11.4398 13.453 11.4679 13.4093 11.4679C13.3655 11.4679 13.2749 11.4398 13.2061 11.4054C13.1218 11.3679 13.0561 11.3023 13.0061 11.2117C12.9499 11.1117 12.9343 11.046 12.9468 10.9523C12.953 10.8835 12.9905 10.7835 13.0249 10.7304C13.0624 10.6773 13.1405 10.6117 13.1968 10.5835C13.253 10.5554 13.3468 10.5304 13.3999 10.5304Z" fill="#222754"/>
</svg>
