<svg width="18" height="18" viewBox="0 0 18 18" fill="none" xmlns="http://www.w3.org/2000/svg">
<path fill-rule="evenodd" clip-rule="evenodd" d="M1.55742 0.949219C2.66133 0.949219 2.67539 0.949219 2.91094 1.03711C3.04102 1.08633 3.20625 1.16719 3.28359 1.21992C3.35742 1.27617 3.46289 1.37461 3.51563 1.44141C3.56836 1.5082 3.63867 1.6207 3.67383 1.6875C3.70547 1.7543 3.87773 2.34844 4.37695 4.20117L4.88672 4.22227C5.16797 4.23633 7.19297 4.25039 9.38672 4.25391C11.5805 4.25742 14.2488 4.27148 15.3105 4.28555C17.2266 4.30664 17.2441 4.30664 17.3953 4.3875C17.4762 4.42969 17.5992 4.51758 17.6695 4.58086C17.7398 4.64062 17.8348 4.77422 17.8805 4.86914C17.9297 4.96758 17.9754 5.13281 17.9859 5.23828C18.0035 5.40703 17.9191 5.80781 17.3355 8.34258C16.9453 10.0266 16.6324 11.3203 16.5867 11.4152C16.541 11.5066 16.4426 11.6543 16.3617 11.7422C16.2809 11.8301 16.1332 11.9426 16.0277 11.9953C15.9223 12.048 15.75 12.1078 15.6445 12.1289C15.518 12.1535 13.6582 12.1641 10.2551 12.1641C5.38242 12.1641 5.05547 12.1676 4.93242 12.2238C4.86211 12.259 4.76367 12.3504 4.71445 12.4277C4.65117 12.5297 4.62656 12.6141 4.62656 12.7441C4.62656 12.8602 4.65469 12.9656 4.70391 13.05C4.74961 13.1273 4.84102 13.2117 4.92188 13.2539C5.05898 13.3242 5.13281 13.3242 15.873 13.3242L16.0277 13.4016C16.1191 13.4508 16.207 13.5316 16.2457 13.6055C16.2844 13.6723 16.3125 13.7918 16.3125 13.8691C16.3125 13.9465 16.2809 14.059 16.2422 14.1223C16.2035 14.1855 16.1262 14.2664 16.0699 14.298C15.9715 14.3613 15.968 14.3648 16.0207 14.4844C16.0488 14.5512 16.0875 14.6777 16.1051 14.7656C16.1262 14.8535 16.1438 15.0434 16.1438 15.1875C16.1438 15.3352 16.1191 15.5461 16.084 15.6621C16.0523 15.7781 15.975 15.9645 15.9152 16.0805C15.852 16.193 15.7148 16.3758 15.6059 16.4848C15.4969 16.5938 15.3141 16.7309 15.2016 16.7941C15.0855 16.8539 14.8711 16.9383 14.7234 16.977C14.5723 17.0191 14.3859 17.0508 14.3086 17.0508C14.2313 17.0508 14.0449 17.0191 13.8973 16.977C13.7461 16.9383 13.5316 16.8539 13.4156 16.7941C13.3031 16.7309 13.1203 16.5938 13.0113 16.4848C12.9023 16.3758 12.7652 16.193 12.702 16.0805C12.6422 15.9645 12.5684 15.7852 12.5367 15.6797C12.5016 15.5672 12.477 15.3598 12.477 15.1875C12.477 15.0223 12.5016 14.8078 12.5297 14.7129C12.5578 14.6145 12.5895 14.502 12.6211 14.3789H10.9688C9.66094 14.3789 9.31992 14.3895 9.33047 14.4211C9.34102 14.4457 9.37617 14.5547 9.41133 14.6602C9.45117 14.7891 9.47109 14.9648 9.47109 15.1875C9.47461 15.4512 9.45352 15.5742 9.38672 15.7676C9.34102 15.9047 9.23906 16.1086 9.16172 16.2211C9.08086 16.3371 8.9543 16.4883 8.87344 16.5551C8.79609 16.6254 8.63789 16.7309 8.52188 16.7941C8.40938 16.8539 8.19492 16.9383 8.05078 16.977C7.90664 17.0191 7.72383 17.0508 7.64649 17.0508C7.56914 17.0508 7.38633 17.0191 7.24219 16.9805C7.09805 16.9418 6.89063 16.868 6.78516 16.8187C6.66914 16.759 6.49336 16.6219 6.3457 16.4742C6.20508 16.3301 6.06094 16.1402 6.00469 16.0312C5.95195 15.9258 5.88516 15.743 5.85703 15.627C5.82539 15.5109 5.80078 15.307 5.80078 15.1699C5.80078 15.0328 5.82539 14.8359 5.85703 14.7305C5.88867 14.625 5.92031 14.502 5.94141 14.3789L4.7918 14.3613L4.49648 14.2172C4.275 14.1082 4.15547 14.0168 4.01484 13.8656C3.90938 13.7496 3.7793 13.5633 3.72305 13.4473C3.6668 13.3313 3.6 13.1273 3.57891 12.9902C3.55078 12.8074 3.55078 12.6809 3.57891 12.498C3.6 12.3609 3.6668 12.1535 3.72656 12.0305C3.78281 11.9109 3.90586 11.7316 4.00078 11.6332C4.09219 11.5348 4.24688 11.4047 4.3418 11.3449C4.44023 11.2852 4.60898 11.2078 4.72149 11.1727C4.83047 11.1375 4.97109 11.1094 5.02734 11.1094C5.12227 11.1094 5.13281 11.1023 5.11172 11.0109C5.10117 10.9582 4.56328 8.94727 3.91289 6.53906C3.19922 3.88477 2.71406 2.1375 2.67891 2.10234C2.62617 2.04609 2.51367 2.03906 1.48711 2.03203C0.418359 2.02148 0.351563 2.01797 0.260156 1.95117C0.210938 1.9125 0.133594 1.83516 0.0914063 1.78242C0.0386719 1.70859 0.0175781 1.63125 0.0175781 1.49414C0.0175781 1.35703 0.0386719 1.27969 0.0914063 1.20586C0.130078 1.15312 0.225 1.07227 0.302344 1.03008C0.435938 0.952734 0.464063 0.949219 1.55742 0.949219ZM4.69336 5.34727C4.70039 5.39297 4.84805 5.94141 5.0168 6.56719L5.32617 7.69922C7.27383 7.69922 7.34766 7.6957 7.34766 7.63945C7.34766 7.6043 7.28086 7.06641 7.2 6.44062L7.04883 5.30859C5.79727 5.30859 5.26289 5.29805 5.05547 5.28398L4.67578 5.26289L4.69336 5.34727ZM8.26172 6.40547C8.33906 6.99258 8.40938 7.52344 8.41992 7.5832L8.4375 7.69922H10.4414V5.30859C8.64492 5.30859 8.12109 5.31563 8.12109 5.32617C8.12109 5.33672 8.18438 5.82188 8.26172 6.40547ZM11.4961 7.69922L13.5176 7.68164C13.7461 5.93789 13.8164 5.40352 13.8164 5.36836C13.8164 5.31211 13.7391 5.30859 12.6563 5.30859H11.4961V7.69922ZM14.7375 6.47578C14.6566 7.10156 14.5898 7.63242 14.5898 7.65352C14.5898 7.68867 14.7938 7.69922 15.4863 7.69922C15.982 7.69922 16.3898 7.68867 16.4004 7.67109C16.4074 7.65703 16.527 7.16484 16.6641 6.57422C16.7977 5.98359 16.9172 5.4668 16.9277 5.42109L16.9453 5.34375H14.8852L14.7375 6.47578ZM5.89219 9.81563C6.03633 10.3605 6.17695 10.8598 6.20859 10.923C6.23672 10.9863 6.3 11.0531 6.3457 11.0707C6.39492 11.0918 6.74297 11.1059 7.11914 11.1059C7.74844 11.1059 7.80469 11.1023 7.8082 11.0461C7.8082 11.0109 7.73789 10.4801 7.65703 9.86836L7.50586 8.75039C5.9625 8.75039 5.625 8.76445 5.625 8.78555C5.625 8.80664 5.74453 9.2707 5.89219 9.81563ZM8.72227 9.87539C8.79961 10.466 8.86992 10.9863 8.88047 11.0285L8.89453 11.1059H10.4414V8.75039C9 8.75039 8.57813 8.76445 8.57813 8.77852C8.57813 8.79258 8.64492 9.28828 8.72227 9.87539ZM11.4961 11.1059C12.8566 11.1059 13.0465 11.0953 13.0605 11.0637C13.0676 11.0391 13.1414 10.5328 13.2188 9.93867C13.2961 9.34453 13.3594 8.83477 13.3594 8.80312C13.3594 8.75742 13.2328 8.75039 12.4277 8.75039H11.4961V11.1059ZM14.277 9.9457C14.1996 10.5574 14.1328 11.0672 14.1328 11.0813C14.1328 11.0953 14.4281 11.1059 14.7832 11.1059C15.2332 11.1059 15.4617 11.0953 15.525 11.0637C15.5707 11.0391 15.627 10.9793 15.6445 10.9301C15.6621 10.8844 15.7816 10.3922 15.9082 9.84023C16.0348 9.2918 16.1367 8.8207 16.1367 8.79609C16.1367 8.76094 15.9469 8.75039 15.293 8.75039C14.6496 8.75039 14.4457 8.76094 14.4352 8.79609C14.4281 8.8207 14.3578 9.3375 14.277 9.9457ZM7.25977 14.4879C7.20352 14.5195 7.10859 14.5969 7.05234 14.6637C6.99609 14.727 6.9293 14.8324 6.90469 14.8957C6.87656 14.959 6.85547 15.0855 6.85547 15.177C6.85547 15.2895 6.88711 15.4055 6.95391 15.5355C7.01719 15.6645 7.10039 15.7641 7.20352 15.8344C7.31602 15.9152 7.40391 15.9434 7.55508 15.9539C7.66406 15.9609 7.81524 15.9469 7.89258 15.9223C7.96992 15.8977 8.10352 15.8098 8.18438 15.7324C8.28984 15.6375 8.35664 15.532 8.3918 15.4125C8.42695 15.3 8.44102 15.1805 8.42695 15.0785C8.41289 14.9871 8.35664 14.8465 8.28984 14.748C8.2125 14.632 8.12109 14.5477 8.01563 14.4949C7.93125 14.4492 7.79414 14.407 7.7168 14.3965C7.63945 14.3895 7.53047 14.393 7.4707 14.407C7.41445 14.4246 7.31953 14.4598 7.25977 14.4879ZM13.8199 14.5793C13.7355 14.6531 13.6371 14.7691 13.602 14.843C13.5598 14.9273 13.5352 15.0504 13.5387 15.177C13.5387 15.2965 13.5633 15.4336 13.602 15.518C13.6371 15.5953 13.7145 15.7043 13.7707 15.7535C13.8234 15.8063 13.9289 15.873 14.0027 15.9047C14.073 15.9328 14.2172 15.9574 14.3191 15.9574C14.4211 15.9574 14.5652 15.9293 14.6426 15.8906C14.7199 15.8555 14.8254 15.7816 14.8781 15.7254C14.9309 15.6691 15.0012 15.5602 15.0328 15.4828C15.0645 15.4055 15.0891 15.2648 15.0891 15.1664C15.0891 15.0645 15.0609 14.9344 15.0223 14.85C14.9836 14.7727 14.8816 14.6531 14.7973 14.5793C14.7129 14.5055 14.5758 14.4316 14.4949 14.4141C14.4105 14.393 14.3156 14.3789 14.284 14.3789C14.2488 14.3824 14.168 14.3965 14.0977 14.4141C14.0309 14.4316 13.9078 14.5055 13.8199 14.5793Z" fill="#222754"/>
</svg>
