<svg width="16" height="14" viewBox="0 0 16 14" fill="none" xmlns="http://www.w3.org/2000/svg">
<path fill-rule="evenodd" clip-rule="evenodd" d="M11.5156 0.4375L11.8398 0.539062C12.0156 0.597656 12.2227 0.675781 12.2969 0.710938C12.3711 0.75 12.5391 0.859375 12.668 0.957031C12.7969 1.05078 12.9844 1.23437 13.082 1.35937C13.1836 1.48828 13.3164 1.69922 13.3867 1.83203C13.4648 1.99219 13.6719 2.69141 14.4648 5.62891L14.6406 5.74219C14.7383 5.80469 14.8984 5.94141 14.9961 6.04688C15.0938 6.15234 15.2188 6.32422 15.2734 6.43359C15.3281 6.53906 15.4023 6.72656 15.4375 6.84375C15.4922 7.02344 15.5 7.28906 15.5 8.54297C15.5 9.73828 15.4883 10.0703 15.4414 10.2539C15.4102 10.375 15.3359 10.5703 15.2773 10.6797C15.2227 10.793 15.0781 10.9883 14.957 11.1133C14.8125 11.2617 14.6445 11.3867 14.4648 11.4766C14.3125 11.5508 14.1367 11.6211 13.957 11.6523L13.9297 12.0312C13.9102 12.3555 13.8867 12.4492 13.7695 12.6836C13.6836 12.8516 13.5586 13.0234 13.4414 13.1328C13.3398 13.2266 13.125 13.3633 12.9688 13.4336C12.6875 13.5625 12.6875 13.5625 12.0625 13.5625C11.4375 13.5625 11.4375 13.5625 11.1523 13.4336C11 13.3633 10.7852 13.2266 10.6836 13.1328C10.5664 13.0234 10.4414 12.8516 10.3555 12.6836C10.2422 12.4531 10.2148 12.3516 10.168 11.6875H5.83203L5.80469 12.0469C5.78516 12.3516 5.75781 12.4531 5.64453 12.6836C5.55859 12.8516 5.43359 13.0234 5.31641 13.1328C5.21484 13.2266 5 13.3633 4.84375 13.4336C4.5625 13.5625 4.5625 13.5625 3.9375 13.5625C3.3125 13.5625 3.3125 13.5625 3.02734 13.4336C2.875 13.3633 2.66016 13.2266 2.55859 13.1328C2.44141 13.0234 2.31641 12.8516 2.23047 12.6836C2.11328 12.4492 2.08984 12.3555 2.04297 11.6523L1.92578 11.6328C1.85938 11.6211 1.70312 11.5586 1.57422 11.5C1.44531 11.4375 1.23438 11.293 1.10547 11.1719C0.972656 11.0508 0.816406 10.8594 0.746094 10.7266C0.679688 10.6016 0.597656 10.3984 0.5625 10.2812C0.507812 10.1016 0.5 9.82812 0.5 8.58203C0.5 7.38672 0.511719 7.05469 0.558594 6.87109C0.589844 6.75 0.664062 6.55469 0.722656 6.44141C0.777344 6.33203 0.90625 6.15234 1.00391 6.04688C1.10156 5.94141 1.26172 5.80469 1.53516 5.62891L2.00781 3.86328C2.32812 2.66797 2.52344 2.01562 2.60938 1.84375C2.67969 1.70312 2.81641 1.48828 2.91797 1.35937C3.01562 1.23437 3.20312 1.05469 3.33203 0.957031C3.46094 0.859375 3.67188 0.734375 3.80078 0.671875C3.92969 0.613281 4.09766 0.550781 4.17188 0.535156C4.24609 0.519531 4.33594 0.492188 4.36719 0.472656C4.39844 0.453125 6.01953 0.4375 11.5156 0.4375ZM4.23047 1.85156C4.16406 1.88672 4.03906 1.99219 3.94531 2.09375C3.85547 2.19141 3.75781 2.32031 3.72656 2.37891C3.69922 2.44141 3.50391 3.12109 3.29688 3.89453C3.08594 4.66797 2.91016 5.33203 2.89844 5.37109C2.88281 5.43359 3.14453 5.4375 8 5.4375C12.8555 5.4375 13.1172 5.43359 13.0977 5.37109C13.0898 5.33203 12.9141 4.66797 12.707 3.89453C12.4922 3.09766 12.2891 2.42188 12.2383 2.33203C12.1875 2.24609 12.0781 2.10938 11.9961 2.03125C11.9141 1.95313 11.7617 1.84766 11.6523 1.79688L11.457 1.70703C5.39453 1.69531 4.625 1.70312 4.50391 1.74219C4.41797 1.76953 4.29688 1.82031 4.23047 1.85156ZM1.87891 6.91797C1.83203 6.98438 1.78125 7.09766 1.76562 7.16797C1.75391 7.23437 1.75 7.91016 1.75781 8.66797C1.76953 9.96875 1.77344 10.0469 1.84766 10.1484C1.89062 10.2031 1.97656 10.2891 2.03516 10.3359L2.14453 10.418H13.8555C14.0234 10.2891 14.1094 10.2031 14.1523 10.1484C14.2266 10.0469 14.2305 9.98047 14.2305 8.5625C14.2305 7.11719 14.2305 7.08203 14.1484 6.97266C14.1016 6.91406 14.0156 6.82812 13.9609 6.78516C13.8555 6.70703 13.7852 6.70703 8.04688 6.69922C3.28125 6.69141 2.21484 6.69922 2.10547 6.74219C2.03125 6.76953 1.92969 6.84766 1.87891 6.91797ZM3.3125 11.9023C3.3125 12.0781 3.32812 12.1328 3.41016 12.2148C3.50391 12.3086 3.53125 12.3125 3.9375 12.3125C4.34766 12.3125 4.375 12.3086 4.46484 12.2148C4.54688 12.1367 4.5625 12.0781 4.5625 11.9023V11.6875H3.3125V11.9023ZM11.4375 11.9023C11.4375 12.0781 11.4531 12.1328 11.5352 12.2148C11.6289 12.3086 11.6562 12.3125 12.0625 12.3125C12.4727 12.3125 12.5 12.3086 12.5898 12.2148C12.6719 12.1367 12.6875 12.0781 12.6875 11.9023V11.6875H11.4375V11.9023ZM3.29297 7.62891C3.37891 7.625 3.53516 7.65625 3.64062 7.69141C3.77083 7.73828 3.88802 7.82161 3.99219 7.94141C4.08203 8.03906 4.17578 8.1875 4.19922 8.27344C4.22656 8.35547 4.25 8.48828 4.25 8.5625C4.25 8.63672 4.22656 8.76953 4.19922 8.85156C4.17578 8.9375 4.08203 9.08594 3.99219 9.18359C3.88802 9.30339 3.77083 9.38672 3.64062 9.43359C3.53516 9.46875 3.38672 9.5 3.3125 9.5C3.23828 9.5 3.10547 9.47656 3.01953 9.45312C2.92578 9.42188 2.78516 9.32812 2.66797 9.20703C2.54688 9.08984 2.45312 8.94922 2.42187 8.85547C2.39844 8.76953 2.375 8.63672 2.375 8.5625C2.375 8.48828 2.39844 8.35547 2.42187 8.26953C2.45312 8.17578 2.54688 8.03516 2.66797 7.91797C2.77344 7.80859 2.92578 7.69922 3 7.67578C3.07422 7.65234 3.20703 7.63281 3.29297 7.62891ZM12.668 7.62891C12.7539 7.625 12.9102 7.65625 13.0156 7.69141C13.1458 7.73828 13.263 7.82161 13.3672 7.94141C13.457 8.03906 13.5508 8.1875 13.5742 8.27344C13.6016 8.35547 13.625 8.48828 13.625 8.5625C13.625 8.63672 13.6016 8.76953 13.5742 8.85156C13.5508 8.9375 13.457 9.08594 13.3672 9.18359C13.263 9.30339 13.1458 9.38672 13.0156 9.43359C12.9102 9.46875 12.7617 9.5 12.6875 9.5C12.6133 9.5 12.4805 9.47656 12.3945 9.45312C12.3008 9.42188 12.1602 9.32812 12.043 9.20703C11.9219 9.08984 11.8281 8.94922 11.7969 8.85547C11.7734 8.76953 11.75 8.63672 11.75 8.5625C11.75 8.48828 11.7734 8.35547 11.7969 8.26953C11.8281 8.17578 11.9219 8.03516 12.043 7.91797C12.1484 7.80859 12.3008 7.69922 12.375 7.67578C12.4492 7.65234 12.582 7.63281 12.668 7.62891ZM8.04688 7.94922C10.0742 7.95703 10.1055 7.95703 10.2148 8.03906C10.2734 8.08594 10.3594 8.17188 10.4023 8.22656C10.4609 8.30469 10.4805 8.39453 10.4805 8.5625C10.4805 8.73438 10.4609 8.81641 10.3984 8.90234C10.3516 8.96094 10.2656 9.04688 10.2109 9.08984C10.1094 9.16406 10.0313 9.16797 8.08594 9.17969C6.85156 9.1875 6.01172 9.17578 5.92969 9.15234C5.85547 9.13281 5.73438 9.05078 5.66406 8.97656C5.58984 8.89453 5.52734 8.77734 5.51562 8.69141C5.50391 8.60938 5.50391 8.48437 5.51562 8.41797C5.52734 8.34766 5.58203 8.23438 5.62891 8.16797C5.67969 8.09766 5.78125 8.01953 5.85547 7.99219C5.96094 7.94922 6.40234 7.94141 8.04688 7.94922Z" fill="#222754"/>
</svg>
