<svg width="16" height="16" viewBox="0 0 16 16" fill="none" xmlns="http://www.w3.org/2000/svg">
<path fill-rule="evenodd" clip-rule="evenodd" d="M3.1375 0H12.8594L12.9906 0.109375C13.0813 0.18125 13.1344 0.259375 13.1562 0.3375C13.175 0.409375 13.1875 1.5375 13.1875 6.29688L14.525 6.96875C15.7937 7.60938 15.8625 7.64687 16 7.89062V11.7594C16 15.4625 15.9969 15.6312 15.9406 15.7437C15.9094 15.8062 15.8313 15.8906 15.6562 16H0.34375L0.23125 15.9312C0.16875 15.8906 0.090625 15.8062 0.059375 15.7437C0.003125 15.6312 0 15.4625 0 7.89062L0.071875 7.76562C0.1375 7.64687 0.20625 7.60938 2.8125 6.29688V3.375C2.8125 1.5375 2.825 0.409375 2.84375 0.3375C2.86562 0.259375 2.91875 0.18125 3.00625 0.109375L3.1375 0ZM3.75 9.10938L8 11.2344L12.25 9.10938V0.9375H3.75V9.10938ZM1.55625 8C1.55937 8.00937 1.8375 8.15312 2.17188 8.32187C2.50625 8.4875 2.7875 8.625 2.79688 8.625C2.80625 8.625 2.8125 8.34375 2.8125 8C2.8125 7.65625 2.80313 7.375 2.79063 7.37813C2.775 7.37813 2.49375 7.51562 2.15937 7.68125C1.825 7.84688 1.55313 7.99062 1.55625 8ZM13.2031 8.625C13.2125 8.625 13.4937 8.4875 13.8281 8.32187C14.1625 8.15312 14.4375 8.00937 14.4375 8C14.4375 7.99062 14.1625 7.84688 13.8281 7.68125C13.4937 7.5125 13.2125 7.375 13.2031 7.375C13.1938 7.375 13.1875 7.65625 13.1875 8C13.1875 8.34375 13.1938 8.625 13.2031 8.625ZM0.9375 15.0625H15.0625C15.0625 10.1938 15.0562 8.78125 15.0469 8.78125C15.0375 8.78125 13.4844 9.55625 11.5938 10.5C8.42813 12.0844 8.14375 12.2188 8 12.2188C7.85625 12.2188 7.57188 12.0844 4.40625 10.5C2.51562 9.55625 0.9625 8.78125 0.953125 8.78125C0.94375 8.78125 0.9375 10.1938 0.9375 11.9219V15.0625ZM8.20312 1.875C8.28438 1.875 8.36875 1.9 8.4375 1.94375C8.49687 1.98438 8.57187 2.06562 8.60312 2.125C8.6375 2.19375 8.65625 2.30625 8.65625 2.625H8.8375C8.95312 2.625 9.05313 2.64688 9.125 2.68438C9.19063 2.71875 9.2625 2.79688 9.30625 2.87812C9.36875 2.99062 9.375 3.04063 9.35625 3.15625C9.34062 3.25625 9.30313 3.32812 9.22188 3.40625C9.15938 3.47187 9.0625 3.52813 9 3.54063C8.94063 3.55313 8.71875 3.5625 8.50937 3.5625C8.29688 3.5625 8.09688 3.57812 8.0625 3.59375C8.02812 3.6125 7.9875 3.66875 7.96875 3.71875C7.95312 3.77187 7.94375 3.85 7.95312 3.9C7.9625 3.94688 7.99375 4.00938 8.025 4.04063C8.05937 4.075 8.1625 4.10625 8.30625 4.125C8.43125 4.14375 8.60938 4.19375 8.70625 4.24375C8.80937 4.29063 8.95 4.4 9.04375 4.5C9.14375 4.60625 9.23125 4.74062 9.275 4.85313C9.3125 4.95 9.35313 5.1125 9.3625 5.2125C9.375 5.3125 9.36563 5.47188 9.34375 5.57812C9.32187 5.68125 9.26875 5.8375 9.225 5.92188C9.18125 6.00938 9.08125 6.14062 9.00313 6.21875C8.92188 6.29688 8.8125 6.38125 8.65312 6.45312L8.65625 6.70312C8.65625 6.88125 8.64062 6.98438 8.60312 7.0625C8.57187 7.12187 8.49687 7.20312 8.4375 7.24375C8.36563 7.29063 8.28125 7.31563 8.1875 7.31563C8.09375 7.31563 8.0125 7.29063 7.9375 7.24375C7.87813 7.20312 7.80312 7.12187 7.775 7.0625C7.74062 6.99375 7.71875 6.88125 7.71875 6.57812L7.54063 6.55937C7.44063 6.55 7.3125 6.51562 7.25313 6.48125C7.19375 6.45 7.11563 6.37187 7.08125 6.3125C7.04688 6.25 7.01875 6.14687 7.02187 6.07812C7.02187 6.00938 7.05 5.90312 7.0875 5.84375C7.125 5.78438 7.18437 5.7125 7.225 5.6875C7.27812 5.65312 7.42813 5.6375 8.2875 5.60938L8.36563 5.51562C8.43125 5.4375 8.44375 5.4 8.42813 5.29688C8.41563 5.22813 8.39062 5.15312 8.36875 5.13125C8.34687 5.10938 8.21562 5.06875 8.07812 5.04375C7.94063 5.02187 7.75938 4.96563 7.67188 4.925C7.5875 4.88438 7.44688 4.78125 7.36562 4.69688C7.28125 4.61562 7.17812 4.47813 7.1375 4.39062C7.09687 4.30625 7.04688 4.14375 7.03125 4.03125C7.0125 3.89687 7.0125 3.75938 7.03438 3.625C7.05313 3.5125 7.10313 3.35313 7.14375 3.26562C7.1875 3.18125 7.275 3.05625 7.3375 2.99062C7.40313 2.925 7.5125 2.83437 7.71875 2.71875L7.72813 2.44688C7.73438 2.21563 7.74687 2.15625 7.80937 2.06562C7.85 2.00937 7.925 1.94375 7.98125 1.91875C8.03438 1.89688 8.13437 1.875 8.20312 1.875ZM8.225 8.475C10.0656 8.48438 10.0906 8.48438 10.1781 8.55C10.225 8.5875 10.2937 8.6625 10.3281 8.72188C10.3594 8.78125 10.3875 8.8875 10.3906 8.95938C10.3906 9.04375 10.3687 9.11875 10.325 9.17813C10.2906 9.225 10.2125 9.29688 10.0469 9.40938L8.20312 9.40625C6.5125 9.40625 6.35 9.40313 6.25 9.35C6.19063 9.32188 6.10938 9.24687 6.07188 9.1875C6.02187 9.11563 6 9.03125 6 8.9375C6 8.84062 6.02187 8.76562 6.07188 8.69375C6.1125 8.63438 6.19375 8.55937 6.25313 8.52812C6.35625 8.46875 6.43438 8.46875 8.225 8.475Z" fill="#222754"/>
</svg>
