<svg width="18" height="18" viewBox="0 0 18 18" fill="none" xmlns="http://www.w3.org/2000/svg">
<path fill-rule="evenodd" clip-rule="evenodd" d="M11.5 1.8125C11.5977 1.8125 11.7539 1.83984 11.8516 1.875C11.9492 1.91016 12.0703 1.96094 12.125 1.98828C12.1797 2.01562 12.2891 2.10547 12.3711 2.19141C12.457 2.27344 12.5703 2.42578 12.625 2.53516C12.7109 2.69922 12.7266 2.78125 12.7305 3.0625C12.7305 3.34375 12.7148 3.42578 12.625 3.60938C12.5703 3.72656 12.4492 3.89063 12.3633 3.97266C12.2734 4.05078 12.1289 4.15625 12.0391 4.20312C11.9258 4.25781 11.7734 4.29297 11.5781 4.30469C11.3477 4.31641 11.2383 4.30469 11.0703 4.23828C10.9531 4.19531 10.7773 4.09375 10.6836 4.01172C10.582 3.92188 10.4688 3.76562 10.3945 3.60938C10.293 3.39844 10.2695 3.30859 10.2695 3.08203C10.2695 2.90625 10.293 2.74609 10.3398 2.63281C10.3789 2.53516 10.457 2.39844 10.5078 2.32812C10.5586 2.26172 10.6602 2.16016 10.7305 2.10547C10.7969 2.05469 10.9609 1.96484 11.0898 1.91016C11.2227 1.85938 11.4023 1.8125 11.5 1.8125ZM3.98047 9.64453C4.22266 9.65234 4.53516 9.69141 4.70313 9.73437C4.86328 9.77734 5.12109 9.86328 5.26953 9.92578C5.41797 9.98828 5.67578 10.125 5.83594 10.2305C5.99609 10.3359 6.24219 10.5391 6.38281 10.6797C6.52344 10.8203 6.71875 11.0469 6.8125 11.1875C6.90625 11.3281 7.03906 11.5625 7.10938 11.7148C7.17969 11.8672 7.27344 12.1211 7.32031 12.2812C7.375 12.4766 7.41016 12.7344 7.42578 13.0625C7.44141 13.457 7.42969 13.6211 7.36719 13.9219C7.32813 14.125 7.23828 14.4258 7.17188 14.5859C7.10156 14.7461 6.95703 15.0195 6.84375 15.1914C6.73047 15.3633 6.52344 15.6172 6.38281 15.7578C6.24219 15.8984 6.03125 16.0742 5.91406 16.1523C5.79688 16.2344 5.57422 16.3594 5.42578 16.4336C5.27734 16.5078 5.05469 16.5977 4.9375 16.6328C4.82031 16.668 4.59766 16.7227 4.44922 16.7539C4.30078 16.7852 4.02734 16.8125 3.84375 16.8125C3.66016 16.8125 3.38672 16.7852 3.23828 16.75C3.08984 16.7188 2.83203 16.6445 2.67188 16.5898C2.51172 16.5391 2.25391 16.4258 2.10547 16.3398C1.95703 16.2539 1.70313 16.0781 1.54297 15.9414C1.38281 15.8086 1.15625 15.5781 1.04297 15.4258C0.929688 15.2734 0.773438 15.0391 0.699219 14.8984C0.628906 14.7578 0.53125 14.5391 0.484375 14.4102C0.4375 14.2812 0.367188 14 0.324219 13.7852C0.285156 13.5703 0.25 13.3047 0.25 13.1992C0.25 13.0898 0.285156 12.8359 0.324219 12.6328C0.367188 12.4297 0.429688 12.1719 0.464844 12.0664C0.503906 11.957 0.59375 11.75 0.667969 11.5977C0.742188 11.4453 0.894531 11.2031 1.00391 11.0547C1.11719 10.9062 1.30469 10.6953 1.42188 10.5898C1.53906 10.4844 1.73438 10.3281 1.85156 10.25C1.96875 10.1719 2.15625 10.0586 2.26172 10.0078C2.37109 9.95312 2.57031 9.87109 2.71094 9.82422C2.85156 9.77734 3.09766 9.71484 3.25781 9.68359C3.44531 9.64844 3.70313 9.63281 3.98047 9.64453ZM3.0625 11.0195C2.96484 11.0547 2.82422 11.1211 2.75 11.1602C2.67578 11.1992 2.51953 11.3086 2.40234 11.3945C2.28906 11.4844 2.12109 11.6445 2.03516 11.7539C1.94922 11.8594 1.82422 12.0703 1.75391 12.2227C1.68359 12.375 1.60547 12.5938 1.57813 12.7109C1.54688 12.8477 1.53516 13.0781 1.55078 13.3359C1.5625 13.6016 1.59766 13.8281 1.65234 13.9805C1.69531 14.1094 1.80469 14.3281 1.89453 14.4688C1.98438 14.6094 2.15625 14.8164 2.27734 14.9297C2.39844 15.043 2.60938 15.1953 2.75 15.2656C2.89063 15.3398 3.10938 15.4297 3.23828 15.4688C3.39453 15.5156 3.60286 15.5391 3.86328 15.5391C4.15625 15.5391 4.32031 15.5195 4.52734 15.4531C4.67969 15.4062 4.91406 15.3047 5.05078 15.2227C5.1875 15.1406 5.41406 14.9531 5.55859 14.8008C5.71094 14.6406 5.86719 14.4219 5.94141 14.2734C6.00781 14.1328 6.08984 13.9141 6.125 13.7852C6.16016 13.6562 6.1875 13.4141 6.1875 13.2461C6.1875 13.082 6.16016 12.8281 6.12891 12.6797C6.09375 12.5352 6.01172 12.3086 5.94141 12.1719C5.87109 12.0352 5.74609 11.8398 5.66016 11.7383C5.57422 11.6367 5.42578 11.4883 5.32813 11.4062C5.23047 11.3281 5.02734 11.2031 4.87891 11.125C4.73047 11.0508 4.48047 10.9648 4.33203 10.9336C4.18359 10.9023 3.95313 10.8789 3.82422 10.8789C3.69531 10.8828 3.51172 10.8984 3.41406 10.918C3.31641 10.9375 3.16016 10.9844 3.0625 11.0195ZM14.293 9.64453C14.5508 9.65625 14.8477 9.69531 15.0352 9.74219C15.207 9.78906 15.4883 9.89062 15.6602 9.96875C15.832 10.0508 16.0508 10.1719 16.1484 10.2383C16.2461 10.3008 16.4375 10.4609 16.5742 10.5859C16.7109 10.7109 16.8984 10.9141 16.9883 11.0312C17.082 11.1484 17.2266 11.3789 17.3125 11.5391C17.3984 11.6992 17.5117 11.9727 17.5664 12.1445C17.6211 12.3164 17.6836 12.5977 17.7109 12.7695C17.7422 12.9648 17.75 13.2109 17.7305 13.4336C17.7148 13.625 17.668 13.918 17.6289 14.0781C17.5859 14.2383 17.4961 14.5039 17.4258 14.6641C17.3555 14.8242 17.2305 15.0625 17.1445 15.1914C17.0586 15.3203 16.8906 15.5273 16.7734 15.6562C16.6563 15.7812 16.4609 15.9609 16.3438 16.0508C16.2266 16.1406 16.0156 16.2812 15.875 16.3555C15.7344 16.4336 15.5156 16.5352 15.3867 16.5781C15.2578 16.625 15.0078 16.6953 14.832 16.7383C14.6289 16.7852 14.3711 16.8125 14.1484 16.8125C13.8906 16.8125 13.6641 16.7812 13.375 16.7109C13.1484 16.6562 12.8438 16.5547 12.6914 16.4844C12.5391 16.4141 12.3164 16.293 12.1953 16.2148C12.0703 16.1367 11.8438 15.9531 11.6914 15.8086C11.5352 15.6602 11.3359 15.4375 11.2422 15.3086C11.1523 15.1797 11.0039 14.9258 10.918 14.7422C10.832 14.5586 10.7227 14.2695 10.6758 14.0977C10.6094 13.8516 10.5898 13.6719 10.5898 13.2383C10.5859 12.8359 10.6055 12.6172 10.6523 12.418C10.6914 12.2656 10.7695 12.0312 10.8242 11.8906C10.8828 11.75 11 11.5156 11.0859 11.3672C11.1758 11.2188 11.3867 10.9492 11.5586 10.7656C11.7305 10.582 11.9688 10.3672 12.0859 10.2891C12.2031 10.207 12.4219 10.082 12.5742 10.0039C12.7266 9.92969 12.9688 9.83203 13.1211 9.78516C13.2734 9.73828 13.5 9.6875 13.6289 9.66406C13.7578 9.64453 14.0547 9.63672 14.293 9.64453ZM13.1016 11.1328C12.8867 11.2383 12.7266 11.3594 12.5117 11.5742C12.2969 11.7891 12.1758 11.9492 12.0703 12.1641C11.9922 12.3242 11.9023 12.5781 11.8711 12.7305C11.8398 12.8828 11.8125 13.1016 11.8125 13.2188C11.8125 13.3359 11.8398 13.5547 11.8711 13.707C11.9023 13.8594 11.9922 14.1133 12.0742 14.2734C12.1797 14.4883 12.2969 14.6484 12.5117 14.8594C12.7266 15.0742 12.8906 15.1953 13.1016 15.2969C13.2656 15.3789 13.5391 15.4688 13.7266 15.5078C13.9609 15.5547 14.1406 15.5664 14.332 15.5469C14.4844 15.5312 14.7344 15.4766 14.8906 15.4258C15.043 15.3711 15.2813 15.2578 15.418 15.1758C15.5508 15.0898 15.7344 14.9414 15.8281 14.8438C15.918 14.7461 16.0547 14.5664 16.1289 14.4492C16.2031 14.332 16.3086 14.1055 16.3594 13.9492C16.4141 13.7969 16.4688 13.5469 16.4805 13.3945C16.4961 13.2344 16.4883 13.0156 16.4609 12.8672C16.4375 12.7266 16.3711 12.5 16.3164 12.3594C16.2617 12.2188 16.1484 12.0078 16.0703 11.8906C15.9922 11.7734 15.8242 11.582 15.6953 11.4688C15.5703 11.3555 15.3438 11.2031 15.1914 11.1289C15.0391 11.0547 14.7969 10.9688 14.6445 10.9336C14.4922 10.9023 14.2656 10.8789 14.1367 10.8789C14.0078 10.8789 13.7891 10.9062 13.6484 10.9375C13.5078 10.9648 13.2617 11.0547 13.1016 11.1328ZM9.70313 4.02734C9.77734 4.03906 9.88672 4.07031 9.94922 4.10156C10.0078 4.13281 10.0859 4.20312 10.125 4.26562C10.168 4.32422 10.5039 4.92188 11.5586 6.8125H12.5156C13.4336 6.8125 13.4805 6.81641 13.6484 6.89844C13.7773 6.96484 13.8477 7.03516 13.9141 7.16406C13.9844 7.29688 14 7.38281 13.9844 7.51562C13.9727 7.61328 13.9336 7.73438 13.8906 7.78906C13.8477 7.84375 13.7656 7.92188 13.7109 7.96484C13.6094 8.03906 13.5313 8.04297 12.3867 8.05469C11.7148 8.0625 11.1094 8.05859 11.0391 8.04688C10.9727 8.03125 10.8672 7.98047 10.8086 7.93359C10.7461 7.88281 10.4375 7.36328 10.1133 6.78125C9.79297 6.19922 9.51953 5.71875 9.50781 5.71875C9.49609 5.71875 9.03906 6.21094 8.49219 6.81641C7.94531 7.41797 7.49219 7.92578 7.48828 7.9375C7.48438 7.95312 7.91016 8.24609 8.4375 8.58984C8.96484 8.93359 9.42969 9.25 9.46875 9.29297C9.50781 9.33594 9.55859 9.41797 9.58203 9.48047C9.60938 9.55078 9.625 10.2031 9.625 11.3828C9.625 12.7773 9.61328 13.207 9.57422 13.3086C9.54688 13.375 9.45313 13.4844 9.36719 13.5508C9.27344 13.6211 9.15625 13.6719 9.05859 13.6797C8.94922 13.6875 8.84766 13.6641 8.72656 13.6016C8.59766 13.5352 8.52734 13.4648 8.46094 13.3359C8.375 13.1641 8.375 13.1406 8.375 10.0352L7.21484 9.27344C6.57813 8.85547 6.03516 8.47656 6.00391 8.43359C5.97656 8.39062 5.93359 8.28906 5.91406 8.21094C5.89063 8.11719 5.88672 8.00781 5.91016 7.91797C5.94141 7.80078 6.28516 7.39453 7.57813 5.97266C8.47656 4.98438 9.24609 4.15234 9.28906 4.12109C9.33594 4.08984 9.41406 4.05078 9.46875 4.03516C9.52344 4.01953 9.62891 4.01562 9.70313 4.02734Z" fill="#222754"/>
</svg>
