<svg width="18" height="18" viewBox="0 0 18 18" fill="none" xmlns="http://www.w3.org/2000/svg">
<g clip-path="url(#clip0_2455_425)">
<path fill-rule="evenodd" clip-rule="evenodd" d="M8.98242 0.00427795C9.19336 0.000762325 9.31992 0.0218561 9.49219 0.0816217C9.61875 0.127325 9.79102 0.2117 9.87891 0.271465C9.9668 0.327715 10.1004 0.447247 10.1777 0.535137C10.2551 0.619512 10.3605 0.781231 10.4168 0.890215C10.4695 0.9992 10.5293 1.19607 10.5539 1.32967C10.5855 1.51248 10.5855 1.62147 10.5539 1.82186C10.5293 1.95897 10.4695 2.16639 10.4168 2.27889C10.35 2.41951 10.2305 2.57068 10.016 2.77811C9.84727 2.94334 9.67852 3.14373 9.5625 3.37576L12.6316 4.91561C15.6023 6.40623 15.7008 6.45545 15.7746 6.59256C15.852 6.72967 15.8555 6.75779 15.8555 7.90389C15.8555 9.00076 15.852 9.07811 15.7852 9.2117C15.7383 9.30545 15.668 9.37576 15.5742 9.42264C15.4441 9.48592 15.3633 9.49295 13.7461 9.49295V13.5359C13.7461 17.4031 13.7426 17.5859 13.6793 17.7125C13.6441 17.7828 13.5562 17.8777 13.3594 18.0008H4.64062L4.51406 17.9234C4.44375 17.8777 4.35586 17.7828 4.3207 17.7125C4.25742 17.5859 4.25391 17.4031 4.25391 9.49295H3.41016C2.63672 9.49295 2.55586 9.48592 2.42578 9.42264C2.33203 9.37576 2.26172 9.30545 2.21484 9.2117C2.14805 9.07811 2.14453 9.00076 2.14453 7.90389C2.14453 6.75779 2.14805 6.72967 2.22539 6.59256C2.29922 6.45545 2.39766 6.40272 8.49023 3.34764L8.54648 3.14373C8.57812 3.02772 8.6625 2.82029 8.73984 2.67615C8.8418 2.48631 8.94727 2.3492 9.14414 2.16639C9.2918 2.02928 9.43945 1.87107 9.47109 1.81131C9.50273 1.75506 9.52734 1.65311 9.52734 1.59334C9.52734 1.53006 9.4957 1.41404 9.45703 1.3367C9.41016 1.24295 9.33984 1.17264 9.24609 1.12576C9.16875 1.08709 9.05273 1.05545 8.99297 1.05545C8.92969 1.05897 8.81719 1.09412 8.73984 1.13631C8.6625 1.18201 8.57812 1.2699 8.53945 1.34725C8.5043 1.41756 8.47266 1.52654 8.47266 1.58279C8.47266 1.64256 8.44102 1.75154 8.40234 1.82889C8.35547 1.92264 8.28516 1.99295 8.19141 2.03982C8.11406 2.0785 8.00508 2.11014 7.94531 2.11014C7.88906 2.11014 7.77656 2.0785 7.69922 2.03982C7.60547 1.99295 7.53516 1.92264 7.48828 1.82889C7.44961 1.75154 7.41797 1.63201 7.41797 1.56522C7.41797 1.49842 7.43555 1.35779 7.45664 1.25936C7.47773 1.1574 7.5375 0.985137 7.58672 0.879669C7.63945 0.767169 7.76602 0.598419 7.88906 0.475372C8.00859 0.35584 8.1668 0.232794 8.24414 0.194122C8.32148 0.158965 8.45508 0.102715 8.54297 0.0675592C8.64141 0.0288873 8.80664 0.00779358 8.98242 0.00427795ZM7.40391 5.08084C7.41445 5.74881 7.43555 6.02654 7.45664 6.1285C7.47773 6.22693 7.5375 6.3992 7.58672 6.50467C7.63945 6.61717 7.76602 6.78943 7.88906 6.91248C8.01914 7.03904 8.18438 7.16209 8.30742 7.21834C8.41641 7.27107 8.61328 7.33084 8.74688 7.35545C8.9332 7.39061 9.03867 7.38709 9.24609 7.35193C9.40781 7.32732 9.59062 7.26756 9.71719 7.19725C9.82969 7.13397 10.0055 6.99686 10.1074 6.89139C10.2094 6.78592 10.3324 6.61014 10.3852 6.50467C10.4344 6.3992 10.4977 6.21639 10.5293 6.10037C10.5609 5.97029 10.582 5.73826 10.582 5.48514V5.08084C9.35508 4.46912 8.99648 4.28982 8.99297 4.29334C8.98594 4.29334 8.62734 4.46912 8.19141 4.68709L7.40391 5.08084ZM3.18516 7.19022L3.20273 8.43826C4.81992 8.43826 4.90078 8.44529 5.03086 8.50857C5.12461 8.55545 5.19492 8.62576 5.2418 8.71951C5.30859 8.85662 5.31211 8.93045 5.31211 12.9031V16.9461H12.6949C12.6949 8.93045 12.6949 8.85662 12.7652 8.71951C12.8121 8.62576 12.8824 8.55545 12.9762 8.50857C13.1027 8.44529 13.1871 8.43826 13.9605 8.43826H14.8043V7.19022C12.3785 5.97732 11.6648 5.62576 11.6578 5.62576C11.6473 5.62576 11.6402 5.69607 11.6402 5.78397C11.6402 5.87186 11.6156 6.05818 11.5875 6.19881C11.5594 6.33943 11.5031 6.54686 11.4645 6.66287C11.4223 6.77889 11.3414 6.9617 11.2816 7.06717C11.2219 7.17264 11.0918 7.36248 10.9898 7.48904C10.8914 7.61561 10.7051 7.7949 10.582 7.88982C10.4555 7.98475 10.2691 8.10428 10.1637 8.15701C10.0547 8.21326 9.85078 8.29412 9.70664 8.33982C9.48867 8.40662 9.36563 8.42068 9.02109 8.42068C8.78203 8.42068 8.51484 8.39959 8.40586 8.37147C8.29688 8.34686 8.11758 8.28358 8.00156 8.23787C7.88555 8.18865 7.68516 8.08318 7.56211 8.00233C7.43555 7.91795 7.2457 7.76678 7.14375 7.66131C7.03828 7.55584 6.89062 7.37654 6.80977 7.26053C6.73242 7.14451 6.62344 6.94764 6.5707 6.82107C6.51797 6.69451 6.45117 6.46951 6.41953 6.32186C6.39141 6.17068 6.3668 5.95272 6.3668 5.8367C6.3668 5.72068 6.35273 5.62576 6.33867 5.62928C6.32461 5.62928 5.60742 5.98084 4.74961 6.40975L3.18516 7.19022Z" fill="#222754"/>
</g>
<defs>
<clipPath id="clip0_2455_425">
<rect width="18" height="18" fill="white"/>
</clipPath>
</defs>
</svg>
