<svg width="206" height="29" viewBox="0 0 206 29" fill="none" xmlns="http://www.w3.org/2000/svg">
<path d="M117.402 12.0491C116.006 13.9372 114.203 13.8426 112.187 13.2653C112.057 13.2277 111.942 13.1516 111.855 13.047C111.769 12.9423 111.717 12.8139 111.704 12.6785L111.553 10.8945C111.545 10.8097 111.518 10.728 111.473 10.6564C111.427 10.5847 111.366 10.5252 111.292 10.4828C110.939 10.2778 110.557 10.1453 110.147 10.0853C110.029 10.0669 109.918 10.0166 109.826 9.93983C109.734 9.86308 109.665 9.76285 109.627 9.64998L109.31 8.68937C109.227 8.45182 109.058 8.25411 108.837 8.13572C107.086 7.20824 105.677 5.78547 104.611 3.86741C104.485 3.64027 104.526 3.44941 104.734 3.29483C108.046 0.819967 103.603 -1.5082 103.111 1.24112C102.841 2.75065 101.355 2.83109 100.835 4.19392C100.442 5.23497 100.754 6.53629 100.754 7.62939C100.754 7.7813 100.709 7.92977 100.624 8.05551C100.539 8.18126 100.417 8.27845 100.276 8.33447C99.2951 8.72881 98.8093 9.47174 98.8187 10.5633C98.8219 10.7683 98.732 10.9182 98.549 11.0128C97.2398 11.6911 96.224 12.658 95.5016 13.9136C95.4069 14.0808 95.265 14.1738 95.0757 14.1927C92.3926 14.4672 89.5487 13.6628 88.5123 10.8898C88.4874 10.8219 88.4875 10.7473 88.5126 10.6789C88.5377 10.6106 88.5862 10.5529 88.6496 10.5159L90.5708 9.42757C90.7096 9.3487 90.8579 9.30454 91.0156 9.29507L91.5314 9.26195C91.7932 9.24618 91.9494 9.10895 91.9999 8.85026C92.1607 7.97483 91.6544 7.28868 90.779 7.29815C89.0376 7.31708 88.0864 6.21451 86.17 6.96217C86.0122 7.02211 85.9034 7.13252 85.8435 7.29341C85.446 8.37232 84.9601 9.39603 84.386 10.3645C83.3307 12.1485 80.8228 11.8598 79.512 10.568C79.3669 10.4229 79.2848 10.2478 79.2659 10.0427C79.1949 9.20517 79.176 7.4685 77.9031 7.67671C77.8608 7.68338 77.8176 7.68117 77.7763 7.67021C77.735 7.65925 77.6964 7.63979 77.663 7.61308C77.6296 7.58636 77.6021 7.55296 77.5823 7.51503C77.5626 7.4771 77.5509 7.43547 77.5482 7.39279C77.4583 5.94951 76.4882 5.77916 75.3572 6.18612C75.1711 6.25236 74.9913 6.24132 74.8178 6.15299C74.3793 5.93532 73.8982 5.84225 73.3745 5.8738C73.2199 5.88326 73.1127 5.81701 73.0527 5.67505C72.977 5.48893 72.9439 5.29176 72.9533 5.08355C72.9628 4.82802 72.8414 4.72233 72.589 4.7665L72.3571 4.80909C72.2702 4.82515 72.1923 4.87261 72.1382 4.94243C72.0841 5.01225 72.0576 5.09953 72.0637 5.18765C72.0763 5.39586 72.1331 5.58988 72.2341 5.7697C72.3098 5.9085 72.3224 6.05362 72.2719 6.20504C72.0637 6.81706 71.7009 7.0158 71.1836 6.80128C71.0845 6.76077 70.9783 6.74033 70.8711 6.74114C70.7639 6.74196 70.6578 6.764 70.5589 6.80601C69.4453 7.2666 68.3286 7.34862 67.2086 7.05208C67.0871 7.01953 66.9596 7.01528 66.8362 7.03966C66.7127 7.06404 66.5965 7.11639 66.4964 7.19271C66.3963 7.26902 66.3151 7.36726 66.2589 7.47987C66.2027 7.59249 66.1731 7.71649 66.1723 7.84233L66.1676 9.16258C66.1676 9.33609 66.084 9.44492 65.9168 9.48909C65.0524 9.72254 64.2543 10.2793 63.5224 11.1595C63.3991 11.3072 63.2321 11.413 63.0444 11.4624C60.4071 12.1343 57.7871 11.6359 55.1845 9.96703C54.9794 9.83453 54.9384 9.6626 55.0614 9.45123C55.216 9.18624 55.4085 8.95752 55.6388 8.76508C56.7208 7.86284 56.5647 7.30919 55.1703 7.10414C54.1292 6.95271 52.5582 6.64986 51.5739 7.01896C51.4182 7.07693 51.2874 7.18926 51.2048 7.336C50.5487 8.51271 50.0975 9.65313 49.8515 10.7573C49.5912 11.9072 48.4744 11.9687 47.6321 11.415C46.2362 10.4923 44.7077 9.39918 42.99 9.26668C42.1319 9.20359 41.2896 9.00169 40.4631 8.66098C38.9961 8.06001 37.4771 9.23356 36.2799 9.93863C35.7468 10.2478 35.1711 10.5096 34.5527 10.7242C33.8997 10.9513 33.2703 11.3677 32.6646 11.9734C30.8428 13.8047 31.6141 15.9105 32.1678 18.0304C32.5321 19.4075 31.4343 20.51 30.5163 21.376C30.3865 21.5003 30.2932 21.6577 30.2465 21.8312C30.1997 22.0047 30.2014 22.1877 30.2513 22.3603C30.8712 24.4755 31.6283 26.2358 31.6756 28.5782C31.6819 28.8905 31.8397 29.0183 32.1488 28.9615L33.1473 28.7817C33.1935 28.7732 33.2369 28.7537 33.2739 28.7247C33.3108 28.6957 33.3401 28.6581 33.3592 28.6152C33.3783 28.5723 33.3867 28.5254 33.3836 28.4785C33.3805 28.4317 33.366 28.3863 33.3413 28.3463C32.3855 26.7974 31.8381 25.0276 31.6993 23.037C31.6867 22.8634 31.7356 22.7104 31.846 22.578C32.3791 21.9375 32.9927 21.3949 33.6868 20.9501C33.9044 20.8113 34.0101 20.8713 34.0038 21.1299L33.9423 23.0275C33.9363 23.1411 33.9678 23.254 34.0322 23.3493C34.8556 24.5796 35.425 25.9219 35.7405 27.3763C35.7973 27.6349 35.9534 27.7974 36.209 27.8637C36.5654 27.9551 36.9298 27.9031 37.3021 27.7075C37.504 27.6002 37.5308 27.4599 37.3825 27.2863C35.7421 25.3588 34.9786 22.9928 35.0922 20.1883C35.0967 20.0893 35.1208 19.9923 35.1631 19.9029C35.2053 19.8136 35.2649 19.7336 35.3383 19.6677C36.2531 18.8444 36.6317 17.797 36.4739 16.5257C36.4671 16.4644 36.4767 16.4025 36.5019 16.3462C36.527 16.29 36.5668 16.2415 36.617 16.2057C36.6672 16.17 36.726 16.1484 36.7874 16.1431C36.8488 16.1377 36.9105 16.1489 36.9661 16.1755C38.8589 17.0935 40.6476 18.0115 42.8007 18.2718C43.0058 18.297 43.1383 18.409 43.1982 18.6078C43.4506 19.4753 43.8165 20.3113 44.296 21.1157C44.7124 21.8114 44.7834 22.7767 44.4049 23.4865C43.8875 24.4582 43.2376 25.0765 42.4553 25.3415C42.1745 25.4393 42.0341 25.6364 42.0341 25.933L42.0436 27.5419C42.0436 28.0813 42.2392 28.1649 42.6303 27.7927C43.5831 26.8747 44.4033 25.8541 45.091 24.731C45.1148 24.6922 45.1483 24.6603 45.1882 24.6385C45.2281 24.6167 45.273 24.6057 45.3185 24.6066C45.364 24.6076 45.4084 24.6205 45.4474 24.644C45.4864 24.6674 45.5185 24.7007 45.5406 24.7405C45.9381 25.4377 46.1084 26.2484 46.0516 27.1728C46.0437 27.2983 46.0851 27.422 46.1671 27.5181C46.2491 27.6143 46.3654 27.6753 46.4917 27.6886C46.8387 27.7233 47.1794 27.7296 47.5138 27.7075C48.5896 27.6412 48.6842 27.299 47.7977 26.6806C46.9681 26.1033 46.5296 25.2705 46.4822 24.1821C46.4002 22.3082 46.222 20.4296 45.9475 18.5462C45.6589 16.5682 47.2488 15.8868 48.8814 15.8821C50.5092 15.8821 52.156 14.8316 53.2869 13.729C54.1292 12.9104 54.186 11.6043 54.4274 10.4781C54.4415 10.411 54.4718 10.3483 54.5157 10.2956C54.5596 10.2428 54.6157 10.2016 54.6791 10.1755C54.7425 10.1494 54.8114 10.1392 54.8797 10.1457C54.948 10.1523 55.0136 10.1754 55.0709 10.2131C57.3423 11.7147 59.9165 12.2289 62.7936 11.7557C62.8159 11.752 62.8388 11.7541 62.86 11.7617C62.8812 11.7693 62.9 11.7822 62.9144 11.799C62.9288 11.8159 62.9384 11.8361 62.9421 11.8575C62.9458 11.879 62.9436 11.9011 62.9356 11.9214C62.5665 12.9183 62.2494 13.8883 61.9844 14.8316C61.5112 16.5162 60.5932 17.95 59.2304 19.133C58.5584 19.7151 57.9764 20.2782 57.9101 21.2293C57.7398 23.5859 57.2256 25.6396 56.3675 27.3904C56.1498 27.8353 56.2823 28.1113 56.765 28.2186C57.2098 28.3132 57.5836 28.2249 57.8865 27.9536C58.0127 27.8368 58.0773 27.6933 58.0805 27.5229C58.1089 24.6979 59.1783 22.3697 61.2084 20.4438C62.0665 19.6299 62.8394 18.7387 63.5271 17.7702C63.7637 17.4389 63.8946 17.4768 63.9199 17.8838C64.0177 19.3602 64.076 20.7593 64.0949 22.0811C64.1091 22.8193 64.3741 23.5764 64.8615 24.1395C65.5524 24.9345 67.0525 27.116 66.6692 28.2659C66.6334 28.3711 66.6412 28.4864 66.6909 28.5866C66.7405 28.6868 66.828 28.7637 66.9342 28.8006C67.3727 28.9583 67.8348 29.0104 68.3207 28.9568C68.4109 28.9461 68.4967 28.912 68.5697 28.8579C68.6427 28.8037 68.7002 28.7314 68.7366 28.6482C68.7729 28.5649 68.7869 28.4736 68.777 28.3833C68.7671 28.293 68.7338 28.2068 68.6803 28.1334C66.7165 25.455 65.5619 22.1568 66.9768 19.0857C67.2843 18.4185 67.3033 17.6046 67.431 16.89C67.4492 16.7922 67.4866 16.699 67.541 16.6157C67.5954 16.5324 67.6658 16.4608 67.7481 16.4049C67.8304 16.349 67.9229 16.31 68.0204 16.2901C68.1179 16.2702 68.2183 16.2699 68.3159 16.289C70.1204 16.6455 71.9076 17.1676 73.6773 17.8554C73.8256 17.9153 73.8982 18.0241 73.895 18.1819C73.8603 19.286 73.6931 20.3555 73.3934 21.3902C73.2231 21.9707 73.1836 22.5685 73.2751 23.1837C73.4297 24.2247 73.1963 25.3888 72.5748 26.6759C72.5167 26.7947 72.5049 26.9329 72.5417 27.0639L72.8776 28.1996C72.9098 28.3066 72.9735 28.4014 73.0605 28.4715C73.1475 28.5416 73.2536 28.5837 73.365 28.5924L74.7894 28.7107C75.0765 28.7328 75.1427 28.6224 74.9881 28.3794C74.1868 27.1396 73.9707 25.7626 74.3398 24.2484C74.7215 22.6836 75.2531 21.2009 75.9345 19.8002C76.1932 19.2639 76.6033 18.8491 77.1649 18.5557C77.3194 18.4768 77.4535 18.5021 77.5671 18.6314C78.8037 20.0353 79.7218 21.2861 80.3212 22.3839C81.2644 24.1096 82.1272 26.1333 82.9096 28.4552C82.9885 28.6918 83.1525 28.8116 83.4017 28.8148L84.8261 28.829C84.8931 28.8291 84.9586 28.8089 85.0139 28.771C85.0692 28.7332 85.1117 28.6794 85.1358 28.6168C85.1599 28.5543 85.1645 28.4859 85.1489 28.4207C85.1333 28.3555 85.0983 28.2966 85.0485 28.2517C83.2456 26.657 82.7865 24.6459 82.3417 22.3887C81.9679 20.4769 80.0372 18.8964 80.0183 16.9231C80.0168 16.8445 80.0326 16.7664 80.0645 16.6945C80.0963 16.6226 80.1436 16.5585 80.2029 16.5067C80.7549 16.0209 81.4237 15.7401 82.2092 15.6644C84.6273 15.4278 87.6274 14.4341 88.2048 11.874C88.3215 11.3661 88.4855 11.3504 88.6969 11.8267C89.7569 14.1786 92.809 14.6518 95.1088 14.3631C95.1468 14.3589 95.1853 14.3639 95.2209 14.3778C95.2566 14.3917 95.2883 14.414 95.3134 14.4429C95.3386 14.4717 95.3563 14.5062 95.3652 14.5434C95.374 14.5806 95.3738 14.6194 95.3644 14.6565C94.9101 16.3569 94.2192 18.1298 93.2917 19.9753C92.88 20.794 91.8863 21.2766 91.8626 22.2325C91.8153 24.0733 91.4793 25.9424 91.626 27.6791C91.6544 28.0009 91.8295 28.1775 92.1513 28.2091C92.5046 28.2438 92.8485 28.2122 93.1829 28.1145C93.2924 28.0814 93.3851 28.0074 93.4415 27.9078C93.4979 27.8082 93.5137 27.6907 93.4857 27.5797C93.0882 25.9661 92.7901 23.5196 93.8927 22.0953C94.7255 21.0195 95.5237 19.999 96.2871 19.0336C96.8108 18.3743 97.2304 18.4343 97.5458 19.2135C98.0758 20.5242 98.0853 22.0006 98.1137 23.4439C98.1168 23.6427 98.1799 23.8193 98.303 23.9739L100.522 26.7185C100.601 26.8195 100.648 26.9314 100.664 27.0545L100.82 28.1665C100.855 28.4189 101 28.5498 101.256 28.5593L102.349 28.5971C102.433 28.6006 102.516 28.5809 102.589 28.5402C102.662 28.4995 102.722 28.4393 102.764 28.3663C102.805 28.2934 102.825 28.2105 102.822 28.1268C102.819 28.0431 102.793 27.9618 102.746 27.892L100.04 23.7799C99.8627 23.5088 99.792 23.1803 99.8409 22.8571L100.437 18.9248C100.456 18.8012 100.5 18.6828 100.567 18.5774C100.634 18.4721 100.723 18.3821 100.827 18.3133C100.931 18.2445 101.048 18.1986 101.171 18.1784C101.294 18.1582 101.419 18.1642 101.54 18.1961C103.309 18.663 105.142 18.8286 107.038 18.6929C107.091 18.6897 107.144 18.6982 107.194 18.7179C107.243 18.7376 107.288 18.768 107.324 18.8069C107.36 18.8459 107.387 18.8923 107.403 18.943C107.419 18.9936 107.424 19.0472 107.417 19.0999C107.193 20.5984 107.032 22.1205 106.934 23.6663C106.844 25.0954 107.961 26.0797 107.611 27.5371C107.491 28.0293 107.677 28.3321 108.169 28.4457L110.01 28.8763C110.266 28.9331 110.441 28.8416 110.535 28.6019C110.996 27.4346 111.616 26.31 112.395 25.2279C112.925 24.4929 113.193 23.6947 113.199 22.8335C113.204 21.7688 112.329 20.9691 111.813 20.0984C111.539 19.6378 111.318 19.1693 111.15 18.6929C111.081 18.5068 111.113 18.338 111.245 18.1866C111.551 17.8364 111.876 17.5225 112.22 17.2449C113.067 16.554 114.203 16.9894 115.192 16.9421C117.416 16.838 119.124 14.7843 120.652 13.2842C120.761 13.1785 120.894 13.1021 121.04 13.0624C121.186 13.0226 121.339 13.0208 121.485 13.0571C122.23 13.24 122.992 13.3441 123.771 13.3694C124.083 13.3788 124.085 13.3568 123.776 13.3031C123.164 13.199 122.589 13.1075 122.053 13.0287C121.488 12.9466 121.458 12.7763 121.963 12.5176C122.37 12.3094 122.81 12.1753 123.283 12.1154C123.409 12.0994 123.529 12.0563 123.636 11.9891C123.743 11.9219 123.835 11.8322 123.904 11.7261C123.973 11.62 124.019 11.5 124.037 11.3744C124.056 11.2489 124.047 11.1207 124.012 10.9986C123.851 10.4592 123.47 10.191 122.867 10.1942C121.911 10.2005 120.974 10.0617 120.056 9.77774C119.738 9.67946 119.396 9.69516 119.089 9.82215C118.781 9.94913 118.528 10.1794 118.372 10.4734L117.988 11.1974C117.916 11.3362 117.804 11.4308 117.652 11.4813C115.848 12.0554 114.042 12.3472 112.234 12.3567C112.193 12.3599 112.173 12.3804 112.173 12.4182V12.423C112.169 12.4577 112.187 12.4766 112.225 12.4797C113.988 12.5965 115.649 12.3693 117.208 11.7983C117.555 11.669 117.619 11.7526 117.402 12.0491ZM105.59 8.37635C105.524 8.42344 105.437 8.43428 105.347 8.40649C105.257 8.3787 105.171 8.31454 105.108 8.22814C105.046 8.14173 105.012 8.04015 105.013 7.94574C105.015 7.85134 105.053 7.77184 105.118 7.72474C105.183 7.67765 105.27 7.6668 105.36 7.6946C105.451 7.72239 105.536 7.78655 105.599 7.87295C105.662 7.95936 105.696 8.06094 105.694 8.15535C105.692 8.24975 105.655 8.32925 105.59 8.37635ZM111.501 24.485C111.109 25.4377 110.352 26.2689 109.229 26.9788C109.078 27.0766 108.969 27.0403 108.903 26.8699C108.042 24.6679 108.04 22.2562 108.898 19.6346C108.907 19.6078 108.923 19.5839 108.945 19.5654C108.966 19.5468 108.992 19.5342 109.02 19.529C109.048 19.5237 109.077 19.5259 109.104 19.5353C109.13 19.5447 109.154 19.561 109.172 19.5826C110.374 21.0637 112.457 22.1473 111.501 24.485Z" fill="#0C0E29" fill-opacity="0.75"/>
<path d="M167.613 22.1711C167.743 23.4235 167.911 24.739 168.12 26.1176C168.238 26.8984 167.987 27.6319 167.916 28.4032C167.9 28.5893 167.981 28.7139 168.157 28.777C168.716 28.9663 169.268 28.9884 169.814 28.8433C169.844 28.8348 169.872 28.8193 169.895 28.7981C169.919 28.7769 169.937 28.7507 169.948 28.7215C169.959 28.6924 169.963 28.6612 169.959 28.6305C169.956 28.5999 169.945 28.5706 169.927 28.5452C169.135 27.3622 168.88 26.1192 169.161 24.8163C169.287 24.2359 169.347 23.6507 169.34 23.0607C169.331 21.7768 169.542 20.537 169.975 19.3413C170.051 19.1366 170.195 18.9671 170.381 18.8634C171 18.5195 171.568 18.0826 172.085 17.5526C172.16 17.4759 172.258 17.4254 172.364 17.4083C172.469 17.3913 172.577 17.4087 172.672 17.458C174.069 18.1899 175.375 17.9328 176.59 16.6866C177.984 15.2576 178.525 13.5414 178.213 11.5382C178.209 11.519 178.211 11.4991 178.218 11.481C178.226 11.4629 178.239 11.4476 178.255 11.4372C178.272 11.4268 178.291 11.4219 178.311 11.423C178.33 11.4241 178.349 11.4313 178.364 11.4435C183.565 15.2197 190.133 16.7056 196.531 17.1362C196.591 17.1393 196.622 17.111 196.625 17.051C196.629 17.0005 196.605 16.9721 196.554 16.9658C189.963 16.4548 183.612 14.9121 178.189 10.9845C178.162 10.9645 178.141 10.9379 178.128 10.9072C178.114 10.8765 178.109 10.8429 178.112 10.8095C178.115 10.7762 178.127 10.7442 178.147 10.7168C178.166 10.6895 178.192 10.6676 178.222 10.6533L180.565 9.5933C180.719 9.5239 180.879 9.50339 181.043 9.53179L181.384 9.58857C181.573 9.62327 181.696 9.54914 181.753 9.36616C181.992 8.6185 181.88 8.04908 181.417 7.65789C180.773 7.11371 179.699 7.2746 178.852 7.21781C178.606 7.20204 178.262 7.12632 177.82 6.99067C176.943 6.71937 176.035 6.81874 175.095 7.28879C174.959 7.35504 174.893 7.4623 174.896 7.61057C174.908 8.26991 174.599 8.65793 173.968 8.77466C172.669 9.01441 171.243 9.06804 169.691 8.93555C169.527 8.92293 169.404 8.84406 169.322 8.69894C169.142 8.38347 168.989 8.0333 168.862 7.64843C168.399 6.26193 167.031 6.66416 166.203 7.34558C166.039 7.47807 165.867 7.49069 165.687 7.38343C164.623 6.74934 164.414 5.16883 164.206 4.04734C164.181 3.90222 164.239 3.81389 164.381 3.78234C165.362 3.56782 165.828 2.86432 165.777 1.67184C165.701 -0.107408 162.853 -0.211513 163.203 1.71916C163.241 1.92107 163.258 2.11981 163.255 2.3154C163.252 2.48891 163.189 2.63718 163.066 2.76022C162.659 3.16717 162.148 3.4511 161.845 3.94796C161.343 4.76503 161.186 5.67043 161.372 6.66416C161.406 6.8566 161.327 6.9402 161.135 6.91496C159.815 6.73041 159.791 8.09797 159.275 8.89769C158.367 10.311 157.28 11.4877 156.015 12.4278C155.397 12.8884 154.859 13.4389 154.401 14.0793C154.291 14.2307 154.144 14.3254 153.961 14.3632C153.479 14.4673 153.034 14.6377 152.537 14.4626C151.736 14.1818 151.07 13.748 150.54 13.1613C150.355 12.9553 150.257 12.685 150.269 12.4082C150.28 12.1313 150.4 11.87 150.602 11.6801C151.207 11.1186 151.715 10.4971 152.125 9.81571C152.223 9.65797 152.36 9.54914 152.537 9.4892L153.341 9.21474C153.449 9.17804 153.547 9.11892 153.63 9.04127C153.713 8.96361 153.778 8.86917 153.822 8.76416C153.866 8.65914 153.887 8.54591 153.884 8.43191C153.881 8.31791 153.854 8.20573 153.805 8.10271C153.233 6.91496 151.908 7.32191 150.923 7.56325C150.69 7.62319 150.466 7.60268 150.251 7.50173C149.803 7.29983 149.371 7.25251 148.955 7.35977C148.783 7.40555 148.633 7.50733 148.529 7.64843L147.459 9.06804C147.402 9.14446 147.365 9.23478 147.352 9.33016C147.34 9.42554 147.352 9.52273 147.388 9.61223L147.715 10.4261C147.754 10.5213 147.772 10.6236 147.769 10.7263C147.766 10.829 147.741 10.9299 147.696 11.0224C147.043 12.3947 145.373 13.3269 143.896 12.5082C142.852 11.9341 142.025 11.2732 141.417 10.5255C141.322 10.4088 141.294 10.2779 141.331 10.1328C141.641 8.9876 141.123 8.40871 139.779 8.39609C138.577 8.38347 137.282 8.38189 135.894 8.39136C135.427 8.39767 135.358 8.23205 135.686 7.8945C135.973 7.59795 135.82 7.13421 135.227 6.50327C135.205 6.48139 135.178 6.46367 135.147 6.45122L133.727 5.9023C133.547 5.82974 133.43 5.7004 133.377 5.51427L132.941 3.99528C132.888 3.79969 132.91 3.61199 133.008 3.43217L133.505 2.54254C133.59 2.38481 133.615 2.21919 133.58 2.04568C133.372 0.957305 132.005 0.881592 131.413 1.69077C130.864 2.4479 130.874 3.9527 130.618 4.88964C130.372 5.784 130.76 6.7446 131.139 7.54905C131.465 8.23993 131.389 9.00179 130.698 9.44661C129.266 10.3615 127.798 11.5918 126.293 13.1376C126.192 13.2413 126.135 13.3782 126.132 13.5209C126.101 14.6881 126.271 15.8096 126.643 16.8854C127.197 18.4801 126.146 19.7956 124.869 20.6284C124.665 20.761 124.516 20.9641 124.453 21.1989C124.389 21.4338 124.414 21.6839 124.523 21.9014C125.331 23.5229 125.679 25.2264 125.569 27.012C125.553 27.2896 125.679 27.4663 125.948 27.542L126.856 27.788C127.222 27.889 127.326 27.7675 127.168 27.4237C126.558 26.1082 125.569 22.0954 127.282 21.1632C128.036 20.7499 128.812 20.2925 129.61 19.7909C129.777 19.6868 129.891 19.7294 129.951 19.9186C130.292 20.9975 129.979 22.0007 129.374 22.8998C129.296 23.0145 129.257 23.1503 129.26 23.2885C129.264 23.4267 129.31 23.5604 129.392 23.6712C130.086 24.6113 130.465 25.6996 130.528 26.9363C130.539 27.1605 130.619 27.3756 130.758 27.5519C130.896 27.7282 131.085 27.857 131.299 27.9205C131.549 27.9963 131.814 28.0041 132.094 27.9442C132.158 27.9298 132.218 27.9014 132.269 27.861C132.32 27.8205 132.361 27.7693 132.389 27.7109C132.417 27.6526 132.432 27.5888 132.432 27.5243C132.431 27.4598 132.416 27.3963 132.388 27.3385C131.161 24.8463 130.833 23.1443 131.404 22.2326C132.369 20.6805 133.505 19.7625 132.823 17.6473C132.814 17.6199 132.813 17.5906 132.82 17.5626C132.827 17.5346 132.841 17.5092 132.862 17.4893C132.883 17.4694 132.909 17.4559 132.938 17.4504C132.966 17.4448 132.995 17.4475 133.022 17.458C134.186 17.9059 135.421 18.2025 136.727 18.3476C137.459 18.4296 137.669 18.7893 137.356 19.4265L133.358 27.5988C133.331 27.6554 133.32 27.7182 133.326 27.7806C133.332 27.843 133.354 27.9027 133.391 27.9534C133.428 28.0042 133.477 28.0441 133.535 28.0691C133.592 28.0942 133.655 28.1033 133.718 28.0956L134.399 28.0057C134.853 27.9458 135.162 27.7013 135.326 27.2723C135.719 26.2407 136.358 25.3416 136.774 24.31C137.648 22.149 138.609 20.2909 139.656 18.7356C140.148 18.0006 140.45 18.0731 140.56 18.9533C140.705 20.089 140.723 21.1679 140.612 22.19C140.56 22.6348 140.716 23.2926 140.91 23.6948C141.522 24.9535 141.926 26.2959 142.122 27.7218C142.137 27.8446 142.195 27.958 142.286 28.0419C142.377 28.1259 142.495 28.1751 142.619 28.1808C143.038 28.2029 143.401 28.348 143.707 28.6162C143.836 28.7297 143.912 28.7013 143.934 28.531C143.966 28.2975 143.915 28.0846 143.783 27.8922C142.018 25.299 142.15 20.8982 142.41 17.9028C142.477 17.1125 143.163 16.7624 143.877 16.7671C146.493 16.7829 148.543 15.6314 150.029 13.3127C150.13 13.155 150.239 13.1487 150.355 13.2938C151.381 14.5588 152.57 14.9989 153.923 14.614C154.132 14.5541 154.212 14.6298 154.165 14.8411C153.925 15.9106 153.867 17.0037 153.99 18.1205C154.144 19.5338 153.83 21.0086 153.048 22.5449C152.997 22.6451 152.968 22.7548 152.961 22.8671C152.955 22.9795 152.971 23.0921 153.01 23.198C153.597 24.769 154.349 26.482 154.084 28.2045C154.056 28.3717 154.121 28.4852 154.278 28.5452C154.701 28.7187 155.155 28.725 155.641 28.5641C155.685 28.5495 155.726 28.5251 155.759 28.4927C155.792 28.4603 155.818 28.4208 155.833 28.3773C155.849 28.3339 155.854 28.2875 155.849 28.242C155.843 28.1964 155.827 28.1528 155.802 28.1146C154.893 26.6949 154.075 24.3147 154.756 22.6017C155.021 21.9329 155.278 21.2594 155.528 20.5811C155.811 19.8019 156.013 19.8224 156.133 20.6426C156.25 21.4345 156.241 22.3825 156.105 23.4866C156.083 23.6601 156.127 23.8147 156.237 23.9504C157.43 25.4173 158.378 26.9016 159.081 28.4032C159.151 28.5546 159.271 28.6256 159.441 28.6162L160.553 28.5594C160.618 28.556 160.681 28.5329 160.733 28.4932C160.784 28.4534 160.823 28.3988 160.843 28.3367C160.863 28.2746 160.863 28.2079 160.845 28.1454C160.826 28.0829 160.789 28.0276 160.738 27.9868C157.671 25.5419 157.039 22.3746 158.84 18.4848C158.941 18.2735 159.081 18.2419 159.261 18.3902C161.021 19.8477 163.173 20.3319 165.716 19.8429C165.877 19.8145 165.966 19.8808 165.985 20.0417C166.036 20.4833 165.978 20.9124 165.81 21.3288C165.353 22.4613 165.209 23.4803 165.38 24.3857C165.616 25.6539 165.238 26.7707 164.84 27.93C164.711 28.3149 164.848 28.5231 165.252 28.5546L165.72 28.5878C166.09 28.6162 166.291 28.4458 166.326 28.0767C166.525 26.0009 166.845 24.0245 167.287 22.1474C167.438 21.5007 167.547 21.5086 167.613 22.1711ZM173.755 12.5272L171.953 11.7937C171.811 11.7355 171.692 11.6308 171.612 11.4956C171.265 10.9246 170.811 10.4403 170.249 10.0428C169.217 9.31096 169.328 9.03176 170.58 9.20527C171.609 9.34723 172.651 9.3078 173.708 9.08697C173.932 9.03965 174.047 9.13114 174.054 9.36143L174.153 12.248C174.155 12.2963 174.145 12.3443 174.123 12.3877C174.102 12.4311 174.07 12.4683 174.03 12.4961C173.991 12.5239 173.945 12.5413 173.897 12.5468C173.849 12.5522 173.8 12.5454 173.755 12.5272Z" fill="#0C0E29" fill-opacity="0.75"/>
<path d="M27.1089 9.74454C27.1563 9.43853 27.3424 9.17512 27.6673 8.95429C27.7967 8.86596 27.8613 8.74134 27.8613 8.58045C27.8566 7.83752 27.1373 7.4353 26.4464 7.48262C25.4937 7.54571 24.5268 7.5189 23.5457 7.40217C23.2517 7.36736 22.9547 7.43494 22.7048 7.59354C22.4548 7.75214 22.2671 7.99206 22.1734 8.27287L20.9573 11.8976C20.9084 12.0477 20.8099 12.1763 20.6781 12.262C20.0282 12.7005 19.3657 12.6169 18.6906 12.0112C18.495 11.8345 18.3909 11.6153 18.3783 11.3534C18.3152 9.78871 17.2947 8.90224 15.3167 8.69403C15.1211 8.6751 15.0012 8.76027 14.957 8.94955L14.8151 9.54579C14.8073 9.58089 14.7899 9.61313 14.7649 9.63893C14.7399 9.66473 14.7082 9.68306 14.6733 9.6919C14.6385 9.70073 14.6019 9.69971 14.5676 9.68896C14.5333 9.6782 14.5026 9.65812 14.4791 9.63097C13.3844 8.38802 12.5705 6.95421 12.0373 5.32954C11.8575 4.77115 12.1935 4.45411 12.6241 4.21277C12.8148 4.10521 12.967 3.94146 13.0595 3.7443C13.8545 2.07861 11.2424 0.829351 10.7313 3.08654C10.6083 3.62915 10.4269 4.13232 10.1871 4.59607C9.67133 5.60873 9.92212 6.77281 9.81328 7.87538C9.79673 8.05169 9.72651 8.21853 9.61219 8.35317C9.49788 8.48781 9.34502 8.58369 9.17445 8.62777C8.39367 8.83125 7.09235 8.94955 7.29109 10.0852C7.32895 10.3061 7.23589 10.4165 7.0119 10.4165L6.23585 10.426C6.09002 10.426 5.94663 10.4635 5.81943 10.5348C4.60329 11.2257 2.80511 12.8393 2.81931 14.4387C2.83824 16.8663 3.34456 18.7875 1.20094 20.5857C0.80345 20.9201 0.458008 21.286 0.164621 21.6835C0.0636711 21.8255 0.0384312 21.9801 0.0889053 22.1473C0.410686 23.182 0.658333 24.2577 0.831842 25.3745C0.913864 25.9077 0.768757 26.3099 0.396502 26.5812C0.202581 26.7217 0.0682316 26.9295 0.0200367 27.1634C-0.0281582 27.3974 0.0132999 27.6405 0.13623 27.8446L0.637827 28.6869C0.87443 29.0781 1.09527 29.0702 1.30033 28.6633C2.09531 27.1049 2.34452 25.7026 2.04798 24.4565C1.69308 22.9422 2.58271 21.6409 3.5717 20.6188C4.0733 20.1014 4.2405 20.1945 4.0733 20.898C3.9061 21.6046 3.69316 22.3176 3.43447 23.0369C3.37453 23.2041 3.39189 23.3618 3.48653 23.5101C4.42032 24.9707 5.20269 26.4881 5.83363 28.0623C6.14594 28.8431 7.05923 28.9567 7.76903 28.7721C7.83414 28.7546 7.89258 28.718 7.93693 28.6672C7.98127 28.6164 8.00954 28.5536 8.01816 28.4867C8.02677 28.4198 8.01533 28.3519 7.9853 28.2915C7.95528 28.2311 7.90802 28.181 7.84949 28.1475C6.22166 27.2153 5.69166 25.4739 5.41247 23.5858C5.20899 22.2608 5.72006 21.4091 6.39674 20.3727C7.00718 19.4263 7.1444 18.3427 7.03083 17.2306C7.02326 17.157 7.03241 17.0825 7.05762 17.0128C7.08283 16.9431 7.12347 16.8798 7.17655 16.8277C7.22962 16.7755 7.29378 16.7357 7.36437 16.7113C7.43495 16.6869 7.51017 16.6784 7.58449 16.6865C9.889 16.942 11.2755 18.3711 13.4238 19.0478C13.6257 19.1109 13.7803 19.2339 13.8876 19.4169C14.3939 20.2876 15.7567 22.2419 15.3829 23.2451C14.7993 24.8161 13.8403 25.7689 12.5058 26.1033C12.3696 26.1376 12.25 26.2193 12.1685 26.3337C12.087 26.4482 12.0489 26.5879 12.061 26.7279C12.0989 27.1916 12.2124 27.6175 12.4017 28.0055C12.4321 28.0691 12.4783 28.1238 12.5359 28.1645C12.5935 28.2051 12.6607 28.2304 12.7311 28.238C12.8016 28.2455 12.873 28.2351 12.9387 28.2077C13.0044 28.1803 13.0622 28.1368 13.1068 28.0812L16.7363 23.5243C16.8143 23.4278 16.8658 23.3125 16.8857 23.1898C16.9056 23.067 16.8932 22.9409 16.8498 22.8239C16.364 21.5274 16.1085 20.1708 16.0833 18.7544C16.0833 18.6881 16.1164 18.6518 16.1826 18.6455L16.3104 18.6361C16.465 18.6235 16.5517 18.6929 16.5707 18.8443C16.8782 21.2907 17.3278 23.7609 18.6953 25.7862C19.1118 26.4061 19.2632 27.168 19.4998 27.873C19.5566 28.0371 19.6717 28.1144 19.8452 28.1049L21.0992 28.0481C21.1665 28.0447 21.2309 28.0203 21.2835 27.9783C21.3362 27.9364 21.3743 27.8789 21.3926 27.8142C21.4109 27.7494 21.4084 27.6805 21.3855 27.6172C21.3626 27.5539 21.3204 27.4994 21.2648 27.4613C19.8925 26.5402 19.0802 25.1111 18.8278 23.1741C18.5692 21.1898 18.4887 19.4074 18.5865 17.8269C18.6433 16.9373 19.4288 16.1754 20.3705 16.3789C22.0456 16.748 23.4984 15.1249 24.6909 14.1453C25.6231 13.3835 25.6609 12.0443 25.6941 10.937C25.6972 10.7824 25.7556 10.6515 25.8691 10.5443C26.2572 10.1846 26.6704 9.91805 27.1089 9.74454ZM12.8519 9.14362C12.8053 9.18567 12.7192 9.18014 12.6125 9.12823C12.5058 9.07633 12.3873 8.9823 12.2829 8.86684C12.2313 8.80966 12.1847 8.74894 12.1458 8.68814C12.1068 8.62734 12.0764 8.56766 12.0562 8.5125C12.036 8.45734 12.0263 8.40779 12.0279 8.36666C12.0294 8.32554 12.0421 8.29365 12.0651 8.27282C12.1117 8.23077 12.1978 8.2363 12.3045 8.28821C12.4112 8.34012 12.5297 8.43414 12.6341 8.5496C12.6857 8.60678 12.7323 8.6675 12.7713 8.7283C12.8102 8.7891 12.8406 8.84878 12.8608 8.90394C12.881 8.9591 12.8907 9.00866 12.8891 9.04978C12.8876 9.09091 12.8749 9.12279 12.8519 9.14362Z" fill="#0C0E29" fill-opacity="0.75"/>
<path d="M12.8528 9.14389C12.8759 9.12306 12.8886 9.09118 12.8901 9.05005C12.8916 9.00893 12.882 8.95937 12.8618 8.90421C12.8416 8.84905 12.8111 8.78937 12.7722 8.72857C12.7333 8.66777 12.6867 8.60705 12.635 8.54987C12.5307 8.43441 12.4121 8.34039 12.3055 8.28848C12.1988 8.23658 12.1127 8.23104 12.0661 8.2731C12.043 8.29392 12.0304 8.32581 12.0288 8.36693C12.0273 8.40806 12.0369 8.45761 12.0572 8.51277C12.0774 8.56793 12.1078 8.62762 12.1467 8.68841C12.1856 8.74921 12.2322 8.80993 12.2839 8.86711C12.3882 8.98257 12.5068 9.0766 12.6135 9.12851C12.7202 9.18041 12.8063 9.18594 12.8528 9.14389Z" fill="white"/>
<path d="M202.943 26.3587L203.189 27.3004C203.205 27.3636 203.233 27.423 203.273 27.4749C203.312 27.5268 203.361 27.5702 203.418 27.6024C203.475 27.6347 203.537 27.6552 203.602 27.6627C203.667 27.6701 203.732 27.6644 203.795 27.6458L205.493 27.149C205.528 27.1388 205.559 27.1199 205.584 27.0941C205.609 27.0683 205.627 27.0365 205.636 27.0017C205.645 26.9669 205.645 26.9304 205.636 26.8957C205.627 26.8609 205.608 26.8292 205.583 26.8035L204.817 26.0228C204.691 25.8934 204.648 25.7388 204.689 25.559C205.167 23.4911 203.515 20.9831 202.512 19.1897C202.464 19.1051 202.437 19.0101 202.434 18.9128C202.431 18.8155 202.451 18.7189 202.493 18.6313C202.752 18.1076 202.918 17.5382 202.99 16.923C202.998 16.8629 202.992 16.8019 202.974 16.7441C202.955 16.6863 202.925 16.6331 202.884 16.5878C202.843 16.5426 202.793 16.5065 202.737 16.4819C202.681 16.4572 202.621 16.4447 202.56 16.4451L201.75 16.4545C201.629 16.4559 201.51 16.4244 201.405 16.3635C201.301 16.3026 201.216 16.2147 201.159 16.1091C200.648 15.1627 200.296 14.1122 200.104 12.9575C200.072 12.7809 200.102 12.6153 200.194 12.4607L201.547 10.1467C201.586 10.0789 201.611 10.004 201.621 9.92624C201.631 9.84852 201.625 9.76963 201.604 9.69422C201.583 9.6188 201.547 9.54839 201.498 9.48713C201.449 9.42587 201.389 9.375 201.32 9.33753C200.321 8.79807 198.987 8.22076 198.092 9.32333C197.61 9.92273 197.599 10.5442 198.059 11.1878C198.249 11.4559 198.217 11.6957 197.965 11.907C197.539 12.2572 197.075 12.6121 196.881 13.1468C196.436 14.3709 196.457 15.6122 196.943 16.871C197.11 17.3095 197.23 17.7432 197.302 18.1723C197.591 19.9137 198.069 21.2954 197.208 22.999C196.725 23.9643 196.081 24.8397 195.92 25.9565C195.851 26.4139 195.646 26.8351 195.305 27.22C195.233 27.3005 195.183 27.3982 195.16 27.5037C195.137 27.6093 195.141 27.7192 195.172 27.823C195.203 27.9268 195.261 28.0211 195.339 28.0969C195.417 28.1727 195.513 28.2276 195.618 28.2563C196.719 28.5591 197.329 28.2247 197.449 27.2531C197.477 27.0354 197.592 26.8824 197.794 26.7941C198.613 26.4297 199.115 25.6915 200.075 25.7246C200.987 25.7562 201.831 25.8587 202.607 26.0322C202.787 26.0701 202.899 26.1789 202.943 26.3587Z" fill="#0C0E29" fill-opacity="0.75"/>
<path d="M27.1089 9.74463C28.3676 11.1012 29.7967 11.8504 31.3961 11.9924C32.4435 12.0902 32.4514 12.0334 31.4198 11.822C30.0917 11.5507 28.6547 10.8582 27.1089 9.74463Z" fill="#0C0E29" fill-opacity="0.75"/>
<path d="M125.791 13.2181C125.406 13.2149 125.02 13.2354 124.632 13.2796C124.288 13.3175 124.286 13.3679 124.627 13.431C125.028 13.5036 125.422 13.4847 125.81 13.3742C126.173 13.2701 126.167 13.2181 125.791 13.2181Z" fill="#0C0E29" fill-opacity="0.75"/>
</svg>
