<svg width="28" height="28" viewBox="0 0 28 28" fill="none" xmlns="http://www.w3.org/2000/svg">
<path d="M0 14C0 6.26801 6.26801 0 14 0C21.732 0 28 6.26801 28 14C28 21.732 21.732 28 14 28C6.26801 28 0 21.732 0 14Z" fill="#F65A03"/>
<path d="M14.0002 18.0003C14.2339 18.0007 14.4603 17.9194 14.6402 17.7703L20.6402 12.7703C20.8444 12.6005 20.9729 12.3566 20.9972 12.0922C21.0216 11.8278 20.94 11.5645 20.7702 11.3603C20.6005 11.1561 20.3566 11.0276 20.0921 11.0033C19.8277 10.9789 19.5644 11.0605 19.3602 11.2303L14.0002 15.7103L8.64021 11.3903C8.53792 11.3072 8.42023 11.2452 8.29389 11.2077C8.16755 11.1703 8.03506 11.1582 7.90403 11.1722C7.773 11.1861 7.64602 11.2258 7.53038 11.289C7.41475 11.3521 7.31273 11.4375 7.23021 11.5403C7.13863 11.6431 7.06927 11.7637 7.02648 11.8946C6.98369 12.0255 6.96839 12.1638 6.98153 12.3008C6.99467 12.4379 7.03598 12.5708 7.10286 12.6911C7.16974 12.8115 7.26076 12.9167 7.37021 13.0003L13.3702 17.8303C13.5553 17.9558 13.7771 18.0156 14.0002 18.0003Z" fill="white"/>
</svg>
