<svg width="42" height="42" viewBox="0 0 42 42" fill="none" xmlns="http://www.w3.org/2000/svg">
<path d="M31.9594 2.97773C31.7215 3.19922 31.5739 3.4207 31.5411 3.60938C31.5083 3.76523 31.5083 4.03594 31.5329 4.2082C31.5575 4.37227 31.6805 4.62656 31.8036 4.77422C31.9348 4.91367 32.1563 5.07773 32.2958 5.14336C32.4762 5.21719 32.952 5.25 33.7231 5.25H34.8879C33.5016 6.65273 32.9848 7.13672 32.8536 7.21875C32.7223 7.30078 32.4598 7.39922 32.2794 7.43203C32.0989 7.45664 31.82 7.46484 31.6641 7.44023C31.5083 7.40742 30.9915 7.13672 30.5157 6.825C30.0399 6.51328 29.3426 6.09492 28.9571 5.88164C28.5715 5.67656 27.9481 5.38125 27.5626 5.22539C27.177 5.06133 26.57 4.83984 26.209 4.725C25.8481 4.61016 25.2411 4.43789 24.8555 4.34766C24.47 4.25742 23.7481 4.12617 23.2559 4.06055C22.7145 3.97852 21.7958 3.9293 20.959 3.9293C20.1387 3.9293 19.1954 3.97852 18.6622 4.06055C18.1618 4.12617 17.4235 4.26563 17.0215 4.36406C16.6114 4.4543 15.8567 4.67578 15.3399 4.85625C14.8231 5.03672 13.9864 5.38125 13.4942 5.62734C12.9938 5.86523 12.2063 6.31641 11.7305 6.62813C11.2547 6.93984 10.5903 7.40742 10.254 7.67813C9.91764 7.94883 9.3024 8.49844 8.90045 8.90859C8.49029 9.31055 7.91607 9.95039 7.62076 10.3359C7.31725 10.7215 6.87428 11.3449 6.61998 11.7305C6.37389 12.116 5.98014 12.7969 5.75865 13.248C5.52896 13.6992 5.23365 14.3555 5.0942 14.7082C4.95475 15.0527 4.72506 15.7172 4.59381 16.1848C4.45435 16.6441 4.26568 17.4234 4.17545 17.9238C4.0524 18.5555 3.98678 19.3102 3.96217 20.4258C3.92935 21.4102 3.95396 22.3371 4.01139 22.8457C4.0606 23.2969 4.18365 24.0352 4.27389 24.4863C4.36412 24.9375 4.5856 25.7496 4.76607 26.291C4.94654 26.8324 5.22545 27.5543 5.39771 27.8906C5.56178 28.227 5.80787 28.5715 5.93092 28.6699C6.10318 28.793 6.29186 28.834 6.6692 28.834C7.06295 28.834 7.23521 28.793 7.44029 28.6535C7.58795 28.5469 7.76842 28.3418 7.84225 28.2023C7.91607 28.0547 7.9735 27.784 7.9735 27.6035C7.9735 27.4148 7.83404 26.9309 7.64537 26.4551C7.4649 26.0039 7.21881 25.2984 7.10396 24.8965C6.98912 24.4945 6.83326 23.8055 6.75123 23.3789C6.65279 22.8211 6.61178 22.1566 6.61178 21C6.61178 19.8023 6.64459 19.1953 6.75943 18.5801C6.84146 18.1289 6.99732 17.448 7.11217 17.0625C7.21881 16.677 7.4567 15.9961 7.63717 15.5449C7.81764 15.0938 8.17037 14.3555 8.43287 13.9043C8.68717 13.4531 9.16295 12.7313 9.48287 12.3047C9.811 11.8781 10.418 11.1809 10.8364 10.7707C11.2629 10.3523 11.9028 9.78633 12.2637 9.50742C12.6247 9.22852 13.2727 8.80195 13.6993 8.54766C14.1258 8.29336 14.7903 7.95703 15.1758 7.78477C15.5614 7.6207 16.2258 7.37461 16.6524 7.23516C17.079 7.0957 17.8583 6.89883 18.3751 6.80039C19.1872 6.63633 19.5563 6.60352 21.0411 6.61172C22.5833 6.61172 22.8704 6.63633 23.7891 6.8332C24.3551 6.94805 25.2001 7.17773 25.6758 7.3418C26.1516 7.50586 26.9063 7.81758 27.3575 8.03906C27.8087 8.26055 28.5469 8.68711 28.9981 8.99063C29.4493 9.29414 29.9989 9.62227 30.2286 9.7207C30.4501 9.81914 30.8356 9.94219 31.0653 9.99961C31.3032 10.0488 31.7297 10.0898 32.0087 10.0898C32.2958 10.0898 32.7387 10.0324 32.993 9.9668C33.2555 9.90117 33.6985 9.72891 33.9774 9.58945C34.3629 9.39258 34.7731 9.04805 35.618 8.21133L36.7501 7.0957C36.7911 9.51563 36.8075 9.69609 36.9551 9.89297C37.0454 10.0078 37.2258 10.1883 37.3489 10.2867C37.5294 10.418 37.7016 10.459 38.0626 10.459C38.4153 10.459 38.604 10.418 38.768 10.2949C38.8829 10.2047 39.0633 10.0242 39.1618 9.90117C39.3258 9.67148 39.334 9.57305 39.3587 6.74297C39.3751 4.84805 39.3504 3.70781 39.3012 3.50273C39.2438 3.30586 39.0879 3.10078 38.8583 2.91211L38.5137 2.625H32.3204L31.9594 2.97773ZM34.6993 13.3137C34.5434 13.4203 34.3301 13.6172 34.2317 13.7484C34.1087 13.9125 34.043 14.1094 34.043 14.3637C34.043 14.6016 34.1497 15.0117 34.3629 15.5531C34.5434 16.0043 34.7813 16.7016 34.8961 17.1035C35.011 17.5137 35.1669 18.1945 35.2489 18.6293C35.3473 19.1871 35.3883 19.8434 35.3883 21C35.3883 22.1895 35.3555 22.8129 35.2407 23.4281C35.1586 23.8793 34.97 24.6504 34.8223 25.1426C34.6747 25.643 34.4122 26.3648 34.2481 26.7504C34.0758 27.1277 33.7559 27.7758 33.5262 28.1777C33.2965 28.5879 32.8454 29.2688 32.5172 29.7035C32.1973 30.1301 31.5493 30.852 31.0817 31.3113C30.6141 31.7625 29.9169 32.3695 29.5313 32.6484C29.154 32.9273 28.4895 33.3621 28.0547 33.6C27.6282 33.8379 26.9063 34.1906 26.4551 34.3629C26.004 34.5434 25.3231 34.7813 24.9376 34.8961C24.5602 35.0027 23.8712 35.1668 23.42 35.2488C22.7883 35.3637 22.2141 35.3965 20.918 35.3965C19.4251 35.3883 19.1215 35.3637 18.211 35.175C17.6532 35.052 16.8001 34.8223 16.3243 34.6582C15.8567 34.4941 15.0938 34.1824 14.6426 33.9609C14.1915 33.7477 13.4532 33.3129 13.002 33.0176C12.5508 32.7141 12.0012 32.3777 11.7715 32.2793C11.5501 32.1809 11.1727 32.0578 10.9348 32.0086C10.6969 31.9594 10.2704 31.9102 9.99146 31.9102C9.70436 31.9102 9.26139 31.9676 9.00709 32.0332C8.74459 32.107 8.30162 32.2793 8.02271 32.4188C7.63717 32.6074 7.22701 32.952 6.38209 33.7887L5.25826 34.9043C5.21725 32.4598 5.19264 32.3121 5.03678 32.107C4.93834 31.9758 4.76607 31.8035 4.64303 31.7133C4.47896 31.5902 4.29029 31.5492 3.93756 31.5492C3.58482 31.5492 3.40435 31.5902 3.24029 31.7051C3.11725 31.8035 2.93678 31.9758 2.84654 32.107C2.67428 32.3285 2.66607 32.427 2.64146 35.2652C2.62506 37.152 2.64967 38.3004 2.70709 38.4973C2.76451 38.6941 2.91217 38.9074 3.14185 39.0961L3.48639 39.3832H9.67975C10.2786 38.809 10.4262 38.5793 10.4672 38.3988C10.4919 38.2348 10.5001 37.9723 10.4672 37.8C10.4426 37.6277 10.3196 37.3734 10.1965 37.234C10.0735 37.0863 9.85201 36.9223 9.70436 36.8648C9.52389 36.791 9.05631 36.7582 8.26881 36.7582H7.09576C8.4985 35.3473 9.01529 34.8715 9.14654 34.7895C9.286 34.6992 9.54029 34.609 9.72076 34.5762C9.90123 34.5434 10.1801 34.5434 10.336 34.568C10.5001 34.5926 10.9594 34.8305 11.3614 35.1012C11.7715 35.3637 12.4196 35.7574 12.7969 35.9707C13.1825 36.1922 13.8141 36.5039 14.1915 36.668C14.577 36.8402 15.2415 37.0945 15.668 37.234C16.1028 37.3734 16.7672 37.5621 17.1446 37.6523C17.5301 37.7426 18.252 37.8738 18.7442 37.9477C19.2774 38.0215 20.2208 38.0707 21.0411 38.0707C21.8532 38.0707 22.8129 38.0215 23.3379 37.9477C23.8383 37.8738 24.5766 37.7426 24.9786 37.6441C25.3887 37.5457 26.1434 37.3242 26.6602 37.1438C27.1852 36.9715 28.0301 36.6188 28.5469 36.3645C29.0719 36.1102 29.8594 35.659 30.3106 35.3555C30.7618 35.0602 31.4098 34.5926 31.7462 34.3219C32.0907 34.0512 32.6977 33.5016 33.0997 33.0996C33.5098 32.6977 34.084 32.0496 34.3876 31.6641C34.6829 31.2867 35.134 30.6551 35.3801 30.2777C35.6262 29.8922 36.02 29.2113 36.2415 28.7602C36.4711 28.309 36.7665 27.6527 36.9059 27.3C37.0454 26.9473 37.2751 26.2828 37.4145 25.8234C37.5458 25.3641 37.7344 24.5766 37.8329 24.0762C37.9477 23.4527 38.0133 22.6898 38.0462 21.5824C38.0708 20.5898 38.0462 19.6629 37.9887 19.1625C37.9395 18.7113 37.8165 17.973 37.7262 17.5219C37.636 17.0707 37.4227 16.275 37.2504 15.7582C37.0782 15.2332 36.8157 14.5359 36.6598 14.1996C36.4629 13.773 36.2907 13.5188 36.0938 13.3793C35.9051 13.248 35.6672 13.166 35.3965 13.1496C35.0766 13.125 34.929 13.1578 34.6993 13.3137ZM20.434 9.29414C20.2782 9.35977 20.0813 9.49922 20.0075 9.60586C19.9254 9.7125 19.827 9.90938 19.7778 10.0324C19.7286 10.1555 19.6876 10.6477 19.6876 11.1234C19.6876 11.9438 19.6794 11.9848 19.5071 12.034C19.4004 12.0668 19.0231 12.2391 18.6622 12.4195C18.1864 12.6656 17.8419 12.9199 17.3825 13.3711C16.8985 13.8551 16.6852 14.1422 16.4227 14.6918C16.234 15.0691 16.0208 15.627 15.9469 15.9141C15.8485 16.316 15.8239 16.6688 15.8567 17.3086C15.8895 17.8883 15.9633 18.3395 16.0782 18.6621C16.1766 18.941 16.3735 19.3758 16.5129 19.6465C16.6606 19.9418 17.0297 20.4012 17.3907 20.7621C17.7926 21.1559 18.211 21.484 18.5801 21.6727C18.9001 21.8367 19.3594 22.0336 19.6055 22.1074C19.8598 22.173 20.434 22.2715 20.9016 22.3125C21.4102 22.3699 21.8778 22.4602 22.0911 22.5586C22.2797 22.6488 22.5669 22.8293 22.7227 22.9605C22.8868 23.0918 23.1411 23.4281 23.2969 23.7152C23.5594 24.1992 23.584 24.2977 23.584 24.9375C23.584 25.5281 23.543 25.7004 23.3708 26.0531C23.2477 26.2746 23.0672 26.5699 22.9524 26.7094C22.8376 26.8406 22.5094 27.0785 22.2223 27.2344C21.7383 27.4969 21.6399 27.5215 21.0001 27.5215C20.3602 27.5215 20.2618 27.4969 19.7778 27.2344C19.4907 27.0785 19.1462 26.8242 19.0231 26.6602C18.8919 26.5043 18.7114 26.2172 18.6212 26.0285C18.5309 25.8398 18.4407 25.4707 18.4079 25.2082C18.3833 24.9457 18.334 24.6258 18.293 24.4863C18.252 24.3551 18.0879 24.1254 17.9321 23.9777C17.7598 23.8219 17.5137 23.6906 17.3333 23.6578C17.161 23.6332 16.8985 23.6414 16.7344 23.666C16.5704 23.707 16.3243 23.8547 16.152 24.027C15.9551 24.2238 15.8321 24.4371 15.7911 24.6586C15.7501 24.8391 15.7665 25.2574 15.8157 25.602C15.8649 25.9383 15.9797 26.4305 16.0782 26.7094C16.1684 26.9801 16.3653 27.3984 16.5129 27.6363C16.6606 27.8824 16.9805 28.2926 17.2266 28.5469C17.4809 28.8094 17.8993 29.1621 18.17 29.3344C18.4407 29.5066 18.8837 29.7281 19.1544 29.8266L19.6465 30.007C19.7286 31.8363 19.7532 32.0168 19.909 32.2137C19.9993 32.3449 20.1797 32.5172 20.3028 32.6156C20.4669 32.7305 20.6473 32.7797 21.0001 32.7797C21.361 32.7797 21.5415 32.7305 21.7137 32.5992C21.845 32.509 22.0172 32.3285 22.1075 32.2055C22.2469 32.025 22.2797 31.8117 22.3126 30.9996L22.3536 30.0152C23.059 29.7363 23.4446 29.5477 23.6661 29.4164C23.8958 29.2852 24.3387 28.916 24.6587 28.5961C25.1016 28.1613 25.3231 27.8496 25.5856 27.3246C25.7661 26.9391 25.9876 26.3813 26.0532 26.0941C26.1598 25.6922 26.1762 25.3395 26.1434 24.6914C26.1161 24.1172 26.045 23.6688 25.9301 23.3461C25.8317 23.0672 25.6348 22.6324 25.4954 22.3617C25.3395 22.0746 24.9704 21.5988 24.6176 21.2461C24.2075 20.8359 23.8055 20.5242 23.42 20.3273C23.1083 20.1715 22.6489 19.9746 22.3946 19.9008C22.1485 19.8352 21.5743 19.7367 21.1231 19.7039C20.5489 19.6465 20.1879 19.5727 19.9008 19.4332C19.6794 19.3266 19.343 19.0887 19.1626 18.9082C18.9739 18.7359 18.736 18.3996 18.6212 18.1699C18.4571 17.8336 18.4243 17.6367 18.4243 17.0625C18.4243 16.4965 18.4571 16.2996 18.6212 15.9551C18.736 15.7336 18.9739 15.3973 19.1544 15.2168C19.3348 15.0363 19.6712 14.7984 19.8926 14.6918C20.229 14.5195 20.4258 14.4867 21.0001 14.4867C21.5743 14.4867 21.7712 14.5195 22.1075 14.6918C22.3372 14.7984 22.6653 15.0363 22.854 15.2168C23.0344 15.3973 23.2641 15.7336 23.3708 15.9551C23.4774 16.1848 23.5922 16.6277 23.6251 16.9395C23.6579 17.2594 23.7235 17.5957 23.7645 17.6777C23.8137 17.768 23.9696 17.9484 24.109 18.0715C24.2485 18.1945 24.4864 18.3176 24.634 18.3504C24.7817 18.375 25.0442 18.3668 25.2247 18.3422C25.4434 18.2984 25.654 18.1781 25.8563 17.9813C26.045 17.7844 26.1762 17.5711 26.2172 17.3496C26.2501 17.1691 26.2419 16.7508 26.1926 16.4145C26.1434 16.0699 26.0286 15.5777 25.9301 15.307C25.8317 15.0281 25.6348 14.6098 25.4954 14.3719C25.3477 14.1258 25.0278 13.7156 24.7735 13.4613C24.5274 13.1988 24.1008 12.8461 23.8301 12.6738C23.5594 12.5016 23.1165 12.2801 22.8458 12.1816L22.3536 12.0012C22.2797 10.1719 22.2469 9.99141 22.0993 9.79453C22.0008 9.66328 21.8368 9.49102 21.7301 9.40898C21.6235 9.32695 21.3528 9.24492 21.1231 9.22852C20.8934 9.20391 20.5899 9.23672 20.434 9.29414Z" fill="#F15A2B"/>
</svg>
