<svg width="36" height="36" viewBox="0 0 36 36" fill="none" xmlns="http://www.w3.org/2000/svg">
<g filter="url(#filter0_b_2063_25897)">
<rect x="2" y="2" width="32" height="32" rx="6" fill="#FAF2CF" fill-opacity="0.74"/>
<rect x="1" y="1" width="34" height="34" rx="7" stroke="#0C0E29" stroke-opacity="0.68" stroke-width="2"/>
</g>
<path d="M11.2826 8.73206C10.5866 8.86521 9.89061 9.45225 9.64853 10.1059C9.4004 10.7534 9.38829 10.699 10.169 13.0471L10.5342 14.1398C10.7463 14.774 11.3401 15.2017 12.0088 15.2017L12.8068 15.1973C12.919 15.1967 12.9708 15.0577 12.8864 14.9838C12.7303 14.8512 12.5313 14.7799 12.3266 14.7834L11.9362 14.7901C11.8202 14.7919 11.7089 14.7921 11.6091 14.7909C11.3252 14.7874 11.1294 14.6301 11.0352 14.3622C10.7297 13.4935 10.0722 11.4989 10.0722 11.4131C10.0722 11.3405 11.1494 11.3284 17.9882 11.3284C22.3456 11.3284 25.9224 11.3405 25.9405 11.3586C25.9648 11.3889 24.8814 14.6993 24.8209 14.7538C24.8028 14.772 24.3973 14.7841 23.9131 14.7841C23.0356 14.7841 23.0356 14.7841 22.7874 14.9656C22.6482 15.0625 22.5393 15.1532 22.5393 15.1714C22.5393 15.1896 23.1203 15.2017 23.8284 15.2017C24.5947 15.2017 25.2752 14.7116 25.5182 13.9848L25.8316 13.0471C26.6244 10.6627 26.6184 10.6929 26.3279 10.0332C26.0374 9.37358 25.3898 8.86521 24.6636 8.72601C24.2581 8.65339 11.676 8.65339 11.2826 8.73206Z" fill="#0C0E29"/>
<path d="M17.8548 12.6355C17.8366 12.6899 17.8185 12.9138 17.8185 13.1438C17.8185 13.634 17.8548 13.749 18 13.749C18.0606 13.749 18.1271 13.7067 18.1453 13.6522C18.2119 13.4767 18.1816 12.6839 18.109 12.6112C18.0061 12.5084 17.8972 12.5205 17.8548 12.6355Z" fill="#0C0E29"/>
<path d="M15.4217 13.1743C15.3733 13.2893 15.8816 14.1366 16.0208 14.1608C16.1903 14.1971 16.1479 14.0034 15.8695 13.5253C15.6275 13.0956 15.4883 12.9927 15.4217 13.1743Z" fill="#0C0E29"/>
<path d="M20.1302 13.5253C19.8578 14.0034 19.8094 14.1971 19.9789 14.1608C20.106 14.1366 20.6264 13.2893 20.578 13.1743C20.5114 12.9927 20.3722 13.0956 20.1302 13.5253Z" fill="#0C0E29"/>
<path d="M22.5997 14.1306C22.515 14.2032 22.3213 14.3666 22.1761 14.4937C21.9279 14.6995 21.9158 14.7297 22.0066 14.8205C22.0974 14.9113 22.1337 14.8931 22.4605 14.6208C22.9628 14.1972 22.981 14.179 22.9386 14.0822C22.8902 13.9551 22.7752 13.9732 22.5997 14.1306Z" fill="#0C0E29"/>
<path d="M13.0797 14.3362C12.9828 14.4331 13.0615 14.542 13.467 14.8688C13.7151 15.0685 13.9269 15.1956 13.9814 15.1775C14.1569 15.1109 14.0964 15.0262 13.5941 14.6086C13.2067 14.2878 13.1523 14.2636 13.0797 14.3362Z" fill="#0C0E29"/>
<path d="M14.4899 14.9898C14.4899 15.1068 14.5847 15.2017 14.7017 15.2017H14.859C15.2403 15.2017 15.2948 15.1714 15.4642 14.8809C15.5187 14.7841 15.4824 14.778 15.0043 14.778H14.7017C14.5847 14.778 14.4899 14.8729 14.4899 14.9898Z" fill="#0C0E29"/>
<path d="M20.762 14.7844C20.6052 14.7894 20.5254 14.8969 20.6142 15.0262C20.7413 15.1956 20.7655 15.2017 21.2254 15.2017C21.6793 15.2017 21.7036 15.1956 21.6188 15.0927C21.5704 15.0383 21.5159 14.9475 21.4917 14.893C21.4675 14.8204 21.3586 14.7962 21.0136 14.7841C20.9229 14.7819 20.8363 14.7821 20.762 14.7844Z" fill="#0C0E29"/>
<path d="M16.4388 15.2682C16.5841 15.4679 16.7656 15.716 16.8504 15.8189C16.9267 15.9105 17.0691 15.9048 17.1379 15.8073L17.3345 15.5284C17.5161 15.2682 17.6916 15.0201 17.7158 14.9777C17.7521 14.9172 17.6069 14.899 16.9714 14.899H16.6303C16.4404 14.899 16.3294 15.113 16.4388 15.2682Z" fill="#0C0E29"/>
<path d="M18.2781 14.9717C18.4294 15.2138 18.9499 15.9037 18.9923 15.9219C19.0467 15.9461 19.7488 15.0383 19.7548 14.9415C19.7548 14.9173 19.4099 14.8991 18.9923 14.8991C18.4355 14.8991 18.2479 14.9173 18.2781 14.9717Z" fill="#0C0E29"/>
<path d="M15.7849 15.2623C15.6881 15.4015 15.5186 15.6314 15.4097 15.7828C15.2668 15.9707 15.3516 16.1011 15.5877 16.1011C15.7068 16.1011 15.8477 16.0997 15.9967 16.0975L16.0846 16.0953C16.3626 16.0884 16.5225 15.7764 16.3659 15.5467C16.1601 15.2562 15.9907 15.0202 15.9786 15.0202C15.9725 15.0202 15.8878 15.1291 15.7849 15.2623Z" fill="#0C0E29"/>
<path d="M17.776 15.3105C17.6671 15.4679 17.4976 15.7099 17.3948 15.8491C17.3165 15.9577 17.3941 16.1094 17.528 16.1094H18H18.4744C18.6084 16.1094 18.6852 15.9566 18.6052 15.8491C18.4962 15.7099 18.3268 15.4679 18.2178 15.3105C18.115 15.1532 18.0181 15.02 18 15.02C17.9818 15.02 17.8789 15.1532 17.776 15.3105Z" fill="#0C0E29"/>
<path d="M19.6583 15.5163C19.4646 15.7886 19.2951 16.0368 19.283 16.061C19.2709 16.0852 19.6038 16.1094 20.0214 16.1094C20.439 16.1094 20.7839 16.0973 20.7839 16.0791C20.7839 16.0428 20.0577 15.02 20.0335 15.02C20.0274 15.02 19.858 15.2439 19.6583 15.5163Z" fill="#0C0E29"/>
<path d="M10.2113 17.5499C9.83606 18.6816 9.5274 19.6318 9.5274 19.6742C9.5274 19.7226 11.6759 19.7407 18.0244 19.7407H24.2899C25.3886 19.7407 26.165 18.6654 25.8194 17.6225L25.7714 17.4788C25.3771 16.2995 24.2729 15.5043 23.0294 15.5043H21.1933C21.0934 15.5043 21.0374 15.6193 21.0988 15.698C21.1983 15.8243 21.3497 15.8986 21.5104 15.9003L23.0415 15.9159C24.3911 15.928 24.8329 15.9461 24.8571 16.0066C24.9842 16.3334 25.9283 19.2445 25.9283 19.305C25.9283 19.3594 24.1612 19.3776 18.0002 19.3776C11.7001 19.3776 10.0721 19.3594 10.0721 19.305C10.0721 19.2626 10.3202 18.4819 10.6228 17.5802C10.9522 16.5922 11.8737 15.9232 12.9151 15.9162L12.9589 15.9159L14.49 15.9003C14.6507 15.8986 14.8021 15.8243 14.9016 15.698C14.9619 15.6191 14.8998 15.506 14.8009 15.5147L14.6414 15.5285C14.1693 15.5709 14.1693 15.5709 12.2508 15.5285C11.4417 15.5105 10.7157 16.0231 10.4618 16.7915L10.2113 17.5499Z" fill="#0C0E29"/>
<path d="M15.3128 16.4243C15.3491 16.4909 15.918 17.1747 16.0027 17.2595C16.0209 17.2776 16.2509 17.55 16.5172 17.8647C16.7835 18.1794 17.0921 18.5425 17.2071 18.6635C17.4189 18.8935 17.5763 18.9601 17.5763 18.8148C17.5763 18.7543 17.1224 17.0961 16.9348 16.4545C16.9045 16.3638 16.8137 16.3517 16.0875 16.3517C15.452 16.3517 15.2765 16.3698 15.3128 16.4243Z" fill="#0C0E29"/>
<path d="M17.1832 16.4848C17.2014 16.5635 17.3648 17.1264 17.5403 17.7437C17.8368 18.7786 17.8731 18.8633 18.0002 18.8633C18.1273 18.8633 18.1636 18.7786 18.4602 17.7437C18.6357 17.1264 18.7991 16.5635 18.8173 16.4848C18.8328 16.4166 18.7809 16.3517 18.711 16.3517H18.0002H17.2895C17.2196 16.3517 17.1677 16.4166 17.1832 16.4848Z" fill="#0C0E29"/>
<path d="M18.7926 17.4527C18.6171 18.0639 18.4537 18.6328 18.4235 18.7236C18.3751 18.8689 18.3872 18.8931 18.484 18.8931C18.5566 18.8931 18.9742 18.4513 19.6581 17.6524C20.2451 16.9746 20.7232 16.3996 20.7232 16.3815C20.7232 16.3633 20.3601 16.3512 19.9123 16.3512C19.4358 16.3512 19.0171 16.6671 18.8862 17.1252L18.7926 17.4527Z" fill="#0C0E29"/>
<path d="M22.6785 16.6662C22.503 16.6965 22.3577 16.7449 22.3577 16.7691C22.3577 16.7933 22.4909 16.9386 22.6543 17.0959L22.83 17.2645C22.883 17.3153 22.9712 17.2886 22.9871 17.217C23.0779 16.757 23.09 16.5936 23.0477 16.5997C23.0174 16.6057 22.8479 16.636 22.6785 16.6662Z" fill="#0C0E29"/>
<path d="M13.6423 16.6963C13.6423 16.7266 13.6725 16.9081 13.7149 17.1018C13.7436 17.2506 13.9257 17.3085 14.035 17.2036L14.078 17.1623C14.2354 16.9989 14.3685 16.8537 14.3685 16.8295C14.3685 16.8053 14.2414 16.769 14.0901 16.7447C13.9328 16.7266 13.7694 16.6903 13.727 16.6721C13.6786 16.654 13.6423 16.6661 13.6423 16.6963Z" fill="#0C0E29"/>
<path d="M23.1808 16.9446C23.1021 17.4288 23.1142 17.459 23.4047 17.4106C23.9131 17.3319 23.907 17.3319 23.6528 17.0657C23.2897 16.6965 23.2292 16.6783 23.1808 16.9446Z" fill="#0C0E29"/>
<path d="M13.1707 17.0593L12.9797 17.2466C12.9267 17.2986 12.9528 17.3887 13.0254 17.4042C13.1162 17.4224 13.2856 17.4527 13.4067 17.4769C13.5158 17.4946 13.6094 17.3988 13.5893 17.2901L13.5701 17.1864C13.5398 17.0109 13.5096 16.8354 13.4975 16.8051C13.4854 16.7688 13.3401 16.8838 13.1707 17.0593Z" fill="#0C0E29"/>
<path d="M22.212 17.023C22.1844 17.1732 22.1257 17.9068 22.0951 18.4061C22.0757 18.7222 22.2172 18.8253 22.3726 18.5494C22.4271 18.4526 22.4918 18.3323 22.5691 18.185L22.6911 17.958C22.8234 17.7119 22.7788 17.4082 22.5812 17.2106C22.2604 16.8898 22.2423 16.8838 22.212 17.023Z" fill="#0C0E29"/>
<path d="M14.1694 17.2772C13.9648 17.4818 13.9191 17.7966 14.0572 18.0509L14.1694 18.2576C14.363 18.6086 14.5567 18.8931 14.5991 18.8931C14.6777 18.8931 14.6777 18.8689 14.5567 17.4406L14.5547 17.4167C14.5389 17.2244 14.3046 17.1396 14.1694 17.2772Z" fill="#0C0E29"/>
<path d="M23.3926 17.5557C23.3064 17.5714 23.2717 17.6763 23.3316 17.7402L23.4592 17.8765C23.7436 18.1791 23.8707 18.2396 23.8707 18.058C23.8707 18.0036 23.8889 17.8523 23.907 17.7252C23.9433 17.5073 23.9433 17.5012 23.7739 17.5073C23.677 17.5133 23.5076 17.5315 23.3926 17.5557Z" fill="#0C0E29"/>
<path d="M12.8137 17.7434C12.8379 17.8523 12.8561 18.0036 12.8561 18.0823C12.8561 18.161 12.8924 18.2275 12.9348 18.2275C13.0195 18.2275 13.5521 17.695 13.5157 17.6526C13.5036 17.6405 13.3281 17.6163 13.1345 17.5921L12.9786 17.5709C12.8793 17.5575 12.7958 17.6448 12.8137 17.7434Z" fill="#0C0E29"/>
<path d="M24.0881 17.6285C24.076 17.6769 24.0458 17.8464 24.0216 18.0098C24.0003 18.1557 24.1241 18.2815 24.2703 18.2626L24.306 18.2579C24.4815 18.2337 24.6449 18.1974 24.6691 18.1732C24.6994 18.149 24.5844 17.9977 24.4149 17.8343C24.2092 17.6285 24.1063 17.568 24.0881 17.6285Z" fill="#0C0E29"/>
<path d="M12.2869 17.9311C12.1235 18.0946 12.0025 18.2398 12.0146 18.2519C12.0267 18.264 12.1961 18.2943 12.3958 18.3185L12.4197 18.3214C12.5856 18.3414 12.726 18.1998 12.7045 18.034C12.671 17.7914 12.5042 17.7211 12.3278 17.891C12.3143 17.904 12.3006 17.9174 12.2869 17.9311Z" fill="#0C0E29"/>
<path d="M22.6966 18.27L22.4766 18.6619C22.4239 18.7558 22.4863 18.8727 22.5937 18.8812C22.7692 18.8933 22.9326 18.8388 23.2897 18.6452L23.3246 18.6263C23.5425 18.5091 23.5857 18.2149 23.4107 18.04C23.217 17.8403 23.0536 17.6829 23.0415 17.6829C23.0355 17.6829 22.8781 17.9492 22.6966 18.27Z" fill="#0C0E29"/>
<path d="M13.3517 18.0821C13.1702 18.2576 13.0431 18.4331 13.0612 18.4634C13.1581 18.6147 13.7935 18.8931 14.0477 18.8931C14.193 18.8931 14.3079 18.881 14.3079 18.8628C14.3079 18.8368 14.1029 18.4577 13.9333 18.1574C13.7936 17.9102 13.5832 17.8487 13.3831 18.0501C13.3727 18.0606 13.3622 18.0712 13.3517 18.0821Z" fill="#0C0E29"/>
<path d="M24.4455 18.3786C24.4153 18.3907 24.3063 18.415 24.2035 18.4392C24.1315 18.4541 24.1076 18.5449 24.163 18.5933L24.264 18.6812C24.3971 18.7962 24.5545 18.887 24.6089 18.8931C24.7118 18.8931 24.73 18.8507 24.8087 18.4513C24.8208 18.3726 24.7905 18.3484 24.6695 18.3544C24.5787 18.3544 24.4819 18.3665 24.4455 18.3786Z" fill="#0C0E29"/>
<path d="M11.9482 18.5487C11.9482 18.936 12.1661 19.0026 12.4929 18.7181C12.7168 18.5245 12.7107 18.5184 12.2084 18.4397C11.9603 18.4034 11.9482 18.4034 11.9482 18.5487Z" fill="#0C0E29"/>
<path d="M23.477 18.7115C23.392 18.7625 23.4282 18.8931 23.5273 18.8931H23.7131H24.0052C24.0998 18.8931 24.148 18.7795 24.0822 18.7115C23.9854 18.6086 23.8765 18.5299 23.8462 18.5299C23.8099 18.5299 23.6465 18.6147 23.477 18.7115Z" fill="#0C0E29"/>
<path d="M12.6861 18.7418C12.6343 18.8006 12.6761 18.8931 12.7545 18.8931H12.9948H13.2156C13.278 18.8931 13.3017 18.8115 13.249 18.7781C12.9343 18.5844 12.8314 18.5723 12.6861 18.7418Z" fill="#0C0E29"/>
<path d="M9.49693 20.2373C9.51509 20.3159 9.79954 21.7139 10.1263 23.354C10.4895 25.1696 10.7679 26.4164 10.8405 26.5616C10.9131 26.7008 11.0765 26.8642 11.252 26.9731C11.4419 27.0918 11.6612 27.155 11.8851 27.1557L17.8608 27.1729C22.0064 27.1789 24.2638 27.1668 24.4091 27.1244C24.748 27.0337 25.0385 26.8218 25.1656 26.5616C25.2261 26.4345 25.5469 24.9881 25.8737 23.354C26.2005 21.7139 26.4849 20.3159 26.5031 20.2373C26.5186 20.1691 26.4667 20.1041 26.3968 20.1041H23.0534H20.2758C19.8876 20.1041 19.5757 20.4241 19.5856 20.8122C19.5958 21.2108 19.9194 21.53 20.3181 21.5346L22.2062 21.5566L24.627 21.5847C24.7276 21.5859 24.8085 21.6678 24.8085 21.7684C24.8085 21.8689 24.7274 21.9505 24.627 21.9512L22.1941 21.9681L20.2695 21.977C19.8846 21.9788 19.5735 22.2913 19.5735 22.6762C19.5735 23.0606 19.8851 23.3722 20.2695 23.3722H21.9822C23.3016 23.3722 24.4151 23.3964 24.4514 23.4206C24.5543 23.4872 24.5846 23.6324 24.5241 23.7474C24.4757 23.8503 24.2941 23.8564 22.0306 23.8564H19.8942C19.7057 23.8564 19.5338 23.9646 19.4525 24.1347C19.3678 24.3042 19.2225 24.4737 19.0712 24.5705C18.8352 24.7278 18.7928 24.7339 18 24.7339C17.2072 24.7339 17.1648 24.7278 16.9288 24.5705C16.7775 24.4737 16.6323 24.3042 16.5475 24.1347C16.4662 23.9646 16.2944 23.8564 16.1058 23.8564H13.9694C11.6212 23.8564 11.5244 23.8503 11.4638 23.7414C11.3852 23.5901 11.3852 23.578 11.5001 23.469C11.5788 23.3843 11.8935 23.3722 14.0117 23.3722H15.7305C16.1149 23.3722 16.4265 23.0606 16.4265 22.6762C16.4265 22.2913 16.1154 21.9788 15.7305 21.977L13.812 21.9681L11.3731 21.9512C11.2726 21.9505 11.1915 21.8689 11.1915 21.7684C11.1915 21.6679 11.2726 21.5863 11.3731 21.5856L13.812 21.5687L15.7003 21.56C16.1019 21.5581 16.4265 21.232 16.4265 20.8303C16.4265 20.4293 16.1013 20.1041 15.7002 20.1041H12.9466H9.60321C9.53327 20.1041 9.48143 20.1691 9.49693 20.2373ZM24.2336 25.3391C24.3304 25.4541 24.2578 25.6538 24.0944 25.6962C24.0218 25.7143 21.2439 25.7325 17.9274 25.7325C12.5229 25.7325 11.8875 25.7204 11.8028 25.6356C11.6878 25.5207 11.6817 25.4178 11.7785 25.3209C11.833 25.2665 13.2976 25.2483 18.0061 25.2483C23.3076 25.2483 24.167 25.2604 24.2336 25.3391Z" fill="#0C0E29"/>
<path d="M16.8622 21.9614C16.8804 23.6439 16.8925 23.8436 16.9893 23.9888C17.1648 24.243 17.4432 24.3398 17.9939 24.3398C18.5628 24.3398 18.8352 24.2491 18.9986 24.0009C19.1136 23.8375 19.1196 23.6923 19.1378 21.9614L19.1446 21.2593C19.1508 20.6228 18.6366 20.1034 18 20.1034C17.3634 20.1034 16.8491 20.6228 16.8554 21.2593L16.8622 21.9614ZM18.3207 21.1807C18.4115 21.2594 18.4236 21.3925 18.4236 22.1974V22.9249C18.4236 23.05 18.3655 23.1681 18.2663 23.2444C18.1755 23.3171 18.0605 23.3715 18 23.3715C17.9395 23.3715 17.8245 23.3171 17.7337 23.2444C17.6345 23.1681 17.5763 23.05 17.5763 22.9249V22.1974C17.5763 21.3925 17.5885 21.2594 17.6853 21.1807C17.8789 21.0052 18.115 21.0052 18.3207 21.1807Z" fill="#0C0E29"/>
<defs>
<filter id="filter0_b_2063_25897" x="-22.2" y="-22.2" width="80.4" height="80.4" filterUnits="userSpaceOnUse" color-interpolation-filters="sRGB">
<feFlood flood-opacity="0" result="BackgroundImageFix"/>
<feGaussianBlur in="BackgroundImageFix" stdDeviation="11.1"/>
<feComposite in2="SourceAlpha" operator="in" result="effect1_backgroundBlur_2063_25897"/>
<feBlend mode="normal" in="SourceGraphic" in2="effect1_backgroundBlur_2063_25897" result="shape"/>
</filter>
</defs>
</svg>
