<svg width="30" height="24" viewBox="0 0 30 24" fill="none" xmlns="http://www.w3.org/2000/svg">
<g id="check_circle_FILL1_wght400_GRAD0_opsz24 1">
<path id="Vector" d="M25 11.4931C24.993 10.7472 24.6902 10.0341 24.1571 9.50831L18.0286 3.41225C17.7609 3.14821 17.3988 3 17.0214 3C16.644 3 16.2819 3.14821 16.0143 3.41225C15.8804 3.54405 15.7741 3.70084 15.7016 3.8736C15.6291 4.04636 15.5917 4.23166 15.5917 4.41881C15.5917 4.60596 15.6291 4.79126 15.7016 4.96402C15.7741 5.13678 15.8804 5.29358 16.0143 5.42537L20.7143 10.0754H6.42857C6.04969 10.0754 5.68633 10.2248 5.41842 10.4906C5.15051 10.7565 5 11.1171 5 11.4931C5 11.8691 5.15051 12.2297 5.41842 12.4955C5.68633 12.7614 6.04969 12.9108 6.42857 12.9108H20.7143L16.0143 17.575C15.7453 17.84 15.5934 18.2003 15.5921 18.5765C15.5907 18.9527 15.74 19.314 16.0071 19.581C16.2743 19.8479 16.6373 19.9987 17.0164 20C17.3955 20.0013 17.7596 19.8531 18.0286 19.5881L24.1571 13.492C24.6937 12.9627 24.9968 12.2438 25 11.4931Z" fill="#FFB92B"/>
</g>
</svg>
