<svg width="807" height="188" viewBox="0 0 807 188" fill="none" xmlns="http://www.w3.org/2000/svg">
<path d="M0.333333 175.5C0.333333 181.391 5.10896 186.167 11 186.167C16.891 186.167 21.6667 181.391 21.6667 175.5C21.6667 169.609 16.891 164.833 11 164.833C5.10896 164.833 0.333333 169.609 0.333333 175.5ZM806.5 175.5L786.5 163.953V187.047L806.5 175.5ZM11 177.5H248V173.5H11V177.5ZM276 149.5V28H272V149.5H276ZM300 4H514.5V0H300V4ZM538.5 28V149.5H542.5V28H538.5ZM566.5 177.5H788.5V173.5H566.5V177.5ZM538.5 149.5C538.5 164.964 551.036 177.5 566.5 177.5V173.5C553.245 173.5 542.5 162.755 542.5 149.5H538.5ZM514.5 4C527.755 4 538.5 14.7452 538.5 28H542.5C542.5 12.536 529.964 0 514.5 0V4ZM276 28C276 14.7452 286.745 4 300 4V0C284.536 0 272 12.536 272 28H276ZM248 177.5C263.464 177.5 276 164.964 276 149.5H272C272 162.755 261.255 173.5 248 173.5V177.5Z" fill="url(#paint0_linear_249_22079)"/>
<defs>
<linearGradient id="paint0_linear_249_22079" x1="177.798" y1="2" x2="218.476" y2="207.204" gradientUnits="userSpaceOnUse">
<stop stop-color="#F67803"/>
<stop offset="1" stop-color="#FFD644"/>
</linearGradient>
</defs>
</svg>
