<svg width="40" height="40" viewBox="0 0 40 40" fill="none" xmlns="http://www.w3.org/2000/svg">
<g id="Frame 9695">
<g id="Group 2979">
<path id="Vector" d="M24.4619 0V15.5298H39.9999C39.9797 11.4159 38.3359 7.47632 35.4261 4.56805C32.5163 1.65977 28.5759 0.0180585 24.4619 0Z" fill="#FFB92B"/>
<path id="Vector_2" d="M20.4856 5.59743L20.4644 3.14405H18.011C13.5347 3.13918 9.2173 4.80319 5.90214 7.81105C2.58698 10.8189 0.512158 14.9546 0.0829388 19.4103C-0.346281 23.866 0.900929 28.3217 3.58096 31.9071C6.26099 35.4925 10.1813 37.95 14.5763 38.7997C15.6964 39.0153 16.8344 39.1248 17.975 39.1268C22.7474 39.1187 27.3226 37.2217 30.7006 33.8504C34.0786 30.4792 35.9847 25.9078 36.0024 21.1354V18.6821H20.4644L20.4856 5.59743ZM30.8601 23.5888C30.4101 25.9175 29.3344 28.0797 27.7485 29.8433C26.1627 31.6069 24.1264 32.9054 21.8584 33.5993C19.5905 34.2933 17.1763 34.3565 14.8751 33.7822C12.5739 33.208 10.4725 32.0179 8.79647 30.3397C7.12044 28.6615 5.93305 26.5586 5.36173 24.2566C4.79041 21.9547 4.85674 19.5406 5.55359 17.2735C6.25044 15.0064 7.55151 12.9719 9.31716 11.3883C11.0828 9.80464 13.2464 8.73173 15.5756 8.28469L15.5576 23.5888H30.8601Z" fill="#F65A03"/>
</g>
</g>
</svg>
