<svg width="22" height="22" viewBox="0 0 22 22" fill="none" xmlns="http://www.w3.org/2000/svg">
<path d="M10.9998 14.6636C13.024 14.6636 14.6651 13.0226 14.6651 10.9983C14.6651 8.97402 13.024 7.33301 10.9998 7.33301C8.97548 7.33301 7.33447 8.97402 7.33447 10.9983C7.33447 13.0226 8.97548 14.6636 10.9998 14.6636Z" fill="white"/>
<path d="M21.3279 8.63359C19.9067 6.31895 16.6739 2.43555 11 2.43555C5.32608 2.43555 2.09328 6.31895 0.672061 8.63359C-0.22402 10.083 -0.22402 11.9143 0.672061 13.3637C2.09328 15.6783 5.32608 19.5617 11 19.5617C16.6739 19.5617 19.9067 15.6783 21.3279 13.3637C22.224 11.9143 22.224 10.083 21.3279 8.63359ZM11 16.4966C7.96356 16.4966 5.50202 14.035 5.50202 10.9986C5.50202 7.9622 7.96356 5.50066 11 5.50066C14.0364 5.50066 16.4979 7.9622 16.4979 10.9986C16.4949 14.0338 14.0352 16.4935 11 16.4966Z" fill="white"/>
</svg>
