<svg width="24" height="24" viewBox="0 0 24 24" fill="none" xmlns="http://www.w3.org/2000/svg">
<path d="M15.7847 8.36397C15.2345 8.36388 14.707 8.14527 14.318 7.75622L10.5083 3.95022L8.60899 5.85872L6.66016 3.90988L9.03891 1.53113C9.43466 1.15265 9.96117 0.941406 10.5088 0.941406C11.0564 0.941406 11.5829 1.15265 11.9787 1.53113L15.7847 5.33622L19.7364 1.38447L21.6816 3.32963L17.2541 7.75622C17.0613 7.94935 16.8322 8.10246 16.58 8.20676C16.3279 8.31106 16.0575 8.36449 15.7847 8.36397Z" fill="#646D7C"/>
<path d="M20.25 8.33301H23V17.4997H20.25V8.33301Z" fill="#646D7C"/>
<path d="M10.168 9.25H7.41797V17.5H10.168V9.25Z" fill="#646D7C"/>
<path d="M16.582 12H13.832V17.5H16.582V12Z" fill="#646D7C"/>
<path d="M4.20833 23H23V20.25H4.20833C4.08678 20.25 3.9702 20.2017 3.88424 20.1158C3.79829 20.0298 3.75 19.9132 3.75 19.7917V1H1V19.7917C1 20.6426 1.33802 21.4586 1.9397 22.0603C2.54138 22.662 3.35743 23 4.20833 23Z" fill="#646D7C"/>
</svg>
