<svg width="22" height="22" viewBox="0 0 22 22" fill="none" xmlns="http://www.w3.org/2000/svg">
<g clip-path="url(#clip0_1166_7351)">
<path d="M5.5 19.25C5.5 20.7689 4.26892 22 2.75 22C1.23108 22 0 20.7689 0 19.25C0 17.7311 1.23108 16.5 2.75 16.5C4.26892 16.5 5.5 17.7311 5.5 19.25ZM1.375 0C0.615083 0 0 0.615083 0 1.375C0 2.13492 0.615083 2.75 1.375 2.75C11.231 2.75 19.25 10.769 19.25 20.625C19.25 21.3849 19.8651 22 20.625 22C21.3849 22 22 21.3849 22 20.625C22 9.25192 12.7481 0 1.375 0ZM1.375 8.25C0.615083 8.25 0 8.86508 0 9.625C0 10.3849 0.615083 11 1.375 11C6.6825 11 11 15.3175 11 20.625C11 21.3849 11.6151 22 12.375 22C13.1349 22 13.75 21.3849 13.75 20.625C13.75 13.8013 8.19867 8.25 1.375 8.25Z" fill="#A6ABB4"/>
</g>
<defs>
<clipPath id="clip0_1166_7351">
<rect width="22" height="22" fill="white"/>
</clipPath>
</defs>
</svg>
