<svg width="24" height="24" viewBox="0 0 24 24" fill="none" xmlns="http://www.w3.org/2000/svg">
<path d="M1 12V7.41667H10.1667V12H1ZM10.1667 5.58333V1H1V5.58333H10.1667ZM10.1667 13.8333V18.4167C10.1667 20.9476 8.11425 23 5.58333 23C3.05242 23 1 20.9476 1 18.4167V13.8333H10.1667ZM6.95833 18.4167C6.95833 17.6577 6.34233 17.0417 5.58333 17.0417C4.82433 17.0417 4.20833 17.6577 4.20833 18.4167C4.20833 19.1757 4.82433 19.7917 5.58333 19.7917C6.34233 19.7917 6.95833 19.1757 6.95833 18.4167ZM10.1667 5.58333V1H1V5.58333H10.1667ZM10.1667 13.8333V18.4167C10.1667 20.9476 8.11425 23 5.58333 23C3.05242 23 1 20.9476 1 18.4167V13.8333H10.1667ZM6.95833 18.4167C6.95833 17.6577 6.34233 17.0417 5.58333 17.0417C4.82433 17.0417 4.20833 17.6577 4.20833 18.4167C4.20833 19.1757 4.82433 19.7917 5.58333 19.7917C6.34233 19.7917 6.95833 19.1757 6.95833 18.4167ZM12 18.4167C12 18.4387 12 18.4607 12 18.4827L21.1401 9.34258L14.6583 2.86083L12.0009 5.51825V18.4167H12ZM10.0741 23H23V13.8333H19.2417L10.0741 23Z" fill="#646D7C"/>
</svg>
