<svg width="23" height="22" viewBox="0 0 23 22" fill="none" xmlns="http://www.w3.org/2000/svg">
<g clip-path="url(#clip0_1166_7355)">
<path d="M6 19.25C6 20.7689 4.76892 22 3.25 22C1.73108 22 0.5 20.7689 0.5 19.25C0.5 17.7311 1.73108 16.5 3.25 16.5C4.76892 16.5 6 17.7311 6 19.25ZM1.875 0C1.11508 0 0.5 0.615083 0.5 1.375C0.5 2.13492 1.11508 2.75 1.875 2.75C11.731 2.75 19.75 10.769 19.75 20.625C19.75 21.3849 20.3651 22 21.125 22C21.8849 22 22.5 21.3849 22.5 20.625C22.5 9.25192 13.2481 0 1.875 0ZM1.875 8.25C1.11508 8.25 0.5 8.86508 0.5 9.625C0.5 10.3849 1.11508 11 1.875 11C7.1825 11 11.5 15.3175 11.5 20.625C11.5 21.3849 12.1151 22 12.875 22C13.6349 22 14.25 21.3849 14.25 20.625C14.25 13.8013 8.69867 8.25 1.875 8.25Z" fill="#A6ABB4"/>
</g>
<defs>
<clipPath id="clip0_1166_7355">
<rect width="22" height="22" fill="white" transform="translate(0.5)"/>
</clipPath>
</defs>
</svg>
