<svg width="24" height="24" viewBox="0 0 24 24" fill="none" xmlns="http://www.w3.org/2000/svg">
<path d="M17.6999 3.08477C16.8397 2.30922 15.8232 1.72709 14.719 1.37763C13.6148 1.02817 12.4485 0.919498 11.2988 1.05894C9.72519 1.26846 8.24306 1.91915 7.02381 2.93575C5.80455 3.95235 4.89798 5.29333 4.40894 6.8036C3.9199 8.31387 3.86838 9.93172 4.26032 11.47C4.65227 13.0084 5.47168 14.4043 6.62377 15.4964C7.49919 16.3224 7.67427 17.5039 7.67427 19.1347V19.2749C7.66964 20.2579 8.05511 21.2025 8.74612 21.9016C9.43714 22.6007 10.3772 22.9972 11.3602 23.0039H13.155C14.138 22.9972 15.0781 22.6007 15.7691 21.9016C16.4601 21.2025 16.8456 20.2579 16.8409 19.2749V18.7955C16.8409 17.2647 16.9784 16.3123 17.7044 15.6651C18.5873 14.8722 19.2934 13.9024 19.7767 12.8187C20.2601 11.7349 20.5099 10.5616 20.5099 9.37494C20.5099 8.1883 20.2601 7.01496 19.7767 5.93122C19.2934 4.84749 18.5873 3.87764 17.7044 3.08477H17.6999ZM14.0909 19.2749C14.0964 19.5288 14.0009 19.7744 13.8254 19.958C13.6499 20.1415 13.4089 20.2479 13.155 20.2539H11.3602C11.1064 20.2479 10.8653 20.1415 10.6898 19.958C10.5144 19.7744 10.4189 19.5288 10.4243 19.2749V19.1347C10.4243 18.8973 10.4243 18.6589 10.4114 18.4206H14.0964C14.0964 18.5462 14.0909 18.6718 14.0909 18.7955V19.2749ZM15.8739 13.6127C15.2493 14.1695 14.7794 14.8785 14.5099 15.6706H13.6326V11.1634C14.0491 10.9237 14.3953 10.5788 14.6366 10.1633C14.8779 9.74773 15.0058 9.27612 15.0076 8.7956C15.0076 8.43093 14.8627 8.08119 14.6049 7.82333C14.347 7.56547 13.9973 7.4206 13.6326 7.4206C13.2679 7.4206 12.9182 7.56547 12.6603 7.82333C12.4025 8.08119 12.2576 8.43093 12.2576 8.7956C12.2576 8.43093 12.1127 8.08119 11.8549 7.82333C11.597 7.56547 11.2473 7.4206 10.8826 7.4206C10.5179 7.4206 10.1682 7.56547 9.91033 7.82333C9.65247 8.08119 9.50761 8.43093 9.50761 8.7956C9.50938 9.27612 9.63732 9.74773 9.87863 10.1633C10.1199 10.5788 10.4661 10.9237 10.8826 11.1634V15.6706H9.93111C9.63808 14.846 9.15439 14.1022 8.51944 13.4999C7.86812 12.8821 7.37295 12.1183 7.07476 11.2716C6.77657 10.4248 6.68389 9.5193 6.80436 8.62969C6.958 7.40452 7.5137 6.26491 8.38441 5.3894C9.25511 4.51389 10.3916 3.95191 11.6159 3.79152C11.8289 3.76647 12.0432 3.75392 12.2576 3.75394C13.5915 3.7507 14.8788 4.24375 15.8693 5.13719C16.4633 5.67168 16.9384 6.32503 17.2637 7.05489C17.589 7.78475 17.7574 8.57483 17.7578 9.37392C17.7582 10.173 17.5908 10.9633 17.2662 11.6935C16.9417 12.4237 16.4673 13.0776 15.8739 13.6127Z" fill="#646D7C"/>
</svg>
