<svg width="24" height="24" viewBox="0 0 24 24" fill="none" xmlns="http://www.w3.org/2000/svg">
<path d="M22.9979 12.001C22.9979 18.0688 18.0667 23 11.999 23C5.93121 23 1 18.0688 1 12.001C1 5.93326 5.93121 1.00206 11.999 1.00206C12.1731 1.00206 12.3473 1.00206 12.5214 1.01123C13.2822 1.04789 13.8688 1.6895 13.8321 2.45026C13.7955 3.21102 13.1722 3.7793 12.3931 3.76097C12.2648 3.76097 12.1273 3.7518 11.999 3.7518C7.45273 3.7518 3.74974 7.45479 3.74974 12.001C3.74974 16.5473 7.45273 20.2503 11.999 20.2503C16.5452 20.2503 20.2482 16.5473 20.2482 12.001C20.2482 11.8727 20.2482 11.7352 20.239 11.6069C20.2024 10.8461 20.789 10.2045 21.5497 10.1679C22.3288 10.1404 22.9521 10.7178 22.9888 11.4786C22.9888 11.6527 22.9979 11.8269 22.9979 12.001ZM10.9999 8.47219C11.7332 8.26138 12.1548 7.50978 11.9531 6.77652C11.7515 6.04325 10.9816 5.62163 10.2575 5.82328C7.50772 6.60237 5.59207 9.1413 5.59207 12.001C5.59207 15.539 8.47013 18.4171 12.0081 18.4171C14.8679 18.4171 17.4068 16.5014 18.1859 13.7517C18.3967 13.0184 17.9659 12.2577 17.2326 12.056C16.4994 11.8452 15.7386 12.276 15.537 13.0093C15.097 14.5766 13.6397 15.6765 12.0081 15.6765C9.98249 15.6765 8.34181 14.0358 8.34181 12.0102C8.34181 10.3787 9.44171 8.92132 11.0091 8.48136L10.9999 8.47219ZM11.0274 11.0295C10.4866 11.5702 10.4866 12.441 11.0274 12.9726C11.2932 13.2384 11.6507 13.3759 11.999 13.3759C12.3473 13.3759 12.7047 13.2384 12.9705 12.9726L17.6084 8.33471H19.7899C20.1565 8.33471 20.5048 8.18805 20.7615 7.93141L22.5946 6.09825C22.9888 5.70412 23.1079 5.11751 22.8971 4.60422C22.6863 4.09094 22.1822 3.7518 21.6231 3.7518H20.2482V2.37693C20.2482 1.81782 19.9091 1.32286 19.3958 1.10288C18.8825 0.89207 18.2867 1.01123 17.9018 1.40535L16.0686 3.23852C15.8119 3.49516 15.6653 3.84346 15.6653 4.21009V6.39155L11.0274 11.0295Z" fill="#646D7C"/>
</svg>
