<svg width="24" height="24" viewBox="0 0 24 24" fill="none" xmlns="http://www.w3.org/2000/svg">
<path d="M23 10.2501L20.9778 1H3.02217L1.033 9.95217L1 11.1255C1.00347 12.023 1.31219 12.8926 1.87542 13.5913V20.25C1.87542 20.9793 2.16515 21.6788 2.68087 22.1945C3.1966 22.7103 3.89607 23 4.62542 23H19.3746C20.1039 23 20.8034 22.7103 21.3191 22.1945C21.8349 21.6788 22.1246 20.9793 22.1246 20.25V13.5913C22.6878 12.8926 22.9965 12.023 23 11.1255V10.2501ZM3.75 10.4013L5.22767 3.75H7.12517V6.74933H9.87517V3.75H14.1248V6.74933H16.8748V3.75H18.7723L20.25 10.4013V11.1255C20.2495 11.4569 20.1176 11.7745 19.8832 12.0088C19.6488 12.243 19.331 12.3747 18.9997 12.3749H18.1252C17.7938 12.3747 17.476 12.243 17.2416 12.0088C17.0072 11.7745 16.8753 11.4569 16.8748 11.1255H14.1248C14.1246 11.4568 13.9929 11.7744 13.7586 12.0087C13.5244 12.243 13.2067 12.3747 12.8754 12.3749H11.1246C10.7933 12.3747 10.4756 12.243 10.2414 12.0087C10.0071 11.7744 9.87541 11.4568 9.87517 11.1255H7.12517C7.12468 11.4569 6.99277 11.7745 6.75836 12.0088C6.52396 12.243 6.20621 12.3747 5.87483 12.3749H5.00033C4.66896 12.3747 4.35121 12.243 4.11681 12.0088C3.8824 11.7745 3.75049 11.4569 3.75 11.1255V10.4013ZM4.62542 20.25V15.0873C4.75008 15.0993 4.872 15.1249 5.00033 15.1249H5.87483C6.84368 15.1205 7.77745 14.7618 8.50017 14.1166C9.22251 14.7619 10.156 15.1205 11.1246 15.1249H12.8754C13.8405 15.1257 14.773 14.7762 15.4998 14.1413C16.227 14.7763 17.1598 15.1258 18.1252 15.1249H18.9997C19.128 15.1249 19.2499 15.0993 19.3746 15.0873V20.25H4.62542Z" fill="#646D7C"/>
</svg>
