<svg width="22" height="22" viewBox="0 0 22 22" fill="none" xmlns="http://www.w3.org/2000/svg">
<g clip-path="url(#clip0_1166_7341)">
<path d="M16.5001 7.79153C16.5001 8.24477 16.3657 8.68784 16.1139 9.06469C15.8621 9.44155 15.5042 9.73527 15.0854 9.90872C14.6667 10.0822 14.2059 10.1275 13.7614 10.0391C13.3169 9.9507 12.9085 9.73244 12.588 9.41196C12.2676 9.09147 12.0493 8.68314 11.9609 8.23861C11.8725 7.79408 11.9178 7.33331 12.0913 6.91457C12.2647 6.49583 12.5585 6.13793 12.9353 5.88612C13.3122 5.63431 13.7552 5.49991 14.2085 5.49991C14.8162 5.49991 15.3991 5.74135 15.8289 6.17111C16.2587 6.60087 16.5001 7.18376 16.5001 7.79153ZM15.2709 16.2366C15.0917 16.9408 14.8373 17.6237 14.5119 18.2734C13.911 19.4097 13.0089 20.3585 11.9043 21.0158C10.7998 21.6731 9.53551 22.0135 8.25025 21.9996H7.3336V17.5474C7.31701 16.7885 7.00815 16.0653 6.47141 15.5286C5.93466 14.9918 5.21146 14.683 4.45257 14.6664H0.000407946V13.7498C-0.0134686 12.4645 0.326913 11.2002 0.984212 10.0957C1.64151 8.99114 2.59033 8.08896 3.72659 7.48812C4.37629 7.16272 5.05916 6.90826 5.76338 6.72914C9.13023 2.18164 13.0361 0.163181 18.7532 1.75296e-05H18.7917C19.2174 -0.00139176 19.639 0.0821866 20.032 0.245853C20.4249 0.40952 20.7812 0.649982 21.0801 0.953144C21.3789 1.25631 21.6141 1.61607 21.7721 2.01134C21.9301 2.40661 22.0075 2.82944 22 3.25504C21.835 9.05376 19.8789 12.8331 15.2709 16.2366ZM19.25 3.21562C19.252 3.09515 19.2065 2.97874 19.1233 2.89159C19.0401 2.80444 18.9259 2.75356 18.8055 2.74996C13.7996 2.89846 10.7032 4.5521 7.77084 8.64493C7.01054 9.73361 6.33453 10.8788 5.74871 12.0705C6.75823 12.3247 7.68002 12.8477 8.41616 13.5838C9.15229 14.32 9.67528 15.2418 9.92955 16.2513C11.1213 15.6657 12.2665 14.9897 13.3551 14.2292C17.4552 11.2904 19.1089 8.20311 19.25 3.21562ZM1.49546 17.167C0.785976 17.8747 0.348735 20.0114 0.193821 20.8996L0.000407946 21.9996L1.10039 21.8053C1.98129 21.6494 4.10516 21.2104 4.81465 20.499C5.25434 20.056 5.50108 19.4572 5.50108 18.833C5.50108 18.2089 5.25434 17.61 4.81465 17.167C4.36851 16.7383 3.77379 16.4989 3.15506 16.4989C2.53633 16.4989 1.9416 16.7383 1.49546 17.167Z" fill="#A6ABB4"/>
</g>
<defs>
<clipPath id="clip0_1166_7341">
<rect width="22" height="22" fill="white"/>
</clipPath>
</defs>
</svg>
