<svg width="24" height="24" viewBox="0 0 24 24" fill="none" xmlns="http://www.w3.org/2000/svg">
<path d="M11.0833 11.0833L23 15.1597L17.6687 17.6687L15.1597 23L11.0833 11.0833ZM11.8561 19.0061L13.199 22.9312C12.8048 22.9743 12.4061 23 12.0009 23C5.93442 23 1 18.0656 1 12C1 5.93442 5.93442 1 12 1C18.0656 1 23 5.93442 23 12C23 12.4052 22.9743 12.8048 22.9312 13.199L20.2363 12.2768C20.239 12.1842 20.25 12.0935 20.25 12C20.25 8.47083 18.0225 5.45225 14.8994 4.27617C15.8463 6.01417 16.8363 8.43508 17.0087 11.1723L14.1358 10.1896C13.7618 7.94833 12.7783 6.0105 12.0028 4.75925C11.0228 6.34233 9.70925 9.02083 9.70925 11.9991L9.76792 12.8993C9.98058 15.3862 11.0008 17.5798 11.857 19.0052L11.8561 19.0061ZM3.8655 10.625H7.02983C7.28925 8.11333 8.2105 5.89958 9.09508 4.27892C6.38908 5.30008 4.35775 7.7045 3.8655 10.625ZM9.096 19.722C8.2105 18.1013 7.29017 15.8867 7.03075 13.375H3.8655C4.35775 16.2964 6.39 18.7008 9.096 19.722Z" fill="#646D7C"/>
</svg>
