<svg width="40" height="40" viewBox="0 0 40 40" fill="none" xmlns="http://www.w3.org/2000/svg">
<path d="M8.18182 40H2.72727C1.22182 40 0 38.7782 0 37.2727V31.8182C0 30.3127 1.22182 29.0909 2.72727 29.0909H8.18182C9.68727 29.0909 10.9091 30.3127 10.9091 31.8182V37.2727C10.9091 38.7782 9.68727 40 8.18182 40ZM25.4545 8.18182V2.72727C25.4545 1.22182 24.2327 0 22.7273 0H17.2727C15.7673 0 14.5455 1.22182 14.5455 2.72727V8.18182C14.5455 9.68727 15.7673 10.9091 17.2727 10.9091H22.7273C24.2327 10.9091 25.4545 9.68727 25.4545 8.18182ZM40 37.2727V31.8182C40 30.3127 38.7782 29.0909 37.2727 29.0909H31.8182C30.3127 29.0909 29.0909 30.3127 29.0909 31.8182V37.2727C29.0909 38.7782 30.3127 40 31.8182 40H37.2727C38.7782 40 40 38.7782 40 37.2727Z" fill="#F65A03"/>
<path d="M25.4553 31.8186V37.2732C25.4553 38.7786 24.2334 40.0004 22.728 40.0004H17.2734C15.768 40.0004 14.5462 38.7786 14.5462 37.2732V31.8186C14.5462 30.3132 15.768 29.0914 17.2734 29.0914H22.728C24.2334 29.0914 25.4553 30.3132 25.4553 31.8186Z" fill="#FFB92B"/>
<path d="M18.1825 17.2732V22.7277C18.1825 24.2332 16.9607 25.455 15.4553 25.455H10.0007C8.49526 25.455 7.27344 24.2332 7.27344 22.7277V17.2732C7.27344 15.7677 8.49526 14.5459 10.0007 14.5459H15.4553C16.9607 14.5459 18.1825 15.7677 18.1825 17.2732Z" fill="#FFB92B"/>
<path d="M32.728 17.2732V22.7277C32.728 24.2332 31.5062 25.455 30.0007 25.455H24.5462C23.0407 25.455 21.8189 24.2332 21.8189 22.7277V17.2732C21.8189 15.7677 23.0407 14.5459 24.5462 14.5459H30.0007C31.5062 14.5459 32.728 15.7677 32.728 17.2732Z" fill="#FFB92B"/>
</svg>
