<svg width="42" height="42" viewBox="0 0 42 42" fill="none" xmlns="http://www.w3.org/2000/svg">
<path d="M25.8125 0.456055V16.635H41.9999C41.9789 12.3491 40.2664 8.24485 37.235 5.21502C34.2035 2.1852 30.0984 0.474868 25.8125 0.456055Z" fill="#FFB92B"/>
<path d="M21.6739 6.28639L21.6517 3.73048H19.0958C14.4324 3.7254 9.93457 5.45896 6.48085 8.59254C3.02713 11.7261 0.865595 16.0347 0.418436 20.6766C-0.0287224 25.3185 1.27062 29.9604 4.06266 33.6957C6.8547 37.4309 10.9389 39.9912 15.5175 40.8764C16.6845 41.101 17.87 41.2151 19.0583 41.2172C24.0302 41.2087 28.7966 39.2324 32.3158 35.7202C35.8349 32.2081 37.8207 27.4457 37.8392 22.4738V19.9179H21.6517L21.6739 6.28639ZM32.482 25.0297C32.0131 27.4558 30.8925 29.7083 29.2403 31.5456C27.5882 33.383 25.4669 34.7357 23.1041 35.4586C20.7413 36.1816 18.2262 36.2475 15.8288 35.6492C13.4314 35.0509 11.2422 33.8111 9.49615 32.0628C7.75007 30.3144 6.51305 28.1236 5.91786 25.7255C5.32266 23.3273 5.39176 20.8124 6.11774 18.4505C6.84371 16.0886 8.19916 13.9691 10.0386 12.3193C11.878 10.6695 14.132 9.5517 16.5587 9.08597L16.5399 25.0297H32.482Z" fill="#F65A03"/>
</svg>
