<svg width="24" height="24" viewBox="0 0 24 24" fill="none" xmlns="http://www.w3.org/2000/svg">
<path fill-rule="evenodd" clip-rule="evenodd" d="M11.9906 1.21875C12.0469 1.21875 12.1734 1.26094 12.2672 1.30781C12.3656 1.35469 12.4922 1.44844 12.5484 1.50938C12.6047 1.56563 12.6703 1.67344 12.6984 1.74844C12.7266 1.81875 12.75 2.07656 12.75 2.76562H16.7906C20.0203 2.76562 20.8828 2.77969 21.0703 2.83125C21.1969 2.86406 21.4219 2.95312 21.5625 3.02344C21.7031 3.09375 21.9375 3.27188 22.0828 3.41719C22.2281 3.5625 22.4016 3.79688 22.4766 3.9375C22.5469 4.07812 22.6453 4.35469 22.6922 4.54688C22.7766 4.87969 22.7812 5.16094 22.7812 10.4766C22.7812 15.2437 22.7672 16.1016 22.7109 16.3828C22.6734 16.5656 22.575 16.8469 22.4953 17.0156C22.4062 17.2031 22.2469 17.4188 22.0828 17.5828C21.9375 17.7281 21.7031 17.9062 21.5625 17.9766C21.4219 18.0469 21.1969 18.1359 21.0703 18.1688C20.8828 18.2203 20.0203 18.2344 12.75 18.2344V19.1953L13.9641 20.4141C14.8266 21.2812 15.1922 21.675 15.2156 21.7734C15.2344 21.8484 15.2391 21.9984 15.225 22.1016C15.2156 22.2047 15.1641 22.3547 15.1078 22.4297C15.0562 22.5047 14.9156 22.6172 14.7984 22.6781C14.6766 22.7344 14.5359 22.7812 14.4844 22.7812C14.4328 22.7812 14.3203 22.7484 14.2359 22.7062C14.1563 22.6641 13.6172 22.1625 12 20.5547L10.9547 21.5953C10.3828 22.1625 9.84375 22.6641 9.75937 22.7062C9.67969 22.7484 9.56719 22.7812 9.51562 22.7812C9.46406 22.7812 9.32344 22.7344 9.20156 22.6781C9.08438 22.6172 8.94375 22.5047 8.89219 22.4297C8.83594 22.3547 8.78437 22.2047 8.775 22.1016C8.76094 21.9984 8.76562 21.8484 8.78437 21.7734C8.80781 21.675 9.17344 21.2812 11.25 19.1953V18.2344H7.20469C3.61406 18.2344 3.13594 18.225 2.90625 18.1594C2.76562 18.1172 2.54062 18.0281 2.41406 17.9625C2.28281 17.8969 2.0625 17.7281 1.91719 17.5828C1.77188 17.4375 1.59844 17.2031 1.52344 17.0625C1.45312 16.9219 1.35469 16.6453 1.30781 16.4531C1.22344 16.1203 1.21875 15.8391 1.21875 10.5234C1.21875 5.75625 1.23281 4.89844 1.28906 4.61719C1.32656 4.43906 1.425 4.15313 1.50469 3.98438C1.59375 3.79688 1.75313 3.58125 1.91719 3.41719C2.0625 3.27188 2.28281 3.10313 2.41406 3.0375C2.54062 2.97188 2.76562 2.88281 2.90625 2.84062C3.13594 2.775 3.61406 2.76562 11.25 2.76562V2.32031C11.25 2.04844 11.2734 1.81406 11.3156 1.725C11.3484 1.64062 11.4281 1.52344 11.4891 1.47187C11.55 1.41562 11.6625 1.33594 11.7422 1.29844C11.8172 1.25625 11.9297 1.22344 11.9859 1.21875H11.9906ZM2.89687 4.56563L2.79375 4.71094V16.2891C2.94844 16.5047 3.06562 16.6078 3.16406 16.65C3.32344 16.7297 3.84375 16.7344 12.0047 16.7344C20.1656 16.7344 20.6859 16.7297 20.8453 16.65C20.9438 16.6078 21.0609 16.5047 21.1172 16.4297L21.2156 16.2891V4.71094C21.0609 4.49062 20.9438 4.39219 20.8453 4.34531C20.6859 4.27031 20.1656 4.26562 11.9953 4.26562C4.09219 4.26562 3.29531 4.275 3.15469 4.34531C3.07031 4.3875 2.95312 4.48594 2.89687 4.56563ZM10.8094 6.01875C10.9406 6.02812 11.0953 6.07969 11.1609 6.13125C11.2266 6.17813 11.325 6.29063 11.4937 6.53906V11.9766L11.3859 12.1406C11.325 12.2297 11.1844 12.3516 11.0672 12.4125C10.8938 12.5016 10.8188 12.5156 10.6453 12.4875C10.4953 12.4641 10.3828 12.4031 10.2563 12.2859C10.1578 12.1922 10.0547 12.0422 10.0312 11.9531C10.0078 11.8594 9.99375 10.6875 10.0125 6.53906L10.1297 6.375C10.1953 6.28594 10.3219 6.16406 10.4109 6.10312C10.5422 6.01875 10.6219 6 10.8094 6.01875ZM15.8484 7.0125C15.9375 7.02656 16.0828 7.07813 16.1672 7.12969C16.2469 7.17656 16.3594 7.30312 16.4109 7.40625C16.5 7.58437 16.5047 7.6875 16.5047 9.75C16.5047 11.8125 16.5 11.9156 16.4109 12.0938C16.3547 12.2016 16.2422 12.3234 16.1437 12.3844C16.0312 12.45 15.8859 12.4875 15.7547 12.4875C15.6234 12.4875 15.4781 12.45 15.3703 12.3844C15.2672 12.3234 15.1547 12.2016 15.0984 12.0938C15.0094 11.9156 15.0047 11.8125 15.0047 9.75C15.0047 7.73438 15.0094 7.58437 15.0938 7.41562C15.1406 7.32187 15.2203 7.20937 15.2672 7.17188C15.3141 7.13438 15.4266 7.07344 15.5203 7.04531C15.6094 7.0125 15.7594 6.99844 15.8484 7.0125ZM13.2703 8.01562C13.4156 8.01562 13.5328 8.04844 13.6406 8.11875C13.7297 8.17969 13.8469 8.30156 13.8984 8.39062C13.9922 8.54531 13.9969 8.63906 14.0109 10.1484C14.0203 11.1187 14.0109 11.8172 13.9781 11.9297C13.95 12.0469 13.8656 12.1781 13.7531 12.2859C13.6266 12.4031 13.5141 12.4641 13.3641 12.4875C13.1906 12.5156 13.1156 12.5016 12.9422 12.4125C12.825 12.3516 12.6844 12.2297 12.5156 11.9766L12.5297 10.2188C12.5437 8.49844 12.5437 8.45625 12.6469 8.31562C12.7031 8.23594 12.8203 8.1375 12.9047 8.09531C12.9891 8.05312 13.1531 8.01562 13.2703 8.01562ZM8.325 9.01875C8.45625 9.02812 8.61094 9.07969 8.67188 9.12656C8.73281 9.17344 8.82656 9.27188 8.88281 9.34219C8.97656 9.46875 8.98125 9.53438 8.99531 10.6922C9.00469 11.8266 9 11.9203 8.91094 12.0938C8.85469 12.2016 8.74219 12.3234 8.64375 12.3844C8.53125 12.45 8.38594 12.4875 8.25469 12.4875C8.12344 12.4875 7.97812 12.45 7.87031 12.3844C7.76719 12.3234 7.65469 12.2016 7.59844 12.0938C7.51406 11.9203 7.50469 11.8125 7.50469 10.7578C7.50469 10.0547 7.52344 9.55781 7.55625 9.47812C7.58437 9.40781 7.64062 9.3 7.6875 9.23438C7.72969 9.17344 7.8375 9.09375 7.92656 9.06094C8.02031 9.02344 8.19375 9.00937 8.325 9.01875ZM12.0609 13.5141C18.1969 13.5234 18.2812 13.5234 18.4078 13.6172C18.4734 13.6687 18.5766 13.7719 18.6328 13.8422C18.7078 13.9453 18.7313 14.0437 18.7313 14.25C18.7313 14.4563 18.7078 14.5547 18.6328 14.6578C18.5766 14.7281 18.4734 14.8313 18.4078 14.8828C18.2812 14.9766 18.1922 14.9766 12.1078 14.9906C8.22656 15 5.87344 14.9859 5.77031 14.9578C5.68125 14.9344 5.53594 14.8359 5.45156 14.7469C5.3625 14.6484 5.2875 14.5078 5.27344 14.4C5.25938 14.3063 5.25938 14.1563 5.27344 14.0719C5.2875 13.9922 5.35313 13.8562 5.40938 13.7766C5.47031 13.6922 5.59219 13.5984 5.68125 13.5656C5.8125 13.5141 6.96562 13.5047 12.0609 13.5141Z" fill="#F15A2B"/>
</svg>
