<svg width="24" height="24" viewBox="0 0 24 24" fill="none" xmlns="http://www.w3.org/2000/svg">
<g clip-path="url(#clip0_793_53747)">
<path fill-rule="evenodd" clip-rule="evenodd" d="M22.2422 1.45312L22.5469 1.56094C22.7156 1.62187 22.9453 1.73438 23.0625 1.81406C23.1797 1.88906 23.3625 2.05781 23.475 2.18437C23.5875 2.31094 23.7188 2.50781 23.775 2.625C23.8266 2.74219 23.9016 2.92969 23.9344 3.04688C23.9859 3.22031 24 4.52344 24 10.5703C24 16.4625 23.9859 17.9297 23.9391 18.1172C23.9016 18.2437 23.8031 18.4875 23.7141 18.6516C23.625 18.8156 23.4469 19.05 23.3156 19.1672C23.1891 19.2844 22.9641 19.4391 22.8234 19.5047C22.6828 19.575 22.4578 19.6547 22.3219 19.6828C22.1531 19.7203 20.9109 19.7344 18.3281 19.7344C16.2656 19.7344 14.5781 19.7437 14.5781 19.7578C14.5781 19.7719 14.7328 20.0859 15.2578 21.1406H16.5141C17.6719 21.1406 17.7797 21.1453 17.9531 21.2344C18.0781 21.2969 18.1719 21.3906 18.2344 21.5156C18.2859 21.6187 18.3281 21.7687 18.3281 21.8438C18.3281 21.9188 18.2906 22.0641 18.2391 22.1578C18.1922 22.2563 18.075 22.3828 17.8125 22.5469H6.1875L6.01875 22.4391C5.925 22.3828 5.80781 22.2563 5.76094 22.1578C5.70937 22.0641 5.67188 21.9188 5.67188 21.8438C5.67188 21.7687 5.71406 21.6187 5.76562 21.5156C5.82812 21.3906 5.92188 21.2969 6.04688 21.2344C6.22031 21.1453 6.32812 21.1406 8.74219 21.1406L9.08438 20.4609C9.26719 20.0859 9.42188 19.7719 9.42188 19.7578C9.42188 19.7437 7.73438 19.7344 5.67188 19.7344C3.05156 19.7344 1.84688 19.7203 1.67344 19.6828C1.54219 19.65 1.3125 19.575 1.17188 19.5094C1.02188 19.4391 0.792188 19.2656 0.632812 19.1016C0.473437 18.9469 0.3 18.7125 0.239062 18.5859C0.178125 18.4547 0.0984375 18.2578 0.065625 18.1406C0.0140625 17.9672 0 16.6641 0 10.6172C0 4.74844 0.0140625 3.25781 0.0609375 3.07031C0.09375 2.93906 0.173438 2.72812 0.234375 2.60156C0.295312 2.47031 0.473437 2.24063 0.628125 2.08594C0.7875 1.92656 0.998438 1.7625 1.10156 1.71094C1.20469 1.66406 1.38281 1.58906 1.5 1.54219C1.69687 1.46719 2.36719 1.4625 22.2422 1.45312ZM1.75781 2.97656C1.65469 3.0375 1.53281 3.15937 1.49062 3.24375C1.41562 3.38906 1.41094 3.83906 1.40625 9.45469V15.5156H22.5938C22.5938 3.51562 22.5938 3.41719 22.5 3.23438C22.4375 3.10938 22.3438 3.01562 22.2188 2.95312C22.0312 2.85938 21.9375 2.85938 11.9859 2.85938H1.94531L1.75781 2.97656ZM1.40625 17.3484C1.40625 17.6672 1.42969 17.8125 1.49531 17.9437C1.54688 18.0469 1.65937 18.1641 1.7625 18.225L1.94531 18.3281C21.9375 18.3328 22.0312 18.3281 22.2188 18.2391C22.3438 18.1766 22.4375 18.0828 22.5 17.9578C22.575 17.8078 22.5938 17.6766 22.5938 17.3484V16.9266H1.40625V17.3484ZM10.6969 20.4188C10.5094 20.7891 10.3594 21.1078 10.3594 21.1219C10.3594 21.1313 11.1 21.1453 12 21.1453C12.9047 21.1453 13.6406 21.1313 13.6406 21.1219C13.6406 21.1078 13.4859 20.7891 13.3031 20.4141L12.9609 19.7344L11.0344 19.7391L10.6969 20.4188ZM5.63437 4.27031C7.82812 4.27031 7.92656 4.27031 8.10938 4.36406C8.23438 4.42656 8.32812 4.52031 8.39062 4.64531C8.47969 4.81875 8.48438 4.92656 8.48438 6.37969C8.48438 7.83281 8.47969 7.93594 8.39062 8.11406C8.32812 8.23906 8.23438 8.33281 8.10938 8.39531C7.93125 8.48438 7.82812 8.48906 5.64844 8.48906C3.46875 8.48906 3.36562 8.48438 3.1875 8.39531C3.0625 8.33281 2.96875 8.23906 2.90625 8.11406C2.81719 7.93594 2.8125 7.83281 2.8125 6.37969C2.8125 4.92656 2.81719 4.81875 2.90625 4.64531C2.9625 4.52344 3.06562 4.42031 3.17344 4.36406C3.34219 4.275 3.45937 4.27031 5.63437 4.27031ZM4.21875 7.08281H7.07812V5.67656H4.21875V7.08281ZM14.7984 4.27031C14.8828 4.27031 15.0375 4.3125 15.1406 4.36406C15.2656 4.42656 15.3594 4.52031 15.4219 4.64531C15.5063 4.80937 15.5156 4.92656 15.5156 5.67656C15.5156 6.42656 15.5063 6.53906 15.4219 6.70781C15.3594 6.83281 15.2656 6.92656 15.1406 6.98906C15.0375 7.04063 14.8875 7.08281 14.8125 7.08281C14.7328 7.08281 14.5875 7.04063 14.4844 6.98906C14.3594 6.92656 14.2656 6.83281 14.2031 6.70781C14.1187 6.53906 14.1094 6.42656 14.1094 5.67656C14.1094 4.92656 14.1187 4.80937 14.2031 4.64531C14.2594 4.52344 14.3625 4.42031 14.4703 4.36406C14.5688 4.3125 14.7141 4.27031 14.7984 4.27031ZM11.8125 5.48906C11.8266 5.48906 11.9203 5.5125 12.0234 5.54062C12.1687 5.57812 12.3422 5.71875 12.7641 6.13594C13.0687 6.43594 13.3641 6.75469 13.4156 6.84844C13.4813 6.95156 13.5094 7.08281 13.5094 7.22344C13.5047 7.33594 13.4625 7.49531 13.4156 7.575C13.3688 7.65 13.2656 7.74844 13.1906 7.79531C13.1156 7.84219 12.9609 7.88437 12.8438 7.88437C12.7031 7.88906 12.5766 7.85625 12.4688 7.79531C12.3797 7.73906 12.0563 7.44844 11.7563 7.14375C11.3391 6.71719 11.1984 6.54375 11.1609 6.40313C11.1281 6.27188 11.1234 6.15469 11.1562 6.0375C11.1797 5.93906 11.25 5.80781 11.3062 5.74219C11.3672 5.67656 11.4984 5.59219 11.6016 5.55937C11.7047 5.52187 11.7984 5.48906 11.8125 5.48906ZM17.8828 5.51719C17.9578 5.53125 18.0797 5.57344 18.15 5.61094C18.2203 5.64375 18.3141 5.72344 18.3516 5.77969C18.3891 5.83594 18.4406 5.95781 18.4688 6.05156C18.4969 6.16406 18.4969 6.27188 18.4641 6.40313C18.4219 6.54375 18.2859 6.71719 17.8641 7.14375C17.5641 7.44844 17.2453 7.73906 17.1562 7.79531C17.0484 7.85625 16.9172 7.88906 16.7812 7.88437C16.6641 7.88437 16.5094 7.84219 16.4344 7.79531C16.3547 7.74844 16.2562 7.65 16.2094 7.575C16.1625 7.49531 16.1203 7.33594 16.1156 7.22344C16.1156 7.10625 16.1484 6.94688 16.1859 6.87188C16.2281 6.79219 16.5094 6.48281 16.8141 6.17813C17.1938 5.79844 17.4234 5.60625 17.5547 5.55937C17.6578 5.52187 17.8031 5.50312 17.8828 5.51719ZM11.2828 8.48906C12.0469 8.48906 12.1594 8.49844 12.3281 8.58281C12.4531 8.64531 12.5469 8.73906 12.6094 8.86406C12.6609 8.96719 12.7031 9.1125 12.7031 9.19219C12.7031 9.26719 12.6609 9.41719 12.6094 9.52031C12.5469 9.64531 12.4531 9.73906 12.3281 9.80156C12.1594 9.88125 12.0469 9.89531 11.2969 9.89531C10.5469 9.89531 10.4297 9.88125 10.2656 9.80156C10.1406 9.73906 10.0469 9.64531 9.98438 9.52031C9.93281 9.41719 9.89062 9.26719 9.89062 9.19219C9.89062 9.1125 9.93281 8.96719 9.98438 8.86406C10.0406 8.74219 10.1438 8.63906 10.2516 8.58281C10.4062 8.50313 10.5281 8.48906 11.2828 8.48906ZM14.7656 8.48906C14.8313 8.48906 16.0406 8.71875 17.4609 9.00469C18.9984 9.31406 20.0906 9.55313 20.1656 9.6C20.2359 9.64688 20.3344 9.75469 20.3859 9.84844C20.4375 9.9375 20.4797 10.0781 20.4844 10.1625C20.4844 10.2469 20.4609 10.3734 20.4328 10.4438C20.4094 10.5141 20.0297 10.9313 18.7969 12.1688L19.5516 12.9188C19.9641 13.3313 20.3438 13.7437 20.3953 13.8422C20.4422 13.9406 20.4844 14.0813 20.4844 14.1609C20.4844 14.2359 20.4469 14.3766 20.4 14.4703C20.3578 14.5641 20.2547 14.6859 20.1797 14.7375C20.1 14.7891 19.9547 14.8406 19.8516 14.8547C19.7203 14.8687 19.6031 14.8453 19.4766 14.775C19.3734 14.7234 18.9516 14.3438 17.7891 13.1766L16.9922 13.9688C16.5516 14.4047 16.1344 14.7844 16.0641 14.8125C15.9938 14.8406 15.8672 14.8594 15.7828 14.8594C15.6984 14.8594 15.5578 14.8172 15.4688 14.7656C15.3797 14.7141 15.2672 14.6156 15.225 14.5453C15.1781 14.4703 14.9344 13.3688 14.625 11.8406C14.3344 10.4016 14.1094 9.1875 14.1234 9.09844C14.1328 9.00469 14.1844 8.86875 14.2359 8.78437C14.2922 8.70469 14.4047 8.60625 14.4938 8.56406C14.5781 8.52187 14.7 8.48906 14.7656 8.48906ZM15.9844 11.4656C16.1203 12.1359 16.2375 12.6938 16.2469 12.7078C16.2609 12.7172 16.7297 12.2672 17.2969 11.7C17.8641 11.1328 18.3281 10.6547 18.3234 10.6359C18.3234 10.6219 17.7703 10.5 17.0953 10.3641C16.4203 10.2328 15.8297 10.1109 15.7828 10.0969C15.7219 10.0781 15.7078 10.0922 15.7219 10.1578C15.7359 10.2047 15.8531 10.7953 15.9844 11.4656ZM5.63437 9.89531C7.82812 9.89531 7.92656 9.89531 8.10938 9.98906C8.23438 10.0516 8.32812 10.1453 8.39062 10.2703C8.47969 10.4438 8.48438 10.5516 8.48438 12.0047C8.48438 13.4578 8.47969 13.5609 8.39062 13.7391C8.32812 13.8641 8.23438 13.9578 8.10938 14.0203C7.93125 14.1094 7.82812 14.1141 5.64844 14.1141C3.46875 14.1141 3.36562 14.1094 3.1875 14.0203C3.0625 13.9578 2.96875 13.8641 2.90625 13.7391C2.81719 13.5609 2.8125 13.4578 2.8125 12.0047C2.8125 10.5516 2.81719 10.4438 2.90625 10.2703C2.9625 10.1484 3.06562 10.0453 3.17344 9.98906C3.34219 9.9 3.45937 9.89531 5.63437 9.89531ZM4.21875 12.7078H7.07812V11.3016H4.21875V12.7078ZM12.9797 10.5094C13.0734 10.5328 13.1953 10.5797 13.2516 10.6172C13.3125 10.6594 13.3922 10.7578 13.4344 10.8422C13.4766 10.9266 13.5094 11.0813 13.5094 11.1844C13.5141 11.2922 13.4719 11.4375 13.4156 11.5359C13.3641 11.625 13.0687 11.9438 12.7641 12.2438C12.3375 12.6609 12.1687 12.8016 12.0234 12.8391C11.8875 12.8766 11.7844 12.8766 11.6484 12.8391C11.5453 12.8109 11.4047 12.7313 11.3391 12.6656C11.2687 12.5953 11.1938 12.4594 11.1609 12.3563C11.1234 12.2203 11.1234 12.1125 11.1609 11.9813C11.1984 11.8359 11.3391 11.6625 11.7797 11.2125C12.0938 10.8938 12.3938 10.6125 12.4453 10.5844C12.4969 10.5563 12.6 10.5188 12.675 10.5047C12.75 10.4859 12.8859 10.4906 12.9797 10.5094Z" fill="#F15A2B"/>
</g>
<defs>
<clipPath id="clip0_793_53747">
<rect width="24" height="24" fill="white"/>
</clipPath>
</defs>
</svg>
