<svg width="24" height="24" viewBox="0 0 24 24" fill="none" xmlns="http://www.w3.org/2000/svg">
<g clip-path="url(#clip0_793_53751)">
<path fill-rule="evenodd" clip-rule="evenodd" d="M1.66406 0.103125L12.2578 0.09375L14.7609 2.59219C16.2234 4.05 17.2875 5.14688 17.325 5.24063C17.3766 5.3625 17.3906 5.89219 17.3906 10.8984L18.8531 9.44062C20.1234 8.175 20.3625 7.96406 20.625 7.83281C20.7984 7.74844 21.075 7.66406 21.2578 7.63594C21.5156 7.59844 21.6562 7.59844 21.9141 7.65469C22.0969 7.69219 22.3687 7.78125 22.5234 7.85625C22.6781 7.93125 22.9312 8.10938 23.0859 8.25469C23.2406 8.4 23.4328 8.62031 23.5172 8.74688C23.6016 8.87344 23.7234 9.12656 23.7891 9.30469C23.8781 9.54844 23.9062 9.72188 23.9062 9.99375C23.9062 10.2516 23.8781 10.4391 23.8031 10.6266C23.7516 10.7766 23.6531 10.9828 23.5875 11.0859C23.5266 11.1891 22.1063 12.6469 17.3906 17.3672V19.725C17.3906 21.2906 17.3719 22.1625 17.3391 22.3266C17.3109 22.4578 17.2266 22.6875 17.1562 22.8281C17.0812 22.9688 16.9359 23.175 16.8328 23.2875C16.725 23.3953 16.5609 23.5312 16.4625 23.5922C16.3688 23.6531 16.1719 23.7469 15.7734 23.9062H1.6875L1.29844 23.7281C1.03594 23.6063 0.839063 23.475 0.679688 23.3109C0.548438 23.1797 0.389063 22.9594 0.31875 22.8234C0.253125 22.6828 0.173437 22.4766 0.145312 22.3594C0.1125 22.2141 0.09375 18.9281 0.09375 12C0.09375 5.07187 0.1125 1.78594 0.145312 1.64062C0.173437 1.52344 0.253125 1.31719 0.31875 1.17656C0.389063 1.04063 0.54375 0.820312 0.665625 0.698437C0.792188 0.571875 0.960938 0.43125 1.04063 0.389063C1.125 0.342188 1.29844 0.2625 1.42969 0.20625L1.66406 0.103125ZM1.5 1.79063C1.41094 1.9875 1.40625 2.12812 1.40625 12C1.40625 21.8719 1.41094 22.0078 1.5 22.2047C1.57031 22.3547 1.64531 22.4297 1.79063 22.5C1.9875 22.5891 2.11406 22.5891 8.74219 22.5891C15.3703 22.5891 15.4969 22.5891 15.6891 22.5C15.8391 22.4297 15.9141 22.3547 15.9844 22.2047C16.0688 22.0219 16.0781 21.9 16.0781 20.3766C16.0781 19.4813 16.0641 18.7406 16.0406 18.7313C16.0219 18.7172 15.4172 19.2984 14.6953 20.0156C13.9734 20.7375 13.3313 21.3469 13.2656 21.375C13.2 21.3984 12.4781 21.5672 11.6578 21.75C10.8422 21.9281 10.1297 22.0781 10.0781 22.0781C10.0266 22.0781 9.90469 22.0406 9.81094 21.9938C9.71719 21.9516 9.6 21.8484 9.55313 21.7734C9.50625 21.6938 9.46875 21.5438 9.46875 21.4313C9.46875 21.3234 9.61875 20.5641 9.80156 19.7438C9.98438 18.9281 10.1531 18.2156 10.1812 18.1641C10.2047 18.1125 11.5453 16.7531 13.1531 15.1406L16.0781 12.2109L16.0547 6.16406C11.9438 6.11719 11.7281 6.10781 11.6109 6.03281C11.5406 5.99062 11.4563 5.90625 11.4234 5.84531C11.3812 5.77031 11.3625 5.18437 11.3438 3.58594L11.3203 1.42969C2.09531 1.40625 1.9875 1.41094 1.79063 1.5C1.64531 1.57031 1.57031 1.64531 1.5 1.79063ZM12.6562 4.82812H15.1172C13.2469 2.93906 12.6938 2.39062 12.6797 2.39062C12.6656 2.39062 12.6562 2.93906 12.6562 3.60938V4.82812ZM16.1953 13.9641L11.3672 18.7969C11.0719 20.1234 10.9969 20.5125 11.0109 20.5172C11.025 20.5266 11.4187 20.4469 11.8828 20.3438L12.7266 20.1562C22.1484 10.725 22.5422 10.3219 22.5703 10.1484C22.5938 10.0219 22.5797 9.88125 22.5281 9.72656C22.4813 9.57187 22.3828 9.42188 22.2562 9.29531C22.1437 9.1875 21.975 9.06563 21.8812 9.02344C21.7828 8.98594 21.6141 8.95312 21.5062 8.95312C21.3891 8.95312 21.2437 8.99062 21.1641 9.04219C21.0891 9.08906 18.8484 11.3062 16.1953 13.9641ZM6.11719 4.54688C8.79844 4.54688 8.8875 4.54688 9.0375 4.64062C9.11719 4.69219 9.225 4.79062 9.26719 4.86094C9.31406 4.93594 9.34687 5.08125 9.34687 5.20312C9.34687 5.35313 9.31406 5.46094 9.23438 5.57344C9.16875 5.6625 9.04688 5.76094 8.96719 5.79844C8.84531 5.84531 8.23594 5.85938 6.11719 5.85938C3.99844 5.85938 3.38906 5.84531 3.27188 5.79844C3.1875 5.76094 3.06562 5.6625 3 5.57344C2.92031 5.46094 2.8875 5.35313 2.8875 5.20312C2.8875 5.08125 2.92031 4.93594 2.96719 4.86094C3.00937 4.79062 3.11719 4.69219 3.20156 4.64062C3.34688 4.54688 3.43594 4.54688 6.11719 4.54688ZM3.27188 8.25H14.2031L14.3719 8.4C14.4797 8.50313 14.55 8.62031 14.5781 8.74219C14.5969 8.84531 14.5969 8.99063 14.5734 9.07031C14.5547 9.14531 14.475 9.26719 14.4047 9.3375C14.3344 9.40781 14.1984 9.4875 14.1094 9.51562C14.0016 9.54375 12.1313 9.5625 8.69531 9.5625C3.55781 9.5625 3.44063 9.55781 3.24844 9.46875C3.09844 9.39844 3.02344 9.32344 2.95312 9.17344C2.87812 9.02344 2.86406 8.92969 2.8875 8.78906C2.91094 8.6625 2.97656 8.54531 3.09375 8.42344L3.27188 8.25ZM8.73281 11.9109C13.6641 11.9062 14.0297 11.9109 14.2125 11.9906C14.3203 12.0375 14.4422 12.1359 14.4891 12.2109C14.5359 12.2906 14.5781 12.4078 14.5828 12.4688C14.5922 12.5344 14.5922 12.6469 14.5875 12.7172C14.5828 12.7922 14.5125 12.9187 14.2594 13.1953L8.83125 13.2094C4.53281 13.2187 3.375 13.2094 3.26719 13.1625C3.19219 13.1297 3.08437 13.05 3.02812 12.9844C2.97187 12.9234 2.91562 12.7875 2.89687 12.6937C2.87344 12.5625 2.8875 12.4594 2.95781 12.3047C3.02812 12.1406 3.09375 12.075 3.24844 12.0047C3.44531 11.9109 3.56719 11.9109 8.73281 11.9109ZM8.80781 15.6328L8.93438 15.75C9.00469 15.8156 9.08906 15.9281 9.12656 15.9984C9.15938 16.0687 9.19219 16.1953 9.19219 16.2797C9.19219 16.3641 9.15 16.5 9.09844 16.5844C9.04688 16.6687 8.93437 16.7766 8.85 16.8281C8.70469 16.9219 8.61563 16.9219 6.06094 16.9219C3.98906 16.9219 3.39375 16.9078 3.27188 16.8609C3.1875 16.8281 3.07031 16.7297 3.00469 16.6406C2.925 16.5234 2.8875 16.4156 2.8875 16.2656C2.8875 16.1484 2.925 15.9984 2.96719 15.9281C3.01406 15.8578 3.11719 15.7547 3.20156 15.7031C3.35156 15.6141 3.42187 15.6094 8.80781 15.6328ZM3.27188 19.3125H7.22344L7.3875 19.4672C7.48125 19.5516 7.575 19.6922 7.59844 19.7812C7.62656 19.8844 7.62656 20.0109 7.59844 20.1094C7.575 20.2031 7.49531 20.3344 7.425 20.4047C7.35 20.475 7.21875 20.5547 7.12969 20.5781C7.03125 20.6063 6.26719 20.625 5.20781 20.625C3.55312 20.625 3.43594 20.6203 3.24844 20.5312C3.10313 20.4656 3.02344 20.3859 2.95312 20.2406C2.88281 20.0906 2.86875 19.9922 2.89219 19.8516C2.91094 19.725 2.98125 19.6078 3.09844 19.4906L3.27188 19.3125Z" fill="#F15A2B"/>
</g>
<defs>
<clipPath id="clip0_793_53751">
<rect width="24" height="24" fill="white"/>
</clipPath>
</defs>
</svg>
