<svg width="24" height="24" viewBox="0 0 24 24" fill="none" xmlns="http://www.w3.org/2000/svg">
<g clip-path="url(#clip0_793_53755)">
<path fill-rule="evenodd" clip-rule="evenodd" d="M11.9766 0C12.3094 0 12.4688 0.0234375 12.75 0.117188C12.9422 0.182812 13.1953 0.295312 13.3125 0.360937C13.4297 0.43125 14.2734 1.11094 16.8516 3.25781L21.3047 3.30469L21.5625 3.42656C21.7031 3.49219 21.9141 3.62812 22.0219 3.73125C22.1391 3.83437 22.2891 4.04531 22.5234 4.52344L22.5563 7.99219L23.1844 8.50781C23.5875 8.83594 23.85 9.08906 23.9062 9.20156C24 9.37031 24 9.51562 24 15.5531C24 20.9344 23.9906 21.7641 23.9297 22.0078C23.8875 22.1625 23.7938 22.4156 23.7188 22.5703C23.6437 22.725 23.4703 22.9781 23.3344 23.1281C23.1984 23.2828 22.9594 23.4891 22.8047 23.5875C22.65 23.6859 22.3641 23.8219 21.8203 24H2.20312L1.8375 23.8828C1.64062 23.8219 1.35 23.6859 1.19531 23.5875C1.04062 23.4891 0.825 23.3063 0.7125 23.1891C0.604688 23.0672 0.45 22.8703 0.375 22.7484C0.295312 22.6219 0.178125 22.3594 0 21.7969V9.35156L0.107812 9.17813C0.164062 9.07969 0.482812 8.775 1.42969 8.00156L1.47656 4.52344L1.62656 4.21875C1.71094 4.04531 1.86094 3.83437 1.97813 3.73125C2.08594 3.62812 2.29688 3.49219 2.69531 3.30469L7.14844 3.25781L8.8125 1.875C9.72656 1.11562 10.5609 0.440625 10.6641 0.375C10.7672 0.309375 11.0109 0.201562 11.2031 0.13125C11.4844 0.0328125 11.6391 0.0046875 11.9766 0ZM11.3906 1.575C11.3531 1.60312 10.8703 2.00156 10.3219 2.45625L9.32812 3.28125L14.6953 3.28594C13.0969 1.96406 12.5672 1.55156 12.4922 1.50938C12.4172 1.47188 12.225 1.42969 12.0703 1.42031C11.9156 1.41094 11.7141 1.42969 11.625 1.4625C11.5312 1.49531 11.4234 1.54687 11.3906 1.575ZM2.85469 7.60781V10.3828C3.6375 11.0391 5.55469 12.6281 7.61719 14.3391C9.67969 16.05 11.4281 17.4844 11.5078 17.5266C11.6016 17.5734 11.7703 17.6016 12 17.6016C12.2859 17.6016 12.3844 17.5828 12.5391 17.4891C12.6422 17.4281 14.6203 15.8063 16.9359 13.8797L21.1453 10.3828C21.1406 5.19844 21.1313 4.81875 21.0703 4.75781C21.0094 4.69688 19.9359 4.6875 12.0047 4.6875C3.89062 4.6875 3 4.69688 2.92969 4.7625C2.85938 4.82812 2.85469 5.09531 2.85469 7.60781ZM1.41563 16.2984C1.41094 19.2047 1.425 21.6328 1.44375 21.6937C1.4625 21.7547 1.5 21.7922 1.52344 21.7828C1.55156 21.7734 3.13125 20.6953 5.03906 19.3875C6.94688 18.0797 8.5125 16.9922 8.52188 16.9641C8.52656 16.9406 6.99844 15.6469 5.12344 14.0906C3.24375 12.5391 1.64531 11.2078 1.56563 11.1375L1.42031 11.0063L1.41563 16.2984ZM19.0312 13.9594C17.0906 15.5766 15.4969 16.9219 15.4875 16.95C15.4781 16.9734 15.7828 17.2078 16.1625 17.4703C16.5422 17.7281 18.1078 18.8016 19.6453 19.8563C21.1781 20.9062 22.4578 21.7734 22.4906 21.7828C22.5281 21.7922 22.5609 21.7406 22.575 21.6469C22.5891 21.5625 22.5891 19.1391 22.5797 16.2562L22.5609 11.0203L19.0312 13.9594ZM6.16875 20.3156C4.36406 21.5484 2.89219 22.5656 2.89687 22.575C2.90156 22.5844 7.00312 22.5938 12.0141 22.5938C19.7625 22.5938 21.1078 22.5844 21.0469 22.5328C21.0094 22.4953 19.5 21.4547 17.6953 20.2219C15.8906 18.9844 14.3906 17.9578 14.3578 17.9391C14.3203 17.9203 14.1562 18.0234 13.9359 18.2062C13.7344 18.3703 13.4672 18.5719 13.3359 18.6516C13.2094 18.7312 12.9656 18.8484 12.7969 18.9047C12.5578 18.9844 12.3844 19.0078 12 19.0078C11.6156 19.0078 11.4422 18.9844 11.2031 18.9047C11.0344 18.8484 10.7953 18.7312 10.6641 18.6516C10.5375 18.5719 10.2656 18.3703 10.0688 18.2062C9.86719 18.0422 9.69844 17.9062 9.69375 17.9109C9.68437 17.9109 9.62813 17.9484 9.5625 17.9953C9.49687 18.0422 7.96875 19.0875 6.16875 20.3156ZM10.1953 7.03125C13.4062 7.03125 13.6781 7.04063 13.8281 7.11563C13.9172 7.15781 14.0391 7.27031 14.1 7.35938C14.1703 7.47188 14.2078 7.59375 14.2078 7.73438C14.2078 7.875 14.1703 8.00156 14.1 8.10938C14.0391 8.19844 13.9172 8.31094 13.8281 8.35781C13.6781 8.43281 13.4062 8.4375 10.1953 8.4375C6.98906 8.4375 6.71719 8.43281 6.5625 8.35781C6.47344 8.31094 6.35156 8.19844 6.29531 8.10938C6.22031 8.00156 6.1875 7.875 6.1875 7.73438C6.1875 7.59375 6.22031 7.47188 6.29531 7.35938C6.35156 7.27031 6.47344 7.15781 6.5625 7.11563C6.71719 7.04063 6.98906 7.03125 10.1953 7.03125ZM12 9.84375C16.9266 9.84375 17.2828 9.84844 17.4375 9.92813C17.5266 9.97031 17.6484 10.0828 17.7094 10.1719C17.7797 10.2844 17.8172 10.4062 17.8172 10.5469C17.8172 10.6875 17.7797 10.8141 17.7094 10.9219C17.6484 11.0109 17.5266 11.1234 17.4375 11.1703C17.2828 11.2453 16.9266 11.25 12 11.25C7.07344 11.25 6.71719 11.2453 6.5625 11.1703C6.47344 11.1234 6.35156 11.0109 6.29531 10.9219C6.22031 10.8141 6.1875 10.6875 6.1875 10.5469C6.1875 10.4062 6.22031 10.2844 6.29531 10.1719C6.35156 10.0828 6.47344 9.97031 6.5625 9.92813C6.71719 9.84844 7.07344 9.84375 12 9.84375Z" fill="#F15A2B"/>
</g>
<defs>
<clipPath id="clip0_793_53755">
<rect width="24" height="24" fill="white"/>
</clipPath>
</defs>
</svg>
