<svg width="24" height="24" viewBox="0 0 24 24" fill="none" xmlns="http://www.w3.org/2000/svg">
<g clip-path="url(#clip0_793_53759)">
<path fill-rule="evenodd" clip-rule="evenodd" d="M10.2422 0.009375L22.2422 0L22.5469 0.107812C22.7156 0.16875 22.9453 0.28125 23.0625 0.360937C23.1797 0.435937 23.3625 0.604688 23.475 0.73125C23.5875 0.857813 23.7281 1.06406 23.7891 1.19531C23.8453 1.32187 23.9203 1.54219 23.9484 1.67812C23.9859 1.85156 24 3.7875 24 8.28281C24 14.3344 23.9953 14.6578 23.9156 14.8828C23.8688 15.0094 23.7891 15.2016 23.7422 15.3047C23.6906 15.4078 23.5266 15.6187 23.3672 15.7734C23.2078 15.9375 22.9781 16.1109 22.8281 16.1813C22.6875 16.2469 22.4578 16.3219 22.3219 16.3547C22.1906 16.3828 21.7875 16.4062 20.7891 16.4062L19.4297 17.7609C18.6844 18.5109 18.0141 19.1437 17.9437 19.1672C17.8687 19.1953 17.7422 19.2188 17.6625 19.2188C17.5781 19.2188 17.4234 19.1719 17.325 19.1109C17.2266 19.0547 17.1047 18.9328 17.0578 18.8438C16.9781 18.6984 16.9688 18.5625 16.9688 16.4062H11.7188V17.9062H12.6234C13.4109 17.9062 13.5422 17.9156 13.6875 17.9953C13.7766 18.0422 13.8984 18.1641 13.9547 18.2625C14.0156 18.3609 14.0625 18.5156 14.0625 18.5953C14.0625 18.6797 14.0344 18.8063 14.0062 18.8766C13.9734 18.9469 13.4438 19.6031 11.7234 21.6797L11.7094 22.2188C11.6953 22.7156 11.6813 22.7859 11.5453 23.0625C11.4609 23.2359 11.3109 23.4469 11.1938 23.55C11.0859 23.6531 10.8609 23.7984 10.4062 24H1.3125L1.02187 23.8688C0.857812 23.7984 0.632812 23.6531 0.525 23.55C0.407812 23.4469 0.257812 23.2359 0.0234375 22.7578L0 14.5312L0.13125 14.2359C0.201562 14.0766 0.346875 13.8516 0.45 13.7438C0.553125 13.6266 0.764063 13.4766 1.24219 13.2422L8.53125 13.2188V10.3125H5.64844L4.30781 11.4234C3.57188 12.0375 2.91563 12.5672 2.84531 12.5953C2.775 12.6281 2.64844 12.6562 2.56875 12.6562C2.48438 12.6562 2.32969 12.6094 2.23125 12.5484C2.13281 12.4922 2.01094 12.3703 1.96406 12.2812C1.88438 12.1359 1.875 12.0047 1.875 10.3359L1.5375 10.3031C1.29844 10.2844 1.10625 10.2281 0.914062 10.1344C0.759375 10.0547 0.548438 9.9 0.45 9.7875C0.346875 9.67969 0.201563 9.45469 0 9V2.71875L0.13125 2.42344C0.201562 2.26406 0.346875 2.03906 0.45 1.93125C0.553125 1.81406 0.764063 1.66406 1.24219 1.42969L8.64844 1.40625L8.75156 1.18125C8.80781 1.05938 8.94375 0.857813 9.05625 0.73125C9.16875 0.604688 9.35156 0.435937 9.46875 0.360937C9.58594 0.28125 9.80625 0.16875 9.96094 0.1125L10.2422 0.009375ZM10.2891 1.52344C10.1859 1.58438 10.0641 1.70625 10.0219 1.79063C9.94688 1.93594 9.94219 2.39531 9.9375 8.19375C9.9375 14.2266 9.94219 14.4469 10.0266 14.6156C10.0781 14.7141 10.1906 14.8359 10.2938 14.8922L10.4766 15C17.7188 15 17.8172 15.0047 18 15.0938C18.125 15.1562 18.2188 15.25 18.2812 15.375C18.3609 15.5344 18.375 15.6562 18.375 16.1859V16.8047C19.6641 15.525 20.1094 15.1172 20.1937 15.075C20.3156 15.0141 20.5031 15 21.1875 15C21.9375 15 22.05 14.9906 22.2188 14.9062C22.3438 14.8438 22.4375 14.75 22.5 14.625C22.5938 14.4422 22.5938 14.3438 22.5938 8.20312C22.5938 2.0625 22.5938 1.96875 22.5 1.78125C22.4375 1.65625 22.3438 1.5625 22.2188 1.5C22.0359 1.41094 21.9375 1.40625 16.2562 1.40625H10.4766L10.2891 1.52344ZM1.40156 5.86406C1.40625 8.38125 1.41562 8.77969 1.47656 8.84063C1.53281 8.89219 1.67344 8.91094 2.13281 8.91094C2.625 8.91094 2.74688 8.925 2.90625 9.00469C3.03125 9.06719 3.125 9.16094 3.1875 9.28594C3.2625 9.43594 3.28125 9.56719 3.28125 9.96563V10.4578C4.57031 9.37969 5.01562 9.03281 5.1 8.98594C5.23125 8.92031 5.45156 8.91094 6.89062 8.91094H8.53125V2.81719C1.93594 2.81719 1.54688 2.82187 1.47656 2.8875C1.40625 2.95781 1.40156 3.23438 1.40156 5.86406ZM1.40156 18.6141C1.40625 21.9656 1.41562 22.4672 1.47656 22.5281C1.5375 22.5891 2.08594 22.5984 5.85469 22.5984C9.62344 22.5984 10.1766 22.5891 10.2375 22.5281C10.2984 22.4719 10.3125 22.3406 10.3125 21.8719C10.3125 21.4172 10.3313 21.2484 10.3922 21.1312C10.4344 21.0469 10.7812 20.6062 11.1656 20.1469L11.8594 19.3172C10.9688 19.3172 10.8375 19.2984 10.6875 19.2234C10.5625 19.1609 10.4688 19.0672 10.4062 18.9422C10.3219 18.7688 10.3125 18.6609 10.3125 17.5594V16.3641C10.0406 16.3219 9.84375 16.2516 9.70312 16.1859C9.55781 16.1156 9.32344 15.9422 9.15937 15.7781C9 15.6188 8.82188 15.3844 8.75625 15.2391C8.68594 15.0984 8.62031 14.9016 8.60625 14.8031L8.57812 14.6297C1.93594 14.6297 1.54688 14.6344 1.47656 14.7C1.40625 14.7703 1.40156 15.1125 1.40156 18.6141ZM15.2812 2.3625C15.7266 2.38125 15.9375 2.40937 16.1484 2.48438C16.3031 2.54063 16.5234 2.63906 16.6406 2.70937C16.7578 2.77969 16.9641 2.93906 17.1 3.07031C17.2406 3.20156 17.4187 3.4125 17.4984 3.54375C17.5828 3.67031 17.7 3.91406 17.7609 4.08281C17.8641 4.35469 17.8781 4.47188 17.9062 6.09844H18.8203C19.3219 6.09844 19.8469 6.12187 19.9781 6.15C20.1141 6.17812 20.3438 6.25781 20.4844 6.32344C20.6344 6.39375 20.8594 6.55781 21.0234 6.72656C21.1781 6.88125 21.3609 7.12969 21.4313 7.27031C21.4969 7.41094 21.5813 7.66406 21.6141 7.83281C21.6469 8.00156 21.6562 8.25 21.6422 8.39531C21.6234 8.53594 21.4219 9.53906 21.1875 10.6219C20.8687 12.0891 20.7281 12.6656 20.625 12.8812C20.5453 13.0453 20.3766 13.2891 20.2359 13.425C20.1047 13.5656 19.8797 13.7344 19.7438 13.8C19.6125 13.8703 19.3781 13.9594 19.2281 13.9969C19.0125 14.0531 18.5906 14.0672 16.9453 14.0672C15.3281 14.0672 14.8828 14.0531 14.6953 14.0016C14.5641 13.9594 14.1891 13.7531 13.2422 13.1297H12.5719C12 13.1297 11.8781 13.1156 11.7188 13.0359C11.5938 12.9734 11.5 12.8797 11.4375 12.7547C11.3484 12.5719 11.3438 12.4734 11.3438 9.61406C11.3438 6.75469 11.3484 6.65156 11.4375 6.47344C11.5 6.34844 11.5938 6.25469 11.7188 6.19219C11.8781 6.1125 12 6.09844 13.2422 6.09844L13.6406 5.83594C13.8609 5.69063 14.0672 5.53594 14.1 5.49375C14.1422 5.4375 14.1562 5.10469 14.1562 4.1625C14.1562 3.00469 14.1609 2.89687 14.25 2.72344C14.3062 2.60625 14.4094 2.49844 14.5172 2.44219C14.6766 2.35312 14.7609 2.34844 15.2812 2.3625ZM15.5625 4.76719C15.5391 5.71875 15.5344 5.75156 15.4078 6.02813C15.3375 6.18281 15.2109 6.37969 15.1266 6.46406C15.0422 6.55312 14.7328 6.7875 14.4375 6.98438C14.1422 7.18594 13.8281 7.38281 13.7438 7.425C13.6359 7.48125 13.4719 7.50469 13.1719 7.50469H12.75V11.7234C13.4719 11.7234 13.6359 11.7469 13.7438 11.7984C13.8281 11.8406 14.1609 12.0563 14.4844 12.2672L15.0703 12.6609C18.9328 12.6375 18.9797 12.6328 19.1109 12.5391C19.1813 12.4828 19.2797 12.3891 19.3266 12.3281C19.3781 12.2578 19.5609 11.4891 19.8281 10.2469C20.0625 9.16406 20.25 8.22656 20.25 8.16094C20.25 8.09531 20.2031 7.95937 20.1422 7.86094C20.0859 7.75781 19.9641 7.63594 19.875 7.58906C19.725 7.50937 19.5891 7.50469 18.3844 7.50469C17.1562 7.50469 17.0484 7.49531 16.875 7.41094C16.75 7.34844 16.6562 7.25469 16.5938 7.12969C16.5094 6.95625 16.5 6.84844 16.5 5.85C16.5 4.97813 16.4859 4.72031 16.4297 4.55156C16.3875 4.43437 16.3078 4.275 16.2469 4.2C16.1906 4.12031 16.0688 4.0125 15.9797 3.95625C15.8906 3.9 15.7688 3.83906 15.7031 3.825L15.5812 3.79219L15.5625 4.76719ZM4.71562 15.8156C4.95469 15.8297 5.17969 15.8719 5.34844 15.9375C5.48906 15.9937 5.6625 16.0828 5.73281 16.1297C5.85938 16.2188 5.86406 16.2188 5.99063 16.1297C6.06094 16.0828 6.23438 15.9937 6.37969 15.9375C6.52031 15.8859 6.77344 15.825 6.94219 15.8109C7.10625 15.7969 7.35938 15.8109 7.50469 15.8391C7.64531 15.8672 7.88906 15.9516 8.04375 16.0266C8.22188 16.1156 8.41406 16.2609 8.57344 16.4391C8.70937 16.5891 8.87344 16.8188 8.93906 16.9453C9 17.0766 9.075 17.3297 9.10781 17.5078C9.15 17.7609 9.15 17.9109 9.10781 18.1547C9.075 18.3281 8.98594 18.6 8.90156 18.7641C8.78437 19.0031 8.54062 19.2703 7.55625 20.2687C6.89531 20.9344 6.27656 21.5203 6.17813 21.5672C6.07969 21.6187 5.93906 21.6562 5.86406 21.6562C5.78437 21.6562 5.64375 21.6187 5.54531 21.5672C5.44688 21.5203 4.82812 20.9344 4.16719 20.2687C3.18281 19.2703 2.94375 19.0031 2.82188 18.7641C2.74219 18.6 2.64844 18.3281 2.62031 18.1547C2.57344 17.9109 2.57344 17.7609 2.61562 17.5078C2.64844 17.3297 2.72813 17.0672 2.79844 16.9219C2.86875 16.7812 3.04219 16.5469 3.1875 16.4016C3.33281 16.2609 3.53906 16.0969 3.64688 16.0406C3.75469 15.9844 3.95625 15.9094 4.09219 15.8672C4.25156 15.825 4.46719 15.8062 4.71562 15.8156ZM4.07344 17.5312C4.02656 17.625 3.98906 17.7562 3.98906 17.8266C3.98906 17.8969 4.01719 18.0141 4.05469 18.0844C4.09219 18.1547 4.51406 18.6047 4.99219 19.0781L5.86406 19.9453C7.41094 18.3937 7.69219 18.075 7.71563 17.9766C7.73438 17.9016 7.73438 17.7703 7.72031 17.6859C7.70156 17.6016 7.62656 17.4703 7.55156 17.3906C7.47188 17.3156 7.34063 17.2406 7.25625 17.2219C7.17188 17.2078 7.04531 17.2078 6.975 17.2219C6.90469 17.2406 6.70781 17.3766 6.54375 17.5312C6.37031 17.6906 6.15938 17.8359 6.06094 17.8688C5.925 17.9109 5.84062 17.9109 5.67656 17.8641C5.53594 17.8219 5.37656 17.7188 5.20781 17.5547C5.0625 17.4234 4.89844 17.2875 4.84219 17.2594C4.78594 17.2266 4.67813 17.2031 4.60781 17.2031C4.5375 17.2031 4.40625 17.2406 4.32187 17.2875C4.2375 17.3297 4.125 17.4422 4.07344 17.5312Z" fill="#F15A2B"/>
</g>
<defs>
<clipPath id="clip0_793_53759">
<rect width="24" height="24" fill="white"/>
</clipPath>
</defs>
</svg>
