<svg width="24" height="24" viewBox="0 0 24 24" fill="none" xmlns="http://www.w3.org/2000/svg">
<g clip-path="url(#clip0_793_53727)">
<path fill-rule="evenodd" clip-rule="evenodd" d="M1.71094 0.00478516H5.75625C8.40469 9.76559e-05 9.80625 0.0141602 9.82031 0.0469727C9.83438 0.0704102 9.88125 0.0938477 9.92813 0.0938477C9.97031 0.0938477 10.1344 0.154785 10.2891 0.229785C10.4578 0.31416 10.6781 0.478223 10.8328 0.642285C10.9781 0.792285 11.1516 1.02666 11.2172 1.15791C11.2875 1.29385 11.3672 1.49541 11.3906 1.60322C11.4187 1.71572 11.5078 2.35322 11.7422 4.24229L17.0391 4.26572C21.7641 4.28447 22.3547 4.29854 22.5234 4.36416C22.6266 4.40635 22.7953 4.48135 22.8984 4.5376C23.0016 4.58916 23.1703 4.70635 23.2734 4.79541C23.3766 4.88447 23.5172 5.03916 23.5875 5.1376C23.6578 5.23604 23.7797 5.4751 24 6.0001V14.0063C24 19.3126 23.9859 22.097 23.9531 22.2657C23.925 22.4063 23.8453 22.6501 23.7703 22.8048C23.6953 22.9595 23.5641 23.1704 23.475 23.2735C23.3859 23.3767 23.2266 23.5173 23.1281 23.5876C23.0297 23.6579 22.7906 23.7798 22.2656 24.0001H16.125C12.0797 24.0001 9.975 23.986 9.96094 23.9532C9.94687 23.9251 9.9 23.9063 9.85312 23.9063C9.81094 23.9063 9.66562 23.8548 9.53906 23.7985C9.40781 23.7376 9.16875 23.5642 9.00937 23.4095C8.79375 23.2126 8.6625 23.0392 8.55 22.8048C8.4375 22.5751 8.37188 22.3454 8.325 22.0313C8.2875 21.7876 8.20781 21.1688 8.03906 19.7345H5.01562C3.13125 19.7345 1.89375 19.7157 1.73438 19.6876C1.59375 19.6595 1.35 19.5798 1.19531 19.5048C1.04062 19.4298 0.829687 19.2985 0.726562 19.2095C0.623438 19.1204 0.482813 18.961 0.4125 18.8626C0.342188 18.7642 0.220312 18.5251 0 18.0001V9.99385C0 4.6876 0.0140625 1.90322 0.046875 1.73447C0.075 1.59385 0.154688 1.3501 0.229688 1.19541C0.304688 1.04072 0.435937 0.829785 0.525 0.72666C0.614062 0.623535 0.773438 0.48291 0.871875 0.412598C0.970313 0.342285 1.2 0.22041 1.38281 0.14541L1.71094 0.00478516ZM1.5 1.77666C1.40625 1.96416 1.40625 2.05791 1.40625 9.8626C1.40625 17.6673 1.40625 17.7657 1.5 17.9485C1.5625 18.0735 1.65625 18.1673 1.78125 18.2298C1.96406 18.3235 2.0625 18.3235 7.03125 18.3235H12.0938C12.0562 18.1267 11.5922 14.4376 11.0438 10.0032C10.3359 4.30791 10.0219 1.89854 9.96563 1.79072C9.92344 1.70635 9.82031 1.58916 9.73594 1.53291L9.58594 1.4251C2.04844 1.40635 1.94063 1.41104 1.76719 1.5001C1.65938 1.55635 1.56094 1.65947 1.5 1.77666ZM11.9391 5.7751C11.9484 5.83135 12.3234 8.84541 12.7734 12.4642C13.4109 17.6063 13.5797 19.0876 13.5469 19.2142C13.5141 19.3314 13.0828 19.8657 12.1266 20.972L10.7484 22.5657C21.9516 22.5892 22.0359 22.5892 22.2188 22.4954C22.3438 22.4329 22.4375 22.3392 22.5 22.2142C22.5938 22.0313 22.5938 21.9329 22.5938 14.1282C22.5938 6.32354 22.5938 6.22979 22.5 6.04229C22.4375 5.91728 22.3438 5.82354 22.2188 5.76104C22.0359 5.67197 21.9375 5.66729 16.9781 5.66729H11.9203L11.9391 5.7751ZM9.47344 19.8376C9.47813 19.8985 9.525 20.3157 9.58125 20.7657C9.64219 21.2579 9.70312 21.5767 9.73125 21.5673C9.75469 21.5532 10.1297 21.1407 10.5609 20.6392L11.3484 19.7345H9.47344V19.8376ZM6.36094 4.96885C6.97969 4.96885 7.21406 4.98291 7.34531 5.03916C7.44844 5.07666 7.57031 5.17979 7.64062 5.28291C7.73906 5.42822 7.87031 6.02822 8.47031 9.04229C8.86406 11.0157 9.1875 12.6798 9.1875 12.736C9.1875 12.7923 9.14531 12.9235 9.09375 13.0267C9.03125 13.1517 8.9375 13.2454 8.8125 13.3079C8.70938 13.3595 8.55937 13.4017 8.48438 13.4017C8.40469 13.4017 8.25937 13.3595 8.15625 13.3079C8.03438 13.247 7.93594 13.1532 7.87969 13.0407C7.83281 12.9423 7.69219 12.3517 7.33594 10.5892H5.41406L5.18437 11.7282C5.05781 12.3517 4.9125 12.9423 4.86563 13.0407C4.80938 13.1532 4.71562 13.247 4.59375 13.3079C4.49062 13.3595 4.34062 13.4017 4.26562 13.4017C4.18594 13.4017 4.04063 13.3595 3.9375 13.3079C3.8125 13.2454 3.71875 13.1517 3.65625 13.0267C3.60469 12.9235 3.5625 12.7923 3.5625 12.736C3.5625 12.6798 3.88125 11.0157 4.275 9.04229C4.87969 6.02822 5.01094 5.42822 5.10938 5.28291C5.175 5.18447 5.30156 5.07666 5.39062 5.03916C5.5125 4.9876 5.76562 4.96885 6.36094 4.96885ZM5.69531 9.18291H7.05469L6.49219 6.37041H6.24375L5.69531 9.18291ZM17.6156 9.1876C17.7 9.1876 17.85 9.22979 17.9531 9.28135C18.0781 9.34385 18.1719 9.4376 18.2344 9.5626C18.3094 9.70791 18.3281 9.84385 18.3281 10.5938H19.4531C20.4844 10.5938 20.5969 10.5985 20.7656 10.6876C20.8906 10.7501 20.9844 10.8438 21.0469 10.9688C21.0984 11.072 21.1406 11.2173 21.1406 11.297C21.1406 11.372 21.0984 11.522 21.0469 11.6251C20.9844 11.7501 20.8906 11.8438 20.7656 11.9063C20.6625 11.9579 20.5125 12.0001 20.4281 12.0001C20.2828 12.0001 20.2688 12.0142 20.1609 12.3142C20.1 12.4876 19.9688 12.8157 19.8703 13.0407C19.7719 13.2657 19.5609 13.6688 19.4016 13.9313C19.2422 14.1985 18.9984 14.5595 18.6094 15.0704L18.8344 15.272C18.9562 15.3845 19.3312 15.6938 19.6641 15.961C20.0625 16.2798 20.3016 16.5048 20.3578 16.6126C20.4 16.7063 20.4375 16.8423 20.4375 16.922C20.4375 16.997 20.3953 17.147 20.3438 17.2501C20.2812 17.3751 20.1875 17.4688 20.0625 17.5313C19.9594 17.5829 19.8141 17.6251 19.7344 17.6251C19.6594 17.6251 19.5281 17.5876 19.4437 17.5454C19.3594 17.5032 19.1016 17.3157 18.8672 17.1329C18.6375 16.9454 18.2672 16.6454 18.0469 16.4579C17.8312 16.2751 17.6391 16.1251 17.625 16.1251C17.6156 16.1251 17.4234 16.2751 17.2031 16.4579C16.9875 16.6454 16.6172 16.9454 16.3828 17.1329C16.1531 17.3157 15.8953 17.5032 15.8109 17.5454C15.7266 17.5876 15.5953 17.6251 15.5156 17.6251C15.4406 17.6251 15.2906 17.5829 15.1875 17.5313C15.0625 17.4688 14.9688 17.3751 14.9062 17.2501C14.8547 17.147 14.8125 16.997 14.8125 16.922C14.8125 16.8423 14.85 16.7063 14.8969 16.6126C14.9484 16.5048 15.1922 16.2798 15.5859 15.961C15.9234 15.6938 16.2984 15.3845 16.6453 15.0704L16.3922 14.7423C16.2563 14.5595 16.0125 14.1985 15.8531 13.9313C15.6938 13.6688 15.4828 13.2657 15.3844 13.0407C15.2859 12.8157 15.1547 12.4876 15.0891 12.3142C14.9812 12.0142 14.9719 12.0001 14.8266 12.0001C14.7422 12.0001 14.5875 11.9579 14.4844 11.9063C14.3594 11.8438 14.2656 11.7501 14.2031 11.6251C14.1516 11.522 14.1094 11.372 14.1094 11.297C14.1094 11.2173 14.1516 11.072 14.2031 10.9688C14.2656 10.8438 14.3594 10.7501 14.4844 10.6876C14.6578 10.5985 14.7656 10.5938 16.9219 10.5938V10.172C16.9219 9.84385 16.9453 9.70791 17.0156 9.5626C17.0766 9.44541 17.175 9.34229 17.2875 9.28135C17.3812 9.22979 17.5312 9.1876 17.6156 9.1876ZM16.7391 12.6095C16.8703 12.8813 17.1141 13.3079 17.2781 13.5563C17.4422 13.8095 17.6016 14.0157 17.625 14.0157C17.6531 14.0157 17.8078 13.8095 17.9766 13.5563C18.1406 13.3079 18.3844 12.8813 18.5156 12.6095C18.6422 12.3376 18.75 12.0892 18.75 12.0563C18.75 12.0142 18.4969 12.0001 17.625 12.0001C16.7578 12.0001 16.5 12.0142 16.5 12.0563C16.5047 12.0892 16.6078 12.3376 16.7391 12.6095Z" fill="#F15A2B"/>
</g>
<defs>
<clipPath id="clip0_793_53727">
<rect width="24" height="24" fill="white"/>
</clipPath>
</defs>
</svg>
