<svg width="24" height="24" viewBox="0 0 24 24" fill="none" xmlns="http://www.w3.org/2000/svg">
<g clip-path="url(#clip0_793_53735)">
<path fill-rule="evenodd" clip-rule="evenodd" d="M3.25781 0.754688L20.6953 0.75L21.0469 0.857812C21.2391 0.91875 21.5344 1.04063 21.7031 1.13438C21.8719 1.22813 22.1016 1.3875 22.2141 1.48594C22.3266 1.58438 22.5094 1.78125 22.6172 1.92188C22.725 2.0625 22.8703 2.29219 22.9406 2.42344C23.0062 2.55938 23.1047 2.82656 23.1562 3.00937C23.25 3.34687 23.25 3.47344 23.2266 20.8359L23.1234 21.1406C23.0672 21.3094 22.9406 21.5812 22.8422 21.75C22.7437 21.9141 22.5281 22.1906 22.3594 22.3594C22.1906 22.5328 21.9094 22.7484 21.7266 22.8516C21.5437 22.9547 21.2391 23.0812 20.6953 23.25H3.28125L2.89219 23.1188C2.68125 23.0484 2.38125 22.9172 2.23125 22.8281C2.07656 22.7391 1.80937 22.5281 1.64062 22.3594C1.45781 22.1812 1.25156 21.9188 1.14375 21.7266C1.04531 21.5438 0.914062 21.2297 0.75 20.6484V12.0234C0.75 3.47812 0.75 3.39375 0.84375 3.02344C0.9 2.81719 1.02187 2.50312 1.11562 2.32031C1.21875 2.12812 1.42031 1.86094 1.61719 1.66406C1.8 1.48125 2.07187 1.25625 2.22656 1.17188C2.38125 1.08281 2.67656 0.951562 2.88281 0.88125L3.25781 0.754688ZM3.07031 2.41875C2.96719 2.46562 2.79844 2.59219 2.69531 2.69531C2.59219 2.79844 2.45625 2.99062 2.39062 3.11719C2.28281 3.34219 2.27344 3.40313 2.26406 4.30313L2.25 5.25H21.75L21.7266 3.35156C21.4734 2.8875 21.3328 2.7 21.2578 2.63906C21.1828 2.57344 21.0141 2.46563 20.8828 2.4L20.6484 2.27344C7.3875 2.26406 3.47344 2.27813 3.39844 2.29688C3.31875 2.31562 3.17344 2.36719 3.07031 2.41875ZM2.27344 20.6484C2.52656 21.1125 2.66719 21.3 2.74219 21.3656C2.82187 21.4312 2.99062 21.5391 3.11719 21.6047L3.35156 21.7266H20.6484C21.0141 21.5391 21.1828 21.4312 21.2578 21.3656C21.3328 21.3 21.4734 21.1125 21.5625 20.9484L21.7266 20.6484L21.7453 6.75H2.25L2.27344 20.6484ZM15.7359 3.00469C15.8203 3.00469 15.9562 3.02813 16.0406 3.06563C16.125 3.09844 16.2516 3.19219 16.3219 3.27656C16.3922 3.35625 16.4625 3.50156 16.4812 3.6C16.4953 3.69375 16.4953 3.84844 16.4766 3.9375C16.4578 4.03594 16.3687 4.17656 16.2703 4.275C16.1578 4.3875 16.0391 4.45469 15.9141 4.47656C15.8109 4.49531 15.6516 4.49531 15.5625 4.47656C15.4641 4.45781 15.3234 4.37344 15.225 4.275C15.1125 4.15937 15.0453 4.03906 15.0234 3.91406C15.0047 3.81094 15 3.66094 15.0187 3.57656C15.0328 3.49219 15.0937 3.35625 15.1547 3.27656C15.2156 3.19688 15.3375 3.10313 15.4266 3.06563C15.5109 3.03281 15.6516 3.00469 15.7359 3.00469ZM17.9859 3.00469C18.0703 3.00469 18.2062 3.02813 18.2906 3.06563C18.375 3.09844 18.5016 3.19219 18.5719 3.27656C18.6422 3.35625 18.7125 3.50156 18.7312 3.6C18.7453 3.69375 18.7453 3.84844 18.7266 3.9375C18.7078 4.03594 18.6187 4.17656 18.5203 4.275C18.4078 4.3875 18.2891 4.45469 18.1641 4.47656C18.0609 4.49531 17.9016 4.49531 17.8125 4.47656C17.7141 4.45781 17.5734 4.37344 17.475 4.275C17.3625 4.15937 17.2953 4.03906 17.2734 3.91406C17.2547 3.81094 17.25 3.66094 17.2687 3.57656C17.2828 3.49219 17.3437 3.35625 17.4047 3.27656C17.4656 3.19688 17.5875 3.10313 17.6766 3.06563C17.7609 3.03281 17.9016 3.00469 17.9859 3.00469ZM20.2359 3.00469C20.3203 3.00469 20.4562 3.02813 20.5406 3.06563C20.625 3.09844 20.7516 3.19219 20.8219 3.27656C20.8922 3.35625 20.9625 3.50156 20.9812 3.6C20.9953 3.69375 20.9953 3.84844 20.9766 3.9375C20.9578 4.03594 20.8687 4.17656 20.7703 4.275C20.6578 4.3875 20.5391 4.45469 20.4141 4.47656C20.3109 4.49531 20.1516 4.49531 20.0625 4.47656C19.9641 4.45781 19.8234 4.37344 19.725 4.275C19.6125 4.15937 19.5453 4.03906 19.5234 3.91406C19.5047 3.81094 19.5 3.66094 19.5187 3.57656C19.5328 3.49219 19.5937 3.35625 19.6547 3.27656C19.7156 3.19688 19.8375 3.10313 19.9266 3.06563C20.0109 3.03281 20.1516 3.00469 20.2359 3.00469ZM13.4531 8.25469C13.6687 8.25469 14.0344 8.28281 14.2594 8.32031C14.4844 8.3625 14.8453 8.45625 15.0562 8.53125C15.2719 8.61094 15.6234 8.78438 15.8437 8.91562C16.0922 9.07031 16.3969 9.31875 16.6641 9.58594C16.8984 9.82031 17.1844 10.1672 17.3062 10.3594C17.4281 10.5562 17.5875 10.8703 17.6672 11.0625C17.7422 11.2594 17.8406 11.5641 17.8875 11.7422C17.9484 11.9812 17.9719 12.2578 17.9719 12.75C17.9719 13.2422 17.9484 13.5234 17.8875 13.7578C17.8406 13.9406 17.7516 14.2266 17.6859 14.3906C17.6203 14.5594 17.4656 14.8641 17.3484 15.0703C17.1984 15.3281 16.9828 15.5906 16.6641 15.9141C16.3312 16.2469 16.0734 16.4531 15.7969 16.6172C15.5766 16.7437 15.2344 16.9078 15.0328 16.9781C14.8359 17.0531 14.475 17.1469 14.2359 17.1891C13.9266 17.2406 13.6547 17.2547 13.2891 17.2359C12.9937 17.2219 12.6094 17.1656 12.3984 17.1094C12.1922 17.0578 11.8312 16.9172 11.6016 16.8094C11.3672 16.6969 11.1141 16.5609 10.8984 16.4203L9 18.3094C7.275 20.0203 7.08281 20.2031 6.91406 20.2313C6.81094 20.25 6.65156 20.2453 6.5625 20.2266C6.46406 20.2078 6.32344 20.1234 6.225 20.025C6.1125 19.9094 6.04531 19.7891 6.02344 19.6641C6.00469 19.5609 6.00469 19.4062 6.01875 19.3125C6.04687 19.1766 6.36562 18.8344 9.82969 15.3516L9.74062 15.2109C9.68906 15.1359 9.55312 14.8828 9.44062 14.6484C9.33281 14.4187 9.19219 14.0484 9.13125 13.8281C9.04219 13.5 9.02344 13.3172 9.02344 12.75C9.02812 12.2625 9.05156 11.9812 9.10781 11.7422C9.15469 11.5641 9.25312 11.2594 9.33281 11.0625C9.40781 10.8703 9.57187 10.5562 9.68906 10.3594C9.81094 10.1672 10.0875 9.82969 10.3078 9.60469C10.5281 9.38437 10.8562 9.10313 11.0391 8.99063C11.2172 8.87344 11.4797 8.72344 11.625 8.6625C11.7656 8.60156 11.9953 8.50781 12.1406 8.46563C12.2812 8.41875 12.5437 8.35313 12.7266 8.32031C12.9047 8.2875 13.2328 8.25938 13.4531 8.25469ZM12.1406 10.0875C11.8406 10.2375 11.6531 10.3781 11.3859 10.6406C11.1234 10.9078 10.9875 11.0906 10.8375 11.3906C10.725 11.6109 10.6078 11.9391 10.5703 12.1172C10.5328 12.3 10.5 12.5859 10.5 12.75C10.5 12.9187 10.5328 13.2047 10.5703 13.3828C10.6078 13.5656 10.725 13.8938 10.8375 14.1094C10.9828 14.4047 11.1234 14.5969 11.3672 14.8359C11.5453 15.0188 11.8312 15.2437 12 15.3422C12.1641 15.4406 12.45 15.5672 12.6328 15.6234C12.8906 15.7078 13.0734 15.7266 13.5 15.7266C13.9266 15.7266 14.1047 15.7078 14.3672 15.6234C14.5453 15.5672 14.8312 15.4406 14.9953 15.3422C15.1641 15.2437 15.4406 15.0281 15.6047 14.8594C15.7734 14.6906 15.9937 14.4187 16.0875 14.25C16.1859 14.0859 16.3078 13.8094 16.3641 13.6406C16.4156 13.4766 16.4672 13.1484 16.4812 12.9141C16.5 12.6234 16.4859 12.3891 16.4344 12.1406C16.3922 11.9484 16.2844 11.6438 16.2 11.4609C16.1109 11.2828 15.9422 11.0109 15.825 10.8656C15.7031 10.7156 15.4969 10.5094 15.3609 10.4016C15.225 10.2984 14.9672 10.1391 14.7891 10.05C14.6062 9.96094 14.3109 9.85781 14.1328 9.82031C13.95 9.78281 13.6547 9.75469 13.4766 9.75469C13.2937 9.75938 13.0078 9.7875 12.8437 9.825C12.675 9.85781 12.3562 9.97969 12.1406 10.0875ZM6.05156 9.01406C6.9375 9.02344 7.03594 9.03281 7.14844 9.11719C7.21875 9.16875 7.32187 9.27187 7.37344 9.34687C7.44844 9.44531 7.47656 9.54375 7.47656 9.75C7.47656 9.95625 7.44844 10.0594 7.37344 10.1578C7.32187 10.2328 7.21875 10.3313 7.14844 10.3828C7.03594 10.4672 6.9375 10.4812 6.09844 10.4953C5.57812 10.5 5.10469 10.4859 5.01562 10.4625C4.92187 10.4344 4.78125 10.3406 4.69687 10.2469C4.60781 10.1484 4.53281 10.0078 4.51875 9.90469C4.5 9.80625 4.5 9.66094 4.51875 9.57656C4.53281 9.49219 4.59375 9.35625 4.65469 9.27656C4.71562 9.19687 4.8375 9.10312 4.92656 9.06562C5.04375 9.01875 5.325 9.00469 6.05156 9.01406ZM6.05156 12.0141C6.9375 12.0234 7.03594 12.0328 7.14844 12.1172C7.21875 12.1687 7.32187 12.2719 7.37344 12.3469C7.44844 12.4453 7.47656 12.5437 7.47656 12.75C7.47656 12.9563 7.44844 13.0594 7.37344 13.1578C7.32187 13.2328 7.21875 13.3313 7.14844 13.3828C7.03594 13.4672 6.9375 13.4812 6.09844 13.4953C5.57812 13.5 5.10469 13.4859 5.01562 13.4625C4.92187 13.4344 4.78125 13.3406 4.69687 13.2469C4.60781 13.1484 4.53281 13.0078 4.51875 12.9047C4.5 12.8062 4.5 12.6609 4.51875 12.5766C4.53281 12.4922 4.59375 12.3562 4.65469 12.2766C4.71562 12.1969 4.8375 12.1031 4.92656 12.0656C5.04375 12.0187 5.325 12.0047 6.05156 12.0141ZM6.05156 15.0141C6.9375 15.0234 7.03594 15.0328 7.14844 15.1172C7.21875 15.1687 7.32187 15.2719 7.37344 15.3469C7.44844 15.4453 7.47656 15.5437 7.47656 15.75C7.47656 15.9563 7.44844 16.0594 7.37344 16.1578C7.32187 16.2328 7.21875 16.3313 7.14844 16.3828C7.03594 16.4672 6.9375 16.4812 6.09844 16.4953C5.57812 16.5 5.10469 16.4859 5.01562 16.4625C4.92187 16.4344 4.78125 16.3406 4.69687 16.2469C4.60781 16.1484 4.53281 16.0078 4.51875 15.9047C4.5 15.8062 4.5 15.6609 4.51875 15.5766C4.53281 15.4922 4.59375 15.3562 4.65469 15.2766C4.71562 15.1969 4.8375 15.1031 4.92656 15.0656C5.04375 15.0187 5.325 15.0047 6.05156 15.0141ZM18.0516 18.0141C18.9375 18.0234 19.0359 18.0328 19.1484 18.1172C19.2187 18.1688 19.3219 18.2719 19.3734 18.3469C19.4484 18.4453 19.4766 18.5438 19.4766 18.75C19.4766 18.9562 19.4484 19.0594 19.3734 19.1578C19.3219 19.2328 19.2187 19.3312 19.1484 19.3828C19.0359 19.4672 18.9375 19.4812 18.0984 19.4953C17.5781 19.5 17.1047 19.4859 17.0156 19.4625C16.9219 19.4344 16.7812 19.3406 16.6969 19.2469C16.6078 19.1484 16.5328 19.0078 16.5187 18.9047C16.5 18.8062 16.5 18.6609 16.5187 18.5766C16.5328 18.4922 16.5937 18.3562 16.6547 18.2766C16.7156 18.1969 16.8375 18.1031 16.9266 18.0656C17.0437 18.0187 17.325 18.0047 18.0516 18.0141Z" fill="#F15A2B"/>
</g>
<defs>
<clipPath id="clip0_793_53735">
<rect width="24" height="24" fill="white"/>
</clipPath>
</defs>
</svg>
