<svg width="24" height="24" viewBox="0 0 24 24" fill="none" xmlns="http://www.w3.org/2000/svg">
<g clip-path="url(#clip0_793_54057)">
<path fill-rule="evenodd" clip-rule="evenodd" d="M0.492188 0.05625L23.4844 0.046875L23.6531 0.154687C23.7469 0.210938 23.8641 0.3375 23.9109 0.435938C23.9953 0.6 24 0.834375 24 5.67188C24 10.6406 24 10.7391 23.9062 10.9219C23.8547 11.025 23.7469 11.1469 23.6578 11.1891C23.5219 11.2641 23.2547 11.2734 17.7891 11.3203L20.6016 12.7031H22.0219C23.3438 12.7031 23.4516 12.7078 23.625 12.7969C23.75 12.8594 23.8438 12.9531 23.9062 13.0781C24 13.2609 24 13.3594 24 18.3281C24 23.1656 23.9953 23.4 23.9109 23.5687C23.8641 23.6625 23.7469 23.7891 23.4844 23.9531H10.3594L10.1906 23.85C10.0969 23.7891 9.97969 23.6625 9.93281 23.5687C9.84844 23.4 9.84375 23.1656 9.84375 18.3281C9.84375 13.3594 9.84375 13.2609 9.9375 13.0781C10 12.9531 10.0938 12.8594 10.2188 12.7969C10.3922 12.7125 10.5 12.7031 11.6016 12.7031C12.3656 12.7031 12.7969 12.6844 12.7969 12.6562C12.7969 12.6281 12.7453 12.3938 12.675 12.1266C12.6094 11.8641 12.5391 11.5688 12.4688 11.2969H6.51562C0.65625 11.2969 0.557813 11.2969 0.375 11.2031C0.25 11.1406 0.15625 11.0469 0.09375 10.9219C0 10.7391 0 10.6406 0 5.67188C0 0.839063 0.0046875 0.6 0.0890625 0.43125C0.135937 0.3375 0.24375 0.210938 0.332812 0.154687L0.492188 0.05625ZM1.40625 9.89531H12.0938C12.0797 9.56719 12.1078 9.43594 12.1688 9.3375C12.2156 9.24844 12.3094 9.13594 12.375 9.08906C12.4406 9.0375 12.5859 8.98594 12.7031 8.97187C12.9 8.94844 12.9891 8.98594 13.875 9.42188L14.8359 9.89531H22.5938V1.45781H1.40625V9.89531ZM14.625 14.0672C14.9906 15.4969 15.3047 16.6828 15.3187 16.7016C15.3375 16.7203 15.5203 16.5984 15.7266 16.425C15.9328 16.2563 16.1484 16.0969 16.2094 16.0734C16.2656 16.0547 16.3781 16.0359 16.4531 16.0359C16.5328 16.0359 16.6641 16.0641 16.7484 16.1016C16.8422 16.1437 17.1047 16.4203 17.4609 16.8516C17.7703 17.2219 18.0375 17.5312 18.0609 17.5312C18.0797 17.5312 18.3609 17.3109 18.6937 17.0344C19.0219 16.7578 19.3172 16.5141 19.35 16.4859C19.3922 16.4438 19.2797 16.2844 18.8625 15.7781C18.5625 15.4172 18.2906 15.0609 18.2531 14.9906C18.2156 14.9203 18.1875 14.7844 18.1875 14.6859C18.1875 14.5922 18.2297 14.4422 18.2812 14.3578C18.3328 14.2734 18.5438 14.0625 18.75 13.8891C18.9562 13.7156 19.1109 13.5609 19.0922 13.5469C19.0734 13.5281 17.9062 12.9563 16.5 12.2672C15.0938 11.5828 13.9219 11.0203 13.8891 11.0203C13.8469 11.0203 13.8516 11.0766 13.8984 11.2406C13.9359 11.3625 14.2594 12.6328 14.625 14.0672ZM11.25 22.5516H22.5938V14.1141H20.6719C19.9359 14.7375 19.8844 14.8031 19.9313 14.8641C19.9641 14.9016 20.2031 15.1875 20.4656 15.4969C20.7281 15.8063 20.9766 16.125 21.0187 16.2094C21.0609 16.2937 21.0938 16.4344 21.0938 16.5281C21.0938 16.6172 21.0609 16.7531 21.0234 16.8328C20.9859 16.9078 20.6953 17.1891 20.3812 17.4562C20.0625 17.7188 19.4719 18.2156 19.0687 18.5578C18.6141 18.9328 18.2578 19.1953 18.1547 19.2281C18.0094 19.275 17.9391 19.2703 17.7656 19.2094C17.5828 19.1437 17.475 19.0406 16.9688 18.4313L16.3828 17.7281C15.5484 18.4219 15.2578 18.6375 15.2016 18.6609C15.1406 18.6891 15.0047 18.7078 14.8969 18.7078C14.7609 18.7078 14.6438 18.675 14.5406 18.6C14.4516 18.5437 14.3531 18.4406 14.3156 18.3797C14.2781 18.3141 14.0109 17.3344 13.7203 16.2L13.1953 14.1375L11.25 14.1094V22.5516ZM4.20938 12.7125C7.78594 12.7078 7.87969 12.7125 8.0625 12.8016C8.1875 12.8641 8.28125 12.9578 8.34375 13.0828C8.4375 13.2703 8.4375 13.3641 8.4375 18.3328C8.4375 23.1703 8.4375 23.4047 8.35312 23.5734C8.30625 23.6672 8.18906 23.7938 7.92188 23.9578H0.515625L0.346875 23.8547C0.253125 23.7937 0.135937 23.6672 0.0890625 23.5734C0.0046875 23.4047 0 23.1703 0 18.3328C0 13.3641 0.0046875 13.2703 0.09375 13.0828C0.154687 12.9656 0.253125 12.8625 0.365625 12.8063C0.534375 12.7172 0.660938 12.7125 4.20938 12.7125ZM1.40625 22.5516H7.03125V14.1141H1.40625V22.5516ZM4.88906 2.86875C5.01094 2.86875 5.22188 2.8875 5.35781 2.91563C5.49375 2.94844 5.71875 3.02344 5.85938 3.08906C6.00938 3.15938 6.23906 3.32812 6.40313 3.49687C6.5625 3.65625 6.73594 3.89062 6.80625 4.03594C6.87187 4.18125 6.95156 4.40625 6.97969 4.54219C7.0125 4.69688 7.03125 5.3625 7.03125 6.35625C7.03125 7.83281 7.02656 7.94063 6.9375 8.11406C6.875 8.23906 6.78125 8.33281 6.65625 8.39531C6.55312 8.44688 6.40781 8.48906 6.32812 8.48906C6.25313 8.48906 6.10313 8.44688 6 8.39531C5.875 8.33281 5.78125 8.23906 5.71875 8.11406C5.64844 7.96875 5.625 7.83281 5.625 7.08281H4.21875V7.50469C4.21875 7.83281 4.2 7.96875 4.125 8.11406C4.0625 8.23906 3.96875 8.33281 3.84375 8.39531C3.74062 8.44688 3.59531 8.48906 3.51562 8.48906C3.44062 8.48906 3.29063 8.44688 3.1875 8.39531C3.0625 8.33281 2.96875 8.23906 2.90625 8.11406C2.82188 7.94063 2.8125 7.83281 2.8125 6.35625C2.8125 5.38125 2.83594 4.69219 2.86875 4.54219C2.89688 4.40625 2.97188 4.18125 3.0375 4.03594C3.10781 3.88594 3.27656 3.66094 3.44531 3.49687C3.6 3.34219 3.83437 3.16406 3.96094 3.10312C4.09219 3.04219 4.30312 2.9625 4.42969 2.92969C4.56094 2.90156 4.76719 2.87344 4.88906 2.86875ZM4.30313 4.65469C4.24688 4.76719 4.22344 4.93125 4.22344 5.24531L4.21875 5.67656H5.625C5.625 4.92656 5.60625 4.79063 5.53125 4.64531C5.46875 4.52031 5.375 4.42656 5.25 4.36406C5.14687 4.3125 4.99688 4.27031 4.9125 4.27031C4.82812 4.27031 4.67344 4.32188 4.57031 4.3875C4.46719 4.44844 4.35 4.57031 4.30313 4.65469ZM9.5625 2.86875C10.0078 2.86406 10.2422 2.8875 10.5234 2.9625C10.7297 3.01406 11.025 3.12188 11.1797 3.20625C11.3438 3.29063 11.6109 3.50625 11.8172 3.70781C12.0188 3.90937 12.2344 4.18125 12.3187 4.34062C12.3984 4.49531 12.5109 4.79063 12.5625 4.99687C12.6141 5.20312 12.6609 5.5125 12.6609 5.67656C12.6609 5.84531 12.6141 6.15 12.5625 6.35625C12.5109 6.5625 12.3984 6.85781 12.3187 7.0125C12.2344 7.17656 12.0188 7.44375 11.8172 7.65C11.6109 7.85156 11.3438 8.0625 11.1797 8.15156C11.025 8.23125 10.7297 8.34375 10.5234 8.39531C10.2469 8.46563 10.0031 8.48906 9.57656 8.48906C9.09844 8.48906 8.97188 8.475 8.8125 8.39531C8.6875 8.33281 8.59375 8.23906 8.53125 8.11406C8.44219 7.93594 8.4375 7.83281 8.4375 5.67656C8.4375 3.52031 8.44219 3.42188 8.53125 3.23906C8.59219 3.12187 8.69063 3.01875 8.80313 2.9625C8.94844 2.88281 9.07969 2.86875 9.5625 2.86875ZM9.84375 7.10625C10.1531 7.05 10.35 6.98438 10.4766 6.92344C10.6078 6.8625 10.7859 6.73125 10.875 6.63281C10.9641 6.53438 11.0766 6.35625 11.1281 6.23906C11.1984 6.08906 11.2266 5.93437 11.2266 5.67656C11.2266 5.42344 11.1984 5.26875 11.1281 5.11406C11.0766 5.00156 10.9641 4.82344 10.875 4.725C10.7859 4.62656 10.6078 4.49531 10.4766 4.43437C10.35 4.37344 10.1578 4.30781 10.05 4.28906L9.85781 4.26094L9.84375 7.10625ZM17.5687 3.56719C20.4422 3.56719 20.5406 3.56719 20.7234 3.66094C20.8484 3.72344 20.9422 3.81719 21.0047 3.94219C21.0562 4.04531 21.0984 4.19062 21.0984 4.27031C21.0984 4.34531 21.0562 4.49531 21.0047 4.59844C20.9422 4.72344 20.8484 4.81719 20.7234 4.87969C20.5406 4.96875 20.4422 4.97344 17.5828 4.97344C14.7234 4.97344 14.625 4.96875 14.4422 4.87969C14.3172 4.81719 14.2234 4.72344 14.1609 4.59844C14.1094 4.49531 14.0672 4.34531 14.0672 4.27031C14.0672 4.19062 14.1094 4.04531 14.1609 3.94219C14.2172 3.825 14.3203 3.71719 14.4281 3.66094C14.5969 3.57187 14.7234 3.57187 17.5687 3.56719ZM17.5687 6.37969C20.4422 6.37969 20.5406 6.37969 20.7234 6.47344C20.8484 6.53594 20.9422 6.62969 21.0047 6.75469C21.0562 6.85781 21.0984 7.00313 21.0984 7.08281C21.0984 7.15781 21.0562 7.30781 21.0047 7.41094C20.9422 7.53594 20.8484 7.62969 20.7234 7.69219C20.5406 7.78125 20.4422 7.78594 17.5828 7.78594C14.7234 7.78594 14.625 7.78125 14.4422 7.69219C14.3172 7.62969 14.2234 7.53594 14.1609 7.41094C14.1094 7.30781 14.0672 7.15781 14.0672 7.08281C14.0672 7.00313 14.1094 6.85781 14.1609 6.75469C14.2172 6.6375 14.3203 6.52969 14.4281 6.47344C14.5969 6.38438 14.7234 6.38438 17.5687 6.37969Z" fill="#F15A2B"/>
</g>
<defs>
<clipPath id="clip0_793_54057">
<rect width="24" height="24" fill="white"/>
</clipPath>
</defs>
</svg>
