<svg width="24" height="24" viewBox="0 0 24 24" fill="none" xmlns="http://www.w3.org/2000/svg">
<g clip-path="url(#clip0_793_53763)">
<path fill-rule="evenodd" clip-rule="evenodd" d="M21.0703 0.010741C22.1672 0.00136603 22.3172 0.010741 22.5937 0.095116C22.7625 0.146679 22.9828 0.240429 23.0859 0.301366C23.1891 0.362303 23.3672 0.512304 23.4797 0.638866C23.5922 0.765428 23.7328 0.971678 23.7937 1.10293C23.8594 1.23887 23.9297 1.51543 23.9578 1.75918C23.9953 2.03105 24 2.56074 23.9859 3.25918C23.9672 3.85449 23.925 4.62324 23.8828 4.97012C23.8453 5.31699 23.7703 5.86543 23.7141 6.18887C23.6578 6.5123 23.5359 7.10293 23.4375 7.50137C23.3391 7.8998 23.1844 8.44824 23.0953 8.72012C23.0062 8.99199 22.8422 9.44199 22.7297 9.72793C22.6172 10.0139 22.3781 10.5389 22.1953 10.8998C22.0125 11.2607 21.7266 11.7717 21.5625 12.0389C21.3937 12.3061 21.0891 12.7514 20.8828 13.0279C20.6766 13.3092 20.2922 13.7873 20.0297 14.092C19.7672 14.4014 19.2516 14.9451 18.8812 15.3061C18.5109 15.6717 18.0797 16.0795 17.625 16.4779L17.4844 18.3061C17.4094 19.3092 17.3203 20.2186 17.2922 20.3217C17.2641 20.4248 17.1984 20.5889 17.1516 20.6826C17.1 20.7811 16.9734 20.9592 16.8609 21.0811C16.7344 21.2217 16.0219 21.7232 14.7891 22.5389C13.7578 23.2186 12.8156 23.8279 12.6891 23.8889C12.525 23.9732 12.3937 24.0014 12.1781 24.0014C11.9344 23.9967 11.8312 23.9686 11.6062 23.8467C11.4562 23.7623 11.2734 23.6217 11.1984 23.5326C11.1281 23.4436 11.0344 23.2748 10.9969 23.1576C10.9547 23.0404 10.8281 22.3232 10.7109 21.5639C10.5937 20.8045 10.4906 20.1342 10.4766 20.0732C10.4531 19.9795 10.4344 19.9701 10.1812 19.9936C10.0359 20.0076 9.79687 19.9982 9.65625 19.9701C9.51562 19.942 9.28125 19.867 9.14062 19.7967C8.92969 19.6982 8.50312 19.2951 6.73125 17.5373C5.55 16.3607 4.49062 15.2732 4.37344 15.1186C4.26094 14.9639 4.13437 14.7342 4.0875 14.6029C4.04062 14.4576 4.00781 14.2139 4.00781 13.9561C4.00781 13.6326 3.99375 13.5436 3.9375 13.5248C3.9 13.5154 3.23437 13.4076 2.46094 13.2904C1.6875 13.1732 0.960937 13.0467 0.84375 13.0045C0.726562 12.967 0.557812 12.8732 0.46875 12.8029C0.379687 12.7279 0.24375 12.5545 0.164062 12.4186C0.0421875 12.1982 0.0234375 12.1186 0.0234375 11.8139C0.0234375 11.5467 0.0515625 11.4154 0.126562 11.2748C0.178125 11.1717 0.782812 10.2436 1.4625 9.2123C2.27344 7.98887 2.77969 7.26699 2.92031 7.13574C3.04219 7.02793 3.22031 6.90137 3.31406 6.8498C3.4125 6.80293 3.57656 6.7373 3.67969 6.70918C3.78281 6.68105 4.6875 6.59199 7.52344 6.37168L7.78125 6.08105C7.92187 5.92168 8.32031 5.4998 8.67187 5.13887C9.01875 4.78262 9.53437 4.29043 9.82031 4.04668C10.1062 3.79824 10.5375 3.44668 10.7812 3.25918C11.025 3.07168 11.4375 2.78574 11.6953 2.61699C11.9531 2.44824 12.375 2.19043 12.6328 2.0498C12.8906 1.90449 13.3406 1.67949 13.6266 1.54824C13.9172 1.42168 14.3812 1.22949 14.6578 1.12168C14.9391 1.01855 15.4172 0.859178 15.7266 0.770116C16.0359 0.681053 16.5656 0.545116 16.8984 0.465428C17.2312 0.390428 17.8781 0.277929 18.3281 0.216991C18.7781 0.151366 19.3078 0.0810535 19.5 0.057616C19.6922 0.0341785 20.4 0.010741 21.0703 0.010741ZM19.1016 1.52949C18.7406 1.56699 18.1594 1.65137 17.8125 1.71699C17.4656 1.77793 16.8609 1.91855 16.4766 2.02168C16.0875 2.1248 15.4969 2.3123 15.1641 2.43887C14.8312 2.56543 14.325 2.77637 14.0391 2.90762C13.7531 3.03887 13.2609 3.30605 12.9375 3.49824C12.6141 3.69043 12.1219 4.01855 11.8359 4.22949C11.55 4.44043 11.1281 4.76855 10.8984 4.96543C10.6687 5.15762 10.1719 5.62637 9.79687 6.00137C9.42187 6.37637 8.925 6.91074 8.69531 7.1873C8.46094 7.46855 8.09531 7.94199 7.88437 8.24199C7.66875 8.54199 7.35937 9.01074 7.19531 9.28261C7.03594 9.55449 6.82031 9.92949 6.72187 10.117L6.53906 10.4592L13.5469 17.4623C14.0719 17.1811 14.4422 16.9701 14.7094 16.8107C14.9766 16.6561 15.4406 16.3467 15.75 16.1264C16.0547 15.9061 16.5328 15.5404 16.8141 15.3061C17.0906 15.0764 17.625 14.5795 18 14.2045C18.375 13.8295 18.8437 13.3326 19.0359 13.1029C19.2328 12.8732 19.5609 12.4514 19.7719 12.1654C19.9828 11.8795 20.3109 11.3873 20.5031 11.0639C20.6953 10.7404 20.9578 10.2576 21.0844 9.98574C21.2109 9.71387 21.4219 9.20761 21.5531 8.86074C21.6844 8.51387 21.8766 7.90918 21.9797 7.5248C22.0828 7.13574 22.2234 6.53574 22.2844 6.18887C22.35 5.84199 22.4391 5.25137 22.4812 4.87637C22.5375 4.4123 22.5656 3.81699 22.5656 2.99668C22.5703 2.11074 22.5562 1.76855 22.5094 1.68418C22.4766 1.62324 22.4062 1.53887 22.3453 1.50137C22.2609 1.44512 22.05 1.43105 21.2578 1.42637C20.7141 1.42168 20.1562 1.43105 20.0156 1.44043C19.875 1.4498 19.4625 1.4873 19.1016 1.52949ZM3.9 8.14355C3.84375 8.19043 3.28125 9.01074 2.65312 9.9623C2.02031 10.9186 1.50937 11.7014 1.51406 11.7107C1.51875 11.7154 2.12344 11.8139 2.85937 11.9311C3.59531 12.0436 4.2375 12.142 4.28906 12.142C4.36406 12.142 4.40156 12.0857 4.47187 11.8748C4.51875 11.7248 4.63125 11.4014 4.72031 11.1576C4.81406 10.9139 4.99687 10.4686 5.13281 10.1732C5.26875 9.87793 5.48906 9.43262 5.625 9.18886C5.76094 8.94512 5.99531 8.54668 6.14531 8.3123L6.42187 7.87637C6.15 7.88574 5.60625 7.92793 5.03906 7.9748C4.20469 8.04512 3.98906 8.07324 3.9 8.14355ZM5.59687 13.0561C5.50781 13.417 5.42812 13.8248 5.42344 13.9561L5.41406 14.2045L9.79687 18.5873C10.1437 18.5779 10.4766 18.517 10.7578 18.4514C11.0437 18.3811 11.475 18.2639 11.7187 18.1842L12.1641 18.0389C7.3875 13.2529 5.99062 11.8607 5.98125 11.8607C5.97187 11.8607 5.91562 11.9826 5.86406 12.1326C5.80781 12.2779 5.69062 12.6951 5.59687 13.0561ZM14.6953 18.4373C14.4141 18.5873 13.9172 18.8311 13.5937 18.9717C13.2703 19.1123 12.75 19.3186 12.4359 19.4264C11.9531 19.5857 11.8594 19.6326 11.8594 19.7123C11.8594 19.7639 11.9531 20.4061 12.0703 21.142C12.1875 21.8779 12.2859 22.4826 12.2906 22.4873C12.3 22.492 13.1016 21.967 14.0766 21.3248C15.0656 20.6732 15.8672 20.1107 15.8953 20.0545C15.9234 19.9936 15.9891 19.4311 16.0359 18.7982C16.0875 18.1654 16.1156 17.6357 16.1062 17.6217C16.0969 17.6076 15.8906 17.7248 15.6469 17.8795C15.4078 18.0342 14.9812 18.2826 14.6953 18.4373ZM3.02344 16.0842C3.10312 16.0795 3.23906 16.117 3.32812 16.1639C3.41719 16.2061 3.53906 16.3186 3.6 16.4076C3.66094 16.5061 3.70312 16.642 3.70312 16.7498C3.70312 16.8436 3.675 16.9936 3.6375 17.0779C3.6 17.1623 3.02344 17.7717 2.31562 18.4748C1.28906 19.492 1.02187 19.7311 0.890625 19.7592C0.801562 19.7779 0.65625 19.7779 0.576562 19.7639C0.492187 19.7498 0.346875 19.6654 0.253125 19.5857C0.154687 19.492 0.0703125 19.3607 0.0421875 19.2576C0.0140625 19.1451 0.01875 19.0139 0.046875 18.9061C0.084375 18.7607 0.332812 18.4889 1.36875 17.4529C2.07187 16.7498 2.7 16.1545 2.76562 16.1311C2.83125 16.1076 2.94844 16.0842 3.02344 16.0842ZM5.1 18.1889C5.17969 18.1889 5.32031 18.217 5.40469 18.2498C5.48437 18.2873 5.60156 18.3764 5.6625 18.4514C5.71875 18.5264 5.77969 18.6529 5.79375 18.7279C5.8125 18.8076 5.80781 18.9529 5.78906 19.0561C5.76094 19.2248 5.55469 19.4451 3.50156 21.5076C2.25937 22.7545 1.1625 23.8279 1.06875 23.8889C0.95625 23.9592 0.820312 24.0014 0.703125 24.0014C0.590625 24.0014 0.445312 23.9592 0.346875 23.8982C0.253125 23.8373 0.135937 23.7107 0.0890625 23.617C0.0375 23.5186 0 23.3779 0 23.2982C0 23.2232 0.0421875 23.0779 0.0890625 22.9842C0.140625 22.8857 1.17187 21.8217 2.42344 20.5701C3.65625 19.342 4.72969 18.3014 4.80469 18.2639C4.88437 18.2217 5.01562 18.1889 5.1 18.1889ZM7.20937 20.2982C7.31719 20.2982 7.47187 20.3311 7.54687 20.3686C7.62656 20.4061 7.72969 20.4951 7.78125 20.5701C7.8375 20.6404 7.88906 20.7623 7.90312 20.8373C7.91719 20.917 7.91719 21.0529 7.89844 21.142C7.87031 21.2779 7.63125 21.5404 6.59062 22.5857C5.89219 23.2936 5.26406 23.8982 5.19375 23.9357C5.11875 23.9732 5.00156 24.0014 4.92187 24.0014C4.84687 24.0014 4.725 23.9732 4.65469 23.9357C4.57969 23.9029 4.46719 23.8139 4.40156 23.7389C4.33594 23.6639 4.26562 23.5279 4.24687 23.4389C4.22812 23.3498 4.22344 23.1998 4.24219 23.1107C4.27031 22.9748 4.49531 22.7217 5.49844 21.7092C6.17344 21.0295 6.79219 20.4342 6.86719 20.3873C6.94687 20.3357 7.09219 20.2982 7.20937 20.2982ZM16.3969 4.0373C16.4766 4.0373 16.7109 4.05605 16.9125 4.08418C17.1094 4.1123 17.4328 4.19199 17.625 4.2623C17.8172 4.32793 18.0984 4.45918 18.2531 4.54824C18.4031 4.6373 18.6516 4.82949 18.8062 4.97012C18.9656 5.11074 19.1812 5.35449 19.2937 5.50918C19.4016 5.66387 19.5562 5.93105 19.6359 6.10918C19.7156 6.28262 19.8141 6.56387 19.8609 6.74199C19.9078 6.93418 19.9359 7.25293 19.9359 7.57168C19.9406 7.96543 19.9125 8.17636 19.8328 8.4623C19.7766 8.66855 19.6453 8.99668 19.5469 9.18886C19.4437 9.38105 19.2609 9.65762 19.1391 9.80293C19.0125 9.95293 18.7969 10.1639 18.6562 10.2811C18.5156 10.3982 18.2625 10.567 18.0937 10.6561C17.925 10.7451 17.6437 10.867 17.4609 10.9232C17.25 10.9889 16.95 11.0357 16.6172 11.0498C16.2281 11.0686 16.0078 11.0592 15.7266 10.9982C15.5109 10.9514 15.15 10.8201 14.8828 10.6889C14.5312 10.5201 14.325 10.3842 14.0672 10.1451C13.8797 9.96699 13.6312 9.68574 13.5234 9.51699C13.4109 9.34824 13.2656 9.07637 13.1953 8.90762C13.125 8.73886 13.0406 8.46699 13.0031 8.29824C12.9703 8.12949 12.9375 7.79199 12.9375 7.54824C12.9375 7.25137 12.9687 6.97793 13.0312 6.72793C13.0828 6.52168 13.1953 6.20762 13.2844 6.0248C13.3687 5.84668 13.5422 5.57012 13.6687 5.41074C13.7953 5.25605 14.025 5.01699 14.1797 4.88105C14.3344 4.7498 14.6203 4.55762 14.8125 4.45449C15.0047 4.35605 15.2906 4.23887 15.4453 4.19199C15.6 4.1498 15.8437 4.09824 15.9844 4.07949C16.125 4.06074 16.3125 4.04199 16.3969 4.0373ZM15.4828 5.69199C15.3469 5.75762 15.1453 5.89355 15.0375 5.99199C14.9297 6.08574 14.7656 6.28262 14.6719 6.42324C14.5828 6.56387 14.4656 6.81699 14.4187 6.98574C14.3578 7.20605 14.3391 7.39824 14.3531 7.68887C14.3672 8.02168 14.3953 8.14355 14.5359 8.43887C14.6437 8.67324 14.7891 8.8748 14.9578 9.04355C15.1078 9.19355 15.3422 9.3623 15.5391 9.45605C15.8109 9.5873 15.9375 9.62012 16.2891 9.64355C16.6172 9.6623 16.7766 9.64824 17.0156 9.58261C17.1844 9.53574 17.4375 9.42324 17.5781 9.32949C17.7187 9.23574 17.9156 9.06699 18.0187 8.9498C18.1172 8.8373 18.2578 8.61699 18.3328 8.4623C18.4078 8.30762 18.4922 8.04512 18.5203 7.87637C18.5625 7.64668 18.5625 7.49199 18.5203 7.24355C18.4875 7.06543 18.4031 6.78887 18.3281 6.63418C18.2484 6.4748 18.0703 6.23574 17.9203 6.08105C17.7656 5.93105 17.5266 5.75293 17.3672 5.67793C17.2125 5.60293 16.9594 5.51855 16.8047 5.49043C16.65 5.4623 16.4719 5.43887 16.4062 5.44355C16.3406 5.44355 16.1625 5.47168 16.0078 5.50918C15.8531 5.54199 15.6141 5.62168 15.4828 5.69199Z" fill="#F15A2B"/>
</g>
<defs>
<clipPath id="clip0_793_53763">
<rect width="24" height="24" fill="white"/>
</clipPath>
</defs>
</svg>
