<?xml version="1.0" encoding="UTF-8"?> <svg xmlns="http://www.w3.org/2000/svg" width="120" height="121" viewBox="0 0 120 121" fill="none"><circle cx="60" cy="60.998" r="58" fill="#131D32" stroke="#445F8A" stroke-width="4"></circle><ellipse cx="60.0091" cy="61.0013" rx="48.8372" ry="48.8372" fill="#1A263A"></ellipse><path d="M41.6012 31.7066C40.3106 32.2746 29.8376 41.265 29.3909 42.1542C28.0259 45.0439 30.4084 59.8385 33.8581 69.6686C39.0201 84.4879 47.334 96.047 57.6333 102.74C58.7005 103.432 59.7677 104 60.0158 104C61.1574 104 66.9648 99.6036 70.4392 96.0964C81.905 84.562 90.0948 64.5807 90.9386 46.0072C91.0627 43.0186 91.0378 42.821 90.4919 41.9813C90.1692 41.4873 88.7546 40.1042 87.3152 38.8939C85.8758 37.7084 83.4188 35.6337 81.8305 34.3246C80.267 32.9909 78.6539 31.7807 78.2816 31.6325C77.2641 31.262 42.4946 31.3114 41.6012 31.7066Z" fill="#0C0E29" fill-opacity="0.7"></path><path d="M45.2199 37.6582C44.1761 38.1187 35.7049 45.4065 35.3435 46.1273C34.2395 48.4698 36.1666 60.4626 38.9568 68.4311C43.1322 80.444 49.857 89.814 58.1877 95.2398C59.0509 95.8004 59.9141 96.2609 60.1148 96.2609C61.0382 96.2609 65.7355 92.6971 68.5459 89.854C77.82 80.504 84.4444 64.3067 85.127 49.2506C85.2273 46.828 85.2072 46.6679 84.7656 45.9871C84.5047 45.5867 83.3604 44.4655 82.1962 43.4844C81.0319 42.5234 79.0445 40.8416 77.7598 39.7805C76.4951 38.6993 75.1903 37.7183 74.8892 37.5982C74.0662 37.2978 45.9426 37.3379 45.2199 37.6582Z" fill="url(#paint0_linear_6_1174)"></path><path d="M45.2199 37.6582C44.1761 38.1187 35.7049 45.4065 35.3435 46.1273C34.2395 48.4698 36.1666 60.4626 38.9568 68.4311C43.1322 80.444 49.857 89.814 58.1877 95.2398C59.0509 95.8004 59.9141 96.2609 60.1148 96.2609C61.0382 96.2609 65.7355 92.6971 68.5459 89.854C77.82 80.504 84.4444 64.3067 85.127 49.2506C85.2273 46.828 85.2073 46.6679 84.7656 45.9871C84.5047 45.5867 83.3604 44.4655 82.1962 43.4845C81.0319 42.5234 79.0445 40.8416 77.7598 39.7805C76.4952 38.6993 75.1903 37.7183 74.8892 37.5982C74.0662 37.2978 45.9426 37.3379 45.2199 37.6582ZM78.884 43.044L83.4608 46.8681L83.3404 49.4909C82.8586 59.4615 78.9642 71.8748 73.6246 80.484C71.6774 83.6474 69.5496 86.2902 66.8596 88.9531C64.3705 91.4157 60.7572 94.2587 60.1148 94.2587C59.4724 94.2587 55.8591 91.4157 53.3699 88.9531C47.7492 83.4071 43.5538 76.3195 40.5025 67.3299C38.3546 60.9431 36.829 53.0747 36.829 48.2696V46.828L41.3657 43.024L45.9024 39.1999H60.1148H74.3272L78.884 43.044Z" fill="#0C0E29"></path><path d="M43.204 45.0148L39.4531 48.2006V49.1364C39.4728 51.7647 40.2976 57.3199 41.3188 61.4813C44.4805 74.4037 51.1969 85.6536 59.0129 91.1092L60.0734 91.8459L61.1339 91.1092C66.9664 87.0473 72.6419 79.043 76.1965 69.9436C78.4941 63.9902 80.242 56.3243 80.6151 50.351L80.7525 48.2404L76.9623 45.0347L73.1918 41.8091H60.0734H46.955L43.204 45.0148Z" fill="#0C0E29"></path><path d="M65.5532 65.4368C65.5566 65.5308 65.5935 65.6114 65.664 65.6786C65.6713 65.6858 65.6764 65.6949 65.6788 65.7048C65.6812 65.7147 65.6809 65.7251 65.6778 65.7349C65.6746 65.7446 65.6689 65.7533 65.6611 65.7599C65.6534 65.7666 65.6439 65.771 65.6338 65.7726C65.4513 65.795 65.336 65.8443 65.2879 65.9204C65.2498 65.9808 65.2649 66.001 65.3332 65.9808L65.5062 65.9305C65.5734 65.9103 65.5862 65.9293 65.5448 65.9876C65.5023 66.0446 65.4435 66.0788 65.3685 66.09C65.1905 66.1168 65.1664 66.1924 65.2963 66.3167C65.4105 66.4253 65.5498 66.4527 65.7144 66.3989C65.795 66.3721 65.8079 66.3911 65.753 66.456C65.6903 66.5299 65.6125 66.5904 65.5196 66.6374C65.4558 66.6699 65.4569 66.6995 65.523 66.7264C65.6428 66.7768 65.7553 66.7712 65.8605 66.7096C65.8907 66.6928 65.9209 66.685 65.9512 66.6861C65.9948 66.6872 66.0049 66.7062 65.9814 66.7432L65.7312 67.1327C65.6943 67.191 65.7099 67.215 65.7782 67.2049C65.8543 67.1949 65.9327 67.1971 66.0133 67.2117C66.0715 67.2217 66.0922 67.2553 66.0754 67.3124C66.0542 67.3818 66.0178 67.4406 65.9663 67.4887C65.9249 67.5279 65.9181 67.5727 65.9461 67.6231C65.964 67.6555 65.9926 67.6718 66.0318 67.6718C66.0866 67.6718 66.1196 67.6992 66.1308 67.754C66.1409 67.8022 66.1292 67.8441 66.0956 67.88C66.0877 67.8892 66.0821 67.9003 66.0795 67.9122C66.0769 67.924 66.0773 67.9363 66.0807 67.9479C66.084 67.9595 66.0902 67.9699 66.0987 67.9783C66.1072 67.9867 66.1177 67.9927 66.1292 67.9958C66.1639 68.0059 66.1958 68.002 66.2249 67.9841C66.3559 67.899 66.4807 67.8525 66.5993 67.8447C66.6945 67.8369 66.6989 67.8531 66.6128 67.8934C66.3956 67.9919 66.2601 68.129 66.2064 68.3048C66.1829 68.382 66.2058 68.4425 66.2752 68.4861C66.3099 68.5074 66.3223 68.5382 66.3122 68.5785C66.2876 68.686 66.3223 68.7682 66.4163 68.8253C66.7605 69.0352 67.0141 69.3425 67.0242 69.7438C67.0248 69.777 67.0336 69.8095 67.0498 69.8385C67.0659 69.8675 67.0889 69.892 67.1167 69.9101C67.1445 69.9282 67.1764 69.9391 67.2094 69.942C67.2424 69.945 67.2757 69.9398 67.3062 69.9269C67.4316 69.8742 67.4837 69.7685 67.4624 69.6095C67.4535 69.5367 67.4742 69.5267 67.5245 69.5793C67.5637 69.6207 67.5844 69.6957 67.5867 69.8043C67.59 69.9375 67.6499 69.9711 67.7663 69.905C67.8201 69.8748 67.8867 69.858 67.9662 69.8547C68.0456 69.8513 68.0524 69.872 67.9863 69.9168L67.7479 70.0746C67.6975 70.1082 67.6734 70.1547 67.6757 70.214L67.6941 70.5901C67.6975 70.6472 67.7277 70.6763 67.7848 70.6774C67.8867 70.6786 67.9712 70.6483 68.0384 70.5868C68.0887 70.5398 68.1078 70.5504 68.0955 70.6187C68.0876 70.6579 68.0759 70.6959 68.0602 70.7329C68.04 70.7832 68.0451 70.8308 68.0753 70.8756L68.3137 71.2215C68.3518 71.2775 68.4039 71.2976 68.4699 71.2819L68.7033 71.2282C68.7638 71.2137 68.7761 71.2321 68.7403 71.2836C68.7246 71.3071 68.705 71.3273 68.6815 71.3441C68.5169 71.4639 68.536 71.5271 68.7386 71.5338C69.4539 71.559 70.2952 71.5674 70.8123 72.1467C70.8146 72.149 70.814 72.1518 70.8107 72.1551L70.7771 72.192C70.7614 72.2088 70.7446 72.2105 70.7267 72.1971C70.4916 72.0135 70.2101 71.8842 69.8821 71.8092C69.8743 71.8081 69.8686 71.8114 69.8653 71.8193L69.8451 71.8596C69.8429 71.8663 69.8446 71.8713 69.8502 71.8747C70.373 72.1344 70.6987 72.5659 70.8274 73.1693C70.8398 73.2264 70.8706 73.2706 70.9198 73.302C71.0015 73.3546 71.0732 73.4201 71.1347 73.4984C71.193 73.5723 71.1784 73.5925 71.0911 73.5589C71.0396 73.5376 70.9892 73.5231 70.94 73.5152C70.8594 73.5018 70.8398 73.5303 70.8812 73.6009C71.1364 74.0296 71.0844 74.4091 70.725 74.7393C70.6814 74.7785 70.6814 74.8177 70.725 74.8569C70.7552 74.8849 70.7816 74.9162 70.804 74.9509C70.8431 75.0114 70.828 75.0332 70.7586 75.0164C70.5526 74.966 70.3898 74.872 70.27 74.7343C70.2552 74.7175 70.2364 74.7047 70.2155 74.6974C70.1946 74.69 70.1723 74.6883 70.1508 74.6923L70.0886 74.7041C70.0181 74.7164 69.9672 74.6912 69.9358 74.6285C69.6582 74.0654 69.1987 73.8292 68.5572 73.9199C68.4889 73.9289 68.4828 73.9132 68.5388 73.8729C68.5802 73.8427 68.6261 73.8309 68.6764 73.8376C68.6862 73.8391 68.6962 73.8377 68.7052 73.8335C68.7142 73.8294 68.7217 73.8227 68.7269 73.8143C68.7321 73.8059 68.7347 73.7961 68.7344 73.7862C68.7341 73.7763 68.7309 73.7668 68.7252 73.7587C68.5723 73.5387 67.9494 73.3624 67.6841 73.2818C67.6326 73.2662 67.6147 73.232 67.6303 73.1794C67.6348 73.166 67.6398 73.1525 67.6454 73.1391C67.6533 73.1189 67.6488 73.1027 67.632 73.0904C67.2357 72.7949 66.8143 72.6633 66.3676 72.6958C66.3307 72.6992 66.3178 72.6835 66.329 72.6488C66.3726 72.52 66.3217 72.4271 66.1762 72.37C66.0139 72.3062 65.8476 72.2189 65.6775 72.1081C65.5991 72.0566 65.6069 72.0275 65.701 72.0208C65.7928 72.0129 65.8857 72.0292 65.9797 72.0695C66.0603 72.1031 66.0715 72.0868 66.0133 72.0208C65.9372 71.9335 65.8465 71.8545 65.7413 71.784C65.3495 71.5176 65.1429 71.1426 65.1217 70.659C65.1205 70.6388 65.1301 70.6276 65.1502 70.6254L65.1519 70.6237C65.1653 70.6226 65.1743 70.6282 65.1788 70.6405C65.2381 70.833 65.3075 71.006 65.387 71.1594C65.4329 71.2478 65.4541 71.2422 65.4508 71.1426C65.4374 70.7575 65.2985 70.4524 65.0343 70.2274C64.9918 70.1916 64.9431 70.1748 64.8883 70.1771L64.7875 70.1804C64.689 70.1827 64.6806 70.1558 64.7623 70.0998C64.8407 70.0472 64.9218 70.0198 65.0058 70.0175C65.0707 70.0164 65.0892 69.9868 65.0612 69.9285C64.9974 69.7976 64.9202 69.7254 64.9 69.5759C64.8273 69.0464 64.6929 68.5483 64.497 68.0815C64.4646 68.0053 64.4438 68.0081 64.4349 68.0899C64.3465 68.8634 64.0201 69.5328 63.4559 70.0981C63.2813 70.2744 63.2242 70.4625 63.2813 70.7177C63.4403 71.4252 63.7425 72.0891 64.1881 72.7092C64.3213 72.8939 64.3358 73.0994 64.2317 73.3255C63.8511 74.1528 63.7968 74.9431 64.0688 75.6965C64.1897 76.0312 64.1757 76.3614 64.0268 76.6872C64.0045 76.7375 64.0034 76.7879 64.0235 76.8383C64.2132 77.3051 64.1478 77.9818 63.5349 78.0641C63.3043 78.0943 63.082 78.0786 62.8682 78.0171C62.7872 77.9939 62.7154 77.9462 62.6628 77.8806C62.6101 77.815 62.5792 77.7348 62.5744 77.651C62.561 77.3941 62.5475 77.1372 62.6348 76.8803C62.9013 76.0933 63.049 75.2839 63.0781 74.4522C63.0882 74.16 63.0126 73.9182 62.9387 73.6412C62.8279 73.2281 62.8514 72.7697 62.6315 72.4103C62.2531 71.7891 61.9385 71.1196 61.6878 70.4021C61.6815 70.3841 61.6717 70.3676 61.6589 70.3538C61.6462 70.3399 61.6309 70.3289 61.6139 70.3215C61.5523 70.2957 61.502 70.2957 61.4628 70.3215C61.4161 70.3529 61.3798 70.3977 61.3586 70.4503C61.3373 70.5029 61.3321 70.561 61.3435 70.617C61.5003 71.3872 61.8305 72.0432 62.3343 72.585C62.5335 72.7988 62.5307 73.0109 62.3259 73.2214C61.4124 74.1628 60.8202 75.2929 60.5493 76.6116C60.5348 76.6855 60.495 76.7454 60.4301 76.7913C60.3361 76.8596 60.1978 76.8898 60.0153 76.882C59.9258 76.8775 59.8855 76.92 59.8944 77.0096L59.9314 77.426C59.937 77.4804 59.9205 77.5349 59.8856 77.5777C59.8508 77.6204 59.8002 77.6479 59.745 77.6544C59.3297 77.698 58.9356 77.7064 58.5629 77.6796C58.3379 77.6628 58.2069 77.5682 58.1699 77.3958C58.0558 76.8584 58.8332 76.306 59.2647 76.17C59.3297 76.1498 59.3834 76.1135 59.426 76.0608C60.0584 75.256 60.5728 74.4959 60.9691 73.7805C61.1448 73.466 61.0788 73.1217 60.771 72.7479C60.3366 72.2172 59.8916 71.6872 59.436 71.1577C58.6099 70.1972 58.6502 68.4945 59.0414 67.4014C59.3302 66.5954 58.5998 65.9405 58.0826 65.4586C57.7378 65.1373 57.4938 64.8793 57.3505 64.6845C56.8994 64.0767 56.5149 63.4291 56.1969 62.7417C55.8527 61.9979 55.5807 61.6033 55.0786 61.0424C54.8603 60.7995 54.7226 60.5079 54.6655 60.1676C54.6566 60.1116 54.628 60.0702 54.5799 60.0433C54.3806 59.9303 54.2138 59.7696 54.0795 59.5614C53.6284 58.864 53.1862 58.1716 52.753 57.4843C52.7235 57.4374 52.6834 57.3983 52.6358 57.37C52.5882 57.3417 52.5346 57.3251 52.4793 57.3215C52.4239 57.3179 52.3685 57.3274 52.3174 57.3493C52.2663 57.3711 52.2211 57.4047 52.1854 57.4473C52.0108 57.6578 51.8518 57.908 51.7085 58.1979C51.6828 58.2483 51.6716 58.3015 51.6749 58.3574C51.6906 58.6127 51.6609 58.8618 51.5859 59.1047C51.5658 59.1685 51.5871 59.2116 51.6498 59.234L51.9134 59.328C51.9649 59.347 52.0029 59.3812 52.0276 59.4304C52.1227 59.6308 52.1737 59.8413 52.1804 60.0618C52.1815 60.1178 52.1664 60.1687 52.135 60.2146C51.9772 60.4486 51.7824 60.6433 51.5507 60.7989C51.5037 60.8303 51.4578 60.8286 51.413 60.7939C51.0318 60.495 50.9714 59.951 50.9747 59.5026C50.9781 59.1147 50.5331 58.6311 50.8169 58.2987C51.2333 57.8084 51.5328 57.3108 51.7152 56.8059C52.1938 55.4911 53.47 56.8848 53.9301 57.3315C54.2614 57.6539 54.356 57.5951 54.2138 57.1552C54.0403 56.6223 53.9155 56.099 53.8394 55.5851C53.7689 55.1161 53.5293 54.6527 53.1207 54.1948C53.0782 54.1467 53.025 54.1198 52.9612 54.1142C52.7261 54.0918 52.5201 54.0067 52.3432 53.859C52.3007 53.8231 52.2515 53.8008 52.1955 53.7918C51.6996 53.7134 51.1981 53.7129 50.691 53.7901C50.6327 53.7991 50.6075 53.8327 50.6154 53.8909C50.6658 54.2502 50.5415 54.511 50.2426 54.6734C49.9437 54.8346 49.6762 54.7926 49.44 54.5474L49.1629 54.2603C48.9234 54.0129 48.948 53.7952 49.2368 53.6071C49.6353 53.3496 50.026 53.1173 50.4088 52.9102C50.8841 52.6517 52.0007 52.8464 52.6203 52.922C53.0267 52.9724 53.3284 53.1179 53.5254 53.3586C54.1008 54.0616 54.6851 54.7987 55.2784 55.57C55.3403 55.6507 55.4311 55.7043 55.5318 55.7197C55.6325 55.735 55.7355 55.7109 55.8191 55.6523C56.4997 55.171 57.0779 54.7008 57.5537 54.2418C57.8134 53.9911 57.9158 53.6592 57.861 53.2461C57.8531 53.1867 57.8201 53.1504 57.7619 53.1369C57.3858 53.0446 57.1473 53.0731 56.8955 52.739C56.8619 52.6942 56.8177 52.6651 56.7628 52.6517C56.5479 52.599 56.3346 52.5526 56.123 52.5123C56.0077 52.491 55.8325 52.4977 55.5975 52.5324C54.9543 52.6281 54.5816 52.21 54.6756 51.577C54.7814 50.8667 56.7393 50.588 57.3085 50.4872C57.6393 50.4301 57.8224 50.2756 58.0373 50.0473C58.0698 50.0126 58.1145 49.9906 58.1632 49.9851L59.0095 49.8827C59.0823 49.8738 59.1198 49.8329 59.122 49.7601L59.1271 49.6493C59.1286 49.6112 59.1381 49.5739 59.1549 49.5398C59.1716 49.5057 59.1953 49.4755 59.2244 49.4512C59.3431 49.3527 59.4215 49.2318 59.4595 49.0885C59.4819 49.0068 59.5317 48.9816 59.609 49.0129C60.0959 49.2077 59.9381 49.8491 60.3058 50.1783C60.3473 50.2152 60.3557 50.2588 60.331 50.3092C60.321 50.3305 60.3153 50.3534 60.3142 50.3781C60.312 50.4195 60.3282 50.452 60.3629 50.4755C60.5633 50.6042 60.7335 50.7648 60.8734 50.9574C60.9148 51.0156 60.9601 51.0189 61.0094 50.9675L61.2193 50.7475C61.2708 50.6926 61.2853 50.701 61.2629 50.7727L61.1421 51.1555C61.1275 51.1981 61.1426 51.2244 61.1874 51.2344C61.2322 51.2434 61.2742 51.258 61.3133 51.2781C61.3615 51.3016 61.4107 51.3038 61.4611 51.2848C61.4824 51.2759 61.5031 51.2686 61.5232 51.263C61.5725 51.2484 61.5792 51.2596 61.5434 51.2966C61.4751 51.3682 61.3939 51.418 61.2999 51.446C61.0547 51.5188 61.0575 51.5759 61.3083 51.6173L61.6307 51.671C61.6556 51.6753 61.6812 51.6705 61.7029 51.6576C61.9503 51.5087 62.1814 51.3458 62.3964 51.169C62.4143 51.1544 62.4266 51.1578 62.4333 51.179C62.4344 51.1846 62.4367 51.1891 62.44 51.1925C62.4468 51.1992 62.4479 51.2048 62.4434 51.2093C62.2654 51.4141 62.0538 51.5725 61.8087 51.6845C61.7807 51.6968 61.76 51.7169 61.7465 51.7449C61.7331 51.774 61.7454 51.8037 61.7835 51.8339C61.7923 51.8405 61.8028 51.8446 61.8137 51.8457L62.1848 51.8557C62.2878 51.858 62.3029 51.8955 62.2301 51.9682L61.9934 52.2016C61.9531 52.2419 61.9609 52.2682 62.0169 52.2806C62.0583 52.2895 62.107 52.271 62.163 52.2251C62.2134 52.1848 62.2721 52.1602 62.3393 52.1513C62.4255 52.139 62.4412 52.1664 62.3863 52.2335C62.2912 52.3477 62.2335 52.4804 62.2134 52.6315C62.2055 52.6886 62.1747 52.7272 62.121 52.7474C62.0773 52.7642 62.0286 52.7597 61.9749 52.7339C61.9436 52.7183 61.9201 52.7255 61.9044 52.7558C61.8966 52.7703 61.8943 52.7865 61.8977 52.8045C61.8999 52.8201 61.9072 52.833 61.9195 52.8431C62.1882 53.0658 62.4132 53.0496 62.5945 52.7944C62.6404 52.7295 62.66 52.7367 62.6533 52.8162C62.6455 52.9035 62.6052 52.9757 62.5324 53.0328C62.482 53.072 62.4837 53.1084 62.5374 53.142C62.5665 53.161 62.5872 53.1867 62.5996 53.2192C62.6343 53.3132 62.6024 53.3513 62.5039 53.3334L62.4535 53.325C62.4431 53.3235 62.4326 53.3254 62.4235 53.3306C62.4145 53.3357 62.4073 53.3437 62.4033 53.3533C62.3993 53.3629 62.3985 53.3736 62.4012 53.3837C62.4039 53.3938 62.4099 53.4026 62.4182 53.409C62.5514 53.4996 62.7221 53.5024 62.9304 53.4174C63.1028 53.3457 63.1252 53.3782 62.9975 53.5147C62.8151 53.7095 62.5968 53.7957 62.3427 53.7733C62.0639 53.7487 62.0398 53.8153 62.2704 53.9732C62.6231 54.2116 62.9404 54.2418 63.1957 54.6532C63.2113 54.679 63.2063 54.6997 63.1806 54.7153H63.1789C63.1565 54.7299 63.1386 54.7254 63.1251 54.7019C62.9762 54.4388 62.7943 54.3829 62.5794 54.534C62.4798 54.6045 62.4904 54.6482 62.6113 54.665C62.8195 54.6952 62.9852 54.8273 63.1083 55.0613C63.1197 55.083 63.1244 55.1076 63.1217 55.1319C63.119 55.1561 63.1091 55.1789 63.0932 55.1973C62.9712 55.3383 62.8324 55.4273 62.6768 55.4642C62.6164 55.4788 62.5761 55.5163 62.5559 55.5768C62.4843 55.7906 62.4507 56.0027 62.4551 56.2132C62.4574 56.2938 62.4367 56.3005 62.393 56.2333C62.3628 56.1874 62.3455 56.1365 62.341 56.0805C62.3365 56.029 62.3102 55.9965 62.2621 55.9831L61.9548 55.8958C61.9234 55.8868 61.9077 55.8986 61.9077 55.9311V55.9831C61.9077 55.9977 61.915 56.0077 61.9296 56.0133C62.2106 56.1264 62.2968 56.3111 62.1882 56.5675C62.1792 56.5876 62.1669 56.5904 62.1512 56.5759C62.1456 56.5714 62.1411 56.5669 62.1378 56.5624C62.1311 56.5557 62.1316 56.5484 62.1395 56.5406C62.1495 56.5294 62.1574 56.5171 62.163 56.5037C62.1675 56.4936 62.1675 56.4835 62.163 56.4734C62.1439 56.432 62.1121 56.4107 62.0673 56.4096C62.0404 56.4085 62.0124 56.4203 61.9833 56.4449C61.8938 56.5232 61.8076 56.605 61.7247 56.69C61.7225 56.6923 61.7197 56.6923 61.7163 56.69L61.6861 56.6598C61.6592 56.6352 61.6575 56.6089 61.6811 56.5809C61.7337 56.5216 61.7729 56.4522 61.7986 56.3727C61.8277 56.2842 61.8076 56.2714 61.7382 56.3341C61.5053 56.5434 61.5104 56.7572 61.7533 56.9755C61.807 57.0236 61.8557 57.0774 61.8994 57.1367C61.9318 57.1792 61.9212 57.1971 61.8674 57.1904L61.399 57.1317C61.3307 57.1227 61.315 57.1473 61.3519 57.2055C61.4527 57.3645 61.6133 57.4171 61.8339 57.3634C61.8809 57.3522 61.9161 57.3679 61.9397 57.4104C61.9464 57.4227 61.9481 57.4373 61.9447 57.4541C61.9435 57.4635 61.9441 57.4731 61.9465 57.4822C61.9489 57.4913 61.953 57.4999 61.9587 57.5072C61.9643 57.5146 61.9714 57.5207 61.9794 57.5251C61.9873 57.5295 61.9961 57.5322 62.0051 57.533C62.1037 57.5431 62.182 57.5845 62.2402 57.6572C62.2996 57.7322 62.2839 57.7552 62.1932 57.7261C62.0813 57.6903 61.9744 57.6505 61.8725 57.6069C61.793 57.5722 61.7757 57.5917 61.8204 57.6656C61.9134 57.8134 61.9682 57.9707 61.985 58.1375C61.9906 58.1901 61.9732 58.199 61.9329 58.1643C61.8971 58.133 61.8786 58.0949 61.8775 58.0502C61.873 57.9516 61.8227 57.8929 61.7264 57.8738L61.6492 57.8571C61.573 57.8414 61.535 57.8727 61.535 57.9511C61.5361 58.0877 61.5915 58.2181 61.7012 58.3423C61.7359 58.3826 61.7801 58.4028 61.8339 58.4028C61.8697 58.4028 61.8971 58.4129 61.9161 58.433C61.9497 58.4688 61.9425 58.4901 61.8943 58.4968C61.8518 58.5024 61.8143 58.5147 61.7818 58.5338C61.7292 58.5629 61.7202 58.602 61.755 58.6513C61.8579 58.7923 61.9626 58.9317 62.069 59.0694C62.0824 59.0873 62.0801 59.1036 62.0622 59.1181H62.0606C62.0426 59.1327 62.0264 59.131 62.0118 59.1131C61.8506 58.9272 61.6973 58.7336 61.5518 58.5321C61.5003 58.4616 61.4325 58.4392 61.3486 58.4649C61.2814 58.4839 61.2092 58.4901 61.132 58.4834C61.0503 58.4767 61.0357 58.5052 61.0883 58.569C61.1711 58.6709 61.2652 58.7039 61.3704 58.6681C61.4421 58.6435 61.4521 58.6586 61.4007 58.7134C61.3223 58.7963 61.2322 58.8349 61.1303 58.8293C61.0967 58.8271 61.0749 58.8103 61.0648 58.7789C61.0559 58.7509 61.043 58.7263 61.0262 58.705C61.0038 58.6759 60.9786 58.6726 60.9506 58.695C60.9406 58.7039 60.9333 58.7162 60.9288 58.7319C60.9243 58.7465 60.926 58.7604 60.9338 58.7739C61.0312 58.9239 61.0335 59.0683 60.9406 59.2071C60.9092 59.253 60.9014 59.3028 60.9171 59.3565C60.9439 59.4495 60.9988 59.5239 61.0816 59.5799C61.1297 59.6135 61.1258 59.6386 61.0698 59.6554C61.0374 59.6655 61.0005 59.6538 60.959 59.6202C60.921 59.5888 60.8807 59.586 60.8381 59.6118C60.8135 59.6275 60.7995 59.6521 60.7961 59.6857C60.7883 59.7607 60.7609 59.7685 60.7139 59.7092C60.6937 59.6845 60.6853 59.6571 60.6887 59.6269C60.6954 59.5687 60.6719 59.5513 60.6182 59.5748C60.4687 59.6386 60.373 59.7377 60.3797 59.914C60.4301 61.2053 61.3385 62.3337 62.3762 63.0272C62.8128 63.3194 63.2494 63.6076 63.686 63.892C63.7543 63.9367 63.8254 63.9619 63.8992 63.9675C63.9787 63.972 64.0386 63.9429 64.0789 63.8802C64.1158 63.8231 64.1427 63.8276 64.1595 63.8936C64.1908 64.0157 64.2563 64.1265 64.356 64.2261C64.3996 64.2709 64.4466 64.2743 64.497 64.2362L64.5373 64.206C64.6123 64.1489 64.6308 64.1634 64.5927 64.2496C64.52 64.4108 64.417 64.4937 64.2838 64.4981C64.2479 64.5004 64.2345 64.5188 64.2435 64.5535C64.2961 64.7573 64.3912 64.8536 64.5289 64.8424C64.5961 64.8379 64.6521 64.811 64.6968 64.7618C64.7192 64.736 64.7467 64.7237 64.7791 64.7248C64.8496 64.7271 64.8575 64.75 64.8026 64.7937C64.7299 64.8496 64.6644 64.9218 64.6062 65.0103C64.567 65.0718 64.5838 65.0998 64.6565 65.0942C64.7729 65.0864 64.8463 65.0315 64.8765 64.9297C64.8955 64.8625 64.9235 64.8586 64.9605 64.9179C65.0556 65.0702 65.031 65.2174 64.8866 65.3595C64.8605 65.3855 64.8428 65.4186 64.8356 65.4547C64.8285 65.4908 64.8323 65.5282 64.8465 65.5621C64.8608 65.596 64.8848 65.6249 64.9156 65.645C64.9464 65.6652 64.9824 65.6757 65.0192 65.6752C65.1424 65.673 65.2409 65.5734 65.3148 65.3763C65.3173 65.3691 65.3219 65.3627 65.3278 65.3578C65.3338 65.353 65.341 65.3499 65.3486 65.3488C65.3563 65.3478 65.364 65.3489 65.3711 65.3519C65.3781 65.355 65.3842 65.36 65.3887 65.3663C65.4357 65.4334 65.4905 65.4569 65.5532 65.4368ZM62.6332 54.9689C62.7026 55.1279 62.7977 55.2174 62.9186 55.2376C62.9346 55.2405 62.9512 55.2382 62.9658 55.2309C62.9804 55.2237 62.9923 55.2119 62.9997 55.1974C63.007 55.1828 63.0095 55.1663 63.0067 55.1502C63.0039 55.1342 62.996 55.1195 62.9841 55.1083C62.908 55.0344 62.81 54.9695 62.6902 54.9135C62.6231 54.8821 62.604 54.9006 62.6332 54.9689ZM62.163 55.6338C62.1876 55.7111 62.2318 55.7413 62.2956 55.7245C62.31 55.721 62.3232 55.7136 62.3336 55.7031C62.3441 55.6926 62.3515 55.6795 62.355 55.6651C62.3584 55.6507 62.3579 55.6356 62.3533 55.6215C62.3488 55.6074 62.3404 55.5948 62.3292 55.5851C62.2912 55.5527 62.257 55.5381 62.2268 55.5415C62.1675 55.546 62.1462 55.5768 62.163 55.6338ZM70.5554 72.8335C70.5442 72.8066 70.5291 72.7831 70.5101 72.763C70.462 72.7115 70.4256 72.7187 70.401 72.7848C70.3595 72.899 70.411 73.012 70.5554 73.124C70.6114 73.1676 70.6472 73.1548 70.6629 73.0854C70.6763 73.0328 70.6545 72.9723 70.5974 72.904C70.5817 72.8861 70.5677 72.8626 70.5554 72.8335ZM70.507 74.657C70.5506 74.6563 70.5921 74.6316 70.6223 74.5883C70.6524 74.545 70.6689 74.4867 70.6679 74.4261C70.6674 74.3961 70.6627 74.3665 70.654 74.3389C70.6453 74.3114 70.6328 74.2864 70.6172 74.2654C70.6016 74.2444 70.5832 74.2279 70.563 74.2167C70.5429 74.2056 70.5214 74.2 70.4998 74.2004C70.4562 74.201 70.4147 74.2258 70.3845 74.2691C70.3543 74.3124 70.3379 74.3707 70.3388 74.4313C70.3393 74.4613 70.344 74.4909 70.3527 74.5185C70.3614 74.546 70.374 74.571 70.3896 74.592C70.4052 74.6129 70.4236 74.6295 70.4437 74.6406C70.4639 74.6518 70.4854 74.6574 70.507 74.657Z" fill="url(#paint1_linear_6_1174)"></path><path fill-rule="evenodd" clip-rule="evenodd" d="M59.5122 0.00198325C51.148 0.0699881 42.8904 1.88609 35.2695 5.33371L37.2523 9.71658C43.0644 7.08725 49.2791 5.48958 55.6185 4.98471L59.9924 12.5605L64.367 4.98355C70.41 5.46321 76.344 6.93618 81.9271 9.35336L83.8383 4.93882C76.1624 1.61557 67.8764 -0.0660216 59.5122 0.00198325Z" fill="#73C8F0"></path><defs><linearGradient id="paint0_linear_6_1174" x1="60.102" y1="96.2609" x2="60.102" y2="37.3939" gradientUnits="userSpaceOnUse"><stop stop-color="#A0EBFF"></stop><stop offset="0.405" stop-color="#41B4E6"></stop><stop offset="1" stop-color="#41B4E6"></stop></linearGradient><linearGradient id="paint1_linear_6_1174" x1="60.0848" y1="48.9999" x2="60.0848" y2="78.079" gradientUnits="userSpaceOnUse"><stop stop-color="#CBEEFE"></stop><stop offset="1" stop-color="#7DCCF1"></stop></linearGradient></defs></svg> 