<svg width="21" height="20" viewBox="0 0 21 20" fill="none" xmlns="http://www.w3.org/2000/svg">
<path id="Vector" d="M18.4632 5.18599V3.06191C18.4632 2.72372 18.1876 2.44953 17.8477 2.44953H12.3098V0.612383C12.3098 0.274184 12.0343 0 11.6944 0H6.76881C6.42891 0 6.15337 0.274184 6.15337 0.612383V2.44953H0.615439C0.275543 2.44953 0 2.72372 0 3.06191V17.4937C0 17.8319 0.275543 18.1061 0.615439 18.1061H15.1528C15.3163 18.9537 16.0668 19.5963 16.9656 19.5963C17.9837 19.5963 18.8119 18.7721 18.8119 17.7591V12.4971C21.8853 10.929 21.6773 6.45697 18.4632 5.18599ZM7.38425 1.22477H11.0789V2.44953H7.38425V1.22477ZM1.23088 3.6743H17.2323V4.9107C15.0271 4.76683 13.1297 6.39589 12.9418 8.57336C10.7198 8.57336 4.47571 8.57336 2.25664 8.57336C1.69103 8.57336 1.23092 8.1155 1.23092 7.55272L1.23088 3.6743ZM8.61615 9.79813H9.84703V11.0229H8.61615V9.79813ZM1.23088 9.55175C1.53886 9.70884 1.88737 9.79813 2.2566 9.79813H7.38527V11.6353C7.38527 11.9735 7.66081 12.2477 8.00071 12.2477H10.4625C10.8024 12.2477 11.0779 11.9735 11.0779 11.6353V9.79813H13.0239C13.2885 10.9833 14.0681 11.9608 15.1193 12.4971V16.8814H1.23088V9.55175ZM16.9656 18.3715C16.6263 18.3715 16.3502 18.0968 16.3502 17.7591V15.3116H17.5811V17.7591C17.5811 18.0968 17.305 18.3715 16.9656 18.3715ZM17.5811 14.0869H16.3502V12.8926C16.7513 12.9537 17.1553 12.9574 17.5811 12.8926V14.0869ZM16.9656 11.7169C15.4123 11.7169 14.1551 10.4662 14.1551 8.92038C14.1551 7.37477 15.4121 6.12383 16.9656 6.12383C18.519 6.12383 19.7761 7.3746 19.7761 8.92038C19.7761 10.466 18.5191 11.7169 16.9656 11.7169Z" fill="#222754"/>
</svg>
