<svg width="22" height="22" viewBox="0 0 22 22" fill="none" xmlns="http://www.w3.org/2000/svg">
<path d="M22 11C22 4.92043 17.0802 0 11 0C4.92043 0 0 4.91975 0 11C0 17.0257 4.87863 22 11 22C17.0962 22 22 17.0534 22 11ZM11 1.28906C16.3546 1.28906 20.7109 5.64536 20.7109 11C20.7109 12.9588 20.1283 14.8415 19.0479 16.4362C14.7094 11.7694 7.29848 11.761 2.95209 16.4362C1.87166 14.8415 1.28906 12.9588 1.28906 11C1.28906 5.64536 5.64536 1.28906 11 1.28906ZM3.75607 17.4668C7.61353 13.14 14.3875 13.1411 18.2438 17.4668C14.3734 21.7969 7.62813 21.7982 3.75607 17.4668Z" fill="white"/>
<path d="M11 11.6445C13.1323 11.6445 14.8672 9.90967 14.8672 7.77734V6.48828C14.8672 4.35596 13.1323 2.62109 11 2.62109C8.86768 2.62109 7.13281 4.35596 7.13281 6.48828V7.77734C7.13281 9.90967 8.86768 11.6445 11 11.6445ZM8.42188 6.48828C8.42188 5.06662 9.57834 3.91016 11 3.91016C12.4217 3.91016 13.5781 5.06662 13.5781 6.48828V7.77734C13.5781 9.19901 12.4217 10.3555 11 10.3555C9.57834 10.3555 8.42188 9.19901 8.42188 7.77734V6.48828Z" fill="white"/>
</svg>
