<svg width="22" height="22" viewBox="0 0 22 22" fill="none" xmlns="http://www.w3.org/2000/svg">
<g id="fluent:info-12-regular">
<g id="Vector">
<path d="M1.83337 10.9997C1.83337 8.56852 2.79914 6.23695 4.51823 4.51786C6.23731 2.79878 8.56889 1.83301 11 1.83301C13.4312 1.83301 15.7628 2.79878 17.4819 4.51786C19.2009 6.23695 20.1667 8.56852 20.1667 10.9997C20.1667 13.4308 19.2009 15.7624 17.4819 17.4815C15.7628 19.2006 13.4312 20.1663 11 20.1663C8.56889 20.1663 6.23731 19.2006 4.51823 17.4815C2.79914 15.7624 1.83337 13.4308 1.83337 10.9997ZM11 3.66634C9.05512 3.66634 7.18986 4.43896 5.81459 5.81422C4.43932 7.18949 3.66671 9.05475 3.66671 10.9997C3.66671 12.9446 4.43932 14.8099 5.81459 16.1851C7.18986 17.5604 9.05512 18.333 11 18.333C12.945 18.333 14.8102 17.5604 16.1855 16.1851C17.5608 14.8099 18.3334 12.9446 18.3334 10.9997C18.3334 9.05475 17.5608 7.18949 16.1855 5.81422C14.8102 4.43896 12.945 3.66634 11 3.66634Z" fill="#F65A03"/>
<path d="M11.1775 12.4516C10.7189 12.4516 10.3099 12.0556 10.5172 11.6465C10.5421 11.5974 10.5697 11.5504 10.6 11.5056C10.776 11.2562 11.029 10.9812 11.359 10.6806C11.601 10.4606 11.777 10.2772 11.887 10.1306C12.0044 9.97656 12.063 9.80422 12.063 9.61356C12.063 9.34222 11.953 9.12956 11.733 8.97556C11.5204 8.81422 11.2344 8.73356 10.875 8.73356C10.5304 8.73356 10.2224 8.80689 9.95104 8.95356C9.89577 8.98272 9.84227 9.01446 9.79054 9.04878C9.45187 9.27339 9.0115 9.38998 8.661 9.18432C8.2737 8.95706 8.15067 8.441 8.48808 8.14468C8.69591 7.96216 8.93057 7.80645 9.19204 7.67756C9.72004 7.42089 10.3434 7.29256 11.062 7.29256C11.9054 7.29256 12.58 7.47222 13.086 7.83156C13.5994 8.19089 13.856 8.68956 13.856 9.32756C13.856 9.62822 13.8047 9.89222 13.702 10.1196C13.6067 10.3469 13.4857 10.5412 13.339 10.7026C13.1997 10.8566 13.0164 11.0362 12.789 11.2416C12.5177 11.4836 12.3197 11.6889 12.195 11.8576C11.9808 12.1349 11.7239 12.4516 11.3735 12.4516H11.1775ZM11.183 15.2126C10.8824 15.2126 10.6294 15.1172 10.424 14.9266C10.226 14.7286 10.127 14.4902 10.127 14.2116C10.127 13.9329 10.226 13.7019 10.424 13.5186C10.622 13.3279 10.875 13.2326 11.183 13.2326C11.491 13.2326 11.744 13.3279 11.942 13.5186C12.14 13.7019 12.239 13.9329 12.239 14.2116C12.239 14.4902 12.1364 14.7286 11.931 14.9266C11.733 15.1172 11.4837 15.2126 11.183 15.2126Z" fill="#F65A03"/>
</g>
</g>
</svg>
