<svg width="22" height="22" viewBox="0 0 22 22" fill="none" xmlns="http://www.w3.org/2000/svg">
<g clip-path="url(#clip0_2029_34339)">
<path d="M21.3279 8.62338C20.5007 7.26877 19.4573 6.05879 18.239 5.04146L20.8047 2.47576C21.1563 2.11173 21.1462 1.53165 20.7821 1.18009C20.427 0.837107 19.8641 0.837107 19.509 1.18009L16.7188 3.97395C14.9891 2.94661 13.0117 2.41111 11 2.42537C5.32699 2.42537 2.09419 6.30878 0.672061 8.62342C-0.22402 10.0728 -0.22402 11.9041 0.672061 13.3535C1.49929 14.7081 2.54274 15.9181 3.76101 16.9354L1.19531 19.5011C0.831287 19.8527 0.821193 20.4328 1.17276 20.7968C1.52433 21.1608 2.10445 21.1709 2.46843 20.8194C2.47608 20.812 2.4836 20.8045 2.49098 20.7968L5.2876 18.0002C7.01512 19.0274 8.99017 19.5638 11 19.5515C16.673 19.5515 19.9058 15.6681 21.3279 13.3535C22.224 11.9041 22.224 10.0728 21.3279 8.62338ZM5.50206 10.9884C5.49686 7.95705 7.95003 5.49543 10.9814 5.49023C12.1284 5.48825 13.2472 5.84566 14.1806 6.5122L12.8501 7.84271C12.2915 7.50587 11.6523 7.32633 11 7.32315C8.97574 7.32315 7.33473 8.96416 7.33473 10.9884C7.33791 11.6407 7.51745 12.28 7.85429 12.8385L6.52378 14.169C5.85939 13.2415 5.5021 12.1293 5.50206 10.9884ZM11 16.4864C9.85915 16.4864 8.74693 16.1291 7.81945 15.4647L9.14996 14.1342C9.70852 14.471 10.3478 14.6506 11 14.6537C13.0243 14.6537 14.6653 13.0127 14.6653 10.9884C14.6621 10.3362 14.4826 9.69694 14.1458 9.13838L15.4763 7.80788C17.2379 10.2748 16.6661 13.7028 14.1992 15.4644C13.2658 16.131 12.147 16.4884 11 16.4864Z" fill="#9097A1"/>
</g>
<defs>
<clipPath id="clip0_2029_34339">
<rect width="22" height="22" fill="white"/>
</clipPath>
</defs>
</svg>
