<svg width="36" height="36" viewBox="0 0 36 36" fill="none" xmlns="http://www.w3.org/2000/svg">
<g filter="url(#filter0_b_2067_26673)">
<rect x="2" y="2" width="32" height="32" rx="6" fill="#FAF2CF" fill-opacity="0.74"/>
<rect x="1" y="1" width="34" height="34" rx="7" stroke="#0C0E29" stroke-opacity="0.68" stroke-width="2"/>
</g>
<path d="M10.6385 8.15669C10.6385 8.33935 14.6977 10.5516 15.3878 10.7546C16.1996 10.9981 15.4284 10.4704 13.3379 9.35415C11.0039 8.0958 10.6385 7.95373 10.6385 8.15669Z" fill="#0C0E29"/>
<path d="M25.5559 8.27807C25.3326 8.42014 24.2975 8.96813 23.2827 9.49583C22.2476 10.0235 21.3952 10.5512 21.3952 10.6527C21.3952 10.7745 22.4912 10.2874 23.8307 9.59731C25.1702 8.88695 26.2662 8.25778 26.2662 8.1563C26.2662 7.91275 26.0024 7.95334 25.5559 8.27807Z" fill="#0C0E29"/>
<path d="M17.5391 9.11061L16.6461 10.0239H18.4119C19.3861 10.0239 20.1776 10.0036 20.1776 9.96304C20.1776 9.92245 19.792 9.51653 19.3049 9.04972L18.4322 8.19729L17.5391 9.11061Z" fill="#0C0E29"/>
<path d="M16.9706 11.4847L17.0315 12.5604L18.4116 12.6212L19.7715 12.6821V11.5456V10.4293H18.3304H16.9097L16.9706 11.4847ZM19.1626 11.4441C19.1626 11.7688 19.0205 11.85 18.4522 11.85C17.8839 11.85 17.7419 11.7688 17.7419 11.4441C17.7419 11.1193 17.8839 11.0382 18.4522 11.0382C19.0205 11.0382 19.1626 11.1193 19.1626 11.4441Z" fill="#0C0E29"/>
<path d="M11.9172 11.5867C12.6681 11.6273 13.8656 11.6273 14.5556 11.5867C15.2457 11.5462 14.6368 11.5259 13.1755 11.5259C11.7142 11.5259 11.1662 11.5462 11.9172 11.5867Z" fill="#0C0E29"/>
<path d="M22.4709 11.5867C23.2218 11.6273 24.4193 11.6273 25.1093 11.5867C25.7994 11.5462 25.1905 11.5259 23.7292 11.5259C22.2882 11.5259 21.7199 11.5462 22.4709 11.5867Z" fill="#0C0E29"/>
<path d="M13.074 13.3926C10.8618 14.5698 10.3747 14.8945 10.8009 14.8945C10.943 14.8945 11.9781 14.3871 13.1146 13.7783C14.2309 13.1694 15.2457 12.662 15.3269 12.662C15.4081 12.662 15.5501 12.5605 15.611 12.459C15.8749 12.0328 15.1239 12.317 13.074 13.3926Z" fill="#0C0E29"/>
<path d="M21.2939 12.3982C21.6796 12.7838 25.9011 14.9149 26.1244 14.8337C26.2664 14.7931 25.3734 14.2248 24.176 13.5956C22.0652 12.4591 20.8474 11.9517 21.2939 12.3982Z" fill="#0C0E29"/>
<path d="M15.9155 13.5751C15.9155 13.981 16.0169 14.0825 16.4229 14.0825C16.8288 14.0825 16.9303 13.981 16.9303 13.5751C16.9303 13.1692 16.8288 13.0677 16.4229 13.0677C16.0169 13.0677 15.9155 13.1692 15.9155 13.5751Z" fill="#0C0E29"/>
<path d="M17.3361 13.5751C17.3361 13.9404 17.4375 14.0825 17.742 14.0825C18.0464 14.0825 18.1479 13.9404 18.1479 13.5751C18.1479 13.2098 18.0464 13.0677 17.742 13.0677C17.4375 13.0677 17.3361 13.2098 17.3361 13.5751Z" fill="#0C0E29"/>
<path d="M18.5537 13.5751C18.5537 13.981 18.6552 14.0825 19.0611 14.0825C19.467 14.0825 19.5685 13.981 19.5685 13.5751C19.5685 13.1692 19.467 13.0677 19.0611 13.0677C18.6552 13.0677 18.5537 13.1692 18.5537 13.5751Z" fill="#0C0E29"/>
<path d="M19.9747 13.5751C19.9747 13.981 20.0761 14.0825 20.4821 14.0825C20.888 14.0825 20.9895 13.981 20.9895 13.5751C20.9895 13.1692 20.888 13.0677 20.4821 13.0677C20.0761 13.0677 19.9747 13.1692 19.9747 13.5751Z" fill="#0C0E29"/>
<path d="M16.6662 14.631C16.5851 14.6919 16.5242 15.3008 16.5242 15.9503V17.1274H18.5132H20.5225L20.3601 16.1532C20.2789 15.6255 20.1977 15.037 20.1977 14.834C20.1774 14.5296 19.9542 14.489 18.4929 14.489C17.5593 14.489 16.7271 14.5499 16.6662 14.631Z" fill="#0C0E29"/>
<path d="M16.2401 18.4669C16.1792 18.9946 16.1183 19.8064 16.1183 20.2935V21.1865H18.4118C19.6904 21.1865 20.7661 21.1459 20.8067 21.085C20.8676 21.0445 20.8067 20.2326 20.6849 19.3193L20.482 17.6347L18.4321 17.5739L16.3822 17.513L16.2401 18.4669Z" fill="#0C0E29"/>
<path d="M15.9155 21.9377C15.9155 22.1407 15.8546 22.506 15.7937 22.7698C15.6922 23.1555 15.7328 23.2163 16.1387 23.1757C16.5244 23.1352 16.6664 23.2569 16.8491 23.8049C17.1129 24.6371 17.6203 25.043 18.351 25.043C18.9396 25.043 19.7717 24.292 19.7717 23.7846C19.7717 23.602 19.9138 23.3584 20.0761 23.2163C20.4212 22.9322 20.9083 23.196 21.0503 23.7846C21.0909 23.9673 21.1112 23.8658 21.0706 23.5411C21.03 23.2163 20.9895 22.6481 20.9895 22.2827V21.5927H18.4525C16.1793 21.5927 15.9155 21.6333 15.9155 21.9377Z" fill="#0C0E29"/>
<path d="M8 23.7235C8 24.2309 8.34503 25.772 8.77124 26.0155C8.9945 26.117 9.80633 27.2677 10.3137 27.2677C11.0647 27.2677 11.3082 28.118 11.6939 27.6511L12.2418 27.9647L12.7898 27.651C13.2363 28.1178 13.4799 27.651 14.3323 27.651C15.0995 28.4181 15.4283 28.1381 15.8342 27.651L16.2198 27.6511L16.7678 27.9646C17.2143 28.4314 17.4579 27.9647 18.29 27.9647C19.2642 27.9647 20.1775 28.4924 20.1775 27.9647C20.1775 27.8429 20.4617 27.4278 20.8067 27.7728C21.3344 28.3005 21.578 27.9646 22.3898 27.9646C23.161 27.9646 23.4858 27.9869 23.8917 27.581L24.3991 27.6511L24.9674 27.651C25.6371 28.2802 27.1187 27.0688 27.8088 26.5005C28.5394 25.912 29.0063 23.4191 28.4989 23.4191C28.3974 23.4191 28.2959 23.6017 28.2959 23.8047C28.2959 24.028 28.0726 24.4542 27.8088 24.7789C27.1187 25.5704 25.8198 25.5704 25.1297 24.7789C24.8659 24.4542 24.6426 24.028 24.6426 23.8047C24.6426 23.6017 24.5615 23.4191 24.4397 23.4191C24.3382 23.4191 24.2367 23.6017 24.2367 23.8047C24.2367 24.028 24.0135 24.4542 23.7496 24.7789C23.364 25.2254 23.1001 25.3472 22.4507 25.3472C21.4765 25.3472 20.5835 24.6368 20.5835 23.8859C20.5835 23.622 20.5023 23.4191 20.3805 23.4191C20.279 23.4191 20.1775 23.6017 20.1775 23.8047C20.1775 24.028 19.9543 24.4542 19.6904 24.7789C19.3048 25.2254 19.041 25.3472 18.3915 25.3472C17.4173 25.3472 16.5243 24.6368 16.5243 23.8859C16.5243 23.622 16.4431 23.4191 16.3213 23.4191C16.2198 23.4191 16.1184 23.6017 16.1184 23.8047C16.1184 24.028 15.8951 24.4542 15.6313 24.7789C15.2456 25.2254 14.9818 25.3472 14.3323 25.3472C13.3581 25.3472 12.4651 24.6368 12.4651 23.8859C12.4651 23.622 12.3839 23.4191 12.2621 23.4191C12.1607 23.4191 12.0592 23.6017 12.0592 23.8047C12.0592 24.028 11.8359 24.4542 11.5721 24.7789C11.1865 25.2254 10.9226 25.3472 10.2731 25.3472C9.29894 25.3472 8.40592 24.6368 8.40592 23.8859C8.40592 23.622 8.32473 23.4191 8.20296 23.4191C8.10148 23.4191 8 23.5612 8 23.7235Z" fill="#0C0E29"/>
<defs>
<filter id="filter0_b_2067_26673" x="-22.2" y="-22.2" width="80.4" height="80.4" filterUnits="userSpaceOnUse" color-interpolation-filters="sRGB">
<feFlood flood-opacity="0" result="BackgroundImageFix"/>
<feGaussianBlur in="BackgroundImageFix" stdDeviation="11.1"/>
<feComposite in2="SourceAlpha" operator="in" result="effect1_backgroundBlur_2067_26673"/>
<feBlend mode="normal" in="SourceGraphic" in2="effect1_backgroundBlur_2067_26673" result="shape"/>
</filter>
</defs>
</svg>
