<svg width="42" height="42" viewBox="0 0 42 42" fill="none" xmlns="http://www.w3.org/2000/svg">
<path fill-rule="evenodd" clip-rule="evenodd" d="M18.334 1.3208C19.0968 1.3208 19.9664 1.35361 20.2617 1.40283C20.557 1.45205 21.2543 1.5751 21.8203 1.68174C22.3863 1.78838 23.2476 2.01807 23.748 2.18213C24.2484 2.34619 25.1672 2.72354 25.7988 3.03525C26.4304 3.33877 27.3328 3.83916 27.8086 4.15908C28.2843 4.4708 29.0062 5.004 29.4082 5.34854C29.8101 5.68486 30.4336 6.27549 30.7945 6.65283C31.1472 7.03018 31.6476 7.6208 31.9101 7.95713C32.1644 8.29346 32.5746 8.86768 32.8125 9.22861C33.0422 9.58955 33.4769 10.3606 33.764 10.9513C34.0511 11.5419 34.4285 12.4688 34.6172 13.0267C34.7976 13.5763 35.0355 14.4786 35.1504 15.0282C35.257 15.586 35.3965 16.5704 35.4457 17.2267C35.5195 18.129 35.5195 18.7032 35.4457 19.6056C35.3965 20.2618 35.2652 21.238 35.1504 21.7794C35.0437 22.3208 34.814 23.1657 34.65 23.6661C34.4859 24.1665 34.1906 24.9376 33.9855 25.3888C33.7886 25.8399 33.4031 26.5782 33.1324 27.0294C32.8617 27.4806 32.3941 28.1778 32.0906 28.5798C31.7871 28.9817 31.5082 29.3591 31.459 29.4165C31.3933 29.4985 31.5574 29.7118 32.8535 31.0079L33.3867 30.4829C33.682 30.1958 34.0429 29.9005 34.1906 29.8267C34.33 29.7528 34.5679 29.6954 34.6992 29.6954C34.8304 29.6954 35.0683 29.7446 35.216 29.8103C35.3636 29.8759 36.4875 30.9341 37.7836 32.2466C39.0879 33.5673 40.1789 34.7403 40.3019 34.9454C40.4086 35.1505 40.5726 35.5196 40.6547 35.7657C40.7449 36.0528 40.8023 36.4548 40.8023 36.8731C40.8023 37.3571 40.7531 37.6853 40.6054 38.1036C40.4988 38.4235 40.2527 38.8829 40.0722 39.129C39.8836 39.3751 39.6047 39.695 39.4488 39.8263C39.2929 39.9657 39.0058 40.179 38.8008 40.2938C38.5957 40.4169 38.1937 40.5892 37.8984 40.6794C37.5867 40.786 37.1519 40.8517 36.8484 40.8517C36.5695 40.8517 36.1101 40.7778 35.8312 40.6876C35.5441 40.5974 35.0765 40.3759 34.7812 40.1872C34.4449 39.9739 33.4851 39.088 32.2054 37.8247C31.0816 36.7173 30.0562 35.6427 29.9332 35.4376C29.7773 35.1997 29.6953 34.9618 29.6953 34.7649C29.6953 34.5927 29.7363 34.3548 29.7855 34.2317C29.8347 34.1005 30.13 33.7478 30.9996 32.8536L30.2859 32.1399C29.8922 31.738 29.5476 31.4181 29.5066 31.4181C29.4738 31.4181 29.2359 31.5903 28.9734 31.8036C28.7191 32.0169 28.1203 32.4435 27.6445 32.747C27.1687 33.0587 26.414 33.4935 25.9629 33.7149C25.5117 33.9364 24.8062 34.2399 24.4043 34.3958C24.0023 34.5517 23.3133 34.7731 22.8867 34.888C22.4601 35.011 21.7957 35.1587 21.4101 35.2243C21.0246 35.2899 20.1961 35.3884 19.5644 35.4376C18.7031 35.5114 18.1207 35.5114 17.2265 35.4458C16.5703 35.3966 15.5859 35.2571 15.0281 35.1505C14.4785 35.0356 13.5761 34.7978 13.0183 34.6173C12.4687 34.4286 11.5418 34.0513 10.9511 33.7642C10.3605 33.4771 9.58943 33.0423 9.22849 32.8126C8.86755 32.5747 8.29333 32.1646 7.95701 31.9103C7.62068 31.656 7.03005 31.1474 6.65271 30.7946C6.27536 30.4419 5.66833 29.7938 5.3156 29.3673C4.95466 28.9407 4.47068 28.2927 4.23279 27.9317C3.98669 27.5708 3.60935 26.9392 3.38787 26.5372C3.16638 26.1353 2.83005 25.438 2.64138 25.0032C2.45271 24.5603 2.18201 23.822 2.05076 23.3626C1.9113 22.895 1.73083 22.1649 1.6488 21.7384C1.55857 21.3118 1.44373 20.5161 1.3863 19.9747C1.32888 19.3677 1.30427 18.5228 1.33708 17.7599C1.3699 17.0872 1.44373 16.1767 1.51755 15.7501C1.59138 15.3235 1.75544 14.5442 1.8949 14.0274C2.02615 13.5106 2.32146 12.6247 2.55115 12.0587C2.77263 11.4927 3.13357 10.7216 3.33865 10.336C3.55193 9.95049 3.96208 9.28604 4.24919 8.85947C4.5363 8.43291 5.02849 7.78486 5.33201 7.42393C5.63552 7.06299 6.23435 6.43955 6.65271 6.0376C7.07927 5.63564 7.71911 5.07783 8.08005 4.80713C8.44099 4.53643 9.02341 4.13447 9.37615 3.92119C9.72068 3.70791 10.3851 3.33877 10.8445 3.10088C11.3121 2.87119 12.0586 2.54307 12.5097 2.379C12.9609 2.21494 13.6254 2.00166 13.9863 1.90322C14.3472 1.80479 15.1593 1.63252 15.791 1.52588C16.6769 1.37002 17.2593 1.329 18.334 1.3208ZM16.2832 4.10986C15.9222 4.15908 15.2578 4.29033 14.8066 4.40518C14.3554 4.51182 13.65 4.7333 13.248 4.88916C12.8461 5.05322 12.1242 5.38135 11.6484 5.62744C11.1726 5.87354 10.4343 6.32471 10.0078 6.62822C9.58122 6.93174 8.76911 7.63721 8.2031 8.20322C7.63708 8.76924 6.93162 9.58135 6.6281 10.0079C6.32458 10.4345 5.87341 11.1728 5.62732 11.6485C5.38122 12.1243 5.0531 12.8462 4.88904 13.2481C4.73318 13.6501 4.5281 14.2981 4.42966 14.6837C4.33122 15.0692 4.19998 15.6927 4.13435 16.0782C4.06873 16.4638 3.9949 17.2513 3.96208 17.8419C3.93747 18.4735 3.95388 19.2774 4.0113 19.8106C4.06873 20.311 4.18357 21.0657 4.28201 21.4923C4.37224 21.9188 4.55271 22.6079 4.68396 23.0099C4.81521 23.4118 5.14333 24.1911 5.40583 24.7325C5.67654 25.2739 6.1113 26.0532 6.39021 26.4552C6.66091 26.8571 7.1531 27.5052 7.48122 27.8825C7.80935 28.2681 8.40818 28.8751 8.81833 29.2278C9.22029 29.5888 9.94216 30.1384 10.4179 30.4501C10.8937 30.77 11.6484 31.2048 12.0996 31.4181C12.5508 31.6313 13.3054 31.9431 13.7812 32.0989C14.257 32.2548 15.0199 32.4599 15.4793 32.5583C15.9468 32.6567 16.7918 32.7716 17.366 32.8126C18.1125 32.8782 18.7277 32.8782 19.4824 32.8126C20.073 32.7634 20.9015 32.6567 21.3281 32.5665C21.7547 32.4763 22.4601 32.2958 22.8867 32.1563C23.3133 32.0251 24.2156 31.6313 24.8965 31.295C25.7086 30.8931 26.4304 30.4583 27.0293 30.0071C27.5297 29.638 28.2597 28.9981 28.6699 28.5962C29.0718 28.186 29.6871 27.4642 30.0398 26.9884C30.45 26.4388 30.9093 25.6841 31.2949 24.8966C31.6312 24.2239 32.025 23.3134 32.1562 22.8868C32.2957 22.4603 32.4761 21.7548 32.5664 21.3282C32.6566 20.9017 32.7633 20.0731 32.8125 19.4825C32.8781 18.7196 32.8781 18.1126 32.8125 17.3497C32.7633 16.7591 32.6484 15.9142 32.5582 15.463C32.4679 15.0118 32.2711 14.2735 32.1152 13.8224C31.9676 13.3712 31.664 12.6165 31.4343 12.1407C31.2129 11.6649 30.7699 10.8938 30.45 10.4181C30.1383 9.94229 29.5886 9.22861 29.2277 8.81846C28.875 8.4165 28.2679 7.80947 27.8824 7.48135C27.505 7.15322 26.898 6.68564 26.5371 6.43955C26.1761 6.20166 25.5691 5.83252 25.1836 5.62744C24.798 5.42236 24.2074 5.14346 23.8711 5.004C23.5347 4.86455 22.8703 4.63486 22.3945 4.50361C21.9187 4.37236 21.1968 4.2083 20.7949 4.13447C20.3929 4.06885 19.466 3.99502 18.7441 3.97861C18.0222 3.96221 17.325 3.97041 17.1855 3.98682C17.0461 4.00322 16.6441 4.06064 16.2832 4.10986ZM32.8535 34.7075C35.7902 37.6196 36.3726 38.1446 36.5449 38.1774C36.6761 38.2103 36.9468 38.202 37.1355 38.1528C37.3488 38.0954 37.6031 37.9478 37.7754 37.7755C37.9476 37.6032 38.0953 37.3489 38.1527 37.1438C38.2019 36.947 38.2101 36.6763 38.1773 36.545C38.1445 36.3728 37.6195 35.7903 36.43 34.5927C35.5031 33.6575 34.7238 32.8946 34.6992 32.8946C34.6746 32.8946 34.248 33.3048 33.7558 33.797L32.8535 34.7075ZM23.6414 11.8208C25.8808 11.8208 26.5535 11.8454 26.7586 11.9274C26.9062 11.9931 27.1277 12.1489 27.2425 12.2802C27.3656 12.4114 27.505 12.6657 27.5543 12.8462C27.6117 13.0513 27.6445 14.1587 27.6445 15.7993C27.6445 17.4317 27.6117 18.5474 27.5543 18.7524C27.505 18.9329 27.3492 19.1954 27.2015 19.3431C27.0621 19.4907 26.816 19.6548 26.6601 19.704C26.4879 19.7532 26.2418 19.7696 26.0449 19.7286C25.8644 19.6958 25.6101 19.5646 25.4789 19.4497C25.3476 19.3349 25.1918 19.138 25.1261 19.0149C25.0523 18.8591 25.0195 18.4571 25.0195 17.6614C25.0195 17.0462 24.9949 16.5048 24.9621 16.472C24.9211 16.4392 23.6004 17.6942 22.0254 19.2774C20.4422 20.8524 19.0476 22.1813 18.9246 22.2306C18.8015 22.2798 18.5554 22.3208 18.375 22.3208C18.1945 22.3208 17.9402 22.2634 17.8172 22.1978C17.6941 22.1403 17.1855 21.6728 15.791 20.27L13.4531 22.5997C11.3613 24.6833 11.0824 24.9376 10.7871 24.9868C10.6066 25.0196 10.3441 25.0196 10.2129 24.9868C10.0734 24.9622 9.84372 24.8474 9.69607 24.7325C9.54841 24.6259 9.37615 24.4208 9.31052 24.2896C9.2449 24.1501 9.18747 23.8466 9.18747 23.1821L12.116 20.2454C13.732 18.6294 15.1265 17.2677 15.2168 17.2185C15.307 17.1692 15.5449 17.1282 15.75 17.1282C15.9551 17.1282 16.2258 17.1856 16.3652 17.2595C16.4965 17.3251 17.0133 17.7927 18.416 19.2036L20.7293 16.8821C22.0008 15.6106 23.0261 14.536 23.0015 14.5032C22.9851 14.4704 22.4437 14.4458 21.7957 14.4458C20.7129 14.4458 20.6062 14.4376 20.3519 14.2571C20.1961 14.1587 19.991 13.97 19.9008 13.8388C19.7695 13.6747 19.7285 13.486 19.7285 13.1415C19.7285 12.7888 19.7695 12.6165 19.9172 12.4032C20.0238 12.2556 20.2617 12.0587 20.4504 11.9767C20.7621 11.8372 21.041 11.8208 23.6414 11.8208Z" fill="#F15A2B"/>
</svg>
