<svg width="24" height="24" viewBox="0 0 24 24" fill="none" xmlns="http://www.w3.org/2000/svg">
<g id="free-icon-font-user-salary-14227529 (1) 1">
<path id="Vector" d="M5 6C5 2.691 7.691 0 11 0C14.309 0 17 2.691 17 6C17 9.309 14.309 12 11 12C7.691 12 5 9.309 5 6ZM21.685 16.267L18.644 15.76C18.271 15.698 18 15.378 18 15C18 14.449 18.448 14 19 14H21C21.552 14 22 14.449 22 15H24C24 13.346 22.654 12 21 12V10H19V12C17.346 12 16 13.346 16 15C16 16.36 16.974 17.51 18.315 17.733L21.356 18.24C21.729 18.302 22 18.622 22 19C22 19.551 21.552 20 21 20H19C18.448 20 18 19.551 18 19H16C16 20.654 17.346 22 19 22V24H21V22C22.654 22 24 20.654 24 19C24 17.64 23.026 16.49 21.685 16.267ZM14 19V15C14 14.714 14.038 14.439 14.084 14.166L14 14H6.5C4.019 14 2 16.019 2 18.5V24H17V23.576C15.237 22.802 14 21.045 14 19Z" fill="#333333"/>
</g>
</svg>
