<svg width="74" height="74" viewBox="0 0 74 74" fill="none" xmlns="http://www.w3.org/2000/svg">
<g id="Group 9892">
<g id="Group 9889">
<path id="Ellipse 285" d="M9.5498 36.8052C9.5498 21.6102 21.8678 9.29222 37.0627 9.29222C52.2577 9.29222 64.5757 21.6102 64.5757 36.8052C64.5757 52.0002 52.2577 64.3181 37.0627 64.3181C21.8678 64.3181 9.54979 52.0001 9.5498 36.8052Z" fill="#F15A2B"/>
<path id="Ellipse 282" d="M37.0621 9.2922C32.318 9.2922 27.6545 10.5189 23.5244 12.8533C19.3943 15.1876 15.938 18.5503 13.4911 22.6147C11.0442 26.6791 9.68988 31.3071 9.55958 36.0495C9.42927 40.7918 10.5274 45.4873 12.7475 49.6799C14.9675 53.8725 18.2339 57.4199 22.2296 59.9775C26.2253 62.5351 30.8144 64.0161 35.5514 64.2766C40.2883 64.5371 45.0122 63.5683 49.2642 61.4643C53.5162 59.3602 57.152 56.1925 59.8184 52.2686L37.0621 36.8052L37.0621 9.2922Z" fill="#1B1E4E"/>
<path id="Ellipse 282 (Stroke)" fill-rule="evenodd" clip-rule="evenodd" d="M37.9732 8.38176L37.9732 36.3234L61.084 52.0277L60.572 52.7812C57.8173 56.835 54.0611 60.1077 49.6683 62.2814C45.2755 64.4551 40.3952 65.456 35.5014 65.1868C30.6076 64.9177 25.8665 63.3877 21.7385 60.7454C17.6106 58.1031 14.236 54.4383 11.9424 50.1068C9.64889 45.7753 8.51435 40.9244 8.64897 36.025C8.78359 31.1257 10.1828 26.3444 12.7107 22.1454C15.2386 17.9464 18.8094 14.4724 23.0762 12.0608C27.3431 9.64911 32.161 8.38176 37.0622 8.38176L37.9732 8.38176ZM37.0622 36.8057L37.0622 9.29279C36.7582 9.29279 36.4545 9.29783 36.1512 9.30787C31.7225 9.45458 27.3899 10.6691 23.5245 12.8539C19.3944 15.1882 15.9381 18.5508 13.4912 22.6153C11.0443 26.6797 9.68996 31.3077 9.55965 36.0501C9.42935 40.7924 10.5275 45.4879 12.7475 49.6805C14.9676 53.8731 18.234 57.4205 22.2297 59.9781C26.2253 62.5357 30.8145 64.0167 35.5514 64.2772C40.2884 64.5377 45.0122 63.5689 49.2643 61.4649C53.2438 59.4957 56.6835 56.5947 59.2939 53.0142C59.4718 52.7703 59.6458 52.5232 59.8158 52.273C59.8167 52.2717 59.8176 52.2704 59.8184 52.2692L37.0622 36.8057Z" fill="#0C0E29"/>
<path id="Ellipse 286" d="M37.063 9.2921C32.2335 9.29209 27.489 10.5634 23.3065 12.9781C19.124 15.3929 15.6508 18.8661 13.2361 23.0486C10.8213 27.2311 9.55004 31.9755 9.55004 36.805C9.55004 41.6346 10.8213 46.379 13.2361 50.5615L37.063 36.805L37.063 9.2921Z" fill="#FCB042"/>
<path id="Ellipse 286 (Stroke)" fill-rule="evenodd" clip-rule="evenodd" d="M37.9746 8.38097L37.9746 37.3309L12.9032 51.8059L12.4477 51.0169C9.95298 46.6959 8.63961 41.7944 8.63961 36.8049C8.63961 31.8155 9.95298 26.9139 12.4477 22.593C14.9424 18.272 18.5306 14.6838 22.8516 12.1891C27.1726 9.69433 32.0741 8.38097 37.0636 8.38097L37.9746 8.38097ZM37.0636 36.8049L13.2367 50.5614C13.0846 50.2981 12.9372 50.0326 12.7942 49.7649C10.6669 45.7812 9.55064 41.3304 9.55064 36.8049C9.55064 31.9754 10.8219 27.231 13.2367 23.0485C15.6514 18.866 19.1246 15.3928 23.3071 12.978C27.2263 10.7153 31.6389 9.4566 36.1526 9.30708C36.4558 9.29703 36.7595 9.292 37.0636 9.292L37.0636 36.8049Z" fill="#0C0E29"/>
<path id="Ellipse 284 (Stroke)" fill-rule="evenodd" clip-rule="evenodd" d="M37.0625 64.3183C52.2575 64.3183 64.5754 52.0004 64.5754 36.8054C64.5754 21.6104 52.2575 9.29243 37.0625 9.29243C21.8675 9.29243 9.54951 21.6104 9.54951 36.8054C9.54951 52.0004 21.8675 64.3183 37.0625 64.3183ZM37.0625 65.9582C53.1631 65.9582 66.2153 52.906 66.2153 36.8054C66.2153 20.7047 53.1631 7.65259 37.0625 7.65259C20.9618 7.65259 7.90967 20.7047 7.90967 36.8054C7.90967 52.906 20.9618 65.9582 37.0625 65.9582Z" fill="#F9E79D"/>
<path id="Ellipse 287 (Stroke)" fill-rule="evenodd" clip-rule="evenodd" d="M55.471 17.5452C55.698 17.7642 55.9211 17.9873 56.1402 18.2143L55.2224 19.1C55.0139 18.8839 54.8014 18.6715 54.5853 18.4629L55.471 17.5452ZM17.985 18.2143C18.2041 17.9873 18.4272 17.7642 18.6541 17.5452L19.5399 18.4629C19.3237 18.6715 19.1113 18.8839 18.9027 19.1L17.985 18.2143ZM10.5518 36.6228C10.5518 36.4642 10.5532 36.3059 10.5559 36.148L11.8312 36.1704C11.8285 36.3208 11.8272 36.4716 11.8272 36.6228C11.8272 36.7739 11.8285 36.9247 11.8312 37.0751L10.5559 37.0975C10.5532 36.9396 10.5518 36.7813 10.5518 36.6228ZM63.5692 36.148C63.572 36.3059 63.5734 36.4642 63.5734 36.6228C63.5734 36.7813 63.572 36.9396 63.5692 37.0975L62.294 37.0751C62.2966 36.9247 62.298 36.7739 62.298 36.6228C62.298 36.4716 62.2966 36.3208 62.294 36.1704L63.5692 36.148Z" fill="#0C0E29"/>
<g id="Ellipse 287 (Stroke)_2">
<path d="M18.6535 55.7009C18.4265 55.4818 18.2034 55.2587 17.9844 55.0317L18.9021 54.146C19.1107 54.3621 19.3231 54.5745 19.5392 54.7831L18.6535 55.7009Z" fill="#FCB042"/>
<path d="M56.1396 55.0317C55.9205 55.2587 55.6974 55.4818 55.4704 55.7009L54.5847 54.7831C54.8008 54.5745 55.0132 54.3621 55.2218 54.146L56.1396 55.0317Z" fill="#FCB042"/>
<path d="M37.062 63.1341C36.9034 63.1341 36.7451 63.1327 36.5872 63.1299L36.6096 61.8547C36.7601 61.8573 36.9109 61.8587 37.062 61.8587C37.2131 61.8587 37.3639 61.8573 37.5143 61.8547L37.5367 63.1299C37.3788 63.1327 37.2205 63.1341 37.062 63.1341Z" fill="#FCB042"/>
</g>
<path id="Ellipse 283 (Stroke)" fill-rule="evenodd" clip-rule="evenodd" d="M37.0633 59.3982C49.5414 59.3982 59.6568 49.2828 59.6568 36.8048C59.6568 24.3268 49.5414 14.2114 37.0633 14.2114C24.5853 14.2114 14.4699 24.3268 14.4699 36.8048C14.4699 49.2828 24.5853 59.3982 37.0633 59.3982ZM37.0633 61.0381C50.447 61.0381 61.2966 50.1885 61.2966 36.8048C61.2966 23.4211 50.447 12.5715 37.0633 12.5715C23.6797 12.5715 12.8301 23.4211 12.8301 36.8048C12.8301 50.1885 23.6797 61.0381 37.0633 61.0381Z" fill="#0C0E29"/>
<g id="Mask group">
<mask id="mask0_2442_685" style="mask-type:alpha" maskUnits="userSpaceOnUse" x="13" y="13" width="48" height="48">
<path id="Ellipse 281" d="M60.3837 36.8056C60.3837 49.6862 49.942 60.1279 37.0615 60.1279C24.181 60.1279 13.7393 49.6862 13.7393 36.8056C13.7393 23.9251 24.181 13.4834 37.0615 13.4834C49.942 13.4834 60.3837 23.9251 60.3837 36.8056Z" fill="url(#paint0_linear_2442_685)"/>
</mask>
<g mask="url(#mask0_2442_685)">
<path id="Ellipse 283" d="M60.3837 36.8056C60.3837 49.6862 49.942 60.1279 37.0615 60.1279C24.181 60.1279 13.7393 49.6862 13.7393 36.8056C13.7393 23.9251 24.181 13.4834 37.0615 13.4834C49.942 13.4834 60.3837 23.9251 60.3837 36.8056Z" fill="url(#paint1_linear_2442_685)"/>
<g id="Group 9878">
<path id="Star 24" d="M31.0788 22.806L37.0609 27.756L43.043 22.806L38.093 28.7881L43.043 34.7702L37.0609 29.8202L31.0788 34.7702L36.0288 28.7881L31.0788 22.806Z" fill="#F15A2B"/>
<path id="Star 23" d="M37.0614 14.9404L38.256 27.5934L50.909 28.788L38.256 29.9826L37.0614 42.6356L35.8669 29.9826L23.2139 28.788L35.8669 27.5934L37.0614 14.9404Z" fill="#F15A2B"/>
<path id="Star 26" d="M33.2301 24.9569L37.0614 28.1271L40.8926 24.9569L37.7224 28.7881L40.8926 32.6193L37.0614 29.4491L33.2301 32.6193L36.4004 28.7881L33.2301 24.9569Z" fill="#FCB042"/>
<path id="Star 25" d="M37.0621 18.136L37.9811 27.8691L47.7141 28.788L37.9811 29.7069L37.0621 39.44L36.1432 29.7069L26.4102 28.788L36.1432 27.8691L37.0621 18.136Z" fill="#FCB042"/>
<path id="Star 27" d="M37.061 22.6096L37.5939 28.2548L43.2391 28.7878L37.5939 29.3207L37.061 34.9659L36.528 29.3207L30.8828 28.7878L36.528 28.2548L37.061 22.6096Z" fill="#F9E79D"/>
</g>
<g id="Group 9868">
<g id="Group 9867">
<g id="Group 9866">
<path id="Vector 75" d="M15.8853 34.4277L11.7652 39.7253L36.6385 40.6083L51.2879 41.3146L60.9015 40.6083L62.5801 39.3722L58.1548 33.3682L57.2392 34.2511L51.8983 28.6003L45.6418 37.0765H40.6061C40.1483 37.0765 38.1645 37.4297 36.6385 37.4297C35.1126 37.4297 33.7392 37.0765 33.1288 37.0765C32.6405 37.0765 31.5011 37.9006 30.9924 38.3126L25.6515 37.9595L22.2944 34.9575L18.6321 37.9595L15.8853 34.4277Z" fill="#FCB042"/>
<path id="Vector 75 (Stroke)" fill-rule="evenodd" clip-rule="evenodd" d="M10.6771 40.2343L36.6119 41.1548L51.2945 41.8628L61.0984 41.1425L63.3442 39.4886L58.2242 32.5421L57.2569 33.475L51.8463 27.7505L45.3656 36.5305H40.6058C40.4512 36.5305 40.2047 36.5579 39.9418 36.5896C39.8209 36.6042 39.6946 36.62 39.5608 36.6368C39.3762 36.66 39.1772 36.6849 38.9582 36.7109C38.2167 36.7989 37.3666 36.8837 36.6382 36.8837C35.9149 36.8837 35.2208 36.7999 34.6183 36.7127C34.4984 36.6954 34.3786 36.6772 34.2608 36.6594C33.8217 36.5928 33.4104 36.5305 33.1285 36.5305C32.8826 36.5305 32.6296 36.6255 32.4333 36.715C32.2194 36.8126 31.9926 36.9423 31.777 37.0779C31.4274 37.2978 31.0794 37.5508 30.8179 37.7539L25.8752 37.427L22.3096 34.2386L18.719 37.1818L15.885 33.5379L10.6771 40.2343ZM18.6318 37.96L22.2941 34.9581L25.6512 37.96L30.9921 38.3132C31.5008 37.9012 32.6402 37.0771 33.1285 37.0771C33.365 37.0771 33.716 37.1301 34.146 37.1951C34.826 37.2978 35.7035 37.4303 36.6382 37.4303C37.6242 37.4303 38.8013 37.2828 39.6343 37.1785C40.0907 37.1213 40.4438 37.0771 40.6058 37.0771H45.6415L51.898 28.6009L57.2389 34.2517L58.1545 33.3688L62.5798 39.3727L60.9012 40.6089L51.2876 41.3152L36.6382 40.6089L11.7649 39.7259L15.885 34.4283L18.6318 37.96Z" fill="#0C0E29"/>
<path id="Vector 79" d="M55.1036 39.5486L51.8991 28.4236L61.5127 38.3125L55.1036 39.5486Z" fill="#F9E79D"/>
<g id="Group 9864">
<path id="Vector 76" d="M58.3066 33.5452L62.7319 39.5491L60.7482 40.7852L51.7449 41.315L49.6086 40.9618L54.0339 34.2515L57.0858 37.7833L56.3229 35.311L58.3066 33.5452Z" fill="#FCB042"/>
<path id="Vector 77" d="M60.7482 40.7852L58.3066 33.5452L62.7319 39.5491L60.7482 40.7852Z" fill="#DE9C3B"/>
<path id="Vector 78" d="M51.7462 41.3152L54.0352 34.2517L49.6099 40.962L51.7462 41.3152Z" fill="#DE9C3B"/>
<path id="Vector 79_2" d="M14.665 39.9022L15.8857 34.428L11.7656 39.7256L14.665 39.9022Z" fill="#DE9C3B"/>
</g>
<path id="Vector 80" d="M18.3259 39.0192L15.8844 34.428L18.6311 37.9597L22.2935 34.9577L18.3259 39.0192Z" fill="#F9E79D"/>
<path id="Vector 81" d="M25.6509 40.2549L22.2938 34.9573L28.8555 40.2549H25.6509Z" fill="#F9E79D"/>
</g>
</g>
</g>
<path id="Rectangle 144" d="M6.63379 39.7202H67.4903V62.3136H6.63379V39.7202Z" fill="url(#paint2_linear_2442_685)"/>
<g id="Group 9888">
<path id="Vector 101" d="M52.2945 45.0279C56.4243 46.5291 65.5025 57.6768 66.9442 59.2058H7.08984L14.624 46.0704C18.5305 42.6649 26.846 35.9374 28.8551 36.271C31.3664 36.688 36.2496 41.4834 39.1796 42.3174C42.1095 43.1514 47.1323 43.1514 52.2945 45.0279Z" fill="#F9E79D"/>
<path id="Vector 100" d="M40.9503 47.0764C39.8328 47.0764 38.529 47.7634 38.0168 48.1069L33.9658 53.5683H63.3008L61.9039 45.6338C59.7154 45.1186 55.087 44.1293 54.0812 44.2942C52.824 44.5003 50.589 45.7368 48.773 46.4582C46.957 47.1795 42.3472 47.0764 40.9503 47.0764Z" fill="#F15A2B"/>
<path id="Vector 99" d="M51.8772 51.7104C54.1096 52.3776 59.5974 53.1004 62.0622 53.3784L64.0155 60.0503H11.1372C14.7182 57.2704 22.2151 51.5853 23.5545 51.0849C25.2288 50.4594 30.9491 45.664 33.8791 45.4555C36.809 45.247 40.9946 48.166 43.785 48.3744C46.5754 48.5829 49.0868 50.8764 51.8772 51.7104Z" fill="#FCB042"/>
<path id="Vector 105" d="M17.0327 43.2415V44.6399H16.4124V43.9407L16.2215 43.8941C15.8397 43.7449 15.7443 43.3348 15.7443 43.1483V41.6568C15.7443 41.5636 15.792 41.3771 15.9829 41.3771C16.1356 41.3771 16.2056 41.5636 16.2215 41.6568V43.3348C16.2215 43.4839 16.3487 43.5523 16.4124 43.5678V40.9576C16.4124 40.911 16.4601 40.6313 16.7464 40.6313C16.9755 40.6313 17.0327 40.8489 17.0327 40.9576V42.8687C17.2618 42.8314 17.3509 42.6045 17.3668 42.4958V41.6568C17.3668 41.3305 17.3668 41.1441 17.5577 41.1441C17.7104 41.1441 17.7485 41.2994 17.7485 41.3771V42.4492C17.7485 43.0085 17.2713 43.2105 17.0327 43.2415Z" fill="#F9E79D"/>
<path id="Vector 98" d="M27.2355 52.839C21.3728 53.5921 13.2069 49.3873 9.85685 47.1907L6.08798 69.7841H67.8555L57.8052 62.253C55.6416 60.9978 49.5974 57.3577 42.7297 52.839C34.1451 47.1907 34.5638 51.8976 27.2355 52.839Z" fill="#F15A2B"/>
<path id="Vector 102" d="M43.8756 56.3823C44.8678 56.6819 47.3072 57.0065 48.4028 57.1314L49.271 60.1277H25.7666C27.3584 58.8792 30.6908 56.3261 31.2861 56.1013C32.0303 55.8204 34.573 53.6668 35.8754 53.5731C37.1777 53.4795 39.0382 54.7904 40.2786 54.8841C41.5189 54.9777 42.6352 56.0077 43.8756 56.3823Z" fill="#FCB042"/>
</g>
<g id="Group 9863">
<g id="Group 9860">
<path id="Vector 73" d="M41.2165 59.9203H41.9738C42.0935 59.9203 42.1808 59.8069 42.1511 59.691C42.0006 59.1049 41.7657 58.118 41.6936 57.5405C41.5901 56.7127 42.004 55.7815 42.0557 55.2124C42.0939 54.7926 41.8711 54.3993 41.7279 54.2188C41.7061 54.1913 41.6908 54.1594 41.6852 54.1248C41.6447 53.8739 41.5502 53.3589 41.4349 52.9361C41.3107 52.4808 41.1762 49.5043 41.1245 48.073C41.1245 47.9695 41.3004 47.7005 42.004 47.4521C42.6464 47.2254 43.2227 46.2337 43.4887 45.643C43.5282 45.5553 43.6268 45.5099 43.7192 45.5362C44.3326 45.7101 45.6304 45.9471 47.0223 45.7966C48.9365 45.5897 50.6955 44.2446 51.3163 43.5203C51.9371 42.796 53.3857 40.6231 54.2652 39.3815C55.1447 38.1398 56.9037 36.9499 57.7314 36.536C58.5592 36.1222 59.387 37.1569 59.5939 37.1569C59.7145 37.1569 59.696 36.8823 59.6504 36.6332C59.6277 36.5093 59.7274 36.3897 59.8517 36.3688C60.0489 36.3356 60.2627 36.2408 60.3182 36.0187C60.3807 35.7687 60.1522 35.4834 59.9401 35.2918C59.8495 35.21 59.8144 35.0303 59.7998 34.9092C59.7786 34.7349 59.6735 34.4587 59.3869 34.0528C58.7661 33.1733 57.0589 33.4837 56.8002 33.4319C56.5415 33.3802 56.645 32.8628 56.5933 32.7594C56.5579 32.6887 56.3443 32.814 56.1967 32.9166C56.1524 32.9473 56.0975 32.9592 56.0449 32.9468C55.7229 32.8708 55.1371 32.7316 54.8343 32.6559C54.4204 32.5524 54.0582 32.9663 53.6444 32.7594C53.2305 32.5524 52.8683 32.449 52.6097 32.6559C52.4387 32.7927 52.6091 33.3863 52.7708 33.8121C52.8156 33.9303 52.7325 34.0635 52.6181 34.1172C51.9754 34.4185 51.7134 35.6773 51.575 36.2774C51.4197 36.9499 49.609 39.4332 48.7813 39.9506C47.9535 40.4679 47.0223 40.261 45.4185 39.4332C43.8147 38.6054 43.9699 37.4155 42.7283 36.0704C41.4866 34.7253 40.6588 35.967 38.5377 33.7423L38.4474 33.6476C36.3986 31.4986 35.775 30.8444 34.3472 30.7934C32.8986 30.7417 29.8462 33.4837 29.0185 34.001C28.1907 34.5184 26.0696 35.1909 24.2071 36.2256C22.3446 37.2603 21.9307 38.8641 21.5169 39.9506C21.1858 40.8197 20.9305 43.4168 20.8443 44.6067C20.7581 45.9863 20.5856 48.8593 20.5856 49.3146C20.5856 49.8837 18.9819 52.9878 18.8785 53.35C18.775 53.7121 18.8785 54.0225 19.3441 55.678C19.6988 56.9394 19.9566 59.3021 20.0548 60.4776C20.0628 60.5724 20.1418 60.6446 20.2369 60.6446H20.8174C20.918 60.6446 20.9996 60.6227 20.9996 60.5221V60.1273V55.3804C20.9996 55.3716 21.0002 55.3637 21.0014 55.355C21.1584 54.2793 21.6228 51.8343 22.2412 50.5563C23.0173 48.9525 23.3795 48.9525 23.6898 48.5386C24.0002 48.1247 24.1554 47.4522 24.3624 47.1935C24.527 46.9877 24.7053 45.1615 24.7751 44.2594C24.7759 44.2493 24.7758 44.2396 24.7749 44.2294C24.7436 43.8514 24.8144 43.3461 25.3453 44.2446C26.0179 45.3828 25.9662 46.9865 25.5006 48.1764C25.0349 49.3664 23.1726 51.3323 22.8621 51.6427C22.5517 51.9531 22.6552 52.4705 23.3795 53.35C24.1038 54.2295 26.4319 58.3683 26.6905 59.0926C26.7886 59.367 26.8131 59.5903 26.8026 59.7604C26.793 59.9146 26.9251 60.1273 27.0796 60.1273H28.2499C28.3873 60.1273 28.4759 59.982 28.4116 59.8605C27.493 58.1257 25.8522 54.9738 25.6558 54.3847C25.3971 53.6086 25.4488 52.5222 25.6558 52.1601C25.8627 51.7979 27.9321 49.4698 28.3977 48.9525C28.8633 48.4351 29.2255 48.5903 29.9498 48.1764C30.4712 47.8785 30.9478 46.6926 31.1763 45.968C31.212 45.855 31.3465 45.7927 31.4595 45.8285C32.0569 46.0182 33.5748 46.3374 34.4234 46.5053C34.474 46.5153 34.5171 46.5462 34.5473 46.588C34.7007 46.8007 35.1097 47.246 35.8476 47.7626C36.6026 48.2911 37.5585 48.0563 38.0478 47.8278C38.1242 47.7921 38.2162 47.8059 38.2688 47.8718C38.4891 48.1482 38.8124 48.6732 38.8482 49.2112C38.8896 49.832 39.5208 53.1603 39.8312 54.7468L41.0393 59.7806C41.059 59.8626 41.1322 59.9203 41.2165 59.9203Z" fill="url(#paint3_linear_2442_685)"/>
<path id="Vector 74" d="M38.8999 53.2977L38.1756 48.9519C38.0376 49.6762 37.7203 51.4869 37.5548 52.9355C37.3478 54.7462 36.4166 56.557 36.1579 56.9191C35.951 57.2088 34.1748 59.0058 33.3125 59.868H34.8646C35.2095 59.4714 35.9717 58.6057 36.2614 58.316C36.6235 57.9538 36.8822 57.7986 37.6582 57.2295C38.2791 56.7743 38.5377 56.1776 38.5895 55.9361L38.8999 53.2977Z" fill="#0C0E29"/>
</g>
<g id="Group 9861">
<path id="Vector" d="M25.08 36.0308L24.1808 36.6371C23.9994 36.8523 23.8253 37.061 23.6583 37.2631C23.599 37.3348 23.4962 37.5294 23.35 37.8467C23.35 37.8957 23.36 37.9298 23.38 37.9491C23.4083 37.9774 23.4328 37.9746 23.4535 37.9408C23.9377 37.1503 24.7913 36.6475 25.6874 36.4178C25.6982 36.4149 25.7095 36.415 25.7203 36.418C25.731 36.421 25.7408 36.4268 25.7485 36.4348C25.7563 36.4428 25.7618 36.4527 25.7646 36.4635C25.7673 36.4743 25.7671 36.4857 25.7639 36.4964C25.6481 36.9137 25.6108 37.3321 25.6522 37.7515C25.6532 37.7628 25.6576 37.7736 25.6649 37.7824C25.6721 37.7912 25.6818 37.7976 25.6927 37.8009C25.7036 37.8041 25.7153 37.804 25.7261 37.8005C25.737 37.7971 25.7466 37.7904 25.7536 37.7815C25.884 37.6128 25.9802 37.4359 26.1499 37.3014C26.987 36.6392 28.0382 36.2667 29.0895 35.9656C29.4075 35.8745 29.4233 35.9121 29.1371 36.0784C28.657 36.3567 28.269 36.7354 27.8727 37.1224C27.6485 37.3404 27.6768 37.3807 27.9575 37.2434C30.4729 36.0184 33.5666 36.1725 36.1151 37.2683C36.4248 37.4014 36.7021 37.5118 36.947 37.5994C37.9955 37.976 38.7736 37.7032 39.2813 36.7809C39.3703 36.6185 39.4065 36.4281 39.4758 36.2532C39.4807 36.2408 39.488 36.2294 39.4974 36.2197C39.5067 36.2101 39.5178 36.2024 39.5302 36.1971C39.5425 36.1919 39.5557 36.1891 39.5691 36.1889C39.5825 36.1888 39.5958 36.1913 39.6083 36.1963C40.1387 36.4095 40.4446 36.743 40.526 37.1969C40.5557 37.3617 40.6074 37.3693 40.6812 37.2196C40.8454 36.8858 40.9723 36.5057 41.062 36.0794C40.902 35.8428 40.6843 35.6145 40.4091 35.3944C40.1366 35.1758 39.8469 34.964 39.54 34.7591C39.3068 34.6177 39.1513 34.5708 39.0733 34.6184C39.3858 34.9647 39.7121 35.2199 40.0521 35.3841C40.1922 35.4517 40.1846 35.4865 40.0294 35.4886C39.4017 35.4962 38.8464 35.3503 38.3635 35.0509C38.3132 35.0206 38.288 35.0347 38.288 35.0933C38.288 35.2454 38.3004 35.3996 38.2631 35.5496C38.0986 36.2056 37.4695 36.4343 36.8425 36.4705C36.7066 36.4781 36.5807 36.4522 36.4648 36.3929C35.4957 35.8894 34.5375 35.5562 33.5904 35.3934C32.6944 35.2392 31.5707 35.1885 30.656 35.4172C30.5698 35.4607 30.4808 35.4813 30.3891 35.4793C30.3774 35.479 30.366 35.4756 30.3561 35.4695C30.3461 35.4633 30.3381 35.4546 30.3327 35.4442C30.3273 35.4338 30.3248 35.4222 30.3254 35.4105C30.326 35.3989 30.3298 35.3876 30.3363 35.3779C30.6377 34.933 31.0613 34.5456 31.6069 34.2159C32.0946 33.9214 32.5533 33.7575 32.9831 33.7244C33.5383 33.6823 34.0567 33.7793 34.5382 34.0152C34.8038 34.1455 34.8724 34.3232 34.7441 34.548C34.7103 34.6074 34.6593 34.666 34.591 34.7239C34.5241 34.7805 34.4772 34.8412 34.4503 34.9061L34.5837 34.9536C34.6023 34.9604 34.6223 34.9626 34.642 34.9601C34.6618 34.9575 34.6808 34.9504 34.6976 34.9392C35.0825 34.6777 35.3611 34.3839 35.5336 34.0576C36.0313 33.115 34.2878 32.7622 33.7549 32.667C33.6073 32.6407 33.4601 32.6552 33.3131 32.7104C32.0956 33.1705 30.945 33.7755 29.8614 34.5253C29.4651 34.7995 29.1267 35.0985 28.6673 35.2496C28.0113 35.4638 27.4277 35.8197 26.8307 36.186C26.5272 36.3715 26.4913 36.3295 26.7231 36.0597C26.9859 35.7535 27.3163 35.4765 27.7144 35.2289C27.7378 35.2144 27.7475 35.1937 27.7433 35.1668C27.7413 35.1565 27.7354 35.1478 27.7257 35.1409C27.7161 35.1333 27.7054 35.1306 27.6937 35.1327C26.8887 35.2403 26.1944 35.4538 25.6108 35.7731C25.3556 35.9125 25.1786 35.9984 25.08 36.0308Z" fill="#F9E79D"/>
<path id="Vector_2" d="M55.3762 33.4605C55.3719 33.4562 55.3662 33.4539 55.3602 33.4539C55.3542 33.4539 55.3484 33.4562 55.3442 33.4605L55.3307 33.4739C55.2011 33.6022 55.0808 33.7293 54.9964 33.8273C54.9119 33.9253 54.8702 33.9862 54.8804 33.9966L54.9072 34.0244C54.9122 34.0297 54.9298 34.0223 54.959 34.0027C54.9882 33.9831 55.0285 33.9518 55.0776 33.9104C55.1266 33.8691 55.1834 33.8185 55.2447 33.7617C55.3061 33.7049 55.3708 33.6429 55.4351 33.5792L55.4485 33.5658C55.4527 33.5616 55.4551 33.5558 55.4551 33.5498C55.4551 33.5438 55.4527 33.5381 55.4485 33.5338L55.3762 33.4605Z" fill="#FCB042"/>
<path id="Vector_3" d="M30.6578 35.4172C30.6295 35.4199 30.605 35.4185 30.5843 35.413C30.5443 35.4027 30.5405 35.3844 30.573 35.3582C30.7054 35.2499 30.8168 35.1782 30.9072 35.143C32.064 34.6946 33.2456 34.6156 34.452 34.906C34.4789 34.8412 34.5259 34.7805 34.5928 34.7239C34.6611 34.666 34.7121 34.6073 34.7459 34.548C34.8742 34.3231 34.8056 34.1455 34.54 34.0151C34.0585 33.7792 33.5401 33.6823 32.9848 33.7244C32.5551 33.7575 32.0964 33.9213 31.6087 34.2159C31.0631 34.5456 30.6395 34.9329 30.3381 35.3779C30.3316 35.3876 30.3278 35.3988 30.3272 35.4105C30.3265 35.4222 30.329 35.4338 30.3344 35.4442C30.3398 35.4545 30.3479 35.4633 30.3578 35.4694C30.3678 35.4756 30.3792 35.479 30.3908 35.4793C30.4826 35.4813 30.5716 35.4606 30.6578 35.4172Z" fill="#FCB042"/>
<path id="Vector_4" d="M55.3661 34.1045C55.4282 34.0638 55.4861 34.0182 55.54 33.9679C55.571 33.9389 55.6072 33.9196 55.6486 33.9099C55.71 33.8961 55.7521 33.8599 55.7748 33.8013C55.7777 33.7937 55.7785 33.7856 55.7772 33.7776C55.7759 33.7696 55.7725 33.7622 55.7673 33.7559C55.7622 33.7497 55.7554 33.745 55.7479 33.7422C55.7403 33.7395 55.7321 33.7388 55.7241 33.7402C55.5927 33.762 55.4603 33.7692 55.3609 33.8716C55.2044 34.0338 55.1161 34.2034 55.0961 34.3807C55.0809 34.5139 55.1026 34.5204 55.1613 34.4004C55.214 34.2938 55.2616 34.1727 55.3661 34.1045Z" fill="#FCB042"/>
<path id="Vector_5" d="M57.0488 34.2514C57.1688 34.1155 57.333 34.0175 57.5413 33.9575C57.7165 33.9368 57.8459 33.9064 57.9293 33.8664C57.979 33.843 57.9766 33.8261 57.9221 33.8157C57.623 33.7599 57.0974 33.6874 56.8543 33.8778C56.6597 34.0299 56.608 34.4635 56.5977 34.688C56.5949 34.7515 56.609 34.7556 56.6401 34.7004C56.7291 34.5431 56.8653 34.3934 57.0488 34.2514Z" fill="#FCB042"/>
<path id="Vector_6" d="M57.5392 33.9573C57.3309 34.0173 57.1667 34.1152 57.0467 34.2511C56.8956 34.7402 56.9643 35.1241 57.2526 35.4028C57.2864 35.4359 57.3219 35.4379 57.3592 35.409C57.593 35.2279 57.7896 35.0561 58.1114 35.1151C58.2501 35.1413 58.2856 35.0923 58.218 34.9682L58.0824 34.7199C58.0617 34.6833 58.0586 34.645 58.0731 34.605C58.1007 34.5291 58.149 34.4646 58.218 34.4115C58.2966 34.3501 58.287 34.3084 58.189 34.2863C57.9628 34.2366 57.7462 34.127 57.5392 33.9573Z" fill="#F15A2B"/>
<path id="Vector_7" d="M54.0198 36.2715C54.0225 35.8693 54.1581 35.5165 54.4264 35.213C54.4332 35.2053 54.442 35.1997 54.4519 35.1967C54.4617 35.1937 54.4721 35.1935 54.4821 35.1961C54.492 35.1986 54.5011 35.2039 54.5082 35.2112C54.5154 35.2186 54.5204 35.2278 54.5226 35.2378C54.5688 35.4365 54.6713 35.5793 54.8299 35.6662C54.8851 35.6966 54.9024 35.6821 54.8817 35.6227C54.8165 35.4396 54.7265 35.2999 54.714 35.0971C54.6968 34.7957 54.7334 34.5146 54.8237 34.2538C54.6602 34.2621 54.5557 34.378 54.5102 34.6015C54.5054 34.6229 54.495 34.6401 54.4792 34.6532C54.4716 34.6594 54.4612 34.6601 54.4481 34.6553C54.4412 34.6525 54.4371 34.6474 54.4357 34.6398L54.3726 34.1928C54.3691 34.168 54.3547 34.1545 54.3291 34.1524L54.2815 34.1504C54.254 34.1483 54.2415 34.1611 54.2443 34.1886C54.2712 34.4225 54.0342 34.6232 53.8542 34.7412C53.8232 34.7612 53.8025 34.7888 53.7921 34.824C53.757 34.9405 53.7428 35.063 53.7497 35.1913C53.7502 35.2024 53.7476 35.2134 53.7423 35.2232C53.737 35.233 53.7292 35.2412 53.7198 35.2468C53.7103 35.2525 53.6995 35.2554 53.6885 35.2553C53.6776 35.2551 53.6669 35.252 53.6576 35.2461C53.4893 35.1413 53.3703 34.9964 53.3006 34.8115C53.2503 34.677 53.2075 34.6794 53.1723 34.8188C53.0047 35.4686 53.4403 36.0335 54.0198 36.2715Z" fill="#FCB042"/>
<path id="Vector_8" d="M54.8245 34.2539C54.7342 34.5147 54.6976 34.7957 54.7149 35.0972C54.7273 35.3 54.8173 35.4397 54.8825 35.6228C54.9032 35.6821 54.8859 35.6966 54.8307 35.6663C54.6721 35.5794 54.5697 35.4366 54.5234 35.2379C54.5212 35.2279 54.5162 35.2187 54.509 35.2113C54.5019 35.204 54.4928 35.1987 54.4829 35.1961C54.473 35.1936 54.4625 35.1938 54.4527 35.1968C54.4428 35.1998 54.434 35.2054 54.4272 35.2131C54.1589 35.5166 54.0233 35.8694 54.0206 36.2716C54.2999 36.6323 54.6393 36.7137 55.0387 36.5158C55.1888 36.4413 55.286 36.3119 55.4371 36.2447C55.4736 36.2288 55.5116 36.2243 55.5509 36.2312C55.702 36.2588 55.861 36.2719 56.0279 36.2705C56.1585 36.2692 56.2871 36.2378 56.4038 36.1788C56.5204 36.1198 56.6219 36.0347 56.7005 35.9301C56.777 35.8273 56.8494 35.7121 56.9177 35.5845C57.0122 35.4073 56.9615 35.34 56.7656 35.3828C56.3173 35.4807 55.8827 35.3686 55.4619 35.0465C55.4081 35.0051 55.3474 34.9851 55.2798 34.9865C55.235 34.9872 55.226 35.0058 55.2529 35.0423L55.5374 35.421C55.5574 35.4473 55.553 35.4686 55.524 35.4852C55.4999 35.4997 55.4754 35.5 55.4505 35.4862C55.0187 35.2483 54.8101 34.8375 54.8245 34.2539Z" fill="#F15A2B"/>
<path id="Vector_9" d="M23.3521 37.8471C23.299 38.0486 23.2387 38.1738 23.1711 38.2227C22.9193 38.4055 22.6941 38.6025 22.4954 38.8136C22.5209 38.9839 22.5285 39.1498 22.5182 39.3112C22.503 39.5389 22.503 39.702 22.5182 39.8007C22.6203 40.4718 22.8441 41.0875 23.1897 41.6476C23.1963 41.6583 23.2058 41.6669 23.2172 41.6723C23.2285 41.6777 23.2412 41.6797 23.2537 41.678C23.2662 41.6764 23.2779 41.6712 23.2875 41.663C23.297 41.6549 23.304 41.6441 23.3076 41.6321C23.3759 41.4086 23.4691 41.1858 23.587 40.9637C24.085 40.0276 24.7869 39.2633 25.6926 38.6708C25.8044 38.5908 25.9047 38.5131 25.9937 38.438C26.1848 38.2765 26.2221 38.3062 26.1055 38.5269C26.0634 38.607 26.0165 38.7146 25.9648 38.8498C25.9096 39.2105 25.8972 39.552 25.9275 39.8741C25.9565 40.1887 26.0496 40.4815 26.2069 40.7526C27.2837 42.6137 28.8971 43.5539 31.0472 43.5732C31.4228 43.5763 31.7963 43.5225 32.174 43.5039C32.1885 43.5032 32.1957 43.4956 32.1957 43.4811V43.4552C32.1957 43.4518 32.194 43.4501 32.1906 43.4501C31.6097 43.4514 31.032 43.2759 30.4574 42.9234C30.445 42.9151 30.4405 42.9013 30.444 42.882C30.4455 42.8744 30.4498 42.8676 30.4559 42.863C30.462 42.8584 30.4696 42.8563 30.4771 42.8572C31.6235 42.9869 32.642 42.7409 33.5326 42.1194C34.1844 41.6642 34.7232 41.1158 35.1488 40.4743C35.373 40.1363 35.6306 39.7082 35.9217 39.1902C35.8817 39.1109 35.8568 39.0322 35.8472 38.9543C35.8403 38.8991 35.8575 38.8901 35.8989 38.9274C36.4194 39.4002 37.1126 39.8917 37.8214 39.4934C38.4029 39.1664 38.9489 38.8384 39.4593 38.5094C39.6573 38.3817 39.6883 38.4142 39.5525 38.6066L39.0206 39.3557C38.9875 39.6441 38.9613 39.9234 38.942 40.1939C38.9192 40.5056 38.9272 40.7902 38.9658 41.0475C39.0555 41.64 39.2089 42.1925 39.4262 42.7051C39.433 42.7211 39.4431 42.7356 39.4559 42.7475C39.4686 42.7594 39.4838 42.7684 39.5003 42.7741C39.5168 42.7798 39.5343 42.7819 39.5516 42.7803C39.569 42.7788 39.5859 42.7736 39.6011 42.7651C40.2598 42.3981 40.7865 41.8949 41.1811 41.2555C41.5832 40.6036 41.8143 39.861 41.8743 39.0277C42.0288 37.9199 41.7588 36.9373 41.0642 36.0799C40.9745 36.5062 40.8476 36.8863 40.6834 37.2201C40.6096 37.3698 40.5578 37.3622 40.5282 37.1974C40.4468 36.7435 40.1409 36.4099 39.6104 36.1968C39.598 36.1918 39.5847 36.1892 39.5713 36.1894C39.5579 36.1895 39.5446 36.1923 39.5323 36.1976C39.52 36.2029 39.5088 36.2106 39.4995 36.2202C39.4902 36.2298 39.4829 36.2412 39.478 36.2537C39.4086 36.4286 39.3724 36.619 39.2834 36.7814C38.7757 37.7037 37.9976 37.9765 36.9491 37.5999C36.7043 37.5122 36.427 37.4019 36.1172 37.2687C33.5688 36.173 30.475 36.0188 27.9597 37.2439C27.6789 37.3812 27.6506 37.3408 27.8748 37.1229C28.2711 36.7359 28.6591 36.3572 29.1392 36.0788C29.4255 35.9126 29.4096 35.875 29.0916 35.9661C28.0404 36.2672 26.9891 36.6396 26.152 37.3019C25.9823 37.4364 25.8861 37.6133 25.7557 37.782C25.7487 37.7909 25.7391 37.7975 25.7283 37.801C25.7174 37.8045 25.7058 37.8046 25.6949 37.8013C25.6839 37.7981 25.6742 37.7917 25.667 37.7829C25.6598 37.7741 25.6554 37.7633 25.6543 37.752C25.613 37.3326 25.6502 36.9142 25.7661 36.4969C25.7692 36.4861 25.7694 36.4748 25.7667 36.464C25.764 36.4532 25.7585 36.4433 25.7507 36.4353C25.7429 36.4273 25.7332 36.4215 25.7224 36.4185C25.7117 36.4155 25.7003 36.4154 25.6895 36.4182C24.7935 36.6479 23.9398 37.1508 23.4556 37.9413C23.4349 37.9751 23.4104 37.9779 23.3821 37.9496C23.3621 37.9303 23.3521 37.8961 23.3521 37.8471Z" fill="#FCB042"/>
<path id="Vector_10" d="M51.7848 37.1466C51.7406 37.4459 51.5996 37.7857 51.3616 38.1657C50.7128 39.2004 49.9296 40.1596 48.8949 40.7184C47.7595 41.3309 46.4913 41.3871 45.0903 40.887C45.2006 41.1057 45.3641 41.3271 45.5807 41.5513C45.8573 41.8376 46.0177 42.2325 46.0619 42.736C46.9938 42.9126 47.885 42.7809 48.7355 42.3408C48.75 42.3332 48.7597 42.3215 48.7645 42.3056C48.7665 42.2992 48.7667 42.2925 48.7652 42.2861C48.7637 42.2796 48.7605 42.2736 48.7559 42.2687C48.7513 42.2638 48.7455 42.2602 48.739 42.2581C48.7325 42.256 48.7256 42.2556 48.719 42.257C48.2875 42.349 47.886 42.2652 47.4618 42.1969C47.2556 42.1631 47.069 42.12 46.902 42.0676C46.891 42.0642 46.8831 42.0569 46.8782 42.0459C46.8741 42.0369 46.8751 42.0266 46.8813 42.0148C46.8862 42.0038 46.8948 41.9983 46.9072 41.9983C47.5197 41.9976 48.1323 41.9103 48.7448 41.7365C49.8285 41.4289 50.6859 40.827 51.3171 39.9309C51.434 39.6805 51.6296 39.4281 51.7299 39.2439C52.1424 38.4837 52.3032 37.6639 52.2121 36.7844C52.2087 36.7492 52.1914 36.7399 52.1604 36.7565C51.9465 36.871 51.8213 37.001 51.7848 37.1466Z" fill="#FCB042"/>
<path id="Vector_11" d="M51.7847 37.1462C51.5412 37.4208 51.3225 37.6653 51.1287 37.8798C50.9693 38.0557 50.7748 38.184 50.5451 38.2648C50.2147 38.9208 49.7691 39.4816 49.2083 39.9472C49.091 40.0437 48.9361 40.1407 48.7437 40.2379C48.5774 40.3214 48.4157 40.409 48.2584 40.5007C47.7535 40.8118 47.2247 40.9353 46.6722 40.8712C46.1031 40.8049 45.5696 40.6501 45.0715 40.4066C45.054 40.3978 45.0344 40.394 45.0149 40.3956C44.9954 40.3972 44.9767 40.4042 44.9609 40.4157C44.945 40.4273 44.9327 40.443 44.9252 40.4611C44.9177 40.4792 44.9153 40.499 44.9184 40.5183C44.9529 40.7453 45.0101 40.8681 45.0901 40.8867C46.4911 41.3868 47.7593 41.3306 48.8947 40.718C49.9294 40.1593 50.7127 39.2001 51.3615 38.1654C51.5995 37.7853 51.7405 37.4456 51.7847 37.1462Z" fill="#F9E79D"/>
<path id="Vector_12" d="M41.8731 39.0274C41.8131 39.8606 41.582 40.6032 41.1798 41.2551C40.7853 41.8945 40.2586 42.3977 39.5998 42.7647C39.5846 42.7732 39.5678 42.7784 39.5504 42.78C39.533 42.7815 39.5155 42.7794 39.499 42.7737C39.4825 42.7681 39.4674 42.759 39.4546 42.7471C39.4419 42.7352 39.4318 42.7208 39.425 42.7047C39.2077 42.1922 39.0542 41.6396 38.9645 41.0471C38.9259 40.7898 38.918 40.5053 38.9407 40.1935C38.96 39.9231 38.9863 39.6437 39.0194 39.3554C38.7069 39.7355 38.4937 40.1517 38.3799 40.6043C38.1889 41.3623 38.1723 42.1435 38.3303 42.9479C38.4717 43.6721 38.6255 44.3892 38.7917 45.099C38.7938 45.1078 38.7981 45.1158 38.8043 45.1224C38.8104 45.1289 38.8183 45.1337 38.8269 45.1362C38.8355 45.1388 38.8447 45.139 38.8534 45.1368C38.8622 45.1346 38.8701 45.1301 38.8766 45.1238C39.514 44.5003 40.1969 43.9391 40.9253 43.4404C41.0936 43.3252 41.2312 43.1855 41.3381 43.0213C42.2321 41.6576 42.436 39.9607 42.2652 38.3445C42.2563 38.2603 42.239 38.2586 42.2135 38.3393C42.1804 38.4448 42.1549 38.5569 42.1369 38.6756C42.0976 38.9384 42.0097 39.0557 41.8731 39.0274Z" fill="#F15A2B"/>
<path id="Vector_13" d="M25.6914 38.6704C24.7857 39.2629 24.0838 40.0272 23.5858 40.9633C23.4678 41.1854 23.3747 41.4082 23.3064 41.6317C23.3028 41.6438 23.2958 41.6545 23.2862 41.6627C23.2767 41.6708 23.2649 41.676 23.2525 41.6777C23.24 41.6793 23.2273 41.6773 23.216 41.6719C23.2046 41.6665 23.1951 41.658 23.1885 41.6472C22.8429 41.0871 22.619 40.4715 22.5169 39.8003C22.5018 39.7017 22.5018 39.5385 22.5169 39.3109C22.5273 39.1495 22.5197 38.9836 22.4942 38.8132L21.7554 39.7124L21.5981 40.3601C21.6554 40.4836 21.6826 40.6636 21.6799 40.9002C21.6606 42.3667 21.4433 43.7422 21.028 45.0266L20.6886 47.6444C21.0101 47.4367 21.2312 47.1294 21.3519 46.7225C21.4305 46.4562 21.5067 46.1768 21.5805 45.8843C21.7637 45.1538 22.1072 44.6055 22.7342 44.2174C22.8184 44.1657 22.8449 44.1867 22.8139 44.2806C22.6566 44.7551 22.5304 45.2349 22.4352 45.7198C22.3862 45.9723 22.3755 46.2293 22.4031 46.4907C22.4061 46.5197 22.4163 46.5474 22.4327 46.5715C22.449 46.5956 22.4712 46.6153 22.4971 46.6288C22.523 46.6423 22.5518 46.6492 22.5811 46.649C22.6104 46.6487 22.6392 46.6412 22.6649 46.6273C22.8046 46.5517 22.8956 46.4783 23.0095 46.3655C23.5351 45.8433 23.8872 45.0818 24.0659 44.0809C24.1369 43.6829 24.268 42.8123 24.4591 41.4693C24.597 40.498 25.0078 39.5651 25.6914 38.6704Z" fill="#F15A2B"/>
<path id="Vector_14" d="M25.9642 38.8496C25.7138 39.169 25.5982 39.5166 25.6176 39.8926C25.6693 40.8983 25.9418 41.8616 26.435 42.7825C27.2607 44.3242 28.7351 45.3455 30.4082 45.9518C30.6945 46.0553 30.7107 46.0229 30.4569 45.8545C29.9478 45.5172 29.5422 45.1692 29.24 44.8105C29.0441 44.5794 29.089 44.5149 29.3746 44.617C31.7554 45.4738 34.0783 45.0351 35.7328 43.064C35.8652 42.906 35.8356 42.8643 35.6438 42.9388C35.3872 43.0388 35.1199 43.0974 34.8419 43.1146C34.5839 43.1305 34.567 43.074 34.7912 42.945C35.6811 42.4297 36.1798 41.6661 36.2201 40.6593C36.2402 40.1585 36.1405 39.6687 35.9211 39.19C35.63 39.7081 35.3724 40.1361 35.1482 40.4741C34.7226 41.1156 34.1839 41.664 33.532 42.1193C32.6415 42.7408 31.623 42.9867 30.4765 42.857C30.469 42.8561 30.4615 42.8582 30.4553 42.8628C30.4492 42.8674 30.4449 42.8742 30.4434 42.8818C30.44 42.9012 30.4444 42.915 30.4569 42.9232C31.0315 43.2757 31.6092 43.4513 32.19 43.4499C32.1934 43.4499 32.1952 43.4516 32.1952 43.4551V43.4809C32.1952 43.4954 32.1879 43.503 32.1734 43.5037C31.7958 43.5223 31.4222 43.5761 31.0466 43.573C28.8965 43.5537 27.2831 42.6135 26.2063 40.7524C26.049 40.4813 25.9559 40.1885 25.9269 39.874C25.8966 39.5518 25.909 39.2104 25.9642 38.8496Z" fill="#F15A2B"/>
<path id="Vector_15" d="M51.3166 39.9307C50.6854 40.8268 49.828 41.4286 48.7443 41.7363C48.1318 41.9101 47.5192 41.9974 46.9067 41.9981C46.8943 41.9981 46.8857 42.0036 46.8808 42.0146C46.8746 42.0263 46.8736 42.0367 46.8777 42.0457C46.8826 42.0567 46.8905 42.0639 46.9015 42.0674C47.0685 42.1198 47.2551 42.1629 47.4613 42.1967C47.8855 42.265 48.287 42.3488 48.7185 42.2567C48.7251 42.2554 48.732 42.2558 48.7385 42.2579C48.745 42.2599 48.7508 42.2636 48.7554 42.2685C48.76 42.2734 48.7632 42.2794 48.7647 42.2858C48.7662 42.2923 48.766 42.299 48.764 42.3054C48.7592 42.3212 48.7495 42.333 48.735 42.3405C47.8845 42.7806 46.9933 42.9124 46.0614 42.7358C46.0131 43.3442 45.9951 43.7577 46.0075 43.9764C46.0434 44.6062 46.3959 44.8659 47.065 44.7555C47.2795 44.7204 47.5151 44.6293 47.7717 44.4824C48.6691 43.9671 49.5038 43.3097 50.2757 42.5102C51.1335 41.6204 51.9178 40.4615 52.1661 39.2944C52.184 39.2089 52.1602 39.1947 52.0947 39.252L51.3166 39.9307Z" fill="#F15A2B"/>
</g>
</g>
</g>
</g>
<g id="Group 9880">
<g id="Group 9881">
<path id="Star 47" d="M41.5246 18.22L41.7776 19.7849L43.3441 19.5419L41.934 20.2661L42.6491 21.6809L41.5246 20.5636L40.4001 21.6809L41.1152 20.2661L39.7051 19.5419L41.2716 19.7849L41.5246 18.22Z" fill="#F15A2B"/>
<path id="Star 48" d="M41.5257 18.7668L41.7065 19.8846L42.8254 19.7111L41.8182 20.2284L42.329 21.2389L41.5257 20.4409L40.7225 21.2389L41.2333 20.2284L40.2261 19.7111L41.345 19.8846L41.5257 18.7668Z" fill="#F9E79D"/>
</g>
</g>
<g id="Group 9881_2">
<g id="Group 9881_3">
<path id="Star 47_2" d="M28.4055 30.4277L28.6585 31.9926L30.225 31.7497L28.8148 32.4739L29.53 33.8887L28.4055 32.7713L27.2809 33.8887L27.9961 32.4739L26.5859 31.7497L28.1524 31.9926L28.4055 30.4277Z" fill="#F15A2B"/>
<path id="Star 48_2" d="M28.4046 30.9744L28.5854 32.0922L29.7043 31.9186L28.6971 32.4359L29.2079 33.4465L28.4046 32.6484L27.6014 33.4465L28.1122 32.4359L27.105 31.9186L28.2239 32.0922L28.4046 30.9744Z" fill="#F9E79D"/>
</g>
</g>
<g id="Group 9882">
<g id="Group 9881_4">
<path id="Star 47_3" d="M32.7809 18.22L33.034 19.7849L34.6005 19.5419L33.1903 20.2661L33.9055 21.6809L32.7809 20.5636L31.6564 21.6809L32.3716 20.2661L30.9614 19.5419L32.5279 19.7849L32.7809 18.22Z" fill="#F15A2B"/>
<path id="Star 48_3" d="M32.7826 18.7668L32.9633 19.8846L34.0822 19.7111L33.075 20.2284L33.5858 21.2389L32.7826 20.4409L31.9793 21.2389L32.4901 20.2284L31.4829 19.7111L32.6018 19.8846L32.7826 18.7668Z" fill="#F9E79D"/>
</g>
</g>
<g id="Group 9883">
<g id="Group 9881_5">
<path id="Star 47_4" d="M45.3552 30.4277L45.6082 31.9926L47.1747 31.7497L45.7646 32.4739L46.4797 33.8887L45.3552 32.7713L44.2306 33.8887L44.9458 32.4739L43.5356 31.7497L45.1021 31.9926L45.3552 30.4277Z" fill="#F15A2B"/>
<path id="Star 48_4" d="M45.3568 30.9744L45.5375 32.0922L46.6564 31.9186L45.6492 32.4359L46.16 33.4465L45.3568 32.6484L44.5536 33.4465L45.0644 32.4359L44.0571 31.9186L45.1761 32.0922L45.3568 30.9744Z" fill="#F9E79D"/>
</g>
</g>
<g id="Group 9870">
<path id="Ellipse 286_2" d="M53.0515 23.5038C53.0515 25.617 51.3384 27.3301 49.2252 27.3301C47.112 27.3301 45.3989 25.617 45.3989 23.5038C45.3989 21.3906 47.112 19.6775 49.2252 19.6775C51.3384 19.6775 53.0515 21.3906 53.0515 23.5038Z" fill="#0C0E29"/>
<g id="Mask group_2">
<mask id="mask1_2442_685" style="mask-type:alpha" maskUnits="userSpaceOnUse" x="45" y="20" width="8" height="7">
<path id="Ellipse 284" d="M52.6068 23.5034C52.6068 25.3718 51.0922 26.8864 49.2238 26.8864C47.3554 26.8864 45.8408 25.3718 45.8408 23.5034C45.8408 21.635 47.3554 20.1204 49.2238 20.1204C51.0922 20.1204 52.6068 21.635 52.6068 23.5034Z" fill="#BB6E2A"/>
</mask>
<g mask="url(#mask1_2442_685)">
<path id="Ellipse 285_2" d="M52.6068 23.5034C52.6068 25.3718 51.0922 26.8864 49.2238 26.8864C47.3554 26.8864 45.8408 25.3718 45.8408 23.5034C45.8408 21.635 47.3554 20.1204 49.2238 20.1204C51.0922 20.1204 52.6068 21.635 52.6068 23.5034Z" fill="#F15A2B"/>
<path id="Vector 82" d="M47.9896 24.4643C49.8841 24.2403 51.6332 22.8233 52.2709 22.1429C52.0936 21.5549 51.6293 21.2835 51.4193 21.2213C48.1063 20.428 45.6215 24.7443 47.9896 24.4643Z" fill="#FCB042"/>
<path id="Vector 83" d="M47.5766 25.3581C47.614 24.9941 51.0685 23.7366 52.7911 23.1533C53.1644 25.8831 51.0996 28.2978 49.1281 27.3296C47.1567 26.3614 47.53 25.8131 47.5766 25.3581Z" fill="#FCB042"/>
</g>
</g>
<path id="Vector 84" d="M45.5432 23.2305L45.7199 24.6642C45.3 24.7692 45.0783 25.1891 45.3583 25.4574C45.6383 25.7257 46.8632 26.0174 49.3362 25.3408C51.8093 24.6642 53.0342 23.5443 53.3025 22.996C53.5172 22.5574 52.9891 22.5578 52.7403 22.5928L52.206 21.4328C52.3226 21.3278 52.8499 21.1528 54.0258 21.2928C54.7446 21.3784 56.0906 21.9928 55.134 23.2176C54.1775 24.4425 50.1762 25.8191 49.4879 26.0174C48.7996 26.2157 43.9701 27.4172 43.0485 26.1457C42.3113 25.1285 44.3455 23.7477 45.5432 23.2305Z" fill="#F9E79D"/>
<path id="Vector 84 (Stroke)" fill-rule="evenodd" clip-rule="evenodd" d="M52.695 21.0897C53.007 21.0478 53.4486 21.0399 54.0479 21.1112C54.4309 21.1568 54.9933 21.3423 55.3397 21.7007C55.5176 21.8847 55.6446 22.1214 55.6482 22.4092C55.6518 22.6945 55.5337 23.0018 55.2781 23.3291C55.0167 23.6639 54.5619 23.9939 54.0376 24.3006C53.5085 24.6101 52.8898 24.9064 52.2832 25.169C51.0707 25.6939 49.891 26.0903 49.5389 26.1918C49.1882 26.2928 47.7987 26.6453 46.3776 26.813C45.6677 26.8968 44.9407 26.9356 44.3279 26.8705C43.7279 26.8067 43.1811 26.6377 42.9015 26.252C42.6749 25.9392 42.6657 25.5957 42.7889 25.2689C42.9086 24.9512 43.1535 24.6446 43.4454 24.3677C44.0309 23.8124 44.8585 23.3273 45.4715 23.0626L45.6948 22.9662L45.921 24.8012L45.7646 24.8403C45.6003 24.8814 45.4879 24.9811 45.4414 25.0778C45.3989 25.1661 45.4077 25.2512 45.4849 25.3252C45.5239 25.3627 45.6202 25.4207 45.8002 25.4715C45.9759 25.5212 46.2175 25.5601 46.5315 25.5707C47.1592 25.5918 48.0651 25.4991 49.2887 25.1644C50.5081 24.8307 51.4144 24.3893 52.0456 23.9681C52.6824 23.543 53.0255 23.1479 53.1394 22.9152C53.1737 22.8451 53.1716 22.8143 53.1705 22.8078C53.1676 22.8046 53.1581 22.7965 53.1326 22.787C53.041 22.7532 52.885 22.7559 52.7662 22.7726L52.632 22.7914L51.9849 21.3865L52.0846 21.2967C52.1401 21.2467 52.2215 21.2063 52.3154 21.174C52.4133 21.1403 52.539 21.1106 52.695 21.0897ZM52.4452 21.5148L52.8522 22.3985C52.9772 22.3916 53.1309 22.398 53.2589 22.4452C53.3534 22.4801 53.4619 22.5483 53.5111 22.6777C53.5595 22.8053 53.5314 22.9433 53.4667 23.0754C53.3123 23.391 52.9088 23.83 52.2478 24.2712C51.5812 24.7161 50.6385 25.1729 49.3848 25.5159C48.1353 25.8577 47.1922 25.9575 46.5192 25.9349C46.1829 25.9236 45.9111 25.8816 45.7011 25.8222C45.4955 25.7641 45.3337 25.685 45.2327 25.5883C45.03 25.394 45.0095 25.135 45.1129 24.9199C45.1913 24.7569 45.3377 24.6212 45.5216 24.5398L45.3933 23.4989C44.8421 23.7638 44.1761 24.1769 43.6962 24.6321C43.4219 24.8923 43.2216 25.1539 43.1299 25.3974C43.0416 25.6317 43.0546 25.8422 43.1966 26.0381C43.3778 26.2881 43.7802 26.4458 44.3665 26.5081C44.9399 26.5691 45.6361 26.5336 46.3349 26.4511C47.731 26.2864 49.1004 25.9389 49.438 25.8416C49.7741 25.7448 50.9391 25.3538 52.1385 24.8346C52.7378 24.5752 53.3419 24.2853 53.8536 23.986C54.37 23.684 54.7741 23.3825 54.9909 23.1048C55.2136 22.8197 55.2861 22.5909 55.2838 22.4138C55.2816 22.2392 55.2066 22.0873 55.0777 21.954C54.8106 21.6776 54.3405 21.5131 54.0048 21.4731C53.4282 21.4044 53.0182 21.414 52.7434 21.4509C52.6131 21.4684 52.5151 21.4917 52.4452 21.5148Z" fill="#0C0E29"/>
</g>
<g id="Group 9876">
<g id="Group 9874">
<path id="Union" d="M30.814 19.656C29.3114 19.6502 25.6851 20.4013 21.9541 23.5295C21.3626 23.5108 19.8824 23.7107 18.6935 24.6603C17.5045 25.6099 17.1909 26.8426 17.1827 27.3403L19.1531 26.5993L18.3468 28.076C17.4697 28.7144 15.5906 30.4903 15.2019 32.1251L15.1072 32.2007C15.1329 32.2019 15.1586 32.2027 15.1845 32.2031C15.1792 32.2284 15.1743 32.2537 15.1697 32.279L15.2645 32.2033C16.9446 32.1857 19.0921 30.7457 19.9086 30.0315L21.5271 29.5716L20.3687 31.3295C20.8559 31.4315 22.1275 31.3981 23.3164 30.4486C24.5054 29.499 25.0276 28.0996 25.1401 27.5187C29.0158 24.5716 30.55 21.2011 30.8766 19.7343L30.893 19.6571L30.814 19.656Z" fill="#0C0E29"/>
<g id="Vector_16">
<path d="M27.8406 22.1589L30.109 20.3472C29.4839 20.0778 28.0608 20.5097 27.4275 20.7594C27.3456 21.491 27.6688 21.9972 27.8406 22.1589Z" fill="#F15A2B"/>
<path d="M27.8406 22.1589L30.109 20.3472C30.2335 21.0165 29.4977 22.3088 29.1142 22.8713C28.3826 22.7894 27.9603 22.3623 27.8406 22.1589Z" fill="#F15A2B"/>
</g>
<path id="Union_2" fill-rule="evenodd" clip-rule="evenodd" d="M26.9051 20.9847C26.8475 21.287 26.8448 22.0322 27.2946 22.5953L27.2944 22.5955C27.7442 23.1586 28.4715 23.3207 28.7789 23.3314C28.4971 23.834 27.4016 25.2641 25.274 26.9634C23.1464 28.6626 21.0933 28.4661 20.3328 28.1554L20.3331 28.1551C20.1983 27.3445 20.4607 25.299 22.588 23.5999C24.7156 21.9007 26.3526 21.1485 26.9051 20.9847Z" fill="#F9E79D"/>
<g id="Group 9871">
<path id="Ellipse 287" d="M26.2271 25.4325C25.5359 25.9846 24.5281 25.8717 23.976 25.1806C23.424 24.4894 23.5368 23.4815 24.228 22.9295C24.9192 22.3774 25.927 22.4903 26.479 23.1814C27.0311 23.8726 26.9183 24.8805 26.2271 25.4325Z" fill="#0C0E29"/>
<path id="Ellipse 288" d="M25.9752 25.1199C25.4569 25.5339 24.701 25.4493 24.2869 24.9309C23.8729 24.4125 23.9575 23.6566 24.4759 23.2426C24.9943 22.8286 25.7502 22.9132 26.1642 23.4316C26.5782 23.9499 26.4936 24.7058 25.9752 25.1199Z" fill="#F15A2B"/>
<path id="Ellipse 289" d="M25.7892 24.8852C25.4004 25.1958 24.8335 25.1323 24.5229 24.7435C24.2124 24.3547 24.2759 23.7878 24.6647 23.4773C25.0535 23.1668 25.6204 23.2302 25.9309 23.619C26.2414 24.0078 26.178 24.5747 25.7892 24.8852Z" fill="#F9E79D"/>
<g id="Group 9872">
<path id="Ellipse 289_2" d="M23.518 26.0563C23.3452 26.1943 23.0932 26.1661 22.9552 25.9933C22.8172 25.8205 22.8454 25.5686 23.0182 25.4306C23.191 25.2925 23.4429 25.3207 23.5809 25.4935C23.719 25.6663 23.6908 25.9183 23.518 26.0563Z" fill="#0C0E29"/>
<path id="Ellipse 290" d="M22.5795 26.8058C22.4067 26.9438 22.1547 26.9156 22.0167 26.7428C21.8787 26.57 21.9069 26.3181 22.0797 26.1801C22.2525 26.0421 22.5045 26.0703 22.6425 26.2431C22.7805 26.4159 22.7523 26.6678 22.5795 26.8058Z" fill="#0C0E29"/>
<path id="Ellipse 291" d="M21.64 27.5551C21.4672 27.6931 21.2153 27.6649 21.0773 27.4921C20.9392 27.3193 20.9674 27.0673 21.1402 26.9293C21.313 26.7913 21.565 26.8195 21.703 26.9923C21.841 27.1651 21.8128 27.4171 21.64 27.5551Z" fill="#0C0E29"/>
</g>
</g>
<g id="Group 9873">
<path id="Union_3" d="M18.4717 28.5532L19.5337 29.883C18.0632 31.0574 16.6271 31.457 16.1086 31.5296C16.294 31.0398 17.0012 29.7277 18.4717 28.5532Z" fill="#FCB042"/>
<path id="Union_4" d="M16.2243 31.4359L16.2244 31.4359C17.0628 31.3893 18.209 30.4699 18.6774 30.0159L17.8205 30.161L18.1515 29.3575C17.6052 29.7138 16.4551 30.6285 16.2244 31.4359L16.2243 31.4359Z" fill="#F15A2B"/>
</g>
<path id="Vector 87" d="M19.6043 25.9626C19.8172 25.5876 20.7779 24.5982 21.2316 24.1504C21.078 24.0383 20.5267 23.9576 19.5507 24.5321C18.5747 25.1066 18.0225 26.0943 17.8685 26.5162C18.2626 26.3039 19.1899 26.0587 19.6043 25.9626Z" fill="#F9E79D"/>
<path id="Vector 88" d="M22.2408 29.2589C22.6536 29.1342 23.8309 28.416 24.368 28.0725C24.4434 28.2471 24.4002 28.8026 23.6241 29.6274C22.848 30.4523 21.7628 30.7724 21.3171 30.8294C21.6113 30.4919 22.0555 29.6418 22.2408 29.2589Z" fill="#F9E79D"/>
</g>
</g>
<path id="Vector 103" d="M56.7534 43.4874V44.8222H56.1331V44.1548L55.9422 44.1103C55.5604 43.9679 55.465 43.5764 55.465 43.3984V41.9747C55.465 41.8857 55.5127 41.7077 55.7036 41.7077C55.8563 41.7077 55.9263 41.8857 55.9422 41.9747V43.5764C55.9422 43.7188 56.0694 43.784 56.1331 43.7988V41.3073C56.1331 41.2628 56.1808 40.9958 56.4671 40.9958C56.6962 40.9958 56.7534 41.2035 56.7534 41.3073V43.1315C56.9825 43.0959 57.0716 42.8793 57.0875 42.7755V41.9747C57.0875 41.6632 57.0875 41.4853 57.2784 41.4853C57.4311 41.4853 57.4692 41.6336 57.4692 41.7077V42.731C57.4692 43.2649 56.992 43.4577 56.7534 43.4874Z" fill="#F15A2B"/>
<path id="Vector 104" d="M46.1339 53.6187V55.2077L47.2054 56.2098V54.4132L47.5351 54.3602C48.1945 54.1908 48.3594 53.7246 48.3594 53.5128V51.8179C48.3594 51.7119 48.2769 51.5001 47.9472 51.5001C47.6835 51.5001 47.5626 51.7119 47.5351 51.8179V53.7246C47.5351 53.8941 47.3153 53.9718 47.2054 53.9895V51.0234C47.2054 50.9704 47.123 50.6526 46.6284 50.6526C46.2328 50.6526 46.1339 50.8998 46.1339 51.0234V53.195C45.7382 53.1526 45.5843 52.8948 45.5569 52.7713V51.8179C45.5569 51.4471 45.5569 51.2352 45.2272 51.2352C44.9634 51.2352 44.8975 51.4118 44.8975 51.5001V52.7183C44.8975 53.3539 45.7217 53.5834 46.1339 53.6187Z" fill="#F15A2B"/>
</g>
<g id="Group 9890">
<path id="Subtract" fill-rule="evenodd" clip-rule="evenodd" d="M39.8558 8.4069L37.0006 0L34.1455 8.4069H39.8558ZM38.6491 7.58269L37.0006 2.30778V7.58269H38.6491Z" fill="#F9E79D"/>
<path id="Subtract_2" fill-rule="evenodd" clip-rule="evenodd" d="M39.8558 65.5936L37.0006 74.0005L34.1455 65.5936H39.8558ZM38.6491 66.4178L37.0006 71.6927V66.4178H38.6491Z" fill="#F9E79D"/>
</g>
<path id="Polygon 1" d="M12.6432 12.4986L17.2704 14.1803L14.3248 17.1258L12.6432 12.4986Z" fill="#F9E79D"/>
<path id="Polygon 2" d="M61.5534 61.4115L59.8717 56.7843L56.9262 59.7299L61.5534 61.4115Z" fill="#F9E79D"/>
<path id="Polygon 3" d="M12.6424 61.4115L14.3241 56.7843L17.2696 59.7299L12.6424 61.4115Z" fill="#F9E79D"/>
<path id="Polygon 4" d="M61.5526 12.4986L56.9254 14.1803L59.871 17.1258L61.5526 12.4986Z" fill="#F9E79D"/>
<g id="Group 9891">
<path id="Subtract_3" fill-rule="evenodd" clip-rule="evenodd" d="M8.4069 34.1454L-1.24802e-07 37.0006L8.4069 39.8557L8.4069 34.1454ZM7.58269 35.3522L2.30778 37.0006L7.58269 37.0006L7.58269 35.3522Z" fill="#F9E79D"/>
<path id="Subtract_4" fill-rule="evenodd" clip-rule="evenodd" d="M65.5931 34.1455L74 37.0006L65.5931 39.8557L65.5931 34.1455ZM66.4173 35.3522L71.6922 37.0006L66.4173 37.0006L66.4173 35.3522Z" fill="#F9E79D"/>
</g>
</g>
<defs>
<linearGradient id="paint0_linear_2442_685" x1="37.0615" y1="13.4834" x2="37.0615" y2="36.8056" gradientUnits="userSpaceOnUse">
<stop stop-color="#171E38"/>
<stop offset="1" stop-color="#050618"/>
</linearGradient>
<linearGradient id="paint1_linear_2442_685" x1="37.0615" y1="13.4834" x2="37.0615" y2="42.1807" gradientUnits="userSpaceOnUse">
<stop offset="0.225" stop-color="#0C0E29"/>
<stop offset="0.84" stop-color="#13163F"/>
</linearGradient>
<linearGradient id="paint2_linear_2442_685" x1="37.062" y1="39.7202" x2="37.062" y2="62.3136" gradientUnits="userSpaceOnUse">
<stop stop-color="#FCB042"/>
<stop offset="1" stop-color="#F9E79D"/>
</linearGradient>
<linearGradient id="paint3_linear_2442_685" x1="39.5852" y1="30.7927" x2="39.5852" y2="60.6743" gradientUnits="userSpaceOnUse">
<stop stop-color="#0C0E29"/>
<stop offset="1" stop-color="#0C0E29"/>
</linearGradient>
</defs>
</svg>
