<svg width="77" height="78" viewBox="0 0 77 78" fill="none" xmlns="http://www.w3.org/2000/svg">
<path d="M13.1536 13.2566L17.9683 15.0064L14.9033 18.0713L13.1536 13.2566Z" fill="#212E44"/>
<path d="M64.0481 64.1501L62.2983 59.3354L59.2334 62.4004L64.0481 64.1501Z" fill="#212E44"/>
<path d="M13.1531 64.1501L14.9028 59.3354L17.9678 62.4004L13.1531 64.1501Z" fill="#212E44"/>
<path d="M64.0476 13.2566L59.2329 15.0064L62.2978 18.0713L64.0476 13.2566Z" fill="#212E44"/>
<path d="M9.93331 38.5467C9.93331 22.7359 22.7505 9.91865 38.5614 9.91865C54.3722 9.91865 67.1895 22.7359 67.1895 38.5467C67.1895 54.3576 54.3722 67.1748 38.5614 67.1748C22.7505 67.1748 9.9333 54.3576 9.93331 38.5467Z" fill="#F65A03"/>
<path d="M38.5636 9.91865C33.6272 9.91864 28.7747 11.1951 24.4772 13.6241C20.1797 16.053 16.5834 19.5519 14.0373 23.7811C11.4912 28.0102 10.082 32.8259 9.94637 37.7604C9.81079 42.695 10.9535 47.5807 13.2635 51.9433C15.5735 56.3059 18.9723 59.997 23.1299 62.6583C27.2875 65.3195 32.0627 66.8605 36.9916 67.1316C41.9206 67.4027 46.8359 66.3946 51.2603 64.2053C55.6846 62.016 59.4677 58.7198 62.2422 54.6369L38.5636 38.5467L38.5636 9.91865Z" fill="#FCB042"/>
<path fill-rule="evenodd" clip-rule="evenodd" d="M39.9385 8.54325L39.9385 37.8186L64.1523 54.2725L63.3792 55.4104C60.4714 59.6895 56.5065 63.1441 51.8695 65.4386C47.2325 67.7331 42.081 68.7896 36.9152 68.5055C31.7494 68.2214 26.7448 66.6064 22.3874 63.8172C18.03 61.0281 14.4678 57.1595 12.0468 52.5873C9.62582 48.0151 8.42822 42.8946 8.57032 37.7229C8.71242 32.5512 10.1894 27.5042 12.8578 23.0718C15.5262 18.6395 19.2954 14.9724 23.7994 12.4267C28.3034 9.88104 33.3891 8.54325 38.5628 8.54325L39.9385 8.54325ZM38.5628 38.547L38.5628 9.91894C38.1034 9.91894 37.6447 9.93 37.1871 9.95201C32.7279 10.1665 28.3739 11.4214 24.4763 13.6243C20.1789 16.0533 16.5825 19.5522 14.0364 23.7814C11.4903 28.0105 10.0811 32.8262 9.94549 37.7607C9.8099 42.6953 10.9526 47.581 13.2626 51.9436C15.5726 56.3062 18.9714 59.9973 23.129 62.6586C27.2867 65.3198 32.0618 66.8608 36.9907 67.1319C41.9197 67.403 46.835 66.3949 51.2594 64.2056C55.272 62.22 58.7571 59.3241 61.4408 55.7564C61.7155 55.3912 61.9818 55.0189 62.2395 54.6399C62.2401 54.639 62.2407 54.6381 62.2413 54.6372L38.5628 38.547Z" fill="#212E44"/>
<path d="M38.5625 9.92019C33.5372 9.92018 28.6005 11.243 24.2485 13.7556C19.8964 16.2683 16.2825 19.8822 13.7699 24.2342C11.2572 28.5862 9.93442 33.523 9.93442 38.5483C9.93442 43.5735 11.2572 48.5103 13.7699 52.8623L38.5625 38.5483L38.5625 9.92019Z" fill="#F9E79D"/>
<path fill-rule="evenodd" clip-rule="evenodd" d="M39.9375 8.54321L39.9375 39.3412L13.2656 54.7402L12.5778 53.5489C9.94441 48.9877 8.55805 43.8137 8.55805 38.547C8.55805 33.2802 9.94442 28.1062 12.5778 23.5451C15.2112 18.9839 18.9988 15.1963 23.5599 12.563C28.1211 9.92958 33.2951 8.54321 38.5618 8.54321L39.9375 8.54321ZM38.5618 38.547L13.7692 52.861C13.5395 52.4631 13.3197 52.0604 13.11 51.6531C11.0257 47.6056 9.93374 43.1128 9.93374 38.547C9.93374 33.5217 11.2565 28.585 13.7692 24.2329C16.2818 19.8809 19.8958 16.267 24.2478 13.7543C28.2019 11.4714 32.6388 10.1707 37.1861 9.95197C37.6437 9.92995 38.1024 9.9189 38.5618 9.9189L38.5618 38.547Z" fill="#212E44"/>
<path fill-rule="evenodd" clip-rule="evenodd" d="M38.5629 66.4054C53.9485 66.4054 66.421 53.9329 66.421 38.5473C66.421 23.1616 53.9485 10.6891 38.5629 10.6891C23.1773 10.6891 10.7048 23.1616 10.7048 38.5473C10.7048 53.9329 23.1773 66.4054 38.5629 66.4054ZM38.5629 68.8817C55.3161 68.8817 68.8973 55.3005 68.8973 38.5473C68.8973 21.7941 55.3161 8.21289 38.5629 8.21289C21.8097 8.21289 8.22852 21.7941 8.22852 38.5473C8.22852 55.3005 21.8097 68.8817 38.5629 68.8817Z" fill="#212E44"/>
<path fill-rule="evenodd" clip-rule="evenodd" d="M57.7164 18.5068C57.9526 18.7348 58.1848 18.9669 58.4127 19.2031L57.4578 20.1247C57.2407 19.8998 57.0197 19.6788 56.7948 19.4618L57.7164 18.5068ZM18.7111 19.2031C18.939 18.9669 19.1712 18.7348 19.4073 18.5068L20.329 19.4618C20.1041 19.6788 19.883 19.8998 19.666 20.1247L18.7111 19.2031ZM10.9766 38.3577C10.9766 38.1926 10.978 38.028 10.9809 37.8636L12.3078 37.8869C12.3051 38.0435 12.3037 38.2004 12.3037 38.3577C12.3037 38.5149 12.3051 38.6718 12.3078 38.8284L10.9809 38.8517C10.978 38.6873 10.9766 38.5227 10.9766 38.3577ZM66.1429 37.8636C66.1458 38.028 66.1472 38.1926 66.1472 38.3577C66.1472 38.5227 66.1458 38.6873 66.1429 38.8517L64.816 38.8284C64.8187 38.6718 64.8201 38.5149 64.8201 38.3577C64.8201 38.2004 64.8187 38.0435 64.816 37.8869L66.1429 37.8636ZM19.4073 58.2085C19.1712 57.9805 18.939 57.7484 18.7111 57.5122L19.666 56.5906C19.883 56.8155 20.1041 57.0365 20.329 57.2536L19.4073 58.2085ZM58.4127 57.5122C58.1848 57.7484 57.9526 57.9805 57.7164 58.2085L56.7948 57.2536C57.0197 57.0365 57.2407 56.8155 57.4578 56.5906L58.4127 57.5122ZM38.5619 65.943C38.3969 65.943 38.2322 65.9415 38.0679 65.9387L38.0912 64.6117C38.2477 64.6145 38.4047 64.6159 38.5619 64.6159C38.7191 64.6159 38.876 64.6145 39.0326 64.6117L39.0559 65.9387C38.8916 65.9415 38.7269 65.943 38.5619 65.943Z" fill="#212E44"/>
<path fill-rule="evenodd" clip-rule="evenodd" d="M38.5631 61.2877C51.1216 61.2877 61.3023 51.107 61.3023 38.5485C61.3023 25.9899 51.1216 15.8092 38.5631 15.8092C26.0046 15.8092 15.8239 25.9899 15.8239 38.5485C15.8239 51.107 26.0046 61.2877 38.5631 61.2877ZM38.5631 63.7639C52.4892 63.7639 63.7786 52.4746 63.7786 38.5485C63.7786 24.6224 52.4892 13.333 38.5631 13.333C24.637 13.333 13.3477 24.6224 13.3477 38.5485C13.3477 52.4746 24.637 63.7639 38.5631 63.7639Z" fill="#212E44"/>
<mask id="mask0_1953_20337" style="mask-type:alpha" maskUnits="userSpaceOnUse" x="14" y="14" width="49" height="49">
<path d="M62.8319 38.5468C62.8319 51.9494 51.967 62.8143 38.5644 62.8143C25.1618 62.8143 14.2969 51.9494 14.2969 38.5468C14.2969 25.1442 25.1618 14.2793 38.5644 14.2793C51.967 14.2793 62.8319 25.1442 62.8319 38.5468Z" fill="url(#paint0_linear_1953_20337)"/>
</mask>
<g mask="url(#mask0_1953_20337)">
<path d="M62.8319 38.5468C62.8319 51.9494 51.967 62.8143 38.5644 62.8143C25.1618 62.8143 14.2969 51.9494 14.2969 38.5468C14.2969 25.1442 25.1618 14.2793 38.5644 14.2793C51.967 14.2793 62.8319 25.1442 62.8319 38.5468Z" fill="url(#paint1_linear_1953_20337)"/>
<path d="M32.3418 23.9786L38.5663 29.1292L44.7909 23.9786L39.6403 30.2031L44.7909 36.4277L38.5663 31.2771L32.3418 36.4277L37.4924 30.2031L32.3418 23.9786Z" fill="#F65A03"/>
<path d="M38.5651 15.7959L39.8081 28.9617L52.9739 30.2047L39.8081 31.4477L38.5651 44.6136L37.3221 31.4477L24.1562 30.2047L37.3221 28.9617L38.5651 15.7959Z" fill="#F65A03"/>
<path d="M34.5783 26.2166L38.5648 29.5153L42.5513 26.2166L39.2526 30.2031L42.5513 34.1896L38.5648 30.8909L34.5783 34.1896L37.877 30.2031L34.5783 26.2166Z" fill="#FCB042"/>
<path d="M38.5661 19.1211L39.5223 29.2487L49.6499 30.2048L39.5223 31.161L38.5661 41.2885L37.61 31.161L27.4824 30.2048L37.61 29.2487L38.5661 19.1211Z" fill="#FCB042"/>
<path d="M38.5653 23.7773L39.1198 29.6513L44.9938 30.2059L39.1198 30.7605L38.5653 36.6345L38.0107 30.7605L32.1367 30.2059L38.0107 29.6513L38.5653 23.7773Z" fill="#F9E79D"/>
<path d="M16.5279 36.0772L12.2408 41.5896L38.1223 42.5083L53.3654 43.2433L63.3686 42.5083L65.1152 41.2221L60.5106 34.9748L59.5579 35.8935L54.0005 30.0137L47.4904 38.8334H42.2506C41.7743 38.8334 39.7101 39.2009 38.1223 39.2009C36.5344 39.2009 35.1054 38.8334 34.4703 38.8334C33.9622 38.8334 32.7766 39.6909 32.2473 40.1196L26.69 39.7521L23.1968 36.6285L19.386 39.7521L16.5279 36.0772Z" fill="#FCB042"/>
<path fill-rule="evenodd" clip-rule="evenodd" d="M10.598 42.3562L38.0877 43.332L53.3757 44.0692L63.6664 43.3131L66.2695 41.3961L60.6158 33.7255L59.585 34.7196L53.9224 28.7285L47.0737 38.007H42.2505C42.0709 38.007 41.7972 38.038 41.5289 38.0704C41.3998 38.086 41.268 38.1025 41.1289 38.12C40.9385 38.1438 40.7346 38.1694 40.5059 38.1965C39.7356 38.288 38.8639 38.3745 38.1222 38.3745C37.3882 38.3745 36.6804 38.2894 36.0571 38.1993C35.9399 38.1823 35.8204 38.1642 35.7011 38.1461C35.2416 38.0763 34.785 38.007 34.4702 38.007C34.1561 38.007 33.8506 38.1262 33.6403 38.2222C33.4034 38.3303 33.1568 38.4717 32.9272 38.6161C32.5888 38.8289 32.2529 39.0701 31.9861 39.2742L27.0281 38.9463L23.22 35.5411L19.5176 38.576L16.5278 34.7318L10.598 42.3562ZM19.3859 39.7512L23.1967 36.6275L26.6899 39.7512L32.2473 40.1187C32.7765 39.6899 33.9621 38.8324 34.4702 38.8324C34.7163 38.8324 35.0815 38.8876 35.529 38.9552C36.2365 39.062 37.1495 39.1999 38.1222 39.1999C39.1481 39.1999 40.3729 39.0465 41.2397 38.9379C41.7145 38.8785 42.082 38.8324 42.2505 38.8324H47.4903L54.0004 30.0127L59.5578 35.8925L60.5105 34.9738L65.1152 41.2211L63.3686 42.5073L53.3653 43.2423L38.1222 42.5073L12.2407 41.5886L16.5278 36.0763L19.3859 39.7512Z" fill="#212E44"/>
<path d="M57.3351 41.405L54.0006 29.8291L64.0039 40.1188L57.3351 41.405Z" fill="#F9E79D"/>
<path d="M60.6707 35.1572L65.2754 41.4045L63.2112 42.6907L53.8431 43.242L51.6201 42.8745L56.2248 35.8922L59.4005 39.5671L58.6065 36.9947L60.6707 35.1572Z" fill="#FCB042"/>
<path d="M63.2112 42.6907L60.6707 35.1572L65.2754 41.4045L63.2112 42.6907Z" fill="#DE9C3B"/>
<path d="M53.8421 43.2424L56.2238 35.8926L51.6191 42.8749L53.8421 43.2424Z" fill="#DE9C3B"/>
<path d="M15.259 41.7722L16.5293 36.0762L12.2422 41.5885L15.259 41.7722Z" fill="#DE9C3B"/>
<path d="M19.067 40.8545L16.5265 36.0771L19.3845 39.752L23.1953 36.6284L19.067 40.8545Z" fill="#F9E79D"/>
<path d="M26.691 42.1403L23.1978 36.6279L30.0254 42.1403H26.691Z" fill="#F9E79D"/>
<path d="M6.90234 41.5801H70.2254V65.0892H6.90234V41.5801Z" fill="url(#paint2_linear_1953_20337)"/>
<path d="M54.4138 47.1028C58.711 48.6648 68.1571 60.2644 69.6572 61.8553H7.37695L15.2164 48.1875C19.2813 44.6441 27.9338 37.6438 30.0243 37.991C32.6375 38.4249 37.7186 43.4147 40.7673 44.2825C43.816 45.1503 49.0423 45.1503 54.4138 47.1028Z" fill="#F9E79D"/>
<path d="M42.6094 49.2344C41.4466 49.2344 40.09 49.9492 39.557 50.3066L35.3418 55.9894H65.8658L64.4123 47.7333C62.1351 47.1971 57.3191 46.1678 56.2725 46.3394C54.9644 46.5538 52.6387 47.8405 50.7491 48.591C48.8596 49.3416 44.0629 49.2344 42.6094 49.2344Z" fill="#F65A03"/>
<path d="M53.9791 54.0567C56.3019 54.7509 62.0122 55.503 64.5769 55.7922L66.6094 62.7346H11.5879C15.3141 59.8419 23.1148 53.9265 24.5085 53.4058C26.2506 52.7549 32.2028 47.7651 35.2515 47.5482C38.3002 47.3312 42.6554 50.3685 45.559 50.5855C48.4625 50.8024 51.0756 53.1889 53.9791 54.0567Z" fill="#FCB042"/>
<path d="M17.7239 45.2443V46.6993H17.0784V45.9718L16.8798 45.9233C16.4826 45.7681 16.3833 45.3413 16.3833 45.1473V43.5953C16.3833 43.4983 16.4329 43.3043 16.6315 43.3043C16.7904 43.3043 16.8633 43.4983 16.8798 43.5953V45.3413C16.8798 45.4965 17.0122 45.5676 17.0784 45.5838V42.8678C17.0784 42.8193 17.1281 42.5283 17.426 42.5283C17.6643 42.5283 17.7239 42.7547 17.7239 42.8678V44.8563C17.9623 44.8175 18.055 44.5815 18.0715 44.4683V43.5953C18.0715 43.2558 18.0715 43.0618 18.2701 43.0618C18.429 43.0618 18.4688 43.2235 18.4688 43.3043V44.4198C18.4688 45.0018 17.9722 45.212 17.7239 45.2443Z" fill="#F9E79D"/>
<path d="M28.3391 55.2308C22.2388 56.0144 13.742 51.6391 10.2561 49.3535L6.3345 72.8627H70.6055L60.1478 65.0263C57.8965 63.7202 51.6074 59.9326 44.4613 55.2308C35.5288 49.3535 35.9645 54.2513 28.3391 55.2308Z" fill="#F65A03"/>
<path d="M45.6515 58.9172C46.684 59.229 49.2222 59.5668 50.3623 59.6967L51.2657 62.8145H26.8086C28.4649 61.5154 31.9323 58.8587 32.5518 58.6249C33.3262 58.3326 35.9719 56.0917 37.3271 55.9942C38.6822 55.8968 40.6181 57.2609 41.9088 57.3583C43.1994 57.4557 44.3609 58.5275 45.6515 58.9172Z" fill="#FCB042"/>
<path d="M42.9564 62.5992H43.5657C43.7464 62.5992 43.8784 62.428 43.834 62.2528C43.6777 61.6355 43.4562 60.6897 43.3854 60.1229C43.2777 59.2616 43.7084 58.2926 43.7622 57.7004C43.8006 57.2785 43.5856 56.8822 43.4366 56.6865C43.4046 56.6443 43.3812 56.5961 43.3726 56.5438C43.3284 56.2747 43.2325 55.7582 43.1162 55.3318C42.987 54.8581 42.8471 51.761 42.7932 50.2716C42.7932 50.164 42.9763 49.8841 43.7084 49.6257C44.351 49.3988 44.9301 48.4364 45.2198 47.8162C45.2812 47.6847 45.4304 47.6158 45.5706 47.6533C46.2363 47.8315 47.538 48.0535 48.9301 47.903C50.9219 47.6877 52.7521 46.2881 53.3981 45.5344C54.0441 44.7808 55.5514 42.5198 56.4665 41.2279C57.3817 39.9359 59.212 38.6978 60.0733 38.2671C60.9346 37.8365 61.7959 38.9131 62.0112 38.9131C62.1175 38.9131 62.12 38.7083 62.0894 38.4882C62.0633 38.2997 62.2155 38.1205 62.3978 38.0658C62.5637 38.016 62.7182 37.9157 62.7649 37.7288C62.8218 37.5013 62.647 37.2456 62.4546 37.0517C62.3249 36.9209 62.25 36.6396 62.2033 36.4614C62.156 36.2809 62.0384 36.0267 61.7959 35.6832C61.1499 34.768 59.3735 35.091 59.1043 35.0372C58.8351 34.9834 58.9428 34.445 58.889 34.3374C58.8548 34.269 58.66 34.377 58.5094 34.4783C58.4417 34.5238 58.3588 34.542 58.2794 34.5232C57.9378 34.4425 57.362 34.3055 57.0587 34.2297C56.628 34.1221 56.2512 34.5527 55.8206 34.3374C55.3899 34.1221 55.0131 34.0144 54.7439 34.2297C54.5809 34.3601 54.7161 34.8896 54.8693 35.3182C54.9336 35.4979 54.8053 35.7045 54.6466 35.8103C54.0546 36.2049 53.8035 37.4077 53.6673 37.998C53.5058 38.6978 51.6217 41.2817 50.7604 41.82C49.899 42.3583 48.9301 42.143 47.2613 41.2817C45.5925 40.4204 45.754 39.1823 44.462 37.7826C43.17 36.383 42.3087 37.675 40.1016 35.3602L40.0076 35.2616C37.8758 33.0255 37.2269 32.3448 35.7412 32.2918C34.2339 32.2379 31.0579 35.091 30.1965 35.6293C29.3352 36.1677 27.1281 36.8675 25.1902 37.9441C23.2522 39.0208 22.8216 40.6896 22.3909 41.82C22.0464 42.7244 21.7808 45.4268 21.6911 46.6649C21.6014 48.1004 21.4219 51.0899 21.4219 51.5636C21.4219 52.1558 19.7532 55.3857 19.6456 55.7625C19.5379 56.1393 19.6456 56.4623 20.1301 58.1849C20.4914 59.4697 20.756 61.8523 20.8629 63.0997C20.8752 63.2428 20.9945 63.3528 21.1382 63.3528H21.5775C21.7295 63.3528 21.8527 63.2918 21.8527 63.1399V62.8145V57.8813C21.8527 57.868 21.8535 57.856 21.8555 57.8429C22.0197 56.7205 22.5023 54.1831 23.1446 52.8556C23.9521 51.1868 24.329 51.1868 24.6519 50.7561C24.9748 50.3255 25.1364 49.6257 25.3518 49.3565C25.5227 49.1429 25.7077 47.2517 25.7807 46.3106C25.7819 46.2952 25.7817 46.2805 25.7805 46.2652C25.7493 45.8726 25.8255 45.3588 26.3746 46.2881C27.0744 47.4724 27.0206 49.1412 26.5361 50.3793C26.0516 51.6174 24.1137 53.6631 23.7907 53.9861C23.4677 54.309 23.5754 54.8474 24.329 55.7625C25.0827 56.6776 27.5051 60.9842 27.7743 61.7379C27.8443 61.934 27.8783 62.1051 27.8892 62.2504C27.9066 62.483 28.1284 62.8145 28.3617 62.8145H29.2545C29.462 62.8145 29.5954 62.5945 29.4984 62.411C28.5321 60.5834 26.8973 57.4382 26.6976 56.8391C26.4284 56.0317 26.4822 54.9012 26.6976 54.5244C26.9129 54.1475 29.0662 51.7251 29.5507 51.1868C30.0352 50.6485 30.412 50.81 31.1656 50.3793C31.6838 50.0832 32.1596 48.9441 32.4084 48.1854C32.4642 48.0154 32.6702 47.9179 32.8419 47.9683C33.5118 48.165 34.9412 48.4659 35.7834 48.6331C35.8597 48.6482 35.9251 48.695 35.9721 48.7571C36.1472 48.9888 36.5684 49.4348 37.3025 49.9487C38.0575 50.4772 39.0056 50.2721 39.5302 50.0443C39.647 49.9936 39.7864 50.0143 39.8632 50.1157C40.0896 50.4143 40.3896 50.9291 40.4247 51.4559C40.4678 52.1019 41.1245 55.5651 41.4475 57.216L42.6889 62.3882C42.7186 62.5119 42.8292 62.5992 42.9564 62.5992Z" fill="url(#paint3_linear_1953_20337)"/>
<path d="M40.4779 55.7094L39.7243 51.1875C39.5807 51.9411 39.2505 53.8253 39.0783 55.3326C38.863 57.2167 37.894 59.1008 37.6248 59.4776C37.4095 59.7791 35.5613 61.6488 34.6641 62.546H36.279C36.6379 62.1333 37.431 61.2325 37.7325 60.9311C38.1093 60.5543 38.3785 60.3928 39.1859 59.8006C39.8319 59.3269 40.1011 58.706 40.1549 58.4548L40.4779 55.7094Z" fill="#212E44"/>
<path d="M26.1007 37.7438L25.1651 38.3747C24.9763 38.5986 24.7951 38.8158 24.6214 39.0261C24.5597 39.1007 24.4527 39.3031 24.3006 39.6333C24.3006 39.6843 24.311 39.7198 24.3318 39.7399C24.3612 39.7693 24.3867 39.7664 24.4082 39.7313C24.9121 38.9087 25.8003 38.3855 26.7327 38.1465C26.7439 38.1435 26.7557 38.1436 26.7669 38.1467C26.7781 38.1499 26.7882 38.1559 26.7963 38.1642C26.8044 38.1725 26.8102 38.1828 26.813 38.1941C26.8158 38.2053 26.8156 38.2171 26.8124 38.2283C26.6918 38.6625 26.653 39.0978 26.6961 39.5342C26.6972 39.5461 26.7018 39.5573 26.7093 39.5664C26.7168 39.5756 26.7269 39.5823 26.7382 39.5856C26.7496 39.589 26.7617 39.5889 26.773 39.5853C26.7843 39.5817 26.7943 39.5748 26.8016 39.5655C26.9372 39.39 27.0374 39.2059 27.2139 39.0659C28.0849 38.3769 29.1788 37.9893 30.2727 37.676C30.6036 37.5812 30.6201 37.6203 30.3222 37.7933C29.8226 38.0829 29.4189 38.477 29.0065 38.8797C28.7733 39.1065 28.8027 39.1485 29.0948 39.0056C31.7121 37.7309 34.9313 37.8913 37.5831 39.0315C37.9053 39.17 38.1939 39.2848 38.4487 39.376C39.5397 39.7679 40.3493 39.484 40.8776 38.5244C40.9702 38.3553 41.0078 38.1572 41.08 37.9753C41.0851 37.9623 41.0927 37.9504 41.1024 37.9404C41.1121 37.9304 41.1237 37.9224 41.1365 37.9169C41.1493 37.9114 41.1631 37.9085 41.1771 37.9083C41.191 37.9082 41.2049 37.9108 41.2178 37.9161C41.7697 38.1378 42.0881 38.4849 42.1728 38.9572C42.2036 39.1287 42.2575 39.1366 42.3343 38.9809C42.5051 38.6335 42.6372 38.238 42.7305 37.7944C42.5639 37.5482 42.3375 37.3106 42.0511 37.0817C41.7676 36.8541 41.4661 36.6338 41.1467 36.4206C40.9041 36.2735 40.7423 36.2247 40.6612 36.2742C40.9863 36.6345 41.3258 36.9001 41.6797 37.0709C41.8254 37.1412 41.8175 37.1775 41.656 37.1796C41.0028 37.1875 40.425 37.0357 39.9226 36.7242C39.8702 36.6926 39.844 36.7074 39.844 36.7684C39.844 36.9266 39.8569 37.087 39.8182 37.2432C39.647 37.9257 38.9924 38.1637 38.3399 38.2014C38.1985 38.2093 38.0675 38.1823 37.947 38.1206C36.9385 37.5967 35.9415 37.25 34.9561 37.0806C34.0237 36.9202 32.8545 36.8674 31.9027 37.1054C31.813 37.1506 31.7204 37.1721 31.6249 37.1699C31.6128 37.1697 31.6009 37.1662 31.5906 37.1597C31.5803 37.1533 31.5719 37.1442 31.5662 37.1334C31.5606 37.1227 31.558 37.1106 31.5587 37.0984C31.5594 37.0863 31.5633 37.0745 31.57 37.0644C31.8837 36.6015 32.3244 36.1985 32.8921 35.8554C33.3996 35.5489 33.8769 35.3784 34.3241 35.344C34.9019 35.3002 35.4413 35.401 35.9423 35.6465C36.2186 35.7822 36.29 35.967 36.1565 36.201C36.1213 36.2627 36.0682 36.3237 35.9972 36.384C35.9275 36.4429 35.8787 36.506 35.8507 36.5735L35.9896 36.623C36.0089 36.63 36.0297 36.6323 36.0503 36.6297C36.0709 36.6271 36.0907 36.6196 36.1081 36.6079C36.5086 36.3359 36.7985 36.0301 36.978 35.6906C37.4958 34.7098 35.6817 34.3427 35.1272 34.2436C34.9736 34.2164 34.8204 34.2314 34.6675 34.2889C33.4007 34.7676 32.2034 35.3971 31.0758 36.1773C30.6635 36.4626 30.3114 36.7737 29.8334 36.9309C29.1508 37.1538 28.5436 37.5242 27.9224 37.9053C27.6066 38.0984 27.5692 38.0546 27.8104 37.7739C28.0839 37.4553 28.4277 37.1671 28.8418 36.9094C28.8662 36.8943 28.8763 36.8728 28.872 36.8448C28.8698 36.834 28.8637 36.8251 28.8537 36.8179C28.8436 36.81 28.8325 36.8071 28.8203 36.8093C27.9827 36.9212 27.2602 37.1434 26.653 37.4757C26.3874 37.6207 26.2033 37.7101 26.1007 37.7438Z" fill="#F9E79D"/>
<path d="M57.6248 35.0694C57.6204 35.065 57.6144 35.0625 57.6081 35.0625C57.6018 35.0625 57.5959 35.065 57.5914 35.0694L57.5774 35.0834C57.4423 35.2171 57.3169 35.3496 57.2289 35.4518C57.1409 35.5539 57.0974 35.6174 57.108 35.6282L57.136 35.6572C57.1412 35.6627 57.1595 35.655 57.19 35.6346C57.2204 35.6142 57.2624 35.5815 57.3135 35.5384C57.3646 35.4953 57.4239 35.4426 57.4878 35.3834C57.5517 35.3241 57.6191 35.2595 57.6862 35.1932L57.7002 35.1792C57.7046 35.1748 57.707 35.1688 57.707 35.1625C57.707 35.1563 57.7046 35.1503 57.7002 35.1458L57.6248 35.0694Z" fill="#FCB042"/>
<path d="M31.9017 37.1053C31.8722 37.1082 31.8468 37.1067 31.8252 37.101C31.7836 37.0902 31.7797 37.0712 31.8134 37.0439C31.9512 36.9313 32.0671 36.8566 32.1611 36.82C33.3648 36.3535 34.5943 36.2713 35.8497 36.5734C35.8777 36.506 35.9265 36.4428 35.9961 36.384C36.0672 36.3237 36.1203 36.2627 36.1555 36.2009C36.289 35.9669 36.2176 35.7821 35.9412 35.6465C35.4402 35.401 34.9008 35.3001 34.323 35.3439C33.8759 35.3784 33.3986 35.5488 32.8911 35.8553C32.3234 36.1984 31.8827 36.6014 31.569 37.0644C31.5622 37.0745 31.5583 37.0862 31.5576 37.0984C31.557 37.1105 31.5596 37.1226 31.5652 37.1334C31.5708 37.1442 31.5792 37.1533 31.5896 37.1597C31.5999 37.1661 31.6117 37.1696 31.6239 37.1699C31.7194 37.1721 31.812 37.1505 31.9017 37.1053Z" fill="#FCB042"/>
<path d="M57.6146 35.7391C57.6792 35.6968 57.7395 35.6494 57.7954 35.597C57.8277 35.5669 57.8654 35.5468 57.9085 35.5367C57.9724 35.5224 58.0162 35.4847 58.0398 35.4237C58.0428 35.4158 58.0437 35.4073 58.0423 35.399C58.041 35.3907 58.0374 35.3829 58.032 35.3765C58.0267 35.37 58.0197 35.3651 58.0118 35.3622C58.0039 35.3594 57.9954 35.3586 57.9871 35.3601C57.8504 35.3828 57.7125 35.3903 57.6092 35.4969C57.4463 35.6656 57.3544 35.8421 57.3336 36.0266C57.3178 36.1651 57.3404 36.1719 57.4014 36.047C57.4563 35.9361 57.5058 35.8102 57.6146 35.7391Z" fill="#FCB042"/>
<path d="M59.3593 35.8921C59.4842 35.7507 59.655 35.6488 59.8718 35.5863C60.0541 35.5648 60.1887 35.5332 60.2755 35.4916C60.3272 35.4672 60.3247 35.4496 60.268 35.4388C59.9569 35.3807 59.4099 35.3053 59.1569 35.5034C58.9545 35.6617 58.9007 36.1128 58.8899 36.3464C58.887 36.4125 58.9017 36.4168 58.934 36.3594C59.0266 36.1957 59.1684 36.04 59.3593 35.8921Z" fill="#FCB042"/>
<path d="M59.8738 35.5869C59.6571 35.6494 59.4862 35.7513 59.3614 35.8927C59.2042 36.4016 59.2756 36.801 59.5756 37.091C59.6108 37.1254 59.6477 37.1276 59.6865 37.0974C59.9298 36.909 60.1344 36.7303 60.4692 36.7917C60.6135 36.8189 60.6504 36.768 60.5801 36.6388L60.4391 36.3804C60.4175 36.3424 60.4143 36.3025 60.4294 36.2609C60.4581 36.1819 60.5083 36.1148 60.5801 36.0596C60.6619 35.9957 60.6519 35.9523 60.55 35.9293C60.3145 35.8776 60.0892 35.7635 59.8738 35.5869Z" fill="#F65A03"/>
<path d="M56.2115 37.9935C56.2144 37.575 56.3554 37.2079 56.6347 36.8921C56.6418 36.8841 56.6509 36.8782 56.6612 36.8751C56.6714 36.872 56.6823 36.8718 56.6926 36.8744C56.703 36.8771 56.7124 36.8826 56.7198 36.8902C56.7272 36.8979 56.7324 36.9075 56.7348 36.9179C56.7829 37.1246 56.8895 37.2732 57.0545 37.3636C57.112 37.3952 57.1299 37.3801 57.1084 37.3184C57.0406 37.1279 56.9469 36.9825 56.934 36.7715C56.916 36.4578 56.9541 36.1653 57.0481 35.894C56.878 35.9026 56.7692 36.0232 56.7219 36.2558C56.7168 36.278 56.7061 36.296 56.6896 36.3096C56.6817 36.3161 56.6709 36.3168 56.6573 36.3118C56.6501 36.3089 56.6458 36.3035 56.6443 36.2956L56.5787 35.8305C56.5751 35.8047 56.56 35.7907 56.5335 35.7885L56.4839 35.7864C56.4552 35.7842 56.4423 35.7975 56.4452 35.8262C56.4732 36.0695 56.2266 36.2784 56.0393 36.4011C56.007 36.4219 55.9854 36.4506 55.9747 36.4872C55.9381 36.6086 55.9234 36.736 55.9305 36.8695C55.931 36.881 55.9283 36.8925 55.9229 36.9027C55.9174 36.9129 55.9092 36.9214 55.8994 36.9272C55.8895 36.9331 55.8783 36.9362 55.8669 36.936C55.8555 36.9359 55.8444 36.9326 55.8347 36.9265C55.6596 36.8174 55.5358 36.6667 55.4633 36.4743C55.4109 36.3344 55.3664 36.3369 55.3298 36.4819C55.1554 37.158 55.6086 37.7458 56.2115 37.9935Z" fill="#FCB042"/>
<path d="M57.0494 35.8936C56.9553 36.1649 56.9173 36.4574 56.9352 36.771C56.9481 36.982 57.0418 37.1274 57.1096 37.3179C57.1312 37.3797 57.1132 37.3947 57.0558 37.3632C56.8907 37.2727 56.7841 37.1242 56.736 36.9174C56.7337 36.907 56.7285 36.8974 56.7211 36.8898C56.7136 36.8821 56.7042 36.8766 56.6939 36.874C56.6835 36.8713 56.6726 36.8715 56.6624 36.8746C56.6522 36.8778 56.643 36.8836 56.6359 36.8916C56.3567 37.2074 56.2157 37.5745 56.2128 37.993C56.5035 38.3684 56.8566 38.4531 57.2722 38.2471C57.4283 38.1696 57.5295 38.035 57.6867 37.965C57.7248 37.9485 57.7642 37.9438 57.8052 37.951C57.9623 37.9797 58.1278 37.9934 58.3015 37.9919C58.4374 37.9905 58.5712 37.9579 58.6926 37.8965C58.8139 37.835 58.9196 37.7465 59.0013 37.6377C59.081 37.5308 59.1563 37.4109 59.2274 37.2781C59.3257 37.0936 59.273 37.0237 59.0691 37.0682C58.6026 37.1701 58.1504 37.0535 57.7126 36.7183C57.6566 36.6752 57.5934 36.6544 57.5231 36.6558C57.4764 36.6565 57.4671 36.6759 57.4951 36.714L57.7912 37.108C57.812 37.1353 57.8073 37.1575 57.7772 37.1748C57.752 37.1898 57.7266 37.1902 57.7007 37.1758C57.2514 36.9282 57.0343 36.5008 57.0494 35.8936Z" fill="#F65A03"/>
<path d="M24.2984 39.6336C24.2432 39.8432 24.1804 39.9735 24.11 40.0244C23.848 40.2146 23.6137 40.4195 23.407 40.6392C23.4335 40.8165 23.4414 40.9891 23.4307 41.157C23.4149 41.3939 23.4149 41.5637 23.4307 41.6663C23.5369 42.3647 23.7698 43.0053 24.1294 43.5881C24.1363 43.5992 24.1462 43.6082 24.158 43.6138C24.1698 43.6194 24.183 43.6215 24.196 43.6198C24.209 43.6181 24.2212 43.6126 24.2311 43.6042C24.2411 43.5957 24.2484 43.5845 24.2521 43.5719C24.3232 43.3394 24.4201 43.1076 24.5428 42.8764C25.0611 41.9024 25.7914 41.1072 26.7338 40.4906C26.8501 40.4073 26.9545 40.3266 27.0471 40.2484C27.2459 40.0804 27.2847 40.1113 27.1634 40.341C27.1196 40.4242 27.0708 40.5362 27.0169 40.6769C26.9595 41.0523 26.9466 41.4075 26.9782 41.7427C27.0083 42.07 27.1052 42.3747 27.2689 42.6568C28.3893 44.5933 30.0681 45.5716 32.3054 45.5917C32.6962 45.595 33.0849 45.539 33.4779 45.5196C33.4929 45.5189 33.5005 45.511 33.5005 45.4959V45.469C33.5005 45.4654 33.4987 45.4636 33.4951 45.4636C32.8907 45.465 32.2896 45.2824 31.6917 44.9156C31.6788 44.907 31.6741 44.8926 31.6777 44.8725C31.6793 44.8646 31.6837 44.8575 31.6901 44.8527C31.6965 44.8479 31.7044 44.8458 31.7122 44.8467C32.9051 44.9816 33.9649 44.7257 34.8915 44.079C35.5698 43.6053 36.1303 43.0347 36.5732 42.3672C36.8065 42.0155 37.0746 41.5701 37.3774 41.0311C37.3358 40.9485 37.31 40.8667 37.2999 40.7856C37.2927 40.7282 37.3107 40.7189 37.3538 40.7576C37.8953 41.2496 38.6167 41.761 39.3542 41.3465C39.9592 41.0063 40.5273 40.665 41.0585 40.3226C41.2645 40.1899 41.2968 40.2236 41.1554 40.4239L40.602 41.2033C40.5675 41.5034 40.5403 41.7941 40.5202 42.0754C40.4965 42.3998 40.5047 42.6959 40.5449 42.9636C40.6382 43.5802 40.7979 44.1551 41.024 44.6884C41.0311 44.7051 41.0416 44.7202 41.0549 44.7325C41.0682 44.7449 41.0839 44.7544 41.1011 44.7603C41.1182 44.7661 41.1364 44.7684 41.1545 44.7667C41.1726 44.7651 41.1901 44.7597 41.206 44.7509C41.8914 44.369 42.4394 43.8454 42.85 43.18C43.2685 42.5018 43.5089 41.7291 43.5714 40.862C43.7321 39.7093 43.4511 38.6869 42.7283 37.7947C42.635 38.2383 42.503 38.6338 42.3321 38.9812C42.2553 39.1369 42.2015 39.129 42.1706 38.9575C42.0859 38.4852 41.7676 38.1381 41.2157 37.9164C41.2027 37.9111 41.1889 37.9085 41.1749 37.9087C41.161 37.9088 41.1472 37.9117 41.1344 37.9172C41.1216 37.9227 41.11 37.9307 41.1003 37.9407C41.0906 37.9507 41.083 37.9626 41.0779 37.9756C41.0057 38.1575 40.968 38.3556 40.8754 38.5247C40.3472 39.4843 39.5375 39.7682 38.4465 39.3763C38.1917 39.2851 37.9032 39.1703 37.5809 39.0318C34.9292 37.8916 31.71 37.7312 29.0927 39.0059C28.8006 39.1488 28.7711 39.1068 29.0044 38.88C29.4168 38.4773 29.8205 38.0832 30.3201 37.7936C30.6179 37.6206 30.6014 37.5815 30.2705 37.6763C29.1767 37.9896 28.0828 38.3772 27.2118 39.0662C27.0352 39.2062 26.9351 39.3903 26.7995 39.5658C26.7921 39.5751 26.7822 39.582 26.7709 39.5856C26.7596 39.5892 26.7475 39.5893 26.7361 39.5859C26.7248 39.5826 26.7147 39.5759 26.7071 39.5667C26.6996 39.5576 26.695 39.5464 26.694 39.5345C26.6509 39.0982 26.6896 38.6628 26.8102 38.2286C26.8135 38.2174 26.8137 38.2056 26.8109 38.1944C26.8081 38.1831 26.8023 38.1728 26.7942 38.1645C26.7861 38.1562 26.776 38.1502 26.7648 38.147C26.7536 38.1439 26.7418 38.1438 26.7306 38.1468C25.7982 38.3858 24.91 38.909 24.4061 39.7316C24.3846 39.7667 24.3591 39.7696 24.3297 39.7402C24.3088 39.7201 24.2984 39.6846 24.2984 39.6336Z" fill="#FCB042"/>
<path d="M53.8851 38.9044C53.8392 39.2159 53.6924 39.5694 53.4448 39.9649C52.7697 41.0415 51.9547 42.0396 50.8781 42.621C49.6966 43.2583 48.377 43.3168 46.9193 42.7964C47.0341 43.024 47.2042 43.2544 47.4296 43.4876C47.7174 43.7855 47.8843 44.1964 47.9302 44.7204C48.8999 44.9041 49.8273 44.7671 50.7123 44.3091C50.7273 44.3012 50.7374 44.289 50.7424 44.2725C50.7444 44.2659 50.7447 44.2589 50.7431 44.2522C50.7415 44.2455 50.7382 44.2393 50.7334 44.2342C50.7287 44.2291 50.7226 44.2253 50.7159 44.2231C50.7092 44.221 50.702 44.2206 50.695 44.2219C50.2461 44.3177 49.8283 44.2305 49.3869 44.1595C49.1723 44.1243 48.9782 44.0794 48.8045 44.0249C48.793 44.0213 48.7847 44.0138 48.7797 44.0023C48.7754 43.993 48.7765 43.9822 48.7829 43.97C48.788 43.9585 48.7969 43.9528 48.8098 43.9528C49.4472 43.952 50.0846 43.8612 50.722 43.6804C51.8496 43.3602 52.7417 42.734 53.3985 41.8016C53.5201 41.5411 53.7236 41.2784 53.8281 41.0867C54.2573 40.2958 54.4245 39.4427 54.3298 38.5276C54.3262 38.491 54.3082 38.4813 54.2759 38.4985C54.0534 38.6177 53.9232 38.7529 53.8851 38.9044Z" fill="#FCB042"/>
<path d="M53.8828 38.9043C53.6294 39.19 53.4019 39.4444 53.2002 39.6676C53.0344 39.8507 52.832 39.9842 52.593 40.0681C52.2492 40.7507 51.7855 41.3343 51.202 41.8188C51.08 41.9192 50.9188 42.0201 50.7186 42.1213C50.5456 42.2081 50.3773 42.2993 50.2136 42.3948C49.6882 42.7185 49.1381 42.8469 48.5631 42.7802C47.971 42.7113 47.4158 42.5502 46.8976 42.2968C46.8794 42.2876 46.859 42.2837 46.8387 42.2854C46.8183 42.287 46.7989 42.2943 46.7824 42.3063C46.766 42.3183 46.7531 42.3346 46.7453 42.3535C46.7375 42.3723 46.7351 42.3929 46.7382 42.4131C46.7741 42.6492 46.8337 42.777 46.917 42.7963C48.3747 43.3167 49.6943 43.2582 50.8758 42.6209C51.9524 42.0395 52.7674 41.0414 53.4425 39.9648C53.6901 39.5693 53.8369 39.2158 53.8828 38.9043Z" fill="#F9E79D"/>
<path d="M43.5718 40.8616C43.5093 41.7287 43.2689 42.5013 42.8504 43.1796C42.4398 43.845 41.8918 44.3686 41.2064 44.7504C41.1905 44.7593 41.173 44.7647 41.1549 44.7663C41.1368 44.7679 41.1186 44.7657 41.1015 44.7598C41.0843 44.7539 41.0686 44.7445 41.0553 44.7321C41.042 44.7197 41.0315 44.7047 41.0244 44.688C40.7983 44.1547 40.6386 43.5798 40.5453 42.9632C40.5051 42.6955 40.4969 42.3994 40.5206 42.075C40.5407 41.7936 40.5679 41.5029 40.6024 41.2029C40.2772 41.5984 40.0554 42.0316 39.937 42.5024C39.7382 43.2912 39.721 44.1041 39.8853 44.941C40.0325 45.6946 40.1925 46.4408 40.3655 47.1793C40.3676 47.1885 40.3721 47.1969 40.3786 47.2037C40.385 47.2105 40.3931 47.2155 40.4021 47.2181C40.4111 47.2207 40.4206 47.2209 40.4297 47.2186C40.4388 47.2164 40.4471 47.2117 40.4538 47.2052C41.117 46.5563 41.8276 45.9724 42.5855 45.4535C42.7607 45.3336 42.9039 45.1883 43.0151 45.0174C43.9453 43.5984 44.1574 41.8327 43.9798 40.151C43.9705 40.0635 43.9525 40.0617 43.926 40.1456C43.8915 40.2555 43.865 40.3721 43.8463 40.4956C43.8054 40.769 43.7139 40.891 43.5718 40.8616Z" fill="#F65A03"/>
<path d="M26.7344 40.4902C25.792 41.1068 25.0616 41.9021 24.5434 42.8761C24.4207 43.1072 24.3238 43.339 24.2527 43.5716C24.249 43.5841 24.2417 43.5953 24.2317 43.6038C24.2218 43.6123 24.2096 43.6177 24.1966 43.6194C24.1836 43.6211 24.1704 43.619 24.1586 43.6134C24.1468 43.6078 24.1368 43.5989 24.13 43.5877C23.7704 43.0049 23.5375 42.3643 23.4312 41.6659C23.4155 41.5633 23.4155 41.3935 23.4312 41.1567C23.442 40.9887 23.4341 40.8161 23.4076 40.6388L22.6388 41.5744L22.4752 42.2484C22.5348 42.3769 22.5631 42.5642 22.5602 42.8104C22.5401 44.3363 22.3141 45.7676 21.882 47.104L21.5288 49.8279C21.8633 49.6119 22.0933 49.2921 22.2189 48.8686C22.3008 48.5916 22.3801 48.3009 22.4569 47.9966C22.6475 47.2365 23.0049 46.6658 23.6573 46.2621C23.7449 46.2083 23.7725 46.2302 23.7402 46.3278C23.5766 46.8216 23.4452 47.3208 23.3462 47.8254C23.2952 48.0881 23.2841 48.3554 23.3128 48.6275C23.3159 48.6576 23.3265 48.6865 23.3435 48.7116C23.3606 48.7367 23.3836 48.7571 23.4106 48.7712C23.4375 48.7852 23.4675 48.7925 23.498 48.7922C23.5285 48.7919 23.5584 48.7841 23.5852 48.7696C23.7306 48.691 23.8253 48.6146 23.9437 48.4972C24.4907 47.9539 24.8571 47.1615 25.043 46.12C25.1169 45.7058 25.2533 44.8 25.4521 43.4025C25.5956 42.3919 26.0231 41.4212 26.7344 40.4902Z" fill="#F65A03"/>
<path d="M27.0152 40.6768C26.7547 41.0091 26.6344 41.3708 26.6545 41.762C26.7084 42.8085 26.9919 43.8109 27.5051 44.7691C28.3642 46.3733 29.8984 47.4359 31.6394 48.0668C31.9372 48.1745 31.9541 48.1407 31.69 47.9656C31.1603 47.6146 30.7382 47.2525 30.4238 46.8793C30.22 46.6388 30.2666 46.5717 30.5638 46.6779C33.0411 47.5694 35.4582 47.1129 37.1797 45.0619C37.3176 44.8975 37.2867 44.8541 37.0872 44.9316C36.8201 45.0357 36.542 45.0967 36.2528 45.1147C35.9843 45.1312 35.9667 45.0723 36.2 44.9381C37.1259 44.4019 37.6449 43.6074 37.6868 42.5598C37.7077 42.0387 37.6039 41.5291 37.3757 41.031C37.0728 41.57 36.8047 42.0154 36.5714 42.3671C36.1286 43.0346 35.568 43.6052 34.8897 44.0789C33.9631 44.7256 32.9033 44.9815 31.7104 44.8466C31.7026 44.8457 31.6948 44.8478 31.6884 44.8526C31.682 44.8574 31.6776 44.8645 31.676 44.8724C31.6724 44.8925 31.677 44.9069 31.69 44.9155C32.2879 45.2823 32.889 45.4649 33.4933 45.4635C33.4969 45.4635 33.4987 45.4653 33.4987 45.4689V45.4958C33.4987 45.5109 33.4912 45.5188 33.4761 45.5195C33.0831 45.5389 32.6945 45.5948 32.3036 45.5916C30.0664 45.5715 28.3876 44.5932 27.2671 42.6567C27.1035 42.3746 27.0066 42.0699 26.9764 41.7426C26.9449 41.4074 26.9578 41.0521 27.0152 40.6768Z" fill="#F65A03"/>
<path d="M53.3972 41.8007C52.7404 42.7331 51.8482 43.3593 50.7206 43.6794C50.0833 43.8603 49.4459 43.9511 48.8085 43.9518C48.7956 43.9518 48.7866 43.9576 48.7816 43.9691C48.7752 43.9813 48.7741 43.992 48.7784 44.0014C48.7834 44.0128 48.7917 44.0204 48.8032 44.024C48.9769 44.0785 49.171 44.1234 49.3856 44.1585C49.827 44.2296 50.2448 44.3168 50.6937 44.221C50.7007 44.2196 50.7079 44.22 50.7146 44.2222C50.7213 44.2243 50.7274 44.2281 50.7321 44.2332C50.7369 44.2383 50.7402 44.2445 50.7418 44.2513C50.7434 44.258 50.7431 44.265 50.7411 44.2716C50.7361 44.2881 50.726 44.3003 50.711 44.3082C49.826 44.7661 48.8986 44.9032 47.9289 44.7195C47.8787 45.3525 47.86 45.7828 47.8729 46.0104C47.9103 46.6657 48.277 46.9359 48.9733 46.8211C49.1965 46.7845 49.4416 46.6897 49.7086 46.5368C50.6424 46.0007 51.5109 45.3166 52.3141 44.4848C53.2066 43.5589 54.0227 42.353 54.2811 41.1386C54.2998 41.0496 54.275 41.0349 54.2068 41.0944L53.3972 41.8007Z" fill="#F65A03"/>
</g>
<path d="M43.2097 19.207L43.4729 20.8354L45.1029 20.5826L43.6357 21.3361L44.3798 22.8082L43.2097 21.6456L42.0396 22.8082L42.7837 21.3361L41.3164 20.5826L42.9464 20.8354L43.2097 19.207Z" fill="#F65A03"/>
<path d="M43.2098 19.7764L43.3978 20.9395L44.5621 20.7589L43.514 21.2972L44.0455 22.3487L43.2098 21.5182L42.374 22.3487L42.9055 21.2972L41.8574 20.7589L43.0217 20.9395L43.2098 19.7764Z" fill="#F9E79D"/>
<path d="M29.5593 31.9111L29.8226 33.5395L31.4525 33.2867L29.9853 34.0402L30.7294 35.5123L29.5593 34.3497L28.3892 35.5123L29.1333 34.0402L27.666 33.2867L29.296 33.5395L29.5593 31.9111Z" fill="#F65A03"/>
<path d="M29.5594 32.4805L29.7474 33.6436L30.9117 33.463L29.8636 34.0013L30.3951 35.0528L29.5594 34.2223L28.7236 35.0528L29.2551 34.0013L28.207 33.463L29.3713 33.6436L29.5594 32.4805Z" fill="#F9E79D"/>
<path d="M34.1042 19.207L34.3675 20.8354L35.9975 20.5826L34.5302 21.3361L35.2743 22.8082L34.1042 21.6456L32.9341 22.8082L33.6782 21.3361L32.2109 20.5826L33.8409 20.8354L34.1042 19.207Z" fill="#F65A03"/>
<path d="M34.1043 19.7764L34.2923 20.9395L35.4566 20.7589L34.4086 21.2972L34.9401 22.3487L34.1043 21.5182L33.2685 22.3487L33.8 21.2972L32.752 20.7589L33.9162 20.9395L34.1043 19.7764Z" fill="#F9E79D"/>
<path d="M47.1882 31.9111L47.4515 33.5395L49.0814 33.2867L47.6142 34.0402L48.3583 35.5123L47.1882 34.3497L46.0181 35.5123L46.7622 34.0402L45.2949 33.2867L46.9249 33.5395L47.1882 31.9111Z" fill="#F65A03"/>
<path d="M47.1883 32.4805L47.3763 33.6436L48.5406 33.463L47.4925 34.0013L48.0241 35.0528L47.1883 34.2223L46.3525 35.0528L46.884 34.0013L45.8359 33.463L47.0002 33.6436L47.1883 32.4805Z" fill="#F9E79D"/>
<path d="M55.2011 24.708C55.2011 26.9068 53.4185 28.6893 51.2197 28.6893C49.0208 28.6893 47.2383 26.9068 47.2383 24.708C47.2383 22.5091 49.0208 20.7266 51.2197 20.7266C53.4185 20.7266 55.2011 22.5091 55.2011 24.708Z" fill="#212E44"/>
<mask id="mask1_1953_20337" style="mask-type:alpha" maskUnits="userSpaceOnUse" x="47" y="21" width="8" height="8">
<path d="M54.7414 24.7076C54.7414 26.6517 53.1654 28.2278 51.2213 28.2278C49.2772 28.2278 47.7012 26.6517 47.7012 24.7076C47.7012 22.7635 49.2772 21.1875 51.2213 21.1875C53.1654 21.1875 54.7414 22.7635 54.7414 24.7076Z" fill="#BB6E2A"/>
</mask>
<g mask="url(#mask1_1953_20337)">
<path d="M54.7414 24.7076C54.7414 26.6517 53.1654 28.2278 51.2213 28.2278C49.2772 28.2278 47.7012 26.6517 47.7012 24.7076C47.7012 22.7635 49.2772 21.1875 51.2213 21.1875C53.1654 21.1875 54.7414 22.7635 54.7414 24.7076Z" fill="#F65A03"/>
<path d="M49.9392 25.7074C51.9105 25.4743 53.7304 23.9999 54.394 23.2918C54.2095 22.6801 53.7264 22.3976 53.5079 22.3329C50.0606 21.5075 47.4751 25.9987 49.9392 25.7074Z" fill="#FCB042"/>
<path d="M49.5096 26.6389C49.5485 26.2602 53.1431 24.9516 54.9355 24.3447C55.3239 27.1851 53.1754 29.6978 51.124 28.6903C49.0727 27.6828 49.4611 27.1123 49.5096 26.6389Z" fill="#FCB042"/>
</g>
<path d="M47.3899 24.424L47.5738 25.9157C47.1369 26.025 46.9062 26.4619 47.1975 26.7411C47.4889 27.0203 48.7634 27.3238 51.3367 26.6197C53.91 25.9157 55.1846 24.7504 55.4638 24.1799C55.6871 23.7235 55.1377 23.724 54.8787 23.7604L54.3228 22.5534C54.4441 22.4441 54.9928 22.2621 56.2163 22.4077C56.9643 22.4968 58.3648 23.136 57.3695 24.4106C56.3741 25.6851 52.2107 27.1174 51.4945 27.3238C50.7783 27.5301 45.7531 28.7804 44.7941 27.4573C44.027 26.3988 46.1437 24.9621 47.3899 24.424Z" fill="#F9E79D"/>
<path fill-rule="evenodd" clip-rule="evenodd" d="M54.8193 22.111C55.1527 22.0663 55.6196 22.0584 56.2485 22.1333C56.6583 22.1821 57.2651 22.3799 57.6442 22.7721C57.8407 22.9755 57.9851 23.2417 57.9892 23.5678C57.9932 23.8899 57.8597 24.2282 57.586 24.5787C57.3035 24.9404 56.8184 25.2904 56.2709 25.6107C55.7163 25.9351 55.0691 26.245 54.4363 26.519C53.1715 27.0665 51.9406 27.4802 51.5704 27.5869C51.2024 27.693 49.7518 28.0609 48.2673 28.2361C47.526 28.3236 46.7623 28.3648 46.1155 28.296C45.4879 28.2293 44.885 28.0507 44.571 27.6175C44.3153 27.2647 44.3067 26.876 44.443 26.5142C44.5742 26.1663 44.8395 25.8367 45.1473 25.5447C45.7657 24.9581 46.6361 24.4484 47.2805 24.1701L47.6177 24.0245L47.8763 26.1224L47.6402 26.1814C47.4907 26.2188 47.3962 26.3078 47.3602 26.3827C47.3429 26.4186 47.3406 26.447 47.3436 26.467C47.3464 26.485 47.3555 26.5105 47.3876 26.5412C47.4137 26.5663 47.4985 26.6217 47.6798 26.6729C47.8545 26.7223 48.0988 26.7621 48.4203 26.7729C49.0629 26.7945 49.9967 26.6998 51.2638 26.3531C52.5246 26.0082 53.4591 25.5524 54.1075 25.1197C54.7644 24.6812 55.1074 24.2804 55.2163 24.0578C55.2207 24.0488 55.2243 24.0408 55.2272 24.0337C55.1966 24.0266 55.1551 24.0214 55.104 24.0202C55.0373 24.0187 54.9696 24.0242 54.9167 24.0316L54.7141 24.0601L53.9877 22.4832L54.1384 22.3476C54.2085 22.2845 54.3056 22.2379 54.4079 22.2027C54.5162 22.1654 54.6527 22.1334 54.8193 22.111ZM54.6903 22.6933L55.0481 23.47C55.174 23.4675 55.3199 23.479 55.4471 23.526C55.5579 23.567 55.6966 23.6511 55.7599 23.8178C55.8222 23.9818 55.783 24.1516 55.7106 24.2996C55.5403 24.6475 55.1064 25.1146 54.4129 25.5774C53.7109 26.0459 52.7215 26.5248 51.409 26.8839C50.1028 27.2413 49.1126 27.3468 48.4018 27.3229C48.0465 27.3109 47.7567 27.2665 47.5301 27.2025C47.3101 27.1403 47.1263 27.0531 47.0068 26.9385C46.7664 26.7081 46.7424 26.3978 46.8643 26.1442C46.947 25.9722 47.0928 25.8291 47.2742 25.7352L47.1629 24.8324C46.6183 25.1055 45.987 25.5066 45.526 25.9439C45.2448 26.2106 45.0469 26.4723 44.958 26.7083C44.8743 26.9303 44.8887 27.1182 45.0166 27.2946C45.1821 27.5229 45.5669 27.6843 46.1737 27.7488C46.7612 27.8113 47.4783 27.7751 48.2028 27.6896C49.6496 27.5188 51.0698 27.1585 51.418 27.0582C51.7639 26.9585 52.9728 26.5529 54.2177 26.014C54.8396 25.7448 55.4647 25.4447 55.9931 25.1357C56.5285 24.8225 56.9371 24.5155 57.1523 24.24C57.3763 23.9532 57.4409 23.7336 57.4389 23.5747C57.437 23.4196 57.3711 23.2815 57.2485 23.1546C56.9892 22.8863 56.5217 22.72 56.1835 22.6797C55.5888 22.6089 55.1697 22.6192 54.8925 22.6564C54.8126 22.6671 54.7456 22.68 54.6903 22.6933Z" fill="#212E44"/>
<path d="M32.0632 20.7018C30.4997 20.6957 26.7264 21.4772 22.8441 24.7322C22.2287 24.7128 20.6885 24.9208 19.4514 25.9089C18.2143 26.8969 17.8879 28.1797 17.8794 28.6975L19.9297 27.9264L19.0906 29.463C18.178 30.1273 16.2227 31.9752 15.8183 33.6762L15.7198 33.7549C15.7465 33.7561 15.7733 33.7569 15.8002 33.7574C15.7947 33.7837 15.7896 33.8101 15.7848 33.8363L15.8834 33.7576C17.6317 33.7393 19.8661 32.2409 20.7157 31.4978L22.3998 31.0192L21.1945 32.8483C21.7014 32.9545 23.0246 32.9198 24.2617 31.9317C25.4988 30.9437 26.0422 29.4876 26.1593 28.8831C30.1921 25.8165 31.7885 22.3094 32.1283 20.7832L32.1454 20.7028L32.0632 20.7018Z" fill="#212E44"/>
<path d="M28.9704 23.3062L31.3307 21.421C30.6802 21.1407 29.1995 21.5901 28.5405 21.8499C28.4553 22.6111 28.7916 23.1379 28.9704 23.3062Z" fill="#F65A03"/>
<path d="M28.9704 23.3062L31.3307 21.421C31.4603 22.1174 30.6946 23.4621 30.2956 24.0474C29.5343 23.9622 29.0949 23.5177 28.9704 23.3062Z" fill="#F65A03"/>
<path fill-rule="evenodd" clip-rule="evenodd" d="M27.9948 22.0837C27.9349 22.3982 27.9321 23.1736 28.4001 23.7596L28.3999 23.7598C28.8679 24.3457 29.6247 24.5144 29.9446 24.5255C29.6513 25.0485 28.5114 26.5366 26.2976 28.3047C24.0838 30.0728 21.9475 29.8683 21.1561 29.545L21.1564 29.5448C21.0162 28.7013 21.2892 26.5729 23.5028 24.8049C25.7166 23.0368 27.4199 22.2541 27.9948 22.0837Z" fill="#F9E79D"/>
<path d="M27.2896 26.7119C26.5704 27.2863 25.5217 27.169 24.9473 26.4498C24.3729 25.7305 24.4903 24.6819 25.2095 24.1075C25.9287 23.533 26.9774 23.6504 27.5518 24.3696C28.1262 25.0888 28.0088 26.1375 27.2896 26.7119Z" fill="#212E44"/>
<path d="M27.0307 26.3867C26.4913 26.8175 25.7048 26.7295 25.274 26.1901C24.8431 25.6507 24.9312 24.8642 25.4706 24.4334C26.01 24.0026 26.7965 24.0906 27.2273 24.63C27.6581 25.1694 27.5701 25.9559 27.0307 26.3867Z" fill="#F65A03"/>
<path d="M26.836 26.1419C26.4315 26.465 25.8416 26.3989 25.5185 25.9944C25.1953 25.5898 25.2614 24.9999 25.6659 24.6768C26.0705 24.3537 26.6604 24.4198 26.9835 24.8243C27.3066 25.2289 27.2406 25.8187 26.836 26.1419Z" fill="#F9E79D"/>
<path d="M24.4757 27.3613C24.2959 27.5049 24.0338 27.4756 23.8901 27.2958C23.7465 27.116 23.7759 26.8538 23.9557 26.7102C24.1355 26.5666 24.3977 26.596 24.5413 26.7758C24.6849 26.9556 24.6555 27.2177 24.4757 27.3613Z" fill="#212E44"/>
<path d="M23.5011 28.1416C23.3213 28.2852 23.0591 28.2559 22.9155 28.0761C22.7719 27.8963 22.8013 27.6341 22.9811 27.4905C23.1609 27.3469 23.4231 27.3762 23.5667 27.556C23.7103 27.7358 23.6809 27.998 23.5011 28.1416Z" fill="#212E44"/>
<path d="M22.5226 28.9219C22.3428 29.0655 22.0806 29.0361 21.937 28.8563C21.7934 28.6765 21.8228 28.4144 22.0026 28.2708C22.1824 28.1272 22.4445 28.1565 22.5881 28.3363C22.7317 28.5161 22.7024 28.7783 22.5226 28.9219Z" fill="#212E44"/>
<path d="M19.2207 29.96L20.3258 31.3436C18.7956 32.5657 17.3014 32.9815 16.7618 33.0569C16.9547 32.5474 17.6906 31.182 19.2207 29.96Z" fill="#FCB042"/>
<path d="M16.8847 32.9589L16.8848 32.9588C17.7572 32.9104 18.9499 31.9536 19.4372 31.4813L18.5457 31.6323L18.89 30.7961C18.3216 31.167 17.1249 32.1187 16.8848 32.9588L16.8847 32.9589Z" fill="#F65A03"/>
<path d="M20.399 27.2639C20.6206 26.8736 21.6202 25.8442 22.0923 25.3782C21.9325 25.2615 21.3588 25.1775 20.3433 25.7753C19.3277 26.3732 18.7532 27.4008 18.5928 27.8399C19.003 27.619 19.9678 27.3638 20.399 27.2639Z" fill="#F9E79D"/>
<path d="M23.1396 30.6942C23.5692 30.5644 24.7942 29.8171 25.353 29.4597C25.4315 29.6414 25.3865 30.2194 24.579 31.0777C23.7714 31.936 22.6422 32.2691 22.1785 32.3283C22.4846 31.9772 22.9468 31.0926 23.1396 30.6942Z" fill="#F9E79D"/>
<path d="M59.0521 45.5007V46.8896H58.4065V46.1952L58.2079 46.1489C57.8107 46.0007 57.7114 45.5933 57.7114 45.4081V43.9267C57.7114 43.8341 57.761 43.6489 57.9597 43.6489C58.1186 43.6489 58.1914 43.8341 58.2079 43.9267V45.5933C58.2079 45.7415 58.3403 45.8094 58.4065 45.8248V43.2323C58.4065 43.186 58.4562 42.9082 58.7541 42.9082C58.9925 42.9082 59.0521 43.1242 59.0521 43.2323V45.1304C59.2904 45.0933 59.3831 44.868 59.3996 44.76V43.9267C59.3996 43.6026 59.3996 43.4175 59.5983 43.4175C59.7572 43.4175 59.7969 43.5718 59.7969 43.6489V44.7137C59.7969 45.2693 59.3003 45.4699 59.0521 45.5007Z" fill="#F65A03"/>
<path d="M48.0013 56.0414V57.6948L49.1163 58.7376V56.8681L49.4594 56.813C50.1455 56.6366 50.3171 56.1517 50.3171 55.9312V54.1676C50.3171 54.0573 50.2313 53.8369 49.8882 53.8369C49.6138 53.8369 49.488 54.0573 49.4594 54.1676V56.1517C49.4594 56.328 49.2307 56.4088 49.1163 56.4272V53.3409C49.1163 53.2858 49.0305 52.9551 48.5159 52.9551C48.1043 52.9551 48.0013 53.2123 48.0013 53.3409V55.6005C47.5897 55.5564 47.4296 55.2882 47.401 55.1596V54.1676C47.401 53.7818 47.401 53.5613 47.0579 53.5613C46.7835 53.5613 46.7148 53.745 46.7148 53.8369V55.1045C46.7148 55.7659 47.5725 56.0047 48.0013 56.0414Z" fill="#F65A03"/>
<path fill-rule="evenodd" clip-rule="evenodd" d="M41.469 8.99763L38.4982 0.25L35.5273 8.99763H41.469ZM40.2134 8.14001L38.4982 2.6513V8.14001H40.2134Z" fill="#212E44"/>
<path fill-rule="evenodd" clip-rule="evenodd" d="M41.469 68.5024L38.4982 77.25L35.5273 68.5024H41.469ZM40.2134 69.36L38.4982 74.8487V69.36H40.2134Z" fill="#212E44"/>
<path fill-rule="evenodd" clip-rule="evenodd" d="M8.74763 35.778L-1.2986e-07 38.7489L8.74763 41.7197L8.74763 35.778ZM7.89001 37.0336L2.4013 38.7489L7.89001 38.7489L7.89001 37.0336Z" fill="#212E44"/>
<path fill-rule="evenodd" clip-rule="evenodd" d="M68.2524 35.778L77 38.7489L68.2524 41.7197L68.2524 35.778ZM69.11 37.0336L74.5987 38.7489L69.11 38.7489L69.11 37.0336Z" fill="#212E44"/>
<defs>
<linearGradient id="paint0_linear_1953_20337" x1="38.5644" y1="14.2793" x2="38.5644" y2="38.5468" gradientUnits="userSpaceOnUse">
<stop stop-color="#171E38"/>
<stop offset="1" stop-color="#050618"/>
</linearGradient>
<linearGradient id="paint1_linear_1953_20337" x1="38.5644" y1="14.2793" x2="38.5644" y2="44.1397" gradientUnits="userSpaceOnUse">
<stop offset="0.225" stop-color="#212E44"/>
<stop offset="0.84" stop-color="#13163F"/>
</linearGradient>
<linearGradient id="paint2_linear_1953_20337" x1="38.5639" y1="41.5801" x2="38.5639" y2="65.0892" gradientUnits="userSpaceOnUse">
<stop stop-color="#FCB042"/>
<stop offset="1" stop-color="#F9E79D"/>
</linearGradient>
<linearGradient id="paint3_linear_1953_20337" x1="41.1916" y1="32.291" x2="41.1916" y2="63.3838" gradientUnits="userSpaceOnUse">
<stop stop-color="#212E44"/>
<stop offset="1" stop-color="#0C0E29"/>
</linearGradient>
</defs>
</svg>
