<svg width="1090" height="457" viewBox="0 0 1090 457" fill="none" xmlns="http://www.w3.org/2000/svg">
<line y1="425.25" x2="1090" y2="425.25" stroke="#A6ABB4" stroke-width="1.5"/>
<circle cx="40.5" cy="425.5" r="10.5" fill="#A6ABB4"/>
<circle cx="219.5" cy="425.5" r="10.5" fill="#A6ABB4"/>
<circle cx="399.5" cy="425.5" r="10.5" fill="#A6ABB4"/>
<circle cx="579.5" cy="425.5" r="10.5" fill="#A6ABB4"/>
<circle cx="759.5" cy="425.5" r="10.5" fill="#A6ABB4"/>
<circle cx="939.5" cy="425.5" r="10.5" fill="#A6ABB4"/>
<line x1="40.5" y1="24" x2="40.5" y2="405" stroke="#A6ABB4" stroke-dasharray="2 2"/>
<path d="M940 24.0084C919.052 23.3265 888.355 64.4601 829.141 73.1936C803.37 76.9946 756.126 60.323 716.502 85.1453C704.586 92.6099 698.693 119.621 637.699 119.621C541.834 119.621 558.343 109.805 488.997 156.854C433.519 194.494 317.894 151.979 263.717 209.257C230.489 260.397 141.685 257.982 42 257.982" stroke="url(#paint0_linear_636_3088)" stroke-width="4"/>
<line x1="760.5" y1="24" x2="760.5" y2="405" stroke="#A6ABB4" stroke-dasharray="2 2"/>
<line x1="580.5" y1="24" x2="580.5" y2="405" stroke="#A6ABB4" stroke-dasharray="2 2"/>
<line x1="220.5" y1="24" x2="220.5" y2="405" stroke="#A6ABB4" stroke-dasharray="2 2"/>
<line x1="400.5" y1="24" x2="400.5" y2="405" stroke="#A6ABB4" stroke-dasharray="2 2"/>
<line x1="940.5" y1="24" x2="940.5" y2="405" stroke="#A6ABB4" stroke-dasharray="2 2"/>
<g filter="url(#filter0_d_636_3088)">
<circle cx="940" cy="23" r="20" fill="url(#paint1_linear_636_3088)"/>
</g>
<circle cx="940" cy="23" r="10" fill="url(#paint2_linear_636_3088)"/>
<g filter="url(#filter1_d_636_3088)">
<circle cx="760" cy="70" r="20" fill="url(#paint3_linear_636_3088)"/>
</g>
<circle cx="760" cy="70" r="10" fill="url(#paint4_linear_636_3088)"/>
<g filter="url(#filter2_d_636_3088)">
<circle cx="580" cy="117" r="20" fill="url(#paint5_linear_636_3088)"/>
</g>
<circle cx="580" cy="117" r="10" fill="url(#paint6_linear_636_3088)"/>
<g filter="url(#filter3_d_636_3088)">
<circle cx="400" cy="175" r="20" fill="url(#paint7_linear_636_3088)"/>
</g>
<circle cx="400" cy="175" r="10" fill="url(#paint8_linear_636_3088)"/>
<g filter="url(#filter4_d_636_3088)">
<circle cx="220" cy="241" r="20" fill="url(#paint9_linear_636_3088)"/>
</g>
<circle cx="220" cy="241" r="10" fill="url(#paint10_linear_636_3088)"/>
<g filter="url(#filter5_d_636_3088)">
<circle cx="40" cy="259" r="20" fill="url(#paint11_linear_636_3088)"/>
</g>
<circle cx="40" cy="259" r="10" fill="url(#paint12_linear_636_3088)"/>
<path d="M14.0939 454V445.96L14.4779 446.368H12.1139V445.6H14.9579V454H14.0939ZM25.3144 454L22.7224 450.88L23.4304 450.46L26.3224 454H25.3144ZM20.6944 454V447.7H21.5464V454H20.6944ZM21.2824 451.192V450.46H23.3104V451.192H21.2824ZM23.5024 450.94L22.7104 450.82L25.2184 447.7H26.1424L23.5024 450.94ZM27.6671 454V447.7H30.4511C31.1631 447.7 31.7231 447.836 32.1311 448.108C32.5471 448.38 32.7551 448.78 32.7551 449.308C32.7551 449.82 32.5591 450.216 32.1671 450.496C31.7751 450.768 31.2591 450.904 30.6191 450.904L30.7871 450.652C31.5391 450.652 32.0911 450.792 32.4431 451.072C32.7951 451.352 32.9711 451.756 32.9711 452.284C32.9711 452.828 32.7711 453.252 32.3711 453.556C31.9791 453.852 31.3671 454 30.5351 454H27.6671ZM28.4951 453.328H30.4991C31.0351 453.328 31.4391 453.244 31.7111 453.076C31.9911 452.9 32.1311 452.62 32.1311 452.236C32.1311 451.852 32.0071 451.572 31.7591 451.396C31.5111 451.22 31.1191 451.132 30.5831 451.132H28.4951V453.328ZM28.4951 450.496H30.3911C30.8791 450.496 31.2511 450.404 31.5071 450.22C31.7711 450.036 31.9031 449.768 31.9031 449.416C31.9031 449.064 31.7711 448.8 31.5071 448.624C31.2511 448.448 30.8791 448.36 30.3911 448.36H28.4951V450.496ZM38.8799 454V452.608L38.8439 452.38V450.052C38.8439 449.516 38.6919 449.104 38.3879 448.816C38.0919 448.528 37.6479 448.384 37.0559 448.384C36.6479 448.384 36.2599 448.452 35.8919 448.588C35.5239 448.724 35.2119 448.904 34.9559 449.128L34.5719 448.492C34.8919 448.22 35.2759 448.012 35.7239 447.868C36.1719 447.716 36.6439 447.64 37.1399 447.64C37.9559 447.64 38.5839 447.844 39.0239 448.252C39.4719 448.652 39.6959 449.264 39.6959 450.088V454H38.8799ZM36.7079 454.06C36.2359 454.06 35.8239 453.984 35.4719 453.832C35.1279 453.672 34.8639 453.456 34.6799 453.184C34.4959 452.904 34.4039 452.584 34.4039 452.224C34.4039 451.896 34.4799 451.6 34.6319 451.336C34.7919 451.064 35.0479 450.848 35.3999 450.688C35.7599 450.52 36.2399 450.436 36.8399 450.436H39.0119V451.072H36.8639C36.2559 451.072 35.8319 451.18 35.5919 451.396C35.3599 451.612 35.2439 451.88 35.2439 452.2C35.2439 452.56 35.3839 452.848 35.6639 453.064C35.9439 453.28 36.3359 453.388 36.8399 453.388C37.3199 453.388 37.7319 453.28 38.0759 453.064C38.4279 452.84 38.6839 452.52 38.8439 452.104L39.0359 452.692C38.8759 453.108 38.5959 453.44 38.1959 453.688C37.8039 453.936 37.3079 454.06 36.7079 454.06ZM45.216 454.06C44.672 454.06 44.18 453.936 43.74 453.688C43.3 453.432 42.948 453.068 42.684 452.596C42.428 452.116 42.3 451.532 42.3 450.844C42.3 450.156 42.428 449.576 42.684 449.104C42.94 448.624 43.288 448.26 43.728 448.012C44.168 447.764 44.664 447.64 45.216 447.64C45.816 447.64 46.352 447.776 46.824 448.048C47.304 448.312 47.68 448.688 47.952 449.176C48.224 449.656 48.36 450.212 48.36 450.844C48.36 451.484 48.224 452.044 47.952 452.524C47.68 453.004 47.304 453.38 46.824 453.652C46.352 453.924 45.816 454.06 45.216 454.06ZM41.964 456.328V447.7H42.78V449.596L42.696 450.856L42.816 452.128V456.328H41.964ZM45.156 453.304C45.604 453.304 46.004 453.204 46.356 453.004C46.708 452.796 46.988 452.508 47.196 452.14C47.404 451.764 47.508 451.332 47.508 450.844C47.508 450.356 47.404 449.928 47.196 449.56C46.988 449.192 46.708 448.904 46.356 448.696C46.004 448.488 45.604 448.384 45.156 448.384C44.708 448.384 44.304 448.488 43.944 448.696C43.592 448.904 43.312 449.192 43.104 449.56C42.904 449.928 42.804 450.356 42.804 450.844C42.804 451.332 42.904 451.764 43.104 452.14C43.312 452.508 43.592 452.796 43.944 453.004C44.304 453.204 44.708 453.304 45.156 453.304ZM51.1561 454V448.216L51.3721 448.444H48.7681V447.7H54.3961V448.444H51.7921L52.0081 448.216V454H51.1561ZM59.54 454V452.608L59.504 452.38V450.052C59.504 449.516 59.352 449.104 59.048 448.816C58.752 448.528 58.308 448.384 57.716 448.384C57.308 448.384 56.92 448.452 56.552 448.588C56.184 448.724 55.872 448.904 55.616 449.128L55.232 448.492C55.552 448.22 55.936 448.012 56.384 447.868C56.832 447.716 57.304 447.64 57.8 447.64C58.616 447.64 59.244 447.844 59.684 448.252C60.132 448.652 60.356 449.264 60.356 450.088V454H59.54ZM57.368 454.06C56.896 454.06 56.484 453.984 56.132 453.832C55.788 453.672 55.524 453.456 55.34 453.184C55.156 452.904 55.064 452.584 55.064 452.224C55.064 451.896 55.14 451.6 55.292 451.336C55.452 451.064 55.708 450.848 56.06 450.688C56.42 450.52 56.9 450.436 57.5 450.436H59.672V451.072H57.524C56.916 451.072 56.492 451.18 56.252 451.396C56.02 451.612 55.904 451.88 55.904 452.2C55.904 452.56 56.044 452.848 56.324 453.064C56.604 453.28 56.996 453.388 57.5 453.388C57.98 453.388 58.392 453.28 58.736 453.064C59.088 452.84 59.344 452.52 59.504 452.104L59.696 452.692C59.536 453.108 59.256 453.44 58.856 453.688C58.464 453.936 57.968 454.06 57.368 454.06ZM61.4721 453.988L61.5321 453.256C61.5881 453.264 61.6401 453.276 61.6881 453.292C61.7441 453.3 61.7921 453.304 61.8321 453.304C62.0881 453.304 62.2921 453.208 62.4441 453.016C62.6041 452.824 62.7241 452.568 62.8041 452.248C62.8841 451.928 62.9401 451.568 62.9721 451.168C63.0041 450.76 63.0321 450.352 63.0561 449.944L63.1641 447.7H67.7841V454H66.9321V448.192L67.1481 448.444H63.7161L63.9201 448.18L63.8241 450.004C63.8001 450.548 63.7561 451.068 63.6921 451.564C63.6361 452.06 63.5441 452.496 63.4161 452.872C63.2961 453.248 63.1281 453.544 62.9121 453.76C62.6961 453.968 62.4201 454.072 62.0841 454.072C61.9881 454.072 61.8881 454.064 61.7841 454.048C61.6881 454.032 61.5841 454.012 61.4721 453.988Z" fill="#333333"/>
<path d="M190.732 454V453.388L194.224 449.968C194.544 449.656 194.784 449.384 194.944 449.152C195.104 448.912 195.212 448.688 195.268 448.48C195.324 448.272 195.352 448.076 195.352 447.892C195.352 447.404 195.184 447.02 194.848 446.74C194.52 446.46 194.032 446.32 193.384 446.32C192.888 446.32 192.448 446.396 192.064 446.548C191.688 446.7 191.364 446.936 191.092 447.256L190.48 446.728C190.808 446.344 191.228 446.048 191.74 445.84C192.252 445.632 192.824 445.528 193.456 445.528C194.024 445.528 194.516 445.62 194.932 445.804C195.348 445.98 195.668 446.24 195.892 446.584C196.124 446.928 196.24 447.332 196.24 447.796C196.24 448.068 196.2 448.336 196.12 448.6C196.048 448.864 195.912 449.144 195.712 449.44C195.52 449.728 195.236 450.056 194.86 450.424L191.656 453.568L191.416 453.232H196.624V454H190.732ZM206.057 454L203.465 450.88L204.173 450.46L207.065 454H206.057ZM201.437 454V447.7H202.289V454H201.437ZM202.025 451.192V450.46H204.053V451.192H202.025ZM204.245 450.94L203.453 450.82L205.961 447.7H206.885L204.245 450.94ZM208.409 454V447.7H211.193C211.905 447.7 212.465 447.836 212.873 448.108C213.289 448.38 213.497 448.78 213.497 449.308C213.497 449.82 213.301 450.216 212.909 450.496C212.517 450.768 212.001 450.904 211.361 450.904L211.529 450.652C212.281 450.652 212.833 450.792 213.185 451.072C213.537 451.352 213.713 451.756 213.713 452.284C213.713 452.828 213.513 453.252 213.113 453.556C212.721 453.852 212.109 454 211.277 454H208.409ZM209.237 453.328H211.241C211.777 453.328 212.181 453.244 212.453 453.076C212.733 452.9 212.873 452.62 212.873 452.236C212.873 451.852 212.749 451.572 212.501 451.396C212.253 451.22 211.861 451.132 211.325 451.132H209.237V453.328ZM209.237 450.496H211.133C211.621 450.496 211.993 450.404 212.249 450.22C212.513 450.036 212.645 449.768 212.645 449.416C212.645 449.064 212.513 448.8 212.249 448.624C211.993 448.448 211.621 448.36 211.133 448.36H209.237V450.496ZM219.622 454V452.608L219.586 452.38V450.052C219.586 449.516 219.434 449.104 219.13 448.816C218.834 448.528 218.39 448.384 217.798 448.384C217.39 448.384 217.002 448.452 216.634 448.588C216.266 448.724 215.954 448.904 215.698 449.128L215.314 448.492C215.634 448.22 216.018 448.012 216.466 447.868C216.914 447.716 217.386 447.64 217.882 447.64C218.698 447.64 219.326 447.844 219.766 448.252C220.214 448.652 220.438 449.264 220.438 450.088V454H219.622ZM217.45 454.06C216.978 454.06 216.566 453.984 216.214 453.832C215.87 453.672 215.606 453.456 215.422 453.184C215.238 452.904 215.146 452.584 215.146 452.224C215.146 451.896 215.222 451.6 215.374 451.336C215.534 451.064 215.79 450.848 216.142 450.688C216.502 450.52 216.982 450.436 217.582 450.436H219.754V451.072H217.606C216.998 451.072 216.574 451.18 216.334 451.396C216.102 451.612 215.986 451.88 215.986 452.2C215.986 452.56 216.126 452.848 216.406 453.064C216.686 453.28 217.078 453.388 217.582 453.388C218.062 453.388 218.474 453.28 218.818 453.064C219.17 452.84 219.426 452.52 219.586 452.104L219.778 452.692C219.618 453.108 219.338 453.44 218.938 453.688C218.546 453.936 218.05 454.06 217.45 454.06ZM225.958 454.06C225.414 454.06 224.922 453.936 224.482 453.688C224.042 453.432 223.69 453.068 223.426 452.596C223.17 452.116 223.042 451.532 223.042 450.844C223.042 450.156 223.17 449.576 223.426 449.104C223.682 448.624 224.03 448.26 224.47 448.012C224.91 447.764 225.406 447.64 225.958 447.64C226.558 447.64 227.094 447.776 227.566 448.048C228.046 448.312 228.422 448.688 228.694 449.176C228.966 449.656 229.102 450.212 229.102 450.844C229.102 451.484 228.966 452.044 228.694 452.524C228.422 453.004 228.046 453.38 227.566 453.652C227.094 453.924 226.558 454.06 225.958 454.06ZM222.706 456.328V447.7H223.522V449.596L223.438 450.856L223.558 452.128V456.328H222.706ZM225.898 453.304C226.346 453.304 226.746 453.204 227.098 453.004C227.45 452.796 227.73 452.508 227.938 452.14C228.146 451.764 228.25 451.332 228.25 450.844C228.25 450.356 228.146 449.928 227.938 449.56C227.73 449.192 227.45 448.904 227.098 448.696C226.746 448.488 226.346 448.384 225.898 448.384C225.45 448.384 225.046 448.488 224.686 448.696C224.334 448.904 224.054 449.192 223.846 449.56C223.646 449.928 223.546 450.356 223.546 450.844C223.546 451.332 223.646 451.764 223.846 452.14C224.054 452.508 224.334 452.796 224.686 453.004C225.046 453.204 225.45 453.304 225.898 453.304ZM231.898 454V448.216L232.114 448.444H229.51V447.7H235.138V448.444H232.534L232.75 448.216V454H231.898ZM240.282 454V452.608L240.246 452.38V450.052C240.246 449.516 240.094 449.104 239.79 448.816C239.494 448.528 239.05 448.384 238.458 448.384C238.05 448.384 237.662 448.452 237.294 448.588C236.926 448.724 236.614 448.904 236.358 449.128L235.974 448.492C236.294 448.22 236.678 448.012 237.126 447.868C237.574 447.716 238.046 447.64 238.542 447.64C239.358 447.64 239.986 447.844 240.426 448.252C240.874 448.652 241.098 449.264 241.098 450.088V454H240.282ZM238.11 454.06C237.638 454.06 237.226 453.984 236.874 453.832C236.53 453.672 236.266 453.456 236.082 453.184C235.898 452.904 235.806 452.584 235.806 452.224C235.806 451.896 235.882 451.6 236.034 451.336C236.194 451.064 236.45 450.848 236.802 450.688C237.162 450.52 237.642 450.436 238.242 450.436H240.414V451.072H238.266C237.658 451.072 237.234 451.18 236.994 451.396C236.762 451.612 236.646 451.88 236.646 452.2C236.646 452.56 236.786 452.848 237.066 453.064C237.346 453.28 237.738 453.388 238.242 453.388C238.722 453.388 239.134 453.28 239.478 453.064C239.83 452.84 240.086 452.52 240.246 452.104L240.438 452.692C240.278 453.108 239.998 453.44 239.598 453.688C239.206 453.936 238.71 454.06 238.11 454.06ZM242.214 453.988L242.274 453.256C242.33 453.264 242.382 453.276 242.43 453.292C242.486 453.3 242.534 453.304 242.574 453.304C242.83 453.304 243.034 453.208 243.186 453.016C243.346 452.824 243.466 452.568 243.546 452.248C243.626 451.928 243.682 451.568 243.714 451.168C243.746 450.76 243.774 450.352 243.798 449.944L243.906 447.7H248.526V454H247.674V448.192L247.89 448.444H244.458L244.662 448.18L244.566 450.004C244.542 450.548 244.498 451.068 244.434 451.564C244.378 452.06 244.286 452.496 244.158 452.872C244.038 453.248 243.87 453.544 243.654 453.76C243.438 453.968 243.162 454.072 242.826 454.072C242.73 454.072 242.63 454.064 242.526 454.048C242.43 454.032 242.326 454.012 242.214 453.988Z" fill="#333333"/>
<path d="M373.419 454.072C372.811 454.072 372.235 453.976 371.691 453.784C371.155 453.584 370.723 453.32 370.395 452.992L370.815 452.308C371.087 452.588 371.451 452.82 371.907 453.004C372.371 453.188 372.875 453.28 373.419 453.28C374.115 453.28 374.647 453.128 375.015 452.824C375.391 452.52 375.579 452.112 375.579 451.6C375.579 451.088 375.395 450.68 375.027 450.376C374.667 450.072 374.095 449.92 373.311 449.92H372.711V449.284L375.303 446.032L375.423 446.368H370.743V445.6H376.143V446.212L373.551 449.464L373.131 449.188H373.455C374.463 449.188 375.215 449.412 375.711 449.86C376.215 450.308 376.467 450.884 376.467 451.588C376.467 452.06 376.355 452.484 376.131 452.86C375.907 453.236 375.567 453.532 375.111 453.748C374.663 453.964 374.099 454.072 373.419 454.072ZM386.033 454L383.441 450.88L384.149 450.46L387.041 454H386.033ZM381.413 454V447.7H382.265V454H381.413ZM382.001 451.192V450.46H384.029V451.192H382.001ZM384.221 450.94L383.429 450.82L385.937 447.7H386.861L384.221 450.94ZM388.386 454V447.7H391.17C391.882 447.7 392.442 447.836 392.85 448.108C393.266 448.38 393.474 448.78 393.474 449.308C393.474 449.82 393.278 450.216 392.886 450.496C392.494 450.768 391.978 450.904 391.338 450.904L391.506 450.652C392.258 450.652 392.81 450.792 393.162 451.072C393.514 451.352 393.69 451.756 393.69 452.284C393.69 452.828 393.49 453.252 393.09 453.556C392.698 453.852 392.086 454 391.254 454H388.386ZM389.214 453.328H391.218C391.754 453.328 392.158 453.244 392.43 453.076C392.71 452.9 392.85 452.62 392.85 452.236C392.85 451.852 392.726 451.572 392.478 451.396C392.23 451.22 391.838 451.132 391.302 451.132H389.214V453.328ZM389.214 450.496H391.11C391.598 450.496 391.97 450.404 392.226 450.22C392.49 450.036 392.622 449.768 392.622 449.416C392.622 449.064 392.49 448.8 392.226 448.624C391.97 448.448 391.598 448.36 391.11 448.36H389.214V450.496ZM399.599 454V452.608L399.563 452.38V450.052C399.563 449.516 399.411 449.104 399.107 448.816C398.811 448.528 398.367 448.384 397.775 448.384C397.367 448.384 396.979 448.452 396.611 448.588C396.243 448.724 395.931 448.904 395.675 449.128L395.291 448.492C395.611 448.22 395.995 448.012 396.443 447.868C396.891 447.716 397.363 447.64 397.859 447.64C398.675 447.64 399.303 447.844 399.743 448.252C400.191 448.652 400.415 449.264 400.415 450.088V454H399.599ZM397.427 454.06C396.955 454.06 396.543 453.984 396.191 453.832C395.847 453.672 395.583 453.456 395.399 453.184C395.215 452.904 395.123 452.584 395.123 452.224C395.123 451.896 395.199 451.6 395.351 451.336C395.511 451.064 395.767 450.848 396.119 450.688C396.479 450.52 396.959 450.436 397.559 450.436H399.731V451.072H397.583C396.975 451.072 396.551 451.18 396.311 451.396C396.079 451.612 395.963 451.88 395.963 452.2C395.963 452.56 396.103 452.848 396.383 453.064C396.663 453.28 397.055 453.388 397.559 453.388C398.039 453.388 398.451 453.28 398.795 453.064C399.147 452.84 399.403 452.52 399.563 452.104L399.755 452.692C399.595 453.108 399.315 453.44 398.915 453.688C398.523 453.936 398.027 454.06 397.427 454.06ZM405.935 454.06C405.391 454.06 404.899 453.936 404.459 453.688C404.019 453.432 403.667 453.068 403.403 452.596C403.147 452.116 403.019 451.532 403.019 450.844C403.019 450.156 403.147 449.576 403.403 449.104C403.659 448.624 404.007 448.26 404.447 448.012C404.887 447.764 405.383 447.64 405.935 447.64C406.535 447.64 407.071 447.776 407.543 448.048C408.023 448.312 408.399 448.688 408.671 449.176C408.943 449.656 409.079 450.212 409.079 450.844C409.079 451.484 408.943 452.044 408.671 452.524C408.399 453.004 408.023 453.38 407.543 453.652C407.071 453.924 406.535 454.06 405.935 454.06ZM402.683 456.328V447.7H403.499V449.596L403.415 450.856L403.535 452.128V456.328H402.683ZM405.875 453.304C406.323 453.304 406.723 453.204 407.075 453.004C407.427 452.796 407.707 452.508 407.915 452.14C408.123 451.764 408.227 451.332 408.227 450.844C408.227 450.356 408.123 449.928 407.915 449.56C407.707 449.192 407.427 448.904 407.075 448.696C406.723 448.488 406.323 448.384 405.875 448.384C405.427 448.384 405.023 448.488 404.663 448.696C404.311 448.904 404.031 449.192 403.823 449.56C403.623 449.928 403.523 450.356 403.523 450.844C403.523 451.332 403.623 451.764 403.823 452.14C404.031 452.508 404.311 452.796 404.663 453.004C405.023 453.204 405.427 453.304 405.875 453.304ZM411.875 454V448.216L412.091 448.444H409.487V447.7H415.115V448.444H412.511L412.727 448.216V454H411.875ZM420.259 454V452.608L420.223 452.38V450.052C420.223 449.516 420.071 449.104 419.767 448.816C419.471 448.528 419.027 448.384 418.435 448.384C418.027 448.384 417.639 448.452 417.271 448.588C416.903 448.724 416.591 448.904 416.335 449.128L415.951 448.492C416.271 448.22 416.655 448.012 417.103 447.868C417.551 447.716 418.023 447.64 418.519 447.64C419.335 447.64 419.963 447.844 420.403 448.252C420.851 448.652 421.075 449.264 421.075 450.088V454H420.259ZM418.087 454.06C417.615 454.06 417.203 453.984 416.851 453.832C416.507 453.672 416.243 453.456 416.059 453.184C415.875 452.904 415.783 452.584 415.783 452.224C415.783 451.896 415.859 451.6 416.011 451.336C416.171 451.064 416.427 450.848 416.779 450.688C417.139 450.52 417.619 450.436 418.219 450.436H420.391V451.072H418.243C417.635 451.072 417.211 451.18 416.971 451.396C416.739 451.612 416.623 451.88 416.623 452.2C416.623 452.56 416.763 452.848 417.043 453.064C417.323 453.28 417.715 453.388 418.219 453.388C418.699 453.388 419.111 453.28 419.455 453.064C419.807 452.84 420.063 452.52 420.223 452.104L420.415 452.692C420.255 453.108 419.975 453.44 419.575 453.688C419.183 453.936 418.687 454.06 418.087 454.06ZM422.191 453.988L422.251 453.256C422.307 453.264 422.359 453.276 422.407 453.292C422.463 453.3 422.511 453.304 422.551 453.304C422.807 453.304 423.011 453.208 423.163 453.016C423.323 452.824 423.443 452.568 423.523 452.248C423.603 451.928 423.659 451.568 423.691 451.168C423.723 450.76 423.751 450.352 423.775 449.944L423.883 447.7H428.503V454H427.651V448.192L427.867 448.444H424.435L424.639 448.18L424.543 450.004C424.519 450.548 424.475 451.068 424.411 451.564C424.355 452.06 424.263 452.496 424.135 452.872C424.015 453.248 423.847 453.544 423.631 453.76C423.415 453.968 423.139 454.072 422.803 454.072C422.707 454.072 422.607 454.064 422.503 454.048C422.407 454.032 422.303 454.012 422.191 453.988Z" fill="#333333"/>
<path d="M550.687 451.792V451.168L555.139 445.6H556.099L551.683 451.168L551.215 451.024H557.971V451.792H550.687ZM555.427 454V451.792L555.451 451.024V449.08H556.291V454H555.427ZM567.113 454L564.521 450.88L565.229 450.46L568.121 454H567.113ZM562.493 454V447.7H563.345V454H562.493ZM563.081 451.192V450.46H565.109V451.192H563.081ZM565.301 450.94L564.509 450.82L567.017 447.7H567.941L565.301 450.94ZM569.466 454V447.7H572.25C572.962 447.7 573.522 447.836 573.93 448.108C574.346 448.38 574.554 448.78 574.554 449.308C574.554 449.82 574.358 450.216 573.966 450.496C573.574 450.768 573.058 450.904 572.418 450.904L572.586 450.652C573.338 450.652 573.89 450.792 574.242 451.072C574.594 451.352 574.77 451.756 574.77 452.284C574.77 452.828 574.57 453.252 574.17 453.556C573.778 453.852 573.166 454 572.334 454H569.466ZM570.294 453.328H572.298C572.834 453.328 573.238 453.244 573.51 453.076C573.79 452.9 573.93 452.62 573.93 452.236C573.93 451.852 573.806 451.572 573.558 451.396C573.31 451.22 572.918 451.132 572.382 451.132H570.294V453.328ZM570.294 450.496H572.19C572.678 450.496 573.05 450.404 573.306 450.22C573.57 450.036 573.702 449.768 573.702 449.416C573.702 449.064 573.57 448.8 573.306 448.624C573.05 448.448 572.678 448.36 572.19 448.36H570.294V450.496ZM580.679 454V452.608L580.643 452.38V450.052C580.643 449.516 580.491 449.104 580.187 448.816C579.891 448.528 579.447 448.384 578.855 448.384C578.447 448.384 578.059 448.452 577.691 448.588C577.323 448.724 577.011 448.904 576.755 449.128L576.371 448.492C576.691 448.22 577.075 448.012 577.523 447.868C577.971 447.716 578.443 447.64 578.939 447.64C579.755 447.64 580.383 447.844 580.823 448.252C581.271 448.652 581.495 449.264 581.495 450.088V454H580.679ZM578.507 454.06C578.035 454.06 577.623 453.984 577.271 453.832C576.927 453.672 576.663 453.456 576.479 453.184C576.295 452.904 576.203 452.584 576.203 452.224C576.203 451.896 576.279 451.6 576.431 451.336C576.591 451.064 576.847 450.848 577.199 450.688C577.559 450.52 578.039 450.436 578.639 450.436H580.811V451.072H578.663C578.055 451.072 577.631 451.18 577.391 451.396C577.159 451.612 577.043 451.88 577.043 452.2C577.043 452.56 577.183 452.848 577.463 453.064C577.743 453.28 578.135 453.388 578.639 453.388C579.119 453.388 579.531 453.28 579.875 453.064C580.227 452.84 580.483 452.52 580.643 452.104L580.835 452.692C580.675 453.108 580.395 453.44 579.995 453.688C579.603 453.936 579.107 454.06 578.507 454.06ZM587.015 454.06C586.471 454.06 585.979 453.936 585.539 453.688C585.099 453.432 584.747 453.068 584.483 452.596C584.227 452.116 584.099 451.532 584.099 450.844C584.099 450.156 584.227 449.576 584.483 449.104C584.739 448.624 585.087 448.26 585.527 448.012C585.967 447.764 586.463 447.64 587.015 447.64C587.615 447.64 588.151 447.776 588.623 448.048C589.103 448.312 589.479 448.688 589.751 449.176C590.023 449.656 590.159 450.212 590.159 450.844C590.159 451.484 590.023 452.044 589.751 452.524C589.479 453.004 589.103 453.38 588.623 453.652C588.151 453.924 587.615 454.06 587.015 454.06ZM583.763 456.328V447.7H584.579V449.596L584.495 450.856L584.615 452.128V456.328H583.763ZM586.955 453.304C587.403 453.304 587.803 453.204 588.155 453.004C588.507 452.796 588.787 452.508 588.995 452.14C589.203 451.764 589.307 451.332 589.307 450.844C589.307 450.356 589.203 449.928 588.995 449.56C588.787 449.192 588.507 448.904 588.155 448.696C587.803 448.488 587.403 448.384 586.955 448.384C586.507 448.384 586.103 448.488 585.743 448.696C585.391 448.904 585.111 449.192 584.903 449.56C584.703 449.928 584.603 450.356 584.603 450.844C584.603 451.332 584.703 451.764 584.903 452.14C585.111 452.508 585.391 452.796 585.743 453.004C586.103 453.204 586.507 453.304 586.955 453.304ZM592.955 454V448.216L593.171 448.444H590.567V447.7H596.195V448.444H593.591L593.807 448.216V454H592.955ZM601.339 454V452.608L601.303 452.38V450.052C601.303 449.516 601.151 449.104 600.847 448.816C600.551 448.528 600.107 448.384 599.515 448.384C599.107 448.384 598.719 448.452 598.351 448.588C597.983 448.724 597.671 448.904 597.415 449.128L597.031 448.492C597.351 448.22 597.735 448.012 598.183 447.868C598.631 447.716 599.103 447.64 599.599 447.64C600.415 447.64 601.043 447.844 601.483 448.252C601.931 448.652 602.155 449.264 602.155 450.088V454H601.339ZM599.167 454.06C598.695 454.06 598.283 453.984 597.931 453.832C597.587 453.672 597.323 453.456 597.139 453.184C596.955 452.904 596.863 452.584 596.863 452.224C596.863 451.896 596.939 451.6 597.091 451.336C597.251 451.064 597.507 450.848 597.859 450.688C598.219 450.52 598.699 450.436 599.299 450.436H601.471V451.072H599.323C598.715 451.072 598.291 451.18 598.051 451.396C597.819 451.612 597.703 451.88 597.703 452.2C597.703 452.56 597.843 452.848 598.123 453.064C598.403 453.28 598.795 453.388 599.299 453.388C599.779 453.388 600.191 453.28 600.535 453.064C600.887 452.84 601.143 452.52 601.303 452.104L601.495 452.692C601.335 453.108 601.055 453.44 600.655 453.688C600.263 453.936 599.767 454.06 599.167 454.06ZM603.271 453.988L603.331 453.256C603.387 453.264 603.439 453.276 603.487 453.292C603.543 453.3 603.591 453.304 603.631 453.304C603.887 453.304 604.091 453.208 604.243 453.016C604.403 452.824 604.523 452.568 604.603 452.248C604.683 451.928 604.739 451.568 604.771 451.168C604.803 450.76 604.831 450.352 604.855 449.944L604.963 447.7H609.583V454H608.731V448.192L608.947 448.444H605.515L605.719 448.18L605.623 450.004C605.599 450.548 605.555 451.068 605.491 451.564C605.435 452.06 605.343 452.496 605.215 452.872C605.095 453.248 604.927 453.544 604.711 453.76C604.495 453.968 604.219 454.072 603.883 454.072C603.787 454.072 603.687 454.064 603.583 454.048C603.487 454.032 603.383 454.012 603.271 453.988Z" fill="#333333"/>
<path d="M732.551 454.072C731.951 454.072 731.379 453.976 730.835 453.784C730.291 453.584 729.859 453.32 729.539 452.992L729.959 452.308C730.223 452.588 730.583 452.82 731.039 453.004C731.503 453.188 732.003 453.28 732.539 453.28C733.251 453.28 733.791 453.124 734.159 452.812C734.535 452.492 734.723 452.076 734.723 451.564C734.723 451.204 734.635 450.896 734.459 450.64C734.291 450.376 734.003 450.172 733.595 450.028C733.187 449.884 732.627 449.812 731.915 449.812H730.127L730.559 445.6H735.155V446.368H730.907L731.351 445.948L730.979 449.476L730.535 449.044H732.107C732.955 449.044 733.635 449.148 734.147 449.356C734.659 449.564 735.027 449.856 735.251 450.232C735.483 450.6 735.599 451.032 735.599 451.528C735.599 452 735.487 452.432 735.263 452.824C735.039 453.208 734.703 453.512 734.255 453.736C733.807 453.96 733.239 454.072 732.551 454.072ZM745.045 454L742.453 450.88L743.161 450.46L746.053 454H745.045ZM740.425 454V447.7H741.277V454H740.425ZM741.013 451.192V450.46H743.041V451.192H741.013ZM743.233 450.94L742.441 450.82L744.949 447.7H745.873L743.233 450.94ZM747.398 454V447.7H750.182C750.894 447.7 751.454 447.836 751.862 448.108C752.278 448.38 752.486 448.78 752.486 449.308C752.486 449.82 752.29 450.216 751.898 450.496C751.506 450.768 750.99 450.904 750.35 450.904L750.518 450.652C751.27 450.652 751.822 450.792 752.174 451.072C752.526 451.352 752.702 451.756 752.702 452.284C752.702 452.828 752.502 453.252 752.102 453.556C751.71 453.852 751.098 454 750.266 454H747.398ZM748.226 453.328H750.23C750.766 453.328 751.17 453.244 751.442 453.076C751.722 452.9 751.862 452.62 751.862 452.236C751.862 451.852 751.738 451.572 751.49 451.396C751.242 451.22 750.85 451.132 750.314 451.132H748.226V453.328ZM748.226 450.496H750.122C750.61 450.496 750.982 450.404 751.238 450.22C751.502 450.036 751.634 449.768 751.634 449.416C751.634 449.064 751.502 448.8 751.238 448.624C750.982 448.448 750.61 448.36 750.122 448.36H748.226V450.496ZM758.61 454V452.608L758.574 452.38V450.052C758.574 449.516 758.422 449.104 758.118 448.816C757.822 448.528 757.378 448.384 756.786 448.384C756.378 448.384 755.99 448.452 755.622 448.588C755.254 448.724 754.942 448.904 754.686 449.128L754.302 448.492C754.622 448.22 755.006 448.012 755.454 447.868C755.902 447.716 756.374 447.64 756.87 447.64C757.686 447.64 758.314 447.844 758.754 448.252C759.202 448.652 759.426 449.264 759.426 450.088V454H758.61ZM756.438 454.06C755.966 454.06 755.554 453.984 755.202 453.832C754.858 453.672 754.594 453.456 754.41 453.184C754.226 452.904 754.134 452.584 754.134 452.224C754.134 451.896 754.21 451.6 754.362 451.336C754.522 451.064 754.778 450.848 755.13 450.688C755.49 450.52 755.97 450.436 756.57 450.436H758.742V451.072H756.594C755.986 451.072 755.562 451.18 755.322 451.396C755.09 451.612 754.974 451.88 754.974 452.2C754.974 452.56 755.114 452.848 755.394 453.064C755.674 453.28 756.066 453.388 756.57 453.388C757.05 453.388 757.462 453.28 757.806 453.064C758.158 452.84 758.414 452.52 758.574 452.104L758.766 452.692C758.606 453.108 758.326 453.44 757.926 453.688C757.534 453.936 757.038 454.06 756.438 454.06ZM764.946 454.06C764.402 454.06 763.91 453.936 763.47 453.688C763.03 453.432 762.678 453.068 762.414 452.596C762.158 452.116 762.03 451.532 762.03 450.844C762.03 450.156 762.158 449.576 762.414 449.104C762.67 448.624 763.018 448.26 763.458 448.012C763.898 447.764 764.394 447.64 764.946 447.64C765.546 447.64 766.082 447.776 766.554 448.048C767.034 448.312 767.41 448.688 767.682 449.176C767.954 449.656 768.09 450.212 768.09 450.844C768.09 451.484 767.954 452.044 767.682 452.524C767.41 453.004 767.034 453.38 766.554 453.652C766.082 453.924 765.546 454.06 764.946 454.06ZM761.694 456.328V447.7H762.51V449.596L762.426 450.856L762.546 452.128V456.328H761.694ZM764.886 453.304C765.334 453.304 765.734 453.204 766.086 453.004C766.438 452.796 766.718 452.508 766.926 452.14C767.134 451.764 767.238 451.332 767.238 450.844C767.238 450.356 767.134 449.928 766.926 449.56C766.718 449.192 766.438 448.904 766.086 448.696C765.734 448.488 765.334 448.384 764.886 448.384C764.438 448.384 764.034 448.488 763.674 448.696C763.322 448.904 763.042 449.192 762.834 449.56C762.634 449.928 762.534 450.356 762.534 450.844C762.534 451.332 762.634 451.764 762.834 452.14C763.042 452.508 763.322 452.796 763.674 453.004C764.034 453.204 764.438 453.304 764.886 453.304ZM770.887 454V448.216L771.103 448.444H768.499V447.7H774.127V448.444H771.523L771.739 448.216V454H770.887ZM779.27 454V452.608L779.234 452.38V450.052C779.234 449.516 779.082 449.104 778.778 448.816C778.482 448.528 778.038 448.384 777.446 448.384C777.038 448.384 776.65 448.452 776.282 448.588C775.914 448.724 775.602 448.904 775.346 449.128L774.962 448.492C775.282 448.22 775.666 448.012 776.114 447.868C776.562 447.716 777.034 447.64 777.53 447.64C778.346 447.64 778.974 447.844 779.414 448.252C779.862 448.652 780.086 449.264 780.086 450.088V454H779.27ZM777.098 454.06C776.626 454.06 776.214 453.984 775.862 453.832C775.518 453.672 775.254 453.456 775.07 453.184C774.886 452.904 774.794 452.584 774.794 452.224C774.794 451.896 774.87 451.6 775.022 451.336C775.182 451.064 775.438 450.848 775.79 450.688C776.15 450.52 776.63 450.436 777.23 450.436H779.402V451.072H777.254C776.646 451.072 776.222 451.18 775.982 451.396C775.75 451.612 775.634 451.88 775.634 452.2C775.634 452.56 775.774 452.848 776.054 453.064C776.334 453.28 776.726 453.388 777.23 453.388C777.71 453.388 778.122 453.28 778.466 453.064C778.818 452.84 779.074 452.52 779.234 452.104L779.426 452.692C779.266 453.108 778.986 453.44 778.586 453.688C778.194 453.936 777.698 454.06 777.098 454.06ZM781.203 453.988L781.263 453.256C781.319 453.264 781.371 453.276 781.419 453.292C781.475 453.3 781.523 453.304 781.563 453.304C781.819 453.304 782.023 453.208 782.175 453.016C782.335 452.824 782.455 452.568 782.535 452.248C782.615 451.928 782.671 451.568 782.703 451.168C782.735 450.76 782.763 450.352 782.787 449.944L782.895 447.7H787.515V454H786.663V448.192L786.879 448.444H783.447L783.651 448.18L783.555 450.004C783.531 450.548 783.487 451.068 783.423 451.564C783.367 452.06 783.275 452.496 783.147 452.872C783.027 453.248 782.859 453.544 782.643 453.76C782.427 453.968 782.151 454.072 781.815 454.072C781.719 454.072 781.619 454.064 781.515 454.048C781.419 454.032 781.315 454.012 781.203 453.988Z" fill="#333333"/>
<path d="M914.086 454.072C913.342 454.072 912.714 453.908 912.202 453.58C911.69 453.244 911.302 452.764 911.038 452.14C910.774 451.508 910.642 450.752 910.642 449.872C910.642 448.92 910.802 448.124 911.122 447.484C911.45 446.836 911.902 446.348 912.478 446.02C913.054 445.692 913.722 445.528 914.482 445.528C914.858 445.528 915.218 445.564 915.562 445.636C915.906 445.708 916.21 445.824 916.474 445.984L916.126 446.68C915.91 446.536 915.662 446.436 915.382 446.38C915.102 446.316 914.806 446.284 914.494 446.284C913.59 446.284 912.866 446.572 912.322 447.148C911.786 447.724 911.518 448.584 911.518 449.728C911.518 449.904 911.526 450.124 911.542 450.388C911.566 450.644 911.614 450.9 911.686 451.156L911.386 450.928C911.474 450.512 911.646 450.16 911.902 449.872C912.158 449.576 912.478 449.352 912.862 449.2C913.246 449.048 913.666 448.972 914.122 448.972C914.682 448.972 915.174 449.076 915.598 449.284C916.022 449.492 916.354 449.784 916.594 450.16C916.834 450.536 916.954 450.98 916.954 451.492C916.954 452.012 916.83 452.468 916.582 452.86C916.334 453.244 915.99 453.544 915.55 453.76C915.118 453.968 914.63 454.072 914.086 454.072ZM914.05 453.34C914.45 453.34 914.802 453.268 915.106 453.124C915.418 452.972 915.662 452.76 915.838 452.488C916.014 452.208 916.102 451.884 916.102 451.516C916.102 450.964 915.91 450.524 915.526 450.196C915.15 449.868 914.638 449.704 913.99 449.704C913.558 449.704 913.182 449.784 912.862 449.944C912.542 450.104 912.29 450.324 912.106 450.604C911.922 450.876 911.83 451.188 911.83 451.54C911.83 451.844 911.914 452.136 912.082 452.416C912.25 452.688 912.498 452.912 912.826 453.088C913.162 453.256 913.57 453.34 914.05 453.34ZM926.303 454L923.711 450.88L924.419 450.46L927.311 454H926.303ZM921.683 454V447.7H922.535V454H921.683ZM922.271 451.192V450.46H924.299V451.192H922.271ZM924.491 450.94L923.699 450.82L926.207 447.7H927.131L924.491 450.94ZM928.655 454V447.7H931.439C932.151 447.7 932.711 447.836 933.119 448.108C933.535 448.38 933.743 448.78 933.743 449.308C933.743 449.82 933.547 450.216 933.155 450.496C932.763 450.768 932.247 450.904 931.607 450.904L931.775 450.652C932.527 450.652 933.079 450.792 933.431 451.072C933.783 451.352 933.959 451.756 933.959 452.284C933.959 452.828 933.759 453.252 933.359 453.556C932.967 453.852 932.355 454 931.523 454H928.655ZM929.483 453.328H931.487C932.023 453.328 932.427 453.244 932.699 453.076C932.979 452.9 933.119 452.62 933.119 452.236C933.119 451.852 932.995 451.572 932.747 451.396C932.499 451.22 932.107 451.132 931.571 451.132H929.483V453.328ZM929.483 450.496H931.379C931.867 450.496 932.239 450.404 932.495 450.22C932.759 450.036 932.891 449.768 932.891 449.416C932.891 449.064 932.759 448.8 932.495 448.624C932.239 448.448 931.867 448.36 931.379 448.36H929.483V450.496ZM939.868 454V452.608L939.832 452.38V450.052C939.832 449.516 939.68 449.104 939.376 448.816C939.08 448.528 938.636 448.384 938.044 448.384C937.636 448.384 937.248 448.452 936.88 448.588C936.512 448.724 936.2 448.904 935.944 449.128L935.56 448.492C935.88 448.22 936.264 448.012 936.712 447.868C937.16 447.716 937.632 447.64 938.128 447.64C938.944 447.64 939.572 447.844 940.012 448.252C940.46 448.652 940.684 449.264 940.684 450.088V454H939.868ZM937.696 454.06C937.224 454.06 936.812 453.984 936.46 453.832C936.116 453.672 935.852 453.456 935.668 453.184C935.484 452.904 935.392 452.584 935.392 452.224C935.392 451.896 935.468 451.6 935.62 451.336C935.78 451.064 936.036 450.848 936.388 450.688C936.748 450.52 937.228 450.436 937.828 450.436H940V451.072H937.852C937.244 451.072 936.82 451.18 936.58 451.396C936.348 451.612 936.232 451.88 936.232 452.2C936.232 452.56 936.372 452.848 936.652 453.064C936.932 453.28 937.324 453.388 937.828 453.388C938.308 453.388 938.72 453.28 939.064 453.064C939.416 452.84 939.672 452.52 939.832 452.104L940.024 452.692C939.864 453.108 939.584 453.44 939.184 453.688C938.792 453.936 938.296 454.06 937.696 454.06ZM946.204 454.06C945.66 454.06 945.168 453.936 944.728 453.688C944.288 453.432 943.936 453.068 943.672 452.596C943.416 452.116 943.288 451.532 943.288 450.844C943.288 450.156 943.416 449.576 943.672 449.104C943.928 448.624 944.276 448.26 944.716 448.012C945.156 447.764 945.652 447.64 946.204 447.64C946.804 447.64 947.34 447.776 947.812 448.048C948.292 448.312 948.668 448.688 948.94 449.176C949.212 449.656 949.348 450.212 949.348 450.844C949.348 451.484 949.212 452.044 948.94 452.524C948.668 453.004 948.292 453.38 947.812 453.652C947.34 453.924 946.804 454.06 946.204 454.06ZM942.952 456.328V447.7H943.768V449.596L943.684 450.856L943.804 452.128V456.328H942.952ZM946.144 453.304C946.592 453.304 946.992 453.204 947.344 453.004C947.696 452.796 947.976 452.508 948.184 452.14C948.392 451.764 948.496 451.332 948.496 450.844C948.496 450.356 948.392 449.928 948.184 449.56C947.976 449.192 947.696 448.904 947.344 448.696C946.992 448.488 946.592 448.384 946.144 448.384C945.696 448.384 945.292 448.488 944.932 448.696C944.58 448.904 944.3 449.192 944.092 449.56C943.892 449.928 943.792 450.356 943.792 450.844C943.792 451.332 943.892 451.764 944.092 452.14C944.3 452.508 944.58 452.796 944.932 453.004C945.292 453.204 945.696 453.304 946.144 453.304ZM952.144 454V448.216L952.36 448.444H949.756V447.7H955.384V448.444H952.78L952.996 448.216V454H952.144ZM960.528 454V452.608L960.492 452.38V450.052C960.492 449.516 960.34 449.104 960.036 448.816C959.74 448.528 959.296 448.384 958.704 448.384C958.296 448.384 957.908 448.452 957.54 448.588C957.172 448.724 956.86 448.904 956.604 449.128L956.22 448.492C956.54 448.22 956.924 448.012 957.372 447.868C957.82 447.716 958.292 447.64 958.788 447.64C959.604 447.64 960.232 447.844 960.672 448.252C961.12 448.652 961.344 449.264 961.344 450.088V454H960.528ZM958.356 454.06C957.884 454.06 957.472 453.984 957.12 453.832C956.776 453.672 956.512 453.456 956.328 453.184C956.144 452.904 956.052 452.584 956.052 452.224C956.052 451.896 956.128 451.6 956.28 451.336C956.44 451.064 956.696 450.848 957.048 450.688C957.408 450.52 957.888 450.436 958.488 450.436H960.66V451.072H958.512C957.904 451.072 957.48 451.18 957.24 451.396C957.008 451.612 956.892 451.88 956.892 452.2C956.892 452.56 957.032 452.848 957.312 453.064C957.592 453.28 957.984 453.388 958.488 453.388C958.968 453.388 959.38 453.28 959.724 453.064C960.076 452.84 960.332 452.52 960.492 452.104L960.684 452.692C960.524 453.108 960.244 453.44 959.844 453.688C959.452 453.936 958.956 454.06 958.356 454.06ZM962.46 453.988L962.52 453.256C962.576 453.264 962.628 453.276 962.676 453.292C962.732 453.3 962.78 453.304 962.82 453.304C963.076 453.304 963.28 453.208 963.432 453.016C963.592 452.824 963.712 452.568 963.792 452.248C963.872 451.928 963.928 451.568 963.96 451.168C963.992 450.76 964.02 450.352 964.044 449.944L964.152 447.7H968.772V454H967.92V448.192L968.136 448.444H964.704L964.908 448.18L964.812 450.004C964.788 450.548 964.744 451.068 964.68 451.564C964.624 452.06 964.532 452.496 964.404 452.872C964.284 453.248 964.116 453.544 963.9 453.76C963.684 453.968 963.408 454.072 963.072 454.072C962.976 454.072 962.876 454.064 962.772 454.048C962.676 454.032 962.572 454.012 962.46 453.988Z" fill="#333333"/>
<defs>
<filter id="filter0_d_636_3088" x="911" y="0" width="58" height="58" filterUnits="userSpaceOnUse" color-interpolation-filters="sRGB">
<feFlood flood-opacity="0" result="BackgroundImageFix"/>
<feColorMatrix in="SourceAlpha" type="matrix" values="0 0 0 0 0 0 0 0 0 0 0 0 0 0 0 0 0 0 127 0" result="hardAlpha"/>
<feOffset dy="6"/>
<feGaussianBlur stdDeviation="4.5"/>
<feComposite in2="hardAlpha" operator="out"/>
<feColorMatrix type="matrix" values="0 0 0 0 0 0 0 0 0 0 0 0 0 0 0 0 0 0 0.05 0"/>
<feBlend mode="normal" in2="BackgroundImageFix" result="effect1_dropShadow_636_3088"/>
<feBlend mode="normal" in="SourceGraphic" in2="effect1_dropShadow_636_3088" result="shape"/>
</filter>
<filter id="filter1_d_636_3088" x="731" y="47" width="58" height="58" filterUnits="userSpaceOnUse" color-interpolation-filters="sRGB">
<feFlood flood-opacity="0" result="BackgroundImageFix"/>
<feColorMatrix in="SourceAlpha" type="matrix" values="0 0 0 0 0 0 0 0 0 0 0 0 0 0 0 0 0 0 127 0" result="hardAlpha"/>
<feOffset dy="6"/>
<feGaussianBlur stdDeviation="4.5"/>
<feComposite in2="hardAlpha" operator="out"/>
<feColorMatrix type="matrix" values="0 0 0 0 0 0 0 0 0 0 0 0 0 0 0 0 0 0 0.05 0"/>
<feBlend mode="normal" in2="BackgroundImageFix" result="effect1_dropShadow_636_3088"/>
<feBlend mode="normal" in="SourceGraphic" in2="effect1_dropShadow_636_3088" result="shape"/>
</filter>
<filter id="filter2_d_636_3088" x="551" y="94" width="58" height="58" filterUnits="userSpaceOnUse" color-interpolation-filters="sRGB">
<feFlood flood-opacity="0" result="BackgroundImageFix"/>
<feColorMatrix in="SourceAlpha" type="matrix" values="0 0 0 0 0 0 0 0 0 0 0 0 0 0 0 0 0 0 127 0" result="hardAlpha"/>
<feOffset dy="6"/>
<feGaussianBlur stdDeviation="4.5"/>
<feComposite in2="hardAlpha" operator="out"/>
<feColorMatrix type="matrix" values="0 0 0 0 0 0 0 0 0 0 0 0 0 0 0 0 0 0 0.05 0"/>
<feBlend mode="normal" in2="BackgroundImageFix" result="effect1_dropShadow_636_3088"/>
<feBlend mode="normal" in="SourceGraphic" in2="effect1_dropShadow_636_3088" result="shape"/>
</filter>
<filter id="filter3_d_636_3088" x="371" y="152" width="58" height="58" filterUnits="userSpaceOnUse" color-interpolation-filters="sRGB">
<feFlood flood-opacity="0" result="BackgroundImageFix"/>
<feColorMatrix in="SourceAlpha" type="matrix" values="0 0 0 0 0 0 0 0 0 0 0 0 0 0 0 0 0 0 127 0" result="hardAlpha"/>
<feOffset dy="6"/>
<feGaussianBlur stdDeviation="4.5"/>
<feComposite in2="hardAlpha" operator="out"/>
<feColorMatrix type="matrix" values="0 0 0 0 0 0 0 0 0 0 0 0 0 0 0 0 0 0 0.05 0"/>
<feBlend mode="normal" in2="BackgroundImageFix" result="effect1_dropShadow_636_3088"/>
<feBlend mode="normal" in="SourceGraphic" in2="effect1_dropShadow_636_3088" result="shape"/>
</filter>
<filter id="filter4_d_636_3088" x="191" y="218" width="58" height="58" filterUnits="userSpaceOnUse" color-interpolation-filters="sRGB">
<feFlood flood-opacity="0" result="BackgroundImageFix"/>
<feColorMatrix in="SourceAlpha" type="matrix" values="0 0 0 0 0 0 0 0 0 0 0 0 0 0 0 0 0 0 127 0" result="hardAlpha"/>
<feOffset dy="6"/>
<feGaussianBlur stdDeviation="4.5"/>
<feComposite in2="hardAlpha" operator="out"/>
<feColorMatrix type="matrix" values="0 0 0 0 0 0 0 0 0 0 0 0 0 0 0 0 0 0 0.05 0"/>
<feBlend mode="normal" in2="BackgroundImageFix" result="effect1_dropShadow_636_3088"/>
<feBlend mode="normal" in="SourceGraphic" in2="effect1_dropShadow_636_3088" result="shape"/>
</filter>
<filter id="filter5_d_636_3088" x="11" y="236" width="58" height="58" filterUnits="userSpaceOnUse" color-interpolation-filters="sRGB">
<feFlood flood-opacity="0" result="BackgroundImageFix"/>
<feColorMatrix in="SourceAlpha" type="matrix" values="0 0 0 0 0 0 0 0 0 0 0 0 0 0 0 0 0 0 127 0" result="hardAlpha"/>
<feOffset dy="6"/>
<feGaussianBlur stdDeviation="4.5"/>
<feComposite in2="hardAlpha" operator="out"/>
<feColorMatrix type="matrix" values="0 0 0 0 0 0 0 0 0 0 0 0 0 0 0 0 0 0 0.05 0"/>
<feBlend mode="normal" in2="BackgroundImageFix" result="effect1_dropShadow_636_3088"/>
<feBlend mode="normal" in="SourceGraphic" in2="effect1_dropShadow_636_3088" result="shape"/>
</filter>
<linearGradient id="paint0_linear_636_3088" x1="230.29" y1="24" x2="294.795" y2="296.357" gradientUnits="userSpaceOnUse">
<stop stop-color="#F67803"/>
<stop offset="1" stop-color="#FFD644"/>
</linearGradient>
<linearGradient id="paint1_linear_636_3088" x1="940" y1="3" x2="940" y2="43" gradientUnits="userSpaceOnUse">
<stop stop-color="white"/>
<stop offset="1" stop-color="#E6E6E6"/>
</linearGradient>
<linearGradient id="paint2_linear_636_3088" x1="934.194" y1="13" x2="946.43" y2="26.4627" gradientUnits="userSpaceOnUse">
<stop stop-color="#F67803"/>
<stop offset="1" stop-color="#FFD644"/>
</linearGradient>
<linearGradient id="paint3_linear_636_3088" x1="760" y1="50" x2="760" y2="90" gradientUnits="userSpaceOnUse">
<stop stop-color="white"/>
<stop offset="1" stop-color="#E6E6E6"/>
</linearGradient>
<linearGradient id="paint4_linear_636_3088" x1="754.194" y1="60" x2="766.43" y2="73.4627" gradientUnits="userSpaceOnUse">
<stop stop-color="#F67803"/>
<stop offset="1" stop-color="#FFD644"/>
</linearGradient>
<linearGradient id="paint5_linear_636_3088" x1="580" y1="97" x2="580" y2="137" gradientUnits="userSpaceOnUse">
<stop stop-color="white"/>
<stop offset="1" stop-color="#E6E6E6"/>
</linearGradient>
<linearGradient id="paint6_linear_636_3088" x1="574.194" y1="107" x2="586.43" y2="120.463" gradientUnits="userSpaceOnUse">
<stop stop-color="#F67803"/>
<stop offset="1" stop-color="#FFD644"/>
</linearGradient>
<linearGradient id="paint7_linear_636_3088" x1="400" y1="155" x2="400" y2="195" gradientUnits="userSpaceOnUse">
<stop stop-color="white"/>
<stop offset="1" stop-color="#E6E6E6"/>
</linearGradient>
<linearGradient id="paint8_linear_636_3088" x1="394.194" y1="165" x2="406.43" y2="178.463" gradientUnits="userSpaceOnUse">
<stop stop-color="#F67803"/>
<stop offset="1" stop-color="#FFD644"/>
</linearGradient>
<linearGradient id="paint9_linear_636_3088" x1="220" y1="221" x2="220" y2="261" gradientUnits="userSpaceOnUse">
<stop stop-color="white"/>
<stop offset="1" stop-color="#E6E6E6"/>
</linearGradient>
<linearGradient id="paint10_linear_636_3088" x1="214.194" y1="231" x2="226.43" y2="244.463" gradientUnits="userSpaceOnUse">
<stop stop-color="#F67803"/>
<stop offset="1" stop-color="#FFD644"/>
</linearGradient>
<linearGradient id="paint11_linear_636_3088" x1="40" y1="239" x2="40" y2="279" gradientUnits="userSpaceOnUse">
<stop stop-color="white"/>
<stop offset="1" stop-color="#E6E6E6"/>
</linearGradient>
<linearGradient id="paint12_linear_636_3088" x1="34.1935" y1="249" x2="46.4298" y2="262.463" gradientUnits="userSpaceOnUse">
<stop stop-color="#F67803"/>
<stop offset="1" stop-color="#FFD644"/>
</linearGradient>
</defs>
</svg>
