<svg width="41" height="40" viewBox="0 0 41 40" fill="none" xmlns="http://www.w3.org/2000/svg">
<g id="Frame 9693">
<g id="Group 2973">
<path id="Vector" d="M20.2161 29.9744C28.5078 29.9744 35.2524 23.2281 35.2524 14.938C34.4956 -4.98184 5.93318 -4.97683 5.17969 14.938C5.17969 23.2281 11.9243 29.9744 20.2161 29.9744ZM17.5797 5.20613C18.0692 2.72847 21.7514 2.59816 22.413 5.03405C24.0553 5.35316 25.5155 6.36059 26.3693 7.8375C27.9982 10.6827 23.6828 13.1771 22.0304 10.3469C21.8784 10.0846 21.6078 9.92755 21.3054 9.92755H19.3322C18.2814 9.89748 17.9806 11.4579 18.9664 11.8171L22.9376 13.4076C28.1553 15.3473 27.7476 23.2097 22.4648 24.6715C21.9736 27.1475 18.2931 27.2795 17.6315 24.8436C15.9892 24.5245 14.529 23.5171 13.6752 22.0402C12.9819 20.8423 13.3912 19.3086 14.5891 18.6152C15.7853 17.9236 17.3207 18.3329 18.0124 19.5308C18.1644 19.7931 18.4351 19.9501 18.7375 19.9501H20.7106C21.7615 19.9802 22.0622 18.4198 21.0765 18.0606L17.1052 16.47C11.8876 14.5303 12.2969 6.668 17.5797 5.20613Z" fill="#FFB92B"/>
<path id="Vector_2" d="M40.071 32.4803C40.071 36.6253 36.6979 39.9985 32.5528 39.9985H7.49389C0.722518 40.1271 -2.63895 31.2874 2.4801 26.8768C3.51093 25.9495 5.09309 26.0364 6.01866 27.0706C6.94256 28.1014 6.85401 29.6852 5.82486 30.6091C4.11071 32.0443 5.25348 35.0549 7.49389 34.9847H32.5545C34.7949 35.0549 35.9377 32.0443 34.2235 30.6091C33.1927 29.6852 33.1058 28.1014 34.0297 27.0706C34.9536 26.0381 36.5375 25.9512 37.5683 26.8768C39.1605 28.3035 40.071 30.3452 40.071 32.4803Z" fill="#F65A03"/>
</g>
</g>
</svg>
