<svg width="40" height="40" viewBox="0 0 40 40" fill="none" xmlns="http://www.w3.org/2000/svg">
<g id="Frame 9694">
<g id="Group 3019">
<path id="Vector" d="M28.3817 20C31.77 23.2867 35 28.0617 35 34.3183C35 37.4517 32.4517 40 29.3183 40H10.6817C7.54833 40 5 37.45 5 34.3167C5 28.06 8.24167 23.285 11.6433 19.9983C8.24167 16.7133 5 11.94 5 5.68167V0H35V5.68167C35 11.9367 31.77 16.7133 28.3817 20ZM30 5H10V5.68167C10 11.3233 13.8017 15.515 16.9917 18.0383L19.47 19.9983L16.9917 21.9583C13.8017 24.4817 10 28.675 10 34.3167C10 34.6933 10.3067 34.9983 10.6817 34.9983H29.3183C29.695 34.9983 30 34.6933 30 34.3167C30 28.675 26.215 24.4817 23.0383 21.955L20.5783 19.9983L23.0383 18.0417C26.2133 15.515 30 11.3217 30 5.68V5Z" fill="#F65A03"/>
<path id="Vector_2" d="M20.0227 23.8163L20.966 24.5663H20.9677C23.0077 26.1896 25.3577 28.6163 26.2744 31.668H13.7344C14.656 28.6213 17.0144 26.198 19.0627 24.5763L20.0227 23.8163Z" fill="#FFB92B"/>
</g>
</g>
</svg>
