<svg width="48" height="48" viewBox="0 0 48 48" fill="none" xmlns="http://www.w3.org/2000/svg">
<g id="varification">
<path id="Oval Copy 4" fill-rule="evenodd" clip-rule="evenodd" d="M24 48C37.2548 48 48 37.2548 48 24C48 10.7452 37.2548 0 24 0C10.7452 0 0 10.7452 0 24C0 37.2548 10.7452 48 24 48Z" fill="url(#paint0_linear_2442_802)"/>
<path id="Subtract" fill-rule="evenodd" clip-rule="evenodd" d="M34.2927 21.5637C34.3551 21.7508 34.8534 22.1457 35.1528 22.3823L35.1546 22.3838C35.8874 22.9654 36.7999 23.6897 36.7999 24.7958C36.7999 25.9121 35.8743 26.6584 35.1295 27.2579L35.1143 27.2702C34.8197 27.5081 34.3424 27.8935 34.28 28.0693C34.222 28.2549 34.382 28.8719 34.4784 29.2432L34.4789 29.2455C34.7254 30.1954 35.0047 31.2734 34.3541 32.1447C33.709 33.0102 32.5866 33.085 31.5958 33.1511L31.5898 33.1515C31.192 33.1773 30.5266 33.2207 30.3584 33.3417C30.1899 33.4626 29.9455 34.0496 29.7946 34.412L29.7871 34.43L29.7849 34.4353C29.412 35.3332 28.9906 36.348 27.958 36.6915C26.9105 37.042 25.9229 36.4283 25.1306 35.9359L25.124 35.9318C24.7664 35.7086 24.2248 35.3716 23.9994 35.3716C23.7712 35.3716 23.2299 35.7058 22.8649 35.9311L22.8537 35.938L22.8406 35.9461C22.1818 36.3513 21.4521 36.8 20.6618 36.8C20.4608 36.8 20.2545 36.7711 20.0461 36.7039C19.0076 36.3764 18.5834 35.3518 18.209 34.4477L18.2085 34.4465L18.2081 34.4455C18.0568 34.0805 17.8053 33.4738 17.6383 33.355C17.4764 33.2398 16.8547 33.1975 16.4592 33.1705C16.4464 33.1696 16.4339 33.1688 16.4217 33.1679L16.4194 33.1678C15.4751 33.1058 14.3022 33.0287 13.6352 32.1674C12.9516 31.2817 13.2515 30.1547 13.4925 29.2488L13.4935 29.2455C13.5929 28.8764 13.7579 28.2584 13.6945 28.0682C13.6299 27.8759 13.1528 27.4883 12.8365 27.232C12.1077 26.6408 11.2 25.9038 11.2 24.7948C11.2 23.6795 12.1239 22.9346 12.8674 22.3353L12.8694 22.3337L12.8753 22.329C13.17 22.0918 13.6569 21.6999 13.72 21.5223C13.7781 21.3386 13.62 20.7312 13.5221 20.355C13.5204 20.3482 13.5186 20.3414 13.5169 20.3347C13.2693 19.3931 12.989 18.3264 13.6142 17.4613C14.2507 16.5813 15.3827 16.5064 16.3819 16.4403L16.3838 16.4401C16.7837 16.4143 17.4533 16.3709 17.6205 16.25C17.7905 16.1279 18.0377 15.5324 18.1883 15.1698L18.1917 15.1616L18.1957 15.152C18.5682 14.2572 18.9898 13.2441 20.0219 12.9011C21.0745 12.5518 22.0731 13.1802 22.8718 13.6877L22.8775 13.6913C23.2393 13.9208 23.7796 14.2634 23.9995 14.2634C24.2271 14.2634 24.767 13.9311 25.133 13.7058L25.1473 13.697L25.148 13.6965C25.9783 13.183 26.9217 12.5994 27.9539 12.929C28.9917 13.2557 29.417 14.281 29.7904 15.1854C29.9417 15.5503 30.1945 16.159 30.3627 16.2779C30.5249 16.393 31.1564 16.4361 31.5515 16.4631L31.5793 16.465L31.5817 16.4652C32.5292 16.5272 33.7073 16.6043 34.3626 17.4769C35.0212 18.3559 34.728 19.4722 34.4922 20.3701L34.4916 20.372C34.3932 20.7441 34.2293 21.3694 34.2927 21.5637ZM32.2743 27.416C32.5261 26.677 33.1661 26.1612 33.785 25.664L33.7942 25.6566C34.0849 25.4214 34.6067 24.9994 34.681 24.8001C34.6047 24.6128 34.1219 24.2283 33.8427 24.006L33.8209 23.9887C33.219 23.5122 32.5366 22.9716 32.2817 22.2016C32.0292 21.438 32.2481 20.6013 32.4415 19.8622L32.4425 19.8584C32.5419 19.4843 32.7059 18.8558 32.6413 18.6739C32.5166 18.6002 31.8533 18.5558 31.4501 18.5289L31.4396 18.5282C30.625 18.4755 29.784 18.4207 29.1249 17.9556C28.4617 17.4896 28.1401 16.7136 27.8292 15.9633L27.829 15.9629L27.8262 15.9561C27.6757 15.5936 27.427 14.9947 27.2652 14.8807C27.1495 14.9054 26.6099 15.2391 26.2834 15.4411L26.2771 15.445C25.6064 15.8595 24.8436 16.3308 24.0005 16.3308C23.1531 16.3308 22.3914 15.8481 21.7207 15.4223L21.714 15.418C21.3884 15.2118 20.8508 14.8713 20.6565 14.8682C20.5592 14.9602 20.3042 15.5721 20.154 15.9391C19.8461 16.6812 19.5277 17.4481 18.8707 17.9184C18.2074 18.3928 17.3516 18.4496 16.5254 18.5034C16.1318 18.5292 15.4738 18.5727 15.312 18.6863C15.2995 18.8052 15.4609 19.421 15.5609 19.8022L15.5659 19.8212L15.5678 19.8285C15.7724 20.6118 15.984 21.4215 15.7256 22.1768C15.4738 22.9158 14.8338 23.4316 14.2149 23.9298C13.9166 24.1685 13.3612 24.616 13.3136 24.8104C13.359 24.9692 13.8975 25.407 14.1877 25.643L14.1896 25.6445C14.7831 26.1261 15.4548 26.6729 15.7077 27.4347C15.9586 28.195 15.7376 29.0272 15.5424 29.7624L15.5405 29.7696C15.44 30.1417 15.2739 30.767 15.3395 30.9499C15.4686 31.0357 16.1806 31.0822 16.5625 31.107C17.376 31.1597 18.216 31.2145 18.875 31.6786C19.5383 32.1448 19.8599 32.921 20.1709 33.6724L20.1776 33.6885C20.3284 34.0518 20.5732 34.6415 20.7348 34.7546C20.8446 34.7312 21.3372 34.4277 21.6662 34.2251C21.6857 34.2131 21.7046 34.2015 21.7228 34.1903L21.7287 34.1866C22.4 33.772 23.1587 33.3034 24.0005 33.3034C24.841 33.3034 25.5932 33.7708 26.2571 34.1833L26.2633 34.1871L26.2895 34.2034C26.6144 34.4054 27.1295 34.7256 27.3169 34.7256C27.4217 34.6326 27.6756 34.0197 27.8258 33.6538L27.826 33.6533C28.1338 32.9113 28.4522 32.1436 29.1091 31.6734C29.7713 31.1987 30.6603 31.1402 31.4454 31.0886L31.4491 31.0884C31.8458 31.0636 32.5091 31.0191 32.6699 30.9013C32.6919 30.7713 32.5302 30.1465 32.4315 29.765L32.4287 29.754L32.4281 29.7518C32.2263 28.9731 32.0174 28.1677 32.2743 27.416Z" fill="white"/>
<path id="Path" d="M28.7303 20.9012C28.2796 20.5332 27.6142 20.5931 27.2408 21.0304L22.5236 26.5405L20.5168 24.5808C20.1031 24.1767 19.4345 24.1767 19.0209 24.5808C18.6073 24.985 18.6073 25.6382 19.0209 26.0423L21.8455 28.802C22.0433 28.9974 22.3131 29.1048 22.5935 29.1048C22.6083 29.1048 22.6242 29.1048 22.639 29.1028C22.9373 29.0904 23.2134 28.956 23.4038 28.7338L28.8625 22.3564C29.237 21.9182 29.1788 21.2671 28.7303 20.9012Z" fill="white"/>
</g>
<defs>
<linearGradient id="paint0_linear_2442_802" x1="10.0645" y1="2.27397e-07" x2="39.4314" y2="32.3104" gradientUnits="userSpaceOnUse">
<stop stop-color="#F65A03"/>
<stop offset="1" stop-color="#FFB92B"/>
</linearGradient>
</defs>
</svg>
