<svg width="16" height="16" viewBox="0 0 16 16" fill="none" xmlns="http://www.w3.org/2000/svg">
<g clip-path="url(#clip0_544_4458)">
<path fill-rule="evenodd" clip-rule="evenodd" d="M14.2656 0.0120494C14.5906 0.0182994 14.9438 0.0401744 15.0469 0.0589244C15.15 0.0807994 15.3562 0.124549 15.7812 0.218299L15.8469 0.508924C15.8813 0.665174 15.9313 0.943299 15.9563 1.12455C15.9781 1.3058 16 1.59955 16 1.7808C16 1.96205 15.9781 2.2558 15.9563 2.43705C15.9313 2.6183 15.8844 2.88392 15.85 3.0308C15.8156 3.17767 15.7344 3.43705 15.6719 3.60892C15.6062 3.7808 15.5062 4.01517 15.45 4.13392C15.3906 4.24955 15.2844 4.43705 15.2156 4.55267C15.1438 4.67142 15.0063 4.87142 14.9125 4.99955C14.8156 5.12767 14.1375 5.83705 12.0625 7.92142V10.0558C12.0625 12.062 12.0594 12.2058 12 12.4995C11.9656 12.6714 11.8938 12.9214 11.8406 13.0558C11.7875 13.187 11.6781 13.4089 11.6 13.5464C11.475 13.7589 11.2937 13.9558 9.26562 15.9995L7.95312 14.687L6.64062 15.9995L0 9.35892L1.3125 8.04642L0 6.73392L1.1 5.64017C2.04375 4.7058 2.24062 4.52455 2.45312 4.39955C2.59063 4.32142 2.8125 4.21205 2.94688 4.15892C3.07812 4.1058 3.32812 4.03392 3.5 3.99955C3.79375 3.94017 3.9375 3.93705 8.07812 3.93705L9.42188 2.59955C10.1594 1.86205 10.8719 1.18392 11 1.08705C11.1281 0.993299 11.3313 0.852674 11.4531 0.780799C11.575 0.705799 11.8 0.587049 11.9531 0.512049C12.1062 0.440174 12.3625 0.337049 12.5156 0.280799C12.6687 0.227674 12.9937 0.143299 13.2344 0.0932994C13.6438 0.00892439 13.7094 0.0026744 14.2656 0.0120494ZM13.1406 1.0808C12.9688 1.12455 12.6812 1.22142 12.5 1.29642C12.3188 1.37142 12.0219 1.53392 11.8375 1.6558C11.65 1.77455 11.5 1.88392 11.5 1.89642C11.5 1.91205 12.0813 2.50267 12.7875 3.20892C13.4969 3.9183 14.0875 4.49955 14.1031 4.49955C14.1156 4.49955 14.2094 4.3683 14.3156 4.20892C14.4219 4.05267 14.5594 3.80892 14.625 3.67142C14.6906 3.53392 14.7812 3.30892 14.8281 3.17142C14.875 3.03392 14.9406 2.78705 14.975 2.62455C15.0219 2.4058 15.0406 2.19955 15.0437 1.8433C15.0437 1.57767 15.0375 1.27767 15.0219 1.17767C15 1.0058 14.9969 0.999549 14.8969 0.983924C14.8438 0.977674 14.5938 0.962049 14.3438 0.955799C14.0938 0.946424 13.7937 0.952674 13.6719 0.971424C13.55 0.987049 13.3125 1.03705 13.1406 1.0808ZM10.1406 3.2183L12.7812 5.85892L13.4531 5.18705C11.4187 3.15267 10.8219 2.56205 10.8125 2.56205C10.8031 2.56205 10.6469 2.70892 10.4688 2.89017L10.1406 3.2183ZM3.98438 9.37455L6.625 12.0152L12.125 6.51517L9.48438 3.87455L3.98438 9.37455ZM3.53125 4.9558C3.41875 4.98392 3.22187 5.06205 3.09375 5.12767C2.9625 5.1933 2.81562 5.28392 2.76562 5.32455L2.67188 5.40267L4.64062 7.37455L7.14062 4.87455C4.59688 4.8808 3.83125 4.88705 3.79688 4.8933C3.7625 4.90267 3.64062 4.9308 3.53125 4.9558ZM1.32812 6.7183L3.3125 8.70267L3.96875 8.04642L1.98438 6.06205L1.32812 6.7183ZM1.32812 9.37455L1.98438 10.0308L2.64062 9.37455L1.98125 8.7183L1.32812 9.37455ZM8.625 11.3589L10.6 13.3277C10.7188 13.1808 10.8156 13.012 10.8906 12.8589C10.975 12.687 11.05 12.4777 11.0781 12.3277C11.1219 12.1152 11.1281 11.8339 11.1187 10.4683L11.1094 8.85892L8.625 11.3589ZM2.65625 10.7027L5.29688 13.3433L5.95312 12.687C3.91875 10.6527 3.32188 10.062 3.3125 10.062C3.30312 10.062 3.15313 10.2058 2.97813 10.3808L2.65625 10.7027ZM7.29375 12.687L9.27812 14.6714L9.9375 14.0152L7.95 12.0308L7.29375 12.687ZM5.96562 14.0152L6.62187 14.6714L7.27812 14.0152C6.78437 13.5183 6.63125 13.3745 6.62187 13.3745C6.6125 13.3745 6.4625 13.5183 6.2875 13.6964L5.96562 14.0152Z" fill="#ACB9CB"/>
</g>
<defs>
<clipPath id="clip0_544_4458">
<rect width="16" height="16" fill="white"/>
</clipPath>
</defs>
</svg>
