<svg width="16" height="16" viewBox="0 0 16 16" fill="none" xmlns="http://www.w3.org/2000/svg">
<g clip-path="url(#clip0_544_4444)">
<path fill-rule="evenodd" clip-rule="evenodd" d="M5 0H6V1.5H7.5V0H8.5V1.5H10V0H11V1.5L11.7125 1.50937C12.2375 1.51875 12.4656 1.53437 12.5938 1.57187C12.6875 1.59687 12.8438 1.65 12.9375 1.68438C13.0312 1.71875 13.2188 1.81875 13.3531 1.90625C13.4844 1.99063 13.6719 2.14062 13.7656 2.23438C13.8594 2.32812 14.0094 2.51562 14.0938 2.65C14.1812 2.78125 14.2812 2.96875 14.3156 3.0625C14.35 3.15625 14.4031 3.3125 14.4281 3.40625C14.4656 3.53437 14.4812 3.7625 14.5 5H16V6H14.5V7.5H16V8.5H14.5V10H16V11H14.5L14.4906 11.7125C14.4813 12.2375 14.4656 12.4656 14.4281 12.5938C14.4031 12.6875 14.35 12.8438 14.3156 12.9375C14.2812 13.0312 14.1812 13.2188 14.0938 13.3531C14.0094 13.4844 13.8594 13.6719 13.7656 13.7656C13.6719 13.8594 13.4844 14.0094 13.35 14.0938C13.2188 14.1812 13.0312 14.2812 12.9375 14.3156C12.8438 14.35 12.6875 14.4031 12.5938 14.4281C12.4656 14.4656 12.2375 14.4812 11 14.5V16H10V14.5H8.5V16H7.5V14.5H6V16H5V14.5L4.2875 14.4906C3.7625 14.4813 3.53437 14.4656 3.40625 14.4281C3.3125 14.4031 3.15625 14.35 3.0625 14.3156C2.96875 14.2812 2.78125 14.1812 2.64687 14.0938C2.51562 14.0094 2.32812 13.8594 2.23438 13.7656C2.14062 13.6719 1.99063 13.4844 1.90625 13.35C1.81875 13.2188 1.71875 13.0312 1.68438 12.9375C1.65 12.8438 1.59687 12.6875 1.57187 12.5938C1.53437 12.4656 1.51875 12.2375 1.5 11H0V10H1.5V8.5H0V7.5H1.5V6H0V5H1.5L1.50937 4.2875C1.51875 3.7625 1.53437 3.53437 1.57187 3.40625C1.59687 3.3125 1.65 3.15625 1.68438 3.0625C1.71875 2.96875 1.81875 2.78125 1.90625 2.64687C1.99063 2.51562 2.14062 2.32812 2.23438 2.23438C2.32812 2.14062 2.51562 1.99063 2.65 1.90625C2.78125 1.81875 2.96875 1.71875 3.0625 1.68438C3.15625 1.65 3.3125 1.59687 3.40625 1.57187C3.53437 1.53437 3.7625 1.51875 5 1.5V0ZM3.31875 2.66875C3.2375 2.70938 3.0875 2.81875 2.98438 2.9125C2.87812 3.00937 2.75313 3.16562 2.69688 3.26875C2.64375 3.36875 2.575 3.5375 2.55 3.64062C2.50625 3.80625 2.5 4.3125 2.5 8C2.5 11.6875 2.50625 12.1938 2.55 12.3594C2.575 12.4625 2.64375 12.6312 2.69688 12.7312C2.75313 12.8344 2.87812 12.9906 2.98438 13.0875C3.0875 13.1812 3.23438 13.2906 3.3125 13.3281C3.39062 13.3687 3.5375 13.4219 3.64062 13.45C3.80625 13.4937 4.29375 13.5 7.96875 13.5C10.625 13.5 12.1719 13.4906 12.2812 13.4688C12.375 13.4531 12.55 13.3906 12.6719 13.3313C12.8156 13.2594 12.95 13.1594 13.0656 13.0406C13.1687 12.9344 13.2844 12.775 13.3406 12.6562C13.3938 12.5437 13.45 12.375 13.4688 12.2812C13.4906 12.1687 13.5 10.6938 13.5 8C13.5 5.30625 13.4906 3.83125 13.4688 3.71875C13.45 3.625 13.3938 3.45625 13.3406 3.34375C13.2875 3.23125 13.1687 3.0625 13.0781 2.96875C12.9875 2.875 12.8313 2.75313 12.7312 2.69688C12.6281 2.64375 12.4625 2.575 12.3594 2.55C12.1938 2.50625 11.6906 2.5 7.98438 2.50312C4.45 2.50312 3.77187 2.5125 3.63125 2.55C3.54375 2.575 3.40313 2.62812 3.32188 2.66875H3.31875ZM6.71562 5.00313C6.80937 5 6.97187 5.01562 7.075 5.03438C7.17812 5.05313 7.37812 5.12188 7.52187 5.19063C7.70937 5.28125 7.83125 5.36562 7.98125 5.51562C8.13125 5.66563 8.21562 5.7875 8.30625 5.975C8.375 6.11875 8.44375 6.31875 8.4625 6.42188C8.48438 6.54375 8.49687 7.375 8.49687 11H7.49687V9.25H5.99687V11H4.99687V8.80313C4.99687 7.375 5.00938 6.54375 5.03125 6.42188C5.05 6.31875 5.11875 6.11875 5.1875 5.975C5.27812 5.7875 5.3625 5.66563 5.5125 5.51562C5.6625 5.36562 5.78437 5.27813 5.975 5.19063C6.11562 5.12188 6.30312 5.05312 6.3875 5.0375C6.475 5.01875 6.62187 5.00625 6.71562 5.00313ZM6.23125 6.23438C6.13437 6.32812 6.05938 6.44063 6.03438 6.51562C6.00938 6.6 5.99687 6.9125 5.99687 7.44375V8.25H7.49687C7.49687 6.9125 7.48438 6.6 7.45937 6.51562C7.43437 6.44063 7.35938 6.32812 7.2625 6.23438C7.16875 6.1375 7.05625 6.0625 6.98125 6.0375C6.9125 6.01875 6.8 6.00313 6.73125 6.00313C6.6625 6.00625 6.55625 6.02187 6.49687 6.04063C6.4375 6.05938 6.31562 6.14687 6.23125 6.23438ZM9.99687 5H10.9969V11H9.99687V5Z" fill="#ACB9CB"/>
</g>
<defs>
<clipPath id="clip0_544_4444">
<rect width="16" height="16" fill="white"/>
</clipPath>
</defs>
</svg>
