<svg width="16" height="16" viewBox="0 0 16 16" fill="none" xmlns="http://www.w3.org/2000/svg">
<g clip-path="url(#clip0_544_4777)">
<path fill-rule="evenodd" clip-rule="evenodd" d="M2.84375 0C2.98438 0 3.04063 0.015625 3.15625 0.090625C3.23438 0.140625 3.325 0.221875 3.3625 0.271875C3.4 0.31875 3.45625 0.415625 3.49062 0.484375C3.52812 0.553125 3.59063 0.721875 3.63438 0.859375C3.67813 0.996875 3.75625 1.32812 3.80625 1.59375C3.85938 1.85938 3.925 2.275 3.95312 2.51562C3.98125 2.75625 4.0125 2.97188 4.01875 2.99375C4.025 3.01562 4.15938 2.93125 4.35313 2.775C4.52813 2.63438 4.825 2.41875 5.01562 2.29375C5.20625 2.17188 5.49062 1.99687 5.65 1.90937C5.80625 1.82187 6.03125 1.70625 6.15 1.65313C6.26562 1.6 6.46562 1.51562 6.59375 1.4625C6.72188 1.40937 6.98125 1.31875 7.17188 1.25937C7.3625 1.20312 7.68437 1.11875 7.89062 1.07812C8.09688 1.0375 8.42813 0.9875 8.625 0.965625C8.83125 0.946875 9.16562 0.9375 9.40625 0.946875C9.64062 0.959375 10.0156 1 10.25 1.04375C10.4812 1.0875 10.8062 1.16563 10.9688 1.21563C11.1313 1.26875 11.4187 1.375 11.6094 1.45312C11.8 1.53125 12.0594 1.65313 12.1875 1.725C12.3156 1.79375 12.575 1.95312 12.7656 2.07812C12.9563 2.20625 13.2625 2.44062 13.4531 2.6C13.6438 2.7625 13.9062 3.0125 14.0437 3.15937C14.1781 3.30312 14.4094 3.58437 14.5594 3.78125C14.7094 3.97813 14.925 4.30312 15.0375 4.5C15.1531 4.69688 15.3094 5.00313 15.3906 5.18125C15.4688 5.35625 15.5875 5.67188 15.6562 5.88438C15.7281 6.09375 15.8188 6.43437 15.8594 6.64062C15.9 6.84688 15.95 7.16875 15.9656 7.35938C15.9844 7.55 16 7.8375 16 8C16 8.1625 15.9844 8.45 15.9688 8.64062C15.95 8.83125 15.9 9.15938 15.8562 9.375C15.8125 9.59062 15.7125 9.9625 15.6313 10.2031C15.5531 10.4438 15.3938 10.8313 15.2781 11.0625C15.1625 11.2937 14.9719 11.6313 14.8531 11.8125C14.7344 11.9937 14.5437 12.2531 14.4344 12.3906C14.325 12.5281 14.1 12.7719 13.9375 12.9375C13.775 13.1 13.5281 13.3281 13.3906 13.4375C13.2531 13.55 12.9875 13.7437 12.7969 13.8719C12.6094 13.9969 12.2563 14.1969 12.0156 14.3125C11.775 14.4312 11.4094 14.5844 11.2031 14.6531C10.9969 14.7219 10.7094 14.8062 10.5625 14.8406C10.4156 14.875 10.15 14.925 9.96875 14.9531C9.7875 14.9812 9.44375 15.0094 9.20312 15.0219C8.94375 15.0312 8.60625 15.025 8.375 15C8.15938 14.9812 7.87187 14.9437 7.73438 14.9187C7.59688 14.8938 7.39687 14.8313 7.29063 14.7812C7.18125 14.7281 7.02187 14.6219 6.93437 14.5406C6.83437 14.4469 6.73438 14.3094 6.66875 14.1719C6.6 14.0344 6.54688 13.8687 6.525 13.7188C6.49375 13.525 6.49688 13.4281 6.54063 13.1656C6.56875 12.9875 6.59375 12.7406 6.59375 12.6187C6.59375 12.4937 6.57188 12.2937 6.54688 12.1719C6.52187 12.05 6.44375 11.8375 6.375 11.6969C6.29375 11.525 6.18438 11.3687 6.05625 11.2312C5.94688 11.1156 5.75313 10.9563 5.625 10.8719C5.49687 10.7875 5.29063 10.6781 5.17188 10.6281C5.05312 10.5781 4.83437 10.5 4.6875 10.4594C4.54063 10.4188 4.36875 10.375 4.1875 10.3438V10.5719C4.1875 10.6937 4.175 11.0188 4.125 11.7812L4.26562 11.9469C4.34375 12.0344 4.45625 12.2 4.5125 12.3125C4.56875 12.425 4.64062 12.6281 4.67188 12.7656C4.71562 12.9563 4.72187 13.0844 4.70937 13.3125C4.7 13.475 4.6625 13.7219 4.625 13.8594C4.59062 13.9969 4.50312 14.2281 4.43437 14.375C4.36562 14.5219 4.24688 14.725 4.175 14.8281C4.1 14.9312 3.94062 15.1094 3.81562 15.2281C3.69375 15.3438 3.5125 15.4906 3.41563 15.5531C3.31563 15.6156 3.14375 15.7094 3.03125 15.7594C2.91875 15.8094 2.69688 15.8844 2.54063 15.925C2.25938 15.9969 2.20937 16 0 16V15.0781L0.13125 15.0531C0.20625 15.0375 0.334375 14.9969 0.41875 14.9594C0.509375 14.9188 0.6375 14.8219 0.725 14.7281C0.828125 14.6125 0.890625 14.5125 0.921875 14.4C0.95625 14.275 0.96875 14.0719 0.96875 13.5938C0.96875 13.0469 0.978125 12.9156 1.03125 12.7031C1.06875 12.5656 1.1375 12.375 1.1875 12.2812C1.24063 12.1875 1.34375 12.0344 1.5625 11.7812L1.53125 11.2594C1.5125 10.9688 1.48438 10.3344 1.46875 9.84375C1.45312 9.35312 1.4375 8.50937 1.4375 7.96875C1.4375 7.42812 1.45312 6.59062 1.46875 6.10938C1.48438 5.62813 1.5125 4.99375 1.53125 4.70312C1.55 4.4125 1.59375 3.8625 1.62812 3.48438C1.6625 3.10625 1.725 2.55625 1.76562 2.26562C1.80938 1.975 1.87812 1.57187 1.92188 1.375C1.96563 1.17813 2.03125 0.925 2.06875 0.8125C2.10312 0.7 2.16562 0.546875 2.20625 0.46875C2.24688 0.390625 2.30312 0.29375 2.33437 0.25625C2.36562 0.215625 2.45312 0.140625 2.53125 0.09375C2.64062 0.025 2.7125 0.003125 2.84375 0ZM2.75 2.03125C2.71563 2.22813 2.65937 2.63125 2.62812 2.92188C2.59375 3.2125 2.54375 3.73438 2.51562 4.07812C2.49062 4.42188 2.45625 4.97813 2.4375 5.3125C2.41875 5.64687 2.39375 6.49375 2.38125 7.19688L2.35938 8.46875H3.32812C3.29375 6.49375 3.26875 5.65312 3.25 5.32812C3.23438 5.00313 3.20625 4.53125 3.1875 4.28125C3.16875 4.03125 3.12812 3.55312 3.09375 3.21875C3.05938 2.88438 2.99375 2.39375 2.95312 2.13125C2.90937 1.87187 2.875 1.65 2.875 1.64062C2.875 1.63125 2.85938 1.625 2.84375 1.625C2.82812 1.625 2.8125 1.63437 2.8125 1.64688C2.8125 1.6625 2.78437 1.83438 2.75 2.03125ZM8.09375 1.9875C7.94688 2.01562 7.675 2.08437 7.48438 2.14062C7.29375 2.2 6.9875 2.30938 6.79688 2.39062C6.60625 2.47187 6.33437 2.6 6.1875 2.67812C6.04063 2.75937 5.76875 2.92188 5.57812 3.04688C5.3875 3.16875 5.09375 3.38437 4.92188 3.52187C4.75 3.65937 4.5 3.875 4.36562 4.00313L4.12187 4.23438C4.16875 5.00938 4.19375 5.43438 4.20312 5.68125L4.21875 6.125C4.47188 5.90312 4.61875 5.80625 4.70312 5.76562C4.79063 5.725 4.92188 5.67813 5 5.65938C5.07812 5.64062 5.21875 5.625 5.3125 5.625C5.40625 5.625 5.56875 5.64687 5.67188 5.67188C5.775 5.7 5.92188 5.75938 6 5.80312C6.07812 5.85 6.20312 5.94688 6.28125 6.01875C6.35938 6.09063 6.46562 6.225 6.52187 6.31875C6.57812 6.40937 6.64375 6.56875 6.67188 6.67188C6.69688 6.775 6.71875 6.9375 6.71875 7.03125C6.71875 7.125 6.70312 7.26562 6.68437 7.34375C6.66562 7.42188 6.61875 7.55312 6.57812 7.64062C6.5375 7.725 6.4375 7.875 6.35 7.96875C6.25625 8.075 6.11562 8.18438 5.98125 8.25625C5.85312 8.325 5.67812 8.3875 5.54688 8.40938C5.38125 8.44063 5.27812 8.44062 5.125 8.41562C5.0125 8.39687 4.84375 8.35 4.75 8.30937C4.65625 8.26875 4.50313 8.175 4.41563 8.10312L4.25 7.96875C4.2375 9.00937 4.23438 9.33125 4.23438 9.35C4.23438 9.375 4.3375 9.4125 4.5 9.44687C4.64687 9.475 4.90625 9.54375 5.07812 9.59688C5.25 9.65 5.54375 9.76875 5.73438 9.85938C5.925 9.95312 6.20625 10.125 6.35938 10.2437C6.5125 10.3594 6.72188 10.5531 6.82188 10.675C6.925 10.7937 7.05625 10.975 7.11562 11.0781C7.175 11.1812 7.25938 11.35 7.30312 11.4531C7.34687 11.5562 7.40937 11.7469 7.44375 11.875C7.47813 12.0031 7.5125 12.2719 7.52187 12.4688C7.53437 12.7312 7.525 12.9281 7.48438 13.2031C7.42812 13.5781 7.42812 13.5781 7.49687 13.725C7.55 13.8438 7.59063 13.8875 7.69688 13.9344C7.76875 13.9688 7.9625 14.0125 8.125 14.0344C8.2875 14.0563 8.675 14.075 8.98438 14.075C9.35938 14.0719 9.65 14.0531 9.85938 14.0188C10.0312 13.9906 10.3125 13.9312 10.4844 13.8875C10.6562 13.8469 10.9875 13.7344 11.2188 13.6406C11.45 13.5469 11.7875 13.3844 11.9688 13.2812C12.15 13.175 12.4219 12.9969 12.5781 12.8813C12.7312 12.7656 12.9844 12.5531 13.1375 12.4062C13.2906 12.2594 13.5219 12.0125 13.65 11.8594C13.7812 11.7063 13.9688 11.45 14.0719 11.2969C14.1719 11.1438 14.3375 10.8469 14.4406 10.6406C14.5406 10.4344 14.6687 10.125 14.7281 9.95312C14.7875 9.78125 14.8719 9.47812 14.9156 9.28125C14.9625 9.08438 15.0125 8.775 15.0312 8.59375C15.0469 8.4125 15.0625 8.1375 15.0625 7.98438C15.0625 7.83125 15.0406 7.52812 15.0156 7.3125C14.9906 7.09688 14.9344 6.78125 14.8938 6.60938C14.85 6.4375 14.7719 6.16875 14.7156 6.01562C14.6625 5.8625 14.5656 5.62187 14.5031 5.48438C14.4375 5.34688 14.325 5.12813 14.25 5C14.1781 4.87187 14.0219 4.63125 13.9062 4.46875C13.7875 4.30625 13.5781 4.04375 13.4375 3.89062C13.3 3.73438 13.0844 3.51875 12.9594 3.4125C12.8344 3.30312 12.6375 3.1375 12.5156 3.04688C12.3938 2.95625 12.2 2.82188 12.0781 2.75C11.9563 2.675 11.7125 2.54063 11.5312 2.45C11.35 2.35938 11.0344 2.23125 10.8281 2.1625C10.6219 2.09375 10.3406 2.01562 10.2031 1.9875C10.0656 1.95937 9.825 1.925 9.67188 1.90625C9.51875 1.89062 9.2625 1.87812 9.10938 1.87812C8.95625 1.88125 8.72188 1.89375 8.59375 1.90937C8.46562 1.925 8.24063 1.95937 8.09375 1.9875ZM4.89687 6.84375C4.85 6.94688 4.84062 7.01562 4.85938 7.10938C4.875 7.19063 4.91875 7.27188 4.99687 7.34688C5.07187 7.42396 5.15104 7.46979 5.23438 7.48438C5.31875 7.5 5.4 7.49063 5.49375 7.45625C5.57188 7.425 5.65312 7.36562 5.69375 7.30312C5.73125 7.25 5.76875 7.14687 5.775 7.07812C5.78438 6.99687 5.76875 6.9125 5.73125 6.83125C5.69687 6.76562 5.63125 6.68125 5.57812 6.64687C5.525 6.60938 5.42188 6.575 5.34375 6.57188C5.24062 6.5625 5.17188 6.57812 5.07812 6.63125C4.99062 6.68125 4.9375 6.74375 4.89687 6.84375ZM2.41563 10.1C2.42813 10.4844 2.44687 10.9094 2.45625 11.0469L2.47813 11.2969H3.20937C3.24062 10.9094 3.25937 10.4844 3.27187 10.1L3.29688 9.40625H2.39687L2.41563 10.1ZM2.28125 12.4062C2.22187 12.4469 2.13125 12.5375 2.08437 12.6062C2.03437 12.675 1.975 12.8031 1.95 12.8875C1.91563 13.0031 1.90313 13.2156 1.90313 13.6844C1.90313 14.1438 1.89062 14.3813 1.85625 14.5219C1.83125 14.6281 1.775 14.7937 1.73125 14.8875L1.65313 15.0594C1.98125 15.0594 2.175 15.0406 2.29375 15.0156C2.41563 14.9875 2.61875 14.9156 2.74688 14.85C2.90937 14.7719 3.05 14.6656 3.20312 14.5156C3.35938 14.3594 3.45937 14.225 3.55 14.0437C3.61875 13.9094 3.7 13.6812 3.73125 13.5437C3.76562 13.3875 3.78125 13.2281 3.77187 13.1062C3.7625 13.0031 3.72812 12.8562 3.69375 12.7781C3.6625 12.7031 3.58438 12.5844 3.52813 12.5188C3.46875 12.4531 3.35 12.3656 3.2625 12.3219C3.16563 12.275 3.03125 12.2406 2.90313 12.2312C2.75625 12.2188 2.65625 12.2313 2.54375 12.2719C2.45938 12.3031 2.34063 12.3625 2.28125 12.4062ZM7.95 2.96875C8.0375 2.96875 8.1875 2.9875 8.2875 3.0125C8.38438 3.04063 8.54063 3.09687 8.63125 3.14375C8.72188 3.19062 8.86875 3.30312 8.95938 3.39375C9.05 3.48438 9.16562 3.65 9.21562 3.75625C9.26875 3.8625 9.32812 4.05 9.34688 4.17188C9.37813 4.34375 9.37813 4.43437 9.34688 4.60938C9.32188 4.74062 9.25938 4.9125 9.19063 5.04375C9.11875 5.17812 9.0125 5.31562 8.90312 5.4125C8.80937 5.49687 8.6625 5.6 8.575 5.64062C8.49062 5.68125 8.35625 5.72812 8.27812 5.74687C8.2 5.7625 8.05937 5.77812 7.96562 5.77812C7.87187 5.77812 7.70937 5.75937 7.60625 5.73125C7.50312 5.70625 7.34375 5.6375 7.25313 5.58437C7.1625 5.52812 7.02812 5.41875 6.95312 5.34375C6.88125 5.26562 6.78437 5.1375 6.74062 5.0625C6.69375 4.98438 6.63438 4.8375 6.60938 4.73438C6.58125 4.63125 6.55937 4.46875 6.55937 4.375C6.55937 4.27812 6.57812 4.13125 6.60313 4.04688C6.625 3.95937 6.67812 3.81875 6.71875 3.73438C6.75938 3.65 6.85938 3.50938 6.9375 3.42188C7.01875 3.33437 7.16563 3.21875 7.26562 3.16563C7.36875 3.10938 7.52812 3.04375 7.62187 3.01875C7.71562 2.99375 7.86562 2.96875 7.95 2.96875ZM7.55625 4.1625C7.50938 4.25312 7.49375 4.33437 7.50313 4.42188C7.5125 4.4875 7.54688 4.5875 7.58125 4.64062C7.61563 4.69063 7.7 4.75938 7.76562 4.79063C7.84688 4.83125 7.93125 4.84688 8.0125 4.8375C8.08125 4.82812 8.18438 4.79063 8.24063 4.75313C8.3 4.7125 8.3625 4.63438 8.39062 4.55312C8.42188 4.46875 8.43437 4.37812 8.42188 4.30312C8.4125 4.2375 8.36563 4.14062 8.31875 4.0875C8.27188 4.03125 8.1875 3.96875 8.13125 3.94688C8.075 3.92188 7.99687 3.90625 7.95937 3.90625C7.91875 3.90625 7.82812 3.93438 7.75625 3.96875C7.65937 4.0125 7.60313 4.06562 7.55625 4.1625ZM11.5594 3.9375C11.6187 3.9375 11.7469 3.95 11.8406 3.96563C11.9344 3.98438 12.1031 4.04375 12.2156 4.09688C12.3281 4.15313 12.4906 4.26875 12.5781 4.35625C12.6656 4.44375 12.7812 4.60625 12.8375 4.71875C12.8906 4.82812 12.9531 5.01875 12.9719 5.14062C12.9969 5.3 12.9969 5.40938 12.9719 5.5625C12.9531 5.67188 12.8875 5.8625 12.8281 5.98438C12.7656 6.11562 12.6625 6.25625 12.5719 6.34375C12.4875 6.42188 12.3562 6.525 12.2781 6.56875C12.2 6.61562 12.0531 6.67188 11.95 6.7C11.8469 6.72812 11.6844 6.75 11.5906 6.75C11.4969 6.75 11.3375 6.72813 11.2406 6.70312C11.1406 6.675 11 6.625 10.9281 6.5875C10.8531 6.55 10.7188 6.44688 10.6281 6.35938C10.5344 6.27187 10.4219 6.1375 10.3781 6.0625C10.3344 5.98438 10.2719 5.84062 10.2406 5.74062C10.2094 5.64062 10.1844 5.47187 10.1844 5.36562C10.1844 5.25938 10.2063 5.0875 10.2344 4.98438C10.2594 4.87813 10.3188 4.73125 10.3656 4.65625C10.4094 4.57812 10.5125 4.44688 10.5906 4.3625C10.675 4.27188 10.8187 4.16875 10.95 4.10313C11.0719 4.04688 11.2312 3.98438 11.3094 3.96875C11.3875 3.95625 11.5 3.94062 11.5594 3.9375ZM11.1781 5.125C11.1344 5.20312 11.1219 5.275 11.1344 5.39062C11.1437 5.475 11.175 5.58125 11.2094 5.625C11.2406 5.66563 11.3156 5.72813 11.375 5.75938C11.4469 5.79688 11.5281 5.80937 11.6219 5.80312C11.7 5.79688 11.8094 5.7625 11.8656 5.725C11.925 5.68125 11.9875 5.60313 12.0156 5.52187C12.0469 5.4375 12.0594 5.34687 12.0469 5.27187C12.0375 5.20625 11.9906 5.10938 11.9438 5.05625C11.8969 5 11.8125 4.9375 11.7563 4.91563C11.7 4.89062 11.6219 4.87187 11.5844 4.87187C11.5438 4.87187 11.45 4.90312 11.375 4.94375C11.2906 4.9875 11.2156 5.05625 11.1781 5.125ZM12.5437 7.5625C12.6312 7.5625 12.7812 7.58125 12.8813 7.60625C12.9781 7.63437 13.1344 7.69063 13.225 7.7375C13.3156 7.78438 13.4625 7.89688 13.5531 7.9875C13.6438 8.07812 13.7594 8.24375 13.8094 8.35C13.8625 8.45625 13.9219 8.6375 13.9406 8.75C13.9719 8.90312 13.9719 9.00313 13.9438 9.17188C13.9219 9.29062 13.8594 9.4875 13.8 9.60938C13.725 9.75937 13.6375 9.87812 13.5094 9.99375C13.4094 10.0844 13.2562 10.1938 13.1687 10.2344C13.0844 10.275 12.95 10.3219 12.8719 10.3406C12.7937 10.3562 12.6531 10.3719 12.5594 10.3719C12.4656 10.3719 12.325 10.3562 12.2469 10.3406C12.1687 10.3219 12.0375 10.275 11.95 10.2344C11.8656 10.1938 11.7156 10.0906 11.6219 10.0031C11.5281 9.91875 11.4062 9.775 11.35 9.68125C11.2969 9.59062 11.2281 9.43125 11.2031 9.32812C11.175 9.22188 11.1531 9.0625 11.1531 8.96875C11.1562 8.87187 11.1687 8.73125 11.1875 8.65625C11.2063 8.57812 11.2563 8.4375 11.3031 8.34375C11.35 8.24375 11.4656 8.09062 11.575 7.98125C11.6781 7.87812 11.8344 7.75938 11.9187 7.71875C12.0062 7.67812 12.1469 7.625 12.2312 7.60313C12.3187 7.58437 12.4594 7.56563 12.5437 7.5625ZM12.1469 8.75C12.1063 8.82187 12.0906 8.90312 12.1 9C12.1063 9.075 12.1375 9.18125 12.175 9.23438C12.2094 9.28438 12.2906 9.35 12.3531 9.38125C12.4156 9.4125 12.5125 9.43437 12.5688 9.43437C12.625 9.43437 12.725 9.40313 12.7937 9.36563C12.8812 9.31563 12.9344 9.25625 12.9781 9.15625C13.0187 9.05625 13.0312 8.97813 13.0156 8.89688C13.0063 8.83125 12.9594 8.73438 12.9125 8.68125C12.8656 8.625 12.7812 8.5625 12.725 8.54062C12.6688 8.51562 12.5906 8.49687 12.5531 8.49687C12.5125 8.49687 12.4187 8.52813 12.3438 8.56875C12.2594 8.6125 12.1844 8.68125 12.1469 8.75ZM9.8875 10.2188C9.99062 10.2188 10.1594 10.2375 10.2625 10.2656C10.3656 10.2937 10.5125 10.35 10.5906 10.3969C10.6687 10.4406 10.7937 10.5375 10.8719 10.6125C10.95 10.6844 11.0594 10.8188 11.1125 10.9094C11.1687 11 11.2344 11.1594 11.2625 11.2656C11.2875 11.3687 11.3094 11.5281 11.3094 11.625C11.3094 11.7188 11.2906 11.8656 11.2688 11.9531C11.2469 12.0375 11.1781 12.1969 11.1187 12.3062C11.0625 12.4156 10.9469 12.5688 10.8656 12.6438C10.7844 12.7188 10.6281 12.8219 10.5219 12.875C10.4125 12.925 10.2344 12.9844 10.1219 13.0063C9.96562 13.0344 9.86875 13.0344 9.7 13.0063C9.58125 12.9844 9.39375 12.925 9.2875 12.875C9.175 12.8188 9.01875 12.7063 8.91875 12.6094C8.82187 12.5094 8.70625 12.3531 8.65312 12.2406C8.60312 12.1344 8.54375 11.9469 8.52188 11.8281C8.49375 11.6531 8.49375 11.5625 8.525 11.3906C8.54688 11.2563 8.60938 11.0844 8.67813 10.9531C8.75 10.8188 8.85938 10.6813 8.96562 10.5844C9.05937 10.5 9.2125 10.3969 9.30313 10.3562C9.39375 10.3125 9.51875 10.2656 9.58438 10.2531C9.64688 10.2375 9.78438 10.2219 9.8875 10.2188ZM9.53125 11.3562C9.49687 11.4094 9.45937 11.4937 9.44687 11.5469C9.4375 11.5969 9.44375 11.6875 9.4625 11.75C9.47812 11.8094 9.54375 11.9031 9.60625 11.9594C9.67188 12.0188 9.76562 12.0688 9.83438 12.0813C9.91563 12.0938 9.99375 12.0812 10.0906 12.0406C10.1906 11.9969 10.2531 11.9437 10.3031 11.8562C10.3563 11.7656 10.3719 11.6969 10.3656 11.5938C10.3594 11.5156 10.325 11.4094 10.2906 11.3594C10.2531 11.3062 10.175 11.2406 10.1125 11.2094C10.05 11.1781 9.95312 11.1562 9.89688 11.1562C9.84063 11.1562 9.75 11.1781 9.69687 11.2094C9.64062 11.2375 9.56875 11.3031 9.53125 11.3562Z" fill="#ACB9CB"/>
</g>
<defs>
<clipPath id="clip0_544_4777">
<rect width="16" height="16" fill="white"/>
</clipPath>
</defs>
</svg>
