<svg width="16" height="16" viewBox="0 0 16 16" fill="none" xmlns="http://www.w3.org/2000/svg">
<g clip-path="url(#clip0_544_4775)">
<path fill-rule="evenodd" clip-rule="evenodd" d="M14.4377 0.00336642C14.7127 0.000241415 14.8002 0.0127414 14.9845 0.0783664C15.1064 0.118991 15.2783 0.209616 15.372 0.272116C15.4658 0.337741 15.597 0.459616 15.6658 0.547116C15.7345 0.631491 15.8158 0.756491 15.847 0.818991C15.8814 0.884616 15.9283 1.03149 15.9564 1.14712C15.9939 1.30337 16.0033 1.44087 15.9877 1.65649C15.9783 1.81899 15.9408 2.06587 15.9064 2.20337C15.8689 2.34087 15.7939 2.55337 15.7377 2.67212C15.6814 2.79087 15.5752 2.98149 15.5033 3.09399C15.4158 3.22524 14.8533 3.80962 12.5345 6.14087L13.3127 9.45337C13.7564 11.3315 14.1095 12.894 14.1283 13.0627C14.1502 13.2721 14.1502 13.4471 14.1283 13.6565C14.1095 13.819 14.0658 14.0596 14.0283 14.1877C13.9939 14.3159 13.9158 14.5284 13.8564 14.6565C13.7939 14.7846 13.6877 14.9752 13.6189 15.0784C13.5502 15.1815 13.3939 15.369 13.2689 15.494C13.147 15.6221 12.9627 15.7846 12.8595 15.8596C12.697 15.9815 12.6502 15.9971 12.5064 16.0002C12.3595 16.0002 12.3314 15.9877 12.2252 15.8815C12.1408 15.7971 11.6564 14.9284 8.89079 9.78149L5.96891 12.7034V13.6252C5.96891 14.1315 5.95329 14.6377 5.93766 14.7502C5.91891 14.8627 5.85641 15.0502 5.79704 15.1721C5.73454 15.3065 5.62829 15.4565 5.52516 15.5565C5.43454 15.6471 5.30954 15.7502 5.25016 15.7877C5.19079 15.8221 5.05016 15.8846 4.93766 15.9252C4.80329 15.9752 4.66579 16.0002 4.53141 16.0002C4.35641 16.0002 4.31579 15.9909 4.22516 15.9159C4.15641 15.8596 3.85329 15.3815 2.64079 13.3627L1.39391 12.6127C0.631412 12.1534 0.118912 11.8252 0.0814122 11.7721C0.0282872 11.7002 0.0157872 11.6377 0.0189122 11.444C0.0220372 11.2909 0.0439122 11.1409 0.0845372 11.0315C0.115787 10.9377 0.187662 10.7971 0.240787 10.719C0.293912 10.6409 0.397037 10.519 0.472037 10.444C0.547037 10.369 0.709537 10.2627 0.828287 10.2034C0.950162 10.144 1.13766 10.0815 1.25016 10.0627C1.36266 10.0471 1.86891 10.0315 3.29704 10.0315L6.21891 7.10962L3.22829 5.50024C1.58454 4.61587 0.197037 3.85962 0.150162 3.81899C0.103287 3.78149 0.0470372 3.69712 0.0282872 3.63149C0.00953723 3.56899 0.000162233 3.46587 0.00953723 3.40649C0.0220372 3.34712 0.0907872 3.21274 0.165787 3.10962C0.240787 3.00649 0.393912 2.83149 0.503287 2.72524C0.612662 2.61587 0.793912 2.46587 0.906412 2.39087C1.01891 2.31587 1.22204 2.20337 1.35954 2.13774C1.49704 2.07524 1.73766 1.99087 1.89079 1.95337C2.04704 1.91274 2.29079 1.87212 2.43766 1.86274C2.58454 1.85024 2.82204 1.85337 2.96891 1.87212C3.11579 1.89087 4.72516 2.25962 9.85954 3.46587L11.2814 2.05024C12.3533 0.981491 12.7627 0.593991 12.9377 0.478366C13.0658 0.397116 13.2627 0.287741 13.3752 0.240866C13.4877 0.193991 13.697 0.122116 13.8439 0.0814914C14.0377 0.0252414 14.197 0.00649142 14.4377 0.00336642ZM13.7345 1.10337C13.6502 1.14399 13.5095 1.22212 13.422 1.27837C13.3377 1.33774 11.122 3.52524 8.50016 6.14087C5.87829 8.75962 3.70329 10.9159 3.66266 10.9346C3.61579 10.9565 3.24391 10.969 2.52516 10.969C1.82829 10.969 1.40954 10.9815 1.32829 11.0034C1.25954 11.0252 1.15329 11.0877 1.09391 11.1471C1.00016 11.2409 0.990787 11.2596 1.03141 11.294C1.05641 11.3159 1.55641 11.619 2.14079 11.969C2.72516 12.3159 3.24704 12.6471 3.30016 12.7002C3.35329 12.7534 3.68454 13.2752 4.03141 13.8596C4.38141 14.444 4.68454 14.944 4.70641 14.969C4.74079 15.0096 4.75954 15.0002 4.85329 14.9065C4.91266 14.8471 4.97516 14.7409 4.99704 14.6721C5.01891 14.5909 5.03141 14.1721 5.03141 13.4752C5.03141 12.7565 5.04391 12.3846 5.06579 12.3346C5.08454 12.2971 7.25329 10.1065 9.88766 7.46899C13.3752 3.97524 14.7002 2.62524 14.7752 2.50024C14.8283 2.40649 14.9095 2.22837 14.9502 2.10962C14.9939 1.98774 15.0377 1.80024 15.0502 1.68774C15.0627 1.57524 15.0627 1.43149 15.0502 1.36587C15.0408 1.30024 14.9877 1.20024 14.9283 1.13462C14.8752 1.07212 14.7814 1.00337 14.7252 0.978366C14.672 0.956491 14.5502 0.937741 14.4595 0.940866C14.372 0.940866 14.2064 0.962741 14.0939 0.987741C13.9814 1.01274 13.8189 1.06587 13.7345 1.10337ZM1.90641 2.92212C1.82829 2.95024 1.68766 3.01587 1.59391 3.06587C1.50016 3.11587 1.37204 3.20024 1.31266 3.25024C1.25329 3.29712 1.20954 3.34399 1.21891 3.35337C1.22829 3.35962 2.51266 4.05337 4.07204 4.89399L6.90954 6.42212C8.57829 4.75024 9.05016 4.25649 9.03766 4.24712C9.02516 4.23462 7.68766 3.91587 6.06266 3.53462C4.43766 3.15337 3.02516 2.82837 2.92204 2.81274C2.81891 2.79712 2.67829 2.78149 2.60954 2.78462C2.54079 2.78462 2.38766 2.80649 2.26579 2.82837C2.14704 2.85024 1.98454 2.89399 1.90641 2.92212ZM9.57829 9.09087C11.947 13.4877 12.6408 14.7721 12.647 14.7815C12.6564 14.7909 12.7033 14.7471 12.7502 14.6877C12.8002 14.6284 12.9002 14.4659 12.9689 14.3284C13.0377 14.1909 13.1189 13.9877 13.147 13.8752C13.1783 13.7502 13.2002 13.5534 13.2002 13.3596C13.2002 13.0627 13.1658 12.9065 12.4845 10.0159C12.0939 8.34712 11.7627 6.97524 11.7533 6.96274C11.7408 6.95024 11.247 7.42212 10.6564 8.01587L9.57829 9.09087Z" fill="#ACB9CB"/>
</g>
<defs>
<clipPath id="clip0_544_4775">
<rect width="16" height="16" fill="white"/>
</clipPath>
</defs>
</svg>
