<svg width="16" height="16" viewBox="0 0 16 16" fill="none" xmlns="http://www.w3.org/2000/svg">
<g clip-path="url(#clip0_544_4773)">
<path fill-rule="evenodd" clip-rule="evenodd" d="M7.99705 0C8.00955 0 8.3533 0.19375 8.7658 0.43125C9.1783 0.66875 10.3502 1.34687 11.3689 1.93125C12.3845 2.51875 13.2252 3 13.2345 3C13.2439 3 13.297 2.96563 13.3502 2.925C13.4064 2.88125 13.5314 2.81875 13.6252 2.78125C13.7189 2.74375 13.8877 2.70625 14.0002 2.69688C14.1127 2.6875 14.2814 2.69688 14.3752 2.71563C14.4689 2.73438 14.6314 2.79063 14.7345 2.84063C14.8502 2.89688 14.9877 3 15.0939 3.11562C15.1877 3.21562 15.3002 3.36875 15.3408 3.45312C15.3814 3.54063 15.4345 3.7 15.4627 3.8125C15.5033 3.98438 15.5064 4.05 15.4752 4.23438C15.4533 4.35313 15.397 4.5375 15.347 4.64062C15.297 4.74375 15.2002 4.89062 15.1314 4.96875C15.0627 5.04688 14.9158 5.16563 14.5908 5.35938L14.5783 11.3875L9.32205 14.4219L9.33767 14.5625C9.34392 14.6406 9.33455 14.7812 9.3158 14.875C9.29705 14.9688 9.23767 15.1375 9.18142 15.25C9.12517 15.3625 9.01267 15.5188 8.93142 15.6C8.84705 15.6844 8.70955 15.7844 8.62517 15.8281C8.53767 15.8719 8.40955 15.9281 8.33455 15.9531C8.26267 15.9781 8.09392 16 7.95955 16C7.76267 16 7.6783 15.9844 7.4908 15.9062C7.36892 15.8531 7.20955 15.7656 7.1408 15.7125C7.07205 15.6562 6.98142 15.5688 6.93767 15.5219C6.89392 15.4719 6.82205 15.3656 6.77517 15.2844C6.7283 15.2063 6.6658 15.0437 6.63767 14.9219C6.61267 14.8 6.59392 14.6281 6.60955 14.3625L1.4533 11.3844L1.43767 5.35938L1.25955 5.26562C1.16267 5.2125 1.02205 5.11562 0.947049 5.04688C0.875174 4.97813 0.762674 4.8375 0.703299 4.73438C0.643924 4.63125 0.572049 4.44688 0.543924 4.32812C0.506424 4.175 0.500174 4.05937 0.515799 3.9375C0.528299 3.84375 0.562674 3.69375 0.590799 3.60938C0.622049 3.52187 0.687674 3.39062 0.740799 3.3125C0.793924 3.23438 0.900174 3.1125 0.981424 3.0375C1.05955 2.96562 1.18142 2.87812 1.25017 2.84375C1.31892 2.80938 1.46267 2.75938 1.56892 2.73125C1.7033 2.69688 1.83455 2.68438 1.98455 2.69688C2.1033 2.70625 2.2658 2.7375 2.34392 2.76875C2.42205 2.79688 2.54705 2.8625 2.62517 2.9125C2.7033 2.96562 2.78767 3 2.81267 2.99062C2.83767 2.98438 3.99705 2.32188 5.3908 1.51562C6.78142 0.7125 7.93455 0.04375 7.95017 0.028125C7.96892 0.0125 7.98767 0 7.99705 0ZM3.2533 3.82812C3.25017 4.14375 3.2283 4.3125 3.20017 4.40625C3.17205 4.5 3.12205 4.63438 3.08455 4.70312C3.05017 4.77187 2.95642 4.89687 2.8783 4.98125C2.80017 5.0625 2.6533 5.18125 2.5533 5.24687L2.37205 5.35938L2.37517 10.8281L7.09392 13.5625C7.50017 13.35 7.64392 13.3 7.78142 13.2812C7.90017 13.2656 8.0658 13.2656 8.1783 13.2844C8.28767 13.3 8.4283 13.3375 8.4908 13.3656C8.55642 13.3969 8.66892 13.4594 8.7408 13.5063L8.87517 13.5938L13.6595 10.8281L13.6564 5.34375C13.4283 5.23438 13.2845 5.13125 13.1908 5.04688C13.1002 4.95937 12.9908 4.83437 12.9502 4.76562C12.9095 4.69688 12.8533 4.57812 12.8252 4.5C12.797 4.42188 12.7658 4.23438 12.7533 4.08437L12.7345 3.80938C9.12517 1.72187 8.05642 1.1125 8.03142 1.10625C8.00642 1.1 6.91892 1.7125 5.61892 2.4625L3.2533 3.82812ZM1.53767 3.81875C1.4908 3.89062 1.46892 3.96875 1.47205 4.07812C1.47205 4.21562 1.48455 4.24687 1.58767 4.35C1.6908 4.45312 1.72205 4.46562 1.85955 4.46562C1.96267 4.46875 2.05017 4.44688 2.11892 4.40625C2.17205 4.37187 2.2408 4.29375 2.2658 4.23438C2.2908 4.175 2.31267 4.0875 2.31267 4.0375C2.31267 3.99062 2.28455 3.90625 2.25017 3.85C2.2158 3.79688 2.1408 3.72187 2.08767 3.6875C2.03142 3.65313 1.94392 3.625 1.8908 3.625C1.8408 3.62812 1.7533 3.64687 1.7033 3.67188C1.65017 3.69688 1.57517 3.7625 1.53767 3.81875ZM13.7502 3.85C13.7158 3.90625 13.6877 3.99062 13.6877 4.0375C13.6877 4.0875 13.7095 4.175 13.7345 4.23438C13.7595 4.29375 13.8283 4.37187 13.8845 4.40625C13.947 4.44688 14.0408 4.46875 14.1377 4.46875C14.272 4.46875 14.3033 4.45312 14.4095 4.35C14.5158 4.24687 14.5283 4.21875 14.5314 4.07812C14.5314 3.975 14.5095 3.8875 14.4689 3.81875C14.4345 3.76562 14.3564 3.69688 14.297 3.67188C14.2377 3.64687 14.1502 3.625 14.1033 3.625C14.0533 3.625 13.9689 3.65313 13.9158 3.6875C13.8595 3.72187 13.7845 3.79688 13.7502 3.85ZM7.72517 14.2844C7.68767 14.3094 7.6283 14.3875 7.59705 14.4594C7.55955 14.5469 7.54705 14.6313 7.55955 14.7094C7.56892 14.775 7.61267 14.8687 7.65642 14.9156C7.70017 14.9656 7.78455 15.0188 7.84392 15.0375C7.9033 15.0531 7.99705 15.0625 8.04705 15.05C8.10017 15.0406 8.18142 15 8.23142 14.9625C8.28142 14.9219 8.34392 14.8438 8.3658 14.7875C8.38767 14.7344 8.40642 14.6594 8.40642 14.625C8.40642 14.5906 8.38142 14.5094 8.3533 14.4469C8.32205 14.3844 8.26892 14.3156 8.23455 14.2906C8.20017 14.2687 8.1283 14.2406 8.07517 14.225C8.01892 14.2094 7.93455 14.2063 7.88767 14.2188C7.83767 14.2312 7.7658 14.2594 7.72517 14.2844ZM8.01267 3.31875L8.10955 3.375C8.15955 3.40625 8.9408 3.85625 9.84392 4.375C10.747 4.89375 11.5377 5.35313 11.7189 5.46875L11.7033 9.725L9.92205 10.7563C8.94392 11.3219 8.11267 11.8 8.0783 11.8188C8.02517 11.8438 7.7283 11.6813 4.3283 9.72188L4.31267 5.46875L4.38455 5.42188C4.42205 5.4 5.2533 4.91563 6.23455 4.34688L8.01267 3.31875ZM5.77205 5.7125C5.75955 5.725 6.25642 6.02813 6.87517 6.38438C7.49392 6.74062 8.00955 7.03125 8.02205 7.03125C8.03455 7.03125 8.54705 6.74062 9.16267 6.38438C10.0158 5.89062 10.272 5.72812 10.2408 5.7C10.2189 5.68125 9.73767 5.4 9.17205 5.07188C8.6033 4.74688 8.10955 4.4625 8.07205 4.44375C8.0158 4.41563 7.86267 4.49375 6.90017 5.05C6.29392 5.40313 5.78455 5.7 5.77205 5.7125ZM5.25017 9.17188C6.96892 10.1656 7.48455 10.4594 7.50017 10.4625C7.51892 10.4688 7.53142 9.98438 7.53142 9.15625V7.84375C5.79705 6.85 5.28455 6.5625 5.27205 6.5625C5.25955 6.5625 5.25017 7.15 5.25017 7.86875V9.17188ZM8.9533 7.58437L8.48767 7.85C8.49705 9.87813 8.50642 10.4688 8.51267 10.4688C8.52205 10.4688 9.03455 10.1781 9.6533 9.81875L10.7814 9.17188C10.7783 7.15 10.7689 6.5625 10.7564 6.5625C10.7439 6.5625 10.4377 6.73125 10.0752 6.94063C9.7158 7.14688 9.20955 7.4375 8.9533 7.58437Z" fill="#ACB9CB"/>
</g>
<defs>
<clipPath id="clip0_544_4773">
<rect width="16" height="16" fill="white"/>
</clipPath>
</defs>
</svg>
