<svg width="16" height="16" viewBox="0 0 16 16" fill="none" xmlns="http://www.w3.org/2000/svg">
<g clip-path="url(#clip0_544_4772)">
<path fill-rule="evenodd" clip-rule="evenodd" d="M1.875 0H4.71875V2.34375L12.4531 2.34063L13.5063 3.74062C14.0875 4.50938 14.5625 5.15 14.5625 5.16563C14.5625 5.17812 13.9281 5.1875 11.75 5.1875L11.7656 6.75L13.7344 7.625C14.8156 8.10938 15.7063 8.50625 15.7094 8.50937C15.7156 8.5125 15.6344 8.70938 15.3438 9.375L15.2406 9.33125C15.1875 9.30625 14.275 8.9 11.2969 7.575L9.28125 8.47188C8.17188 8.9625 7.25625 9.35938 7.24687 9.34688C7.23438 9.3375 7.14688 9.14375 7.05 8.92188C6.95312 8.7 6.87812 8.5125 6.88125 8.50937C6.8875 8.50625 7.76875 8.1125 10.7969 6.7625L10.8125 5.1875H4.71875V11.75L5.64062 11.7656L5.65625 15.0625H8V10.5312L11.2969 8.88125L14.5938 10.5312V15.0625H16V16H0V15.0625H0.9375L0.953125 11.7656L1.875 11.75V5.1875H0V2.34375H1.875V0ZM2.8125 2.34375H3.75V0.9375H2.8125V2.34375ZM0.953125 4.23438C10.0469 4.24687 12.6875 4.24062 12.6875 4.22813C12.6875 4.2125 12.5312 3.99688 12.3438 3.74375L12 3.28125H0.934375L0.953125 4.23438ZM2.8125 11.75H3.75V5.1875H2.8125V11.75ZM8.95312 11.1156L8.9375 15.0625H9.875V12.7188H12.7188V15.0625H13.6562L13.6594 11.125L11.2906 9.94375L8.95312 11.1156ZM1.875 15.0625H4.71875V12.7188H1.875V15.0625ZM10.8125 15.0625H11.75V13.6562H10.8125V15.0625Z" fill="#ACB9CB"/>
</g>
<defs>
<clipPath id="clip0_544_4772">
<rect width="16" height="16" fill="white"/>
</clipPath>
</defs>
</svg>
