<svg width="16" height="16" viewBox="0 0 16 16" fill="none" xmlns="http://www.w3.org/2000/svg">
<path fill-rule="evenodd" clip-rule="evenodd" d="M6.99375 2.00351C9.07812 2.00038 10.1063 2.00976 10.1938 2.03476C10.2688 2.05351 10.3562 2.09101 10.3938 2.11913C10.4281 2.14726 10.4906 2.22226 10.525 2.28163C10.5687 2.35351 10.5938 2.44101 10.5938 2.53163C10.5906 2.61913 10.5656 2.71913 10.5219 2.79101C10.4844 2.85663 10.4031 2.94101 10.3438 2.97851C10.2375 3.04726 10.2063 3.04726 7.53125 3.06288V3.53163H8.7875C9.48125 3.53163 10.1031 3.54726 10.1719 3.56288C10.2406 3.57851 10.3313 3.61913 10.375 3.65038C10.4187 3.68163 10.4844 3.75663 10.525 3.81601C10.5938 3.91913 10.5969 3.94101 10.5938 5.46913H11.2719C11.6469 5.46913 12.0094 5.48476 12.0781 5.50038C12.1469 5.51601 12.2375 5.55351 12.2781 5.58476C12.3187 5.61601 12.3812 5.68163 12.4187 5.72851C12.4781 5.80663 12.4844 5.86601 12.5 6.68788H12.9062L12.9125 6.17851C12.9219 5.68476 12.925 5.66288 13.0031 5.55976C13.0469 5.50038 13.1344 5.42851 13.1969 5.40038C13.2969 5.35038 13.4125 5.34413 14.0531 5.34413C14.65 5.34413 14.8188 5.35351 14.9125 5.39101C14.9781 5.41601 15.0656 5.48476 15.1062 5.54101C15.1469 5.59413 15.3344 5.99413 15.525 6.42226C15.7125 6.85351 15.8969 7.26601 15.9344 7.34413C16 7.48476 16 7.50351 15.9844 11.2973L15.5688 12.2191C15.3406 12.7254 15.1219 13.1754 15.0844 13.2129C15.0469 13.2535 14.9719 13.3098 14.9219 13.3379C14.8469 13.3785 14.7031 13.391 14.2344 13.4004C13.9062 13.4066 13.5562 13.4035 13.4531 13.3941C13.3375 13.3816 13.225 13.3473 13.1594 13.3035C13.1 13.266 13.0219 13.1941 12.9875 13.1473C12.9281 13.066 12.9219 13.0098 12.9062 12.0629H12.5V12.8129C12.5 13.366 12.4906 13.591 12.4594 13.666C12.4344 13.7191 12.3719 13.8035 12.3188 13.8535C12.2625 13.9004 12.1656 13.9504 12.1 13.9691C12.0281 13.9879 11.0031 13.9973 9.26562 13.991C6.8125 13.9848 6.5375 13.9785 6.45312 13.9348C6.4 13.9066 5.89375 13.4941 4.29688 12.1566H3.26562C2.69688 12.1566 2.18438 12.1441 2.125 12.1254C2.06562 12.1098 1.97187 12.0504 1.91562 11.9941C1.8625 11.9379 1.8 11.8535 1.78437 11.8066C1.7625 11.7504 1.75 11.2191 1.75 8.84413H1.03125L1.01562 11.8348L0.928125 11.9473C0.878125 12.016 0.790625 12.0816 0.709375 12.1129C0.625 12.1473 0.534375 12.1566 0.453125 12.1441C0.384375 12.1348 0.28125 12.0941 0.225 12.0535C0.16875 12.016 0.096875 11.9285 0.0625 11.8598C0.003125 11.7379 0 11.6535 0 4.92226L0.06875 4.78163C0.115625 4.69101 0.184375 4.61601 0.265625 4.56913C0.359375 4.51601 0.428125 4.50038 0.55 4.50663C0.66875 4.51288 0.7375 4.53788 0.828125 4.60976C0.89375 4.66288 0.96875 4.75038 0.990625 4.80663C1.02188 4.88476 1.03125 5.23163 1.03125 7.81288H1.75V6.36601C1.75 4.92538 1.75 4.92226 1.81875 4.78476C1.86875 4.68789 1.93125 4.62538 2.03125 4.57226C2.16563 4.50351 2.2 4.50038 3.40625 4.50038V4.24101C3.40625 4.03788 3.41875 3.95663 3.475 3.84726C3.51562 3.76913 3.58125 3.68163 3.625 3.65038C3.66875 3.61601 3.76562 3.57851 3.84375 3.56288C3.92188 3.54726 4.55 3.53476 6.5 3.53163V3.06288H5.20937C4.45625 3.06288 3.87187 3.05038 3.80312 3.03163C3.74062 3.01288 3.64375 2.96288 3.59063 2.91288C3.5375 2.86601 3.475 2.77226 3.44688 2.70351C3.41875 2.62851 3.40625 2.53476 3.41875 2.46913C3.42813 2.40976 3.46563 2.31288 3.5 2.25663C3.53437 2.20351 3.6 2.13163 3.64687 2.10351C3.69687 2.07226 3.775 2.04101 3.82812 2.02851C3.87812 2.01601 5.30312 2.00663 6.99062 2.00351H6.99375ZM4.44063 4.88476C4.44375 5.13163 4.43125 5.18788 4.37187 5.27851C4.33125 5.33788 4.25938 5.41601 4.2125 5.45038C4.13125 5.51288 4.07812 5.51601 3.45312 5.52226L2.78437 5.53163L2.8 11.1098C4.27812 11.1348 4.70937 11.1473 4.7125 11.1504C4.71875 11.1535 5.2 11.5566 5.78438 12.0473L6.84688 12.9379H11.4719C11.4719 11.7316 11.4844 11.4035 11.5063 11.3504C11.525 11.3035 11.5687 11.2316 11.6062 11.1941C11.6438 11.1535 11.7188 11.0973 11.7688 11.0691C11.8469 11.0254 11.9844 11.0129 12.5656 11.0066C12.9531 11.0004 13.3375 11.0035 13.425 11.0129C13.5094 11.0223 13.6281 11.0629 13.6875 11.1004C13.7469 11.141 13.825 11.2129 13.8594 11.2598C13.9187 11.341 13.925 11.3973 13.9312 11.8473L13.9406 12.3441L14.3813 12.3285L14.9719 10.9848V7.73476L14.3625 6.37226L13.9406 6.37538C13.9406 7.28788 13.9344 7.34101 13.8687 7.45351C13.8219 7.53788 13.7531 7.60351 13.6594 7.65038C13.525 7.71601 13.4875 7.71913 12.7063 7.71913C11.9156 7.71913 11.8906 7.71913 11.7531 7.64726C11.6625 7.60038 11.5875 7.52851 11.5437 7.45038C11.4812 7.34101 11.4719 7.28476 11.4719 6.92851V6.53163C10.3688 6.53163 10 6.51913 9.94063 6.50038C9.88125 6.48476 9.7875 6.42538 9.73125 6.36913C9.67812 6.31288 9.61563 6.22851 9.6 6.17851C9.57812 6.12851 9.56563 5.79726 9.56563 5.34413V4.59413H4.44063V4.88476Z" fill="#ACB9CB"/>
</svg>
