<svg width="16" height="16" viewBox="0 0 16 16" fill="none" xmlns="http://www.w3.org/2000/svg">
<path fill-rule="evenodd" clip-rule="evenodd" d="M2.40434 8.05085C2.64718 8.05085 2.86023 8.20964 2.92244 8.43698C3.00634 8.74465 3.12143 9.04603 3.2645 9.33279C3.71054 10.2291 4.4126 10.9743 5.29482 11.4878C5.74017 11.7475 6.22128 11.9406 6.72486 12.0618C6.88805 12.1012 7.0244 12.2143 7.08967 12.3643C7.24397 12.7197 7.60126 12.9493 7.99995 12.9493C8.39864 12.9493 8.75593 12.7197 8.91021 12.3643C8.97551 12.2142 9.11185 12.1012 9.27498 12.0619C11.1311 11.6144 12.5883 10.2253 13.0777 8.43675C13.1398 8.20953 13.3528 8.05083 13.5957 8.05083C13.6361 8.05083 13.6768 8.05531 13.7166 8.06417C13.7913 8.08083 13.8667 8.08929 13.9405 8.08929C14.4849 8.08929 14.9277 7.66114 14.9277 7.13484C14.9277 6.60856 14.4849 6.1804 13.9406 6.1804C13.8668 6.1804 13.7914 6.18884 13.7166 6.20552C13.6769 6.21436 13.6363 6.21886 13.5958 6.21886C13.3529 6.21886 13.1398 6.06014 13.0777 5.8329C12.79 4.78115 12.1734 3.86385 11.2945 3.18021C10.4301 2.50779 9.39128 2.1225 8.28759 2.06445L7.51939 3.21981C7.40033 3.39903 7.42692 3.63847 7.58266 3.78913C7.67187 3.87526 7.78991 3.92273 7.91496 3.92273C7.92409 3.92273 7.93328 3.92248 7.9425 3.92198C8.07836 3.9148 8.19989 3.85428 8.28476 3.75156L8.79981 3.12919C8.90221 3.00549 9.05496 2.93453 9.21894 2.93453C9.34001 2.93453 9.45884 2.97487 9.55353 3.04815C9.78436 3.22674 9.82195 3.55361 9.63731 3.77682L9.12229 4.39921C8.84838 4.73031 8.44001 4.93376 8.00187 4.95733C7.97397 4.9588 7.94535 4.95955 7.91672 4.95955C7.51001 4.95955 7.11187 4.80016 6.82436 4.52228C6.31448 4.02921 6.22747 3.24569 6.61741 2.65924L6.94993 2.15913C5.00248 2.54293 3.43232 3.96802 2.92221 5.83298C2.86009 6.06016 2.64702 6.21882 2.40411 6.21882C2.36367 6.21882 2.32306 6.21436 2.28337 6.20552C2.20858 6.18884 2.13322 6.1804 2.05935 6.1804C1.51508 6.1804 1.07227 6.60856 1.07227 7.13484C1.07227 7.66114 1.51508 8.08929 2.05935 8.08929C2.1332 8.08929 2.20856 8.08083 2.28337 8.06417C2.32359 8.05531 2.36423 8.05085 2.40434 8.05085ZM8 13.9857C7.27012 13.9857 6.59297 13.6106 6.22481 13.0046C5.70491 12.8579 5.20598 12.6463 4.74143 12.3754C3.67998 11.7579 2.83521 10.8612 2.29851 9.78241C2.19287 9.57089 2.09887 9.35006 2.01879 9.12527C0.90204 9.10488 0 8.21966 0 7.13445C0 6.04965 0.901822 5.16469 2.01869 5.14367C2.44277 3.94905 3.22776 2.92563 4.29154 2.18145C5.37489 1.42358 6.65352 1.02185 7.98919 1.01961L8 1.01953C9.33774 1.01953 10.6187 1.42029 11.7043 2.17847C12.7702 2.92287 13.5566 3.94731 13.9813 5.14361C15.0981 5.16462 16 6.04963 16 7.13445C16 7.6655 15.7855 8.1653 15.3962 8.54178C15.0164 8.90896 14.5153 9.11524 13.9813 9.12523C13.3144 11.0027 11.7474 12.4487 9.77521 13.0046C9.40703 13.6106 8.72988 13.9857 8 13.9857Z" fill="#ACB9CB"/>
<path fill-rule="evenodd" clip-rule="evenodd" d="M7.99974 10.1557C7.13089 10.1557 6.30188 9.84088 5.66545 9.26924C5.56048 9.17503 5.49978 9.04694 5.49452 8.90859C5.48923 8.77023 5.54006 8.63816 5.63758 8.53672C5.73861 8.43148 5.88186 8.37109 6.03055 8.37109C6.16632 8.37109 6.29586 8.4203 6.39533 8.50967C6.83259 8.90249 7.40238 9.11883 7.99974 9.11883C8.59677 9.11883 9.16648 8.90262 9.60388 8.51002C9.70335 8.42068 9.83287 8.3715 9.96857 8.3715C10.1172 8.3715 10.2604 8.43184 10.3615 8.53705C10.4589 8.6386 10.5097 8.77069 10.5044 8.90905C10.4991 9.04744 10.4384 9.17554 10.3335 9.26972C9.69731 9.84103 8.86848 10.1557 7.99974 10.1557Z" fill="#ACB9CB"/>
<path fill-rule="evenodd" clip-rule="evenodd" d="M5.1061 7.50495C4.8104 7.50495 4.56982 7.2724 4.56982 6.9866C4.56982 6.25412 5.1862 5.6582 5.94382 5.6582C6.65984 5.6582 7.24812 6.17765 7.31224 6.86649C7.3387 7.15117 7.12068 7.40367 6.82624 7.42932C6.81014 7.43074 6.79382 7.43145 6.77775 7.43145C6.49862 7.43145 6.26927 7.22852 6.24426 6.95941C6.23036 6.81126 6.0984 6.69514 5.94382 6.69514C5.77753 6.69514 5.64222 6.82589 5.64222 6.9866C5.64222 7.2724 5.40173 7.50495 5.1061 7.50495Z" fill="#ACB9CB"/>
<path fill-rule="evenodd" clip-rule="evenodd" d="M10.8943 7.50495C10.5987 7.50495 10.3582 7.2724 10.3582 6.9866C10.3582 6.82589 10.2229 6.69514 10.0566 6.69514C9.90205 6.69514 9.77009 6.81126 9.75617 6.95949C9.7316 7.22412 9.4974 7.43147 9.22302 7.43147C9.2068 7.43147 9.19037 7.43076 9.17415 7.42932C8.87975 7.40357 8.66175 7.1511 8.68821 6.86649C8.75231 6.17765 9.34061 5.6582 10.0566 5.6582C10.8142 5.6582 11.4306 6.25412 11.4306 6.9866C11.4306 7.2724 11.1901 7.50495 10.8943 7.50495Z" fill="#ACB9CB"/>
</svg>
