<svg width="16" height="16" viewBox="0 0 16 16" fill="none" xmlns="http://www.w3.org/2000/svg">
<g clip-path="url(#clip0_544_4768)">
<path fill-rule="evenodd" clip-rule="evenodd" d="M10.2969 0.00331505C10.5875 0.00019005 10.7844 0.0158151 10.9844 0.0595651C11.1375 0.0939401 11.3562 0.15019 11.4688 0.18769C11.5813 0.222065 11.7906 0.31269 11.9375 0.384565C12.0844 0.45644 12.3094 0.59394 12.4375 0.690815C12.5656 0.78769 12.7781 0.978315 12.9094 1.11269C13.0375 1.24707 13.2031 1.44394 13.2719 1.54707C13.3406 1.65019 13.45 1.84082 13.5156 1.96894C13.5813 2.09707 13.6656 2.29394 13.7031 2.40644C13.7406 2.51894 13.8 2.72832 13.8281 2.87519C13.8687 3.05332 13.8844 3.27519 13.8844 3.54707C13.8844 3.8179 13.8573 4.15123 13.8031 4.54707C13.7563 4.87207 13.7031 5.21894 13.6844 5.31269C13.6656 5.40644 13.5969 5.59707 13.5281 5.73457C13.4625 5.87207 13.3188 6.09082 13.2094 6.21894C13.025 6.44082 13.0125 6.46582 12.9563 6.73457C12.925 6.88769 12.8656 7.10019 12.825 7.20332C12.7812 7.30644 12.6813 7.49707 12.6 7.62519C12.5188 7.75332 12.3687 7.94394 12.2656 8.05019C12.1625 8.15332 12.025 8.28144 11.8469 8.42207L11.9375 8.75019C11.9906 8.93144 12.0344 9.08144 12.0406 9.08457C12.0437 9.08769 12.5625 9.21582 13.1969 9.37207C13.8281 9.52832 14.4187 9.68769 14.5094 9.72832C14.5969 9.76894 14.7563 9.85644 14.8594 9.92207C14.9625 9.98769 15.1375 10.1252 15.2437 10.2314C15.3531 10.3377 15.5031 10.5127 15.5781 10.6252C15.6531 10.7377 15.75 10.9158 15.7937 11.0252C15.8375 11.1314 15.9031 11.3252 15.9375 11.4533C15.9937 11.6689 16 11.7877 16 14.1252H8.46875V16.0002H0V8.46894H1.875V7.72519C1.875 7.31894 1.8875 6.90644 1.90625 6.81269C1.925 6.71894 1.97813 6.55644 2.02813 6.45332C2.07812 6.35019 2.17188 6.20332 2.2375 6.12832C2.30625 6.05019 2.4375 5.93769 2.53125 5.87519C2.625 5.81269 2.79375 5.73769 2.90625 5.70644C3.05938 5.66269 3.175 5.65332 3.375 5.66582C3.52187 5.67519 3.70312 5.70644 3.78125 5.73457C3.85938 5.76582 4 5.84394 4.09375 5.90644C4.1875 5.96894 4.32812 6.10332 4.40938 6.20644C4.4875 6.30644 4.58125 6.48144 4.62187 6.59394C4.69062 6.78144 4.69688 6.85644 4.71875 8.46894H6.59375V9.03144C6.59375 9.46582 6.60313 9.59082 6.63438 9.58144C6.65313 9.57519 7.11562 9.46269 8.64062 9.09394L8.725 8.78144C8.775 8.60957 8.8125 8.44707 8.8125 8.42207C8.8125 8.39707 8.80313 8.37519 8.7875 8.37519C8.775 8.37519 8.6625 8.28144 8.53438 8.16582C8.40625 8.04707 8.24375 7.86894 8.16875 7.76582C8.09688 7.66269 7.98125 7.45957 7.9125 7.31269C7.84375 7.16582 7.76562 6.95644 7.7375 6.84394C7.70938 6.73144 7.6875 6.60332 7.6875 6.55332C7.6875 6.49394 7.63437 6.40957 7.5125 6.27519C7.41875 6.16582 7.28438 5.98769 7.21875 5.87519C7.15312 5.76269 7.06875 5.58769 7.0375 5.48457C7.00312 5.38144 6.96562 5.21269 6.95312 5.10957C6.94063 5.00644 6.9 4.67207 6.85625 4.36582C6.81562 4.06269 6.78125 3.70019 6.78125 3.56269C6.78125 3.42519 6.79688 3.20332 6.81563 3.07207C6.83438 2.93769 6.88438 2.70957 6.92812 2.56269C6.96875 2.41582 7.05625 2.18457 7.12187 2.04707C7.18437 1.90957 7.3125 1.68457 7.40625 1.54707C7.5 1.40957 7.68437 1.19082 7.8125 1.05957C7.94063 0.93144 8.15312 0.75019 8.28125 0.659565C8.40938 0.56894 8.6 0.453315 8.70312 0.40019C8.80625 0.347065 8.95938 0.278315 9.04688 0.24394C9.13125 0.209565 9.35625 0.140815 9.54688 0.0939401C9.83125 0.01894 9.95938 0.00331505 10.2969 0.00331505ZM9.60938 1.04707C9.50625 1.07519 9.33125 1.14082 9.21875 1.19394C9.10625 1.24394 8.93125 1.34707 8.82812 1.41894C8.725 1.49394 8.54375 1.65957 8.42188 1.78769C8.3 1.91894 8.15625 2.10019 8.10312 2.19082C8.04688 2.28457 7.96563 2.44394 7.925 2.54707C7.88125 2.65019 7.825 2.81894 7.79688 2.92207C7.76875 3.02519 7.73438 3.25957 7.725 3.44707C7.70625 3.75332 7.70625 3.78144 7.75625 3.78144C7.79375 3.78144 7.84063 3.71894 7.9 3.58769C7.94688 3.47832 8.05625 3.31269 8.14375 3.21894C8.24687 3.10957 8.38438 3.00644 8.51875 2.93769C8.72188 2.83457 8.75313 2.82832 9.04688 2.82832C9.21875 2.82832 9.52188 2.85332 9.71875 2.88769C9.99687 2.93144 10.1719 2.94082 10.5 2.92832C10.7312 2.91894 11.0344 2.88769 11.1719 2.85957C11.3313 2.82519 11.5156 2.80957 11.675 2.81582C11.8875 2.82519 11.9625 2.84707 12.1594 2.94082C12.3135 3.0179 12.4365 3.10644 12.5281 3.20644C12.6031 3.29082 12.7094 3.45332 12.7688 3.57207C12.8281 3.69082 12.8906 3.77519 12.9125 3.76894C12.9438 3.76269 12.95 3.67832 12.9469 3.46582C12.9437 3.29394 12.9125 3.06894 12.875 2.92207C12.8406 2.78457 12.7625 2.56582 12.7 2.43769C12.6375 2.30957 12.5281 2.11894 12.4531 2.01582C12.3813 1.91269 12.2437 1.75644 12.1531 1.66894C12.0594 1.58144 11.8875 1.44707 11.7656 1.36894C11.6438 1.29082 11.4625 1.19082 11.3594 1.14707C11.2563 1.10332 11.0875 1.04707 10.9844 1.01894C10.8813 0.990815 10.6344 0.959565 10.4375 0.953315C10.2406 0.947065 10.0156 0.953315 9.9375 0.965815C9.85938 0.98144 9.7125 1.01582 9.60938 1.04707ZM8.625 4.26269L8.45312 4.65644C8.07187 4.65644 8.05 4.66582 7.95937 4.75644C7.86875 4.85332 7.86562 4.86894 7.88438 5.03144C7.89687 5.12519 7.9375 5.27207 7.98125 5.35957C8.02187 5.44394 8.11875 5.58144 8.19375 5.65957C8.26562 5.73769 8.3875 5.83769 8.45938 5.88457L8.59375 5.96894C8.59375 6.28457 8.60938 6.45019 8.62813 6.53769C8.64688 6.62832 8.71875 6.82207 8.79062 6.96894C8.88437 7.15332 8.97812 7.28769 9.10938 7.42207C9.21562 7.52519 9.39688 7.66269 9.51562 7.72519C9.6375 7.79082 9.83125 7.86269 9.95312 7.88769C10.075 7.91582 10.2531 7.93769 10.35 7.93769C10.45 7.93769 10.6063 7.92207 10.6938 7.90332C10.7844 7.88457 10.9625 7.82207 11.0844 7.76269C11.2469 7.68769 11.375 7.59394 11.525 7.44394C11.6437 7.32832 11.7812 7.16269 11.8313 7.07832C11.8813 6.99082 11.9531 6.83144 11.9937 6.71894C12.0406 6.58769 12.075 6.41582 12.0844 6.23457L12.1 5.95332C12.2688 5.85644 12.3875 5.75644 12.4688 5.67207C12.55 5.58457 12.6469 5.45332 12.6875 5.37519C12.725 5.29707 12.7688 5.16269 12.7812 5.07832C12.8 4.96582 12.7937 4.89394 12.7625 4.81894C12.7375 4.76582 12.6844 4.70644 12.6406 4.68769C12.5969 4.66894 12.4875 4.65644 12.3969 4.65644L12.2344 4.65957C11.9594 4.05019 11.8563 3.86894 11.8031 3.82519C11.7469 3.77519 11.6792 3.75019 11.6 3.75019C11.5375 3.75019 11.3781 3.77207 11.25 3.79707C11.1219 3.82519 10.7969 3.85332 10.5312 3.86269C10.1594 3.87832 9.95938 3.86894 9.67188 3.82832C9.46562 3.80019 9.21875 3.76894 9.125 3.76269C8.99063 3.75019 8.9375 3.75957 8.875 3.80957C8.82812 3.84394 8.73125 4.01894 8.625 4.26269ZM2.96563 6.72207C2.92813 6.76269 2.875 6.84394 2.85313 6.89707C2.825 6.97207 2.8125 7.19707 2.8125 7.73457V8.46894H3.75C3.75 6.97832 3.74375 6.91582 3.6875 6.81894C3.65313 6.76582 3.57812 6.69082 3.52187 6.65644C3.46562 6.61894 3.36875 6.59394 3.29688 6.59707C3.22813 6.59707 3.14062 6.60957 3.10625 6.62207C3.06875 6.63457 3.00625 6.68144 2.96563 6.72207ZM9.65625 8.94394C9.6375 9.01894 9.6 9.15332 9.575 9.24082C9.55312 9.33144 9.53125 9.43457 9.53125 9.46894C9.53125 9.50332 9.59062 9.59707 9.66562 9.67832C9.74687 9.76894 9.86875 9.85644 9.97188 9.90332C10.0938 9.95644 10.1969 9.97832 10.3438 9.97832C10.4844 9.97832 10.5969 9.95644 10.7031 9.90957C10.7875 9.87207 10.9 9.80332 10.9469 9.75644C10.9969 9.70957 11.0625 9.62519 11.0969 9.56894L11.1562 9.46894L10.9844 8.80644C10.6938 8.84707 10.4906 8.85957 10.3438 8.85957C10.1969 8.85957 9.99062 8.84707 9.88437 8.83457L9.69375 8.80957L9.65625 8.94394ZM0.934375 15.0627H3.74688V11.3127L5.6375 11.2971L5.64687 9.40644H4.71562V10.3752H3.74688V9.40644H2.80938V10.3752H1.87188V9.40644H0.934375V15.0627ZM7.59062 10.3127C7.15312 10.4158 6.75 10.5158 6.69375 10.5346L6.59062 10.5627V11.3127H8.46562V13.1877H12.6844V12.0002H13.6219V13.1877H15.0594C15.0594 12.0033 15.05 11.7814 15.0125 11.6502C14.9875 11.5502 14.9219 11.3814 14.8687 11.2752C14.8125 11.1627 14.6938 11.0033 14.5938 10.9064C14.4969 10.8096 14.3313 10.6908 14.2156 10.6377C14.0781 10.5689 13.6781 10.4564 12.9812 10.2846C12.4156 10.1471 11.9437 10.0314 11.9344 10.0314C11.9281 10.0314 11.8562 10.1158 11.7781 10.2221C11.7031 10.3283 11.5687 10.4658 11.4812 10.5314C11.3969 10.5971 11.2531 10.6877 11.1625 10.7314C11.0719 10.7752 10.9094 10.8377 10.8031 10.8658C10.6813 10.8971 10.4937 10.9158 10.3094 10.9127C10.1 10.9127 9.95 10.8908 9.79375 10.8439C9.675 10.8064 9.50625 10.7346 9.41875 10.6877C9.33437 10.6377 9.2 10.5439 9.12187 10.4752C9.04688 10.4096 8.93437 10.2814 8.87187 10.1939C8.8125 10.1064 8.75 10.0346 8.73125 10.0346C8.71562 10.0377 8.63125 10.0564 8.54375 10.0783C8.45937 10.1002 8.03125 10.2064 7.59062 10.3127ZM4.68437 15.0627H7.52812V12.2502H6.58125L6.575 13.1721L5.65312 13.1877V12.2502H4.68437V15.0627Z" fill="#ACB9CB"/>
</g>
<defs>
<clipPath id="clip0_544_4768">
<rect width="16" height="16" fill="white"/>
</clipPath>
</defs>
</svg>
