<svg width="16" height="16" viewBox="0 0 16 16" fill="none" xmlns="http://www.w3.org/2000/svg">
<g clip-path="url(#clip0_544_4771)">
<path fill-rule="evenodd" clip-rule="evenodd" d="M7.98438 0.00326009C8.17188 0.000135088 8.28438 0.0188851 8.4375 0.0720101C8.55 0.112635 8.70312 0.187635 8.78125 0.24076C8.85938 0.29076 8.97812 0.39701 9.04688 0.475135C9.11563 0.550135 9.20938 0.69076 9.25313 0.78451C9.3 0.87826 9.35 1.02826 9.37187 1.11889C9.39062 1.20639 9.40625 1.34701 9.40625 1.43139C9.40625 1.51263 9.3875 1.65014 9.36563 1.73451C9.34063 1.82201 9.29062 1.96264 9.24687 2.04701C9.20625 2.13451 9.0875 2.28764 8.98438 2.39076C8.88125 2.49701 8.72188 2.61576 8.46875 2.73451V3.75014H10.4531L11.4531 5.46888L11.5938 5.38763C11.6719 5.34076 11.8656 5.22826 12.3125 4.96888V4.71888C12.3125 4.54388 12.3344 4.40638 12.3813 4.25951C12.4219 4.13451 12.5125 3.96889 12.5938 3.85951C12.6719 3.75639 12.8125 3.61889 12.9062 3.55639C13 3.49076 13.1687 3.40639 13.2812 3.36889C13.4469 3.31576 13.5406 3.30639 13.7812 3.31576C14.0344 3.32826 14.1094 3.34389 14.2906 3.43139C14.4062 3.48764 14.575 3.60014 14.6625 3.68451C14.7531 3.76889 14.8719 3.91889 14.9281 4.01889C14.9813 4.12201 15.0469 4.28138 15.075 4.37513C15.1031 4.46888 15.125 4.60951 15.125 4.68763C15.125 4.76576 15.1031 4.91263 15.075 5.01576C15.05 5.11889 14.9813 5.28451 14.9281 5.38763C14.8719 5.48763 14.7531 5.63764 14.6625 5.72201C14.575 5.80639 14.4062 5.91888 14.2875 5.97513C14.1125 6.05951 14.0312 6.07826 13.7969 6.09076C13.575 6.10013 13.4688 6.08764 13.2969 6.03763C13.175 6.00326 13.0156 5.92826 12.9375 5.87513C12.8375 5.80326 12.7812 5.78138 12.7469 5.80014C12.7188 5.81576 12.525 5.92826 12.3156 6.04701C12.1094 6.16576 11.9375 6.27826 11.9375 6.29701C11.9406 6.31576 12.1562 6.70326 12.9062 8.00013L12.4219 8.83764C12.1562 9.29701 11.9406 9.68451 11.9375 9.70326C11.9375 9.72201 12.1094 9.83139 12.3156 9.95326C12.525 10.0751 12.7188 10.1845 12.7469 10.2001C12.7812 10.2189 12.8375 10.197 12.9375 10.1251C13.0156 10.072 13.175 9.99701 13.2969 9.96264C13.4688 9.91263 13.575 9.90014 13.7969 9.90951C14.0312 9.92201 14.1125 9.94076 14.2875 10.0251C14.4062 10.0814 14.575 10.1939 14.6625 10.2783C14.7531 10.3626 14.8719 10.5126 14.9281 10.6126C14.9813 10.7158 15.0469 10.8751 15.075 10.9689C15.1031 11.0626 15.125 11.2033 15.125 11.2814C15.125 11.3595 15.1031 11.5064 15.075 11.6095C15.05 11.7126 14.9813 11.8783 14.9281 11.9814C14.8719 12.0814 14.7531 12.2314 14.6625 12.3158C14.575 12.4001 14.4062 12.5126 14.2875 12.5689C14.1094 12.6564 14.0344 12.672 13.7812 12.6845C13.5562 12.6939 13.4438 12.6814 13.3125 12.6408C13.2188 12.6126 13.0781 12.5501 13 12.5064C12.9219 12.4595 12.8125 12.3814 12.7531 12.3283C12.6969 12.2783 12.6031 12.1658 12.5469 12.0783C12.4906 11.9939 12.4156 11.8345 12.3781 11.7283C12.3344 11.5939 12.3125 11.4533 12.3125 11.0314L12.0219 10.8658C11.8656 10.772 11.6719 10.6595 11.4531 10.5314L10.4531 12.2501H8.46875V13.2658L8.63125 13.3408C8.72813 13.3845 8.875 13.497 8.98438 13.6064C9.0875 13.7126 9.20625 13.8689 9.24687 13.9533C9.29062 14.0408 9.34063 14.1814 9.36563 14.2658C9.3875 14.3533 9.40625 14.4876 9.40625 14.572C9.40625 14.6533 9.39062 14.7939 9.37187 14.8845C9.35312 14.972 9.29688 15.1283 9.24687 15.2283C9.19687 15.3251 9.10313 15.4658 9.0375 15.5376C8.975 15.6095 8.85 15.7126 8.76562 15.7658C8.67812 15.822 8.525 15.897 8.42188 15.9314C8.29375 15.9783 8.15938 16.0001 8 16.0001C7.85 16.0001 7.70937 15.9783 7.60938 15.9439C7.52187 15.9126 7.39687 15.8595 7.32812 15.8283C7.25938 15.7939 7.11875 15.6845 7.01562 15.5783C6.90625 15.472 6.79063 15.3189 6.74375 15.2189C6.7 15.1251 6.65 14.972 6.62813 14.8845C6.60938 14.7939 6.59375 14.6533 6.59375 14.572C6.59375 14.4876 6.6125 14.3533 6.63438 14.2658C6.65625 14.1814 6.70937 14.0408 6.75 13.9533C6.79063 13.8689 6.90937 13.7126 7.0125 13.6064C7.12187 13.497 7.27187 13.3845 7.53125 13.2658V12.2501H5.54688L4.54688 10.5314L4.40625 10.6158C4.32812 10.6626 4.1375 10.772 3.70312 11.0251L3.68438 11.3314C3.67188 11.5095 3.64062 11.7001 3.60938 11.7814C3.57812 11.8595 3.50625 11.9939 3.45 12.0783C3.39688 12.1658 3.30313 12.2783 3.24688 12.3283C3.1875 12.3814 3.07812 12.4595 3 12.5064C2.92188 12.5501 2.78125 12.6126 2.6875 12.6408C2.55625 12.6814 2.44375 12.6939 2.21875 12.6845C1.96563 12.672 1.89062 12.6564 1.70938 12.5689C1.59375 12.5126 1.425 12.4001 1.33438 12.3158C1.24688 12.2314 1.12812 12.0814 1.07187 11.9814C1.01875 11.8783 0.953125 11.7189 0.925 11.6251C0.896875 11.5314 0.875 11.3908 0.875 11.3126C0.875 11.2345 0.896875 11.0876 0.925 10.9845C0.95 10.8814 1.01875 10.7158 1.07187 10.6126C1.12812 10.5126 1.24688 10.3626 1.33438 10.2783C1.425 10.1939 1.59375 10.0814 1.70938 10.0251C1.8875 9.94076 1.96875 9.92201 2.20312 9.90951C2.425 9.90014 2.53125 9.91263 2.70312 9.96264C2.82187 9.99701 2.98438 10.072 3.0625 10.1251C3.1625 10.197 3.21875 10.2189 3.25312 10.2001C3.28125 10.1845 3.475 10.0751 3.68438 9.95326C3.89062 9.83139 4.0625 9.72201 4.0625 9.70326C4.05938 9.68451 3.84375 9.29701 3.09375 8.00013L3.575 7.16263C3.8375 6.70013 4.05625 6.30951 4.05937 6.29388C4.05937 6.27826 3.87188 6.15638 3.21875 5.78138L3.0375 5.88763C2.94062 5.94701 2.775 6.01889 2.67188 6.05014C2.5375 6.08764 2.40625 6.09701 2.20312 6.08764C1.96563 6.07826 1.8875 6.05951 1.70938 5.97513C1.59375 5.91888 1.425 5.80639 1.33438 5.72201C1.24688 5.63764 1.12812 5.48763 1.07187 5.38763C1.01875 5.28451 0.953125 5.12513 0.925 5.03138C0.896875 4.93763 0.875 4.79701 0.875 4.71888C0.875 4.64076 0.896875 4.49389 0.925 4.39076C0.95 4.28763 1.01875 4.12201 1.07187 4.01889C1.12812 3.91889 1.24688 3.76889 1.33438 3.68451C1.425 3.60014 1.59375 3.48764 1.70938 3.43139C1.89062 3.34389 1.96563 3.32826 2.21875 3.31576C2.44375 3.30639 2.55625 3.31889 2.6875 3.35951C2.78125 3.38764 2.92188 3.45014 3 3.49389C3.07812 3.54076 3.1875 3.61889 3.24688 3.67201C3.30313 3.72201 3.39688 3.83451 3.45 3.92201C3.50625 4.00639 3.57812 4.14076 3.60938 4.21888C3.64062 4.30014 3.67188 4.49076 3.70312 4.97513L3.98438 5.13763C4.1375 5.22826 4.32812 5.33764 4.54688 5.46888L5.54688 3.75014H7.53125V2.73451L7.32188 2.62514C7.2 2.55951 7.05625 2.45014 6.97188 2.35639C6.89375 2.26889 6.79375 2.12826 6.75313 2.04389C6.70938 1.95951 6.65938 1.81889 6.63438 1.73451C6.6125 1.64701 6.59375 1.51264 6.59375 1.42826C6.59375 1.34701 6.60938 1.20639 6.62813 1.11889C6.64688 1.02826 6.7 0.875135 6.74375 0.781385C6.79063 0.681385 6.90312 0.531385 7.0125 0.42201C7.11875 0.31576 7.25938 0.206385 7.32812 0.17201C7.39687 0.14076 7.51562 0.0907601 7.59375 0.0595101C7.68125 0.0251351 7.82812 0.00638509 7.98438 0.00326009ZM7.5875 1.19389C7.55938 1.25014 7.53438 1.34389 7.53125 1.40014C7.53125 1.45326 7.55937 1.55326 7.59062 1.61889C7.625 1.68451 7.7 1.76264 7.76875 1.80326C7.8375 1.84076 7.9375 1.87201 7.99062 1.87514C8.04688 1.87514 8.14688 1.84701 8.20938 1.81576C8.27813 1.78139 8.35625 1.70639 8.39688 1.63764C8.43438 1.56889 8.46562 1.46889 8.46875 1.41576C8.46875 1.35951 8.44063 1.25639 8.40625 1.18764C8.36458 1.1043 8.30208 1.0418 8.21875 1.00014C8.15 0.96576 8.04688 0.937635 7.99062 0.937635C7.9375 0.937635 7.83437 0.97201 7.76562 1.01576C7.69688 1.05639 7.61562 1.13764 7.5875 1.19389ZM1.875 4.50638C1.84062 4.58138 1.8125 4.66888 1.8125 4.70326C1.8125 4.73764 1.84062 4.82513 1.875 4.89701C1.90937 4.97201 1.98437 5.05951 2.0375 5.09701C2.11875 5.14389 2.18125 5.15638 2.31875 5.15014C2.475 5.14076 2.5125 5.12826 2.60938 5.03138C2.69375 4.95013 2.72812 4.88763 2.74062 4.78138C2.75312 4.69076 2.74375 4.60326 2.71563 4.53451C2.69063 4.47514 2.625 4.38764 2.56875 4.33764C2.4875 4.26576 2.44062 4.25013 2.30312 4.25013C2.19479 4.25013 2.10625 4.27097 2.0375 4.31263C1.98125 4.34701 1.90937 4.43451 1.875 4.50638ZM13.2844 4.53451C13.2563 4.60326 13.2469 4.69076 13.2594 4.78138C13.2719 4.88763 13.3062 4.95013 13.3906 5.03138C13.4875 5.12826 13.525 5.14076 13.6812 5.15014C13.8187 5.15638 13.8813 5.14389 13.9594 5.09701C14.0156 5.05951 14.0906 4.97201 14.125 4.89701C14.1594 4.82513 14.1875 4.73764 14.1875 4.70326C14.1875 4.66888 14.1594 4.58138 14.125 4.50638C14.0906 4.43451 14.0188 4.34701 13.9594 4.31263C13.8938 4.27201 13.8031 4.25013 13.6969 4.25013C13.5625 4.25013 13.5156 4.26576 13.4312 4.33764C13.375 4.38764 13.3094 4.47514 13.2844 4.53451ZM6.05 4.75638C6.025 4.79701 5.6 5.53763 5.10313 6.40326C4.60938 7.26888 4.2 7.98763 4.19375 7.99701C4.19062 8.00638 4.46562 8.50014 4.80937 9.09389C5.15 9.68764 5.44687 10.1751 5.46562 10.1783C5.48438 10.1845 5.5 10.1689 5.5 10.147C5.5 10.1283 5.55312 9.99701 5.61875 9.85951C5.6875 9.72201 5.79375 9.53764 5.85938 9.45326C5.92188 9.36576 6.02812 9.24389 6.09062 9.17514C6.15312 9.10951 6.29375 8.98764 6.40625 8.90326C6.51875 8.81888 6.62187 8.74389 6.6375 8.74076C6.65312 8.73764 6.6125 8.66264 6.54688 8.57826C6.48438 8.49076 6.39687 8.35951 6.35938 8.28139C6.31875 8.20326 6.2625 8.05639 6.23125 7.95326C6.19375 7.82513 6.175 7.66576 6.175 7.45326C6.175 7.18763 6.19063 7.10013 6.26875 6.87513C6.32188 6.72201 6.42188 6.51888 6.50938 6.39701C6.59063 6.28138 6.7375 6.12513 6.83437 6.04701C6.93437 5.96888 7.1 5.86264 7.20312 5.81263C7.30625 5.75951 7.49687 5.69388 7.625 5.66576C7.7875 5.63138 7.9375 5.62201 8.10938 5.63451C8.24687 5.64389 8.45 5.67826 8.5625 5.71264C8.675 5.75013 8.87187 5.84701 9 5.93139C9.12813 6.01576 9.29375 6.15326 9.36875 6.23764C9.44062 6.32201 9.55937 6.50326 9.62813 6.64076C9.69375 6.77826 9.77188 6.99701 9.8 7.12513C9.83438 7.28138 9.84375 7.43139 9.83125 7.57826C9.82188 7.69701 9.79062 7.87513 9.7625 7.96888C9.73438 8.06264 9.68125 8.20326 9.64062 8.28139C9.60312 8.35951 9.51562 8.49076 9.45312 8.57826C9.3875 8.66264 9.34688 8.73764 9.3625 8.74076C9.37813 8.74389 9.48125 8.81888 9.59375 8.90326C9.70625 8.98764 9.84688 9.10951 9.90938 9.17514C9.97188 9.24389 10.0781 9.36576 10.1406 9.45326C10.2063 9.53764 10.3125 9.72201 10.3813 9.85951C10.4469 9.99701 10.5 10.1283 10.5 10.147C10.5 10.1689 10.5156 10.1845 10.5344 10.1783C10.5531 10.1751 10.85 9.68764 11.1906 9.09389C11.5344 8.50014 11.8125 8.00951 11.8125 8.00013C11.8125 7.99076 11.3875 7.24701 10.8687 6.34388L9.92188 4.70326L6.09688 4.68763L6.05 4.75638ZM7.42188 6.78763C7.33437 6.86263 7.23125 6.99389 7.1875 7.07826C7.13125 7.19388 7.1125 7.28763 7.10938 7.45013C7.10938 7.62826 7.125 7.70326 7.19375 7.85013C7.24687 7.95951 7.33125 8.07201 7.4125 8.13764C7.48438 8.19701 7.60313 8.26889 7.67188 8.29701C7.75 8.32826 7.87813 8.34701 8.01562 8.34701C8.18125 8.34389 8.26875 8.32514 8.39062 8.26889C8.475 8.22514 8.59375 8.13764 8.65312 8.07201C8.7125 8.00638 8.7875 7.88763 8.82187 7.80951C8.86562 7.71263 8.88437 7.60326 8.88437 7.45013C8.88437 7.27826 8.86875 7.20013 8.80625 7.07513C8.7625 6.99076 8.65625 6.85951 8.57187 6.78451C8.48125 6.70326 8.35938 6.63451 8.26562 6.60638C8.17812 6.58138 8.05312 6.56263 7.98438 6.56263C7.91563 6.56263 7.79375 6.58451 7.71875 6.60638C7.64062 6.63138 7.50625 6.71264 7.42188 6.78763ZM7.28125 9.45639C7.20312 9.49076 7.0625 9.57826 6.96875 9.65014C6.87187 9.72201 6.74063 9.84701 6.675 9.92826C6.60938 10.0095 6.525 10.1314 6.49062 10.2001C6.45625 10.2689 6.4 10.4033 6.36562 10.497C6.33125 10.597 6.29688 10.8064 6.28438 10.9908L6.26562 11.3126H9.73438C9.7 10.7751 9.66875 10.6033 9.61875 10.4658C9.57812 10.3564 9.50625 10.2001 9.4625 10.122C9.41562 10.047 9.31563 9.91576 9.23438 9.83451C9.15625 9.75326 9.01875 9.63764 8.92813 9.57826C8.8375 9.51576 8.68125 9.43764 8.57812 9.40014C8.43437 9.34701 8.30625 9.32826 8.04688 9.32201C7.83125 9.31576 7.65 9.32826 7.5625 9.35326C7.48438 9.37514 7.35625 9.42201 7.28125 9.45639ZM1.875 11.1001C1.84062 11.172 1.8125 11.2595 1.8125 11.2939C1.8125 11.3283 1.84062 11.4189 1.875 11.4908C1.90937 11.5658 1.98125 11.6501 2.0375 11.6845C2.10625 11.7262 2.19479 11.747 2.30312 11.747C2.4375 11.747 2.48437 11.7345 2.56875 11.6595C2.625 11.6095 2.69063 11.522 2.71563 11.4626C2.74375 11.397 2.75312 11.3064 2.74062 11.2158C2.725 11.1033 2.69687 11.0533 2.59375 10.9595C2.48125 10.8564 2.45 10.8408 2.30312 10.8408C2.19479 10.8428 2.10625 10.8637 2.0375 10.9033C1.98125 10.9408 1.90937 11.0251 1.875 11.1001ZM13.2563 11.2158C13.2469 11.3064 13.2563 11.397 13.2812 11.4626C13.3062 11.522 13.3719 11.6095 13.4281 11.6595C13.5125 11.7345 13.5594 11.747 13.6938 11.747C13.8042 11.747 13.8927 11.7262 13.9594 11.6845C14.0156 11.6501 14.0875 11.5658 14.1219 11.4908C14.1562 11.4189 14.1844 11.3283 14.1844 11.2939C14.1844 11.2595 14.1562 11.172 14.1219 11.1001C14.0875 11.0251 14.0156 10.9408 13.9594 10.9033C13.8927 10.8616 13.8042 10.8408 13.6938 10.8408C13.5438 10.8408 13.5125 10.8533 13.4 10.9595C13.3 11.0533 13.2719 11.1033 13.2563 11.2158ZM7.58437 14.3783C7.55625 14.4376 7.53125 14.5283 7.53125 14.5845C7.53125 14.6408 7.55625 14.7376 7.5875 14.8033C7.62188 14.8689 7.7 14.9501 7.76875 14.9908C7.83438 15.0283 7.93437 15.0595 7.99062 15.0595C8.04688 15.0595 8.15 15.0314 8.21875 14.997C8.30208 14.9553 8.36458 14.8928 8.40625 14.8095C8.44063 14.7408 8.46875 14.6439 8.46875 14.5908C8.46875 14.5408 8.44063 14.4408 8.40625 14.372C8.36458 14.2887 8.30208 14.2262 8.21875 14.1845C8.15 14.1501 8.04688 14.122 7.99062 14.122C7.93437 14.1251 7.83437 14.1595 7.76562 14.2001C7.69688 14.2408 7.61562 14.322 7.58437 14.3783Z" fill="#ACB9CB"/>
</g>
<defs>
<clipPath id="clip0_544_4771">
<rect width="16" height="16" fill="white"/>
</clipPath>
</defs>
</svg>
