<svg width="16" height="16" viewBox="0 0 16 16" fill="none" xmlns="http://www.w3.org/2000/svg">
<g clip-path="url(#clip0_544_4767)">
<path fill-rule="evenodd" clip-rule="evenodd" d="M1.39062 0.4375C1.47812 0.4375 1.65 0.471875 1.79062 0.515625C1.92188 0.559375 2.0875 0.628125 2.15625 0.671875C2.225 0.715625 2.34375 0.815625 2.42188 0.9C2.5 0.98125 2.60625 1.12813 2.75 1.40625H3.85313C4.95 1.40312 4.95312 1.40625 5.0625 1.475C5.12187 1.51562 5.19688 1.59687 5.225 1.65625C5.27187 1.75 5.28125 1.85938 5.28125 2.41563C5.28125 2.77188 5.2875 3.0625 5.29688 3.0625C5.30625 3.0625 5.47813 2.97812 5.68125 2.87812C5.88125 2.775 6.19375 2.60313 6.375 2.49375C6.55625 2.3875 6.82187 2.2125 6.96562 2.10938C7.10938 2.00625 7.35625 1.8 7.5125 1.65313C7.67812 1.49688 7.8375 1.375 7.89062 1.3625C7.94375 1.35 8.03438 1.35 8.09375 1.3625C8.17188 1.37812 8.2875 1.4625 8.4875 1.65313C8.64375 1.8 8.89062 2.00625 9.03438 2.10938C9.17813 2.2125 9.44375 2.3875 9.625 2.49375C9.80625 2.60313 10.1187 2.775 10.3219 2.87812C10.5219 2.97812 10.6938 3.0625 10.7031 3.0625C10.7125 3.0625 10.7188 2.77187 10.7188 2.4125C10.7188 1.85937 10.7281 1.75 10.775 1.65625C10.8031 1.59687 10.8781 1.51562 10.9375 1.475C11.0469 1.40625 11.05 1.40312 13.25 1.40625L13.3531 1.21563C13.4062 1.10938 13.5156 0.959375 13.5938 0.88125C13.6719 0.803125 13.7875 0.70625 13.8531 0.66875C13.9156 0.628125 14.0781 0.559375 14.2125 0.515625C14.3438 0.471875 14.5156 0.4375 14.5938 0.4375C14.6719 0.4375 14.8438 0.471875 14.9781 0.515625C15.1094 0.559375 15.275 0.628125 15.3438 0.671875C15.4125 0.715625 15.5281 0.809375 15.5969 0.884375C15.6687 0.95625 15.7594 1.07187 15.8 1.14062C15.8406 1.20938 15.9 1.35 15.9375 1.45312C15.975 1.56562 16 1.72187 16 1.84375C16 1.95938 15.975 2.13437 15.9406 2.25C15.9062 2.3625 15.8375 2.51562 15.7875 2.59375C15.7406 2.67188 15.6438 2.7875 15.575 2.85625C15.5094 2.92188 15.4 3.00937 15.3375 3.05C15.2719 3.09063 15.1344 3.15313 15.0312 3.1875C14.9062 3.22917 14.7604 3.25 14.5938 3.25C14.4271 3.25 14.2812 3.22917 14.1562 3.1875C14.0531 3.15313 13.9125 3.09063 13.8438 3.04688C13.775 3.00312 13.6562 2.90312 13.5781 2.81875C13.5 2.7375 13.3969 2.59687 13.2656 2.34375H11.6562V3.48438L12.2094 3.69375C12.5156 3.80625 12.9563 3.9625 13.1875 4.03438C13.4969 4.13438 13.6375 4.19375 13.7125 4.26562C13.7687 4.31562 13.8313 4.40937 13.8469 4.46875C13.8625 4.52812 13.875 4.86562 13.875 5.21875C13.875 5.57188 13.8531 6.05 13.8281 6.28125C13.8062 6.5125 13.7719 6.7625 13.7344 6.96875H14.6812C15.5156 6.96875 15.6375 6.975 15.7375 7.02187C15.8031 7.05312 15.8812 7.11875 15.9156 7.17188C15.95 7.225 15.9875 7.31563 15.9937 7.375C16.0031 7.44688 15.9875 7.53125 15.9438 7.625C15.9062 7.70625 15.8344 7.79063 15.775 7.82812C15.6781 7.8875 15.6 7.89062 13.55 7.92188L13.5094 8.09375C13.4844 8.1875 13.4094 8.45 13.3438 8.67188C13.2781 8.89375 13.2156 9.10313 13.2063 9.13125C13.1875 9.18438 13.2375 9.1875 13.9156 9.19375C14.6094 9.20312 14.6437 9.20625 14.7437 9.27188C14.8031 9.31563 14.8656 9.39688 14.8938 9.475C14.925 9.55938 14.9375 9.65313 14.925 9.725C14.9156 9.79063 14.8687 9.8875 14.8219 9.94375C14.7719 9.99688 14.6875 10.0594 14.6344 10.0844C14.5562 10.1156 14.3156 10.125 12.7969 10.1219L12.7094 10.3188C12.6594 10.4281 12.5344 10.6781 12.425 10.875C12.3188 11.0719 12.1406 11.3781 12.0281 11.5562C11.9187 11.7344 11.7125 12.0406 11.3125 12.5938H13.2656L13.3406 12.4312C13.3844 12.3375 13.4969 12.1844 13.6062 12.075C13.7125 11.9688 13.8719 11.85 13.9688 11.8062C14.0625 11.7594 14.2031 11.7094 14.2812 11.6906C14.3594 11.6719 14.5 11.6562 14.5938 11.6562C14.6875 11.6562 14.8375 11.675 14.9219 11.6969C15.0094 11.7188 15.1406 11.7688 15.2188 11.8031C15.2969 11.8406 15.4312 11.9312 15.5156 12.0094C15.6031 12.0844 15.7156 12.2156 15.7719 12.3C15.825 12.3844 15.9 12.5437 15.9344 12.6562C15.9719 12.7719 16 12.9406 16 13.0469C16 13.15 15.9813 13.3031 15.9594 13.3906C15.9344 13.475 15.8687 13.6375 15.8094 13.7469C15.75 13.8562 15.6406 14.0063 15.5625 14.0781C15.4844 14.15 15.3344 14.2531 15.2281 14.3062C15.1187 14.3625 14.9375 14.4219 14.8219 14.4438C14.6562 14.4719 14.5594 14.4719 14.3844 14.4438C14.2594 14.4219 14.075 14.3656 13.9781 14.3156C13.8781 14.2656 13.7281 14.1625 13.6406 14.0875C13.5469 14.0031 13.4406 13.8656 13.2656 13.5312L10.5156 13.5344L10.0938 13.9469C9.8625 14.175 9.50937 14.4938 9.3125 14.6594C9.11563 14.8219 8.84062 15.0438 8.70312 15.1469C8.56563 15.25 8.37187 15.3844 8.275 15.45C8.16875 15.5156 8.05313 15.5625 8 15.5625C7.94688 15.5625 7.83125 15.5156 7.72813 15.45C7.62813 15.3875 7.4 15.2219 7.21875 15.0844C7.0375 14.9469 6.7625 14.725 6.60938 14.5969C6.45625 14.4656 6.1375 14.175 5.48438 13.5344L2.73438 13.5312L2.63438 13.7281C2.58125 13.8344 2.46875 13.9875 2.38438 14.0656C2.30313 14.1438 2.14688 14.2531 2.04063 14.3062C1.92813 14.3625 1.74375 14.4219 1.61875 14.4438C1.44062 14.4719 1.34375 14.4719 1.18125 14.4438C1.0625 14.4219 0.8875 14.3656 0.790625 14.3156C0.690625 14.2656 0.540625 14.1625 0.453125 14.0875C0.36875 14.0094 0.253125 13.8656 0.196875 13.7625C0.140625 13.6625 0.075 13.5063 0.05 13.4219C0.021875 13.3344 0 13.1812 0 13.0781C0 12.975 0.01875 12.8188 0.040625 12.7344C0.0625 12.6469 0.115625 12.5063 0.15625 12.4219C0.196875 12.3344 0.315625 12.1812 0.41875 12.075C0.528125 11.9688 0.684375 11.85 0.78125 11.8062C0.875 11.7594 1.01562 11.7094 1.09375 11.6906C1.17188 11.6719 1.3125 11.6562 1.40625 11.6562C1.5 11.6562 1.64062 11.6719 1.71875 11.6906C1.79688 11.7094 1.9375 11.7594 2.03125 11.8062C2.12812 11.85 2.2875 11.9688 2.39375 12.075C2.50312 12.1844 2.61562 12.3375 2.73438 12.5938H4.6875L4.43125 12.2375C4.2875 12.0406 4.08125 11.7344 3.97187 11.5562C3.85938 11.3781 3.68125 11.0719 3.575 10.875C3.46563 10.6781 3.34063 10.4281 3.20312 10.1219L2.3375 10.125C1.68438 10.125 1.44375 10.1156 1.36875 10.0844C1.3125 10.0594 1.22812 9.99688 1.18125 9.94375C1.13125 9.8875 1.08438 9.79063 1.075 9.725C1.0625 9.65313 1.075 9.55938 1.10625 9.475C1.13438 9.39688 1.19687 9.31563 1.25937 9.27188C1.35625 9.20625 1.39063 9.20312 2.0875 9.19375C2.7625 9.1875 2.8125 9.18438 2.79375 9.13125C2.78437 9.10313 2.72187 8.89375 2.65625 8.67188C2.59063 8.45 2.51562 8.1875 2.45 7.92188L1.3875 7.90625C0.396875 7.89062 0.321875 7.8875 0.228125 7.82812C0.171875 7.79375 0.096875 7.70937 0.059375 7.64062C0.009375 7.55 -0.00625 7.48125 0.00625 7.39062C0.0125 7.32188 0.046875 7.225 0.084375 7.17188C0.11875 7.11875 0.196875 7.05312 0.2625 7.02187C0.3625 6.975 0.484375 6.96875 1.3125 6.96875C2.04375 6.96875 2.25 6.95937 2.25 6.92812C2.24688 6.90937 2.22813 6.75625 2.2 6.59375C2.17188 6.41563 2.14688 5.95625 2.1375 5.45312C2.125 4.90938 2.12813 4.56563 2.15 4.48438C2.16875 4.4125 2.225 4.31875 2.2875 4.26562C2.3625 4.19375 2.5125 4.13125 2.85938 4.01875C3.11562 3.9375 3.55625 3.78437 4.34375 3.5V2.34375H2.73438L2.65 2.50938C2.60313 2.59688 2.5 2.7375 2.42188 2.81875C2.34375 2.90312 2.225 3.00312 2.15625 3.04688C2.0875 3.09063 1.94687 3.15313 1.84375 3.1875C1.71875 3.22917 1.57292 3.25 1.40625 3.25C1.23958 3.25 1.09375 3.22917 0.96875 3.1875C0.865625 3.15313 0.728125 3.09063 0.6625 3.05C0.6 3.00937 0.484375 2.91563 0.409375 2.84063C0.334375 2.76562 0.240625 2.64687 0.2 2.57812C0.159375 2.50938 0.1 2.36875 0.0625 2.26562C0.025 2.15313 0 1.99688 0 1.875C0 1.75937 0.025 1.58438 0.059375 1.46875C0.09375 1.35625 0.1625 1.20312 0.2125 1.125C0.259375 1.04688 0.35625 0.93125 0.425 0.8625C0.490625 0.796875 0.6 0.709375 0.6625 0.66875C0.728125 0.628125 0.884375 0.559375 1.00625 0.51875C1.13125 0.475 1.30313 0.440625 1.39062 0.4375ZM0.99375 1.65625C0.9625 1.71563 0.9375 1.80625 0.9375 1.85938C0.9375 1.90937 0.9625 2.00312 0.99375 2.0625C1.02188 2.12188 1.09687 2.20313 1.15625 2.24375C1.22812 2.29063 1.3125 2.31562 1.40625 2.31562C1.5 2.31562 1.58438 2.29063 1.65625 2.24375C1.71563 2.20313 1.79062 2.12188 1.81875 2.0625C1.85 2.00312 1.875 1.90937 1.875 1.85938C1.875 1.80625 1.85 1.71563 1.81875 1.65625C1.79062 1.59687 1.71563 1.51562 1.65625 1.475C1.58125 1.42813 1.50313 1.40625 1.40313 1.40625C1.30938 1.40625 1.22604 1.43021 1.15313 1.47812C1.09375 1.51562 1.02188 1.59687 0.99375 1.65625ZM14.1812 1.65625C14.15 1.71563 14.125 1.80625 14.125 1.85938C14.125 1.90937 14.15 2.00312 14.1812 2.0625C14.2094 2.12188 14.2844 2.20313 14.3438 2.24375C14.4156 2.29063 14.5 2.31562 14.5938 2.31562C14.6875 2.31562 14.7719 2.29063 14.8438 2.24375C14.9031 2.20313 14.9781 2.12188 15.0063 2.0625C15.0375 2.00312 15.0625 1.90937 15.0625 1.85938C15.0625 1.80625 15.0375 1.71563 15.0063 1.65625C14.9781 1.59687 14.9031 1.51562 14.8438 1.475C14.7688 1.42813 14.6906 1.40625 14.5906 1.40625C14.4969 1.40625 14.4135 1.43021 14.3406 1.47812C14.2812 1.51562 14.2094 1.59687 14.1812 1.65625ZM7.20312 3.07812C6.9625 3.2375 6.59688 3.45937 6.39062 3.56562C6.18437 3.675 5.83125 3.85 5.60938 3.95625C5.38438 4.0625 4.93437 4.25625 4.60938 4.38438C4.28438 4.51562 3.8 4.69375 3.5375 4.77812L3.0625 4.9375C3.0625 5.59062 3.08437 5.9875 3.1125 6.24375C3.1375 6.49688 3.19375 6.88438 3.23438 7.10938C3.275 7.33437 3.35313 7.68437 3.40625 7.89062C3.45937 8.09688 3.55625 8.42812 3.62188 8.625C3.69062 8.82187 3.80312 9.1375 3.87812 9.32812C3.95312 9.51875 4.12813 9.89688 4.26562 10.1719C4.40312 10.4469 4.63125 10.8562 4.77187 11.0781C4.90937 11.3 5.14062 11.6375 5.28125 11.8281C5.425 12.0188 5.64062 12.2906 5.7625 12.4375C5.88437 12.5813 6.175 12.8938 6.40625 13.1281C6.6375 13.3594 6.975 13.6781 7.15625 13.8313C7.3375 13.9844 7.6 14.1969 7.74062 14.3062L8 14.5C8.49687 14.1187 8.78125 13.8844 8.95312 13.7312C9.125 13.5813 9.41875 13.3 9.60625 13.1094C9.79375 12.9219 10.0875 12.5969 10.2625 12.3875C10.4375 12.1812 10.6906 11.85 10.8313 11.6531C10.9688 11.4563 11.1844 11.1312 11.3062 10.9312C11.4312 10.7281 11.6219 10.3844 11.7312 10.1656C11.8406 9.94375 12 9.59688 12.0875 9.39062C12.175 9.18437 12.3 8.84688 12.3687 8.64062C12.4375 8.43437 12.5375 8.09688 12.5938 7.89062C12.6469 7.68437 12.725 7.33437 12.7656 7.10938C12.8062 6.88438 12.8625 6.50313 12.8875 6.25938C12.9156 6.0125 12.9375 5.61875 12.9375 5.38438L12.9406 4.95312C12.2 4.69375 11.7156 4.5125 11.3906 4.38438C11.0656 4.25625 10.5375 4.025 10.2188 3.87188C9.9 3.71563 9.5125 3.51875 9.35938 3.43125C9.20625 3.34063 8.95 3.18437 8.79688 3.08437C8.64375 2.98125 8.4 2.80625 8.25625 2.69688C8.11563 2.59063 7.99687 2.5 7.99062 2.5C7.9875 2.50312 7.90625 2.56562 7.8125 2.64375C7.71875 2.72187 7.44375 2.91563 7.20312 3.07812ZM1.01875 12.8313C0.96875 12.9062 0.9375 12.9969 0.9375 13.0625C0.940625 13.1219 0.96875 13.2219 1 13.2812C1.03437 13.3406 1.11563 13.4219 1.18125 13.4594C1.24375 13.4969 1.34687 13.5281 1.40625 13.5281C1.46563 13.5281 1.56562 13.5 1.625 13.4688C1.68438 13.4344 1.76562 13.3531 1.80313 13.2875C1.84063 13.225 1.87188 13.125 1.875 13.0688C1.875 13.0156 1.84687 12.9125 1.8125 12.8438C1.77083 12.7604 1.70833 12.6979 1.625 12.6562C1.55625 12.6219 1.45312 12.5938 1.39688 12.5938C1.34375 12.5938 1.25313 12.6187 1.2 12.6531C1.14375 12.6844 1.06562 12.7656 1.01875 12.8313ZM14.2063 12.8313C14.1562 12.9062 14.125 12.9969 14.125 13.0625C14.1281 13.1219 14.1562 13.2219 14.1875 13.2812C14.2219 13.3406 14.3031 13.4219 14.3687 13.4594C14.4312 13.4969 14.5344 13.5281 14.5938 13.5281C14.6531 13.5281 14.7531 13.5 14.8125 13.4688C14.8719 13.4344 14.9531 13.3531 14.9906 13.2875C15.0281 13.225 15.0594 13.125 15.0625 13.0688C15.0625 13.0156 15.0344 12.9125 15 12.8438C14.9583 12.7604 14.8958 12.6979 14.8125 12.6562C14.7437 12.6219 14.6406 12.5938 14.5844 12.5938C14.5312 12.5938 14.4406 12.6187 14.3875 12.6531C14.3313 12.6844 14.2531 12.7656 14.2063 12.8313ZM7.98438 4.50313C8.10312 4.50313 8.3 4.52187 8.42188 4.54688C8.54062 4.57188 8.75937 4.65312 8.90625 4.725C9.10938 4.825 9.225 4.90937 9.40625 5.09062C9.55625 5.24375 9.68438 5.40625 9.75625 5.54688C9.81875 5.66563 9.9 5.87813 9.9375 6.01562C9.97812 6.17812 10 6.35938 10 6.53125C9.99687 6.79375 10 6.79688 10.0844 6.83437C10.1313 6.85625 10.2312 6.93437 10.3062 7.00625C10.3812 7.08125 10.4719 7.20312 10.5094 7.28125C10.5781 7.41875 10.5781 7.44063 10.5781 10.4844L10.4969 10.6562C10.45 10.75 10.35 10.8812 10.2781 10.9469C10.2 11.0125 10.0719 11.0844 9.98438 11.1125C9.85625 11.15 9.5125 11.1562 8 11.1562C6.4875 11.1562 6.14375 11.15 6.01562 11.1125C5.92812 11.0844 5.8 11.0125 5.72188 10.9469C5.65 10.8812 5.55 10.75 5.42188 10.4844V8.95312C5.42188 7.475 5.425 7.41563 5.48438 7.28125C5.52187 7.20312 5.60625 7.08437 5.675 7.01562C5.74375 6.94688 5.84375 6.87187 5.98438 6.8125L6.00625 6.44375C6.01875 6.19062 6.04688 6.01875 6.09375 5.89062C6.12813 5.7875 6.20312 5.61875 6.25938 5.51562C6.31563 5.40938 6.4625 5.225 6.59375 5.09062C6.775 4.90937 6.89062 4.825 7.09375 4.725C7.24062 4.65 7.45 4.57188 7.5625 4.55C7.675 4.525 7.8625 4.50313 7.98438 4.50313ZM7.48438 5.56875C7.43125 5.59687 7.32812 5.67813 7.25 5.75313C7.175 5.82812 7.07812 5.96875 7.03438 6.0625C6.97188 6.19375 6.95312 6.29688 6.94688 6.49062L6.9375 6.75H9.0625C9.04688 6.29375 9.02812 6.19375 8.96562 6.0625C8.92188 5.96875 8.825 5.82812 8.75 5.75C8.67188 5.675 8.53125 5.57812 8.4375 5.53438C8.32187 5.48125 8.19687 5.45312 8.04688 5.44688C7.92188 5.44063 7.775 5.45625 7.70312 5.47813C7.63438 5.50313 7.53438 5.54375 7.48438 5.56875ZM6.3375 8.975L6.34375 10.2188H9.65625L9.64062 7.70312C7.11875 7.69063 6.375 7.69688 6.35938 7.70937C6.34375 7.71875 6.33437 8.29063 6.3375 8.975ZM8.03125 8.32812C8.05625 8.33437 8.1125 8.35 8.15625 8.35938C8.2 8.37187 8.26875 8.4125 8.30937 8.45C8.35 8.48438 8.40312 8.5625 8.425 8.61563C8.45 8.675 8.46875 8.82812 8.46875 8.96875C8.46875 9.15625 8.45312 9.25 8.40625 9.34375C8.36458 9.42708 8.30208 9.48958 8.21875 9.53125C8.15 9.56563 8.05 9.59375 8 9.59375C7.94688 9.59375 7.85 9.56563 7.78125 9.53125C7.69792 9.48958 7.63542 9.42708 7.59375 9.34375C7.54688 9.25 7.53125 9.15625 7.53125 8.96875C7.53125 8.82812 7.55 8.675 7.575 8.61563C7.59687 8.5625 7.64375 8.49062 7.675 8.4625C7.70938 8.43125 7.79063 8.3875 7.85938 8.3625C7.92812 8.3375 8.00625 8.32188 8.03125 8.32812Z" fill="#ACB9CB"/>
</g>
<defs>
<clipPath id="clip0_544_4767">
<rect width="16" height="16" fill="white"/>
</clipPath>
</defs>
</svg>
