<svg width="16" height="16" viewBox="0 0 16 16" fill="none" xmlns="http://www.w3.org/2000/svg">
<g clip-path="url(#clip0_544_4765)">
<path fill-rule="evenodd" clip-rule="evenodd" d="M14.8281 1.78125L15.0312 1.85312C15.1438 1.89375 15.2969 1.96875 15.375 2.02187C15.4531 2.07187 15.5719 2.17812 15.6406 2.25625C15.7094 2.33125 15.8031 2.47187 15.8469 2.56562C15.8938 2.65937 15.9437 2.80937 15.9656 2.89687C15.9906 3.01562 16 4.2375 16 11.375L15.9312 11.4875C15.8906 11.55 15.8062 11.6281 15.7437 11.6594C15.6781 11.6938 15.5813 11.7188 15.5312 11.7188C15.4812 11.7188 15.3906 11.6969 15.3344 11.6656C15.2812 11.6375 14.8094 11.3 13.3438 10.2188H11.4688V10.8281C11.4688 11.1625 11.4531 11.5125 11.4344 11.6C11.4156 11.6906 11.3469 11.8625 11.2844 11.9812C11.2188 12.1094 11.1094 12.2562 11.0125 12.3406C10.9281 12.4187 10.7781 12.5219 10.6844 12.5656C10.5906 12.6125 10.4406 12.6656 10.3531 12.6844C10.2375 12.7094 9.075 12.7188 2.65625 12.7188L1.7125 13.4156C1.19062 13.7969 0.728125 14.1344 0.68125 14.1656C0.63125 14.1937 0.5375 14.2188 0.46875 14.2188C0.39375 14.2188 0.296875 14.1906 0.23125 14.1469C0.16875 14.1094 0.090625 14.025 0.059375 13.9594C0.003125 13.85 0 13.6719 0 5.45312L0.071875 5.25C0.1125 5.1375 0.1875 4.98438 0.240625 4.90625C0.290625 4.82812 0.396875 4.70937 0.475 4.64062C0.55 4.57188 0.690625 4.47812 0.784375 4.43437C0.878125 4.3875 1.02812 4.3375 1.11875 4.31563C1.22812 4.29375 1.8125 4.28125 4.53125 4.28125V3.67188C4.53125 3.3375 4.54688 2.9875 4.56563 2.89687C4.58438 2.80937 4.6375 2.65625 4.68125 2.5625C4.72813 2.4625 4.84062 2.3125 4.95 2.20312C5.05625 2.09688 5.19688 1.9875 5.26562 1.95312C5.33437 1.92188 5.45312 1.87188 5.53125 1.84063C5.6625 1.79063 5.99063 1.7875 14.8281 1.78125ZM1.49063 1.78437C1.56563 1.78125 1.6625 1.80313 1.7125 1.83438C1.75937 1.8625 1.84375 1.92812 2 2.07812L2.10313 1.98125C2.15625 1.92813 2.24063 1.8625 2.29063 1.83438C2.3375 1.80625 2.43125 1.78125 2.5 1.78125C2.575 1.78125 2.67188 1.80938 2.7375 1.85C2.8 1.89063 2.87812 1.975 2.90937 2.0375C2.94375 2.10312 2.96875 2.19688 2.96875 2.25C2.96875 2.3 2.94062 2.39687 2.90937 2.45937C2.875 2.525 2.725 2.7 2.57188 2.84687C2.42188 2.99687 2.25 3.14062 2.19688 3.16875C2.14062 3.19688 2.05312 3.21875 2 3.21875C1.95 3.21875 1.85312 3.19062 1.79062 3.15937C1.725 3.125 1.55 2.975 1.40313 2.82188C1.25313 2.67188 1.10938 2.5 1.08125 2.44375C1.05312 2.39062 1.03125 2.3 1.03125 2.25C1.03125 2.19688 1.05625 2.10312 1.09063 2.0375C1.12188 1.975 1.19375 1.89062 1.25312 1.85312C1.31562 1.8125 1.4125 1.78437 1.49375 1.78437H1.49063ZM5.7 2.79688C5.63125 2.8375 5.55 2.91875 5.52187 2.975C5.47813 3.0625 5.46875 3.175 5.46562 3.67812V4.28125C9.44062 4.28125 10.2375 4.29375 10.35 4.31563C10.4375 4.33438 10.5906 4.3875 10.6844 4.43125C10.7844 4.47813 10.9344 4.59062 11.0437 4.7C11.1531 4.80937 11.2688 4.96563 11.3156 5.0625C11.3594 5.15625 11.4094 5.30937 11.4312 5.39687C11.4531 5.50937 11.4656 6.15312 11.4656 7.42188V9.28125C13.5219 9.28125 13.5969 9.28438 13.7094 9.34375C13.7719 9.375 14.1 9.60625 14.4344 9.85625L15.0437 10.3062C15.0594 3.14687 15.0594 3.09063 14.9969 2.96875C14.9552 2.88542 14.8927 2.82292 14.8094 2.78125C14.6875 2.71875 14.6219 2.71875 10.2563 2.71875H5.825L5.7 2.79688ZM1.16875 5.29375C1.09063 5.34062 1.02188 5.41562 0.9875 5.49062C0.9375 5.60312 0.934375 5.82188 0.940625 9.20938L0.95 12.8094C1.94687 12.075 2.275 11.8438 2.31875 11.8219C2.38437 11.7906 3.24375 11.7844 6.27812 11.7844C10.0906 11.7844 10.1562 11.7812 10.2781 11.7219C10.3615 11.6802 10.424 11.6177 10.4656 11.5344C10.5281 11.4094 10.5281 11.3469 10.5281 8.50313C10.5281 5.65938 10.5281 5.59375 10.4656 5.47188C10.424 5.38854 10.3615 5.32604 10.2781 5.28438C10.1562 5.22188 10.0906 5.22188 5.725 5.22188H1.29375L1.16875 5.29375ZM12.4906 12.7812C12.5438 12.7812 12.6375 12.8031 12.6938 12.8313C12.7469 12.8594 12.8406 12.925 12.9969 13.0781L13.1 12.9781C13.1531 12.925 13.2469 12.8594 13.3031 12.8313C13.3563 12.8031 13.4469 12.7812 13.4969 12.7812C13.5469 12.7812 13.6469 12.8094 13.7156 12.8438C13.799 12.8854 13.8615 12.9479 13.9031 13.0312C13.9375 13.1 13.9656 13.1969 13.9656 13.25C13.9656 13.3 13.9375 13.3969 13.9062 13.4594C13.8719 13.525 13.7219 13.6969 13.5688 13.8469C13.4188 13.9938 13.2563 14.1375 13.2094 14.1656C13.1594 14.1937 13.0656 14.2188 12.9969 14.2188C12.9281 14.2188 12.8344 14.1937 12.7875 14.1656C12.7375 14.1375 12.575 13.9938 12.425 13.8469C12.2719 13.6969 12.1219 13.525 12.0875 13.4594C12.0562 13.3969 12.0281 13.3 12.0281 13.25C12.0281 13.1969 12.0562 13.1 12.0906 13.0312C12.1312 12.9531 12.1969 12.8844 12.2719 12.8438C12.3344 12.8094 12.4344 12.7812 12.4906 12.7812ZM4.77187 6.28125C4.85938 6.28125 5.02812 6.30312 5.14687 6.32812C5.2625 6.35313 5.44062 6.425 5.54375 6.48438C5.64687 6.54688 5.7375 6.59375 5.74687 6.59375C5.75625 6.59375 5.84687 6.54688 5.95 6.48438C6.05312 6.425 6.23125 6.35313 6.35 6.32812C6.46562 6.30312 6.62187 6.28125 6.7 6.28125C6.77812 6.28125 6.91563 6.29688 7.00625 6.31563C7.09375 6.33438 7.25937 6.39375 7.37187 6.44375C7.50312 6.50625 7.64375 6.60938 7.76562 6.73125C7.8875 6.85312 7.99063 6.99375 8.05 7.125C8.10313 7.2375 8.16562 7.4125 8.18437 7.51562C8.20937 7.62813 8.21562 7.8 8.20312 7.95312C8.19375 8.09062 8.1625 8.28125 8.13437 8.375C8.10625 8.46875 8.04062 8.63125 7.99062 8.73438C7.9375 8.8375 7.81563 9.03438 7.72188 9.17188C7.625 9.30937 7.4 9.56875 7.21875 9.75C7.0375 9.93125 6.78125 10.15 6.65312 10.2375C6.525 10.325 6.29375 10.4688 6.1375 10.5594C5.94687 10.6656 5.82187 10.7188 5.74687 10.7188C5.67188 10.7188 5.54688 10.6656 5.35625 10.5594C5.20312 10.4688 4.9625 10.3188 4.825 10.225C4.6875 10.1281 4.43437 9.90938 4.2625 9.73438C4.0875 9.5625 3.86875 9.30937 3.77187 9.17188C3.67812 9.03438 3.55625 8.8375 3.50312 8.73438C3.45312 8.63125 3.3875 8.46875 3.35938 8.375C3.33125 8.28125 3.3 8.09062 3.2875 7.95312C3.275 7.775 3.28437 7.63438 3.31875 7.46875C3.35 7.32812 3.41563 7.15938 3.48438 7.04688C3.54375 6.94375 3.65 6.80312 3.71563 6.73438C3.78437 6.66563 3.91875 6.55937 4.01875 6.5C4.11563 6.44063 4.29062 6.36562 4.40312 6.3375C4.51562 6.30938 4.68125 6.28438 4.77187 6.28125ZM4.31875 7.47813C4.24062 7.59063 4.23125 7.63125 4.23125 7.84062C4.23125 8.03437 4.24687 8.1125 4.31875 8.26562C4.36875 8.36875 4.46875 8.5375 4.54063 8.64062C4.61562 8.74375 4.7875 8.94063 4.925 9.07812C5.0625 9.21562 5.29688 9.40938 5.44375 9.50625C5.59375 9.60625 5.73438 9.6875 5.75625 9.68437C5.775 9.68437 5.9125 9.60313 6.05625 9.50625C6.20312 9.40938 6.42812 9.22187 6.55625 9.09062C6.6875 8.9625 6.8625 8.75937 6.94688 8.6375C7.03438 8.51875 7.13438 8.35 7.175 8.26562C7.2125 8.17812 7.25625 8.01875 7.26875 7.90625C7.28438 7.72813 7.27813 7.68125 7.2125 7.54688C7.16875 7.45937 7.09062 7.3625 7.02812 7.31875C6.96875 7.28125 6.85625 7.2375 6.77812 7.22813C6.69375 7.21875 6.5875 7.22813 6.5125 7.25313C6.44375 7.275 6.30937 7.36562 6.21562 7.45312C6.12187 7.54375 5.99687 7.6375 5.94375 7.66563C5.8875 7.69375 5.8 7.71875 5.74687 7.71875C5.69687 7.71875 5.60625 7.69375 5.55312 7.66563C5.49687 7.64062 5.375 7.54688 5.2875 7.4625C5.19688 7.38125 5.07187 7.29063 5.0125 7.26562C4.95312 7.24062 4.85 7.21875 4.7875 7.21875C4.72187 7.21875 4.60938 7.24688 4.5375 7.28438C4.46562 7.32188 4.36875 7.40938 4.31875 7.47813Z" fill="#ACB9CB"/>
</g>
<defs>
<clipPath id="clip0_544_4765">
<rect width="16" height="16" fill="white"/>
</clipPath>
</defs>
</svg>
