<svg width="16" height="16" viewBox="0 0 16 16" fill="none" xmlns="http://www.w3.org/2000/svg">
<path fill-rule="evenodd" clip-rule="evenodd" d="M13.8906 4.6875H14.5938C15.3692 4.6875 16 5.31834 16 6.09375C16 6.72206 15.5858 7.25534 15.0161 7.43509L14.2242 13.8302C14.1363 14.5329 13.5364 15.0625 12.8287 15.0625H12.1694C11.9759 15.6081 11.4549 16 10.8438 16C10.2327 16 9.71166 15.6081 9.51816 15.0625H6.51312C6.31962 15.6081 5.79859 16 5.1875 16C4.57641 16 4.05538 15.6081 3.86188 15.0625H3.17134C2.46362 15.0625 1.86375 14.5329 1.77597 13.8307L0.983938 7.43509C0.41425 7.25534 0 6.72206 0 6.09375C0 5.31834 0.630844 4.6875 1.40625 4.6875H2.08016L4.30463 1.02912C4.68497 0.395219 5.38303 0 6.125 0C6.86697 0 7.56503 0.395219 7.94678 1.03147L8.28272 1.59137C8.71475 1.17756 9.29919 0.9375 9.90625 0.9375C10.64 0.9375 11.341 1.28797 11.7812 1.875L13.8906 4.6875ZM9.90625 1.875C9.46597 1.875 9.04541 2.08528 8.78125 2.4375L7.07031 4.6875H12.7188L11.0312 2.4375C10.7671 2.08528 10.3465 1.875 9.90625 1.875ZM5.10709 1.51381C5.32041 1.15834 5.71044 0.9375 6.125 0.9375C6.53956 0.9375 6.92959 1.15834 7.14291 1.51381L7.65581 2.36869L5.89256 4.6875H3.17738L5.10709 1.51381ZM5.65625 14.5939V14.5938V14.5936C5.65616 14.3352 5.44591 14.125 5.1875 14.125C4.92903 14.125 4.71875 14.3353 4.71875 14.5938C4.71875 14.8522 4.92903 15.0625 5.1875 15.0625C5.44594 15.0625 5.65616 14.8523 5.65625 14.5939ZM10.8438 15.0625C10.5854 15.0625 10.3752 14.8524 10.375 14.5941V14.5938V14.5934C10.3752 14.3351 10.5853 14.125 10.8438 14.125C11.1022 14.125 11.3125 14.3353 11.3125 14.5938C11.3125 14.8522 11.1022 15.0625 10.8438 15.0625ZM12.8286 14.125C13.0645 14.125 13.2645 13.9485 13.2938 13.7144L13.4751 12.25H2.52487L2.70628 13.7149C2.73547 13.9485 2.93544 14.125 3.17134 14.125H3.86188C4.05538 13.5794 4.57641 13.1875 5.1875 13.1875C5.79859 13.1875 6.31962 13.5794 6.51312 14.125H9.51812C9.71163 13.5794 10.2327 13.1875 10.8438 13.1875C11.4548 13.1875 11.9759 13.5794 12.1694 14.125H12.8286ZM13.5912 11.3125H2.40878L1.93663 7.5H14.0633L13.5912 11.3125ZM1.40625 6.5625H14.5938C14.8522 6.5625 15.0625 6.35222 15.0625 6.09375C15.0625 5.83528 14.8522 5.625 14.5938 5.625H1.40625C1.14778 5.625 0.9375 5.83528 0.9375 6.09375C0.9375 6.35222 1.14778 6.5625 1.40625 6.5625Z" fill="#ACB9CB"/>
</svg>
