<svg width="16" height="16" viewBox="0 0 16 16" fill="none" xmlns="http://www.w3.org/2000/svg">
<g clip-path="url(#clip0_545_4792)">
<path fill-rule="evenodd" clip-rule="evenodd" d="M0.328125 1.9125L4.96875 1.90625L5.08125 1.975C5.14375 2.01563 5.22188 2.1 5.25313 2.1625C5.2875 2.22812 5.3125 2.32188 5.3125 2.375C5.3125 2.42813 5.28438 2.525 5.25 2.59375C5.20833 2.67708 5.14583 2.73958 5.0625 2.78125C4.94688 2.84062 4.875 2.84375 3.125 2.84375V4.40625H3.40625C3.625 4.40625 3.71563 4.41875 3.8125 4.46875C3.89583 4.51042 3.95833 4.57292 4 4.65625C4.05625 4.77187 4.0625 4.84375 4.0625 6.28125H11.9375V5.53125C11.9375 4.84375 11.9438 4.77187 12 4.65625C12.0417 4.57292 12.1042 4.51042 12.1875 4.46875C12.2844 4.41875 12.375 4.40625 12.875 4.40625V2.84375H11.9688C11.125 2.84375 11.0531 2.84062 10.9375 2.78125C10.8542 2.73958 10.7917 2.67708 10.75 2.59375C10.7156 2.525 10.6875 2.42813 10.6875 2.375C10.6875 2.32188 10.7125 2.22812 10.7469 2.1625C10.7781 2.1 10.8562 2.01562 11.0312 1.90625H15.6562L15.7688 1.975C15.8313 2.01563 15.9094 2.1 15.9406 2.1625C15.975 2.22812 16 2.32188 16 2.375C16 2.42813 15.9719 2.525 15.9375 2.59375C15.8958 2.67708 15.8333 2.73958 15.75 2.78125C15.6344 2.84062 15.5625 2.84375 13.8125 2.84375V4.40625H14.0938C14.3125 4.40625 14.4031 4.41875 14.5 4.46875C14.5688 4.50312 14.65 4.575 14.6812 4.63125C14.725 4.71875 14.7375 4.85 14.7656 6.29375L14.9219 6.32812C15.0094 6.34688 15.1469 6.39688 15.2312 6.44063C15.3156 6.48125 15.4469 6.57188 15.525 6.64062C15.6031 6.70937 15.7125 6.83437 15.7688 6.92188C15.8219 7.00625 15.8969 7.16875 15.9344 7.28125C15.9719 7.4 16 7.5625 16 7.67188C16 7.775 15.9812 7.92812 15.9563 8.01562C15.9344 8.1 15.8781 8.24688 15.8344 8.33438C15.7875 8.425 15.6969 8.55938 15.6313 8.63125C15.5688 8.70313 15.4438 8.80625 15.3594 8.85938C15.2719 8.91563 15.1313 8.9875 15.0469 9.01875C14.9062 9.07188 14.7563 9.07812 12.0625 9.10938L13.0312 9.96875C13.6187 10.4906 14.0156 10.8688 14.0469 10.9281C14.0875 11.0156 14.0938 11.2281 14.0938 12.375C14.0938 13.6219 14.0906 13.7281 14.0344 13.8375C14.0031 13.9 13.925 13.9844 13.8625 14.025C13.7969 14.0656 13.7 14.0938 13.625 14.0938C13.55 14.0938 13.4531 14.0656 13.3875 14.025C13.325 13.9844 13.2469 13.9 13.2156 13.8375C13.1594 13.7281 13.1562 13.625 13.1531 11.3281L11.2969 9.68437L11.2719 9.88125C11.2563 9.99063 11.2188 10.1844 11.1875 10.3125C11.1562 10.4406 11.0875 10.6594 11.0344 10.7969C10.9812 10.9344 10.8531 11.1781 10.75 11.3375C10.6469 11.4937 10.4531 11.7344 10.3188 11.8719C10.1875 12.0062 9.95 12.2 9.79688 12.3C9.64375 12.4 9.40938 12.525 9.28125 12.5813C9.15312 12.6344 8.91875 12.7125 8.76562 12.7531C8.525 12.8156 8.4125 12.825 7.98438 12.825C7.58437 12.8219 7.4375 12.8094 7.25 12.7594C7.12187 12.7219 6.90312 12.65 6.76562 12.5969C6.62813 12.5437 6.38438 12.4156 6.225 12.3125C6.06875 12.2094 5.82812 12.0156 5.69063 11.8813C5.55625 11.75 5.3625 11.5125 5.2625 11.3594C5.1625 11.2063 5.0375 10.9719 4.98125 10.8438C4.92812 10.7156 4.85313 10.4812 4.81875 10.3281C4.78125 10.175 4.74062 9.96562 4.70312 9.68437L2.84687 11.3281L2.84375 12.525C2.84375 13.6219 2.84063 13.7281 2.78437 13.8375C2.75312 13.9 2.675 13.9844 2.6125 14.025C2.54688 14.0656 2.45 14.0938 2.375 14.0938C2.3 14.0938 2.20312 14.0656 2.1375 14.0219C2.075 13.9844 1.99688 13.9 1.96563 13.8344C1.90938 13.7281 1.90625 13.6219 1.90625 12.375C1.90625 11.2469 1.9125 11.0156 1.95312 10.9281C1.98125 10.8656 2.3625 10.5063 3.9375 9.10938L2.52187 9.09375C1.64062 9.08125 1.075 9.0625 1.01562 9.04062C0.9625 9.02187 0.85 8.975 0.765625 8.93437C0.678125 8.89375 0.525 8.77812 0.421875 8.67188C0.315625 8.56875 0.2 8.41563 0.159375 8.32812C0.11875 8.24375 0.065625 8.10938 0.04375 8.03125C0.01875 7.95312 0 7.80625 0 7.70312C0 7.6 0.01875 7.44688 0.040625 7.35938C0.065625 7.275 0.115625 7.13438 0.159375 7.04688C0.2 6.9625 0.31875 6.80625 0.421875 6.70312C0.525 6.6 0.678125 6.48125 0.765625 6.4375C0.85 6.39687 0.990625 6.34687 1.23438 6.29375L1.25 5.5125C1.2625 4.85 1.275 4.71875 1.31875 4.63438C1.35 4.575 1.43125 4.50312 1.5 4.46875C1.59687 4.41875 1.6875 4.40625 2.1875 4.40625V2.84375H1.28125C0.4375 2.84375 0.365625 2.84062 0.25 2.78125C0.166667 2.73958 0.104167 2.67708 0.0625 2.59375C0.028125 2.525 0 2.42813 0 2.375C0 2.32188 0.025 2.22813 0.059375 2.16563C0.090625 2.1 0.1625 2.01562 0.221875 1.97812L0.328125 1.9125ZM2.1875 6.28438H3.125V5.34688H2.1875V6.28438ZM12.875 6.28438H13.8125V5.34688H12.875V6.28438ZM1.17188 7.29688C1.10312 7.34062 1.02188 7.42188 0.99375 7.47813C0.965625 7.53438 0.940625 7.625 0.9375 7.68125C0.9375 7.7375 0.965625 7.8375 0.996875 7.9C1.03125 7.96875 1.10625 8.04687 1.175 8.0875C1.29688 8.15625 1.3 8.15625 3.00938 8.15625L4.71875 8.15938V7.22188H1.29688L1.17188 7.29688ZM5.65625 8.5C5.65625 9.55 5.66563 9.825 5.70625 10.025C5.73438 10.1562 5.79063 10.35 5.83437 10.4531C5.87812 10.5562 5.9625 10.7188 6.02187 10.8125C6.08125 10.9062 6.21875 11.075 6.325 11.1844C6.42812 11.2937 6.60625 11.4438 6.71875 11.5156C6.83125 11.5906 7.00625 11.6844 7.10938 11.7281C7.2125 11.7719 7.40625 11.8313 7.54063 11.8562C7.67188 11.8844 7.88125 11.9062 8 11.9062C8.12187 11.9062 8.32812 11.8844 8.4625 11.8562C8.59375 11.8313 8.7875 11.7719 8.89062 11.7281C8.99375 11.6844 9.16875 11.5906 9.28125 11.5156C9.39375 11.4438 9.55937 11.3094 9.65312 11.2156C9.74375 11.1219 9.88125 10.9563 9.95312 10.8438C10.0281 10.7312 10.1219 10.5562 10.1656 10.4531C10.2094 10.35 10.2656 10.1562 10.2937 10.025C10.3344 9.825 10.3438 9.55 10.3438 8.5V7.21875H5.65625V8.5ZM11.2812 8.15625C14.625 8.15625 14.6906 8.15312 14.8125 8.09375C14.8958 8.05208 14.9583 7.98958 15 7.90625C15.0344 7.8375 15.0625 7.74062 15.0625 7.6875C15.0625 7.6375 15.0344 7.5375 15 7.46875C14.9583 7.38542 14.8958 7.32292 14.8125 7.28125C14.6906 7.22188 14.625 7.21875 12.9844 7.21875H11.2812V8.15625ZM7.97813 8.15938C8.05937 8.15938 8.2 8.17188 8.29062 8.19063C8.37812 8.20938 8.53125 8.2625 8.625 8.30625C8.725 8.35312 8.875 8.46562 8.98438 8.575C9.09688 8.6875 9.20937 8.84062 9.25937 8.94687C9.30625 9.04375 9.35938 9.22187 9.38125 9.3375C9.4125 9.50312 9.40938 9.59688 9.38125 9.78125C9.35313 9.93437 9.3 10.0906 9.225 10.2312C9.15625 10.3594 9.04375 10.5062 8.95 10.5906C8.86562 10.6719 8.7125 10.775 8.61563 10.8219C8.51875 10.8687 8.33437 10.925 8.2125 10.9438C8.03437 10.975 7.9375 10.975 7.775 10.9438C7.65625 10.925 7.48125 10.8687 7.38438 10.8219C7.27813 10.7719 7.125 10.6594 7.01562 10.55C6.90312 10.4375 6.79063 10.2875 6.74062 10.1812C6.69375 10.0812 6.64062 9.9 6.61875 9.775C6.59063 9.59687 6.59063 9.5 6.61875 9.3375C6.64062 9.22187 6.69375 9.04375 6.74062 8.94687C6.79063 8.8375 6.9 8.69063 7.0125 8.57812C7.11875 8.47188 7.275 8.35625 7.35938 8.31563C7.44688 8.275 7.5875 8.22187 7.67188 8.2C7.75938 8.18125 7.89375 8.1625 7.97813 8.15938ZM7.5875 9.35C7.55938 9.40625 7.53438 9.5 7.53125 9.55625C7.53125 9.6125 7.55937 9.70937 7.59062 9.775C7.625 9.84062 7.7 9.92188 7.76875 9.95938C7.8375 10 7.9375 10.0312 7.99375 10.0312C8.04688 10.0312 8.15 10.0031 8.21875 9.96875C8.30208 9.92708 8.36458 9.86458 8.40625 9.78125C8.44063 9.7125 8.46875 9.61562 8.46875 9.5625C8.46875 9.5125 8.44063 9.4125 8.40625 9.34375C8.36458 9.26042 8.30208 9.19792 8.21875 9.15625C8.15 9.12187 8.04688 9.09375 7.99375 9.09375C7.9375 9.09375 7.83437 9.12813 7.76562 9.17188C7.69688 9.2125 7.61562 9.29375 7.5875 9.35Z" fill="#ACB9CB"/>
</g>
<defs>
<clipPath id="clip0_545_4792">
<rect width="16" height="16" fill="white"/>
</clipPath>
</defs>
</svg>
