<svg width="16" height="16" viewBox="0 0 16 16" fill="none" xmlns="http://www.w3.org/2000/svg">
<g clip-path="url(#clip0_545_4798)">
<path fill-rule="evenodd" clip-rule="evenodd" d="M1.54688 0.00625L14.4219 0L14.6719 0.0875C14.8094 0.134375 15.0062 0.221875 15.1062 0.28125C15.2063 0.340625 15.375 0.484375 15.4812 0.596875C15.5844 0.709375 15.7156 0.884375 15.7719 0.9875C15.825 1.0875 15.9 1.27813 15.9344 1.40625C16 1.64062 16 1.65938 16 7.98438C16 14.2844 16 14.3313 15.9375 14.5781C15.9 14.7156 15.8281 14.9125 15.7719 15.0125C15.7156 15.1156 15.5844 15.2906 15.4812 15.4031C15.375 15.5156 15.2063 15.6594 15.1062 15.7188C15.0062 15.7781 14.8094 15.8656 14.4219 16H1.59375L1.38125 15.9344C1.26562 15.8969 1.0875 15.8219 0.984375 15.7688C0.875 15.7125 0.7 15.575 0.5625 15.4375C0.428125 15.3031 0.284375 15.125 0.228125 15.0156C0.175 14.9125 0.1 14.7219 0.065625 14.5938C0 14.3594 0 14.3406 0 8.01562C0 1.71562 0 1.66875 0.0625 1.42188C0.1 1.28437 0.171875 1.0875 0.228125 0.984375C0.28125 0.88125 0.425 0.696875 0.546875 0.575C0.665625 0.453125 0.834375 0.3125 0.921875 0.2625C1.00625 0.2125 1.18438 0.134375 1.3125 0.0875L1.54688 0.00625ZM1.3125 1.12812C1.25312 1.16875 1.16562 1.2625 1.11563 1.33125C1.06875 1.4 1.00625 1.525 0.98125 1.6125C0.946875 1.73438 0.9375 1.98125 0.9375 2.75938V3.75312H15.0625L15.0469 1.64375C14.9187 1.375 14.8281 1.25 14.7594 1.19062C14.6937 1.13125 14.5781 1.05625 14.5 1.01875L14.3594 0.95625C2.13125 0.940625 1.725 0.94375 1.57812 0.99375C1.49063 1.025 1.37188 1.08437 1.3125 1.12812ZM0.953125 14.3625C1.08125 14.6281 1.17188 14.7531 1.24063 14.8125C1.30625 14.8719 1.42188 14.9469 1.5 14.9844L1.64062 15.05H14.3594C14.5781 14.9469 14.6937 14.8719 14.7594 14.8125C14.8281 14.7531 14.9187 14.6281 14.9625 14.5344L15.0469 14.3625L15.0594 4.69063H0.9375L0.953125 14.3625ZM2.33437 1.87812C2.39062 1.87812 2.49375 1.90625 2.5625 1.94062C2.64583 1.98229 2.70833 2.04479 2.75 2.12812C2.78437 2.19687 2.8125 2.29375 2.8125 2.34687C2.8125 2.39687 2.78437 2.49688 2.75 2.56562C2.70833 2.64896 2.64583 2.71146 2.5625 2.75312C2.49375 2.7875 2.39375 2.81562 2.34375 2.81562C2.29063 2.81562 2.19375 2.7875 2.125 2.75312C2.04167 2.71146 1.97917 2.64896 1.9375 2.56562C1.90313 2.49688 1.875 2.39687 1.875 2.34687C1.875 2.29375 1.90313 2.19687 1.9375 2.12812C1.975 2.04688 2.04375 1.97812 2.11562 1.94062C2.18125 1.90625 2.27812 1.87812 2.33437 1.87812ZM4.20937 1.87812C4.26562 1.87812 4.36875 1.90625 4.4375 1.94062C4.52083 1.98229 4.58333 2.04479 4.625 2.12812C4.65938 2.19687 4.6875 2.29375 4.6875 2.34687C4.6875 2.39687 4.65938 2.49688 4.625 2.56562C4.58333 2.64896 4.52083 2.71146 4.4375 2.75312C4.36875 2.7875 4.26875 2.81562 4.21875 2.81562C4.16563 2.81562 4.06875 2.7875 4 2.75312C3.91667 2.71146 3.85417 2.64896 3.8125 2.56562C3.77813 2.49688 3.75 2.39687 3.75 2.34687C3.75 2.29375 3.77813 2.19687 3.8125 2.12812C3.85 2.04688 3.91875 1.97812 3.99062 1.94062C4.05625 1.90625 4.15312 1.87812 4.20937 1.87812ZM9.86563 1.87812C13.6875 1.87812 13.75 1.87812 13.875 1.94062C13.9583 1.98229 14.0208 2.04479 14.0625 2.12812C14.0969 2.19687 14.125 2.29375 14.125 2.34687C14.125 2.39687 14.0969 2.49688 14.0625 2.56562C14.0208 2.64896 13.9583 2.71146 13.875 2.75312C13.75 2.8125 13.6875 2.81562 9.875 2.81562C6.0625 2.81562 5.99687 2.8125 5.875 2.75312C5.79167 2.71146 5.72917 2.64896 5.6875 2.56562C5.65312 2.49688 5.625 2.39687 5.625 2.34687C5.625 2.29375 5.65312 2.19687 5.6875 2.12812C5.725 2.04688 5.79375 1.97812 5.86562 1.94062C5.98125 1.88125 6.075 1.87812 9.86563 1.87812ZM3.49062 5.62813C4.32188 5.62813 4.48438 5.63438 4.56875 5.675C4.625 5.70312 4.70312 5.7625 4.74062 5.80937C4.79063 5.86875 4.85625 6.08438 5.14062 7.25313H8.14062C10.7031 7.25313 11.1719 7.25938 11.3594 7.3C11.4781 7.325 11.6562 7.39062 11.75 7.44063C11.8438 7.49063 11.9781 7.57812 12.0437 7.63438C12.1125 7.69063 12.2281 7.82188 12.3031 7.925C12.3781 8.02812 12.4688 8.18437 12.5 8.275C12.5344 8.36562 12.575 8.53437 12.5938 8.65C12.6187 8.79688 12.6187 8.92188 12.5938 9.06563C12.5781 9.175 12.3875 9.81563 11.7844 11.7063L11.8906 11.8313C11.9469 11.9 12.0344 12.0406 12.0813 12.1438C12.1281 12.2469 12.1812 12.4219 12.1969 12.5344C12.2219 12.6813 12.2219 12.7906 12.1938 12.9406C12.1719 13.05 12.1125 13.2344 12.0594 13.3469C11.9969 13.4719 11.8938 13.6125 11.7844 13.7219C11.6875 13.8156 11.5281 13.9312 11.4281 13.9781C11.3313 14.025 11.1469 14.0812 11.0219 14.1031C10.8469 14.1312 10.75 14.1312 10.5844 14.1031C10.4688 14.0812 10.3 14.0312 10.2094 13.9875C10.1188 13.9469 9.96875 13.8438 9.875 13.7594C9.78125 13.6719 9.65625 13.5281 9.60312 13.4344C9.54688 13.3438 9.47812 13.175 9.45 13.0656C9.4125 12.9187 9.40312 12.7937 9.41562 12.6281C9.425 12.4969 9.44063 12.3594 9.46875 12.2531H7.75L7.76562 12.3375C7.77187 12.3844 7.7875 12.5156 7.8 12.6281C7.8125 12.7688 7.80313 12.8875 7.76875 13.025C7.74063 13.1312 7.68125 13.2937 7.63438 13.3844C7.59063 13.475 7.47188 13.625 7.37813 13.7219C7.28125 13.8156 7.12187 13.9312 7.02187 13.9781C6.925 14.025 6.74062 14.0812 6.61562 14.1031C6.44062 14.1312 6.34375 14.1312 6.17812 14.1031C6.0625 14.0812 5.89375 14.0312 5.80312 13.9875C5.7125 13.9469 5.5625 13.8438 5.46875 13.7594C5.375 13.6719 5.25 13.5281 5.19688 13.4344C5.14062 13.3438 5.075 13.1844 5.04688 13.0813C5.02187 12.9781 5 12.8156 5 12.7219C5 12.625 5.02187 12.4656 5.04688 12.3625C5.07188 12.2594 5.1375 12.1031 5.28438 11.8625L4.0125 6.58125L3.21563 6.5625C2.77813 6.55312 2.41875 6.54375 2.4125 6.5375C2.40937 6.53437 2.35625 6.4875 2.29375 6.43125C2.22813 6.37188 2.17188 6.28125 2.15313 6.2125C2.13438 6.14062 2.13438 6.05 2.15313 5.97813C2.17188 5.9125 2.22187 5.82187 2.27187 5.77812C2.31875 5.73125 2.39375 5.67812 2.4375 5.6625C2.48125 5.64375 2.92188 5.63125 3.49062 5.62813ZM5.74375 9.78438L6.10938 11.3L10.9219 11.3156C11.4688 9.60625 11.6406 9.05625 11.6562 8.9875C11.6719 8.90625 11.6719 8.80625 11.65 8.70625C11.625 8.58438 11.5844 8.51562 11.4719 8.40312C11.3813 8.3125 11.2812 8.24688 11.2031 8.225C11.1156 8.2 10.2156 8.19063 8.225 8.19063C5.96563 8.19063 5.375 8.19687 5.375 8.22812C5.375 8.25 5.54063 8.95 5.74375 9.78438ZM6.02187 12.45C5.98438 12.5062 5.95 12.6125 5.94375 12.6906C5.9375 12.7875 5.95 12.8625 5.99375 12.9406C6.025 13 6.10625 13.0812 6.175 13.1187C6.24063 13.1562 6.34688 13.1875 6.40625 13.1875C6.46562 13.1875 6.56875 13.1562 6.63438 13.1187C6.70625 13.075 6.775 13 6.8125 12.925C6.84688 12.8562 6.87187 12.7625 6.87187 12.7219C6.87187 12.6781 6.84688 12.5875 6.8125 12.5188C6.775 12.4406 6.70625 12.3656 6.63438 12.3219C6.56875 12.2844 6.46562 12.2531 6.40625 12.2531C6.34688 12.2531 6.25 12.275 6.19375 12.3031C6.13438 12.3313 6.05937 12.3969 6.02187 12.45ZM10.4281 12.45C10.3906 12.5062 10.3563 12.6125 10.35 12.6906C10.3438 12.7875 10.3562 12.8625 10.4 12.9406C10.4312 13 10.5125 13.0812 10.5813 13.1187C10.6469 13.1562 10.7531 13.1875 10.8125 13.1875C10.8719 13.1875 10.975 13.1562 11.0406 13.1187C11.1125 13.075 11.1812 13 11.2188 12.925C11.2531 12.8562 11.2781 12.7625 11.2781 12.7219C11.2781 12.6781 11.2531 12.5875 11.2188 12.5188C11.1812 12.4406 11.1125 12.3656 11.0406 12.3219C10.975 12.2844 10.8719 12.2531 10.8125 12.2531C10.7531 12.2531 10.6562 12.275 10.6 12.3031C10.5406 12.3313 10.4656 12.3969 10.4281 12.45Z" fill="#ACB9CB"/>
</g>
<defs>
<clipPath id="clip0_545_4798">
<rect width="16" height="16" fill="white"/>
</clipPath>
</defs>
</svg>
