<svg width="16" height="16" viewBox="0 0 16 16" fill="none" xmlns="http://www.w3.org/2000/svg">
<g clip-path="url(#clip0_556_4024)">
<path fill-rule="evenodd" clip-rule="evenodd" d="M7.86893 1.59375C7.92205 1.59375 7.99393 1.60625 8.02205 1.625C8.0533 1.64062 9.75018 2.25937 11.7971 3C15.1127 4.19688 15.5252 4.35312 15.6127 4.44375C15.6689 4.50625 15.7189 4.6 15.7314 4.67188C15.7502 4.76875 15.7408 4.83125 15.6908 4.94375C15.6533 5.02812 15.5939 5.1125 15.5564 5.13125C15.5158 5.15312 15.2939 5.24375 14.6408 5.4875L14.6252 9.73438L15.2627 10.375C15.6127 10.7281 15.9221 11.0625 15.9502 11.1156C15.9783 11.1719 16.0002 11.2625 16.0002 11.3125C16.0002 11.3625 15.9721 11.4594 15.9408 11.5219C15.9064 11.5875 15.5971 11.9219 14.6252 12.8906V13.4531C14.6252 13.925 14.6158 14.0344 14.5689 14.125C14.5408 14.1844 14.4596 14.2719 14.3908 14.3188C14.3127 14.3719 14.2252 14.4031 14.1564 14.4031C14.0877 14.4031 14.0002 14.3719 13.9221 14.3188C13.8533 14.2719 13.7721 14.1844 13.7439 14.125C13.6971 14.0344 13.6877 13.925 13.6877 12.8906L13.0189 12.2188C12.4283 11.625 12.3471 11.5312 12.3283 11.4219C12.3158 11.3531 12.3158 11.2469 12.3283 11.1875C12.3471 11.1 12.4783 10.95 13.6877 9.73438V7.7875C13.6877 6.71875 13.6783 5.84375 13.6658 5.84375C13.6502 5.84375 13.3939 5.93437 12.5471 6.24062L12.5158 9.49063L12.4346 9.59688C12.3908 9.65625 12.2783 9.76875 12.1846 9.84688C12.0908 9.925 11.9252 10.05 11.8127 10.125C11.7002 10.2 11.4689 10.3281 11.2971 10.4094C11.1252 10.4906 10.8314 10.6094 10.6408 10.6719C10.4502 10.7312 10.1346 10.8156 9.93768 10.8594C9.7408 10.9 9.4033 10.9563 9.18768 10.9844C8.97205 11.0125 8.4658 11.0438 8.06268 11.0531C7.6033 11.0656 7.1533 11.0563 6.85955 11.0344C6.60018 11.0125 6.22205 10.9688 6.0158 10.9344C5.80955 10.9 5.4783 10.8313 5.28143 10.7781C5.08455 10.725 4.8033 10.6375 4.65643 10.5813C4.50955 10.525 4.30018 10.4312 4.18768 10.375C4.07518 10.3188 3.87205 10.2 3.73455 10.1094C3.59705 10.0188 3.39393 9.84688 3.28143 9.73125C3.1408 9.58437 3.06893 9.48125 3.0533 9.40625C3.0408 9.34688 3.03143 8.6 3.03143 6.20312L1.63143 5.6875C0.515801 5.27813 0.215801 5.15313 0.137676 5.07812C0.0751758 5.01875 0.0314258 4.9375 0.0158008 4.85938C0.00330078 4.7875 0.00642578 4.6875 0.0251758 4.625C0.0439258 4.56562 0.100176 4.47813 0.147051 4.43125C0.215801 4.3625 1.0408 4.05312 3.9533 2.99688C6.00018 2.25625 7.69393 1.6375 7.71893 1.62188C7.74393 1.60938 7.81268 1.59375 7.8658 1.59375H7.86893ZM1.90955 4.7375C1.86893 4.75313 1.86893 4.75625 1.90955 4.78125C1.93455 4.79375 3.26268 5.29375 4.86268 5.88438L7.76893 6.9625C12.4658 5.27188 13.8377 4.77187 13.8471 4.76562C13.8564 4.75625 13.8564 4.74687 13.8471 4.74062C13.8377 4.73438 12.5033 4.25 10.8783 3.6625C9.2533 3.075 7.89705 2.59375 7.86268 2.59687C7.8283 2.59687 6.48455 3.075 4.8783 3.65937C3.27205 4.24062 1.93455 4.72813 1.90955 4.7375ZM3.97205 9.125C4.22518 9.32188 4.42518 9.44375 4.58143 9.51875C4.73455 9.59688 5.00955 9.70625 5.1908 9.76562C5.37205 9.82187 5.6658 9.9 5.84705 9.9375C6.0283 9.975 6.32205 10.025 6.5033 10.05C6.68455 10.075 7.13455 10.1063 7.5033 10.1156C7.93143 10.1281 8.3408 10.1188 8.6283 10.0969C8.8783 10.075 9.23455 10.0312 9.42518 9.99687C9.61268 9.96562 9.9033 9.90312 10.0658 9.85625C10.2283 9.8125 10.4814 9.73125 10.6283 9.67813C10.7752 9.62188 11.0033 9.51562 11.1377 9.4375C11.2752 9.35938 11.4314 9.25937 11.4908 9.2125L11.5971 9.125C11.5971 7.1625 11.5908 6.59375 11.5814 6.59375C11.5721 6.59375 10.7471 6.89062 9.74393 7.25313C8.46268 7.71875 7.88455 7.91563 7.78455 7.91563C7.67205 7.91875 7.26268 7.77812 5.82205 7.24062C4.82205 6.86875 3.99705 6.5625 3.98768 6.5625C3.9783 6.5625 3.97205 7.1375 3.97205 7.84375V9.125ZM13.4564 11.3125L14.1596 12.0156L14.8627 11.3125C14.3283 10.7781 14.1689 10.625 14.1596 10.625C14.1502 10.625 13.9877 10.7812 13.8002 10.9688L13.4564 11.3125Z" fill="#ACB9CB"/>
</g>
<defs>
<clipPath id="clip0_556_4024">
<rect width="16" height="16" fill="white"/>
</clipPath>
</defs>
</svg>
