<svg width="16" height="16" viewBox="0 0 16 16" fill="none" xmlns="http://www.w3.org/2000/svg">
<g clip-path="url(#clip0_556_4030)">
<path fill-rule="evenodd" clip-rule="evenodd" d="M7.99687 0C8.425 0 8.69063 0.015625 9 0.0625C9.23125 0.096875 9.55 0.15625 9.70312 0.19375C9.85625 0.228125 10.1687 0.321875 10.3906 0.396875C10.6125 0.475 10.9594 0.6125 11.1562 0.70625C11.3531 0.803125 11.6 0.928125 11.7031 0.990625C11.8062 1.05313 12.0188 1.1875 12.1719 1.29062C12.325 1.39375 12.5156 1.52813 12.5938 1.59063C12.6719 1.65313 12.875 1.825 13.0469 1.97187C13.2188 2.12188 13.45 2.34687 13.5625 2.475C13.675 2.6 13.8469 2.80312 13.9438 2.92188C14.0406 3.04063 14.2125 3.28125 14.325 3.45312C14.4406 3.625 14.6375 3.97813 14.7656 4.23438C14.8938 4.49375 15.0594 4.89375 15.1375 5.125C15.2125 5.35625 15.3125 5.72188 15.3562 5.9375C15.4 6.15312 15.4594 6.50625 15.4844 6.72813C15.5094 6.94688 15.5312 7.26562 15.5312 7.4375C15.5312 7.60938 15.5094 7.94375 15.4812 8.18125C15.4563 8.41562 15.3969 8.77812 15.3531 8.98438C15.3094 9.19063 15.2406 9.47812 15.1969 9.625C15.1562 9.77188 15.0562 10.0531 14.9812 10.25C14.9031 10.4469 14.7563 10.7719 14.6562 10.9688C14.5531 11.1656 14.3625 11.4969 14.225 11.7031C14.0906 11.9094 13.8687 12.2125 13.7344 12.375C13.5969 12.5375 13.3656 12.7906 13.2188 12.9344C13.0719 13.0813 12.8125 13.3125 12.6406 13.45C12.4688 13.5875 12.2094 13.775 12.0625 13.8687C11.9156 13.9656 11.6438 14.1219 11.4531 14.2219C11.2625 14.3188 10.9812 14.45 10.8281 14.5125C10.675 14.5719 10.4062 14.6656 10.2344 14.7188C10.0625 14.7719 9.75313 14.85 9.54688 14.8906C9.34062 14.9312 9.03438 14.9812 8.86563 14.9969C8.7 15.0156 8.33125 15.0312 7.53125 15.0312V10.1562L7.4125 10.1375C7.35 10.1281 7.19063 10.0781 7.0625 10.025C6.93437 9.975 6.72813 9.86875 6.60938 9.79062C6.49062 9.7125 6.30625 9.5625 6.2 9.45625C6.09375 9.35 5.94688 9.16875 5.86875 9.04688C5.79063 8.925 5.69063 8.74063 5.64375 8.63125C5.6 8.525 5.54063 8.35 5.50938 8.24063C5.46563 8.07812 5.45625 7.82188 5.4375 5.125H6.375V3.28125H7.3125V5.125H8.71875V3.28125H9.65625V5.125H10.5625V6.50938C10.5625 7.73125 10.5563 7.92188 10.5031 8.17188C10.4719 8.325 10.3938 8.56563 10.3313 8.70312C10.2656 8.84062 10.1531 9.0375 10.0813 9.14062C10.0063 9.24375 9.85625 9.4125 9.74687 9.51562C9.6375 9.61875 9.44063 9.76875 9.3125 9.84375C9.18437 9.92188 8.96562 10.0219 8.82812 10.0688C8.69063 10.1156 8.55313 10.1562 8.52188 10.1562C8.47188 10.1562 8.46875 10.2719 8.46875 12.125C8.46875 13.2063 8.47813 14.0938 8.49063 14.0938C8.50625 14.0938 8.6625 14.0719 8.84375 14.0437C9.025 14.0188 9.34062 13.9563 9.54688 13.9062C9.75313 13.8562 10.0688 13.7656 10.25 13.7031C10.4312 13.6406 10.7625 13.5 10.9844 13.3906C11.2063 13.2844 11.525 13.1062 11.6875 13C11.85 12.8906 12.0813 12.7219 12.2031 12.625C12.325 12.525 12.5344 12.3344 12.6687 12.2C12.8062 12.0625 13 11.8469 13.1031 11.7188C13.2062 11.5906 13.3562 11.3875 13.4375 11.2656C13.5188 11.1438 13.6656 10.9 13.7594 10.7188C13.8562 10.5375 13.9969 10.2281 14.075 10.0312C14.15 9.83438 14.25 9.5375 14.2937 9.375C14.3375 9.2125 14.4031 8.90938 14.4375 8.70312C14.4812 8.46875 14.5094 8.11875 14.5219 7.76562C14.5312 7.42188 14.525 7.06875 14.5031 6.85938C14.4812 6.66875 14.4312 6.34375 14.3906 6.13438C14.3469 5.92188 14.2594 5.58437 14.1906 5.38438C14.125 5.18125 14.0094 4.88125 13.9344 4.71875C13.8625 4.55625 13.7469 4.32188 13.6781 4.20312C13.6094 4.08437 13.4844 3.87812 13.3969 3.75C13.3125 3.62188 13.1594 3.41563 13.0625 3.29688C12.9656 3.17812 12.7594 2.95312 12.6062 2.8C12.4531 2.64687 12.1938 2.42188 12.0312 2.3C11.8687 2.175 11.6 1.99687 11.4375 1.9C11.275 1.80313 11.0344 1.675 10.9062 1.61563C10.7781 1.55625 10.5375 1.45938 10.375 1.39688C10.2125 1.33438 9.9375 1.25 9.76562 1.20312C9.59375 1.15937 9.29062 1.09687 9.09375 1.0625C8.89688 1.02813 8.5375 0.9875 8.29688 0.971875C8.02187 0.953125 7.70937 0.953125 7.45312 0.971875C7.22813 0.9875 6.87813 1.03437 6.67188 1.07812C6.46562 1.11875 6.14375 1.20312 5.95312 1.26562C5.7625 1.32812 5.4125 1.475 5.17188 1.59375C4.93125 1.7125 4.61562 1.8875 4.46875 1.9875C4.32188 2.08437 4.075 2.26562 3.92188 2.39062C3.76562 2.51562 3.5 2.7625 3.32812 2.94062C3.15625 3.11875 2.91563 3.4 2.79375 3.5625C2.66875 3.725 2.48125 4.00625 2.37188 4.1875C2.26562 4.36875 2.11563 4.65 2.04063 4.8125C1.9625 4.975 1.85313 5.25 1.79375 5.42188C1.73438 5.59375 1.65 5.86875 1.60938 6.03125C1.56875 6.19375 1.51562 6.46875 1.4875 6.64062C1.4625 6.8125 1.43125 7.11562 1.42188 7.3125C1.40938 7.50938 1.41563 7.84375 1.43438 8.05625C1.45313 8.26562 1.49687 8.5875 1.53437 8.775C1.56875 8.95937 1.65313 9.28125 1.84375 9.875L1.975 9.89062C2.05 9.89688 2.2625 9.91875 2.45312 9.9375C2.64062 9.95625 2.95937 10.0063 3.15625 10.05C3.35313 10.0938 3.65 10.1813 3.8125 10.2406C3.975 10.3031 4.17812 10.3875 4.26562 10.4281C4.35 10.4719 4.53438 10.5813 4.67188 10.6719C4.80937 10.7625 5.0125 10.9281 5.12187 11.0344C5.23438 11.1438 5.38438 11.3188 5.4625 11.4219C5.5375 11.525 5.64688 11.7031 5.70625 11.8219C5.76562 11.9375 5.85312 12.1531 5.90312 12.3031C5.95625 12.4563 6.01875 12.7406 6.05 12.9375C6.0875 13.2063 6.09687 13.4062 6.08437 13.7344C6.07188 13.975 6.04375 14.3062 6.01562 14.4688C5.9875 14.6313 5.93125 14.9 5.89062 15.0625C5.85 15.225 5.76562 15.5 5.60313 15.9844H5.075C4.72187 15.9844 4.42812 15.9656 4.1875 15.9281C3.99062 15.8969 3.69062 15.8375 3.52187 15.7969C3.35625 15.7531 3.0875 15.6687 2.92812 15.6062C2.77187 15.5469 2.55 15.4469 2.4375 15.3844C2.325 15.3219 2.15 15.2125 2.04688 15.1375C1.94375 15.0656 1.75313 14.8937 1.62188 14.7594C1.49375 14.625 1.3375 14.4438 1.28125 14.3594C1.22188 14.2719 1.11563 14.075 1.04375 13.9219C0.96875 13.7688 0.88125 13.5281 0.846875 13.3906C0.8125 13.2531 0.76875 13.0437 0.75 12.9219C0.734375 12.8 0.71875 12.5344 0.71875 12.3281C0.71875 12.1219 0.740625 11.8 0.765625 11.6094C0.790625 11.4187 0.8625 11.0625 1.04062 10.3594L0.9625 10.1406C0.91875 10.0188 0.840625 9.76875 0.7875 9.57812C0.734375 9.3875 0.6625 9.0875 0.628125 8.90625C0.59375 8.725 0.54375 8.4 0.515625 8.17813C0.490625 7.95938 0.46875 7.6375 0.46875 7.4625C0.46875 7.28438 0.496875 6.91563 0.53125 6.64062C0.565625 6.36562 0.63125 5.9875 0.678125 5.79688C0.721875 5.60625 0.8125 5.29063 0.88125 5.09375C0.946875 4.89687 1.10625 4.52187 1.23438 4.26562C1.3625 4.00625 1.55938 3.65313 1.67813 3.47813C1.79375 3.30313 1.98125 3.04375 2.09375 2.9C2.20625 2.75625 2.46563 2.47187 2.67188 2.26562C2.87812 2.05938 3.21563 1.7625 3.42188 1.60938C3.62812 1.45312 3.92188 1.24688 4.07812 1.15313C4.23125 1.05625 4.48438 0.9125 4.64062 0.8375C4.79375 0.759375 5.0625 0.6375 5.23438 0.565625C5.40625 0.49375 5.68125 0.39375 5.84375 0.34375C6.00625 0.29375 6.25938 0.225 6.40625 0.190625C6.55312 0.15625 6.83437 0.10625 7.03125 0.078125C7.22813 0.046875 7.39687 0.01875 7.40312 0.0125C7.40937 0.00625 7.67812 0 7.99687 0ZM6.38438 6.99375C6.39375 7.73125 6.40625 7.95625 6.44688 8.09375C6.475 8.1875 6.5375 8.34375 6.58437 8.4375C6.63125 8.53125 6.74687 8.6875 6.84375 8.78438C6.9375 8.87813 7.08437 8.99375 7.17188 9.04375C7.25625 9.09062 7.41875 9.15625 7.53125 9.19063C7.66875 9.23125 7.82188 9.25 8 9.25C8.14687 9.25 8.32812 9.23438 8.40625 9.21562C8.48438 9.19687 8.63438 9.14375 8.74063 9.09062C8.85 9.04062 9.01875 8.925 9.11563 8.83125C9.21563 8.74063 9.33438 8.59688 9.38125 8.5125C9.42813 8.42812 9.49687 8.275 9.53438 8.17188C9.60313 7.99375 9.60625 7.92812 9.61563 7.02187L9.625 6.0625H6.36875L6.38438 6.99375ZM3.40937 12.1094C3.62188 12.4031 3.86875 12.7437 3.95937 12.8687L4.12813 13.0938C3.59375 13.4812 3.42188 13.6031 3.4 13.6125C3.375 13.6219 3.06562 13.2219 2.56562 12.5375C1.99375 11.7563 1.7625 11.4625 1.74688 11.4969C1.7375 11.525 1.7125 11.6844 1.69375 11.8531C1.675 12.0219 1.65937 12.2594 1.65937 12.3844C1.65937 12.5094 1.67812 12.7469 1.70625 12.9156C1.73125 13.0844 1.79062 13.3219 1.8375 13.4469C1.8875 13.5719 1.98125 13.7563 2.05 13.8594C2.11875 13.9594 2.25 14.1125 2.34687 14.1969C2.44062 14.2844 2.60938 14.4062 2.72187 14.4719C2.83125 14.5344 3.00937 14.625 3.1125 14.6656C3.21563 14.7094 3.4125 14.7812 3.55 14.8219C3.6875 14.8656 3.975 14.9312 4.19063 14.9656C4.40313 15 4.65625 15.0375 4.75313 15.0469L4.925 15.0625C5.03125 14.6156 5.08438 14.3094 5.1125 14.0938C5.15 13.8219 5.15937 13.5969 5.14687 13.3438C5.1375 13.1469 5.1 12.8719 5.06875 12.7344C5.03437 12.5969 4.97188 12.4094 4.93125 12.3125C4.8875 12.2188 4.7875 12.0531 4.70937 11.9469C4.62812 11.8406 4.49688 11.7 4.41563 11.6344C4.33438 11.5687 4.18438 11.4656 4.08125 11.4031C3.97813 11.3406 3.78125 11.2437 3.64375 11.1875C3.50625 11.1313 3.23125 11.0469 3.03437 10.9969C2.83437 10.9469 2.64062 10.9062 2.60313 10.9062C2.5375 10.9062 2.55625 10.9437 2.775 11.2437C2.9125 11.4281 3.19687 11.8188 3.40937 12.1094Z" fill="#ACB9CB"/>
</g>
<defs>
<clipPath id="clip0_556_4030">
<rect width="16" height="16" fill="white"/>
</clipPath>
</defs>
</svg>
