<svg width="16" height="16" viewBox="0 0 16 16" fill="none" xmlns="http://www.w3.org/2000/svg">
<g clip-path="url(#clip0_556_4048)">
<path fill-rule="evenodd" clip-rule="evenodd" d="M5.28125 0.0098231C5.83125 0.0191981 6.23125 0.0410731 6.46875 0.0754481C6.66563 0.103573 6.99062 0.162948 7.1875 0.206698C7.38438 0.250448 7.7375 0.350448 7.96875 0.425448C8.2 0.503573 8.51875 0.628573 8.67188 0.700448C8.825 0.775448 9.08125 0.922323 9.23438 1.02545C9.39062 1.12857 9.62813 1.32857 9.76562 1.47232C9.90625 1.61607 10.0687 1.82545 10.1344 1.93795C10.1969 2.05045 10.275 2.25357 10.3125 2.39107C10.3719 2.62545 10.375 2.7317 10.375 5.70357H10.8844C11.1625 5.7067 11.4969 5.72545 11.625 5.74732C11.7531 5.7692 11.9937 5.82232 12.1562 5.86295C12.3188 5.9067 12.5938 5.99732 12.7656 6.06295C12.9375 6.1317 13.2063 6.25982 13.3656 6.35045C13.525 6.44107 13.7688 6.60045 13.9094 6.70357C14.0531 6.8067 14.3094 7.0317 14.4812 7.2067C14.6562 7.37857 14.8813 7.63482 14.9844 7.77857C15.0875 7.9192 15.2437 8.1567 15.3281 8.3067C15.4125 8.4567 15.5438 8.72545 15.6156 8.9067C15.6875 9.08795 15.7812 9.3692 15.8219 9.5317C15.8656 9.6942 15.9219 9.95045 15.95 10.1004C15.9812 10.2786 16 10.5473 16 10.8504C16 11.1504 15.9812 11.4223 15.95 11.5786C15.925 11.7161 15.8812 11.9254 15.8531 12.0473C15.825 12.1692 15.7625 12.3848 15.7125 12.5317C15.6594 12.6786 15.55 12.9379 15.4688 13.1098C15.3844 13.2817 15.2344 13.5442 15.1344 13.6942C15.0344 13.8411 14.8531 14.0817 14.7312 14.2254C14.6062 14.3692 14.3844 14.5911 14.2344 14.7192C14.0875 14.8473 13.8406 15.0348 13.6938 15.1348C13.5438 15.2317 13.3156 15.3692 13.1875 15.4348C13.0594 15.5004 12.8188 15.6067 12.6562 15.6661C12.4937 15.7286 12.2406 15.8067 12.0938 15.8411C11.9469 15.8754 11.7156 15.9254 11.5781 15.9504C11.425 15.9817 11.15 16.0004 10.8656 16.0004C10.5469 16.0004 10.2969 15.9817 10.0562 15.9379C9.8625 15.9067 9.575 15.8411 9.42188 15.7973C9.26875 15.7504 9.02188 15.6661 8.875 15.6067C8.72812 15.5442 8.48125 15.4254 8.32812 15.3379C8.175 15.2504 7.91875 15.0848 7.76562 14.9692C7.6125 14.8536 7.38437 14.6629 7.2625 14.5442C7.14062 14.4254 6.97813 14.2536 6.76562 14.0036L6.40625 14.0536C6.15625 14.0879 5.80312 14.1036 5.25 14.1067C4.76562 14.1098 4.325 14.0942 4.125 14.0692C3.94375 14.0473 3.59063 13.9879 3.3375 13.9348C3.08125 13.8848 2.68125 13.7786 2.44688 13.7004C2.20938 13.6223 1.85938 13.4817 1.67188 13.3879C1.48438 13.2911 1.2375 13.1536 1.125 13.0786C1.0125 13.0067 0.81875 12.8473 0.690625 12.7317C0.565625 12.6129 0.396875 12.4192 0.31875 12.2973C0.2375 12.1754 0.1375 11.9817 0.015625 11.6411V2.48482L0.09375 2.26607C0.1375 2.14732 0.2375 1.94732 0.31875 1.82857C0.396875 1.7067 0.565625 1.51295 0.690625 1.3942C0.81875 1.27857 1.0125 1.1192 1.125 1.04732C1.2375 0.972323 1.48438 0.834823 1.67188 0.737948C1.85938 0.644198 2.20938 0.503573 2.44688 0.425448C2.68125 0.347323 3.08125 0.241073 3.33437 0.191073C3.59062 0.137948 3.9375 0.0816981 4.10938 0.0629481C4.28125 0.0410731 4.42812 0.0191981 4.4375 0.0098231C4.44688 0.0035731 4.825 0.000448097 5.28125 0.0098231ZM4.1875 1.00357C4.025 1.0192 3.71875 1.0692 3.50625 1.11295C3.29688 1.15357 2.95938 1.24107 2.75938 1.30982C2.55625 1.37545 2.26562 1.49107 2.10938 1.5692C1.95312 1.6442 1.74375 1.76295 1.64062 1.8317C1.5375 1.90357 1.37812 2.03482 1.28437 2.12857C1.1875 2.22545 1.075 2.37857 1.025 2.48482C0.96875 2.60357 0.9375 2.72232 0.9375 2.81295C0.9375 2.90357 0.96875 3.02232 1.025 3.14107C1.075 3.24732 1.1875 3.40045 1.28437 3.49732C1.37812 3.59107 1.5375 3.72232 1.64062 3.7942C1.74375 3.86295 1.94687 3.97857 2.09375 4.05045C2.24062 4.12232 2.52813 4.23795 2.73438 4.3067C2.94062 4.37545 3.24375 4.45982 3.40625 4.4942C3.56875 4.5317 3.87188 4.58482 4.07812 4.61295C4.35 4.65357 4.65938 4.6692 5.20312 4.6692C5.64062 4.67232 6.075 4.65357 6.25 4.6317C6.4125 4.60982 6.71562 4.5567 6.92188 4.51607C7.12813 4.47545 7.45 4.38795 7.64062 4.32545C7.83125 4.26295 8.09688 4.1567 8.23438 4.0942C8.37187 4.02857 8.575 3.91295 8.6875 3.84107C8.8 3.7692 8.975 3.62545 9.08125 3.5192C9.18437 3.41295 9.30313 3.2567 9.34688 3.17232C9.40312 3.0567 9.42188 2.96607 9.42188 2.81295C9.42188 2.65982 9.40312 2.57232 9.34375 2.45357C9.3 2.3692 9.19687 2.22232 9.10938 2.12857C9.025 2.03795 8.84688 1.89107 8.71875 1.8067C8.59062 1.72232 8.37187 1.59732 8.23438 1.5317C8.09688 1.46607 7.83437 1.36295 7.64687 1.30045C7.4625 1.23795 7.14062 1.15357 6.93125 1.10982C6.71875 1.0692 6.43437 1.0192 6.29688 1.00045C6.15938 0.981698 5.74375 0.962948 5.375 0.956698C5.00625 0.950448 4.65312 0.950448 4.59375 0.956698C4.53438 0.962948 4.35 0.984823 4.1875 1.00357ZM0.9375 5.82857C1.075 6.12232 1.1875 6.27545 1.28437 6.37232C1.37812 6.46607 1.5375 6.59732 1.64062 6.6692C1.74375 6.73795 1.94687 6.85357 2.09375 6.92545C2.24062 6.99732 2.46563 7.0942 2.59375 7.14107C2.72187 7.18482 2.98438 7.26295 3.17188 7.31295C3.3625 7.36295 3.7125 7.4317 3.95312 7.46607C4.19375 7.50357 4.6375 7.54107 4.9375 7.55357C5.27812 7.56295 5.65 7.5567 5.92188 7.53482C6.1625 7.51295 6.50313 7.4692 6.68125 7.43482L7 7.37545C7.44063 6.97545 7.66875 6.78482 7.79063 6.6942C7.91563 6.60357 8.12187 6.46607 8.25 6.39107C8.37813 6.31607 8.58125 6.20982 8.70312 6.15357C8.825 6.10045 9.03438 6.01607 9.17188 5.9692L9.42188 5.88482L9.4375 4.4692C9.0625 4.71607 8.825 4.84732 8.67188 4.92232C8.51875 4.99732 8.2 5.12232 7.96875 5.20045C7.7375 5.27545 7.38438 5.37545 7.1875 5.4192C6.99062 5.46295 6.65312 5.52232 6.4375 5.55045C6.15938 5.59107 5.81875 5.6067 5.25 5.6067C4.76875 5.60982 4.325 5.5942 4.125 5.5692C3.94375 5.54732 3.59063 5.48795 3.3375 5.43482C3.08125 5.38482 2.68125 5.27857 2.44688 5.20045C2.20938 5.12232 1.85938 4.9817 1.67188 4.88795C1.48438 4.79107 1.24375 4.65982 1.14062 4.59107C1.0375 4.52232 0.95 4.46607 0.946875 4.4692C0.940625 4.4692 0.9375 4.77545 0.9375 5.14732V5.82857ZM10.0469 6.7067C9.90938 6.73482 9.66875 6.79732 9.51562 6.84732C9.35938 6.89732 9.11563 6.99732 8.96875 7.07232C8.82187 7.1442 8.59688 7.27545 8.46875 7.36295C8.34062 7.44732 8.07187 7.67857 7.875 7.87545C7.675 8.07545 7.44375 8.34107 7.35938 8.4692C7.27187 8.60045 7.14375 8.82545 7.06875 8.9692C6.99687 9.11607 6.89687 9.36295 6.84375 9.51607C6.79375 9.67232 6.72813 9.9192 6.69688 10.0629C6.65625 10.2567 6.64062 10.4723 6.64062 10.8442C6.64062 11.2192 6.65625 11.4348 6.69688 11.6254C6.72813 11.7723 6.79375 12.0192 6.84375 12.1723C6.89687 12.3286 6.99687 12.5754 7.06875 12.7192C7.14375 12.8661 7.275 13.0911 7.35938 13.2192C7.44375 13.3504 7.66875 13.6098 7.85938 13.8004C8.0875 14.0317 8.30937 14.2192 8.51562 14.3536C8.6875 14.4692 8.93437 14.6098 9.0625 14.6661C9.19063 14.7254 9.40938 14.8098 9.54688 14.8567C9.68437 14.9004 9.91562 14.9629 10.0625 14.9911C10.2531 15.0317 10.4719 15.0473 10.8438 15.0473C11.2156 15.0473 11.4344 15.0317 11.625 14.9911C11.7719 14.9629 12.0156 14.8942 12.1719 14.8442C12.325 14.7942 12.5719 14.6942 12.7188 14.6192C12.8656 14.5473 13.0906 14.4161 13.2188 14.3317C13.3469 14.2442 13.6094 14.0192 13.8 13.8317C14.0375 13.5973 14.2156 13.3848 14.3531 13.1723C14.4656 13.0004 14.6062 12.7567 14.6656 12.6254C14.725 12.4973 14.8094 12.2786 14.8531 12.1411C14.8969 12.0067 14.9594 11.7723 14.9906 11.6254C15.0312 11.4348 15.0469 11.2192 15.0469 10.8442C15.0469 10.4723 15.0312 10.2567 14.9906 10.0629C14.9594 9.9192 14.8969 9.68482 14.8531 9.54732C14.8094 9.41295 14.725 9.1942 14.6656 9.06295C14.6062 8.93482 14.4656 8.68795 14.3531 8.51607C14.2156 8.3067 14.0375 8.0942 13.8 7.85982C13.6094 7.67232 13.3469 7.44732 13.2188 7.35982C13.0906 7.27545 12.8656 7.1442 12.7188 7.07232C12.5719 6.99732 12.325 6.89732 12.1719 6.8442C12.0156 6.7942 11.7844 6.7317 11.6562 6.70357C11.5281 6.67857 11.2188 6.65357 10.9688 6.6442C10.7188 6.63795 10.4656 6.63795 10.4062 6.64732C10.3469 6.65357 10.1844 6.6817 10.0469 6.7067ZM1.025 8.82857C1.075 8.93795 1.1875 9.09107 1.28437 9.18795C1.37812 9.27857 1.53125 9.4067 1.625 9.47232C1.71875 9.53482 1.92188 9.65357 2.07812 9.72857C2.23125 9.8067 2.52813 9.92857 2.73438 9.99732C2.94062 10.0661 3.24375 10.1504 3.40625 10.1848C3.56875 10.2192 3.87188 10.2723 4.07812 10.3004C4.31563 10.3348 4.68437 10.3536 5.07812 10.3567L5.7 10.3598C5.7875 9.85357 5.84688 9.57857 5.89062 9.42232C5.9375 9.2692 6.02813 9.00982 6.09688 8.8442C6.16563 8.6817 6.23438 8.52232 6.24375 8.49107C6.2625 8.43795 6.25313 8.43795 6.125 8.45982C6.04688 8.47545 5.64062 8.48482 5.21875 8.48482C4.78125 8.48482 4.3125 8.4692 4.125 8.4442C3.94375 8.42232 3.59062 8.36295 3.33437 8.31295C3.08125 8.26295 2.68125 8.1567 2.44375 8.07857C2.20937 8.00045 1.85938 7.8567 1.67188 7.76295C1.48125 7.6692 1.24375 7.53482 1.14062 7.46607C1.0375 7.40045 0.95 7.3442 0.94375 7.3442C0.940625 7.3442 0.9375 7.63795 0.9375 7.9942C0.9375 8.64107 0.9375 8.6442 1.025 8.82857ZM1.025 11.6411C1.075 11.7504 1.1875 11.9036 1.28437 12.0004C1.37812 12.0911 1.53125 12.2192 1.625 12.2848C1.71875 12.3473 1.92188 12.4661 2.07812 12.5411C2.23125 12.6192 2.52813 12.7411 2.73438 12.8098C2.94062 12.8786 3.24375 12.9629 3.40625 12.9973C3.56875 13.0317 3.87188 13.0848 4.07812 13.1161C4.35313 13.1567 4.65938 13.1723 5.21875 13.1723C5.64062 13.1723 6.03438 13.1629 6.09375 13.1504L6.20312 13.1254C5.99062 12.5817 5.89062 12.2692 5.84375 12.0786C5.79375 11.8911 5.74687 11.6442 5.73438 11.5317L5.7125 11.3286C4.64062 11.2942 4.16563 11.2629 3.96875 11.2348C3.77187 11.2098 3.44062 11.1504 3.23438 11.1067C3.02813 11.0629 2.66875 10.9661 2.4375 10.8879C2.20625 10.8098 1.85938 10.6692 1.67188 10.5754C1.48125 10.4817 1.24375 10.3473 1.14062 10.2786C1.0375 10.2129 0.95 10.1567 0.94375 10.1567C0.940625 10.1567 0.9375 10.4504 0.9375 10.8067C0.9375 11.4536 0.9375 11.4567 1.025 11.6411ZM10.375 7.56295H11.3125V8.57857L11.4594 8.64732C11.5438 8.68482 11.6781 8.77545 11.7625 8.85045C11.8469 8.92545 11.9531 9.0442 12 9.10982C12.05 9.17857 12.1156 9.30982 12.1531 9.40045C12.1906 9.49107 12.2281 9.64107 12.2656 9.90982H11.3281L11.3031 9.81607C11.2906 9.76295 11.2563 9.68482 11.225 9.63795C11.1969 9.5942 11.1188 9.52857 11.0531 9.49732C10.9906 9.46607 10.8906 9.44107 10.8344 9.44107C10.7812 9.44107 10.6813 9.47232 10.6125 9.50982C10.5437 9.55045 10.4688 9.62857 10.4344 9.69732C10.4 9.76295 10.375 9.8567 10.375 9.9067C10.375 9.95982 10.4 10.0536 10.4344 10.1192C10.4688 10.1879 10.5437 10.2661 10.6125 10.3067C10.6813 10.3442 10.7875 10.3754 10.85 10.3754C10.9156 10.3754 11.0438 10.3942 11.1313 10.4129C11.2219 10.4317 11.375 10.4817 11.4688 10.5254C11.5688 10.5723 11.7188 10.6848 11.8281 10.7973C11.9375 10.9036 12.0531 11.0598 12.1 11.1567C12.1438 11.2536 12.1937 11.4036 12.2156 11.4942C12.2344 11.5848 12.25 11.7254 12.25 11.8067C12.25 11.8879 12.2313 12.0254 12.2094 12.1098C12.1844 12.1973 12.1344 12.3379 12.0906 12.4223C12.05 12.5098 11.9312 12.6661 11.8281 12.7692C11.725 12.8723 11.5656 12.9911 11.3125 13.1098V14.1254H10.375V13.1098L10.1656 13.0004C10.0437 12.9379 9.9 12.8286 9.81563 12.7348C9.7375 12.6473 9.6375 12.5067 9.59688 12.4223C9.55313 12.3379 9.50312 12.1973 9.47812 12.1098C9.45625 12.0254 9.4375 11.9161 9.4375 11.7817H9.90625C10.3031 11.7817 10.375 11.7911 10.375 11.8286C10.375 11.8567 10.4 11.9286 10.4344 11.9942C10.4688 12.0629 10.5437 12.1411 10.6125 12.1817C10.6813 12.2192 10.7812 12.2504 10.8344 12.2504C10.8906 12.2504 10.9906 12.2254 11.0531 12.1942C11.1219 12.1598 11.2 12.0817 11.2406 12.0129C11.2781 11.9473 11.3094 11.8473 11.3125 11.7911C11.3125 11.7348 11.2844 11.6317 11.25 11.5629C11.2083 11.4796 11.1458 11.4171 11.0625 11.3754C10.9937 11.3411 10.8875 11.3129 10.8281 11.3129C10.7688 11.3129 10.6438 11.2973 10.5531 11.2786C10.4656 11.2598 10.3125 11.2067 10.2188 11.1629C10.1187 11.1161 9.96562 11.0036 9.85938 10.8942C9.75 10.7848 9.63437 10.6317 9.5875 10.5317C9.54375 10.4379 9.49375 10.2879 9.47188 10.1973C9.45312 10.1067 9.4375 9.96607 9.4375 9.88482C9.4375 9.80357 9.45625 9.66607 9.47812 9.57857C9.5 9.4942 9.55313 9.35357 9.59375 9.26607C9.63437 9.1817 9.75313 9.02545 9.85625 8.92232C9.96562 8.81295 10.1156 8.69732 10.375 8.57857V7.56295Z" fill="#ACB9CB"/>
</g>
<defs>
<clipPath id="clip0_556_4048">
<rect width="16" height="16" fill="white"/>
</clipPath>
</defs>
</svg>
