<svg width="16" height="16" viewBox="0 0 16 16" fill="none" xmlns="http://www.w3.org/2000/svg">
<path d="M12.175 1.13437C12.0844 1.21875 12.0282 1.30312 12.0157 1.375C12.0032 1.43437 12.0032 1.5375 12.0125 1.60312C12.0219 1.66562 12.0688 1.7625 12.1157 1.81875C12.1657 1.87188 12.25 1.93438 12.3032 1.95938C12.3719 1.9875 12.5532 2 12.8469 2H13.2907C12.7625 2.53437 12.5657 2.71875 12.5157 2.75C12.4657 2.78125 12.3657 2.81875 12.2969 2.83125C12.2282 2.84062 12.1219 2.84375 12.0625 2.83437C12.0032 2.82187 11.8063 2.71875 11.625 2.6C11.4438 2.48125 11.1782 2.32187 11.0313 2.24062C10.8844 2.1625 10.6469 2.05 10.5 1.99063C10.3532 1.92813 10.1219 1.84375 9.98442 1.8C9.84692 1.75625 9.61567 1.69063 9.46879 1.65625C9.32192 1.62187 9.04692 1.57187 8.85942 1.54688C8.65317 1.51562 8.30317 1.49688 7.98442 1.49688C7.67192 1.49688 7.31255 1.51562 7.10942 1.54688C6.9188 1.57187 6.63755 1.625 6.48442 1.6625C6.32817 1.69688 6.04067 1.78125 5.8438 1.85C5.64692 1.91875 5.32817 2.05 5.14067 2.14375C4.95005 2.23438 4.65005 2.40625 4.4688 2.525C4.28755 2.64375 4.03442 2.82187 3.9063 2.925C3.77817 3.02813 3.5438 3.2375 3.39067 3.39375C3.23442 3.54688 3.01567 3.79063 2.90317 3.9375C2.78755 4.08437 2.6188 4.32188 2.52192 4.46875C2.42817 4.61562 2.27817 4.875 2.1938 5.04688C2.1063 5.21875 1.9938 5.46875 1.94067 5.60313C1.88755 5.73438 1.80005 5.9875 1.75005 6.16563C1.69692 6.34063 1.62505 6.6375 1.59067 6.82812C1.5438 7.06875 1.5188 7.35625 1.50942 7.78125C1.49692 8.15625 1.5063 8.50938 1.52817 8.70312C1.54692 8.875 1.5938 9.15625 1.62817 9.32812C1.66255 9.5 1.74692 9.80937 1.81567 10.0156C1.88442 10.2219 1.99067 10.4969 2.0563 10.625C2.1188 10.7531 2.21255 10.8844 2.25942 10.9219C2.32505 10.9688 2.39692 10.9844 2.54067 10.9844C2.69067 10.9844 2.7563 10.9688 2.83442 10.9156C2.89067 10.875 2.95942 10.7969 2.98755 10.7437C3.01567 10.6875 3.03755 10.5844 3.03755 10.5156C3.03755 10.4438 2.98442 10.2594 2.91255 10.0781C2.8438 9.90625 2.75005 9.6375 2.7063 9.48438C2.66255 9.33125 2.60317 9.06875 2.57192 8.90625C2.53442 8.69375 2.5188 8.44063 2.5188 8C2.5188 7.54375 2.5313 7.3125 2.57505 7.07812C2.6063 6.90625 2.66567 6.64687 2.70942 6.5C2.75005 6.35313 2.84067 6.09375 2.90942 5.92188C2.97817 5.75 3.11255 5.46875 3.21255 5.29688C3.30942 5.125 3.49067 4.85 3.61255 4.6875C3.73755 4.525 3.9688 4.25938 4.12817 4.10313C4.29067 3.94375 4.53442 3.72813 4.67192 3.62188C4.80942 3.51562 5.0563 3.35312 5.2188 3.25625C5.3813 3.15937 5.63442 3.03125 5.7813 2.96563C5.92817 2.90313 6.1813 2.80937 6.3438 2.75625C6.5063 2.70312 6.80317 2.62813 7.00005 2.59063C7.30942 2.52813 7.45005 2.51562 8.01567 2.51875C8.60317 2.51875 8.71254 2.52813 9.06254 2.60313C9.27817 2.64688 9.60005 2.73438 9.78129 2.79688C9.96254 2.85938 10.25 2.97812 10.4219 3.0625C10.5938 3.14687 10.875 3.30938 11.0469 3.425C11.2188 3.54062 11.4282 3.66563 11.5157 3.70312C11.6 3.74062 11.7469 3.7875 11.8344 3.80938C11.925 3.82812 12.0875 3.84375 12.1938 3.84375C12.3032 3.84375 12.4719 3.82188 12.5688 3.79688C12.6688 3.77187 12.8375 3.70625 12.9438 3.65313C13.0907 3.57812 13.2469 3.44687 13.5688 3.12812L14 2.70312C14.0157 3.625 14.0219 3.69375 14.0782 3.76875C14.1125 3.8125 14.1813 3.88125 14.2282 3.91875C14.2969 3.96875 14.3625 3.98438 14.5 3.98438C14.6344 3.98438 14.7063 3.96875 14.7688 3.92188C14.8125 3.8875 14.8813 3.81875 14.9188 3.77187C14.9813 3.68437 14.9844 3.64687 14.9938 2.56875C15 1.84687 14.9907 1.4125 14.9719 1.33438C14.95 1.25938 14.8907 1.18125 14.8032 1.10938L14.6719 1H12.3125L12.175 1.13437ZM13.2188 5.07188C13.1594 5.1125 13.0782 5.1875 13.0407 5.2375C12.9938 5.3 12.9688 5.375 12.9688 5.47188C12.9688 5.5625 13.0094 5.71875 13.0907 5.925C13.1594 6.09688 13.25 6.3625 13.2938 6.51562C13.3375 6.67188 13.3969 6.93125 13.4282 7.09688C13.4657 7.30938 13.4813 7.55937 13.4813 8C13.4813 8.45312 13.4688 8.69063 13.425 8.925C13.3938 9.09688 13.3219 9.39062 13.2657 9.57812C13.2094 9.76875 13.1094 10.0437 13.0469 10.1906C12.9813 10.3344 12.8594 10.5813 12.7719 10.7344C12.6844 10.8906 12.5125 11.15 12.3875 11.3156C12.2657 11.4781 12.0188 11.7531 11.8407 11.9281C11.6625 12.1 11.3969 12.3313 11.25 12.4375C11.1063 12.5437 10.8532 12.7094 10.6875 12.8C10.525 12.8906 10.25 13.025 10.0782 13.0906C9.90629 13.1594 9.64692 13.25 9.50004 13.2937C9.35629 13.3344 9.0938 13.3969 8.92192 13.4281C8.6813 13.4719 8.46255 13.4844 7.9688 13.4844C7.40005 13.4812 7.28442 13.4719 6.93755 13.4C6.72505 13.3531 6.40005 13.2656 6.2188 13.2031C6.04067 13.1406 5.75005 13.0219 5.57817 12.9375C5.4063 12.8562 5.12505 12.6906 4.95317 12.5781C4.7813 12.4625 4.57192 12.3344 4.48442 12.2969C4.40005 12.2594 4.2563 12.2125 4.16567 12.1938C4.07505 12.175 3.91255 12.1562 3.8063 12.1562C3.69692 12.1562 3.52817 12.1781 3.4313 12.2031C3.3313 12.2312 3.16255 12.2969 3.0563 12.35C2.90942 12.4219 2.75317 12.5531 2.4313 12.8719L2.00317 13.2969C1.98755 12.3656 1.97817 12.3094 1.9188 12.2312C1.8813 12.1812 1.81567 12.1156 1.7688 12.0813C1.7063 12.0344 1.63442 12.0188 1.50005 12.0188C1.36567 12.0188 1.29692 12.0344 1.23442 12.0781C1.18755 12.1156 1.1188 12.1812 1.08442 12.2312C1.0188 12.3156 1.01567 12.3531 1.0063 13.4344C1.00005 14.1531 1.00942 14.5906 1.0313 14.6656C1.05317 14.7406 1.10942 14.8219 1.19692 14.8938L1.32817 15.0031H3.68755C3.91567 14.7844 3.97192 14.6969 3.98755 14.6281C3.99692 14.5656 4.00005 14.4656 3.98755 14.4C3.97817 14.3344 3.9313 14.2375 3.88442 14.1844C3.83755 14.1281 3.75317 14.0656 3.69692 14.0437C3.62817 14.0156 3.45005 14.0031 3.15005 14.0031H2.70317C3.23755 13.4656 3.43442 13.2844 3.48442 13.2531C3.53755 13.2188 3.63442 13.1844 3.70317 13.1719C3.77192 13.1594 3.87817 13.1594 3.93755 13.1687C4.00005 13.1781 4.17505 13.2688 4.32817 13.3719C4.48442 13.4719 4.7313 13.6219 4.87505 13.7031C5.02192 13.7875 5.26255 13.9062 5.4063 13.9688C5.55317 14.0344 5.8063 14.1312 5.9688 14.1844C6.13442 14.2375 6.38755 14.3094 6.5313 14.3438C6.67817 14.3781 6.95317 14.4281 7.14067 14.4563C7.3438 14.4844 7.70317 14.5031 8.01567 14.5031C8.32505 14.5031 8.69067 14.4844 8.89067 14.4563C9.0813 14.4281 9.36255 14.3781 9.51567 14.3406C9.67192 14.3031 9.95942 14.2188 10.1563 14.15C10.3563 14.0844 10.6782 13.95 10.875 13.8531C11.075 13.7562 11.375 13.5844 11.5469 13.4688C11.7188 13.3562 11.9657 13.1781 12.0938 13.075C12.225 12.9719 12.4563 12.7625 12.6094 12.6094C12.7657 12.4563 12.9844 12.2094 13.1 12.0625C13.2125 11.9187 13.3844 11.6781 13.4782 11.5344C13.5719 11.3875 13.7219 11.1281 13.8063 10.9563C13.8938 10.7844 14.0063 10.5344 14.0594 10.4C14.1125 10.2656 14.2 10.0125 14.2532 9.8375C14.3032 9.6625 14.375 9.3625 14.4125 9.17188C14.4563 8.93437 14.4813 8.64375 14.4938 8.22188C14.5032 7.84375 14.4938 7.49063 14.4719 7.3C14.4532 7.12813 14.4063 6.84688 14.3719 6.675C14.3375 6.50313 14.2563 6.2 14.1907 6.00313C14.125 5.80313 14.025 5.5375 13.9657 5.40938C13.8907 5.24688 13.825 5.15 13.75 5.09688C13.6782 5.04688 13.5875 5.01562 13.4844 5.00938C13.3625 5 13.3063 5.0125 13.2188 5.07188ZM7.78442 3.54063C7.72505 3.56563 7.65004 3.61875 7.62192 3.65937C7.59067 3.7 7.55317 3.775 7.53442 3.82188C7.51567 3.86875 7.50005 4.05625 7.50005 4.2375C7.50005 4.55 7.49692 4.56562 7.4313 4.58437C7.39067 4.59687 7.24692 4.6625 7.10942 4.73125C6.92817 4.825 6.79692 4.92188 6.62192 5.09375C6.43755 5.27812 6.3563 5.3875 6.2563 5.59688C6.18442 5.74063 6.10317 5.95312 6.07505 6.0625C6.03755 6.21562 6.02817 6.35 6.04067 6.59375C6.05317 6.81458 6.0813 6.98646 6.12505 7.10938C6.16255 7.21562 6.23755 7.38125 6.29067 7.48438C6.34692 7.59688 6.48755 7.77188 6.62505 7.90938C6.77817 8.05938 6.93755 8.18438 7.07817 8.25625C7.20005 8.31875 7.37505 8.39375 7.4688 8.42188C7.56567 8.44688 7.78442 8.48438 7.96255 8.5C8.1563 8.52187 8.33442 8.55625 8.41567 8.59375C8.48755 8.62813 8.59692 8.69687 8.6563 8.74687C8.7188 8.79688 8.81567 8.925 8.87505 9.03438C8.97505 9.21875 8.98442 9.25625 8.98442 9.5C8.98442 9.725 8.9688 9.79063 8.90317 9.925C8.8563 10.0094 8.78754 10.1219 8.74379 10.175C8.70005 10.225 8.57505 10.3156 8.46567 10.375C8.2813 10.475 8.2438 10.4844 8.00005 10.4844C7.7563 10.4844 7.7188 10.475 7.53442 10.375C7.42505 10.3156 7.2938 10.2188 7.24692 10.1562C7.19692 10.0969 7.12817 9.9875 7.0938 9.91562C7.05942 9.84375 7.02504 9.70312 7.01255 9.60312C7.00317 9.50312 6.98442 9.38125 6.9688 9.32812C6.95317 9.27812 6.89067 9.19062 6.8313 9.13437C6.76567 9.075 6.67192 9.025 6.60317 9.0125C6.53755 9.00313 6.43755 9.00625 6.37505 9.01562C6.31255 9.03125 6.2188 9.0875 6.15317 9.15312C6.07817 9.22812 6.0313 9.30937 6.01567 9.39375C6.00005 9.4625 6.0063 9.62187 6.02505 9.75313C6.0438 9.88125 6.08755 10.0688 6.12505 10.175C6.15942 10.2781 6.23442 10.4375 6.29067 10.5281C6.34692 10.6219 6.4688 10.7781 6.56255 10.875C6.65942 10.975 6.8188 11.1094 6.92192 11.175C7.02505 11.2406 7.1938 11.325 7.29692 11.3625L7.48442 11.4312C7.51567 12.1281 7.52505 12.1969 7.58442 12.2719C7.6188 12.3219 7.68755 12.3875 7.73442 12.425C7.79692 12.4688 7.86567 12.4875 8.00005 12.4875C8.13755 12.4875 8.2063 12.4688 8.27192 12.4187C8.32192 12.3844 8.38755 12.3156 8.42192 12.2688C8.47505 12.2 8.48755 12.1187 8.50005 11.8094L8.51567 11.4344C8.78442 11.3281 8.93129 11.2563 9.01567 11.2063C9.10317 11.1562 9.27192 11.0156 9.3938 10.8938C9.56254 10.7281 9.64692 10.6094 9.74692 10.4094C9.81567 10.2625 9.90005 10.05 9.92505 9.94063C9.96567 9.7875 9.97192 9.65312 9.95942 9.40625C9.949 9.1875 9.92192 9.01667 9.87817 8.89375C9.84067 8.7875 9.76567 8.62188 9.71254 8.51875C9.65317 8.40938 9.51254 8.22813 9.37817 8.09375C9.22192 7.9375 9.0688 7.81875 8.92192 7.74375C8.80317 7.68438 8.62817 7.60938 8.5313 7.58125C8.43755 7.55625 8.2188 7.51875 8.04692 7.50625C7.82817 7.48438 7.69067 7.45625 7.5813 7.40312C7.49692 7.3625 7.3688 7.27187 7.30005 7.20312C7.22817 7.1375 7.13755 7.00938 7.0938 6.92188C7.0313 6.79375 7.0188 6.71875 7.0188 6.5C7.0188 6.28438 7.0313 6.20937 7.0938 6.07812C7.13755 5.99375 7.22817 5.86562 7.29692 5.79688C7.36567 5.72813 7.4938 5.6375 7.57817 5.59688C7.7063 5.53125 7.7813 5.51875 8.00005 5.51875C8.2188 5.51875 8.2938 5.53125 8.42192 5.59688C8.50942 5.6375 8.63442 5.72813 8.7063 5.79688C8.77505 5.86562 8.86255 5.99375 8.90317 6.07812C8.9438 6.16563 8.98755 6.33437 9.00005 6.45312C9.01255 6.575 9.03755 6.70312 9.05317 6.73438C9.07192 6.76875 9.13129 6.8375 9.18442 6.88438C9.23755 6.93125 9.32817 6.97813 9.38442 6.99062C9.44067 7 9.54067 6.99688 9.60942 6.9875C9.69275 6.97083 9.77296 6.925 9.85005 6.85C9.92192 6.775 9.97192 6.69375 9.98755 6.60938C10 6.54063 9.99692 6.38125 9.97817 6.25313C9.95942 6.12188 9.91567 5.93438 9.87817 5.83125C9.84067 5.725 9.76567 5.56562 9.71254 5.475C9.65629 5.38125 9.53442 5.225 9.43754 5.12813C9.34379 5.02813 9.18129 4.89375 9.07817 4.82812C8.97504 4.7625 8.8063 4.67812 8.70317 4.64062L8.51567 4.57188C8.48755 3.875 8.47505 3.80625 8.4188 3.73125C8.3813 3.68125 8.3188 3.61562 8.27817 3.58437C8.23755 3.55312 8.13442 3.52187 8.04692 3.51562C7.95942 3.50625 7.8438 3.51875 7.78442 3.54063Z" fill="#ACB9CB"/>
</svg>
