<svg width="16" height="16" viewBox="0 0 16 16" fill="none" xmlns="http://www.w3.org/2000/svg">
<g clip-path="url(#clip0_556_4057)">
<path fill-rule="evenodd" clip-rule="evenodd" d="M5.65625 0H5.82812C5.92188 0 6.1375 0.034375 6.30625 0.078125C6.47188 0.121875 6.70937 0.203125 6.82812 0.259375C6.94688 0.315625 7.1375 0.425 7.25 0.5C7.3625 0.578125 7.5375 0.721875 7.64062 0.828125C7.74687 0.93125 7.89062 1.10625 8.10312 1.42188L8.2125 1.28125C8.27187 1.20312 8.42188 1.04375 8.54375 0.921875C8.66562 0.803125 8.89375 0.625 9.04688 0.525C9.2 0.425 9.44063 0.3 9.57812 0.246875C9.71562 0.19375 9.9625 0.115625 10.125 0.075C10.4031 0.00625 10.4781 0 12.2344 0L12.2125 0.490625C12.2 0.821875 12.1719 1.0625 12.1313 1.21875C12.0969 1.34687 12.025 1.56562 11.9719 1.70312C11.9187 1.84063 11.7906 2.08438 11.6875 2.24375C11.5844 2.4 11.3906 2.64062 11.2563 2.77813C11.125 2.9125 10.8875 3.10625 10.7344 3.20625C10.5813 3.30625 10.3469 3.43125 10.2188 3.4875C10.0906 3.54062 9.86563 3.61563 9.71875 3.65313C9.52812 3.70312 9.3125 3.73125 8.46875 3.76562V4.82812L8.56875 4.80312C8.625 4.79063 8.8 4.76562 8.95312 4.74687C9.10625 4.72812 9.40312 4.71875 9.60938 4.72813C9.81563 4.7375 10.1313 4.775 10.3125 4.8125C10.4937 4.85 10.7625 4.91875 10.9125 4.97188C11.0656 5.02188 11.3188 5.12813 11.475 5.20625C11.6344 5.28438 11.8781 5.425 12.0156 5.51875C12.1531 5.60938 12.3656 5.77187 12.4844 5.88125C12.6062 5.99062 12.8 6.18437 12.9156 6.3125C13.0344 6.44063 13.2031 6.65938 13.2937 6.79688C13.3844 6.93437 13.525 7.175 13.6 7.32812C13.6781 7.48125 13.7844 7.7375 13.8375 7.89062C13.8906 8.04375 13.9625 8.3125 13.9969 8.48438C14.0312 8.65625 14.0719 8.93437 14.1094 9.40625H16V10.3438H15C14.0688 10.3438 14 10.3469 14 10.3969C14 10.4281 13.9625 10.6156 13.9187 10.8125C13.875 11.0094 13.7719 11.375 13.6875 11.625C13.6062 11.875 13.4656 12.2469 13.3781 12.4531C13.2875 12.6594 13.1312 12.9812 13.025 13.1719C12.9219 13.3625 12.75 13.65 12.6438 13.8125C12.5344 13.975 12.3594 14.2219 12.2469 14.3594C12.1375 14.4969 11.9187 14.7344 11.7625 14.8906C11.6062 15.0437 11.3625 15.2563 11.2156 15.3594C11.0719 15.4625 10.8344 15.6063 10.6875 15.6781C10.5406 15.75 10.2937 15.8469 10.1406 15.8938C9.925 15.9594 9.775 15.9813 9.48438 15.9906C9.15938 16.0031 9.06875 15.9938 8.8125 15.9281C8.65 15.8844 8.4 15.7969 8 15.6094L7.75625 15.725C7.625 15.7906 7.375 15.8781 7.20312 15.925C6.92812 15.9938 6.84688 16.0031 6.51562 15.9906C6.22813 15.9813 6.075 15.9594 5.85938 15.8938C5.70625 15.8469 5.45 15.7469 5.29688 15.6719C5.14375 15.5938 4.8875 15.4375 4.73438 15.3219C4.58125 15.2062 4.32188 14.9781 4.15938 14.8125C3.99688 14.65 3.76562 14.3813 3.64375 14.2188C3.51875 14.0562 3.34063 13.7937 3.24688 13.6406C3.15 13.4875 3 13.225 2.9125 13.0625C2.825 12.9 2.69062 12.6125 2.60938 12.4219C2.52813 12.2312 2.39375 11.875 2.3125 11.625C2.22813 11.375 2.125 11.0094 2.08125 10.8125C2.0375 10.6156 2 10.4281 2 10.3969C2 10.3469 1.93125 10.3438 0 10.3438V9.40625H1.89062L1.91562 9.10312C1.92813 8.93437 1.96563 8.6625 1.99688 8.5C2.02813 8.3375 2.1 8.07187 2.15313 7.9125C2.20625 7.75625 2.31875 7.4875 2.40313 7.31875C2.4875 7.15312 2.62812 6.90938 2.71563 6.78125C2.80313 6.65312 2.9625 6.44688 3.06875 6.32812C3.175 6.20937 3.36875 6.0125 3.5 5.89687C3.62812 5.78125 3.84063 5.61562 3.96875 5.52812C4.09688 5.44062 4.34062 5.3 4.50625 5.21562C4.675 5.13125 4.93437 5.02188 5.08437 4.97188C5.2375 4.91875 5.50625 4.85 5.6875 4.8125C5.86875 4.775 6.18437 4.7375 6.39062 4.72813C6.59688 4.71875 6.89375 4.72812 7.04688 4.74687C7.2 4.76562 7.375 4.79063 7.53125 4.82812V3.71875C7.53125 2.70312 7.52812 2.5875 7.46875 2.35938C7.43125 2.22187 7.35938 2.025 7.30312 1.92188C7.24687 1.8125 7.10625 1.63437 6.96875 1.5C6.83437 1.3625 6.65625 1.22187 6.54688 1.16562C6.44375 1.10938 6.24687 1.0375 6.10938 1C5.97188 0.965625 5.8125 0.9375 5.65625 0.9375V0ZM10.2188 1.01875C10.1062 1.04688 9.91875 1.11875 9.79688 1.17813C9.675 1.24063 9.52812 1.32187 9.46875 1.3625C9.40938 1.40312 9.275 1.51875 9.175 1.61875C9.075 1.71562 8.93125 1.8875 8.85938 2C8.78438 2.1125 8.6875 2.29375 8.64375 2.40625C8.6 2.51875 8.55312 2.65937 8.54062 2.71875L8.52188 2.82812C9.20312 2.79375 9.43437 2.7625 9.5625 2.725C9.675 2.69375 9.85625 2.62188 9.96875 2.5625C10.0813 2.50625 10.2281 2.42188 10.2969 2.375C10.3656 2.32812 10.5156 2.19062 10.6281 2.075C10.7406 1.95625 10.8813 1.775 10.9438 1.67188C11.0063 1.56875 11.0938 1.38125 11.1375 1.25625C11.1812 1.13437 11.2188 1.00937 11.2188 0.984375C11.2188 0.946875 11.1656 0.9375 10.8969 0.940625C10.7219 0.94375 10.5437 0.95 10.5 0.95625C10.4563 0.965625 10.3313 0.99375 10.2188 1.01875ZM5.82812 5.74062C5.69063 5.76562 5.47813 5.825 5.35938 5.86562C5.2375 5.90937 5.04063 5.99375 4.92188 6.05625C4.8 6.11562 4.59688 6.2375 4.46875 6.32188C4.34062 6.40938 4.10625 6.60938 3.95 6.7625C3.79375 6.91875 3.59375 7.15312 3.50938 7.28125C3.42188 7.40938 3.30625 7.60625 3.25 7.71875C3.19375 7.83125 3.1125 8.0125 3.07188 8.125C3.02813 8.2375 2.96875 8.45 2.93438 8.60312C2.90313 8.75312 2.86562 8.99375 2.85 9.14062L2.82812 9.40625H4.98438C6.0125 8.37813 6.31875 8.08438 6.325 8.09375C6.33437 8.10312 6.52187 8.65 6.74375 9.3125L7.14687 10.5156C8.60938 7.58437 9.01562 6.80937 9.02812 6.82812C9.04375 6.84688 9.28438 7.55313 9.56563 8.39688L10.0781 9.9375L10.6094 9.40625H13.1719C13.1344 8.99375 13.1031 8.77187 13.0781 8.65C13.05 8.525 12.9937 8.31875 12.9531 8.19687C12.9094 8.07187 12.825 7.86562 12.7625 7.74375C12.7 7.61875 12.5781 7.40938 12.4906 7.28125C12.4031 7.15312 12.2063 6.91875 12.05 6.7625C11.8938 6.60625 11.6594 6.40938 11.5312 6.32188C11.4031 6.23438 11.1938 6.1125 11.0688 6.05C10.9469 5.9875 10.7406 5.90312 10.6156 5.85938C10.4938 5.81875 10.2844 5.7625 10.1562 5.73438C10.0281 5.70625 9.75937 5.675 9.5625 5.66563C9.30937 5.65625 9.1125 5.66562 8.89688 5.7C8.73125 5.72812 8.45938 5.79063 8.29688 5.84375L8 5.9375C7.55312 5.79688 7.2875 5.73438 7.125 5.70625C6.9625 5.67813 6.7 5.65938 6.54688 5.65938C6.39375 5.6625 6.225 5.67188 6.17188 5.67812C6.11875 5.68437 5.96562 5.7125 5.82812 5.74062ZM7.925 11.0938C7.39062 12.1656 6.98438 12.9406 6.97188 12.9219C6.95625 12.9031 6.71562 12.1969 6.43437 11.3531L5.92188 9.8125L5.3875 10.3438H2.9375C2.95937 10.4531 2.99688 10.6125 3.03437 10.7656C3.07187 10.9187 3.1625 11.2219 3.23438 11.4375C3.30938 11.6531 3.44688 11.9969 3.54063 12.2031C3.63125 12.4094 3.79375 12.725 3.9 12.9062C4.00313 13.0875 4.17812 13.3594 4.2875 13.5156C4.39687 13.6687 4.61875 13.9344 4.78125 14.1031C4.94375 14.275 5.16875 14.4812 5.28125 14.5625C5.39375 14.6438 5.5625 14.7531 5.65625 14.8062C5.75 14.8594 5.91875 14.9312 6.03125 14.9688C6.14375 15.0031 6.34062 15.0438 6.46875 15.0531C6.63125 15.0656 6.775 15.0563 6.9375 15.0188C7.06563 14.9906 7.27187 14.9219 7.39062 14.8656C7.50938 14.8094 7.69688 14.7031 7.80625 14.6313L8 14.5C8.30313 14.7031 8.4875 14.8094 8.60938 14.8656C8.73125 14.9219 8.93437 14.9906 9.0625 15.0188C9.225 15.0563 9.36875 15.0656 9.53125 15.0531C9.65938 15.0438 9.87187 15 10 14.9563C10.1281 14.9125 10.3469 14.8094 10.4844 14.7281C10.6594 14.6219 10.8469 14.4625 11.125 14.1875C11.3438 13.9719 11.6062 13.6719 11.7156 13.5156C11.8219 13.3625 11.9969 13.0875 12.1 12.9062C12.2063 12.725 12.3688 12.4094 12.4594 12.2031C12.5531 11.9969 12.6844 11.6656 12.7531 11.4688C12.8219 11.2719 12.9125 10.975 12.9531 10.8125C12.9937 10.65 13.0344 10.4781 13.0437 10.4281L13.0625 10.3438H11.0188C9.9875 11.3719 9.68125 11.6656 9.675 11.6562C9.66563 11.6469 9.47813 11.1 9.25625 10.4375L8.85312 9.23438L7.925 11.0938Z" fill="#ACB9CB"/>
</g>
<defs>
<clipPath id="clip0_556_4057">
<rect width="16" height="16" fill="white"/>
</clipPath>
</defs>
</svg>
