<svg width="16" height="16" viewBox="0 0 16 16" fill="none" xmlns="http://www.w3.org/2000/svg">
<g clip-path="url(#clip0_556_4060)">
<path fill-rule="evenodd" clip-rule="evenodd" d="M4.67182 2.22187C4.90619 2.21875 5.10619 2.2375 5.29682 2.27813C5.44994 2.30938 5.65619 2.375 5.74994 2.42188C5.84369 2.47188 6.00307 2.5875 6.10307 2.68438C6.20307 2.78125 6.32182 2.93437 6.45307 3.1875H9.54682L9.63119 3.02187C9.67807 2.93437 9.79682 2.78125 9.89682 2.68438C9.99682 2.5875 10.1562 2.47188 10.2499 2.42188C10.3437 2.375 10.5499 2.30938 10.7031 2.27813C10.8562 2.24375 11.0906 2.21875 11.2187 2.21875C11.3468 2.21875 11.7218 2.23437 12.0468 2.25312C12.6031 2.28437 12.6531 2.29375 12.8437 2.38125C12.9937 2.45 13.1093 2.5375 13.2812 2.7125C13.4093 2.84375 13.6187 3.10938 13.7437 3.29688C13.8687 3.4875 14.0843 3.85938 14.2187 4.125C14.3531 4.39062 14.5531 4.82812 14.6656 5.09375C14.7749 5.35938 14.9312 5.7625 15.0093 5.98438C15.0874 6.20937 15.2093 6.575 15.2812 6.79688C15.3499 7.02187 15.4687 7.45 15.5437 7.75C15.6218 8.05 15.7187 8.48125 15.7624 8.70312C15.8031 8.925 15.8624 9.27812 15.8906 9.48438C15.9156 9.69063 15.9531 9.9625 15.9687 10.0875C15.9874 10.2094 15.9999 10.5375 15.9999 10.8125C15.9999 11.1094 15.9812 11.4469 15.9499 11.65C15.9218 11.8344 15.8656 12.1031 15.8218 12.25C15.7812 12.3969 15.6968 12.6125 15.6406 12.7344C15.5812 12.8562 15.4718 13.025 15.3999 13.1156C15.3249 13.2063 15.1874 13.3375 15.0937 13.4094C14.9999 13.4812 14.8656 13.5656 14.7968 13.5969C14.7281 13.6281 14.5624 13.6812 14.4281 13.7156C14.2968 13.7531 14.1124 13.7812 14.0249 13.7812C13.9343 13.7812 13.7624 13.75 13.6406 13.7156C13.5187 13.6781 13.3156 13.5938 13.1874 13.5281C13.0593 13.4625 12.8562 13.3312 12.7343 13.2437C12.6124 13.1531 12.3812 12.9438 12.2187 12.7812C12.0562 12.6187 11.7999 12.3375 11.6531 12.1562C11.5031 11.975 11.2531 11.6438 11.0937 11.4219C10.9374 11.2 10.7593 10.9344 10.5937 10.6562H5.40619L5.29994 10.8375C5.24057 10.9344 5.06244 11.2 4.90307 11.4219C4.74682 11.6438 4.50307 11.9688 4.36244 12.1406C4.22494 12.3125 3.96869 12.5938 3.79682 12.7656C3.62494 12.9406 3.38432 13.1531 3.26557 13.2437C3.14682 13.3344 2.94057 13.4625 2.81244 13.5281C2.68432 13.5969 2.47182 13.6812 2.34369 13.7156C2.21557 13.7531 2.04369 13.7812 1.96244 13.7812C1.87807 13.7812 1.70307 13.7531 1.57182 13.7156C1.43744 13.6812 1.27182 13.6281 1.20307 13.5969C1.13432 13.5656 0.993691 13.475 0.890566 13.3969C0.787441 13.3188 0.653066 13.1875 0.590566 13.1031C0.528066 13.0219 0.440566 12.8906 0.396816 12.8125C0.353066 12.7344 0.274941 12.5437 0.221816 12.3906C0.168691 12.2375 0.0968158 11.9344 0.0593158 11.7188C0.00306579 11.3781 -0.00318421 11.2469 0.00931579 10.6875C0.0186908 10.3344 0.0499408 9.88438 0.0749408 9.6875C0.103066 9.49062 0.162441 9.125 0.206191 8.875C0.249941 8.625 0.356191 8.14687 0.440566 7.8125C0.524941 7.47813 0.653066 7.00625 0.731191 6.76562C0.806191 6.525 0.931191 6.15313 1.00619 5.9375C1.08432 5.72187 1.22182 5.36562 1.31244 5.14062C1.40619 4.91875 1.60307 4.4875 1.75307 4.1875C1.90307 3.8875 2.12807 3.4875 2.25619 3.29688C2.38119 3.10938 2.59057 2.84375 2.71869 2.7125C2.88744 2.54063 3.00932 2.44687 3.15619 2.37812C3.34057 2.29375 3.40307 2.28125 3.84369 2.25625C4.10932 2.24062 4.48119 2.225 4.67182 2.22187ZM3.56557 3.26562C3.39057 3.43438 3.26557 3.59063 3.17494 3.71875C3.08119 3.84687 2.91244 4.12188 2.79994 4.32812C2.68744 4.53437 2.50307 4.90625 2.39369 5.15625C2.28432 5.40625 2.10932 5.83437 2.00619 6.10938C1.90619 6.38438 1.75619 6.82188 1.67807 7.07812C1.59994 7.3375 1.47807 7.77187 1.40932 8.04688C1.34057 8.32188 1.24994 8.7375 1.20619 8.96875C1.16244 9.2 1.10307 9.55937 1.07807 9.76562C1.04994 9.97188 1.02182 10.3531 1.00932 10.6094C0.999941 10.8844 1.00619 11.2063 1.02494 11.3906C1.04682 11.5625 1.08432 11.7875 1.10932 11.8906C1.13744 11.9937 1.19057 12.15 1.23119 12.2344C1.26869 12.3219 1.34994 12.4469 1.40932 12.5125C1.46869 12.5813 1.57182 12.6594 1.64057 12.6906C1.71244 12.725 1.84057 12.75 1.93744 12.75C2.06244 12.75 2.15932 12.725 2.29682 12.6594C2.39994 12.6125 2.56869 12.5062 2.67182 12.4312C2.77494 12.3531 3.01244 12.1281 3.19994 11.9344C3.38744 11.7375 3.69057 11.3781 3.87182 11.1344C4.05307 10.8937 4.33119 10.4937 4.48432 10.25C4.63744 10.0031 4.80619 9.775 4.85932 9.7375L4.95307 9.67188H11.0593C11.1937 9.775 11.3624 10.0063 11.5187 10.2531C11.6781 10.5 11.9499 10.9 12.1281 11.1375C12.3062 11.3781 12.6062 11.7344 12.7968 11.9312C12.9874 12.1281 13.2249 12.3531 13.3281 12.4344C13.4312 12.5125 13.5937 12.6156 13.6874 12.6625C13.8187 12.7281 13.9031 12.75 14.0468 12.75C14.1593 12.75 14.2843 12.725 14.3593 12.6906C14.4281 12.6594 14.5312 12.5813 14.5906 12.5125C14.6499 12.4469 14.7312 12.3219 14.7687 12.2344C14.8093 12.15 14.8624 11.9937 14.8906 11.8906C14.9156 11.7875 14.9531 11.5625 14.9749 11.3906C14.9937 11.2063 14.9999 10.8844 14.9906 10.6094C14.9781 10.3531 14.9499 9.97188 14.9218 9.76562C14.8968 9.55937 14.8374 9.2 14.7937 8.96875C14.7499 8.7375 14.6656 8.35 14.6062 8.10938C14.5468 7.86875 14.4343 7.45312 14.3562 7.1875C14.2749 6.92188 14.1187 6.45625 14.0093 6.15625C13.8968 5.85625 13.7281 5.43438 13.6343 5.21875C13.5406 5.00312 13.3812 4.66563 13.2749 4.46875C13.1718 4.27187 13.0124 3.99688 12.9249 3.85938C12.8343 3.72187 12.6906 3.53125 12.6031 3.4375L12.4437 3.26562C11.4593 3.23438 11.0749 3.24062 10.9531 3.25312C10.8312 3.26875 10.6999 3.30625 10.6562 3.34063C10.6124 3.37188 10.5468 3.44375 10.5062 3.50312C10.4687 3.5625 10.3906 3.74375 10.3374 3.90625C10.2843 4.06875 10.2031 4.2875 10.1593 4.39062C10.1124 4.49375 10.0124 4.66875 9.93744 4.78125C9.86244 4.89375 9.72182 5.06563 9.62807 5.16563C9.53119 5.26875 9.36244 5.40937 9.24994 5.48438C9.13744 5.55938 8.95619 5.65937 8.84369 5.70312C8.73119 5.75 8.53744 5.80625 8.41244 5.83125C8.29057 5.85625 8.10307 5.875 7.99994 5.875C7.89682 5.875 7.70932 5.85625 7.58432 5.83125C7.46244 5.80625 7.27494 5.75313 7.17182 5.7125C7.06869 5.67188 6.89994 5.58125 6.79682 5.51562C6.69369 5.45 6.54057 5.33125 6.45619 5.25313C6.37182 5.175 6.24369 5.03125 6.17182 4.9375C6.09994 4.84375 5.99057 4.675 5.92807 4.5625C5.86557 4.45 5.76244 4.19687 5.69369 4C5.62807 3.80313 5.55307 3.60625 5.53119 3.5625C5.50932 3.51875 5.45619 3.44375 5.40932 3.39687C5.36557 3.35 5.27807 3.29688 5.21869 3.28125C5.15932 3.26562 5.00932 3.24687 4.89057 3.24062C4.76869 3.23437 4.42182 3.2375 4.11869 3.24688L3.56557 3.26562ZM7.02494 4.40625C7.09057 4.48438 7.22182 4.59687 7.31557 4.65625C7.40932 4.71563 7.56557 4.7875 7.66244 4.81875C7.76244 4.85 7.90932 4.875 7.99057 4.875C8.07494 4.875 8.20932 4.85625 8.29682 4.83125C8.38119 4.80938 8.51557 4.75938 8.59369 4.71875C8.67182 4.67812 8.81557 4.56563 8.91244 4.4625C9.01244 4.3625 9.09369 4.25938 9.09369 4.23438C9.09369 4.19375 8.94994 4.1875 7.99994 4.1875C7.14682 4.1875 6.90619 4.19688 6.90619 4.22813C6.90307 4.24688 6.95932 4.32812 7.02494 4.40625ZM4.28744 5.5625C4.35307 5.5625 4.46244 5.59063 4.53119 5.625C4.60307 5.65937 4.68744 5.7375 4.72494 5.80625C4.78744 5.90625 4.79682 5.97187 4.81244 6.6875H5.16244C5.44682 6.6875 5.54057 6.7 5.64682 6.75C5.72182 6.78438 5.80932 6.85625 5.84369 6.91563C5.87807 6.96875 5.91557 7.06563 5.92494 7.125C5.93744 7.19375 5.92494 7.28438 5.89369 7.36875C5.86244 7.44688 5.79682 7.53438 5.72807 7.5875C5.61869 7.66875 5.59682 7.67188 4.81244 7.6875L4.80307 8.07187C4.79682 8.39062 4.78744 8.47188 4.73119 8.5625C4.69682 8.62187 4.61869 8.70312 4.55932 8.74375C4.49057 8.79062 4.40619 8.81563 4.31869 8.8125C4.24682 8.8125 4.13432 8.7875 4.07182 8.75937C4.00932 8.72812 3.92494 8.65312 3.88432 8.59375C3.81869 8.49375 3.81244 8.45312 3.81244 7.6875H3.43744C3.14369 7.6875 3.03744 7.675 2.94682 7.63438C2.88432 7.60313 2.79682 7.52188 2.75307 7.45625C2.69369 7.36875 2.67182 7.29063 2.67182 7.1875C2.67182 7.09062 2.69682 7.00625 2.74682 6.925C2.78744 6.85625 2.87182 6.78438 2.94994 6.75C3.05307 6.7 3.14994 6.6875 3.81244 6.6875V6.30625C3.81557 5.98125 3.82494 5.90625 3.87494 5.8125C3.90932 5.75312 3.99057 5.67188 4.05619 5.63438C4.11869 5.59688 4.22494 5.5625 4.28744 5.5625ZM11.7031 5.5625C11.7749 5.5625 11.8812 5.59375 11.9531 5.6375C12.0249 5.68125 12.0999 5.75625 12.1312 5.825C12.1656 5.89375 12.1874 6.00938 12.1874 6.125C12.1874 6.22813 12.1687 6.35 12.1437 6.4C12.1218 6.44688 12.0624 6.52188 12.0124 6.56563C11.9624 6.60938 11.8656 6.65625 11.7968 6.66875C11.7218 6.68437 11.6281 6.68125 11.5624 6.6625C11.5031 6.64375 11.4031 6.575 11.3406 6.50938C11.2624 6.42812 11.2218 6.34688 11.2062 6.25C11.1937 6.17188 11.1906 6.05938 11.1999 6C11.2093 5.94062 11.2499 5.84375 11.2906 5.7875C11.3312 5.72812 11.4124 5.65625 11.4718 5.62187C11.5281 5.59062 11.6343 5.5625 11.7031 5.5625ZM10.6749 6.69375C10.8281 6.70312 10.8843 6.71875 10.9843 6.79688C11.0499 6.85 11.1249 6.94063 11.1499 7C11.1781 7.06875 11.1874 7.1625 11.1781 7.25C11.1687 7.32812 11.1312 7.425 11.0999 7.46875C11.0656 7.5125 10.9999 7.575 10.9562 7.60938C10.8874 7.65938 10.8218 7.67188 10.6281 7.67188C10.4124 7.67188 10.3718 7.6625 10.2718 7.5875C10.2031 7.53438 10.1374 7.44688 10.1062 7.36875C10.0749 7.28438 10.0624 7.19375 10.0749 7.125C10.0843 7.06563 10.1218 6.96875 10.1562 6.91563C10.1906 6.85938 10.2781 6.78438 10.3499 6.75C10.4499 6.70312 10.5343 6.6875 10.6749 6.69375ZM12.7656 6.69063C12.8687 6.6875 12.9687 6.7125 13.0593 6.75938C13.1374 6.79688 13.2218 6.875 13.2593 6.9375C13.2999 7.00625 13.3249 7.1 13.3249 7.1875C13.3249 7.275 13.2999 7.37188 13.2562 7.44688C13.2156 7.5125 13.1343 7.5875 13.0624 7.625C12.9812 7.66563 12.8781 7.6875 12.7562 7.6875C12.6281 7.68437 12.5437 7.66563 12.4624 7.61562C12.3968 7.57812 12.3156 7.49687 12.2812 7.4375C12.2499 7.37813 12.2187 7.26875 12.2187 7.19688C12.2187 7.12188 12.2374 7.025 12.2624 6.97813C12.2874 6.92812 12.3406 6.85938 12.3812 6.82188C12.4187 6.78438 12.4874 6.74063 12.5312 6.72188C12.5749 6.70625 12.6781 6.69063 12.7656 6.69063ZM11.7656 7.70625C11.8156 7.71563 11.8999 7.75 11.9531 7.77812C12.0031 7.80625 12.0781 7.88125 12.1187 7.94063C12.1749 8.025 12.1874 8.09062 12.1874 8.26562C12.1874 8.44375 12.1749 8.50625 12.1156 8.59375C12.0749 8.65312 11.9906 8.72812 11.9281 8.75937C11.8624 8.7875 11.7531 8.8125 11.6781 8.8125C11.6031 8.8125 11.5062 8.7875 11.4437 8.75C11.3906 8.71562 11.3156 8.64062 11.2812 8.5875C11.2468 8.53125 11.2124 8.42812 11.2062 8.35625C11.1968 8.2875 11.2062 8.17188 11.2218 8.1C11.2374 8.02813 11.2874 7.925 11.3343 7.875C11.3843 7.82188 11.4781 7.75938 11.5468 7.73438C11.6156 7.70937 11.7124 7.69688 11.7656 7.70625Z" fill="#ACB9CB"/>
</g>
<defs>
<clipPath id="clip0_556_4060">
<rect width="16" height="16" fill="white"/>
</clipPath>
</defs>
</svg>
