<svg width="16" height="16" viewBox="0 0 16 16" fill="none" xmlns="http://www.w3.org/2000/svg">
<g clip-path="url(#clip0_556_4520)">
<path fill-rule="evenodd" clip-rule="evenodd" d="M6.64068 0H9.34381L9.54068 0.0875C9.64693 0.134375 9.80318 0.2375 9.88443 0.3125C9.97506 0.39375 10.0751 0.53125 10.1282 0.640625C10.1844 0.759375 10.2688 1.06875 10.5063 2.14062L10.7782 2.27187C10.9251 2.34375 11.1438 2.4625 11.2657 2.53437C11.3876 2.60625 11.5594 2.72187 11.8126 2.90625L12.4626 2.69688C13.0688 2.5 13.1282 2.4875 13.3907 2.4875C13.6282 2.4875 13.7001 2.5 13.8532 2.57188C13.9501 2.61875 14.0969 2.72188 14.1813 2.80625C14.2844 2.9125 14.4969 3.25 14.9219 3.98438C15.2469 4.55312 15.5438 5.09375 15.5751 5.1875C15.6126 5.29063 15.6344 5.43437 15.6344 5.54688C15.6313 5.65312 15.6032 5.80937 15.5657 5.90625C15.5313 6 15.4626 6.13438 15.4126 6.20312C15.3657 6.27187 15.1063 6.52812 14.3594 7.21562V8.78125L14.8751 9.25937C15.2813 9.63437 15.4126 9.77812 15.4876 9.925C15.5438 10.025 15.6032 10.1875 15.6219 10.2812C15.6532 10.4219 15.6501 10.4937 15.6126 10.6719C15.5719 10.8469 15.4876 11.0219 15.1782 11.5625C14.9657 11.9312 14.6876 12.4187 14.5594 12.6406C14.4219 12.8813 14.2657 13.1094 14.1719 13.2031C14.0688 13.3062 13.9501 13.3875 13.8282 13.4375C13.6813 13.4969 13.5844 13.5125 13.3751 13.5125C13.1344 13.5125 13.0532 13.4938 11.8282 13.0969L11.4688 13.3313C11.2719 13.4594 10.9751 13.6313 10.5063 13.8594L10.3626 14.5156C10.2719 14.9219 10.1813 15.2437 10.1251 15.3594C10.0751 15.4688 9.97506 15.6031 9.88443 15.6875C9.80318 15.7625 9.64693 15.8656 9.34381 16H6.65631L6.46256 15.9125C6.35318 15.8656 6.19693 15.7625 6.11568 15.6875C6.02506 15.6062 5.92506 15.4688 5.87193 15.3594C5.81568 15.2406 5.72818 14.9312 5.49381 13.8594L5.17506 13.7063C5.00318 13.6188 4.70631 13.4469 4.17193 13.0969L3.53131 13.3031C2.94693 13.4938 2.86568 13.5125 2.62506 13.5125C2.41568 13.5125 2.31881 13.4969 2.17193 13.4375C2.05006 13.3875 1.93131 13.3062 1.82818 13.2031C1.73443 13.1094 1.57818 12.8813 1.44068 12.6406C1.31256 12.4187 1.03756 11.9406 0.828184 11.5781C0.553184 11.1 0.434434 10.8656 0.396934 10.7094C0.353184 10.5375 0.350059 10.4656 0.378184 10.3031C0.393809 10.1969 0.456309 10.025 0.509434 9.92188C0.587559 9.775 0.718809 9.63437 1.64068 8.78125V7.21875L1.12506 6.74062C0.775059 6.41563 0.581309 6.2125 0.525059 6.10625C0.478184 6.02187 0.418809 5.86875 0.390684 5.76562C0.353184 5.62187 0.346934 5.54063 0.371934 5.40625C0.387559 5.3125 0.421934 5.17812 0.450059 5.10938C0.481309 5.04063 0.765684 4.52812 1.08756 3.96875C1.50318 3.24688 1.71568 2.9125 1.82193 2.80625C1.90318 2.72188 2.05006 2.61875 2.15006 2.57188C2.30318 2.49688 2.36568 2.4875 2.60943 2.4875C2.86881 2.4875 2.93756 2.50312 4.18756 2.90625L4.35318 2.7875C4.44068 2.72187 4.61568 2.60625 4.73443 2.53437C4.85631 2.4625 5.07506 2.34375 5.49381 2.14062L5.63756 1.48438C5.71881 1.12188 5.81568 0.75625 5.85318 0.671875C5.89381 0.5875 5.98756 0.446875 6.06256 0.365625C6.15318 0.26875 6.28131 0.175 6.42193 0.10625L6.64068 0ZM6.57818 1.85938C6.48443 2.2875 6.39068 2.675 6.37506 2.71875C6.35943 2.7625 6.31256 2.82812 6.27506 2.86562C6.23443 2.90312 6.06256 2.99375 5.89068 3.06875C5.71881 3.14375 5.45943 3.275 5.31256 3.35938C5.16568 3.44375 4.93443 3.59687 4.79693 3.7C4.65943 3.80313 4.49693 3.90625 4.43756 3.92812C4.37818 3.95312 4.28756 3.96563 4.23443 3.95625C4.18443 3.94687 3.80318 3.83125 3.39068 3.7C2.94693 3.5625 2.60943 3.47187 2.56881 3.48125C2.50943 3.49375 2.37818 3.70312 1.93443 4.48125C1.62818 5.025 1.37506 5.5 1.37506 5.5375C1.37193 5.59062 1.53131 5.75625 1.99068 6.175C2.38756 6.5375 2.62506 6.77813 2.65318 6.84688C2.69381 6.9375 2.69381 7.02812 2.65943 7.48438C2.62506 7.92188 2.62506 8.10625 2.65943 8.53125C2.69068 8.92813 2.69068 9.06875 2.66256 9.14062C2.64068 9.19687 2.37506 9.46875 2.00006 9.8125C1.53756 10.2375 1.37506 10.4094 1.37506 10.4594C1.37506 10.5 1.63131 10.975 1.94693 11.5156C2.33131 12.1844 2.53443 12.5063 2.57818 12.5188C2.61256 12.5281 2.92818 12.4438 3.28131 12.3344C3.63443 12.2219 4.00631 12.1062 4.10943 12.0781C4.25631 12.0344 4.32193 12.0312 4.40631 12.0562C4.46568 12.075 4.63443 12.1781 4.78131 12.2875C4.92818 12.3969 5.16568 12.5531 5.31256 12.6406C5.45943 12.725 5.71881 12.8562 5.89068 12.9312C6.06256 13.0062 6.22818 13.0906 6.26256 13.1187C6.29381 13.1469 6.33756 13.2063 6.35943 13.25C6.38131 13.2937 6.47818 13.6875 6.57818 14.125C6.70006 14.6719 6.77193 14.9344 6.80631 14.9625C6.84693 14.9906 7.12818 15 8.00006 15C8.87193 15 9.15318 14.9906 9.19381 14.9625C9.23131 14.9344 9.30318 14.6781 9.43443 14.0938C9.55318 13.5719 9.64381 13.2375 9.68131 13.1875C9.71256 13.1438 9.78756 13.0844 9.84693 13.0562C9.90631 13.0281 10.1438 12.9125 10.3751 12.8C10.6219 12.6781 10.9188 12.5031 11.0938 12.375C11.2563 12.2531 11.4532 12.125 11.5313 12.0875C11.6251 12.0469 11.7032 12.0312 11.7657 12.0437C11.8157 12.0531 12.1969 12.1687 12.6094 12.2969C13.0219 12.4281 13.3876 12.5281 13.4219 12.5188C13.4657 12.5063 13.6626 12.1906 14.0563 11.5156C14.3688 10.975 14.6251 10.5 14.6251 10.4594C14.6282 10.4094 14.4688 10.2437 14.0188 9.82812C13.6844 9.51875 13.3844 9.22188 13.3563 9.17188C13.3126 9.09375 13.3063 9.03125 13.3219 8.8125C13.3344 8.66562 13.3532 8.41875 13.3626 8.26562C13.3751 8.10312 13.3688 7.75938 13.3438 7.45312C13.3063 6.9625 13.3063 6.91563 13.3563 6.82812C13.3844 6.775 13.6844 6.48125 14.0188 6.17188C14.4688 5.75313 14.6282 5.59062 14.6251 5.5375C14.6251 5.5 14.3688 5.025 14.0563 4.48125C13.6626 3.80625 13.4657 3.49063 13.4219 3.48125C13.3876 3.47187 13.0219 3.57188 12.6094 3.7C12.1969 3.83125 11.8157 3.94687 11.7657 3.95625C11.7032 3.96875 11.6251 3.95312 11.5313 3.90937C11.4532 3.875 11.2563 3.74688 11.0938 3.625C10.9188 3.49688 10.6219 3.31875 10.3751 3.2C10.1438 3.0875 9.90631 2.97187 9.84693 2.94375C9.78756 2.9125 9.71256 2.85625 9.68131 2.8125C9.64381 2.7625 9.55318 2.42812 9.43443 1.90625C9.30318 1.31562 9.23131 1.06563 9.19381 1.0375C9.15318 1.00937 8.87193 1 8.00006 1C7.13443 1 6.84381 1.00937 6.80631 1.0375C6.76881 1.06563 6.70006 1.31562 6.57818 1.85938ZM8.49693 5.34375C8.59693 5.34062 8.67506 5.3625 8.74693 5.4125C8.80631 5.45312 8.88131 5.51875 8.91256 5.5625C8.94381 5.60625 8.97818 5.69688 8.98756 5.76562C9.00006 5.85625 8.86881 6.47188 8.48756 8.125C8.15006 9.57812 7.95006 10.3875 7.91256 10.4375C7.87818 10.4812 7.80631 10.5469 7.74693 10.5875C7.67506 10.6344 7.59381 10.6562 7.50006 10.6562C7.40631 10.6562 7.32506 10.6344 7.25318 10.5875C7.19381 10.5469 7.11881 10.4812 7.08756 10.4375C7.05631 10.3938 7.02193 10.3031 7.01256 10.2344C7.00006 10.1406 7.13131 9.52812 7.51256 7.875C7.85006 6.42188 8.05006 5.6125 8.08756 5.5625C8.12193 5.51875 8.19381 5.45312 8.25006 5.4125C8.32089 5.36667 8.40318 5.34375 8.49693 5.34375ZM5.84381 6C5.90318 6 6.00943 6.03125 6.07506 6.07188C6.14381 6.10938 6.22818 6.19063 6.26256 6.25C6.29693 6.30937 6.32506 6.41563 6.32506 6.48438C6.32818 6.55312 6.30943 6.65 6.29068 6.70312C6.26568 6.75938 5.98756 7.03438 5.59381 7.39062C5.23131 7.71562 4.93443 7.99062 4.93443 8C4.93443 8.00937 5.23131 8.28125 5.59381 8.60938C5.98756 8.9625 6.26568 9.24063 6.29068 9.29688C6.30943 9.34688 6.32818 9.44687 6.32506 9.51562C6.32506 9.58438 6.29693 9.69063 6.26256 9.75C6.22818 9.80937 6.14381 9.89062 6.07506 9.92813C6.00943 9.96563 5.90631 10 5.85318 10C5.79693 10 5.70318 9.98125 5.65006 9.95625C5.59381 9.93437 5.15318 9.5625 4.67193 9.12813C4.19068 8.69688 3.76881 8.29688 3.73443 8.24063C3.70006 8.18125 3.67506 8.08438 3.67506 8C3.67506 7.91563 3.70006 7.81875 3.73443 7.75625C3.76881 7.7 4.19068 7.30312 4.67193 6.86875C5.15318 6.4375 5.59068 6.06562 5.64068 6.04375C5.69381 6.02187 5.78443 6.00313 5.84381 6ZM10.1501 6C10.2032 6 10.2969 6.01875 10.3532 6.04063C10.4063 6.06563 10.8469 6.4375 11.3282 6.86875C11.8094 7.3 12.2313 7.7 12.2657 7.75625C12.3001 7.81875 12.3251 7.91563 12.3251 8C12.3251 8.08438 12.3001 8.18125 12.2657 8.24375C12.2313 8.3 11.8094 8.7 11.3282 9.13125C10.8469 9.5625 10.4063 9.93437 10.3532 9.95625C10.2969 9.98125 10.2032 10 10.1501 10C10.0938 10 9.99068 9.96563 9.92506 9.92813C9.85631 9.89062 9.77193 9.80937 9.73756 9.75C9.70318 9.69063 9.67506 9.58438 9.67506 9.51562C9.67193 9.44687 9.69068 9.34688 9.71256 9.29688C9.73443 9.24063 10.0219 8.95625 10.4063 8.60938C10.7688 8.28125 11.0657 8.00937 11.0657 8C11.0657 7.99062 10.7688 7.71562 10.4063 7.39062C10.0219 7.04063 9.73443 6.75625 9.71256 6.70312C9.69068 6.65 9.67193 6.55312 9.67506 6.48438C9.67506 6.40312 9.70318 6.31875 9.75006 6.25C9.79381 6.19063 9.87818 6.10938 9.93756 6.07188C9.99693 6.03125 10.0938 6 10.1501 6Z" fill="#ACB9CB"/>
</g>
<defs>
<clipPath id="clip0_556_4520">
<rect width="16" height="16" fill="white"/>
</clipPath>
</defs>
</svg>
