<svg width="16" height="16" viewBox="0 0 16 16" fill="none" xmlns="http://www.w3.org/2000/svg">
<g clip-path="url(#clip0_556_4065)">
<path fill-rule="evenodd" clip-rule="evenodd" d="M7.14067 0.516067C7.46879 0.522317 7.85317 0.547317 8.00004 0.575442C8.14692 0.600442 8.33754 0.634817 8.42192 0.656692C8.50942 0.675442 8.70629 0.725442 8.85942 0.772317C9.01254 0.816067 9.27504 0.909817 9.43754 0.975442C9.60004 1.04107 9.88129 1.17544 10.0625 1.27232C10.2438 1.36607 10.4875 1.51294 10.6094 1.59419C10.7313 1.67544 10.9344 1.82544 11.0625 1.92857C11.1907 2.02857 11.425 2.23794 11.5782 2.39419C11.7313 2.54732 11.95 2.78794 12.0594 2.92232C12.1719 3.05982 12.3438 3.29732 12.4438 3.45357C12.5438 3.60982 12.6938 3.86919 12.7782 4.03169C12.8625 4.19419 12.9813 4.45669 13.0407 4.60982C13.1032 4.76294 13.1875 5.01919 13.2344 5.17232C13.2782 5.32544 13.3407 5.58794 13.375 5.75044C13.4063 5.91294 13.45 6.22232 13.4719 6.43794C13.4938 6.67232 13.5 6.99732 13.4875 7.25044C13.4782 7.48169 13.4407 7.84107 13.4063 8.04732C13.3719 8.25357 13.3 8.57544 13.2469 8.76607C13.1938 8.95669 13.0875 9.26294 13.0125 9.45357C12.9344 9.64419 12.8157 9.90357 12.7438 10.0317C12.675 10.1598 12.5313 10.4004 12.425 10.5629C12.3188 10.7254 12.1625 10.9442 11.9313 11.2348L13.6969 13.0004C15.1875 14.4911 15.4688 14.7817 15.4844 14.8754C15.4969 14.9348 15.4969 15.0411 15.4844 15.1098C15.4688 15.2004 15.425 15.2723 15.325 15.3692C15.1938 15.4942 15.1813 15.5004 14.7969 15.5004L11.2344 11.9317L11.0469 12.0786C10.9438 12.1629 10.7407 12.3098 10.5938 12.4067C10.4469 12.5067 10.1938 12.6567 10.0313 12.7442C9.86879 12.8317 9.57192 12.9661 9.37504 13.0442C9.17817 13.1192 8.88129 13.2192 8.71879 13.2629C8.55629 13.3067 8.25317 13.3723 8.04692 13.4067C7.84067 13.4411 7.48129 13.4786 7.25004 13.4879C6.99692 13.5004 6.67192 13.4942 6.43754 13.4723C6.22192 13.4504 5.91254 13.4067 5.75004 13.3754C5.58754 13.3411 5.32504 13.2786 5.17192 13.2348C5.01879 13.1879 4.76254 13.1036 4.60942 13.0411C4.45629 12.9817 4.19379 12.8629 4.03129 12.7786C3.86879 12.6942 3.60629 12.5442 3.45317 12.4442C3.29692 12.3442 3.05942 12.1723 2.92192 12.0598C2.78754 11.9504 2.54692 11.7317 2.39379 11.5786C2.23754 11.4254 2.02817 11.1911 1.92504 11.0629C1.82504 10.9348 1.65629 10.7004 1.55317 10.5473C1.45317 10.3942 1.28129 10.0911 1.17504 9.87544C1.06879 9.65982 0.915669 9.28794 0.837544 9.04732C0.756294 8.80669 0.653169 8.41294 0.609419 8.17232C0.553169 7.88169 0.521919 7.57232 0.509419 7.25044C0.496919 6.95357 0.506294 6.61919 0.531294 6.39107C0.550044 6.18482 0.587544 5.90982 0.612544 5.78169C0.637544 5.65357 0.690669 5.41919 0.734419 5.26607C0.775044 5.11294 0.856294 4.85669 0.915669 4.70357C0.975044 4.55044 1.10004 4.26919 1.19692 4.07857C1.29067 3.89107 1.45629 3.60044 1.56254 3.43794C1.67192 3.27544 1.84379 3.03482 1.95004 2.90669C2.05317 2.77857 2.25942 2.55357 2.40629 2.40669C2.55317 2.25982 2.77817 2.05357 2.90629 1.95044C3.03442 1.84419 3.27504 1.67232 3.43754 1.56294C3.60004 1.45669 3.88129 1.29419 4.06254 1.20357C4.24379 1.11294 4.52504 0.987942 4.68754 0.925442C4.85004 0.859817 5.13754 0.769192 5.32817 0.719192C5.51879 0.672317 5.76254 0.616067 5.87504 0.597317C5.98754 0.575442 6.18442 0.547317 6.31254 0.531692C6.44067 0.516067 6.81567 0.509817 7.14067 0.516067ZM6.07817 1.58169C5.90629 1.60982 5.60317 1.68169 5.40629 1.74107C5.20942 1.80044 4.91879 1.90669 4.76567 1.97857C4.61254 2.05044 4.36567 2.17857 4.21879 2.26294C4.07192 2.34732 3.84692 2.49419 3.71879 2.58794C3.59067 2.68169 3.35317 2.88794 3.19379 3.04419C3.03129 3.20044 2.82817 3.41919 2.73442 3.53169C2.64379 3.64419 2.50004 3.84107 2.41254 3.96919C2.32817 4.09732 2.17817 4.35669 2.08442 4.54732C1.98754 4.73794 1.86254 5.03794 1.80004 5.21919C1.74067 5.40044 1.66254 5.67544 1.62817 5.82857C1.59379 5.98169 1.55004 6.26294 1.52817 6.45357C1.50629 6.65669 1.50004 6.96919 1.50942 7.21919C1.52192 7.45044 1.55629 7.80044 1.59379 7.99419C1.62817 8.18482 1.71254 8.51607 1.78129 8.72857C1.85317 8.93794 1.98754 9.26294 2.08442 9.45357C2.17817 9.64419 2.32817 9.90357 2.41254 10.0317C2.50004 10.1598 2.65004 10.3629 2.74692 10.4817C2.84379 10.6004 3.06879 10.8379 3.25004 11.0098C3.43129 11.1817 3.72504 11.4192 3.90629 11.5411C4.08754 11.6598 4.38129 11.8317 4.56254 11.9223C4.74379 12.0129 5.03754 12.1379 5.21879 12.2004C5.40004 12.2598 5.68129 12.3379 5.84379 12.3723C6.00629 12.4067 6.26879 12.4504 6.42192 12.4692C6.57504 12.4848 6.83442 12.5004 6.99067 12.5004C7.15004 12.5004 7.41879 12.4848 7.58442 12.4661C7.75317 12.4473 8.01879 12.4067 8.17192 12.3723C8.32504 12.3379 8.60004 12.2598 8.78129 12.1973C8.96254 12.1379 9.26254 12.0098 9.45317 11.9161C9.64379 11.8223 9.90317 11.6723 10.0313 11.5879C10.1594 11.5004 10.3563 11.3567 10.4688 11.2661C10.5813 11.1754 10.8 10.9692 10.9563 10.8067C11.1094 10.6473 11.3157 10.4098 11.4094 10.2817C11.5032 10.1536 11.6313 9.96294 11.6938 9.85982C11.7563 9.75669 11.8719 9.54107 11.95 9.38482C12.0282 9.22544 12.15 8.92544 12.2188 8.71919C12.2875 8.51294 12.3719 8.18482 12.4063 7.99419C12.4438 7.80044 12.4782 7.45044 12.4907 7.21919C12.5 6.97232 12.4938 6.65982 12.4719 6.46919C12.4532 6.28794 12.4063 6.00669 12.3719 5.84419C12.3375 5.68169 12.2625 5.40044 12.2 5.21919C12.1407 5.03794 12.0125 4.73794 11.9157 4.54732C11.8219 4.35669 11.6719 4.09732 11.5875 3.96919C11.5 3.84107 11.3782 3.67232 11.3188 3.59419C11.2563 3.51607 11.0875 3.32857 10.9375 3.17857C10.7907 3.02544 10.5813 2.82857 10.4688 2.73482C10.3563 2.64419 10.1594 2.50044 10.0313 2.41294C9.90317 2.32857 9.64379 2.17857 9.45317 2.08482C9.26254 1.98794 8.96254 1.85982 8.78129 1.80044C8.60004 1.73794 8.31879 1.66294 8.15629 1.62857C7.99379 1.59419 7.73129 1.55044 7.57817 1.53169C7.42504 1.51607 7.14379 1.50357 6.95317 1.50669C6.76254 1.50982 6.55942 1.51607 6.50004 1.52232C6.44067 1.52857 6.25004 1.55669 6.07817 1.58169ZM7.07817 2.51607C7.26879 2.52232 7.50004 2.54732 7.59379 2.57232C7.68754 2.60044 7.84379 2.65044 7.93754 2.68482C8.03129 2.71919 8.21879 2.81919 8.35004 2.90669C8.48442 2.99107 8.67192 3.14107 8.76567 3.23482C8.85942 3.32857 9.00942 3.51607 9.09379 3.65044C9.18129 3.78169 9.28129 3.96919 9.31567 4.06294C9.35004 4.15669 9.40004 4.31294 9.42504 4.40669C9.45004 4.50044 9.47817 4.69107 9.49067 4.82857C9.50004 4.97232 9.49379 5.19107 9.46879 5.34419C9.45004 5.49107 9.39067 5.72232 9.34067 5.85982C9.29067 5.99732 9.18754 6.20982 9.11254 6.32857C8.99067 6.51919 8.97817 6.55044 9.02504 6.56607C9.05317 6.57857 9.16879 6.62544 9.28129 6.66919C9.39379 6.71294 9.58129 6.82544 9.70317 6.91607C9.82817 7.00669 9.99379 7.17232 10.0875 7.29732C10.1782 7.41919 10.2907 7.62232 10.3438 7.75982C10.3969 7.89107 10.4532 8.10357 10.4719 8.22857C10.4907 8.35357 10.4969 8.55044 10.4844 8.67232C10.475 8.79419 10.4282 8.99732 10.3875 9.12544C10.3438 9.25357 10.2657 9.43169 10.2125 9.51607C10.1594 9.60357 10.0532 9.74732 9.97192 9.84107C9.89379 9.93169 9.72192 10.0786 9.59379 10.1629C9.46567 10.2473 9.24692 10.3536 8.85942 10.4848L7.10942 10.4942C5.58754 10.5004 5.32817 10.4973 5.10942 10.4536C4.97192 10.4254 4.77504 10.3629 4.67192 10.3161C4.56879 10.2661 4.40004 10.1661 4.29692 10.0879C4.19379 10.0098 4.05942 9.88482 3.99692 9.80982C3.93442 9.73482 3.84067 9.60357 3.78754 9.51607C3.73442 9.43169 3.65629 9.25357 3.61254 9.12544C3.57192 8.99732 3.52504 8.79419 3.51567 8.67232C3.50317 8.55044 3.50942 8.35357 3.52817 8.22857C3.54692 8.10357 3.60317 7.89107 3.65629 7.75982C3.70942 7.62232 3.82192 7.41919 3.91254 7.29732C4.00629 7.17232 4.17192 7.00669 4.29692 6.91607C4.41567 6.82544 4.60629 6.71294 4.71879 6.66919C4.83129 6.62544 4.94692 6.57857 4.97504 6.56607C5.02192 6.55044 5.01254 6.52232 4.90317 6.35982C4.83442 6.25669 4.73754 6.05982 4.68442 5.92232C4.63129 5.78482 4.56879 5.56607 4.54379 5.43794C4.52192 5.30982 4.50317 5.10982 4.50004 4.99419C4.50004 4.87544 4.51879 4.67857 4.54379 4.55669C4.56879 4.43169 4.62192 4.23794 4.66254 4.12544C4.70317 4.01294 4.78442 3.84107 4.84379 3.74107C4.90317 3.64107 5.01254 3.48482 5.08442 3.39732C5.15942 3.30669 5.29379 3.17232 5.38754 3.09419C5.48129 3.01607 5.64067 2.90357 5.74067 2.84419C5.84067 2.78482 6.01254 2.70357 6.12504 2.66294C6.23754 2.62232 6.41879 2.56919 6.53129 2.54419C6.65942 2.51919 6.85942 2.50669 7.07817 2.51607ZM6.26879 3.69732C6.16879 3.75357 6.01254 3.87544 5.92192 3.96919C5.83442 4.06294 5.72192 4.21607 5.67817 4.30669C5.63129 4.39419 5.57192 4.55044 5.54692 4.65044C5.52192 4.74732 5.50004 4.90669 5.50004 5.00044C5.50004 5.09419 5.52192 5.25669 5.55004 5.35982C5.57504 5.46294 5.64379 5.62857 5.69692 5.73169C5.75317 5.83169 5.87504 5.98794 5.96879 6.07857C6.06254 6.16607 6.21567 6.27857 6.30317 6.32232C6.39379 6.36919 6.55004 6.42857 6.64692 6.45357C6.74692 6.47857 6.90629 6.50044 7.00004 6.50044C7.09379 6.50044 7.25629 6.47857 7.35942 6.45044C7.46254 6.42544 7.62817 6.35669 7.73129 6.30357C7.83129 6.24732 7.98754 6.12544 8.07817 6.03169C8.16567 5.93794 8.27817 5.78482 8.32192 5.69732C8.36879 5.60669 8.42817 5.45044 8.45317 5.35357C8.47817 5.25357 8.50004 5.09419 8.50004 5.00044C8.50004 4.90669 8.47817 4.74732 8.45317 4.65044C8.42817 4.55044 8.36879 4.39419 8.32192 4.30669C8.27817 4.21607 8.16567 4.06294 8.07817 3.96919C7.98754 3.87544 7.83129 3.75357 7.73129 3.69732C7.62817 3.64419 7.46254 3.57544 7.35942 3.55044C7.25629 3.52232 7.08754 3.50044 6.98442 3.50357C6.88129 3.50357 6.71879 3.52544 6.62504 3.55044C6.53129 3.57544 6.37192 3.64419 6.26879 3.69732ZM5.04692 7.61294C4.97817 7.64419 4.86567 7.72857 4.79692 7.79732C4.72817 7.86607 4.63754 7.99419 4.59379 8.07857C4.53129 8.20669 4.51879 8.28169 4.51879 8.50044C4.51879 8.70982 4.53442 8.79732 4.58754 8.90669C4.62504 8.98482 4.69692 9.09732 4.74379 9.15669C4.79379 9.21607 4.92504 9.31607 5.03442 9.37544L5.23442 9.48482H8.76567C9.07504 9.31607 9.20004 9.22232 9.24379 9.17232C9.28442 9.12232 9.35629 9.00982 9.40004 8.92232C9.46879 8.79107 9.48129 8.72544 9.48129 8.50044C9.48442 8.25669 9.47504 8.21919 9.37504 8.03482C9.31567 7.92544 9.21567 7.79419 9.15629 7.74419C9.09692 7.69732 8.98442 7.62544 8.90629 7.58482C8.76567 7.51607 8.75942 7.51607 7.06254 7.50982C6.12504 7.50669 5.31567 7.51607 5.26567 7.52857C5.21254 7.54107 5.11567 7.57857 5.04692 7.61294Z" fill="#ACB9CB"/>
</g>
<defs>
<clipPath id="clip0_556_4065">
<rect width="16" height="16" fill="white"/>
</clipPath>
</defs>
</svg>
