<svg width="16" height="16" viewBox="0 0 16 16" fill="none" xmlns="http://www.w3.org/2000/svg">
<g clip-path="url(#clip0_556_4074)">
<path fill-rule="evenodd" clip-rule="evenodd" d="M4 0.75C5.89687 0.75 6.40938 0.759375 6.42188 0.790625C6.42812 0.809375 6.51562 1.7 6.60938 2.76562C6.70625 3.83125 6.79063 4.72188 6.79688 4.74375C6.80937 4.77187 7.55312 4.78125 13.9375 4.78125V7.79688L14.2875 7.81875C14.5156 7.83125 14.7469 7.86875 14.9375 7.92188C15.1 7.96562 15.325 8.04063 15.6344 8.17188L15.7281 8.40625C15.7781 8.53438 15.8531 8.775 15.8969 8.9375C15.9438 9.11875 15.9781 9.36875 15.9906 9.57812C16.0031 9.82187 15.9938 10.0062 15.9563 10.2125C15.9281 10.3687 15.8625 10.6156 15.8125 10.7563C15.7594 10.9 15.6625 11.1062 15.5969 11.2188C15.5281 11.3313 15.3938 11.5156 15.3 11.6344C15.2031 11.75 15.0438 11.9125 14.9438 11.9937C14.8469 12.075 14.7375 12.1594 14.7031 12.1781C14.6438 12.2125 14.65 12.2219 14.8 12.3813C14.8875 12.4719 15.0125 12.6313 15.0781 12.7344C15.1438 12.8375 15.2281 13.0063 15.2688 13.1094C15.3063 13.2125 15.3531 13.4031 15.3719 13.5312C15.3969 13.675 15.4062 14.0469 15.3906 15.2344L0 15.25L0.009375 14.35C0.01875 13.4781 0.021875 13.4469 0.1 13.2031C0.146875 13.0594 0.253125 12.8469 0.5125 12.4531L1.0375 6.64062C1.32812 3.44375 1.56875 0.809375 1.57812 0.7875C1.59063 0.759375 2.10313 0.75 4 0.75ZM2.425 1.79062C2.41562 1.82812 2.3875 2.1125 2.35938 2.42188C2.33437 2.73125 2.3125 3.00938 2.3125 3.04063C2.3125 3.09063 2.4125 3.09375 4 3.09375C5.5875 3.09375 5.6875 3.09063 5.6875 3.04063C5.6875 3.00938 5.66563 2.73125 5.64062 2.42188C5.6125 2.1125 5.58437 1.82812 5.575 1.79062L5.5625 1.71875H2.4375L2.425 1.79062ZM2.20625 4.19688C2.19687 4.2875 2.04063 5.98438 1.85938 7.97188C1.68125 9.95625 1.53437 11.625 1.53437 11.6812V11.7844H6.47188C6.47188 11.625 6.325 9.95625 6.14375 7.97188C5.9625 5.98438 5.80938 4.2875 5.8 4.19688L5.78438 4.03438H2.225L2.20625 4.19688ZM6.89062 5.85313C6.9 5.925 7.02188 7.24375 7.15938 8.78125C7.29688 10.3188 7.41563 11.625 7.425 11.6812L7.44063 11.7812C8.89375 11.7812 9.31563 11.775 9.31563 11.7656C9.31563 11.7563 9.25938 11.6562 9.19063 11.5406C9.125 11.4219 9.03125 11.2156 8.98438 11.0781C8.9125 10.875 8.89375 10.7563 8.88437 10.4375C8.87187 10.1031 8.88125 10.0063 8.94063 9.76562C8.97813 9.6125 9.04688 9.39375 9.09375 9.28438C9.17188 9.09375 9.18125 9.08437 9.3625 9.00937C9.46562 8.96875 9.6625 8.90313 9.8 8.86563C9.99063 8.81563 10.1375 8.8 10.425 8.8C10.6813 8.8 10.8625 8.81562 11.0031 8.85312C11.1125 8.88437 11.2969 8.95 11.4094 9.00313L11.6125 9.09688C11.8281 8.84062 11.9469 8.7125 12.0156 8.64375C12.0875 8.57812 12.2344 8.45312 12.3469 8.36875C12.4563 8.28437 12.65 8.1625 12.775 8.1L13.0031 7.98438V5.71875H6.87187L6.89062 5.85313ZM13.2688 8.90938C13.1813 8.94688 13.0344 9.03125 12.9406 9.09375C12.8469 9.15938 12.6844 9.30313 12.5813 9.4125C12.4781 9.525 12.3406 9.7125 12.2781 9.83125C12.2156 9.95 12.1406 10.125 12.1156 10.2219C12.0875 10.3156 12.0562 10.5063 12.0437 10.6438C12.0344 10.7781 12.0344 10.9344 12.0469 10.9875C12.0688 11.0781 12.0719 11.075 12.7063 10.4406L13.3469 9.8L14.0031 10.4563L12.7063 11.7531C13.1938 11.7531 13.4125 11.7312 13.5188 11.7031C13.6219 11.6781 13.8125 11.6062 13.9406 11.5437C14.1188 11.4563 14.2406 11.3656 14.4438 11.1594C14.6656 10.9406 14.7406 10.8438 14.8438 10.6281C14.9125 10.4812 14.9938 10.2625 15.0188 10.1438C15.0437 10.0219 15.0656 9.82812 15.0656 9.7125C15.0656 9.59687 15.0438 9.4 15.0219 9.275C14.9969 9.15 14.9625 9.00937 14.9438 8.9625C14.9156 8.89687 14.8719 8.86562 14.7437 8.825C14.6437 8.79688 14.425 8.77188 14.175 8.76562C13.8906 8.75625 13.7156 8.76562 13.5969 8.79688C13.5031 8.82187 13.3531 8.87187 13.2688 8.90938ZM9.85312 9.94063C9.82812 10.0281 9.81562 10.1938 9.82187 10.3938C9.83125 10.6813 9.84063 10.7281 9.94375 10.9406C10.0125 11.075 10.125 11.2406 10.2156 11.3313C10.3 11.4156 10.4438 11.5281 10.5375 11.5781C10.6313 11.6281 10.775 11.6875 10.8625 11.7094C10.9469 11.7313 11.0625 11.75 11.1187 11.75C11.175 11.75 11.2219 11.7375 11.2219 11.7219C11.2219 11.7031 11.1969 11.5875 11.1687 11.4625C11.1375 11.3125 11.1187 11.0875 11.1187 10.8C11.1156 10.4812 11.1312 10.3062 11.1687 10.1656C11.2219 9.97187 11.2219 9.96875 11.15 9.925C11.1125 9.9 11.0031 9.84688 10.9094 9.8125C10.8 9.76875 10.6438 9.74063 10.4875 9.73438C10.35 9.72812 10.1594 9.74062 10.0656 9.75937C9.9 9.79688 9.89375 9.80313 9.85312 9.94063ZM1.54062 12.8406C1.46875 12.8781 1.34687 12.9688 1.275 13.0406C1.2 13.1125 1.1 13.2594 1.05 13.3625C0.96875 13.5312 0.959375 13.5844 0.95 13.9312L0.940625 14.3156L14.4563 14.3C14.4531 13.6 14.4469 13.5687 14.3531 13.3687C14.2969 13.2531 14.1937 13.1 14.1187 13.0281C14.0469 12.9563 13.9094 12.8625 13.8156 12.8156L13.6438 12.7375C4.4875 12.7281 1.79375 12.7375 1.75312 12.75C1.70937 12.7625 1.6125 12.8031 1.54062 12.8406ZM3.53437 5.78438H4.47188V7.69063H3.53437V5.78438Z" fill="#ACB9CB"/>
<g clip-path="url(#clip1_556_4074)">
<path fill-rule="evenodd" clip-rule="evenodd" d="M91.5002 -238.6C98.6002 -238.3 107.6 -237.5 111.5 -236.6C115.4 -235.8 121.9 -234 126 -232.6C130.1 -231.1 136 -228.5 139 -226.7C142 -225 147.6 -220.3 158.5 -209.3L161.5 -213.1C163.1 -215.2 167 -218.9 170 -221.3C173 -223.8 178.2 -227.1 181.5 -228.8C184.8 -230.4 190.4 -232.7 194 -233.8C197.6 -234.9 203.2 -236.4 206.5 -237.1C209.8 -237.8 219.3 -238.4 227.5 -238.5C240.9 -238.5 242.9 -238.3 246 -236.4C247.9 -235.3 250.5 -232.8 251.8 -230.9C253 -229 254.3 -225.1 254.6 -222C255 -219 255 -211.8 254.7 -206C254.4 -200.2 253.6 -193 253 -190C252.3 -187 250.9 -181.6 249.9 -178C248.8 -174.4 246.6 -168.8 244.9 -165.5C243.3 -162.2 240.2 -157.2 237.9 -154.5C235.7 -151.8 231.5 -147.6 228.7 -145.2C225.8 -142.8 219.9 -139.1 215.5 -136.9C211.1 -134.8 203.9 -132.1 199.5 -131C195.1 -129.9 187.7 -128.6 174.5 -127.5L174 -85.0002L190.5 -93.5002C203.1 -100 207.9 -102 211 -102C213.2 -102 216.2 -101.4 217.7 -100.6C219.3 -99.8002 221.5 -98.1003 222.7 -96.8002C223.8 -95.6003 225.3 -92.7002 225.9 -90.5002C226.6 -87.8002 227 -67.9002 227 24.9998H242C254.7 24.9998 257.6 25.2997 260.8 26.8997C262.9 27.9998 265.4 30.3997 268.9 36.4998L269 141C269 240.9 268.9 245.7 267.2 249C266.1 250.9 263.8 253.5 258.5 257.1H-232.5L-235.9 254.8C-237.8 253.5 -240.1 250.9 -241.2 249C-242.9 245.7 -243 240.9 -242.9 36.4998L-240.7 32.5998C-239.4 30.3997 -236.9 27.9998 -234.8 26.8997C-231.6 25.2997 -228.7 24.9998 -201 24.9998V-0.300247C-201 -14.1003 -200.5 -27.2002 -200 -29.3002C-199.4 -31.3002 -197.8 -34.3002 -196.3 -35.9002C-194.5 -37.8002 -174.2 -48.7002 -142 -65.2002C-94.2999 -89.5002 -90.0999 -91.5002 -85.2999 -91.5002C-81.6998 -91.5002 -79.2998 -90.9002 -77.3998 -89.5002C-75.9998 -88.4002 -73.7999 -86.2002 -72.5999 -84.7002C-70.4998 -81.9002 -70.4998 -81.1003 -69.9998 24.9998H-51.9998V-2.00024C-51.9998 -25.6003 -51.7999 -29.5002 -50.2999 -32.7002C-49.2999 -34.7002 -46.8998 -37.3002 -44.9998 -38.6003C-43.0999 -39.8002 -19.1998 -52.1003 8.00015 -66.0002C45.7002 -85.2002 58.6002 -91.3002 62.0002 -91.7002C65.4001 -92.0002 67.4001 -91.5002 70.4001 -89.8002C72.5002 -88.5002 75.1002 -85.9002 76.1002 -84.0002C77.9001 -80.7002 78.0002 -77.2002 78.0002 24.9998H96.0002V-6.80025C96.0002 -38.0002 96.0002 -38.6003 98.3001 -43.0002C100.5 -47.4002 101.3 -47.9002 143 -69.0002L142.5 -127.5L134 -128.2C129.3 -128.5 122.6 -129.6 119 -130.5C115.4 -131.4 110 -133 107 -134.1C104 -135.2 98.6002 -137.8 95.0002 -139.9C91.4001 -142 85.7002 -146.7 82.2002 -150.4C78.8002 -154 74.7002 -159.4 73.0002 -162.3C71.4001 -165.1 68.7002 -171.5 67.1002 -176.5C65.5002 -181.5 63.6002 -188.7 62.9001 -192.5C62.2001 -196.4 61.6002 -205.3 61.6002 -212.5C61.6002 -222.4 62.0002 -226.3 63.3001 -229C64.2001 -230.9 65.9001 -233.4 67.1002 -234.5C68.3002 -235.6 71.3001 -237.1 73.9001 -237.8C76.9001 -238.6 82.9001 -238.9 91.5002 -238.6ZM92.4001 -202.2C92.8001 -199.1 93.8002 -193.8 94.7002 -190.5C95.5002 -187.2 97.3002 -182.2 98.7002 -179.5C100 -176.7 102.8 -172.8 104.8 -170.8C106.8 -168.7 110.7 -165.9 113.5 -164.6C116.2 -163.2 121 -161.5 124 -160.7C127 -159.9 132.3 -159 135.7 -158.6L142 -158C142 -163.4 141.3 -168.3 140.5 -172.2C139.6 -176.2 137.6 -182.3 136 -185.7C134.3 -189.2 131.3 -193.7 129.2 -195.7C127.1 -197.8 122.9 -200.7 119.9 -202.1C116.9 -203.6 111.2 -205.5 107.2 -206.4C103.3 -207.3 98.1002 -208 95.9001 -208H91.7002L92.4001 -202.2ZM196.5 -202C192.7 -200.2 188.7 -197.2 185.7 -193.8C182.9 -190.8 180 -186.1 178.8 -182.9C177.7 -179.9 176 -173.3 175.1 -168.3C174.2 -163.2 173.9 -158.7 174.3 -158.3C174.7 -157.8 179.2 -158.2 184.3 -159.1C189.4 -160 196 -161.6 199 -162.8C202.1 -163.9 206.8 -166.9 209.9 -169.6C212.8 -172.3 216.4 -176.7 217.7 -179.4C219.1 -182.2 221.1 -187.8 222.1 -191.9C223.1 -196.1 224 -201.4 224 -203.7V-207.9C217.4 -207.8 212.6 -207.1 209 -206.3C205.4 -205.6 199.8 -203.6 196.5 -202ZM126.9 -26.7002C126.5 43.5998 126.4 44.5998 124.3 47.9998C123.1 49.9998 120.8 52.2997 119.1 53.2997C116.3 54.8997 112.8 54.9998 87.2002 54.9998C60.3002 54.9998 58.3002 54.8997 55.2002 52.9998C53.5002 51.8997 51.1002 49.5997 50.0002 47.7997C48.1002 44.6997 48.0002 42.7997 48.0002 -3.20024C48.0002 -40.8002 47.7002 -50.9002 46.7002 -50.9002C46.1002 -50.8002 30.4001 -43.1003 12.0002 -33.6003L-21.4998 -16.5002C-22.3998 41.8997 -22.6998 45.9998 -24.2999 48.2997C-25.1998 49.7997 -27.4998 51.8997 -29.2999 52.9998C-32.2999 54.8997 -34.2999 54.9998 -61.2999 54.9998C-86.7999 54.9998 -90.2999 54.8997 -93.0999 53.2997C-94.7999 52.2997 -97.0999 49.9998 -98.2999 47.9998C-100.5 44.5998 -100.5 43.8997 -100.8 -3.20024C-100.9 -29.5002 -101.3 -50.9002 -101.8 -50.9002C-102.2 -50.9002 -117.7 -43.1002 -136.2 -33.7002L-170 -16.5002C-170 40.7997 -170.2 43.8997 -171.9 46.9998C-172.9 48.9998 -175.2 51.5997 -177.1 52.7997C-180.3 54.9998 -181.5 55.0998 -196.3 55.0998L-212 54.9998V227H238V54.9998C210.7 54.9998 206.3 54.6998 204 53.4998C202.3 52.6998 200 50.5997 198.7 48.7997C196.5 45.5997 196.5 45.4998 196 -8.20024L195.5 -61.9002L126.9 -26.7002ZM-136.1 90.1998C-130.8 90.0998 -125.5 90.6998 -122.1 91.6998C-119 92.5998 -114.3 94.5998 -111.6 96.1998C-108.8 97.7998 -104.2 101.4 -101.3 104.3C-98.3999 107.2 -94.6999 112.1 -93.0999 115.1C-91.4998 118.1 -89.4998 123.3 -88.5999 126.6C-87.7999 129.9 -86.9998 135.1 -86.9998 138.1C-86.9998 141.1 -87.6999 146.2 -88.5999 149.4C-89.3999 152.5 -91.2999 157.5 -92.6998 160.4C-94.1998 163.2 -97.6998 168 -100.5 171C-103.3 173.9 -108 177.8 -111.1 179.5C-114.1 181.3 -119.1 183.5 -122.3 184.4C-125.5 185.4 -131.5 186.1 -135.8 186.1C-140.8 186.1 -145.5 185.5 -149.1 184.3C-152.1 183.2 -156.6 181.4 -159.1 180.1C-161.5 178.8 -166.3 175.1 -169.6 171.7C-172.9 168.3 -176.8 163.1 -178.3 160.1C-179.8 157.1 -181.7 151.9 -182.5 148.6C-183.4 145.3 -184.1 140.6 -184.1 138.1C-184.1 135.6 -183.4 130.9 -182.5 127.6C-181.7 124.3 -179.9 119.4 -178.6 116.6C-177.3 113.9 -173.8 109 -170.9 105.7C-168 102.5 -163.1 98.3997 -160.1 96.5998C-157 94.8997 -152.3 92.6997 -149.6 91.8997C-146.8 90.9998 -140.7 90.2998 -136.1 90.1998ZM-149.9 127.7C-152.1 130.8 -152.6 132.5 -152.6 138.1C-152.6 143.8 -152.2 145.3 -149.8 148.4C-148.3 150.5 -145.8 152.7 -144.3 153.5C-142.8 154.3 -140 155.2 -138.1 155.6C-135.9 156 -133 155.8 -130.6 155C-128.4 154.3 -125.2 152.5 -123.6 151.2C-122 149.8 -120.1 147.1 -119.4 145.4C-118.7 143.6 -118.1 140.1 -118.1 137.6C-118.1 135.1 -118.7 131.9 -119.5 130.4C-120.2 128.8 -121.9 126.6 -123.2 125.4C-124.5 124.2 -127.2 122.5 -129.3 121.7C-131.4 120.8 -134.3 120.1 -135.8 120.1C-137.3 120.1 -140.5 121 -142.9 122C-145.6 123.2 -148.3 125.4 -149.9 127.7ZM12.4001 90.1998C18.8001 90.0998 23.1002 90.5998 26.9001 91.8997C30.0002 92.9998 34.0002 94.5998 35.9001 95.5998C37.9001 96.5998 41.6001 99.1998 44.3001 101.5C47.0002 103.8 50.8001 108.1 52.9001 111.1C54.9001 114.1 57.6002 119.8 58.9001 123.6C60.9001 129.6 61.1002 132 60.7002 140.1C60.4002 146.3 59.5002 151.5 58.2002 155.1C57.0002 158.1 54.1002 163.3 51.6002 166.6C49.2002 169.9 44.5002 174.5 41.3001 176.9C38.1001 179.3 33.0002 182.2 29.9001 183.4C25.4001 185.2 22.4001 185.6 12.9001 185.6C3.50015 185.6 0.500153 185.2 -4.09985 183.4C-7.09985 182.2 -12.1998 179.3 -15.3998 176.9C-18.5998 174.5 -23.2999 169.9 -25.6998 166.6C-28.1998 163.3 -31.0999 158.1 -32.2999 155.1C-33.5999 151.5 -34.4998 146.3 -34.7999 140.1C-35.2999 132 -34.9998 129.6 -32.9998 123.6C-31.6998 119.8 -28.9998 114.1 -26.9998 111.1C-24.9998 108.1 -21.0998 103.8 -18.3998 101.5C-15.6998 99.1998 -11.9998 96.5998 -10.0999 95.5998C-8.09985 94.5998 -4.29985 92.9998 -1.59985 91.9998C1.70015 90.8997 6.60014 90.1998 12.4001 90.1998ZM-1.69984 128.4C-3.99985 131.7 -4.59985 133.5 -4.59985 138.1C-4.59985 142.5 -3.99985 144.5 -2.09985 147.4C-0.69986 149.3 2.00015 152 3.90015 153.3C6.50015 155 8.70015 155.6 12.9001 155.6C17.3001 155.6 19.4002 155.1 22.2002 153.1C24.2002 151.7 26.8002 149.1 28.1002 147.2C29.9001 144.6 30.4001 142.4 30.4001 138.1C30.4001 133.7 29.9001 131.6 27.9001 128.5C26.4001 126.2 23.5002 123.7 20.9001 122.4C18.4001 121.1 14.9001 120.1 12.9001 120.1C11.0002 120.1 7.60016 121.1 5.30016 122.3C3.00015 123.4 -0.199844 126.2 -1.69984 128.4ZM160.7 90.1998C165.6 90.0998 171.3 90.7997 174.7 91.7997C177.9 92.6997 182.9 94.8997 185.9 96.5998C189 98.3997 193.8 102.5 196.8 105.7C199.7 109 203.2 113.9 204.5 116.6C205.8 119.4 207.6 124.3 208.4 127.6C209.3 130.9 210 135.6 210 138.1C210 140.6 209.3 145.3 208.4 148.6C207.6 151.9 205.7 157.1 204.2 160.1C202.7 163.1 198.8 168.3 195.5 171.7C192.1 175.1 187.4 178.8 184.9 180.1C182.5 181.4 178 183.2 174.9 184.3C171.4 185.5 166.7 186.1 161.7 186.1C157.4 186.1 151.4 185.4 148.2 184.4C145 183.5 140 181.3 136.9 179.5C133.9 177.8 129.2 173.9 126.4 171C123.6 168 120.1 163.2 118.6 160.4C117.1 157.5 115.3 152.5 114.4 149.4C113.6 146.2 112.9 141.1 112.9 138.1C112.9 135.1 113.6 129.9 114.5 126.6C115.4 123.3 117.4 118.1 119 115.1C120.6 112.1 124.3 107.2 127.2 104.3C130.1 101.4 134.5 97.8997 136.9 96.3997C139.4 94.9998 143.9 92.9998 146.9 91.9998C150.4 90.8997 155.6 90.1998 160.7 90.1998ZM149.1 125.4C147.8 126.6 146.1 128.8 145.3 130.4C144.6 131.9 143.9 135.1 143.9 137.6C143.9 140.1 144.5 143.6 145.3 145.4C146 147.1 147.9 149.8 149.5 151.2C151.1 152.5 154.2 154.3 156.4 155C158.9 155.8 161.8 156 163.9 155.6C165.9 155.2 168.7 154.3 170.2 153.5C171.7 152.7 174.2 150.5 175.7 148.4C178.1 145.3 178.4 143.8 178.4 138.1C178.4 132.2 178.1 131 175.4 127.6C173.8 125.5 170.6 122.9 168.4 121.9C166.2 121 163.1 120.2 161.4 120.2C159.8 120.2 156.9 120.9 154.9 121.7C153 122.5 150.4 124.2 149.1 125.4Z" fill="black"/>
</g>
</g>
<defs>
<clipPath id="clip0_556_4074">
<rect width="16" height="16" fill="white"/>
</clipPath>
<clipPath id="clip1_556_4074">
<rect width="512" height="512" fill="white" transform="translate(-243 -247)"/>
</clipPath>
</defs>
</svg>
