<svg width="16" height="16" viewBox="0 0 16 16" fill="none" xmlns="http://www.w3.org/2000/svg">
<g clip-path="url(#clip0_556_4091)">
<path fill-rule="evenodd" clip-rule="evenodd" d="M8.90004 0.00332031C9.24379 0.000195312 9.49379 0.0158203 9.67817 0.0501953C9.83129 0.0783203 10.0875 0.13457 10.25 0.17832C10.4125 0.218945 10.675 0.30332 10.8282 0.362695C10.9813 0.425195 11.2157 0.531445 11.3438 0.600195C11.4719 0.67207 11.7032 0.812695 11.8563 0.918945C12.0125 1.0252 12.2907 1.25645 12.4782 1.4377C12.6688 1.61895 12.9313 1.9127 13.0657 2.09395C13.2032 2.2752 13.3938 2.58457 13.4969 2.78145C13.5969 2.97832 13.7157 3.24082 13.7625 3.35957C13.8063 3.47832 13.8844 3.74082 13.9344 3.9377C13.9844 4.13457 14.0438 4.46895 14.1094 5.05957L14.2188 5.10957C14.2782 5.14082 14.425 5.22832 14.5438 5.30957C14.6625 5.3877 14.85 5.5377 14.9625 5.64082C15.075 5.74395 15.25 5.94082 15.3532 6.07832C15.4532 6.21582 15.6 6.45645 15.675 6.60957C15.75 6.7627 15.85 7.03145 15.8938 7.20332C15.95 7.41582 15.9813 7.63145 15.9938 7.8752C16.0032 8.13145 15.9938 8.31582 15.9563 8.51582C15.9282 8.66895 15.875 8.89395 15.8344 9.01582C15.7907 9.1377 15.7032 9.34707 15.6344 9.48457C15.5625 9.62207 15.4407 9.82207 15.3625 9.93145C15.2844 10.0377 15.1313 10.2127 15.0219 10.3221C14.9125 10.4283 14.7125 10.5939 14.575 10.6877C14.4407 10.7814 14.2094 10.9127 14.0625 10.9783C13.9157 11.0471 13.6625 11.1377 13.5 11.1814C13.2188 11.2564 13.1532 11.2596 11.2813 11.2814V14.1252H12.2969L12.3719 13.9627C12.4157 13.8658 12.5282 13.7158 12.6375 13.6064C12.7438 13.5033 12.8969 13.3846 12.9844 13.3439C13.0688 13.3033 13.2094 13.2502 13.2969 13.2283C13.3813 13.2064 13.5188 13.1877 13.6 13.1877C13.6844 13.1877 13.825 13.2033 13.9125 13.2221C14.0032 13.2439 14.1563 13.2939 14.25 13.3377C14.35 13.3846 14.5032 13.5002 14.6094 13.6096C14.7219 13.7189 14.8344 13.8721 14.8844 13.9783C14.9313 14.0752 14.9844 14.2502 15.0063 14.3689C15.0344 14.5314 15.0344 14.6283 15.0063 14.8064C14.9844 14.9314 14.925 15.1158 14.8688 15.2283C14.8157 15.3346 14.7125 15.4846 14.6407 15.5627C14.5688 15.6408 14.425 15.7471 14.325 15.8033C14.2219 15.8564 14.0782 15.9221 14 15.9502C13.9219 15.9783 13.7563 16.0002 13.625 16.0002C13.4657 16.0002 13.3313 15.9783 13.2032 15.9314C13.1 15.8971 12.9438 15.8221 12.8594 15.7658C12.7719 15.7127 12.6438 15.5971 12.5688 15.5127C12.4938 15.4283 12.4032 15.2939 12.2969 15.0627H10.3438V11.2814H8.46879V13.2658L8.63129 13.3408C8.72817 13.3846 8.87504 13.4971 8.98442 13.6064C9.08754 13.7127 9.20629 13.8689 9.24692 13.9533C9.29067 14.0408 9.34067 14.1814 9.36567 14.2658C9.38754 14.3533 9.40629 14.4877 9.40629 14.5721C9.40629 14.6533 9.39067 14.7939 9.37192 14.8846C9.35317 14.9721 9.29379 15.1314 9.24067 15.2346C9.18754 15.3377 9.08754 15.4846 9.01567 15.5627C8.94379 15.6408 8.80004 15.7471 8.70004 15.8033C8.59692 15.8564 8.45317 15.9221 8.37504 15.9502C8.29692 15.9783 8.13129 16.0002 8.00004 16.0002C7.85004 16.0002 7.70942 15.9814 7.60942 15.9439C7.52192 15.9127 7.39692 15.8596 7.32817 15.8283C7.25942 15.7939 7.11879 15.6846 7.01567 15.5783C6.90629 15.4721 6.79067 15.3189 6.74379 15.2189C6.70004 15.1252 6.65004 14.9721 6.62817 14.8846C6.60942 14.7939 6.59379 14.6533 6.59379 14.5721C6.59379 14.4877 6.61254 14.3533 6.63442 14.2658C6.65629 14.1814 6.70942 14.0408 6.75004 13.9533C6.79067 13.8689 6.90942 13.7127 7.01254 13.6064C7.12192 13.4971 7.27192 13.3846 7.53129 13.2658V11.2814H5.65629V15.0627H3.70317L3.61567 15.2346C3.56879 15.3283 3.47817 15.4658 3.41254 15.5377C3.35004 15.6096 3.22504 15.7127 3.14067 15.7658C3.05317 15.8221 2.90004 15.8971 2.79692 15.9314C2.66879 15.9783 2.53442 16.0002 2.37504 16.0002C2.22504 16.0002 2.08442 15.9783 1.98442 15.9439C1.89692 15.9127 1.77192 15.8596 1.70317 15.8283C1.63442 15.7939 1.49379 15.6846 1.39067 15.5783C1.27817 15.4689 1.16567 15.3158 1.11567 15.2127C1.06879 15.1127 1.01567 14.9377 0.993794 14.8221C0.965669 14.6564 0.965669 14.5596 0.993794 14.3846C1.01567 14.2596 1.06879 14.0752 1.11567 13.9783C1.16567 13.8689 1.27504 13.7221 1.38754 13.6096C1.49692 13.5002 1.65317 13.3846 1.75004 13.3377C1.84379 13.2939 1.99692 13.2439 2.08442 13.2221C2.17504 13.2033 2.31567 13.1877 2.39692 13.1877C2.48129 13.1877 2.61567 13.2064 2.70317 13.2283C2.78754 13.2533 2.92817 13.3033 3.01567 13.3471C3.10004 13.3877 3.25629 13.5064 3.35942 13.6096C3.46567 13.7127 3.58442 13.8721 3.70317 14.1252H4.71879V11.2814L3.75629 11.2721C2.83129 11.2596 2.78442 11.2564 2.48442 11.1783C2.31254 11.1314 2.03129 11.0252 1.85942 10.9408C1.68754 10.8564 1.44692 10.7127 1.32817 10.6221C1.20629 10.5283 1.02504 10.3689 0.925044 10.2658C0.825044 10.1627 0.681294 9.99395 0.609419 9.89082C0.534419 9.7877 0.418794 9.59082 0.350044 9.45332C0.281294 9.31582 0.190669 9.09082 0.146919 8.95332C0.106294 8.81582 0.0531689 8.60645 0.0312939 8.48457C0.0062939 8.34707 -0.0030811 8.12832 0.0094189 7.89082C0.0187939 7.63457 0.0500439 7.41895 0.106294 7.20332C0.153169 7.03145 0.250044 6.7627 0.325044 6.60957C0.400044 6.45645 0.546919 6.21582 0.646919 6.07832C0.750044 5.94082 0.925044 5.74395 1.03754 5.64082C1.15004 5.5377 1.33754 5.3877 1.45629 5.30957C1.57504 5.22832 1.72192 5.14082 1.78129 5.10957C1.88754 5.0627 1.89379 5.04707 1.94379 4.77832C1.97504 4.6252 2.03442 4.4127 2.07817 4.30645C2.12192 4.19707 2.21254 4.0252 2.28129 3.92207C2.35004 3.81895 2.49379 3.64395 2.60004 3.5377C2.70942 3.42832 2.89379 3.27832 3.01567 3.20332C3.13442 3.12832 3.30317 3.04082 3.39067 3.00645C3.47504 2.97207 3.65629 2.92207 3.78754 2.89395C3.92192 2.86582 4.10004 2.84395 4.34379 2.84395L4.48129 2.60332C4.55629 2.46895 4.70317 2.24395 4.80942 2.10332C4.91254 1.95957 5.10317 1.7377 5.22504 1.60645C5.35004 1.4752 5.55004 1.2877 5.67192 1.1877C5.79067 1.09082 6.00942 0.931445 6.15629 0.83457C6.30317 0.74082 6.56879 0.59082 6.75004 0.50332C6.93129 0.418945 7.19067 0.30957 7.32817 0.262695C7.46567 0.218945 7.75942 0.14082 7.98442 0.0939453C8.32504 0.0220703 8.47192 0.00644531 8.89692 0.00332031H8.90004ZM7.92504 1.06582C7.78754 1.10332 7.59067 1.1627 7.48754 1.20332C7.38442 1.24082 7.19379 1.3252 7.06567 1.39082C6.93754 1.45645 6.74067 1.56895 6.62817 1.64395C6.51567 1.71582 6.32192 1.86582 6.19379 1.9752C6.06567 2.08457 5.87817 2.27207 5.77504 2.39082C5.67504 2.50957 5.51567 2.72207 5.42504 2.85957C5.33129 2.99707 5.18442 3.27207 5.09379 3.46895C5.00317 3.66582 4.92192 3.8377 4.91254 3.8502C4.90317 3.86582 4.75317 3.8502 4.58129 3.82207C4.31567 3.7752 4.23442 3.7752 4.04067 3.80645C3.91879 3.82832 3.73442 3.88145 3.63442 3.92832C3.53442 3.97832 3.37504 4.09707 3.26567 4.20332C3.15629 4.3127 3.04379 4.4627 2.99692 4.5627C2.95317 4.65645 2.90004 4.8127 2.88129 4.90645C2.85629 5.01582 2.85317 5.18457 2.86567 5.3752L2.88754 5.67207C2.43442 5.84082 2.21879 5.94082 2.11879 6.0002C2.01567 6.05957 1.85942 6.17207 1.76879 6.2502C1.67817 6.32832 1.53442 6.4752 1.45004 6.57832C1.36567 6.68145 1.24692 6.87207 1.18129 7.0002C1.11879 7.12832 1.04379 7.31895 1.01879 7.42207C0.990669 7.5252 0.959419 7.7377 0.950044 7.89082C0.937544 8.09395 0.946919 8.24707 0.984419 8.4377C1.01879 8.6127 1.09067 8.8127 1.19692 9.03145C1.33442 9.31582 1.39067 9.39395 1.62504 9.6252C1.77192 9.77207 1.97192 9.9377 2.06567 9.99082C2.15942 10.0471 2.32192 10.1283 2.42504 10.1689C2.52817 10.2127 2.72192 10.2689 2.85317 10.2939C3.06879 10.3377 3.65942 10.3439 8.00317 10.3439C12.3469 10.3439 12.9375 10.3377 13.15 10.2939C13.2844 10.2689 13.4782 10.2127 13.5813 10.1689C13.6844 10.1283 13.8469 10.0471 13.9407 9.99082C14.0344 9.9377 14.2313 9.77207 14.3782 9.6252C14.5813 9.4252 14.6782 9.29707 14.775 9.10957C14.8438 8.97207 14.9344 8.7627 14.9688 8.64082C15.0063 8.51895 15.0438 8.30332 15.0563 8.15645C15.0657 7.99707 15.0594 7.79707 15.0344 7.65645C15.0125 7.52832 14.9594 7.32207 14.9157 7.20332C14.8688 7.08457 14.7688 6.88457 14.6875 6.76582C14.6094 6.64707 14.4688 6.47207 14.375 6.37832C14.2813 6.28457 14.1282 6.15645 14.0344 6.09395C13.9407 6.02832 13.8063 5.9502 13.7375 5.91582C13.6688 5.88145 13.5063 5.81582 13.3782 5.76895L13.1438 5.68457C13.1407 4.81582 13.125 4.59082 13.0844 4.39082C13.0532 4.2377 12.9875 3.98145 12.9344 3.82832C12.8813 3.67207 12.7844 3.43457 12.7125 3.29707C12.6438 3.15957 12.5532 2.99082 12.5063 2.92207C12.4625 2.85332 12.3407 2.68457 12.2344 2.54707C12.1313 2.40957 11.9344 2.19395 11.7969 2.06895C11.6625 1.94395 11.4532 1.77207 11.3313 1.6877C11.2094 1.60645 10.9844 1.4752 10.8313 1.39707C10.675 1.31895 10.4219 1.2127 10.2688 1.15957C10.1125 1.10957 9.87504 1.04395 9.73754 1.01582C9.60004 0.987695 9.29067 0.95957 9.05004 0.95332C8.80942 0.94707 8.51567 0.956445 8.39379 0.97207C8.27192 0.987695 8.06254 1.03145 7.92504 1.06582ZM1.96567 14.3814C1.93754 14.4377 1.91254 14.5314 1.90942 14.5846C1.90942 14.6408 1.93754 14.7408 1.96879 14.8033C2.00317 14.8721 2.07817 14.9502 2.14692 14.9908C2.21567 15.0283 2.31567 15.0596 2.36879 15.0627C2.42504 15.0627 2.52817 15.0346 2.59692 15.0002C2.68025 14.9585 2.74275 14.896 2.78442 14.8127C2.81879 14.7439 2.84692 14.6439 2.84692 14.5939C2.84692 14.5408 2.81879 14.4439 2.78442 14.3752C2.74275 14.2919 2.68025 14.2294 2.59692 14.1877C2.52817 14.1533 2.42504 14.1252 2.36879 14.1252C2.31567 14.1252 2.21254 14.1596 2.14379 14.2033C2.07504 14.2439 1.99379 14.3252 1.96567 14.3814ZM7.59067 14.3814C7.56254 14.4377 7.53754 14.5314 7.53442 14.5846C7.53442 14.6408 7.56254 14.7408 7.59379 14.8033C7.62817 14.8721 7.70317 14.9502 7.77192 14.9908C7.84067 15.0283 7.94067 15.0596 7.99379 15.0627C8.05004 15.0627 8.15317 15.0346 8.22192 15.0002C8.30525 14.9585 8.36775 14.896 8.40942 14.8127C8.44379 14.7439 8.47192 14.6439 8.47192 14.5939C8.47192 14.5408 8.44379 14.4439 8.40942 14.3752C8.36775 14.2919 8.30525 14.2294 8.22192 14.1877C8.15317 14.1533 8.05004 14.1252 7.99379 14.1252C7.94067 14.1252 7.83754 14.1596 7.76879 14.2033C7.70004 14.2439 7.61879 14.3252 7.59067 14.3814ZM13.2157 14.3814C13.1875 14.4377 13.1625 14.5314 13.1594 14.5846C13.1594 14.6408 13.1875 14.7408 13.2188 14.8033C13.2532 14.8721 13.3282 14.9502 13.3969 14.9908C13.4657 15.0283 13.5657 15.0596 13.6188 15.0627C13.675 15.0627 13.7782 15.0346 13.8469 15.0002C13.9303 14.9585 13.9928 14.896 14.0344 14.8127C14.0688 14.7439 14.0969 14.6439 14.0969 14.5939C14.0969 14.5408 14.0688 14.4439 14.0344 14.3752C13.9928 14.2919 13.9303 14.2294 13.8469 14.1877C13.7782 14.1533 13.675 14.1252 13.6188 14.1252C13.5657 14.1252 13.4625 14.1596 13.3938 14.2033C13.325 14.2439 13.2438 14.3252 13.2157 14.3814ZM8.09692 4.70645C8.17504 4.7127 8.35629 4.7252 8.50317 4.73457C8.65004 4.74395 8.90317 4.77832 9.06567 4.8127C9.22817 4.84707 9.50942 4.9252 9.69067 4.9877C9.87192 5.0502 10.1469 5.1627 10.3 5.24082C10.4532 5.31895 10.7219 5.4752 10.8938 5.5877C11.0657 5.70332 11.3563 5.94395 11.5469 6.1252C11.7313 6.30645 11.9875 6.5877 12.1094 6.7502C12.2344 6.9127 12.35 7.0752 12.3688 7.10957C12.4 7.16582 12.3782 7.1877 12.1188 7.34707C11.9594 7.44395 11.7782 7.55332 11.5969 7.65645L11.4188 7.4002C11.3219 7.25645 11.1157 7.0127 10.9594 6.85957C10.8032 6.70332 10.5469 6.49082 10.3938 6.3877C10.2407 6.28145 10.0157 6.14707 9.89379 6.08457C9.77192 6.0252 9.55629 5.93457 9.40942 5.88145C9.26254 5.83145 8.99067 5.75645 8.80004 5.72207C8.54692 5.67207 8.33754 5.65332 8.00317 5.65332C7.67817 5.65332 7.45942 5.67207 7.22192 5.71582C7.04067 5.75332 6.79379 5.8127 6.67504 5.85332C6.55317 5.89395 6.34379 5.98145 6.20629 6.04395C6.06879 6.10645 5.81567 6.25332 5.64379 6.36895C5.47192 6.48457 5.20942 6.69707 5.06254 6.84395C4.91567 6.99082 4.72192 7.20957 4.63442 7.32832C4.54692 7.4502 4.45629 7.57207 4.43442 7.60332C4.39692 7.65332 4.36254 7.6377 4.00317 7.41895C3.78754 7.2877 3.60942 7.17832 3.60317 7.1752C3.60004 7.1752 3.68442 7.04707 3.79067 6.89082C3.90004 6.73145 4.16254 6.43457 4.39379 6.20332C4.66254 5.93145 4.90004 5.72832 5.09692 5.59707C5.25942 5.4877 5.53442 5.32832 5.70629 5.24082C5.87817 5.15645 6.18129 5.03145 6.37817 4.96895C6.57504 4.90332 6.86567 4.8252 7.01879 4.79707C7.17192 4.76895 7.44692 4.73457 7.62817 4.71895C7.80942 4.70645 8.01879 4.7002 8.09692 4.70645ZM8.06567 6.58457C8.10942 6.5877 8.25004 6.59707 8.37817 6.60645C8.50629 6.61582 8.74067 6.65957 8.89379 6.70332C9.04692 6.7502 9.27192 6.83145 9.39379 6.8877C9.51567 6.94395 9.70317 7.0502 9.81567 7.1252C9.92817 7.2002 10.1282 7.36895 10.2657 7.49707C10.4 7.62832 10.5719 7.81895 10.6469 7.92207C10.7219 8.0252 10.7813 8.1252 10.7813 8.14082C10.7813 8.15957 10.6188 8.27207 10.4188 8.39082C10.2188 8.5127 10.0407 8.6127 10.0219 8.61582C10.0032 8.62207 9.93754 8.55332 9.87817 8.4627C9.81879 8.3752 9.68129 8.2252 9.57817 8.12832C9.47192 8.03145 9.29692 7.9002 9.18754 7.83457C9.07817 7.76895 8.87504 7.68145 8.73754 7.6377C8.60004 7.59395 8.37504 7.5502 8.23754 7.53457C8.10004 7.52207 7.87817 7.5252 7.74379 7.5377C7.61254 7.5502 7.39379 7.6002 7.25942 7.64395C7.12817 7.6877 6.92817 7.7752 6.81567 7.84082C6.70317 7.90645 6.52817 8.0377 6.42504 8.13145C6.32192 8.2252 6.18754 8.3752 6.12817 8.4627C6.06879 8.55332 6.00317 8.62207 5.98442 8.61582C5.96879 8.6127 5.78754 8.5127 5.58754 8.39082C5.38754 8.27207 5.22504 8.15957 5.22504 8.14082C5.22504 8.1252 5.28442 8.0252 5.35942 7.92207C5.43442 7.81895 5.59379 7.6377 5.70942 7.52207C5.82817 7.40332 6.03129 7.23457 6.15942 7.14707C6.28754 7.05957 6.49067 6.94082 6.61254 6.8877C6.73129 6.83145 6.95942 6.7502 7.11254 6.70332C7.26567 6.65957 7.52817 6.6127 7.69067 6.6002C7.85317 6.5877 8.02192 6.58145 8.06567 6.58457ZM8.12817 8.4627C8.20629 8.46895 8.35942 8.50332 8.47192 8.54082C8.58442 8.57832 8.75317 8.66582 8.84692 8.7377C8.94067 8.80957 9.06254 8.9252 9.11254 8.99707C9.16254 9.06895 9.20004 9.13145 9.19067 9.1377C9.18129 9.14395 9.00942 9.2502 8.80629 9.37207C8.60629 9.49395 8.43129 9.59395 8.41567 9.59395C8.40317 9.59395 8.35317 9.55332 8.30629 9.50645C8.22817 9.43145 8.19379 9.42207 8.00317 9.42207C7.81254 9.42207 7.77817 9.43145 7.70004 9.50645C7.65317 9.55332 7.60317 9.59395 7.58754 9.59395C7.57504 9.59395 7.40004 9.49395 7.19692 9.37207C6.99692 9.2502 6.82504 9.14395 6.81567 9.1377C6.80629 9.13145 6.84067 9.06895 6.89379 8.99707C6.94379 8.9252 7.05629 8.81582 7.14379 8.74707C7.22817 8.68145 7.37817 8.59707 7.47192 8.55957C7.56567 8.52207 7.72192 8.48145 7.81567 8.47207C7.90942 8.45957 8.05004 8.45645 8.12817 8.4627Z" fill="#ACB9CB"/>
<g clip-path="url(#clip1_556_4091)">
<path fill-rule="evenodd" clip-rule="evenodd" d="M-10 -241H20V-177.5L25.2 -175C28.1 -173.7 33.2 -169.8 36.5 -166.5C39.8 -163.2 43.7 -158.1 47.5 -150H231V-120H212.5C202.3 -120 194 -119.8 194 -119.5C194 -119.2 209.1 -82.8 227.5 -38.5C258.3 35.6 261 42.5 261 47.8C261 50.9 260.1 57.1 259.1 61.5C258 65.9 256 72 254.6 75C253.3 78 250.7 82.9 248.8 85.7C247 88.6 242.6 93.9 239 97.6C235.4 101.2 229.4 106.1 225.5 108.5C221.6 110.9 216.2 113.7 213.5 114.8C210.7 115.9 205 117.5 200.7 118.4C195 119.6 187.3 120 171 120C154.8 120 147 119.6 141.2 118.4C137 117.5 130.8 115.7 127.5 114.3C124.2 112.9 119 110.2 116 108.3C113 106.4 107.6 102 104.1 98.7C100.6 95.3 95.8 89.6 93.5 86C91.2 82.4 88.1 76.8 86.7 73.5C85.3 70.2 83.5 64 82.6 59.8C81.7 55.5 81 49.8 81 47C81 42.7 85.7 30.7 114.5 -38.5C132.9 -82.8 148 -119.2 148 -119.5C148 -119.8 125.4 -120 47.5 -120L45 -114.8C43.7 -111.9 39.8 -106.8 36.5 -103.5C33.2 -100.2 28.1 -96.3 20 -92.5V123L23.7 123.6C25.8 123.9 30.2 125.3 33.5 126.7C36.8 128.1 42 130.8 45 132.7C48 134.6 53.6 139.2 57.3 142.8C61.1 146.5 66.1 152.6 68.5 156.5C70.9 160.4 74.2 167.3 75.7 172C77.3 176.7 78.8 180.9 79.2 181.5C79.5 182.1 81.3 182.8 83.1 183.2C85 183.6 89.4 185.2 93 186.6C96.6 188.1 102 190.8 105 192.7C108 194.6 113.1 198.7 116.3 201.8C119.5 205 123.6 209.5 125.5 212C127.3 214.5 130.3 219.4 132.1 223C133.9 226.6 136.2 232.4 137.2 236C138.5 240.3 139.4 247.4 140.5 271H-130.5L-129.8 256.8C-129.4 247.1 -128.5 240.4 -127.2 236C-126.1 232.4 -124.4 227.7 -123.5 225.5C-122.5 223.3 -120 218.8 -118 215.5C-115.9 212.2 -110.9 206.3 -106.8 202.5C-102.8 198.6 -96.6 193.7 -93 191.6C-89.4 189.5 -82.7 186.5 -78 184.9C-73.3 183.3 -69.4 181.9 -69.3 181.7C-69.1 181.6 -67.6 177.4 -65.9 172.5C-64.3 167.6 -60.9 160.4 -58.5 156.5C-56.1 152.6 -51.1 146.5 -47.3 142.8C-43.6 139.2 -38 134.6 -35 132.7C-32 130.8 -27.5 128.4 -25 127.3C-22.5 126.2 -18.1 124.7 -10 122.5V-92.5L-15.2 -95C-18.1 -96.3 -23.2 -100.2 -26.5 -103.5C-29.8 -106.8 -33.7 -111.9 -37.5 -120H-87.8C-115.4 -120 -138 -119.8 -138 -119.5C-138 -119.2 -122.9 -82.7 -70.8 42.5L-71.3 50C-71.6 54.1 -72.5 60.2 -73.4 63.5C-74.2 66.8 -76 72 -77.4 75C-78.7 78 -81.3 82.9 -83.2 85.7C-85 88.6 -89.4 93.9 -93 97.6C-96.6 101.2 -102.7 106.1 -106.5 108.5C-110.3 110.9 -115.8 113.7 -118.5 114.8C-121.3 115.9 -127 117.5 -131.3 118.4C-137 119.6 -144.7 120 -161 120C-177.2 120 -185 119.6 -190.8 118.4C-195 117.5 -201.2 115.7 -204.5 114.3C-207.8 112.9 -213 110.2 -216 108.3C-219 106.4 -224.4 102 -227.9 98.7C-231.4 95.3 -236.1 89.6 -238.5 86C-240.8 82.4 -243.7 77.3 -244.9 74.5C-246.1 71.8 -248 66 -249 61.8C-250.1 57.5 -251 51.3 -251 48C-251 42.4 -248.8 36.8 -217.5 -38.5C-199.1 -82.8 -184 -119.2 -184 -119.5C-184 -119.8 -192.3 -120 -221 -120V-150H-37.5L-35 -155.2C-33.7 -158.1 -29.8 -163.2 -26.5 -166.5C-23.2 -169.8 -18.1 -173.7 -10 -177.5V-241ZM-8.2 -141.8C-9.09999 -140 -9.89999 -137 -9.89999 -135.3C-10 -133.5 -9.10001 -130.3 -8.10001 -128.3C-7 -126.1 -4.59999 -123.6 -2.39999 -122.3C-0.199997 -121.1 3 -120.1 4.8 -120C6.5 -120 9.69998 -120.9 11.8 -121.9C13.9 -123 16.5 -125.4 17.7 -127.6C18.9 -129.8 20 -133 20 -134.8C20 -136.5 19.1 -139.8 18 -142C16.6667 -144.667 14.6667 -146.667 12 -148C9.79999 -149.1 6.5 -150 4.8 -150C3 -150 -0.300003 -148.9 -2.5 -147.5C-4.7 -146.2 -7.3 -143.6 -8.2 -141.8ZM-212.5 28.3C-213 29.9 -210 30 -161 30C-111.9 30 -109 29.9 -109.5 28.3C-109.8 27.3 -121.2 -0.799988 -134.9 -34.2C-148.6 -67.7 -160.2 -95 -160.7 -95C-161.2 -95 -172.9 -67.7 -186.7 -34.2C-200.6 -0.799988 -212.2 27.3 -212.5 28.3ZM119.5 28.3C119 29.9 122 30 171 30C220.1 30 223 29.9 222.5 28.3C222.2 27.3 210.8 -0.799988 197.1 -34.2C183.4 -67.7 171.8 -95 171.3 -95C170.8 -95 159.1 -67.7 145.3 -34.2C131.4 -0.799988 119.8 27.3 119.5 28.3ZM-217.4 62.3C-217 63.5 -215.3 66.8 -213.5 69.5C-211.8 72.3 -208.3 76.3 -205.8 78.5C-203.3 80.7 -199.1 83.6 -196.4 84.9C-193.7 86.3 -189.2 87.9 -186.5 88.7C-183.1 89.5 -174.7 90 -161 90C-147.3 90 -138.8 89.5 -135.5 88.7C-132.7 87.9 -128.3 86.3 -125.6 84.9C-122.9 83.6 -118.4 80.4 -115.6 77.9C-112.8 75.4 -109 70.6 -107.3 67.4C-105.5 64.2 -104 61.2 -104 60.8C-104 60.3 -129.7 60 -161.1 60H-218.2L-217.4 62.3ZM114.6 62.3C115 63.5 116.8 66.8 118.5 69.6C120.3 72.3 123.8 76.4 126.3 78.6C128.7 80.7 133 83.6 135.7 85C138.4 86.3 142.8 88 145.6 88.7C148.9 89.6 157.3 90 171.1 90C184.8 90 193.2 89.6 196.6 88.7C199.3 88 203.8 86.3 206.5 85C209.2 83.6 213.7 80.5 216.5 78C219.3 75.4 223 70.7 224.8 67.5C226.6 64.2 228 61.2 228 60.8C228.1 60.4 202.4 60.1 171 60.1H113.9L114.6 62.3ZM-15 155.7C-17.4 156.9 -21.7 159.8 -24.5 162.3C-27.2 164.7 -30.9 168.9 -32.6 171.6C-34.3 174.3 -36 177.5 -36.3 178.7L-37 181H47C46.1 177.5 44.3 174.2 42.6 171.5C40.8 168.7 37.4 164.7 34.9 162.5C32.4 160.3 28.1 157.4 25.4 156.1C22.7 154.7 18.3 153.1 15.5 152.3C12.8 151.6 7.79999 151.1 4.5 151.1C1.2 151.1 -3.5 151.7 -6 152.4C-8.39999 153.1 -12.5 154.6 -15 155.7ZM-75.4 216.1C-78.1 217.4 -82.3 220.3 -84.9 222.6C-87.4 224.8 -90.9 228.9 -92.6 231.6C-94.3 234.3 -96 237.5 -96.3 238.8L-97 241H107C106.1 237.5 104.4 234.3 102.7 231.6C101 228.9 97.3 224.7 94.5 222.3C91.8 219.8 87.5 216.9 85 215.7C82.6 214.6 78.3 213 75.5 212.3C71.7 211.3 55.9 211 4.5 211.1C-44.4 211.2 -62.6 211.5 -66 212.4C-68.4 213.1 -72.7 214.7 -75.4 216.1Z" fill="black"/>
</g>
</g>
<defs>
<clipPath id="clip0_556_4091">
<rect width="16" height="16" fill="white"/>
</clipPath>
<clipPath id="clip1_556_4091">
<rect width="512" height="512" fill="white" transform="translate(-251 -241)"/>
</clipPath>
</defs>
</svg>
