<svg width="16" height="16" viewBox="0 0 16 16" fill="none" xmlns="http://www.w3.org/2000/svg">
<g clip-path="url(#clip0_556_4071)">
<path fill-rule="evenodd" clip-rule="evenodd" d="M1.42188 0.003125L14.5469 0L14.7812 0.078125C14.9094 0.121875 15.0781 0.196875 15.1562 0.240625C15.2344 0.2875 15.3656 0.3875 15.45 0.465625C15.5344 0.54375 15.6594 0.69375 15.725 0.796875C15.7906 0.9 15.8813 1.09375 16 1.46875V6.07188C16 10.0938 15.9937 10.6969 15.9531 10.8594C15.925 10.9625 15.8594 11.1375 15.8062 11.25C15.75 11.3625 15.6312 11.5312 15.5437 11.625C15.4563 11.7188 15.3094 11.8469 15.2156 11.9062C15.1219 11.9656 14.9563 12.05 14.6406 12.1719L12.5688 12.1781C11.4313 12.1844 10.5 12.1938 10.5 12.2031C10.5 12.2125 10.5719 12.475 10.6562 12.7906C10.7437 13.1031 10.8281 13.4031 10.8438 13.4531C10.8656 13.5219 10.9062 13.5594 10.9906 13.5906C11.0563 13.6156 11.1781 13.6781 11.2656 13.7344C11.35 13.7875 11.4812 13.9031 11.5562 13.9875C11.6312 14.0719 11.725 14.2125 11.7656 14.2969C11.8031 14.3813 11.8531 14.5281 11.8719 14.6187C11.8906 14.7062 11.9062 14.9719 11.9062 15.2031C11.9062 15.55 11.8969 15.6469 11.8469 15.7437C11.8156 15.8062 11.7375 15.8906 11.5625 16H4.4375L4.325 15.9281C4.2625 15.8906 4.18437 15.8063 4.15312 15.7406C4.10312 15.6438 4.09375 15.5531 4.09375 15.1812C4.09375 14.9344 4.10938 14.6719 4.12813 14.5938C4.14688 14.5156 4.19375 14.3813 4.23438 14.2969C4.275 14.2094 4.36875 14.0719 4.44375 13.9875C4.51875 13.9031 4.64687 13.7875 4.73438 13.7344C4.81875 13.6781 4.94375 13.6156 5.00938 13.5906C5.09375 13.5594 5.13438 13.5219 5.15625 13.4531C5.17188 13.4031 5.25625 13.1031 5.34375 12.7875C5.42812 12.475 5.5 12.2125 5.5 12.2031C5.5 12.1938 4.56875 12.1844 3.42812 12.1781C1.3625 12.1719 1.35938 12.1719 1.17188 12.1C1.06875 12.0594 0.921875 11.9906 0.84375 11.9469C0.765625 11.9 0.634375 11.8 0.55 11.7219C0.465625 11.6438 0.340625 11.4937 0.275 11.3906C0.209375 11.2875 0.11875 11.0938 0 10.7188V6.11562C0 2.09375 0.00625 1.49063 0.046875 1.32812C0.075 1.225 0.140625 1.05 0.19375 0.9375C0.25 0.825 0.36875 0.65625 0.45625 0.5625C0.54375 0.46875 0.690625 0.340625 0.784375 0.28125C0.878125 0.221875 1.05938 0.134375 1.1875 0.0875L1.42188 0.003125ZM1.16875 1.16875C1.09375 1.24375 1.02188 1.35938 0.990625 1.45312C0.940625 1.59687 0.9375 1.9125 0.9375 5.49062V9.375H2.84375V4.10938C2.70937 4.2375 2.625 4.29688 2.56875 4.325C2.51562 4.35312 2.42812 4.375 2.375 4.375C2.32188 4.375 2.225 4.34688 2.15625 4.3125C2.07292 4.27083 2.01042 4.20833 1.96875 4.125C1.93438 4.05625 1.90625 3.95625 1.90625 3.90625C1.90625 3.85313 1.93438 3.75937 1.96563 3.69375C2 3.63125 2.25 3.35938 2.52187 3.0875C2.79375 2.81875 3.0625 2.57812 3.11562 2.55C3.17188 2.52187 3.25938 2.5 3.3125 2.5C3.36562 2.5 3.45312 2.52187 3.50625 2.55C3.5625 2.57812 3.83125 2.81875 4.10313 3.0875C4.375 3.35938 4.625 3.63125 4.65938 3.69375C4.69063 3.75937 4.71875 3.85313 4.71875 3.90625C4.71875 3.95625 4.69063 4.05625 4.65625 4.125C4.61458 4.20833 4.55208 4.27083 4.46875 4.3125C4.4 4.34688 4.3 4.375 4.25 4.375C4.19688 4.375 4.10938 4.35312 4.05312 4.325C4 4.29688 3.91562 4.2375 3.86562 4.19063L3.78125 4.10938V9.375H4.71875C4.71875 5.4375 4.72188 5.37187 4.78125 5.25C4.82292 5.16667 4.88542 5.10417 4.96875 5.0625C5.0375 5.02812 5.13438 5 5.1875 5C5.2375 5 5.3375 5.02812 5.40625 5.0625C5.48958 5.10417 5.55208 5.16667 5.59375 5.25C5.65312 5.37187 5.65625 5.4375 5.65625 7.375V9.375H6.59375C6.59375 7.9375 6.6 7.86562 6.65625 7.75C6.69792 7.66667 6.76042 7.60417 6.84375 7.5625C6.9125 7.52812 7.00938 7.5 7.0625 7.5C7.1125 7.5 7.2125 7.52812 7.28125 7.5625C7.36458 7.60417 7.42708 7.66667 7.46875 7.75C7.525 7.86562 7.53125 7.9375 7.53125 8.625V9.375H15.0625C15.0625 1.9125 15.0594 1.59687 15.0094 1.45312C14.9781 1.35938 14.9062 1.24375 14.8313 1.16875C14.7531 1.09375 14.6406 1.02188 14.5469 0.990625C14.4 0.940625 13.9469 0.9375 7.98438 0.940625C2.18125 0.940625 1.56562 0.946875 1.4375 0.99375C1.35938 1.01875 1.24063 1.1 1.16875 1.16875ZM0.9375 10.4438C0.9375 10.5188 0.959375 10.6469 0.990625 10.7344C1.02188 10.8281 1.09375 10.9406 1.16875 11.0188C1.24688 11.0938 1.35938 11.1656 1.45312 11.1969C1.59687 11.2469 2.05625 11.25 8 11.25C13.9438 11.25 14.4031 11.2469 14.5469 11.1969C14.6406 11.1656 14.7531 11.0938 14.8313 11.0188C14.9062 10.9406 14.9781 10.8281 15.0094 10.7344C15.0406 10.6469 15.0625 10.5188 15.0625 10.4438V10.3125H0.9375V10.4438ZM6.3125 12.7875C6.22188 13.1188 6.14375 13.4125 6.1375 13.4438C6.125 13.4938 6.23125 13.4969 8 13.4969C9.76875 13.4969 9.875 13.4938 9.86563 13.4438C9.85938 13.4125 9.77812 13.1188 9.68437 12.7875L9.51562 12.1844H6.47813L6.3125 12.7875ZM5.09375 14.6875C5.05937 14.7563 5.03125 14.8687 5.03125 14.9375V15.0625H10.9688C10.9688 14.8687 10.9406 14.7563 10.9062 14.6875C10.8646 14.6042 10.8021 14.5417 10.7188 14.5C10.5969 14.4375 10.5312 14.4375 7.99062 14.4375C5.47188 14.4406 5.3875 14.4406 5.27187 14.5C5.2 14.5406 5.13438 14.6094 5.09375 14.6875ZM10.8031 1.875C10.8594 1.875 10.9625 1.90313 11.0312 1.9375C11.1146 1.97917 11.1771 2.04167 11.2188 2.125C11.2688 2.225 11.2812 2.3125 11.2812 2.85938L11.4438 2.9C11.5344 2.91875 11.7219 2.99375 12.1094 3.1875L12.3281 2.97187C12.4781 2.825 12.5844 2.74688 12.6719 2.72187C12.7625 2.69687 12.8313 2.69687 12.9219 2.72187C12.9906 2.74375 13.0844 2.79375 13.1281 2.84063C13.1719 2.88438 13.225 2.97813 13.2437 3.04688C13.2687 3.1375 13.2719 3.20625 13.2469 3.29688C13.2219 3.38438 13.1469 3.4875 12.7812 3.85938L12.9031 4.10938C12.9719 4.24687 13.0469 4.43437 13.1094 4.6875H13.4125C13.6562 4.6875 13.7437 4.7 13.8438 4.75C13.9271 4.79167 13.9896 4.85417 14.0312 4.9375C14.0656 5.00625 14.0938 5.10313 14.0938 5.15625C14.0938 5.20625 14.0656 5.30625 14.0312 5.375C13.9896 5.45833 13.9271 5.52083 13.8438 5.5625C13.7437 5.6125 13.6562 5.625 13.1094 5.625L13.0688 5.7875C13.0469 5.87812 12.9719 6.06563 12.7812 6.45312L12.9969 6.67188C13.1438 6.825 13.2219 6.92812 13.2437 7.01562C13.2719 7.10625 13.2719 7.175 13.2437 7.26562C13.225 7.33437 13.175 7.42813 13.1281 7.47188C13.0844 7.51562 12.9906 7.56875 12.9219 7.5875C12.8313 7.61562 12.7625 7.61562 12.6719 7.59062C12.5844 7.56562 12.4781 7.49062 12.1094 7.125L11.8594 7.25C11.7219 7.31875 11.5344 7.39375 11.2812 7.45312V7.75625C11.2812 8 11.2688 8.0875 11.2188 8.1875C11.1771 8.27083 11.1146 8.33333 11.0312 8.375C10.9625 8.40938 10.8625 8.4375 10.8125 8.4375C10.7594 8.4375 10.6625 8.40938 10.5938 8.375C10.5104 8.33333 10.4479 8.27083 10.4062 8.1875C10.3562 8.0875 10.3438 8 10.3438 7.45312L10.1812 7.4125C10.0906 7.39062 9.90312 7.31563 9.51562 7.125L9.29688 7.34062C9.14375 7.4875 9.04062 7.56562 8.95312 7.59062C8.8625 7.61562 8.79375 7.61562 8.70312 7.5875C8.63437 7.56875 8.54062 7.51875 8.49687 7.47188C8.45 7.42813 8.4 7.33437 8.37813 7.26562C8.35313 7.175 8.35313 7.10625 8.37813 7.01562C8.40312 6.92812 8.47812 6.825 8.84375 6.45312L8.72188 6.20312C8.65312 6.06563 8.57812 5.87813 8.51562 5.625H8.20938C7.96875 5.625 7.88125 5.6125 7.78125 5.5625C7.69792 5.52083 7.63542 5.45833 7.59375 5.375C7.55937 5.30625 7.53125 5.20625 7.53125 5.15625C7.53125 5.10313 7.55937 5.00625 7.59375 4.9375C7.63542 4.85417 7.69792 4.79167 7.78125 4.75C7.88125 4.7 7.96875 4.6875 8.51562 4.6875L8.55625 4.525C8.57812 4.43438 8.65312 4.24687 8.84375 3.85938L8.62813 3.64062C8.47813 3.4875 8.40312 3.38438 8.37813 3.29688C8.35313 3.20625 8.35313 3.1375 8.37813 3.04688C8.4 2.97813 8.45 2.88438 8.49687 2.84063C8.54062 2.79375 8.63437 2.74375 8.70312 2.725C8.79375 2.69687 8.8625 2.69687 8.95312 2.72187C9.04062 2.74688 9.14375 2.82188 9.51562 3.1875L9.76562 3.06562C9.90312 2.99688 10.0906 2.92188 10.3438 2.85938V2.55312C10.3438 2.3125 10.3562 2.225 10.4062 2.125C10.4469 2.04688 10.5125 1.97812 10.5844 1.9375C10.65 1.90625 10.75 1.87812 10.8031 1.875ZM10.1719 3.90625C10.0844 3.94688 9.93125 4.06562 9.825 4.16875C9.7125 4.28437 9.60313 4.43125 9.55313 4.5375C9.50625 4.6375 9.45312 4.8125 9.43125 4.92812C9.40312 5.09375 9.40312 5.19062 9.43125 5.36562C9.45312 5.49062 9.50625 5.675 9.55313 5.77187C9.60313 5.87812 9.71562 6.03125 9.825 6.14062C9.9375 6.25313 10.0906 6.36562 10.1938 6.41563C10.2938 6.4625 10.4688 6.51562 10.5844 6.5375C10.7531 6.56875 10.8469 6.56563 11.0312 6.53438C11.1844 6.50938 11.3406 6.45625 11.4812 6.38125C11.6 6.31875 11.7563 6.20312 11.8281 6.125C11.9 6.04688 12.0031 5.89687 12.0562 5.7875C12.1125 5.67812 12.1719 5.49375 12.1938 5.36562C12.2219 5.19062 12.2219 5.09375 12.1938 4.92812C12.1719 4.8125 12.1187 4.6375 12.0719 4.5375C12.0219 4.43437 11.9094 4.28125 11.7969 4.16875C11.6875 4.05937 11.5375 3.94688 11.4375 3.9C11.3438 3.85625 11.1906 3.80312 11.1 3.78437C11.0125 3.76562 10.8719 3.75 10.7875 3.75312C10.7063 3.75312 10.5688 3.77188 10.4844 3.79375C10.3969 3.81562 10.2563 3.86562 10.1719 3.90625ZM10.8031 4.6875C10.8594 4.6875 10.9625 4.71562 11.0312 4.75C11.1146 4.79167 11.1771 4.85417 11.2188 4.9375C11.2531 5.00625 11.2812 5.10313 11.2812 5.15625C11.2812 5.20625 11.2531 5.30625 11.2188 5.375C11.1771 5.45833 11.1146 5.52083 11.0312 5.5625C10.9625 5.59688 10.8625 5.625 10.8125 5.625C10.7594 5.625 10.6625 5.59688 10.5938 5.5625C10.5104 5.52083 10.4479 5.45833 10.4062 5.375C10.3719 5.30625 10.3438 5.20625 10.3438 5.15625C10.3438 5.10313 10.3719 5.00625 10.4062 4.9375C10.4469 4.85938 10.5125 4.79063 10.5844 4.75C10.65 4.71875 10.75 4.69063 10.8031 4.6875Z" fill="#ACB9CB"/>
</g>
<defs>
<clipPath id="clip0_556_4071">
<rect width="16" height="16" fill="white"/>
</clipPath>
</defs>
</svg>
