<svg width="16" height="16" viewBox="0 0 16 16" fill="none" xmlns="http://www.w3.org/2000/svg">
<g clip-path="url(#clip0_546_5030)">
<path fill-rule="evenodd" clip-rule="evenodd" d="M1.57812 0.1625L14.375 0.15625L14.5875 0.221875C14.7031 0.259375 14.8656 0.325 14.9531 0.36875C15.0406 0.409375 15.1812 0.496875 15.2656 0.5625C15.3531 0.628125 15.4875 0.7625 15.5656 0.865625C15.6438 0.965625 15.7469 1.11875 15.7875 1.20312C15.8313 1.2875 15.8969 1.45625 16 1.79688L15.9844 12.0469L15.9156 12.25C15.8781 12.3625 15.7937 12.5437 15.7281 12.6531C15.6625 12.7625 15.525 12.9406 15.4187 13.0437C15.3125 13.15 15.1344 13.2844 15.0125 13.35C14.8938 13.4125 14.6844 13.4937 14.5469 13.5312C14.3094 13.5906 14.2125 13.5938 11 13.5938V14.9062H11.7969C12.5312 14.9062 12.6031 14.9125 12.7188 14.9688C12.8021 15.0104 12.8646 15.0729 12.9062 15.1562C12.9406 15.225 12.9688 15.325 12.9688 15.375C12.9688 15.425 12.9438 15.5219 12.9094 15.5844C12.8781 15.65 12.8 15.7344 12.625 15.8438H3.375L3.2625 15.7719C3.2 15.7344 3.12188 15.65 3.09063 15.5844C3.05625 15.5219 3.03125 15.425 3.03125 15.375C3.03125 15.325 3.05938 15.225 3.09375 15.1562C3.13542 15.0729 3.19792 15.0104 3.28125 14.9688C3.39687 14.9125 3.46875 14.9062 5 14.9062V13.5938H3.35C1.8375 13.5938 1.68438 13.5906 1.46875 13.5344C1.34063 13.5031 1.15625 13.4375 1.0625 13.3906C0.96875 13.3438 0.8125 13.2437 0.71875 13.1687C0.625 13.0938 0.490625 12.9594 0.41875 12.8687C0.346875 12.7781 0.253125 12.6281 0.20625 12.5375C0.1625 12.45 0.096875 12.2719 0.0625 12.1469C0 11.925 0 11.8281 0 6.875C0 1.92188 0 1.825 0.0625 1.6C0.096875 1.47812 0.165625 1.29375 0.215625 1.19375C0.265625 1.09688 0.365625 0.946875 0.434375 0.859375C0.50625 0.775 0.63125 0.65 0.7125 0.584375C0.79375 0.51875 0.93125 0.428125 1.01562 0.384375C1.10312 0.340625 1.2625 0.271875 1.375 0.234375L1.57812 0.1625ZM1.42188 1.225C1.37188 1.25 1.275 1.32812 1.2125 1.39375C1.15 1.45937 1.06562 1.58438 1.025 1.66875L0.953125 1.825L0.9375 10.6531H15.0625L15.0469 1.825C14.9375 1.58438 14.8469 1.45312 14.775 1.38125C14.7 1.30938 14.5719 1.21875 14.4844 1.17813L14.3281 1.10625C3.04375 1.09688 1.74063 1.10312 1.64062 1.13437C1.57187 1.15625 1.475 1.19687 1.42188 1.225ZM0.94375 11.7563C0.953125 11.8469 0.99375 11.9969 1.03437 12.0875C1.07812 12.1844 1.16875 12.3125 1.25 12.3875C1.32812 12.4594 1.4625 12.5437 1.54688 12.5781C1.7 12.6375 1.85 12.6375 8 12.6375C14.15 12.6375 14.3 12.6375 14.4531 12.5781C14.5406 12.5437 14.6719 12.4594 14.75 12.3875C14.8313 12.3125 14.9219 12.1844 14.9656 12.0875C15.0062 11.9969 15.0469 11.8469 15.0594 11.7563L15.0781 11.5906H0.928125L0.94375 11.7563ZM5.9375 14.9062H10.0625V13.5938H5.9375V14.9062ZM4.75625 2.15625C5.53125 2.15625 5.60313 2.15937 5.71875 2.21875C5.80208 2.26042 5.86458 2.32292 5.90625 2.40625C5.9625 2.51875 5.96875 2.59375 5.96875 3.78125L10.675 3.79688L10.8062 3.88125C10.8781 3.92812 10.9719 4.0125 11.0125 4.06875C11.0562 4.125 11.1062 4.25 11.1281 4.34375C11.1625 4.5125 11.1594 4.53125 10.8 5.90625C10.5188 6.98125 10.4156 7.325 10.35 7.42188C10.2938 7.5 10.2031 7.57812 9.92188 7.71875H7.78125C6.3125 7.71875 5.6 7.70625 5.51562 7.68437C5.4375 7.6625 5.33437 7.59375 5.24375 7.50313C5.15625 7.4125 5.0875 7.3125 5.06563 7.23438C5.04063 7.14687 5.03125 6.47188 5.03125 3.09375H4.475C4.00938 3.09375 3.90313 3.08437 3.8125 3.0375C3.75312 3.00937 3.67188 2.93438 3.63125 2.875C3.58437 2.8 3.55938 2.71875 3.55938 2.625C3.55938 2.53125 3.58437 2.44688 3.63125 2.375C3.67188 2.31562 3.75312 2.24062 3.8125 2.20937C3.90625 2.1625 4.02187 2.15625 4.75625 2.15625ZM5.96875 6.78125L9.60312 6.76562C10.0062 5.24062 10.1219 4.77812 10.1219 4.75625C10.125 4.725 9.6875 4.71875 8.04688 4.71875H5.96875V6.78125ZM6.11562 8.65625C6.53125 8.65625 6.60938 8.6625 6.71875 8.71875C6.80208 8.76042 6.86458 8.82292 6.90625 8.90625C6.94063 8.975 6.96875 9.07187 6.96875 9.125C6.96875 9.175 6.94063 9.275 6.90625 9.34375C6.86458 9.42708 6.80208 9.48958 6.71875 9.53125C6.60938 9.58438 6.53125 9.59375 6.125 9.59375C5.71875 9.59375 5.6375 9.58438 5.53125 9.53125C5.44792 9.48958 5.38542 9.42708 5.34375 9.34375C5.30937 9.275 5.28125 9.175 5.28125 9.125C5.28125 9.07187 5.30937 8.975 5.34375 8.90625C5.38125 8.82812 5.44688 8.75937 5.52187 8.71875C5.62187 8.66562 5.70625 8.65938 6.11562 8.65625ZM9.36563 8.65625C9.78125 8.65625 9.85938 8.6625 9.96875 8.71875C10.0521 8.76042 10.1146 8.82292 10.1562 8.90625C10.1906 8.975 10.2188 9.07187 10.2188 9.125C10.2188 9.175 10.1906 9.275 10.1562 9.34375C10.1146 9.42708 10.0521 9.48958 9.96875 9.53125C9.85938 9.58438 9.78125 9.59375 9.375 9.59375C8.96875 9.59375 8.8875 9.58438 8.78125 9.53125C8.69792 9.48958 8.63542 9.42708 8.59375 9.34375C8.55937 9.275 8.53125 9.175 8.53125 9.125C8.53125 9.07187 8.55937 8.975 8.59375 8.90625C8.63125 8.82812 8.69688 8.75937 8.77188 8.71875C8.87188 8.66562 8.95625 8.65938 9.36563 8.65625Z" fill="#ACB9CB"/>
</g>
<defs>
<clipPath id="clip0_546_5030">
<rect width="16" height="16" fill="white"/>
</clipPath>
</defs>
</svg>
