<svg width="16" height="16" viewBox="0 0 16 16" fill="none" xmlns="http://www.w3.org/2000/svg">
<path fill-rule="evenodd" clip-rule="evenodd" d="M6.48428 1.00312C6.71553 1 6.80303 1.0125 6.96865 1.07812C7.08115 1.12188 7.22803 1.19063 7.29678 1.23125C7.36553 1.27188 7.49678 1.38438 7.5874 1.48125C7.6749 1.57813 7.79053 1.74375 7.84365 1.85C7.89365 1.95938 7.95303 2.125 7.97178 2.21875C7.99053 2.3125 7.9999 2.48125 7.99053 2.59375C7.98428 2.70625 7.94678 2.875 7.8499 3.14062L8.0249 3.32188C8.1874 3.4875 8.20615 3.5 8.2499 3.45C8.2749 3.42188 8.38115 3.35 8.48428 3.29063C8.5874 3.23125 8.7749 3.14688 8.8999 3.10625C9.02178 3.06562 9.23428 3.02188 9.36553 3.0125C9.54053 2.99688 9.68428 3.00625 9.8749 3.04375C10.0218 3.075 10.2249 3.1375 10.328 3.1875C10.4312 3.2375 10.578 3.325 10.7968 3.49375L11.1499 3.14062L11.0874 2.96875C11.053 2.875 11.0155 2.70625 11.0093 2.59375C10.9999 2.48125 11.0093 2.3125 11.028 2.21875C11.0468 2.125 11.1062 1.95938 11.1562 1.85C11.2093 1.74375 11.3249 1.57813 11.4124 1.48125C11.503 1.38438 11.6343 1.27188 11.703 1.23125C11.7718 1.19063 11.9187 1.12188 12.0312 1.07812C12.1937 1.01562 12.2905 1 12.4999 1C12.7093 1 12.8062 1.01562 12.9687 1.07812C13.0812 1.12188 13.228 1.19063 13.2968 1.23125C13.3655 1.27188 13.4937 1.38125 13.5812 1.47187C13.6687 1.56562 13.778 1.71563 13.8218 1.80313C13.8687 1.89375 13.928 2.05 13.953 2.14687C13.978 2.24687 13.9999 2.40625 13.9999 2.5C13.9999 2.59375 13.978 2.75312 13.953 2.85C13.928 2.95 13.8687 3.10625 13.8218 3.19375C13.778 3.28437 13.6624 3.44063 13.5655 3.54063C13.4593 3.65313 13.3124 3.7625 13.1874 3.825C13.0749 3.88125 12.8999 3.94688 12.7968 3.96875C12.6937 3.99062 12.5187 4 12.4062 3.99062C12.2937 3.98438 12.1249 3.94687 11.8593 3.85L11.3749 4.32812L11.428 4.48438C11.4624 4.59375 11.478 4.75312 11.478 5C11.478 5.24687 11.4624 5.40625 11.3749 5.67188L11.8593 6.15L12.0312 6.0875C12.1249 6.05312 12.2937 6.01562 12.4062 6.00938C12.5187 6 12.6937 6.00938 12.7968 6.03125C12.8999 6.05312 13.0749 6.11875 13.1874 6.175C13.3124 6.2375 13.4593 6.34687 13.5655 6.45937C13.6624 6.55937 13.778 6.71563 13.8218 6.80625C13.8687 6.89375 13.928 7.05 13.953 7.14687C13.978 7.24687 13.9999 7.40625 13.9999 7.5C13.9999 7.59375 13.978 7.75313 13.953 7.85313C13.928 7.95 13.8687 8.10625 13.8218 8.19375C13.778 8.28438 13.6655 8.4375 13.578 8.53125C13.4874 8.625 13.3312 8.74688 13.2312 8.80313C13.128 8.85625 12.9624 8.925 12.8593 8.95C12.7562 8.97812 12.5937 9 12.4999 9C12.4062 9 12.2468 8.97813 12.1468 8.95312C12.0499 8.92812 11.8937 8.86875 11.803 8.82187C11.7155 8.77812 11.5593 8.6625 11.4593 8.56563C11.3468 8.45938 11.2374 8.3125 11.1749 8.1875C11.1187 8.075 11.053 7.9 11.0312 7.79688C11.0093 7.69375 10.9999 7.51875 11.0093 7.40625C11.0155 7.29375 11.053 7.125 11.1499 6.85938L10.7968 6.50625L10.6562 6.61562C10.578 6.675 10.4312 6.7625 10.328 6.8125C10.2249 6.8625 10.0218 6.925 9.8749 6.95625C9.68428 6.99375 9.54053 7.00313 9.36553 6.9875C9.23428 6.97813 9.02178 6.93438 8.89678 6.89375C8.7749 6.85313 8.60928 6.78125 8.53115 6.7375C8.45303 6.69375 8.34678 6.62188 8.20303 6.50313L7.8499 6.85938L7.9124 7.03125C7.94678 7.125 7.98428 7.29375 7.99053 7.40625C7.9999 7.51875 7.99053 7.69375 7.96865 7.79688C7.94678 7.9 7.88115 8.075 7.8249 8.1875C7.7624 8.3125 7.65303 8.45938 7.54053 8.56563C7.44053 8.6625 7.28428 8.77812 7.19365 8.82187C7.10615 8.86875 6.9499 8.92812 6.8499 8.95312C6.75303 8.97813 6.59365 9 6.4999 9C6.40615 9 6.24365 8.97812 6.14053 8.95C6.0374 8.925 5.87178 8.85625 5.76865 8.80313C5.66865 8.74688 5.5124 8.625 5.42178 8.53125C5.33428 8.4375 5.22178 8.28438 5.17803 8.19375C5.13115 8.10625 5.07178 7.95 5.04678 7.85C5.02178 7.75312 4.9999 7.59375 4.9999 7.5C4.9999 7.40625 5.02178 7.24687 5.04678 7.14687C5.07178 7.05 5.13115 6.89375 5.17803 6.80312C5.22178 6.71562 5.3374 6.55937 5.43428 6.45937C5.54053 6.34687 5.6874 6.2375 5.8124 6.175C5.9249 6.11875 6.0999 6.05312 6.20303 6.03125C6.30615 6.00938 6.48115 6 6.59365 6.00938C6.70615 6.01562 6.8749 6.05312 7.14053 6.15L7.6249 5.67188L7.57178 5.51562C7.5374 5.40625 7.52178 5.24687 7.52178 5C7.52178 4.75312 7.5374 4.59375 7.6249 4.32812L7.14053 3.85L6.96865 3.9125C6.8749 3.94687 6.70615 3.98438 6.59365 3.99062C6.48115 4 6.30615 3.99062 6.20303 3.96875C6.0999 3.94688 5.9249 3.88125 5.8124 3.825C5.6874 3.7625 5.54053 3.65313 5.43428 3.54063C5.3374 3.44063 5.22178 3.28437 5.17803 3.19375C5.13115 3.10625 5.07178 2.95 5.04678 2.85C5.02178 2.75312 4.9999 2.59375 4.9999 2.5C4.9999 2.40625 5.02178 2.24687 5.04678 2.14687C5.07178 2.05 5.13115 1.89375 5.17803 1.80313C5.22178 1.71563 5.33115 1.56563 5.41865 1.475C5.50615 1.38125 5.62803 1.27813 5.6874 1.24063C5.74678 1.20313 5.8874 1.13437 5.9999 1.0875C6.16553 1.01875 6.25303 1.00312 6.48428 1.00312ZM6.10303 2.18438C6.06553 2.2375 6.02178 2.32813 6.0124 2.38438C6.00303 2.4375 6.00303 2.54062 6.01553 2.60938C6.03011 2.69271 6.07594 2.77187 6.15303 2.84687C6.21865 2.9125 6.3124 2.97187 6.3749 2.98438C6.43428 2.99688 6.54053 2.99688 6.60928 2.98438C6.69261 2.96979 6.77178 2.92396 6.84678 2.84687C6.9124 2.78125 6.97178 2.6875 6.98428 2.625C6.99678 2.56562 6.99678 2.4625 6.9874 2.4C6.97803 2.33438 6.93115 2.2375 6.88115 2.18125C6.83428 2.12813 6.7499 2.06563 6.69365 2.04063C6.64053 2.01875 6.54678 2 6.49053 2C6.4374 2.00312 6.34365 2.02188 6.28428 2.04375C6.2249 2.06563 6.14365 2.12813 6.10303 2.18438ZM12.103 2.18438C12.0655 2.2375 12.0218 2.32813 12.0124 2.38438C12.003 2.4375 12.003 2.54062 12.0155 2.60938C12.0301 2.69271 12.0759 2.77187 12.153 2.84687C12.2187 2.9125 12.3124 2.97187 12.3749 2.98438C12.4343 2.99688 12.5405 2.99688 12.6093 2.98438C12.6926 2.96979 12.7718 2.92396 12.8468 2.84687C12.9124 2.78125 12.9718 2.6875 12.9843 2.625C12.9968 2.56562 12.9968 2.4625 12.9874 2.4C12.978 2.33438 12.9312 2.2375 12.8812 2.18125C12.8343 2.12813 12.7499 2.06563 12.6937 2.04063C12.6405 2.01875 12.5468 2 12.4905 2C12.4374 2.00312 12.3437 2.02188 12.2843 2.04375C12.2249 2.06563 12.1437 2.12813 12.103 2.18438ZM9.04678 4.1125C8.97803 4.14375 8.86553 4.22813 8.79678 4.29688C8.72803 4.36562 8.6374 4.49062 8.59365 4.57812C8.53428 4.70625 8.51865 4.78437 8.51865 5C8.51553 5.24375 8.5249 5.28125 8.6249 5.46562C8.68428 5.575 8.77803 5.7 8.82803 5.74375C8.87803 5.78438 8.99053 5.85625 9.07803 5.9C9.20928 5.96875 9.2749 5.98125 9.4999 5.98125C9.7249 5.98125 9.79053 5.96875 9.92178 5.9C10.0062 5.85625 10.1218 5.78438 10.1718 5.74375C10.2218 5.7 10.3155 5.575 10.3749 5.46562C10.4749 5.28125 10.4843 5.24375 10.4812 5C10.4812 4.775 10.4687 4.70937 10.3999 4.57812C10.3562 4.49062 10.2843 4.38125 10.2437 4.32812C10.1999 4.275 10.0812 4.1875 9.98115 4.13438C9.8374 4.05313 9.74678 4.02813 9.57803 4.01875C9.45615 4.00938 9.31553 4.0125 9.26553 4.02812C9.21553 4.04062 9.11553 4.07813 9.04678 4.1125ZM6.10303 7.18437C6.06553 7.2375 6.02178 7.32812 6.0124 7.38438C6.00303 7.4375 6.00303 7.54063 6.01553 7.60938C6.03011 7.69271 6.07594 7.77188 6.15303 7.84688C6.21865 7.9125 6.3124 7.97188 6.3749 7.98438C6.43428 7.99687 6.54053 7.99687 6.60928 7.98438C6.69261 7.96979 6.77178 7.92396 6.84678 7.84688C6.9124 7.78125 6.97178 7.6875 6.98428 7.625C6.99678 7.56563 6.99678 7.4625 6.9874 7.4C6.97803 7.33437 6.93115 7.2375 6.88115 7.18125C6.83428 7.12813 6.7499 7.06563 6.69365 7.04063C6.64053 7.01875 6.54678 7 6.49053 7C6.4374 7.00313 6.34365 7.02187 6.28428 7.04375C6.2249 7.06562 6.14365 7.12812 6.10303 7.18437ZM12.103 7.18437C12.0655 7.2375 12.0218 7.32812 12.0124 7.38438C12.003 7.4375 12.003 7.54063 12.0155 7.60938C12.0301 7.69271 12.0759 7.77188 12.153 7.84688C12.2187 7.9125 12.3124 7.97188 12.3749 7.98438C12.4343 7.99687 12.5405 7.99687 12.6093 7.98438C12.6926 7.96979 12.7718 7.92396 12.8468 7.84688C12.9124 7.78125 12.9718 7.6875 12.9843 7.625C12.9968 7.56563 12.9968 7.4625 12.9874 7.4C12.978 7.33437 12.9312 7.2375 12.8812 7.18125C12.8343 7.12813 12.7499 7.06563 12.6937 7.04063C12.6405 7.01875 12.5468 7 12.4905 7C12.4374 7.00313 12.3437 7.02187 12.2843 7.04375C12.2249 7.06562 12.1437 7.12812 12.103 7.18437ZM2.0374 8.00937C2.62803 8.01562 2.69053 8.02187 2.76865 8.07812C2.8124 8.1125 2.88115 8.18125 2.91865 8.22812C2.9749 8.30312 2.98428 8.36562 2.9999 9H4.04678C4.70303 9 5.1249 9.0125 5.17803 9.03125C5.22803 9.05 5.4749 9.275 6.20303 9.99687L8.54678 10.0156L8.7499 10.1094C8.8624 10.1625 9.02178 10.2688 9.10303 10.3438C9.20303 10.4375 9.29365 10.5625 9.36865 10.7188C9.43115 10.8469 9.48428 10.9562 9.49053 10.9625C9.49678 10.9656 10.3812 10.5406 11.4593 10.0156C12.5405 9.49375 13.4905 9.04688 13.578 9.02812C13.6718 9.00625 13.8155 9 13.9374 9.0125C14.0499 9.02187 14.2155 9.06563 14.303 9.10938C14.3937 9.15312 14.5437 9.25625 14.6312 9.34062C14.7405 9.4375 14.828 9.5625 14.8905 9.69063C14.9718 9.86563 14.9843 9.925 14.9843 10.1719C14.9843 10.4156 14.9718 10.4781 14.8968 10.6406C14.8499 10.7437 14.7437 10.8937 14.6624 10.9781C14.578 11.0625 13.8999 11.5344 13.0374 12.1031C12.2249 12.6375 11.0437 13.4219 10.4124 13.8406C9.78115 14.2594 9.18115 14.6406 9.07803 14.6875C8.9749 14.7344 8.7999 14.8 8.6874 14.8375C8.5749 14.8719 8.3874 14.9219 8.26553 14.95C8.13428 14.9812 7.90615 15 7.69365 15C7.43428 15 7.2624 14.9812 7.02178 14.925C6.84678 14.8844 6.6124 14.8125 6.4999 14.7719C6.3874 14.7281 5.75303 14.425 3.8749 13.5H2.9999L2.99053 13.8406C2.98428 14.125 2.9749 14.1969 2.92178 14.2688C2.8874 14.3125 2.81865 14.3812 2.77178 14.4187C2.6874 14.4812 2.64678 14.4844 1.9999 14.4844C1.36553 14.4844 1.3124 14.4812 1.23115 14.4219C1.1874 14.3875 1.11865 14.3188 1.08115 14.2719C1.03115 14.2031 1.01553 14.1375 1.01553 14C1.01553 13.8625 1.03115 13.7969 1.08115 13.7281C1.11865 13.6812 1.1874 13.6125 1.23115 13.5781C1.30303 13.525 1.3749 13.5156 1.9999 13.5V9H1.70303C1.52803 9 1.36553 8.98438 1.30303 8.95938C1.2499 8.93438 1.16553 8.87188 1.11553 8.81875C1.06865 8.7625 1.02178 8.66562 1.0124 8.60312C1.00303 8.5375 1.00303 8.4375 1.0124 8.38437C1.02178 8.32812 1.06553 8.2375 1.10303 8.18437C1.14365 8.12812 1.2249 8.06562 1.28428 8.04375C1.36553 8.0125 1.5499 8.00312 2.0374 8.00937ZM2.9999 12.5H4.1249C6.0499 13.4625 6.70928 13.7781 6.82803 13.8281C6.94678 13.875 7.1499 13.9313 7.27178 13.9563C7.39678 13.9812 7.58428 14 7.6874 14C7.79053 14 7.98428 13.9781 8.11553 13.95C8.2499 13.925 8.4499 13.8625 8.5624 13.8156C8.6749 13.7688 9.41865 13.3 10.2499 12.75C11.0655 12.2094 12.2405 11.4281 12.8593 11.0156C13.7905 10.3938 13.9843 10.2531 13.9937 10.1875C13.9999 10.1438 13.978 10.0844 13.9468 10.0531C13.9155 10.0219 13.8655 9.99687 13.8343 10C13.8062 10 12.6374 10.5594 11.2405 11.2437L8.70303 12.4844C5.8374 12.4844 5.81553 12.4844 5.72803 12.4187C5.68115 12.3812 5.6124 12.3125 5.57803 12.2688C5.53115 12.2063 5.51553 12.1344 5.51553 12C5.51553 11.8625 5.53115 11.7969 5.58115 11.7281C5.61865 11.6812 5.6874 11.6125 5.73115 11.5781C5.8124 11.5188 5.87803 11.5156 7.0999 11.5L8.38115 11.4844C8.4749 11.3625 8.50303 11.2906 8.4999 11.2437C8.4999 11.1937 8.46553 11.1219 8.42178 11.0781L8.34365 11C6.1499 11 5.88428 10.9906 5.80303 10.9563C5.7499 10.9313 5.4999 10.7063 5.2499 10.4563L4.79678 10H2.9999V12.5Z" fill="#ACB9CB"/>
</svg>
