<svg width="18" height="17" viewBox="0 0 18 17" fill="none" xmlns="http://www.w3.org/2000/svg">
<path fill-rule="evenodd" clip-rule="evenodd" d="M5 14.2689C5 15.1185 5.6819 15.8074 6.52381 15.8074C7.36533 15.8074 8.04762 15.1185 8.04762 14.2689C8.04762 13.4189 7.36533 12.7305 6.52381 12.7305C5.6819 12.7305 5 13.4189 5 14.2689Z" stroke="#ACB9CB" stroke-width="1.14286" stroke-linecap="round" stroke-linejoin="round"/>
<path fill-rule="evenodd" clip-rule="evenodd" d="M11.8574 14.2689C11.8574 15.1185 12.5393 15.8074 13.3812 15.8074C14.2228 15.8074 14.905 15.1185 14.905 14.2689C14.905 13.4189 14.2228 12.7305 13.3812 12.7305C12.5393 12.7305 11.8574 13.4189 11.8574 14.2689Z" stroke="#ACB9CB" stroke-width="1.14286" stroke-linecap="round" stroke-linejoin="round"/>
<path d="M16.8099 4.6543L15.2861 11.1928" stroke="#ACB9CB" stroke-width="1.14286" stroke-linecap="round" stroke-linejoin="round"/>
<path d="M15.2858 11.1923H4.61914" stroke="#ACB9CB" stroke-width="1.14286" stroke-linecap="round" stroke-linejoin="round"/>
<path d="M2.71436 2.73047L4.61912 11.192" stroke="#ACB9CB" stroke-width="1.14286" stroke-linecap="round" stroke-linejoin="round"/>
<path d="M2.71424 2.73137H1.19043" stroke="#ACB9CB" stroke-width="1.14286" stroke-linecap="round" stroke-linejoin="round"/>
<path d="M16.8099 4.65422H13.3813" stroke="#ACB9CB" stroke-width="1.14286" stroke-linecap="round" stroke-linejoin="round"/>
<path fill-rule="evenodd" clip-rule="evenodd" d="M13.3811 4.65392C13.3811 6.56584 11.8458 8.11546 9.9525 8.11546C8.05878 8.11546 6.52393 6.56584 6.52393 4.65392C6.52393 2.742 8.05878 1.19238 9.9525 1.19238C11.8458 1.19238 13.3811 2.742 13.3811 4.65392Z" stroke="#ACB9CB" stroke-width="1.14286" stroke-linecap="round" stroke-linejoin="round"/>
<path d="M6.52379 4.65422H3.09521" stroke="#ACB9CB" stroke-width="1.14286" stroke-linecap="round" stroke-linejoin="round"/>
<path d="M9.95252 2.73047V6.57662L8.42871 5.03816" stroke="#ACB9CB" stroke-width="1.14286" stroke-linecap="round" stroke-linejoin="round"/>
<path d="M9.95264 6.57752L11.4764 5.03906" stroke="#ACB9CB" stroke-width="1.14286" stroke-linecap="round" stroke-linejoin="round"/>
</svg>
