<svg width="16" height="16" viewBox="0 0 16 16" fill="none" xmlns="http://www.w3.org/2000/svg">
<g clip-path="url(#clip0_545_4807)">
<path fill-rule="evenodd" clip-rule="evenodd" d="M5.70312 0.659375L10.25 0.65625L10.6344 0.746875C10.8438 0.796875 11.15 0.8875 11.3125 0.946875C11.475 1.00625 11.7719 1.12813 11.9688 1.21875C12.1656 1.30625 12.5125 1.47813 12.7344 1.6C12.9563 1.72188 13.5063 2.04063 13.9531 2.30625C14.4 2.57188 14.8281 2.84063 14.9031 2.90313C14.9812 2.96563 15.1219 3.11562 15.2156 3.23438C15.3125 3.35313 15.4563 3.57812 15.5375 3.73438C15.6188 3.89062 15.725 4.14375 15.775 4.29688C15.8281 4.45 15.8969 4.73125 15.9344 4.92188C15.975 5.13125 16 5.39062 16 5.58437C16 5.7625 15.9781 6.01562 15.9531 6.14687C15.9281 6.28125 15.875 6.48125 15.8406 6.59375C15.8031 6.70625 15.7094 6.93125 15.6344 7.09375C15.5594 7.25625 15.4094 7.525 15.3 7.6875C15.1938 7.85 15.0813 8.04688 15.05 8.125C15.0188 8.20312 14.9781 8.40625 14.9563 8.57812C14.9281 8.7875 14.8875 8.94063 14.8344 9.04688C14.7906 9.13125 14.7094 9.24688 14.65 9.30313C14.5938 9.35938 14.4781 9.43438 14.3906 9.475C14.2719 9.52813 14.1781 9.54688 14 9.54688C13.7937 9.54375 13.7437 9.53125 13.5875 9.44375C13.4594 9.37188 13.4031 9.35625 13.3906 9.38125C13.3844 9.40313 13.3719 9.98438 13.3656 10.6719C13.3563 11.8219 13.35 11.9406 13.2906 12.1406C13.2562 12.2625 13.1937 12.4438 13.15 12.5469C13.1094 12.65 12.9969 12.8531 12.9031 13C12.8062 13.1469 12.6312 13.3625 12.5125 13.4812C12.3938 13.5969 12.1906 13.7625 12.0625 13.8469C11.9344 13.9313 11.7312 14.0437 11.6094 14.0938C11.4875 14.1438 11.3062 14.2063 11.2031 14.2344C11.1 14.2594 10.8875 14.2969 10.7344 14.3094C10.5813 14.325 10.3906 14.3312 10.3125 14.3219C10.1719 14.3062 10.1687 14.3063 9.9375 14.5375C9.80937 14.6625 9.59688 14.8344 9.46875 14.9156C9.34062 14.9937 9.15625 15.0906 9.0625 15.1281C8.96875 15.1656 8.7625 15.2281 8.60938 15.2688C8.40625 15.3219 8.24375 15.3438 8.01562 15.3438C7.7875 15.3438 7.61875 15.3219 7.39062 15.2656C7.21875 15.2219 6.97813 15.1406 6.85938 15.0844C6.74062 15.0281 6.57188 14.9344 6.48438 14.875C6.4 14.8188 6.21875 14.6625 5.84062 14.2969L5.69375 14.3188C5.6125 14.3281 5.41875 14.325 5.26562 14.3094C5.1125 14.2937 4.9 14.2562 4.79688 14.2312C4.69375 14.2031 4.46875 14.1125 4.29688 14.0312C4.125 13.95 3.87812 13.8 3.75 13.6969C3.62188 13.5938 3.45312 13.4437 3.38125 13.3562C3.30625 13.2719 3.18438 13.1125 3.10938 13C3.03437 12.8875 2.93125 12.7 2.87812 12.5781C2.82812 12.4563 2.75312 12.2406 2.71563 12.0938C2.65 11.8438 2.64688 11.7469 2.63438 10.5625C2.625 9.36563 2.61875 9.3 2.56875 9.34688C2.54062 9.375 2.45312 9.43125 2.375 9.47188C2.26562 9.52812 2.18125 9.54375 2 9.54375C1.81562 9.54375 1.72812 9.52812 1.59687 9.46875C1.49062 9.41875 1.375 9.33125 1.29062 9.23438C1.21562 9.14688 1.13437 9.01562 1.10938 8.9375C1.08438 8.85938 1.05312 8.67813 1.03437 8.53125C1.01875 8.38438 0.98125 8.20312 0.95 8.125C0.91875 8.04688 0.815625 7.86562 0.71875 7.71875C0.61875 7.57188 0.484375 7.34062 0.415625 7.20312C0.346875 7.06563 0.25 6.84688 0.203125 6.71875C0.159375 6.59062 0.09375 6.36562 0.059375 6.21875C0.025 6.05312 0 5.82812 0 5.625C0 5.43125 0.025 5.15625 0.0625 4.95312C0.09375 4.7625 0.165625 4.475 0.21875 4.3125C0.271875 4.15 0.3875 3.88125 0.471875 3.71875C0.559375 3.55625 0.696875 3.33437 0.784375 3.225C0.86875 3.11875 1.0125 2.97187 1.10312 2.90313C1.19062 2.83125 1.625 2.55938 2.0625 2.29688C2.5 2.03437 3.04063 1.72187 3.26562 1.60312C3.49062 1.48125 3.82812 1.3125 4.01562 1.22812C4.20625 1.14062 4.47813 1.025 4.625 0.96875C4.77187 0.9125 5.07188 0.821875 5.29688 0.7625L5.70312 0.659375ZM5.04688 1.8125C4.89375 1.86563 4.53438 2.02187 4.25 2.15937C3.96563 2.29688 3.60938 2.48125 3.45312 2.56875C3.3 2.65625 2.85 2.92188 2.45312 3.15625C1.89062 3.49375 1.70312 3.62188 1.58125 3.75312C1.5 3.84687 1.38125 4.0125 1.31875 4.125C1.25625 4.2375 1.15938 4.4625 1.10625 4.625C1.05 4.7875 0.9875 5.04063 0.96875 5.1875C0.946875 5.33437 0.9375 5.57812 0.94375 5.73438C0.95625 5.93437 0.9875 6.09687 1.05938 6.30312C1.1125 6.4625 1.2 6.68125 1.25312 6.7875C1.30625 6.89687 1.41562 7.075 1.49375 7.1875C1.57187 7.3 1.68437 7.4875 1.74375 7.60938C1.80313 7.72813 1.87812 7.93437 1.90937 8.0625C1.94375 8.19063 1.96875 8.3625 1.96875 8.44375C1.96875 8.55625 1.98125 8.59375 2.01562 8.59375C2.04063 8.59375 2.1125 8.53438 2.175 8.45938C2.2375 8.3875 2.31875 8.26562 2.35938 8.1875C2.39687 8.10938 2.45312 7.98125 2.48125 7.89687C2.50938 7.81562 2.55312 7.62812 2.57812 7.475C2.60313 7.325 2.6375 6.8875 2.65625 6.5C2.67188 6.1125 2.70937 5.66875 2.7375 5.51562C2.7625 5.35938 2.82187 5.11562 2.86562 4.96875C2.90625 4.82188 2.99688 4.59063 3.06562 4.45312C3.1375 4.31562 3.24062 4.14062 3.29688 4.0625C3.35313 3.98438 3.46563 3.8625 3.54375 3.7875C3.6375 3.70312 3.72813 3.65 3.80625 3.6375C3.86875 3.625 3.97187 3.63125 4.03125 3.65C4.09062 3.66875 4.17812 3.725 4.22813 3.77187C4.275 3.81875 4.32812 3.91563 4.34375 3.98438C4.3625 4.06562 4.3625 4.14687 4.34062 4.21875C4.325 4.27813 4.25625 4.38438 4.19375 4.45312C4.12812 4.52187 4.0375 4.63438 3.99062 4.70312C3.94687 4.77187 3.87188 4.925 3.825 5.04688C3.78125 5.16563 3.71563 5.39062 3.68438 5.54688C3.64688 5.72188 3.6125 6.08437 3.59063 6.5C3.57188 6.89062 3.5625 8.13125 3.56875 9.46875C3.57812 11.5938 3.58438 11.7781 3.6375 11.9375C3.66875 12.0312 3.74062 12.2 3.79688 12.3125C3.85625 12.425 3.95625 12.5813 4.02187 12.6594C4.0875 12.7375 4.2125 12.8625 4.29688 12.9344C4.38438 13.0031 4.54375 13.1125 4.65625 13.1687C4.76875 13.2281 4.95 13.3 5.0625 13.3281C5.19063 13.3625 5.37813 13.3813 5.5625 13.3813C5.725 13.3781 5.94375 13.3562 6.04688 13.3281C6.15 13.3031 6.34062 13.2281 6.46875 13.1656C6.64375 13.0812 6.76562 12.9875 6.95312 12.8C7.11875 12.6313 7.2375 12.4781 7.30625 12.3438L7.40625 12.1406C7.175 11.9906 7.05625 11.8844 6.99062 11.8094C6.925 11.7344 6.825 11.5875 6.76562 11.4844C6.70937 11.3813 6.63125 11.2063 6.59375 11.0938C6.5375 10.9312 6.52812 10.8406 6.5375 10.6406C6.54583 10.474 6.57292 10.3406 6.61875 10.2406C6.65625 10.1594 6.75 10.0281 6.825 9.94375C6.9 9.8625 7.0375 9.75937 7.12813 9.71562C7.22188 9.66875 7.375 9.6125 7.46875 9.59062C7.56875 9.56563 7.8 9.55 8.01562 9.55C8.26875 9.55 8.45625 9.56875 8.59375 9.60625C8.70625 9.63437 8.86562 9.69687 8.95 9.74375C9.03438 9.79062 9.15 9.88125 9.20625 9.94375C9.26562 10.0094 9.34062 10.1187 9.375 10.1875C9.40938 10.2563 9.45312 10.4062 9.475 10.5219C9.50625 10.7031 9.50313 10.7656 9.45938 10.9531C9.42813 11.0719 9.36563 11.2563 9.31563 11.3594C9.26562 11.4625 9.1625 11.6313 9.0875 11.7344C9.0125 11.8375 8.87813 11.9719 8.7875 12.0312C8.65625 12.1187 8.62813 12.1531 8.64375 12.2031C8.65312 12.2375 8.71562 12.35 8.775 12.4531C8.8375 12.5562 8.975 12.725 9.08125 12.8281C9.19375 12.9375 9.375 13.0688 9.51875 13.1469C9.65625 13.2188 9.85625 13.3 9.96875 13.3281C10.0938 13.3594 10.2875 13.3813 10.4688 13.3813C10.6344 13.3781 10.85 13.3562 10.9531 13.3313C11.0562 13.3031 11.2437 13.2281 11.3719 13.1625C11.5 13.1 11.6875 12.9688 11.7906 12.875C11.8937 12.7812 12.0437 12.6031 12.1219 12.4844C12.2031 12.3625 12.3031 12.1594 12.3438 12.0312L12.4219 11.7969C12.4219 7.00938 12.4094 6.18125 12.3813 5.95312C12.3594 5.78125 12.3062 5.50625 12.2625 5.34375C12.2188 5.18125 12.1344 4.95625 12.075 4.84375C12.0156 4.73125 11.8969 4.55937 11.8125 4.45937C11.7083 4.34062 11.65 4.24167 11.6375 4.1625C11.6219 4.08125 11.6344 4.00312 11.6781 3.90625C11.7125 3.82188 11.7781 3.7375 11.8438 3.69375C11.9156 3.64687 12 3.625 12.0844 3.625C12.1594 3.625 12.2563 3.64375 12.3031 3.66875C12.3531 3.69062 12.4656 3.79375 12.5594 3.89375C12.65 3.99688 12.775 4.1625 12.8344 4.26562C12.8969 4.36875 12.9844 4.55 13.0312 4.67188C13.0781 4.79063 13.1438 4.98125 13.1719 5.09375C13.2 5.20625 13.2438 5.40938 13.2688 5.54688C13.2937 5.68437 13.3281 6.1125 13.3438 6.5C13.3594 6.8875 13.3813 7.25938 13.3906 7.32812C13.4 7.39687 13.4313 7.55 13.4594 7.67188C13.4844 7.79063 13.5531 7.9875 13.6062 8.10938C13.6625 8.22813 13.7625 8.3875 13.8313 8.45938C13.8969 8.53125 13.9719 8.59062 13.9906 8.59375C14.0188 8.59375 14.0312 8.54375 14.0312 8.44375C14.0312 8.3625 14.0531 8.20938 14.0781 8.1C14.1031 7.99375 14.1625 7.81875 14.2063 7.70937C14.25 7.60313 14.3687 7.39687 14.4688 7.25C14.5656 7.10313 14.6906 6.89687 14.7469 6.7875C14.8 6.68125 14.8906 6.4625 14.9438 6.30312C15.0406 6.02812 15.0469 5.99375 15.0437 5.57812C15.0406 5.20937 15.025 5.09062 14.9563 4.82812C14.9094 4.65625 14.8125 4.3875 14.7375 4.23438C14.6531 4.05625 14.5437 3.8875 14.4344 3.76875C14.2969 3.61875 14.1219 3.5 13.4688 3.10938C13.0312 2.84687 12.4875 2.5375 12.2656 2.41875C12.0437 2.3 11.7125 2.13437 11.5312 2.05312C11.35 1.96875 11.0688 1.85312 10.9062 1.79688C10.7437 1.74063 10.4906 1.67188 10.3438 1.64375C10.1156 1.6 9.7875 1.59375 7.96875 1.59687C6.04688 1.59687 5.83437 1.60312 5.59375 1.65625C5.44688 1.6875 5.2 1.75625 5.04688 1.8125ZM7.5375 10.5594C7.475 10.5938 7.46563 10.6187 7.47813 10.7281C7.48438 10.8062 7.53437 10.9375 7.6 11.0469C7.67812 11.175 7.74687 11.25 7.825 11.2875C7.8875 11.3188 7.975 11.3438 8.02188 11.3438C8.07188 11.3438 8.15625 11.3156 8.20938 11.2812C8.26562 11.2469 8.35312 11.1531 8.40312 11.0688C8.45625 10.9875 8.51562 10.8625 8.5375 10.7875C8.575 10.6656 8.57187 10.65 8.51562 10.5938C8.48125 10.5594 8.375 10.5188 8.28125 10.5C8.1875 10.4812 8.04688 10.4688 7.96875 10.4719C7.89062 10.475 7.77812 10.4844 7.71875 10.4969C7.65938 10.5094 7.57812 10.5375 7.5375 10.5594ZM7.9 13.15C7.84375 13.2312 7.70625 13.3844 7.59375 13.4969C7.48125 13.6062 7.28125 13.7688 7.14687 13.8562L6.9 14.0156C7.0125 14.1062 7.13125 14.175 7.23438 14.2219C7.3375 14.2719 7.52187 14.3344 7.64062 14.3594C7.75938 14.3844 7.91875 14.4062 7.99062 14.4062C8.06563 14.4062 8.23438 14.3844 8.36563 14.3562C8.5 14.3281 8.69375 14.2656 8.79688 14.2156C8.9 14.1625 9.01875 14.0969 9.0625 14.0656L9.14062 14.0063C8.97188 13.9219 8.83125 13.8313 8.71875 13.7469C8.60625 13.6656 8.45 13.5312 8.37187 13.4469C8.29062 13.3656 8.175 13.2312 8.11563 13.15L8.00313 13.0031L7.9 13.15ZM5.54688 7.71875C5.625 7.71875 5.7125 7.74375 5.78125 7.79063C5.84062 7.83125 5.91563 7.9125 5.94375 7.97188C5.975 8.03125 6 8.125 6 8.18125C6 8.2375 5.97188 8.34063 5.9375 8.40938C5.89062 8.5 5.8375 8.55 5.725 8.6C5.62187 8.64688 5.54688 8.6625 5.46875 8.64688C5.40938 8.6375 5.325 8.60312 5.28438 8.57187C5.24375 8.54062 5.18438 8.48125 5.15 8.44063C5.11875 8.39688 5.08437 8.30625 5.075 8.2375C5.0625 8.1375 5.075 8.08437 5.14375 7.97813C5.19063 7.90313 5.27187 7.81563 5.325 7.78125C5.37812 7.74687 5.47813 7.71875 5.54688 7.71875ZM10.3969 7.71875C10.4531 7.72188 10.5469 7.7375 10.6 7.7625C10.6562 7.78437 10.7375 7.85 10.7781 7.90938C10.825 7.975 10.8625 8.075 10.8687 8.15938C10.8781 8.26875 10.8656 8.32188 10.8062 8.40625C10.7656 8.4625 10.6938 8.54063 10.6469 8.57812C10.5844 8.62187 10.5094 8.64375 10.4062 8.64375C10.3031 8.64375 10.2281 8.62188 10.1687 8.58125C10.1219 8.54688 10.0594 8.48125 10.025 8.44063C9.99062 8.39688 9.95937 8.29688 9.95 8.22188C9.9375 8.10313 9.95 8.05937 10.0188 7.95937C10.0625 7.89375 10.1438 7.8125 10.2 7.77812C10.2531 7.74687 10.3438 7.71875 10.3969 7.71875Z" fill="#ACB9CB"/>
</g>
<defs>
<clipPath id="clip0_545_4807">
<rect width="16" height="16" fill="white"/>
</clipPath>
</defs>
</svg>
