<svg width="16" height="16" viewBox="0 0 16 16" fill="none" xmlns="http://www.w3.org/2000/svg">
<path fill-rule="evenodd" clip-rule="evenodd" d="M6.89375 11.85C6.92136 11.85 6.94375 11.8276 6.94375 11.8C6.94375 11.7724 6.92136 11.75 6.89375 11.75C6.86614 11.75 6.84375 11.7724 6.84375 11.8C6.84375 11.8276 6.86614 11.85 6.89375 11.85Z" fill="#ACB9CB"/>
<path fill-rule="evenodd" clip-rule="evenodd" d="M7.19528 12.1221C7.18166 12.1221 7.16916 12.1131 7.16525 12.0994C7.15647 12.0687 7.14837 12.0414 7.14097 12.0163C7.09244 11.8523 7.07031 11.7775 7.07031 11.4658C7.07031 11.4486 7.08431 11.4346 7.10156 11.4346C7.11881 11.4346 7.13281 11.4486 7.13281 11.4658C7.13281 11.7684 7.15275 11.8358 7.20091 11.9985C7.20837 12.0238 7.21653 12.0513 7.22534 12.0822C7.23009 12.0988 7.22047 12.1161 7.20388 12.1209C7.20103 12.1217 7.19813 12.1221 7.19528 12.1221Z" fill="#ACB9CB"/>
<path fill-rule="evenodd" clip-rule="evenodd" d="M6.56497 12.1221C6.56212 12.1221 6.55925 12.1217 6.55637 12.1209C6.53978 12.1161 6.53015 12.0988 6.5349 12.0822C6.54372 12.0513 6.55187 12.0238 6.55934 11.9985C6.6075 11.8358 6.62744 11.7684 6.62744 11.4658C6.62744 11.4486 6.64144 11.4346 6.65869 11.4346C6.67594 11.4346 6.68994 11.4486 6.68994 11.4658C6.68994 11.7775 6.66781 11.8523 6.61928 12.0163C6.61184 12.0414 6.60375 12.0687 6.595 12.0994C6.59109 12.1131 6.57856 12.1221 6.56497 12.1221Z" fill="#ACB9CB"/>
<path fill-rule="evenodd" clip-rule="evenodd" d="M7.25244 12.1596H6.50244C6.48519 12.1596 6.47119 12.1372 6.47119 12.1096C6.47119 12.082 6.48519 12.0596 6.50244 12.0596H7.25244C7.26969 12.0596 7.28369 12.082 7.28369 12.1096C7.28369 12.1372 7.26969 12.1596 7.25244 12.1596Z" fill="#ACB9CB"/>
<path fill-rule="evenodd" clip-rule="evenodd" d="M7.10166 11.5346H6.65869C6.64144 11.5346 6.62744 11.5122 6.62744 11.4846C6.62744 11.457 6.64144 11.4346 6.65869 11.4346H7.10166C7.11891 11.4346 7.13291 11.457 7.13291 11.4846C7.13291 11.5122 7.11891 11.5346 7.10166 11.5346Z" fill="#ACB9CB"/>
<path fill-rule="evenodd" clip-rule="evenodd" d="M6.96855 11.7811C6.96855 11.7819 6.96836 11.7825 6.96833 11.7832H7.0277C7.02683 11.7278 6.99608 11.6797 6.9508 11.6543L6.92383 11.7016C6.95058 11.7181 6.96855 11.7474 6.96855 11.7811Z" fill="#ACB9CB"/>
<path fill-rule="evenodd" clip-rule="evenodd" d="M7.02772 11.8145H6.96834C6.95994 11.8145 6.95187 11.8111 6.946 11.8051C6.94012 11.7991 6.93694 11.791 6.93709 11.7825C6.93712 11.7818 6.93719 11.7808 6.93728 11.7797C6.93681 11.7587 6.92572 11.7395 6.90744 11.7282C6.89309 11.7194 6.88834 11.7008 6.89669 11.6861L6.92369 11.6388C6.93219 11.6239 6.95112 11.6186 6.96612 11.627C7.02237 11.6586 7.05794 11.7183 7.059 11.7827C7.05912 11.7911 7.05591 11.7991 7.05003 11.8051C7.04412 11.8111 7.03609 11.8145 7.02772 11.8145Z" fill="#ACB9CB"/>
<path fill-rule="evenodd" clip-rule="evenodd" d="M6.87488 11.8791C6.85907 11.8791 6.84441 11.8733 6.83135 11.8641L6.80176 11.9338C6.82401 11.9512 6.84976 11.9613 6.87735 11.9613C6.90495 11.9613 6.9307 11.9512 6.95295 11.9338L6.92216 11.8613C6.90823 11.8723 6.89223 11.8791 6.87488 11.8791Z" fill="#ACB9CB"/>
<path fill-rule="evenodd" clip-rule="evenodd" d="M6.87734 11.9671C6.8454 11.9671 6.81381 11.9585 6.78603 11.9423C6.77121 11.9337 6.76612 11.9147 6.77462 11.8998L6.80425 11.8479C6.81259 11.8332 6.83103 11.8278 6.846 11.8357C6.866 11.8463 6.88725 11.8456 6.90634 11.8344C6.91353 11.8301 6.92218 11.829 6.93025 11.8311C6.93834 11.8333 6.94521 11.8386 6.94934 11.8458L6.98012 11.8998C6.98862 11.9147 6.98353 11.9337 6.96871 11.9423C6.94087 11.9585 6.90931 11.9671 6.87734 11.9671Z" fill="#ACB9CB"/>
<path fill-rule="evenodd" clip-rule="evenodd" d="M6.7813 11.7811C6.7813 11.7459 6.80096 11.7155 6.82977 11.6995L6.80396 11.6543C6.75868 11.6797 6.72793 11.7278 6.72705 11.7832H6.78152C6.78149 11.7825 6.7813 11.7819 6.7813 11.7811Z" fill="#ACB9CB"/>
<path fill-rule="evenodd" clip-rule="evenodd" d="M6.78152 11.8145H6.72706C6.71868 11.8145 6.71065 11.8111 6.70477 11.8052C6.6989 11.7992 6.69565 11.7911 6.69581 11.7827C6.69684 11.7183 6.73243 11.6586 6.78868 11.6271C6.80368 11.6186 6.82262 11.6239 6.83112 11.6388L6.85693 11.6841C6.86106 11.6913 6.86215 11.7 6.85987 11.708C6.85762 11.716 6.85224 11.7228 6.84493 11.7269C6.8254 11.7377 6.81309 11.7579 6.81259 11.7798C6.81268 11.7808 6.81274 11.7818 6.81277 11.7825C6.81293 11.7909 6.80974 11.7991 6.80387 11.8051C6.79799 11.8111 6.78993 11.8145 6.78152 11.8145Z" fill="#ACB9CB"/>
<path fill-rule="evenodd" clip-rule="evenodd" d="M6.96094 10.5514C6.96094 10.8275 7.18409 11.0518 7.46094 11.0518C7.73744 11.0518 7.96094 10.8275 7.96094 10.5514C7.96094 10.2753 7.73744 10.0518 7.46094 10.0518C7.18406 10.0517 6.96094 10.2753 6.96094 10.5514Z" fill="#ACB9CB"/>
<path fill-rule="evenodd" clip-rule="evenodd" d="M12.9632 15H13.4998C13.7759 15 13.9998 15.2239 13.9998 15.5C13.9998 15.7761 13.776 16 13.4998 16H12.589H12.5872H12.5858H2.50172H2.50025H2.49853H1.5C1.22387 16 1 15.7761 1 15.5C1 15.2238 1.22387 15 1.5 15H2.12425C2.19272 14.6596 2.25942 14.4691 2.32303 14.2875C2.35287 14.2023 2.38203 14.119 2.41037 14.0231L2.4107 14.022C3.18097 11.4188 3.49997 10.3407 3.49997 5.49994C3.49997 5.22384 3.72384 5 3.99997 5H11.0875C11.3636 5 11.5875 5.22387 11.5875 5.5C11.5875 10.3407 11.9065 11.4188 12.6767 14.0218L12.6771 14.0231C12.7054 14.119 12.7346 14.2023 12.7644 14.2875C12.828 14.4691 12.8947 14.6597 12.9632 15ZM4.49763 6C4.47359 10.5 4.1185 11.7755 3.36934 14.3068C3.34804 14.3788 3.32634 14.4786 3.30427 14.58C3.25933 14.7865 3.21287 15 3.16525 15H11.9222C11.8746 15 11.8281 14.7865 11.7832 14.58C11.7611 14.4786 11.7394 14.3788 11.7181 14.3068C10.969 11.7755 10.6139 10.5 10.5898 6H4.49763Z" fill="#ACB9CB"/>
<path fill-rule="evenodd" clip-rule="evenodd" d="M4.99997 4.49994C5.27609 4.49994 5.49997 4.27606 5.49997 3.99994C5.49997 3.72381 5.27609 3.49994 4.99997 3.49994C4.72434 3.49994 4.49997 3.27556 4.49997 2.99994C4.49972 2.63716 4.91475 2.36981 5.25363 2.57344C5.40378 2.66328 5.58931 2.66744 5.74384 2.58687C5.89838 2.50534 5.99922 2.34909 6.00972 2.17478C6.04978 1.51609 6.59444 1 7.24994 1C7.81413 1 8.30875 1.38428 8.45303 1.93456C8.49672 2.10156 8.62369 2.23413 8.78847 2.28538C8.95325 2.33688 9.13294 2.29906 9.26356 2.18625C9.36194 2.10128 9.526 1.99997 9.74988 1.99997C10.1634 1.99997 10.4999 2.33641 10.4999 2.74997C10.4999 3.16353 10.1635 3.49997 9.74988 3.49997C9.47375 3.49997 9.24988 3.72384 9.24988 3.99997C9.24988 4.27609 9.47375 4.49997 9.74988 4.49997C10.7147 4.49997 11.4998 3.71481 11.4998 2.75C11.4998 1.78519 10.7147 1.00003 9.74988 1.00003C9.55406 1.00003 9.36047 1.03397 9.17688 1.09916C8.77947 0.430656 8.05387 0 7.24994 0C6.27853 0 5.44184 0.625969 5.13375 1.50631C4.26803 1.42575 3.5 2.12838 3.5 2.99994C3.5 3.82709 4.17284 4.49994 4.99997 4.49994Z" fill="#ACB9CB"/>
<path fill-rule="evenodd" clip-rule="evenodd" d="M8.92165 8.08463C8.6819 7.94985 8.37893 8.03457 8.24271 8.27285L7.81084 9.02966C7.67731 9.26379 7.75346 9.56188 7.98296 9.70323C8.27568 9.88341 8.45293 10.1903 8.4605 10.5272C8.45878 10.5435 8.45781 10.5604 8.45731 10.5721C8.45462 10.7066 8.5059 10.7951 8.5999 10.891C8.6939 10.9872 8.82281 10.9998 8.95731 10.9998H9.9075C10.0415 10.9998 10.1699 10.9877 10.2639 10.8923C10.3579 10.7965 10.4097 10.6882 10.4075 10.5542C10.3908 9.52301 9.82153 8.58976 8.92165 8.08463Z" fill="#ACB9CB"/>
<path fill-rule="evenodd" clip-rule="evenodd" d="M8.65145 11.592C8.58529 11.4755 8.47517 11.3909 8.34579 11.3564C8.21689 11.3225 8.0787 11.341 7.96348 11.4087C7.65829 11.5886 7.31823 11.5998 6.99817 11.4304C6.75867 11.3039 6.46376 11.3906 6.3302 11.6247L5.85632 12.4555C5.72032 12.6941 5.80189 12.9973 6.03895 13.1355C6.48376 13.3943 6.98889 13.5312 7.5001 13.5312C8.01157 13.5312 8.51695 13.3943 8.96126 13.1355C9.19832 12.9973 9.27985 12.6941 9.14389 12.4558L8.65145 11.592Z" fill="#ACB9CB"/>
<path fill-rule="evenodd" clip-rule="evenodd" d="M6.32135 10.8914C6.41535 10.7955 6.4666 10.6862 6.46395 10.5517C6.46345 10.5405 6.46223 10.534 6.46076 10.5179C6.46882 10.1681 6.6656 9.85051 6.97832 9.67695C7.09526 9.61226 7.1812 9.50573 7.21732 9.37707C7.25345 9.24841 7.23635 9.11201 7.1702 8.99582L6.75735 8.2726C6.62135 8.03432 6.31863 7.94995 6.07841 8.0847C5.17829 8.58982 4.60895 9.54432 4.59235 10.5753C4.59016 10.7093 4.64191 10.7969 4.73591 10.8926C4.82991 10.9881 4.95832 11.0002 5.09235 11.0002H5.96391C6.09845 11.0002 6.22735 10.9876 6.32135 10.8914Z" fill="#ACB9CB"/>
</svg>
