<svg width="16" height="16" viewBox="0 0 16 16" fill="none" xmlns="http://www.w3.org/2000/svg">
<g clip-path="url(#clip0_546_5014)">
<path fill-rule="evenodd" clip-rule="evenodd" d="M1.42188 0.003125L3.75 0V1.3125H16V16H1.79688L1.57812 15.9344C1.45625 15.8969 1.24688 15.8094 1.10938 15.7406C0.93125 15.6469 0.790625 15.5406 0.625 15.375C0.459375 15.2094 0.353125 15.0688 0.259375 14.8906C0.190625 14.7531 0.103125 14.5437 0.065625 14.4219C0 14.2031 0 14.1969 0 1.45312L0.078125 1.21875C0.121875 1.09063 0.196875 0.921875 0.240625 0.84375C0.2875 0.765625 0.39375 0.628125 0.48125 0.5375C0.56875 0.44375 0.709375 0.325 0.796875 0.271875C0.88125 0.215625 1.05938 0.134375 1.1875 0.0875L1.42188 0.003125ZM1.16875 1.16875C1.09375 1.24375 1.02188 1.35938 0.990625 1.45312C0.940625 1.59687 0.9375 1.99062 0.9375 6.86562V12.125C1.3375 11.9312 1.55 11.8531 1.67188 11.8281C1.80625 11.8 2.06563 11.7812 2.35313 11.7812H2.8125V0.9375C1.7125 0.940625 1.54688 0.953125 1.4375 0.99375C1.35938 1.01875 1.24063 1.1 1.16875 1.16875ZM3.75 12.7188L1.82812 12.7344C1.5125 12.8844 1.35938 12.9906 1.28437 13.0656C1.20937 13.1406 1.10312 13.2937 1.05 13.4062C0.9625 13.5875 0.953125 13.6375 0.953125 13.8906C0.953125 14.1313 0.965625 14.2 1.04062 14.3594C1.09062 14.4656 1.2 14.6188 1.29062 14.7094C1.3875 14.8063 1.53125 14.9094 1.64062 14.9594L1.82812 15.0469L15.0625 15.0625V2.25H3.75V12.7188ZM9.40625 3.21875C9.41562 3.21875 10.1562 3.8125 12.6906 5.85938L12.6875 10.3438H6.125L6.1125 5.85313L7.75 4.5375C8.65312 3.8125 9.39688 3.21875 9.40625 3.21875ZM7.97813 5.59062C7.97188 5.61562 8.41875 5.625 9.40625 5.625C10.1969 5.625 10.8438 5.61562 10.8438 5.6C10.8469 5.5875 10.5281 5.32188 10.1406 5.00625C9.75313 4.69375 9.41875 4.4375 9.4 4.44063C9.37812 4.44063 9.05 4.69375 8.67188 5C8.29375 5.30625 7.98125 5.575 7.97813 5.59062ZM7.0625 9.40625H8.9375V8H9.875V9.40625H11.75V6.5625H7.0625V9.40625ZM6.125 11.2812H12.6875V12.2188H6.125V11.2812ZM6.125 13.1562H12.6875V14.0938H6.125V13.1562Z" fill="#ACB9CB"/>
</g>
<defs>
<clipPath id="clip0_546_5014">
<rect width="16" height="16" fill="white"/>
</clipPath>
</defs>
</svg>
