<svg width="17" height="16" viewBox="0 0 17 16" fill="none" xmlns="http://www.w3.org/2000/svg">
<path fill-rule="evenodd" clip-rule="evenodd" d="M12.6861 8.85098C12.6861 11.1794 10.8121 13.0672 8.50001 13.0672C6.18827 13.0672 4.31396 11.1794 4.31396 8.85098C4.31396 6.52222 6.18827 4.63477 8.50001 4.63477C10.8121 4.63477 12.6861 6.52222 12.6861 8.85098Z" stroke="#ACB9CB" stroke-width="1.04651" stroke-linecap="round"/>
<path fill-rule="evenodd" clip-rule="evenodd" d="M15.1278 4.28389H13.3836L12.845 2.65608C12.7501 2.36938 12.4833 2.17578 12.1833 2.17578H4.81653C4.51653 2.17578 4.24967 2.36938 4.15478 2.65608L3.61618 4.28389H1.87199C1.48687 4.28389 1.17432 4.5987 1.17432 4.98659V14.1217C1.17432 14.5096 1.48687 14.8244 1.87199 14.8244H15.1278C15.5129 14.8244 15.8255 14.5096 15.8255 14.1217V4.98659C15.8255 4.5987 15.5129 4.28389 15.1278 4.28389Z" stroke="#ACB9CB" stroke-width="1.04651" stroke-linecap="round"/>
<path fill-rule="evenodd" clip-rule="evenodd" d="M10.3444 7.66356V7.66356C9.93698 7.2697 9.27628 7.2697 8.86919 7.66356L8.50012 8.02054L8.1314 7.66391C7.72396 7.27005 7.06361 7.27005 6.65617 7.66391C6.24873 8.05778 6.24873 8.69618 6.65617 9.09075L8.50012 10.8739L10.3444 9.0904C10.7515 8.69618 10.7515 8.05743 10.3444 7.66356Z" stroke="#ACB9CB" stroke-width="1.04651" stroke-linecap="round"/>
</svg>
