<svg width="16" height="18" viewBox="0 0 16 18" fill="none" xmlns="http://www.w3.org/2000/svg">
<path fill-rule="evenodd" clip-rule="evenodd" d="M13.3574 2.14342C13.3574 2.14342 11.7851 1.51551 8.49962 1.17773C5.21448 1.51551 3.64218 2.14342 3.64218 2.14342C3.82981 4.15942 2.17529 4.95622 2.17529 4.95622C2.371 14.5488 8.49962 16.8222 8.49962 16.8222C8.49962 16.8222 14.6286 14.5488 14.8239 4.95622C14.8239 4.95622 13.1698 4.15942 13.3574 2.14342Z" stroke="#ACB9CB" stroke-width="1.06667" stroke-linecap="round" stroke-linejoin="round"/>
<path fill-rule="evenodd" clip-rule="evenodd" d="M11.6622 7.9334C11.6622 9.70051 10.2466 11.1334 8.50005 11.1334C6.75349 11.1334 5.33789 9.70051 5.33789 7.9334C5.33789 6.16593 6.75349 4.7334 8.50005 4.7334C10.2466 4.7334 11.6622 6.16593 11.6622 7.9334Z" stroke="#ACB9CB" stroke-width="1.06667" stroke-linecap="round" stroke-linejoin="round"/>
<path d="M7.09473 7.5783L8.14878 8.64497L9.90554 6.86719" stroke="#ACB9CB" stroke-width="1.06667" stroke-linecap="round" stroke-linejoin="round"/>
</svg>
