<svg width="16" height="16" viewBox="0 0 16 16" fill="none" xmlns="http://www.w3.org/2000/svg">
<path fill-rule="evenodd" clip-rule="evenodd" d="M14.6503 5.59441L15.7952 6.40087C16.3114 6.76498 15.749 7.51729 15.2413 7.15978L14.3989 6.56614V14.5203C14.3989 14.778 14.186 14.9872 13.9237 14.9872H2.07435C1.81202 14.9872 1.59913 14.778 1.59913 14.5203V6.56614L0.756726 7.15978C0.24696 7.51921 -0.308093 6.76114 0.202893 6.40087L1.34827 5.59401L7.72218 1.10314C7.88746 0.986452 8.11061 0.986452 8.27589 1.10314L14.6503 5.59441ZM12.3208 14.0538H13.4484V5.89714L7.99902 2.05762L2.54956 5.89714V14.0538H3.67725V6.68579C3.67725 6.42782 3.89014 6.2189 4.15247 6.2189H11.8456C12.1079 6.2189 12.3208 6.42782 12.3208 6.68579V14.0538ZM4.6277 8.58694H7.52382V10.1358H4.6277V8.58694ZM7.5238 11.0693H4.62769V11.5705H7.5238V11.0693ZM8.47424 11.0693H11.3704V11.5705H8.47424V11.0693ZM8.47426 10.1358H11.3704V8.58694H8.47426V10.1358ZM11.3704 7.65317H8.47426V7.15235H11.3704V7.65317ZM4.6277 7.65317H7.52382V7.15235H4.6277V7.65317ZM4.62769 12.5049H7.5238V14.0538H4.62769V12.5049ZM11.3705 12.5049H8.47437V14.0538H11.3705V12.5049Z" fill="#ACB9CB"/>
<path fill-rule="evenodd" clip-rule="evenodd" d="M7.99878 5.85324C7.22131 5.85324 6.58887 5.23201 6.58887 4.46818C6.58887 3.70436 7.22131 3.08301 7.99878 3.08301C8.77625 3.08301 9.40869 3.70436 9.40869 4.46818C9.40869 5.23201 8.77625 5.85324 7.99878 5.85324ZM7.99878 4.91948C8.2522 4.91948 8.45813 4.71716 8.45813 4.46818C8.45813 4.21909 8.2522 4.01677 7.99878 4.01677C7.74536 4.01677 7.53943 4.21909 7.53943 4.46818C7.53943 4.71716 7.74536 4.91948 7.99878 4.91948Z" fill="#ACB9CB"/>
</svg>
