<svg width="16" height="16" viewBox="0 0 16 16" fill="none" xmlns="http://www.w3.org/2000/svg">
<g clip-path="url(#clip0_545_4908)">
<path fill-rule="evenodd" clip-rule="evenodd" d="M0 0H16L15.9844 8.51562L8.46875 8.53125V9.53125H14.5312V11.4062H13.5938V10.4688H8.46875V11.4062H7.53125V10.4688H2.375V11.4062H1.4375V9.53125H7.53125V8.53125L0.015625 8.51562L0 0ZM0.9375 2.375C1.04688 2.34687 1.19687 2.28125 1.34375 2.2125C1.55 2.10938 1.6625 2.03125 1.84375 1.84687C2.00938 1.67812 2.1125 1.54062 2.19688 1.375C2.25938 1.24688 2.325 1.09375 2.3375 1.0375L2.35938 0.9375H0.9375V2.375ZM3.28125 1.11563C3.2625 1.21563 3.20312 1.40313 3.15313 1.53125C3.10313 1.65937 3.00625 1.85625 2.94062 1.96875C2.875 2.08125 2.70938 2.29063 2.575 2.43438C2.44062 2.57812 2.24375 2.75625 2.14062 2.83125C2.0375 2.90313 1.84063 3.01875 1.70312 3.08437C1.56562 3.14687 1.34063 3.23125 1.20312 3.26875L0.953125 3.33437C0.940625 4.98125 0.946875 5.19062 0.978125 5.2C0.996875 5.20625 1.15625 5.25625 1.32812 5.30937C1.5 5.3625 1.75938 5.47187 1.90313 5.55312C2.06562 5.64375 2.27188 5.8 2.43125 5.95312C2.57812 6.09062 2.775 6.32188 2.87188 6.46875C2.97187 6.61562 3.09375 6.84688 3.14687 6.98438C3.2 7.12187 3.2625 7.31563 3.2875 7.41563L3.32812 7.59375H12.6719C12.7594 7.24375 12.8281 7.03438 12.8844 6.90625C12.9406 6.77812 13.0437 6.5875 13.1094 6.48438C13.1781 6.38125 13.3188 6.20625 13.4219 6.09688C13.525 5.9875 13.7 5.82812 13.8125 5.74375C13.925 5.65938 14.1281 5.53437 14.2656 5.46562C14.4031 5.4 14.6344 5.3125 14.7812 5.26875L15.0469 5.19375V3.33437C14.6344 3.22187 14.4094 3.1375 14.2812 3.075C14.1531 3.01562 13.9625 2.90313 13.8594 2.82812C13.7563 2.75625 13.5656 2.58438 13.4375 2.45C13.3062 2.3125 13.1406 2.10313 13.0688 1.98438C12.9969 1.8625 12.8969 1.65937 12.8469 1.53125C12.7969 1.40313 12.7375 1.21563 12.7156 1.11563L12.6719 0.9375H3.32188L3.28125 1.11563ZM13.6656 1.0375C13.6781 1.09375 13.7375 1.24375 13.8 1.37188C13.8844 1.54375 13.9812 1.67188 14.1531 1.84375C14.3344 2.02813 14.45 2.10938 14.6531 2.20937C14.8 2.28125 14.9531 2.34687 14.9906 2.35625L15.0594 2.37188V0.934375H13.6438L13.6656 1.0375ZM0.9375 7.59375H2.375C2.275 7.31563 2.20312 7.15625 2.15 7.0625C2.09375 6.96875 1.94687 6.7875 1.82187 6.6625C1.65 6.49375 1.52813 6.40625 1.33438 6.3125C1.19375 6.24375 1.04688 6.1875 1.00625 6.1875H0.9375V7.59375ZM14.1687 6.67188C14.0469 6.79063 13.9031 6.96875 13.85 7.0625C13.7969 7.15625 13.725 7.31562 13.6875 7.4125L13.625 7.59375H15.0625V6.1875C14.9531 6.1875 14.8031 6.24687 14.6562 6.31875C14.4625 6.41563 14.3313 6.5125 14.1687 6.67188ZM2 12.2031C2.12812 12.2125 2.3125 12.2406 2.40625 12.2688C2.5 12.2969 2.675 12.3687 2.79688 12.4312C2.9375 12.5031 3.09375 12.6219 3.23438 12.7625C3.39062 12.9187 3.49063 13.0562 3.57188 13.2188C3.6375 13.3469 3.70937 13.5312 3.73438 13.625C3.75938 13.7188 3.78125 13.9312 3.78125 14.0938C3.78125 14.2563 3.75938 14.4688 3.73438 14.5625C3.70937 14.6562 3.6375 14.8406 3.57188 14.9688C3.49063 15.1313 3.39062 15.2688 3.23438 15.425C3.09375 15.5656 2.9375 15.6844 2.79688 15.7563C2.675 15.8188 2.47813 15.8969 2.35938 15.9344C2.225 15.9719 2.05 16 1.9125 16C1.79062 16 1.6 15.9781 1.49063 15.95C1.38437 15.9219 1.19687 15.8531 1.07812 15.7969C0.95625 15.7375 0.79375 15.6375 0.715625 15.5719C0.6375 15.5062 0.53125 15.4031 0.478125 15.3438C0.425 15.2844 0.328125 15.15 0.265625 15.0469C0.203125 14.9438 0.11875 14.7469 0.078125 14.6094C0.021875 14.4344 0 14.2844 0 14.1094C0 13.95 0.021875 13.7719 0.065625 13.625C0.1 13.4969 0.171875 13.3125 0.221875 13.2188C0.271875 13.125 0.365625 12.9812 0.428125 12.9031C0.49375 12.825 0.615625 12.7 0.703125 12.6281C0.7875 12.5563 0.965625 12.4469 1.09375 12.3844C1.22187 12.3219 1.425 12.2531 1.54688 12.2312C1.66562 12.2063 1.87188 12.1969 2 12.2031ZM1.46875 13.2344C1.41562 13.2594 1.31563 13.3344 1.24688 13.3969C1.175 13.4625 1.08125 13.5844 1.03437 13.6719C0.965625 13.8031 0.953125 13.8687 0.953125 14.0938C0.953125 14.3188 0.965625 14.3844 1.03437 14.5156C1.08125 14.6 1.17812 14.7281 1.25312 14.7937C1.32812 14.8625 1.45312 14.9469 1.53125 14.9812C1.625 15.0219 1.74375 15.0437 1.89062 15.0437C2.075 15.0469 2.14375 15.0312 2.3125 14.95C2.43438 14.8906 2.55625 14.8031 2.61562 14.7312C2.66875 14.6625 2.74063 14.5469 2.77813 14.4688C2.825 14.3656 2.84063 14.2656 2.84063 14.0938C2.84063 13.9219 2.825 13.8219 2.77813 13.7188C2.74063 13.6406 2.66875 13.525 2.61562 13.4563C2.55937 13.3875 2.43438 13.2969 2.32812 13.2469C2.21563 13.1906 2.07188 13.15 1.96875 13.1406C1.875 13.1344 1.74375 13.1406 1.67813 13.1562C1.61563 13.175 1.51875 13.2094 1.46875 13.2344ZM8.09375 12.2063C8.22188 12.2125 8.40625 12.2406 8.5 12.2656C8.59375 12.2906 8.7625 12.3563 8.87187 12.4125C8.98125 12.4688 9.1625 12.6 9.275 12.7031C9.38437 12.8062 9.53125 12.975 9.59688 13.0781C9.66563 13.1812 9.75625 13.3781 9.80313 13.5156C9.86875 13.7219 9.88437 13.825 9.88437 14.0938C9.88437 14.3625 9.86875 14.4656 9.80313 14.6719C9.75625 14.8094 9.66563 15.0063 9.59688 15.1094C9.53125 15.2125 9.38437 15.3813 9.275 15.4844C9.1625 15.5875 8.98125 15.7188 8.87187 15.775C8.7625 15.8281 8.56875 15.9031 8.44375 15.9375C8.31563 15.9719 8.12187 16 7.99062 16C7.82812 16 7.68437 15.975 7.46875 15.9062C7.30312 15.8562 7.09062 15.7594 6.98438 15.6906C6.88125 15.625 6.71875 15.4875 6.625 15.3875C6.53125 15.2844 6.40938 15.125 6.35313 15.0312C6.3 14.9375 6.22187 14.7531 6.18437 14.625C6.13125 14.45 6.1125 14.3156 6.1125 14.0938C6.1125 13.8719 6.13125 13.7375 6.18437 13.5625C6.22187 13.4344 6.3 13.25 6.35313 13.1562C6.40938 13.0625 6.53125 12.9031 6.625 12.8C6.71875 12.7 6.875 12.5688 6.96875 12.5063C7.0625 12.4438 7.22813 12.3594 7.33437 12.3219C7.44375 12.2812 7.60625 12.2375 7.69375 12.2219C7.78437 12.2031 7.96562 12.1969 8.09375 12.2063ZM7.45312 13.3156C7.36562 13.375 7.25 13.4937 7.19375 13.5781C7.1375 13.6656 7.07812 13.8094 7.05937 13.9062C7.04062 14 7.03437 14.1406 7.04375 14.2188C7.05625 14.2969 7.1 14.4281 7.1375 14.5156C7.17812 14.6 7.27188 14.725 7.34688 14.7906C7.42188 14.8562 7.54688 14.9406 7.625 14.9781C7.73125 15.0281 7.82188 15.0469 8 15.0469C8.19063 15.0469 8.26562 15.0312 8.40625 14.9625C8.5 14.9187 8.63437 14.8187 8.7 14.7437C8.76875 14.6719 8.85312 14.5469 8.8875 14.4688C8.93125 14.3687 8.95 14.2625 8.95 14.0938C8.95 13.925 8.93125 13.8188 8.8875 13.7188C8.85312 13.6406 8.76875 13.5156 8.7 13.4438C8.63437 13.3688 8.50625 13.2719 8.42188 13.2312C8.33438 13.1906 8.18125 13.15 8.07812 13.1406C7.97188 13.1313 7.82812 13.1437 7.75 13.1656C7.67188 13.1875 7.5375 13.2531 7.45312 13.3156ZM14.0781 12.1938C14.1469 12.1906 14.3156 12.2094 14.4531 12.2344C14.5906 12.2594 14.7875 12.3219 14.8906 12.3687C14.9937 12.4187 15.15 12.5156 15.2406 12.5813C15.3281 12.6469 15.45 12.7594 15.5094 12.8281C15.5687 12.8969 15.6687 13.0375 15.7312 13.1406C15.7937 13.2437 15.8813 13.4406 15.9219 13.5781C15.975 13.7531 16 13.9031 16 14.0781C16 14.2375 15.975 14.4156 15.9344 14.5625C15.9 14.6906 15.8281 14.875 15.7781 14.9688C15.7281 15.0625 15.6281 15.2125 15.5531 15.3031C15.4813 15.3938 15.3438 15.525 15.25 15.5969C15.1562 15.6687 15.0125 15.7594 14.9281 15.8C14.8469 15.8406 14.675 15.9031 14.5469 15.9375C14.4125 15.9719 14.2156 16 14.0844 16C13.9469 16 13.7719 15.9719 13.6406 15.9344C13.5188 15.8969 13.3219 15.8188 13.2031 15.7563C13.0656 15.6844 12.9031 15.5594 12.7625 15.4219C12.6062 15.2688 12.5094 15.1344 12.4281 14.9688C12.3625 14.8406 12.2906 14.6562 12.2656 14.5625C12.2406 14.4688 12.2188 14.2563 12.2188 14.0938C12.2188 13.9312 12.2406 13.7188 12.2656 13.625C12.2906 13.5312 12.3625 13.3469 12.4281 13.2188C12.5094 13.0531 12.6062 12.9187 12.7625 12.7656C12.9031 12.6281 13.0656 12.5031 13.2031 12.4312C13.3219 12.3687 13.5 12.2969 13.5938 12.2688C13.6875 12.2438 13.8062 12.2156 13.8594 12.2094C13.9094 12.2031 14.0094 12.1938 14.0781 12.1938ZM13.5844 13.2906C13.5031 13.3375 13.4031 13.4219 13.3625 13.475C13.3188 13.5312 13.2563 13.6406 13.2219 13.7188C13.175 13.8188 13.1562 13.925 13.1562 14.0938C13.1562 14.2906 13.1687 14.3594 13.2469 14.5156C13.2969 14.6187 13.3844 14.7437 13.4406 14.7937C13.5 14.8438 13.625 14.9219 13.7188 14.9656C13.8531 15.0281 13.9375 15.0469 14.1094 15.0437C14.2563 15.0437 14.3719 15.0219 14.4688 14.9812C14.5469 14.9469 14.6719 14.8625 14.7469 14.7937C14.8219 14.7281 14.9187 14.6 14.9625 14.5156C15.0344 14.3844 15.0469 14.3188 15.0469 14.0938C15.0469 13.8687 15.0344 13.8031 14.9625 13.6719C14.9187 13.5844 14.8219 13.4594 14.7469 13.3938C14.6719 13.325 14.5531 13.2437 14.4844 13.2125C14.4156 13.1844 14.275 13.15 14.1719 13.1406C14.0594 13.1313 13.9344 13.1406 13.8594 13.1656C13.7906 13.1875 13.6688 13.2437 13.5844 13.2906ZM8.10938 1.70312C8.31771 1.71146 8.5125 1.74271 8.69375 1.79688C8.84688 1.84063 9.04375 1.9125 9.13125 1.95625C9.22188 2.00312 9.38125 2.1 9.48438 2.17188C9.5875 2.24375 9.7625 2.4 9.875 2.51875C9.9875 2.6375 10.1375 2.83437 10.2094 2.95312C10.2812 3.075 10.3844 3.30625 10.4406 3.46875C10.5437 3.75625 10.5469 3.78125 10.5469 4.26562C10.5469 4.75 10.5406 4.775 10.4438 5.0625C10.3875 5.225 10.2812 5.45937 10.2094 5.57812C10.1375 5.7 9.98125 5.9 9.85938 6.02812C9.74063 6.15312 9.55625 6.31563 9.45312 6.38438C9.35 6.45625 9.16562 6.55625 9.04688 6.6125C8.925 6.66563 8.72812 6.7375 8.60938 6.76875C8.45312 6.80938 8.275 6.825 8 6.825C7.725 6.825 7.55 6.80937 7.40625 6.77187C7.29375 6.74062 7.11875 6.68125 7.01562 6.6375C6.9125 6.59687 6.75 6.51562 6.65625 6.45937C6.5625 6.40625 6.35625 6.23438 6.2 6.07812C6.025 5.90625 5.86562 5.7125 5.7875 5.57812C5.71562 5.45937 5.6125 5.225 5.55625 5.0625C5.45625 4.775 5.45312 4.75 5.45312 4.26562C5.45312 3.78125 5.45625 3.75625 5.55625 3.46875C5.6125 3.30625 5.71875 3.075 5.79063 2.95312C5.8625 2.83437 6.0125 2.6375 6.125 2.51875C6.2375 2.4 6.4125 2.24375 6.51562 2.17188C6.61875 2.1 6.77187 2.00312 6.85938 1.95938C6.94375 1.91562 7.12187 1.85 7.25 1.8125C7.37813 1.77188 7.55312 1.72813 7.64062 1.71563C7.725 1.70312 7.9375 1.69687 8.10938 1.70312ZM7.28125 2.80312C7.11562 2.88437 6.9875 2.97813 6.84375 3.12188C6.72188 3.24688 6.60313 3.40313 6.55 3.51562C6.5 3.61875 6.44063 3.775 6.41563 3.85938C6.39375 3.94688 6.375 4.12813 6.375 4.26562C6.375 4.40312 6.39687 4.59375 6.42188 4.6875C6.44688 4.78125 6.50625 4.9375 6.55312 5.03125C6.6 5.125 6.73125 5.29375 6.84375 5.40938C6.9875 5.55313 7.11562 5.65 7.28125 5.72813C7.425 5.8 7.60313 5.85625 7.75 5.88125C7.93125 5.90937 8.04062 5.90938 8.23438 5.87813C8.39688 5.85625 8.56563 5.80312 8.71875 5.72813C8.8875 5.64687 9.00937 5.55625 9.15625 5.40938C9.26875 5.29375 9.39688 5.125 9.44375 5.03125C9.49375 4.9375 9.55313 4.78125 9.57812 4.6875C9.60312 4.59375 9.625 4.4 9.625 4.25938C9.625 4.0625 9.60625 3.94063 9.54375 3.75938C9.5 3.625 9.4125 3.44062 9.34688 3.34687C9.28438 3.25312 9.1625 3.11563 9.07812 3.04063C8.99063 2.96563 8.82187 2.85625 8.70312 2.79688C8.58125 2.74062 8.4 2.67812 8.29688 2.65937C8.19375 2.64062 8.04688 2.625 7.96875 2.62812C7.89062 2.63125 7.75625 2.64375 7.67188 2.6625C7.58437 2.67812 7.40938 2.74062 7.28125 2.80312Z" fill="#ACB9CB"/>
</g>
<defs>
<clipPath id="clip0_545_4908">
<rect width="16" height="16" fill="white"/>
</clipPath>
</defs>
</svg>
