<svg width="16" height="16" viewBox="0 0 16 16" fill="none" xmlns="http://www.w3.org/2000/svg">
<g clip-path="url(#clip0_545_4911)">
<path fill-rule="evenodd" clip-rule="evenodd" d="M8.17192 0.00292969L12.0125 2.82168C14.125 4.37168 15.8844 5.68106 15.9188 5.72793C15.9688 5.79356 15.9844 5.86231 15.9844 5.9998C15.9844 6.13418 15.9688 6.20606 15.9219 6.26856C15.8875 6.31231 15.8188 6.38105 15.7719 6.41856C15.7063 6.46855 15.6375 6.48418 15.5032 6.48418C15.3469 6.48418 15.3063 6.46856 15 6.24981V10.4779C15 14.1748 14.9938 14.7279 14.95 14.9061C14.925 15.0186 14.8625 15.1811 14.8125 15.2654C14.7657 15.3529 14.6407 15.4998 14.5407 15.5967C14.4407 15.6936 14.3094 15.7967 14.25 15.8279C14.1907 15.8592 14.0625 15.9092 13.9688 15.9436C13.8032 15.9998 13.5813 15.9998 8.00004 15.9998C2.48442 15.9998 2.19379 15.9967 2.03129 15.9404C1.93754 15.9092 1.79692 15.8467 1.71879 15.8029C1.64067 15.7592 1.50942 15.6561 1.42817 15.5717C1.34379 15.4904 1.23754 15.3529 1.18754 15.2654C1.13754 15.1811 1.07504 15.0186 1.05004 14.9061C1.00629 14.7279 1.00004 14.1748 1.00004 6.24981L0.850042 6.35918C0.768792 6.42168 0.653167 6.47793 0.593792 6.48731C0.534417 6.49981 0.434417 6.49668 0.375042 6.48418C0.312542 6.47168 0.218792 6.41231 0.153167 6.34668C0.0760837 6.27168 0.0302503 6.19251 0.015667 6.10918C0.003167 6.04043 0.003167 5.93731 0.012542 5.88418C0.021917 5.82793 0.078167 5.73418 0.131292 5.67481C0.187542 5.61543 1.90004 4.34981 3.93754 2.85918C5.97504 1.36855 7.68129 0.11543 7.73442 0.0748047C7.80629 0.0185547 7.86879 0.00292969 8.17192 0.00292969ZM2.00317 5.51543L1.99692 14.6717C2.10942 14.8404 2.19067 14.9154 2.25004 14.9436C2.35317 14.9967 2.69067 14.9998 8.00004 14.9998C13.3094 14.9998 13.6469 14.9967 13.7469 14.9436C13.8063 14.9154 13.8844 14.8498 13.9188 14.8029C13.9844 14.7154 13.9844 14.7123 13.9907 10.1154L14 5.51543C9.37192 2.1248 8.01879 1.1373 8.00629 1.13418C7.99379 1.13105 6.63754 2.11543 4.99379 3.32168L2.00317 5.51543ZM8.10942 6.51543C8.35004 6.52168 8.66567 6.54981 8.81254 6.57793C8.95942 6.60606 9.19692 6.67168 9.34379 6.71856C9.49067 6.76543 9.72817 6.86543 9.87504 6.93731C10.0219 7.01231 10.2313 7.13106 10.3438 7.20606C10.4563 7.27793 10.6594 7.43418 10.7969 7.55293C10.9719 7.70293 11.0625 7.80606 11.1032 7.90606C11.1469 8.00918 11.1594 8.08106 11.1438 8.17168C11.1313 8.24043 11.0844 8.34668 11.0375 8.40293C10.9907 8.46231 10.9094 8.53106 10.8532 8.55293C10.7969 8.57481 10.6969 8.59356 10.6344 8.59356C10.5688 8.59043 10.4875 8.57481 10.45 8.55293C10.4157 8.53418 10.2782 8.42481 10.1469 8.31231C10.0157 8.19981 9.79067 8.03731 9.65004 7.95293C9.49692 7.85918 9.25004 7.74981 9.04692 7.68106C8.85942 7.61856 8.57817 7.54981 8.42192 7.52793C8.25317 7.50606 8.00942 7.4998 7.81254 7.51231C7.63129 7.52168 7.37817 7.55918 7.25004 7.59043C7.12192 7.62168 6.90317 7.69356 6.76567 7.74668C6.62817 7.79981 6.40942 7.91231 6.28129 7.99356C6.15317 8.07793 5.96254 8.21856 5.85942 8.31231C5.75629 8.40293 5.63129 8.50293 5.57817 8.53418C5.52817 8.56856 5.43129 8.59356 5.36879 8.59356C5.30317 8.59356 5.20629 8.57481 5.15004 8.55293C5.09379 8.53106 5.00942 8.46231 4.96254 8.40293C4.91567 8.34668 4.86879 8.24043 4.85942 8.17168C4.84379 8.08106 4.85317 8.00918 4.89692 7.90606C4.93754 7.81231 5.02817 7.70293 5.17504 7.57793C5.29379 7.47481 5.49692 7.31856 5.62504 7.23106C5.75317 7.14356 5.97192 7.01543 6.10942 6.94668C6.24692 6.87481 6.48754 6.77793 6.64067 6.72481C6.79692 6.67168 7.04067 6.60918 7.18754 6.58106C7.33442 6.55606 7.50317 6.52793 7.56254 6.51856C7.62192 6.51231 7.86879 6.50918 8.10942 6.51543ZM8.09379 8.26543C8.29067 8.27168 8.53754 8.29981 8.64067 8.32793C8.74379 8.35606 8.94067 8.43418 9.07817 8.49981C9.21567 8.56543 9.43442 8.69981 9.56254 8.80293C9.70317 8.91543 9.81879 9.0373 9.85317 9.10293C9.88129 9.16856 9.90629 9.27793 9.90629 9.35293C9.90942 9.43731 9.88442 9.52168 9.83754 9.59356C9.79692 9.65293 9.70317 9.73418 9.62504 9.77481C9.50942 9.83418 9.45942 9.84356 9.34379 9.82481C9.25629 9.80918 9.15942 9.76231 9.07817 9.69668C9.00942 9.64043 8.89067 9.54981 8.81254 9.49981C8.73442 9.44668 8.59379 9.37481 8.50004 9.33731C8.36254 9.28106 8.26254 9.26856 8.00004 9.26856C7.73754 9.26856 7.63754 9.28106 7.50004 9.33731C7.40629 9.37481 7.26567 9.44668 7.18754 9.49981C7.10942 9.54981 6.99067 9.64043 6.92192 9.69668C6.84379 9.76231 6.74692 9.80918 6.65629 9.82481C6.54067 9.84356 6.49067 9.83418 6.37504 9.77481C6.29692 9.73418 6.20317 9.65293 6.16254 9.59356C6.11879 9.52168 6.09379 9.43731 6.09379 9.35293C6.09379 9.27793 6.11879 9.16856 6.15004 9.10606C6.17817 9.04356 6.29379 8.91856 6.40629 8.82793C6.51879 8.73731 6.70004 8.61231 6.81254 8.55293C6.92504 8.49043 7.10317 8.41231 7.21254 8.37793C7.31879 8.34043 7.48129 8.29981 7.57192 8.28418C7.66254 8.26543 7.89692 8.25918 8.09379 8.26543ZM7.98442 10.5029C8.05317 10.4998 8.17817 10.5248 8.26254 10.5529C8.36671 10.5904 8.46046 10.6571 8.54379 10.7529C8.61567 10.8311 8.69067 10.9498 8.70942 11.0186C8.73129 11.0842 8.75004 11.1904 8.75004 11.2498C8.75004 11.3092 8.73129 11.4154 8.70942 11.4811C8.69067 11.5498 8.61567 11.6686 8.54379 11.7467C8.46046 11.8425 8.36671 11.9092 8.26254 11.9467C8.17817 11.9748 8.05942 11.9998 8.00004 11.9998C7.94067 11.9998 7.83442 11.9811 7.76567 11.9623C7.69067 11.9373 7.58129 11.8623 7.48442 11.7654C7.38754 11.6717 7.31254 11.5623 7.28754 11.4842C7.26879 11.4154 7.25004 11.3092 7.25004 11.2498C7.25004 11.1904 7.26879 11.0842 7.28754 11.0154C7.31254 10.9404 7.38754 10.8279 7.48442 10.7342C7.56879 10.6467 7.69067 10.5592 7.75004 10.5404C7.80942 10.5217 7.91567 10.5061 7.98442 10.5029Z" fill="#ACB9CB"/>
</g>
<defs>
<clipPath id="clip0_545_4911">
<rect width="16" height="16" fill="white"/>
</clipPath>
</defs>
</svg>
