<svg width="16" height="16" viewBox="0 0 16 16" fill="none" xmlns="http://www.w3.org/2000/svg">
<g clip-path="url(#clip0_545_4923)">
<path fill-rule="evenodd" clip-rule="evenodd" d="M14.8281 0.03125L15.0312 0.103125C15.1438 0.14375 15.2969 0.21875 15.375 0.271875C15.4531 0.321875 15.575 0.434375 15.65 0.51875C15.725 0.603125 15.8125 0.734375 15.85 0.8125C15.8844 0.890625 15.9344 1.01562 15.9563 1.09375C15.9906 1.20938 16 2.36875 16 7.98438C16 13.5219 15.9906 14.7625 15.9563 14.8906C15.9344 14.975 15.8781 15.1219 15.8344 15.2094C15.7875 15.3 15.6969 15.4344 15.6313 15.5063C15.5688 15.5781 15.4438 15.6812 15.3594 15.7344C15.2719 15.7906 15.1187 15.8656 14.8281 15.9688H8C1.45937 15.9688 1.16562 15.9656 1.01562 15.9125C0.928125 15.8813 0.803125 15.8281 0.734375 15.7969C0.665625 15.7625 0.525 15.6531 0.421875 15.5469C0.315625 15.4438 0.2 15.2875 0.159375 15.2031C0.11875 15.1156 0.065625 14.9844 0.04375 14.9062C0.009375 14.7906 0 13.6313 0 8.01562C0 2.55937 0.009375 1.23438 0.040625 1.10938C0.0625 1.02188 0.115625 0.88125 0.15625 0.796875C0.196875 0.709375 0.315625 0.55625 0.41875 0.453125C0.525 0.346875 0.665625 0.2375 0.734375 0.203125C0.803125 0.171875 0.921875 0.121875 1 0.090625C1.13125 0.040625 1.57812 0.0375 14.8281 0.03125ZM1.17188 1.04688C1.10312 1.0875 1.02188 1.16875 0.99375 1.225C0.946875 1.31563 0.940625 1.45938 0.9375 2.55625V3.78125H15.0625C15.0625 1.40625 15.0594 1.3375 15 1.21875C14.9583 1.13542 14.8958 1.07292 14.8125 1.03125C14.6875 0.96875 14.625 0.96875 7.99062 0.96875H1.29688L1.17188 1.04688ZM0.9375 9.69063C0.9375 14.5 0.940625 14.6625 0.996875 14.775C1.03125 14.8438 1.10625 14.9219 1.175 14.9625L1.29688 15.0312C14.625 15.0344 14.6875 15.0312 14.8125 14.9719C14.8958 14.9302 14.9583 14.8677 15 14.7844C15.0625 14.6594 15.0625 14.5969 15.0625 9.69063V4.72188H0.9375V9.69063ZM2.36875 1.90937C2.42188 1.90937 2.525 1.9375 2.59375 1.97187C2.67708 2.01354 2.73958 2.07604 2.78125 2.15937C2.81562 2.22812 2.84375 2.325 2.84375 2.37812C2.84375 2.42812 2.81562 2.52813 2.78125 2.59687C2.73958 2.68021 2.67708 2.74271 2.59375 2.78437C2.525 2.81875 2.42812 2.84687 2.375 2.84687C2.32188 2.84687 2.225 2.81875 2.15625 2.78437C2.07292 2.74271 2.01042 2.68021 1.96875 2.59687C1.93438 2.52813 1.90625 2.42812 1.90625 2.37812C1.90625 2.325 1.93438 2.22812 1.96875 2.15937C2.00938 2.07812 2.075 2.00937 2.15 1.97187C2.2125 1.9375 2.3125 1.90937 2.36875 1.90937ZM4.24375 1.90937C4.29688 1.90937 4.4 1.9375 4.46875 1.97187C4.55208 2.01354 4.61458 2.07604 4.65625 2.15937C4.69063 2.22812 4.71875 2.325 4.71875 2.37812C4.71875 2.42812 4.69063 2.52813 4.65625 2.59687C4.61458 2.68021 4.55208 2.74271 4.46875 2.78437C4.4 2.81875 4.30312 2.84687 4.25 2.84687C4.19688 2.84687 4.1 2.81875 4.03125 2.78437C3.94792 2.74271 3.88542 2.68021 3.84375 2.59687C3.80938 2.52813 3.78125 2.42812 3.78125 2.37812C3.78125 2.325 3.80938 2.22812 3.84375 2.15937C3.88438 2.07812 3.95 2.00937 4.025 1.97187C4.0875 1.9375 4.1875 1.90937 4.24375 1.90937ZM6.11875 1.90937C6.17188 1.90937 6.275 1.9375 6.34375 1.97187C6.42708 2.01354 6.48958 2.07604 6.53125 2.15937C6.56563 2.22812 6.59375 2.325 6.59375 2.37812C6.59375 2.42812 6.56563 2.52813 6.53125 2.59687C6.48958 2.68021 6.42708 2.74271 6.34375 2.78437C6.275 2.81875 6.17812 2.84687 6.125 2.84687C6.07188 2.84687 5.975 2.81875 5.90625 2.78437C5.82292 2.74271 5.76042 2.68021 5.71875 2.59687C5.68437 2.52813 5.65625 2.42812 5.65625 2.37812C5.65625 2.325 5.68437 2.22812 5.71875 2.15937C5.75938 2.07812 5.825 2.00937 5.9 1.97187C5.9625 1.9375 6.0625 1.90937 6.11875 1.90937ZM12.2094 1.90937C13.6562 1.90937 13.725 1.90937 13.8438 1.97187C13.9271 2.01354 13.9896 2.07604 14.0312 2.15937C14.0656 2.22812 14.0938 2.325 14.0938 2.37812C14.0938 2.42812 14.0656 2.52813 14.0312 2.59687C13.9896 2.68021 13.9271 2.74271 13.8438 2.78437C13.725 2.84375 13.6562 2.84687 12.2188 2.84687C10.7812 2.84687 10.7125 2.84375 10.5938 2.78437C10.5104 2.74271 10.4479 2.68021 10.4062 2.59687C10.3719 2.52813 10.3438 2.42812 10.3438 2.37812C10.3438 2.325 10.3719 2.22812 10.4062 2.15937C10.4469 2.07812 10.5125 2.00937 10.5844 1.97187C10.6969 1.9125 10.7781 1.90937 12.2094 1.90937ZM9.39688 6.12813C9.45312 6.12813 9.55625 6.15625 9.625 6.19063C9.70833 6.23229 9.77083 6.29479 9.8125 6.37813C9.84688 6.44688 9.875 6.54375 9.875 6.59688C9.875 6.65 9.28438 8.06562 8.48125 9.94687C7.7125 11.7375 7.05312 13.2719 7.0125 13.3531C6.95937 13.4594 6.90312 13.5188 6.8125 13.5656C6.74375 13.6 6.64687 13.6281 6.59375 13.6281C6.54063 13.6281 6.44375 13.6 6.375 13.5656C6.29167 13.524 6.22917 13.4615 6.1875 13.3781C6.15312 13.3094 6.125 13.2094 6.125 13.1594C6.125 13.1031 6.71563 11.6844 7.51875 9.80625C8.28438 8.01562 8.94375 6.48438 8.98125 6.40938C9.02812 6.31563 9.09375 6.24375 9.175 6.19688C9.24063 6.15938 9.34375 6.12813 9.4 6.12813H9.39688ZM5.175 7.53438C5.23125 7.53438 5.33437 7.5625 5.40312 7.59688C5.48646 7.63854 5.54896 7.70104 5.59062 7.78438C5.625 7.85313 5.65312 7.95 5.65312 8.00313C5.65312 8.05313 5.62813 8.14375 5.59688 8.20625C5.55938 8.2875 5.27813 8.52812 4.58125 9.08125C4.05313 9.5 3.62188 9.85938 3.62188 9.87813C3.62188 9.89375 4.05313 10.2531 4.58125 10.6719C5.27813 11.225 5.55938 11.4688 5.59688 11.5469C5.62813 11.6094 5.65312 11.7 5.65312 11.7531C5.65312 11.8031 5.625 11.9031 5.59062 11.9719C5.54896 12.0552 5.48646 12.1177 5.40312 12.1594C5.33437 12.1938 5.23125 12.2188 5.175 12.2188C5.12188 12.2188 5.03125 12.1937 4.97813 12.1656C4.925 12.1344 4.3375 11.675 3.67188 11.1438C2.80938 10.45 2.45 10.1437 2.41875 10.0719C2.39375 10.0156 2.37188 9.92813 2.37188 9.87813C2.37188 9.825 2.39375 9.7375 2.41875 9.68125C2.45 9.60938 2.80938 9.30313 3.67188 8.6125C4.3375 8.07812 4.925 7.61875 4.97813 7.5875C5.03125 7.55938 5.12188 7.53438 5.175 7.53438ZM10.8094 7.53438C10.8687 7.53438 10.9625 7.55938 11.0156 7.5875C11.0688 7.61875 11.6562 8.07812 12.3219 8.6125C13.1844 9.30313 13.5437 9.60938 13.575 9.68125C13.6 9.7375 13.6219 9.825 13.6219 9.87813C13.6219 9.92813 13.6 10.0156 13.575 10.0719C13.5437 10.1437 13.1844 10.45 12.3219 11.1438C11.6562 11.675 11.0688 12.1344 11.0156 12.1656C10.9625 12.1937 10.8719 12.2188 10.8156 12.2188C10.7625 12.2188 10.6594 12.1938 10.5906 12.1594C10.5073 12.1177 10.4448 12.0552 10.4031 11.9719C10.3687 11.9031 10.3406 11.8031 10.3406 11.7531C10.3406 11.7 10.3656 11.6094 10.3938 11.5469C10.4344 11.4688 10.7156 11.225 11.4094 10.6719C11.9406 10.2531 12.3719 9.89375 12.3719 9.87813C12.3719 9.85938 11.9406 9.5 11.4094 9.08125C10.7156 8.52812 10.4344 8.2875 10.3938 8.20625C10.3656 8.14375 10.3406 8.05313 10.3406 8.00313C10.3406 7.95 10.3687 7.85313 10.4031 7.78438C10.4437 7.70312 10.5094 7.63438 10.5813 7.59688C10.6469 7.5625 10.75 7.53438 10.8094 7.53438Z" fill="#ACB9CB"/>
</g>
<defs>
<clipPath id="clip0_545_4923">
<rect width="16" height="16" fill="white"/>
</clipPath>
</defs>
</svg>
