<svg width="16" height="16" viewBox="0 0 16 16" fill="none" xmlns="http://www.w3.org/2000/svg">
<g clip-path="url(#clip0_545_4926)">
<path fill-rule="evenodd" clip-rule="evenodd" d="M12.4061 0C12.4874 0 12.5874 0.028125 12.6405 0.059375C12.6905 0.090625 12.7561 0.15 12.7843 0.190625C12.8124 0.23125 12.8624 0.365625 12.8999 0.484375C12.9374 0.60625 13.0186 0.79375 13.0843 0.90625C13.1499 1.01875 13.303 1.20625 13.4218 1.32812C13.5436 1.44687 13.7186 1.59375 13.8124 1.65C13.9061 1.70312 14.1186 1.8 14.2811 1.85937C14.4874 1.93437 14.5999 1.99375 14.6468 2.05312C14.6874 2.1 14.728 2.18125 14.7374 2.23437C14.7468 2.2875 14.7468 2.38125 14.7374 2.44375C14.728 2.50937 14.6843 2.6 14.6468 2.64687C14.5968 2.70625 14.478 2.76875 14.278 2.8375C14.1155 2.89687 13.8999 2.99375 13.7968 3.05625C13.6936 3.11875 13.5186 3.2625 13.4061 3.37812C13.2936 3.49062 13.153 3.66562 13.0936 3.76875C13.0343 3.86875 12.9436 4.07187 12.8968 4.21875C12.8468 4.36562 12.7843 4.50937 12.7561 4.54375C12.728 4.575 12.6655 4.61875 12.6186 4.64375C12.5686 4.66875 12.4749 4.6875 12.4061 4.6875C12.3374 4.6875 12.2436 4.66875 12.1968 4.64375C12.1468 4.61875 12.0843 4.575 12.0561 4.54375C12.028 4.50937 11.9655 4.36562 11.9155 4.21875C11.8686 4.07187 11.778 3.86875 11.7186 3.76875C11.6593 3.66562 11.5186 3.49062 11.4061 3.37812C11.2936 3.2625 11.1186 3.11875 11.0155 3.05625C10.9124 2.99375 10.6968 2.89687 10.5343 2.8375C10.3343 2.76875 10.2155 2.70625 10.1655 2.64687C10.128 2.6 10.0843 2.50937 10.0749 2.44375C10.0655 2.38125 10.0655 2.2875 10.0749 2.23437C10.0843 2.18125 10.1249 2.1 10.1655 2.05312C10.2124 1.99375 10.3249 1.93437 10.5311 1.85937C10.6936 1.8 10.9061 1.70312 10.9999 1.65C11.0936 1.59375 11.2686 1.44687 11.3905 1.32812C11.5093 1.20625 11.6561 1.03125 11.7093 0.9375C11.7655 0.84375 11.8468 0.659375 11.8905 0.53125C11.9343 0.403125 11.9874 0.2625 12.0093 0.221875C12.0311 0.18125 12.0968 0.115625 12.1561 0.075C12.2311 0.021875 12.3093 0 12.4061 0ZM11.6718 2.36562C11.8155 2.46562 11.9593 2.6 12.0811 2.725C12.1999 2.85 12.3249 2.9875 12.353 3.03125L12.4061 3.10937C12.4874 2.9875 12.6124 2.85 12.7311 2.725C12.853 2.6 12.9968 2.46563 13.0468 2.43125L13.1405 2.36562C12.5811 1.79062 12.4124 1.62812 12.403 1.62812C12.3968 1.63125 12.228 1.79687 12.0311 2L11.6718 2.36562ZM9.92175 5.09375C10.0249 5.09062 10.1811 5.1125 10.2655 5.1375C10.353 5.15937 10.4843 5.22812 10.5624 5.2875C10.6468 5.35 10.7374 5.45937 10.7905 5.5625C10.8561 5.6875 10.8843 5.79375 10.8968 5.96562C10.9093 6.14375 10.8968 6.26562 10.8468 6.46562C10.8124 6.6125 10.7436 6.825 10.6999 6.93437C10.6561 7.04687 10.5593 7.25937 10.4843 7.40312C10.4124 7.55 10.2811 7.79062 10.0343 8.2L10.1311 8.3875C10.1843 8.49062 10.2811 8.7375 10.3468 8.93437C10.4124 9.13437 10.4968 9.4625 10.5311 9.66875C10.578 9.9375 10.5968 10.1844 10.5968 10.5281C10.5968 10.7969 10.5811 11.1187 10.5624 11.2469C10.5436 11.3781 10.4936 11.6156 10.453 11.7781C10.4124 11.9437 10.3405 12.1812 10.2936 12.3094C10.2499 12.4406 10.1436 12.6781 10.0624 12.8406C9.98113 13.0062 9.82801 13.2656 9.72488 13.4187C9.61863 13.575 9.43738 13.8125 9.31551 13.95C9.19676 14.0875 8.98738 14.2969 8.853 14.4125C8.71863 14.5312 8.48113 14.7125 8.328 14.8156C8.17488 14.9219 7.91238 15.0719 7.74988 15.1531C7.58738 15.2375 7.30613 15.3531 7.12488 15.4156C6.94363 15.4781 6.65613 15.5594 6.48426 15.5937C6.25301 15.6437 6.02176 15.6656 5.59363 15.6781C5.09363 15.6906 4.95926 15.6844 4.60926 15.6219C4.38738 15.5844 4.06238 15.5094 3.89051 15.4531C3.71863 15.3969 3.47176 15.3 3.10926 15.1312L2.84363 15.2844C2.69676 15.3687 2.43738 15.5094 2.26551 15.5969C2.09363 15.6844 1.78738 15.8094 1.58738 15.8781C1.27801 15.9781 1.17488 15.9969 0.962381 15.9969C0.731131 15.9969 0.681131 15.9875 0.499881 15.8969C0.362381 15.8281 0.265506 15.75 0.193631 15.6531C0.137381 15.5781 0.0655056 15.4375 0.0405056 15.3406C0.00300564 15.2156 -0.00324436 15.1031 0.0123806 14.9187C0.0248806 14.7656 0.0717556 14.55 0.137381 14.3562C0.193631 14.1844 0.312381 13.9031 0.399881 13.7312C0.487381 13.5594 0.628006 13.3031 0.874881 12.9031L0.753006 12.6469C0.687381 12.5062 0.587381 12.2469 0.537381 12.075C0.484256 11.9031 0.415506 11.6437 0.384256 11.4969C0.340506 11.2875 0.328006 11.0906 0.328006 10.5281C0.331131 9.91875 0.340506 9.78437 0.399881 9.5125C0.440506 9.34062 0.518631 9.05312 0.581131 8.87187C0.640506 8.69375 0.774881 8.38437 0.878006 8.18437C0.981131 7.9875 1.15926 7.69375 1.27488 7.53125C1.39051 7.36875 1.63113 7.0875 1.81238 6.90625C1.99363 6.725 2.27488 6.48125 2.43738 6.36562C2.59988 6.25 2.89676 6.07187 3.09363 5.97187C3.29051 5.86875 3.59988 5.73437 3.78113 5.67187C3.96238 5.60937 4.24988 5.52812 4.42176 5.49375C4.59363 5.45937 4.90301 5.41875 5.10926 5.40625C5.31551 5.39062 5.64051 5.39062 5.82801 5.40625C6.01863 5.42187 6.31238 5.45937 6.48426 5.49375C6.65613 5.53125 6.90926 5.59687 7.04676 5.64062C7.18426 5.6875 7.40926 5.77812 7.79676 5.95937L8.06238 5.80312C8.20926 5.71875 8.45613 5.58437 8.60925 5.50625C8.7655 5.42812 8.96238 5.3375 9.04675 5.30312C9.13426 5.26875 9.32176 5.20625 9.46863 5.16562C9.61551 5.12812 9.81863 5.09375 9.92175 5.09375ZM9.12488 6.30312C8.94363 6.39062 8.77488 6.475 8.74988 6.49062C8.71238 6.51562 8.778 6.59687 9.08738 6.9C9.29675 7.10937 9.47488 7.27812 9.48425 7.27812C9.49363 7.27812 9.57176 7.1375 9.65613 6.96562C9.74363 6.79375 9.84676 6.55 9.8905 6.41875C9.93426 6.29062 9.96863 6.15 9.96863 6.10625C9.96863 6.04375 9.953 6.03125 9.88425 6.03125C9.83426 6.03125 9.71863 6.05625 9.62488 6.0875C9.53113 6.11875 9.30613 6.21562 9.12488 6.30312ZM4.56238 6.42187C4.43426 6.45 4.20926 6.51562 4.06238 6.56875C3.91551 6.61875 3.69988 6.70937 3.57801 6.77187C3.45926 6.83125 3.24051 6.95937 3.09363 7.05625C2.94676 7.15 2.69363 7.35937 2.53113 7.51875C2.36863 7.675 2.15301 7.91562 2.05613 8.05C1.95926 8.18437 1.80926 8.42812 1.72176 8.59062C1.63738 8.75625 1.51551 9.0375 1.45613 9.21562C1.39676 9.39687 1.32488 9.67187 1.29988 9.825C1.26863 9.99062 1.24988 10.2906 1.24988 10.5531C1.24988 10.8781 1.26863 11.0875 1.31551 11.3344C1.35301 11.5187 1.42488 11.7906 1.47488 11.9344C1.52801 12.0812 1.61863 12.3 1.67801 12.4187C1.73738 12.5406 1.86238 12.75 1.95301 12.8875C2.04363 13.025 2.22176 13.25 2.34988 13.3875C2.47488 13.5219 2.68113 13.7156 2.80613 13.8156C2.92801 13.9156 3.04988 13.9969 3.07176 13.9969C3.09051 13.9969 3.27176 13.875 3.47176 13.725C3.67176 13.575 4.00926 13.3094 4.22176 13.1375C4.43426 12.9625 4.81238 12.6406 5.06238 12.4187C5.31238 12.1969 5.83113 11.7 6.21863 11.3125C6.60613 10.925 7.11238 10.3969 7.34051 10.1375C7.56863 9.88125 7.94363 9.4375 8.17175 9.15312C8.39676 8.87187 8.65613 8.54062 8.74363 8.41875C8.83113 8.3 8.90301 8.18437 8.90613 8.1625C8.90613 8.14062 8.83738 8.03437 8.75301 7.92812C8.66863 7.82187 8.49051 7.62812 8.35613 7.49687C8.21863 7.36875 8.00301 7.1875 7.87488 7.09687C7.74676 7.00312 7.50613 6.8625 7.34363 6.78125C7.18113 6.7 6.95613 6.6 6.84363 6.5625C6.73113 6.525 6.52801 6.46562 6.39051 6.43437C6.25301 6.4 6.03426 6.36562 5.90613 6.35625C5.77801 6.34687 5.60926 6.33437 5.53113 6.33125C5.45301 6.325 5.25613 6.33125 5.09363 6.34375C4.93113 6.35937 4.69051 6.39375 4.56238 6.42187ZM8.67488 10.0281C8.53738 10.1906 8.26238 10.5094 8.06551 10.7312C7.86863 10.9562 7.41863 11.4312 7.06551 11.7906C6.70926 12.15 6.19676 12.65 5.92176 12.9C5.64676 13.1531 5.20926 13.5344 4.95301 13.75C4.69363 13.9625 4.38113 14.2156 4.25613 14.3094C4.13426 14.4062 4.03113 14.4906 4.03113 14.4969C4.03113 14.5062 4.13113 14.5437 4.25613 14.5844C4.38113 14.6219 4.61238 14.675 4.76551 14.7C4.92176 14.7281 5.22801 14.75 5.45301 14.7469C5.67801 14.7469 5.99363 14.725 6.15613 14.7C6.31863 14.6719 6.59363 14.6062 6.76551 14.5469C6.93738 14.4906 7.18426 14.3906 7.31238 14.3281C7.44051 14.2625 7.66551 14.1312 7.81238 14.0344C7.95926 13.9375 8.203 13.7375 8.35613 13.5906C8.50926 13.4469 8.72176 13.2062 8.83113 13.0594C8.94051 12.9156 9.09988 12.6625 9.18425 12.4969C9.26863 12.3344 9.3905 12.0531 9.44988 11.8719C9.50926 11.6937 9.58113 11.4187 9.60925 11.2625C9.63738 11.0969 9.65926 10.8031 9.65926 10.5437C9.65926 10.3031 9.63738 9.99375 9.61551 9.85625C9.59051 9.71875 9.54363 9.5 9.50925 9.36562C9.47488 9.23125 9.43425 9.12187 9.41863 9.12187C9.39988 9.12187 9.28113 9.25937 9.15613 9.425C9.02801 9.59375 8.80926 9.8625 8.67488 10.0281ZM1.22176 14.1781C1.15301 14.3187 1.05926 14.5406 1.01551 14.6687C0.971756 14.8 0.937381 14.9406 0.937381 14.9812C0.937381 15.0437 0.953006 15.0594 1.01551 15.0594C1.05926 15.0594 1.19988 15.025 1.32801 14.9812C1.45613 14.9406 1.67801 14.8469 1.82176 14.775C1.96238 14.7031 2.10926 14.6281 2.14988 14.6031C2.21863 14.5625 2.21551 14.5594 2.01863 14.3812C1.90613 14.2812 1.73113 14.1062 1.62801 13.9906C1.44363 13.7875 1.44051 13.7844 1.39676 13.85C1.37176 13.8906 1.29363 14.0375 1.22176 14.1781ZM13.6468 7.5C13.703 7.5 13.803 7.52187 13.8655 7.55312C13.928 7.58437 13.9968 7.63437 14.0186 7.66875C14.0405 7.70312 14.0968 7.84375 14.1468 7.98437C14.1936 8.12187 14.2843 8.31562 14.3436 8.41875C14.403 8.52187 14.553 8.70312 14.6718 8.825C14.7936 8.94687 14.978 9.09375 15.078 9.15312C15.1811 9.21562 15.3718 9.3 15.4999 9.34062C15.6311 9.38437 15.7718 9.44375 15.8124 9.46875C15.8561 9.49687 15.9155 9.57187 15.9436 9.63437C15.9749 9.69687 15.9999 9.79062 15.9999 9.84062C15.9999 9.89375 15.9749 9.9875 15.9436 10.05C15.9155 10.1125 15.8624 10.1844 15.828 10.2062C15.7936 10.2281 15.6468 10.2906 15.4999 10.3406C15.353 10.3937 15.1561 10.4812 15.0624 10.5375C14.9686 10.5938 14.7936 10.7375 14.6718 10.8594C14.553 10.9781 14.4061 11.1562 14.3499 11.25C14.2968 11.3437 14.1999 11.5531 14.1405 11.7156C14.0655 11.9219 14.0061 12.0344 13.9468 12.0844C13.8999 12.1219 13.8093 12.1625 13.7499 12.1719C13.6905 12.1844 13.5936 12.1844 13.5374 12.175C13.4843 12.1625 13.3999 12.1219 13.3499 12.0812C13.2936 12.0312 13.2311 11.9125 13.1624 11.7156C13.103 11.5531 13.0061 11.3344 12.9436 11.2312C12.8811 11.1281 12.7374 10.9531 12.6249 10.8406C12.5124 10.7312 12.328 10.5875 12.2186 10.5219C12.1061 10.4563 11.9124 10.3719 11.7843 10.3344C11.6374 10.2906 11.5124 10.2281 11.4499 10.1687C11.3843 10.1094 11.3436 10.0344 11.328 9.95C11.3155 9.88125 11.3155 9.77812 11.328 9.71562C11.3405 9.65312 11.3936 9.56875 11.4499 9.5125C11.5124 9.45625 11.6374 9.39375 11.7843 9.35C11.9124 9.30937 12.1061 9.225 12.2155 9.1625C12.328 9.09688 12.5093 8.95312 12.6249 8.84062C12.7374 8.73125 12.8811 8.55312 12.9436 8.45C13.0061 8.34687 13.0999 8.1375 13.1561 7.98125C13.2093 7.82812 13.2718 7.675 13.2936 7.64062C13.3155 7.60625 13.3811 7.5625 13.4405 7.54062C13.4999 7.51875 13.5936 7.5 13.6468 7.5ZM13.5655 9.19687C13.5311 9.25 13.3999 9.39375 13.2749 9.51562C13.1499 9.6375 13.0124 9.75937 12.9686 9.79062L12.8905 9.84062C13.0124 9.925 13.1499 10.0469 13.2749 10.1687C13.3999 10.2906 13.5343 10.4312 13.5718 10.4844L13.6405 10.5812C14.1249 10.0875 14.2999 9.92188 14.3436 9.89375L14.4218 9.84062C14.2999 9.7625 14.1218 9.59687 13.9468 9.42187L13.6249 9.1L13.5655 9.19687ZM2.38426 0.625C2.46551 0.625 2.60613 0.6375 2.69676 0.659375C2.78738 0.678125 2.93738 0.728125 3.03426 0.771875C3.13426 0.81875 3.28426 0.93125 3.39363 1.04375C3.50301 1.15312 3.61863 1.30625 3.66863 1.4125C3.71238 1.5125 3.76863 1.6875 3.79051 1.80312C3.81863 1.96875 3.81863 2.0625 3.78738 2.24687C3.76238 2.4 3.70926 2.55625 3.63426 2.69687C3.56551 2.825 3.45301 2.975 3.35926 3.05625C3.27176 3.1375 3.12176 3.24062 3.02488 3.2875C2.92488 3.33437 2.74363 3.39062 2.61863 3.40937C2.44363 3.44062 2.34676 3.44062 2.18113 3.40937C2.06551 3.39062 1.89051 3.33437 1.79051 3.2875C1.68426 3.2375 1.53426 3.125 1.42176 3.01562C1.31238 2.90312 1.19988 2.75312 1.14988 2.64687C1.10301 2.54687 1.04676 2.36562 1.02801 2.24062C0.996756 2.0625 0.996756 1.96875 1.02801 1.80312C1.04676 1.6875 1.10301 1.5125 1.14676 1.4125C1.19988 1.30312 1.30613 1.15625 1.42176 1.04375C1.52488 0.940625 1.68113 0.821875 1.76863 0.78125C1.85301 0.740625 1.99363 0.6875 2.08113 0.66875C2.16551 0.646875 2.30301 0.628125 2.38426 0.625ZM1.99676 1.81562C1.96551 1.875 1.94051 1.96562 1.94051 2.02187C1.94051 2.07812 1.96551 2.175 1.99988 2.24062C2.03113 2.30625 2.10926 2.3875 2.17801 2.42812C2.24363 2.46562 2.34363 2.49687 2.39988 2.49687C2.45613 2.49687 2.55926 2.46875 2.62801 2.43437C2.71134 2.39271 2.77384 2.33021 2.81551 2.24687C2.84988 2.17812 2.87801 2.08125 2.87801 2.02812C2.87801 1.97812 2.84988 1.87812 2.81551 1.80937C2.77384 1.72604 2.71134 1.66354 2.62801 1.62187C2.55926 1.5875 2.45613 1.55937 2.39988 1.55937C2.34363 1.55937 2.24363 1.59687 2.17488 1.6375C2.10613 1.67812 2.02488 1.75937 1.99676 1.81562ZM5.99363 2.65625C6.04988 2.65625 6.15301 2.68125 6.22176 2.71562C6.30509 2.75729 6.36759 2.81979 6.40926 2.90312C6.44363 2.97187 6.47176 3.07187 6.47176 3.12187C6.47176 3.175 6.44363 3.27187 6.40926 3.34062C6.36759 3.42396 6.30509 3.48646 6.22176 3.52812C6.15301 3.5625 6.05301 3.59062 6.00301 3.59062C5.94988 3.59062 5.85301 3.5625 5.78426 3.52812C5.70092 3.48646 5.63842 3.42396 5.59676 3.34062C5.56238 3.27187 5.53426 3.175 5.53426 3.12187C5.53426 3.07187 5.56238 2.97187 5.59676 2.90312C5.63426 2.825 5.70301 2.75625 5.77488 2.71875C5.84051 2.68437 5.93738 2.65625 5.99363 2.65625ZM14.7436 5.15625C14.7999 5.15625 14.903 5.18125 14.9718 5.21562C15.0551 5.25729 15.1176 5.31979 15.1593 5.40312C15.1936 5.47187 15.2218 5.57187 15.2218 5.62187C15.2218 5.675 15.1936 5.77187 15.1593 5.84062C15.1176 5.92396 15.0551 5.98646 14.9718 6.02812C14.903 6.0625 14.803 6.09062 14.753 6.09062C14.6999 6.09062 14.603 6.0625 14.5343 6.02812C14.4509 5.98646 14.3884 5.92396 14.3468 5.84062C14.3124 5.77187 14.2843 5.675 14.2843 5.62187C14.2843 5.57187 14.3124 5.47187 14.3468 5.40312C14.3843 5.325 14.453 5.25625 14.5249 5.21875C14.5905 5.18437 14.6874 5.15625 14.7436 5.15625ZM11.9311 13.9062C11.9874 13.9062 12.0905 13.9312 12.1593 13.9656C12.2426 14.0073 12.3051 14.0698 12.3468 14.1531C12.3811 14.2219 12.4093 14.3219 12.4093 14.3719C12.4093 14.425 12.3811 14.5219 12.3468 14.5906C12.3051 14.674 12.2426 14.7365 12.1593 14.7781C12.0905 14.8125 11.9905 14.8406 11.9405 14.8406C11.8874 14.8406 11.7905 14.8125 11.7218 14.7781C11.6384 14.7365 11.5759 14.674 11.5343 14.5906C11.4999 14.5219 11.4718 14.425 11.4718 14.3719C11.4718 14.3219 11.4999 14.2219 11.5343 14.1531C11.5718 14.075 11.6405 14.0062 11.7124 13.9687C11.778 13.9344 11.8749 13.9062 11.9311 13.9062Z" fill="#ACB9CB"/>
</g>
<defs>
<clipPath id="clip0_545_4926">
<rect width="16" height="16" fill="white"/>
</clipPath>
</defs>
</svg>
