<svg width="16" height="16" viewBox="0 0 16 16" fill="none" xmlns="http://www.w3.org/2000/svg">
<g clip-path="url(#clip0_545_4929)">
<path fill-rule="evenodd" clip-rule="evenodd" d="M10.3905 0.00326338C10.5718 0.000138378 10.6874 0.0188884 10.8062 0.0626384C10.8937 0.0970134 11.0218 0.159513 11.0843 0.200138C11.1499 0.240763 11.4343 0.509513 12.2343 1.30951L12.5937 0.959514C12.8218 0.734514 13.0093 0.578263 13.1093 0.531388C13.228 0.475138 13.3218 0.456388 13.4999 0.456388C13.6937 0.453263 13.7655 0.468888 13.9218 0.540763C14.0718 0.612638 14.2062 0.725138 14.6124 1.13451C14.9593 1.48451 15.1374 1.69076 15.1905 1.79701C15.253 1.92826 15.2655 2.00014 15.2655 2.23451C15.2655 2.46889 15.253 2.54076 15.1905 2.65639C15.1499 2.73451 14.9593 2.95639 14.4218 3.50014L15.1124 4.19701C15.6312 4.71889 15.8187 4.92826 15.8749 5.04701C15.9124 5.13139 15.9593 5.28764 15.978 5.39076C16.003 5.52826 16.003 5.63764 15.9749 5.79701C15.9562 5.91576 15.8999 6.09389 15.8562 6.18764C15.7905 6.32201 15.6124 6.51889 15.0499 7.08139C14.4718 7.65951 14.2937 7.81889 14.1562 7.88451C14.0624 7.92826 13.8937 7.97826 13.7812 8.00014C13.628 8.02826 13.528 8.02826 13.3749 8.00014C13.2624 7.98139 13.0937 7.92514 12.9999 7.88139C12.8687 7.81889 12.6749 7.64701 11.5155 6.50326L6.50304 11.5158L7.14992 12.172C7.64679 12.6751 7.81867 12.8689 7.88117 13.0001C7.92492 13.0939 7.97804 13.2626 7.99992 13.3751C8.02804 13.5283 8.02804 13.6283 7.99992 13.7814C7.97804 13.8939 7.92179 14.0689 7.86867 14.172C7.79367 14.3158 7.63117 14.5033 7.14367 14.9939C6.79992 15.3439 6.45304 15.6783 6.37492 15.7345C6.29679 15.7939 6.14367 15.8751 6.03117 15.922C5.87804 15.9814 5.77179 16.0001 5.59367 16.0001C5.42492 16.0001 5.31242 15.9814 5.18742 15.9314C5.09367 15.8939 4.95929 15.8251 4.89054 15.7783C4.82179 15.7314 4.54054 15.4658 3.76554 14.6876L3.42179 15.0283C3.16867 15.2814 3.02804 15.3939 2.89054 15.4595C2.74054 15.5283 2.65929 15.547 2.48429 15.5439C2.31242 15.5439 2.22492 15.5251 2.07804 15.4564C1.92492 15.3876 1.79679 15.2751 1.38742 14.8658C1.04054 14.5158 0.86242 14.3126 0.809295 14.2033C0.746795 14.072 0.734295 14.0001 0.734295 13.7658C0.734295 13.5314 0.746795 13.4595 0.809295 13.3439C0.84992 13.2658 1.04054 13.0439 1.57804 12.5001L0.88742 11.8033C0.36867 11.2814 0.18117 11.072 0.12492 10.9533C0.0874196 10.8658 0.0405446 10.7126 0.0217946 10.6095C-0.00320541 10.472 -0.00320541 10.3626 0.0249196 10.2033C0.0436696 10.0814 0.0999196 9.90639 0.14367 9.81264C0.209295 9.67826 0.38742 9.48139 0.94992 8.92201C1.51867 8.35326 1.70929 8.18451 1.84367 8.11889C1.93742 8.07514 2.10617 8.02201 2.21867 8.00014C2.37179 7.97201 2.47179 7.97201 2.62492 8.00014C2.73742 8.01889 2.90617 8.07201 2.99992 8.11576C3.13429 8.18139 3.31867 8.34389 4.51554 9.52826L9.52804 4.51576L8.86554 3.84389C8.35617 3.32826 8.18117 3.13139 8.11867 3.00014C8.07492 2.90639 8.02179 2.73764 7.99992 2.62514C7.97179 2.47201 7.97179 2.37201 7.99992 2.21889C8.01867 2.10639 8.07492 1.93764 8.11867 1.84389C8.18117 1.71264 8.35617 1.51576 8.84367 1.02201C9.19679 0.662638 9.54679 0.322013 9.62492 0.265763C9.70304 0.206388 9.84992 0.125138 9.95304 0.0813884C10.0937 0.0251384 10.1999 0.00638838 10.3905 0.00326338ZM9.17804 2.09076C9.0968 2.17826 9.01867 2.28451 8.99992 2.32826C8.98117 2.37201 8.97492 2.43764 8.98429 2.47514C8.99367 2.51576 10.0062 3.55326 11.2343 4.78139C13.3468 6.89389 13.4749 7.01576 13.578 7.01576C13.6812 7.01576 13.7405 6.96576 14.3437 6.35951C14.9468 5.75639 14.9999 5.69389 14.9999 5.59389C14.9999 5.49076 14.8749 5.35951 12.7562 3.24389C10.6937 1.17826 10.5062 1.00014 10.4124 1.00014C10.3218 1.00014 10.2468 1.05951 9.81867 1.46576C9.54992 1.71889 9.26242 2.00014 9.17804 2.09076ZM12.9624 2.01576C12.9655 2.03451 13.1374 2.21576 13.3437 2.42201L13.7187 2.79701L14.2812 2.23451C13.6874 1.64076 13.5093 1.46889 13.4999 1.46889C13.4905 1.46889 13.3624 1.58451 13.2187 1.72826C13.0718 1.86889 12.9562 2.00014 12.9624 2.01576ZM5.21867 10.2345L5.79679 10.8126L10.8124 5.79701L10.2343 5.21889L5.21867 10.2345ZM1.63117 9.65951C1.05304 10.2439 0.99992 10.3064 0.99992 10.4064C0.99992 10.5095 1.12179 10.6408 3.24054 12.7595C5.29054 14.8064 5.49367 15.0001 5.58429 15.0001C5.67492 15.0001 5.76242 14.9283 6.31242 14.4001C6.65617 14.0689 6.95929 13.7533 6.98429 13.697C7.00929 13.6408 7.02179 13.5626 7.01554 13.5251C7.00617 13.4845 5.99679 12.4533 4.77179 11.2283C3.32804 9.78764 2.51867 8.99701 2.46867 8.98764C2.42492 8.97826 2.35929 8.98451 2.32492 8.99701C2.29054 9.00951 1.97804 9.30951 1.63117 9.65951ZM1.71867 13.7658L2.49992 14.547C2.91242 14.1345 3.03117 14.0033 3.03117 13.9845C3.03117 13.9689 2.86554 13.7876 2.66242 13.5876C2.46242 13.3845 2.28742 13.2189 2.28117 13.2189C2.27179 13.2189 2.14054 13.3439 1.99054 13.4939L1.71867 13.7658Z" fill="#ACB9CB"/>
</g>
<defs>
<clipPath id="clip0_545_4929">
<rect width="16" height="16" fill="white"/>
</clipPath>
</defs>
</svg>
