<svg width="18" height="16" viewBox="0 0 18 16" fill="none" xmlns="http://www.w3.org/2000/svg">
<path d="M5.87793 12.6455H11.7316V5.67773H10.1706" stroke="#ACB9CB" stroke-width="1.17073" stroke-linecap="round" stroke-linejoin="round"/>
<path d="M12.9027 12.6453H11.7319V6.83887H14.8539L16.8051 9.93564V12.6453H15.2441" stroke="#ACB9CB" stroke-width="1.17073" stroke-linejoin="round"/>
<path fill-rule="evenodd" clip-rule="evenodd" d="M15.2438 12.6457C15.2438 13.2871 14.7197 13.807 14.0731 13.807C13.4264 13.807 12.9023 13.2871 12.9023 12.6457C12.9023 12.0042 13.4264 11.4844 14.0731 11.4844C14.7197 11.4844 15.2438 12.0042 15.2438 12.6457Z" stroke="#ACB9CB" stroke-width="1.17073" stroke-linejoin="round"/>
<path fill-rule="evenodd" clip-rule="evenodd" d="M5.87808 12.6457C5.87808 13.2871 5.35399 13.807 4.70735 13.807C4.06072 13.807 3.53662 13.2871 3.53662 12.6457C3.53662 12.0042 4.06072 11.4844 4.70735 11.4844C5.35399 11.4844 5.87808 12.0042 5.87808 12.6457Z" stroke="#ACB9CB" stroke-width="1.17073" stroke-linejoin="round"/>
<path d="M1.19531 12.6457H3.14653" stroke="#ACB9CB" stroke-width="1.17073" stroke-linecap="round" stroke-linejoin="round"/>
<path d="M16.8051 9.93574H11.7319" stroke="#ACB9CB" stroke-width="1.17073" stroke-linejoin="round"/>
<path d="M1.19512 5.67773V12.6455" stroke="#ACB9CB" stroke-width="1.17073" stroke-linecap="round" stroke-linejoin="round"/>
<path d="M1.19531 5.67792H2.75629" stroke="#ACB9CB" stroke-width="1.17073" stroke-linecap="round" stroke-linejoin="round"/>
<path fill-rule="evenodd" clip-rule="evenodd" d="M9.78025 5.67723C9.78025 7.6011 8.20796 9.1611 6.26805 9.1611C4.32815 9.1611 2.75586 7.6011 2.75586 5.67723C2.75586 3.75297 4.32815 2.19336 6.26805 2.19336C8.20796 2.19336 9.78025 3.75297 9.78025 5.67723Z" stroke="#ACB9CB" stroke-width="1.17073" stroke-linecap="round" stroke-linejoin="round"/>
<path d="M5.09766 4.90364L6.65863 6.45202L10.5611 2.58105" stroke="#ACB9CB" stroke-width="1.17073" stroke-linecap="round" stroke-linejoin="round"/>
</svg>
