<svg width="16" height="16" viewBox="0 0 16 16" fill="none" xmlns="http://www.w3.org/2000/svg">
<path fill-rule="evenodd" clip-rule="evenodd" d="M14.7976 14.7106C15.1226 14.4939 15.422 14.334 15.8269 14.2579L16 15.1791C15.7477 15.2264 15.5656 15.3251 15.3175 15.4905C14.8115 15.8276 14.2316 15.9901 13.6517 15.9901C13.0718 15.9901 12.4921 15.8215 11.986 15.4841C11.2913 15.021 10.3578 15.021 9.66309 15.4841C9.15723 15.8214 8.57727 15.99 7.99744 15.9901C7.41736 15.9901 6.83765 15.8214 6.33167 15.4841C5.63562 15.0201 4.73608 15.0264 4.03992 15.4904C3.04053 16.1566 1.70789 16.1566 0.708496 15.4904C0.443848 15.314 0.238892 15.2238 0.000976562 15.179L0.174072 14.2579C0.540405 14.3268 0.855713 14.4622 1.22839 14.7106C1.46277 14.8668 1.72021 14.9702 1.98523 15.0212C2.6073 13.9553 3.48926 13.0525 4.55237 12.3973C5.74133 11.6648 7.10547 11.2775 8.49719 11.2775C8.98218 11.2775 9.46106 11.3254 9.92822 11.4174L10.6813 8.0686L6.60938 7.25415L6.67749 6.8114C6.8457 5.71667 7.40198 4.71265 8.24353 3.98425C9.09412 3.24817 10.1826 2.84277 11.3087 2.84277C13.8926 2.84277 15.9946 4.94495 15.9946 7.52881C15.9946 7.90674 15.9495 8.28296 15.8604 8.64697L15.7535 9.08301L11.6006 8.25244L10.8351 11.656C12.4406 12.1886 13.8459 13.2596 14.7899 14.7156L14.7976 14.7106ZM13.2521 7.55078C13.4806 6.15491 13.1448 4.84375 12.4932 4.2832L11.8062 7.33813L13.2391 7.62476L13.2418 7.60996L13.2418 7.60978C13.2453 7.59011 13.2489 7.57045 13.2521 7.55078ZM15.0575 7.52856C15.0575 7.68054 15.0483 7.83228 15.0303 7.98242L14.1584 7.80798L14.1611 7.79301L14.1612 7.79275L14.1612 7.79263C14.1667 7.76231 14.1721 7.73193 14.1771 7.70154C14.3417 6.69653 14.2653 5.70386 13.963 4.88379C14.639 5.56226 15.0575 6.49744 15.0575 7.52856ZM8.64368 6.70532C8.82422 5.68909 9.23438 4.76929 9.80603 4.09949C8.79663 4.54675 8.00513 5.42847 7.69861 6.51636L8.64368 6.70532ZM9.5625 6.88916C9.82947 5.35718 10.7069 4.15076 11.5941 4.01074L10.8872 7.15405L9.5625 6.88916ZM9.14319 14.7043C10.1488 14.0339 11.5002 14.0339 12.5059 14.7043C12.9213 14.9812 13.4089 15.099 13.8827 15.0455C12.6583 13.2856 10.6464 12.2147 8.49719 12.2147C6.37927 12.2147 4.42432 13.2189 3.19141 14.8892C3.30469 14.8402 3.41467 14.7809 3.52002 14.7106C4.53198 14.036 5.8396 14.0298 6.85144 14.7043C7.54761 15.1683 8.44714 15.1683 9.14319 14.7043Z" fill="#ACB9CB"/>
<path fill-rule="evenodd" clip-rule="evenodd" d="M4.68604 3.27979C4.68604 4.05493 4.05542 4.68555 3.28027 4.68555C2.50513 4.68555 1.87451 4.05493 1.87451 3.27979C1.87451 2.50464 2.50513 1.87402 3.28027 1.87402C4.05542 1.87402 4.68604 2.50464 4.68604 3.27979ZM3.74878 3.28015C3.74878 3.02185 3.53857 2.81152 3.28015 2.81152C3.02173 2.81152 2.81152 3.02185 2.81152 3.28015C2.81152 3.53857 3.02173 3.74878 3.28015 3.74878C3.53857 3.74878 3.74878 3.53857 3.74878 3.28015Z" fill="#ACB9CB"/>
<path fill-rule="evenodd" clip-rule="evenodd" d="M2.81152 0H3.74878V0.937256H2.81152V0Z" fill="#ACB9CB"/>
<path fill-rule="evenodd" clip-rule="evenodd" d="M2.81152 5.62305H3.74878V6.56018H2.81152V5.62305Z" fill="#ACB9CB"/>
<path fill-rule="evenodd" clip-rule="evenodd" d="M0 2.81152H0.937134V3.74878H0V2.81152Z" fill="#ACB9CB"/>
<path fill-rule="evenodd" clip-rule="evenodd" d="M5.62305 2.81152H6.56018V3.74878H5.62305V2.81152Z" fill="#ACB9CB"/>
<path fill-rule="evenodd" clip-rule="evenodd" d="M1.29211 5.93079L0.629395 5.26807L1.29211 4.60547L1.95471 5.26807L1.29211 5.93079Z" fill="#ACB9CB"/>
<path fill-rule="evenodd" clip-rule="evenodd" d="M5.26819 0.628906L5.93091 1.29163L5.26819 1.95422L4.60547 1.29163L5.26819 0.628906Z" fill="#ACB9CB"/>
<path fill-rule="evenodd" clip-rule="evenodd" d="M5.26807 5.93079L4.60547 5.26807L5.26807 4.60547L5.93079 5.26807L5.26807 5.93079Z" fill="#ACB9CB"/>
<path fill-rule="evenodd" clip-rule="evenodd" d="M1.29211 0.628906L1.95483 1.29163L1.29211 1.95435L0.629395 1.29163L1.29211 0.628906Z" fill="#ACB9CB"/>
</svg>
