<svg width="16" height="16" viewBox="0 0 16 16" fill="none" xmlns="http://www.w3.org/2000/svg">
<path fill-rule="evenodd" clip-rule="evenodd" d="M5.47812 1.00327C5.55937 1.00015 5.6625 1.0189 5.70937 1.0439C5.75937 1.06577 5.83437 1.12827 5.88125 1.18452C5.93125 1.23765 5.97813 1.33452 5.9875 1.39702C5.99687 1.46265 5.99687 1.56577 5.98437 1.62515C5.97187 1.69077 5.91563 1.77827 5.84687 1.8439C5.78437 1.90327 5.61875 2.01265 5.48125 2.08452C5.34687 2.15952 5.15625 2.28765 5.0625 2.37202C4.96875 2.4564 4.89687 2.53452 4.90625 2.5439C4.91562 2.55327 4.98437 2.55015 5.0625 2.5314C5.14062 2.51577 5.28437 2.50015 5.38125 2.50015C5.48125 2.50015 5.65625 2.52202 5.77187 2.54702C5.89062 2.57515 6.09375 2.6564 6.225 2.72827C6.35937 2.80015 6.55937 2.93765 6.67187 3.0314C6.78125 3.12515 6.9 3.25952 6.93437 3.32827C6.97187 3.39702 7 3.4939 7 3.54702C7 3.60015 6.975 3.69702 6.94375 3.76577C6.90625 3.8439 6.84062 3.9189 6.7625 3.96577C6.67187 4.02202 6.6 4.04077 6.48437 4.03765C6.37187 4.03452 6.29687 4.00952 6.21875 3.95327C6.15937 3.90952 6.03125 3.81265 5.9375 3.73452C5.84375 3.6564 5.69375 3.57202 5.60937 3.5439C5.5 3.5064 5.40625 3.49702 5.29687 3.51265C5.20937 3.52202 5.08125 3.56577 5.00625 3.60952C4.93437 3.65327 4.875 3.6939 4.875 3.70327C4.875 3.71265 4.95312 3.75952 5.04687 3.81265C5.14062 3.86577 5.30625 3.99702 5.4125 4.1064C5.52187 4.21577 5.65625 4.37827 5.70937 4.47202C5.76562 4.56577 5.85 4.74702 5.89375 4.87515C5.95937 5.05952 5.97812 5.17202 5.98125 5.39702C5.98437 5.64077 5.975 5.6939 5.91875 5.77202C5.88125 5.8189 5.8125 5.88765 5.76875 5.92202C5.70625 5.9689 5.63437 5.98452 5.5 5.98452C5.36562 5.98452 5.29375 5.9689 5.23125 5.92202C5.1875 5.88765 5.12187 5.82515 5.0875 5.7814C5.05312 5.73452 5.01562 5.61265 4.99687 5.4689C4.98125 5.34077 4.93438 5.16265 4.89375 5.07827C4.85312 4.9939 4.75937 4.86265 4.68437 4.78765C4.60937 4.71577 4.5375 4.6564 4.52187 4.6564C4.50937 4.6564 4.5 5.36265 4.5 7.79702L6.13125 6.16577C7.50625 4.7939 7.78437 4.5314 7.875 4.51577C7.93437 4.50327 8.04062 4.50327 8.10937 4.51577C8.22187 4.53452 8.325 4.62827 10 6.29702L10.8812 5.41577C11.675 4.62827 11.7781 4.53452 11.8906 4.51577C11.9594 4.50327 12.0656 4.50327 12.125 4.51577C12.2156 4.5314 12.4563 4.7564 13.6 5.90015C14.7437 7.0439 14.9687 7.28452 14.9844 7.37515C14.9969 7.43452 14.9969 7.54077 14.9844 7.60952C14.9698 7.69285 14.924 7.77202 14.8469 7.84702C14.7719 7.9241 14.6927 7.96994 14.6094 7.98452C14.5406 7.99702 14.4344 7.99702 14.375 7.98452C14.2844 7.9689 14.075 7.77515 12 5.70327L10.7031 7.00015L11.7031 7.99702L12.3125 8.00952C12.7344 8.0189 12.975 8.03764 13.0937 8.07202C13.1875 8.09702 13.3437 8.15015 13.4375 8.18452C13.5312 8.2189 13.7188 8.3189 13.85 8.4064C13.9844 8.49077 14.1719 8.6439 14.2719 8.7439C14.3687 8.84077 14.5156 9.02827 14.6 9.1564C14.6844 9.28452 14.7812 9.4689 14.8156 9.56265C14.8531 9.6564 14.9094 9.84702 14.9437 9.98452C15 10.2189 15.0031 10.322 14.9937 11.5783C14.9844 12.7064 14.975 12.9501 14.9312 13.0939C14.9031 13.1876 14.85 13.3439 14.8156 13.4376C14.7812 13.5314 14.6844 13.7158 14.6 13.8439C14.5156 13.972 14.3656 14.1626 14.2625 14.2626C14.1625 14.3658 13.9719 14.5158 13.8437 14.6001C13.7156 14.6845 13.5312 14.7814 13.4375 14.8158C13.3437 14.8501 13.1625 14.9064 13.0375 14.9408C12.8344 14.9939 12.6969 15.0001 11.5375 15.0001C10.3313 15.0001 10.2562 14.997 10.0781 14.9376C9.975 14.9001 9.82187 14.8345 9.7375 14.7876C9.65625 14.7408 9.5125 14.6251 9.42187 14.5314C9.33125 14.4376 9.21875 14.2783 9.07812 14.0001H6.92187L6.83125 14.1783C6.78125 14.2783 6.66875 14.4376 6.57812 14.5314C6.4875 14.6251 6.34375 14.7408 6.2625 14.7876C6.17812 14.8345 6.025 14.9001 5.92187 14.9376C5.74375 14.997 5.66875 15.0001 4.45937 15.0001C3.30312 15.0001 3.16562 14.9939 2.95937 14.9408C2.8375 14.9064 2.65625 14.8501 2.5625 14.8158C2.46875 14.7814 2.28437 14.6845 2.15625 14.6001C2.02812 14.5158 1.8375 14.3658 1.7375 14.2626C1.63437 14.1626 1.48437 13.972 1.4 13.8439C1.31562 13.7158 1.21875 13.5314 1.18438 13.4376C1.14688 13.3439 1.09062 13.1533 1.05625 13.0158C1 12.7814 0.996875 12.6783 1.00625 11.422C1.01563 10.2939 1.025 10.0501 1.06875 9.9064C1.09688 9.81265 1.15 9.6564 1.18438 9.56265C1.21875 9.4689 1.31875 9.2814 1.40625 9.15015C1.49062 9.01577 1.64375 8.82827 1.74062 8.72827C1.84062 8.63139 2.02812 8.48452 2.15625 8.40015C2.28437 8.31577 2.46875 8.2189 2.5625 8.18452C2.65625 8.15015 2.8125 8.10015 2.90625 8.07515C3 8.05015 3.17187 8.0189 3.5 7.98452V6.3189C3.5 5.4064 3.49062 4.6564 3.475 4.6564C3.4625 4.6564 3.39062 4.71577 3.31562 4.78765C3.24062 4.86265 3.14687 4.9939 3.10625 5.07827C3.06562 5.16577 3.01875 5.34077 3.00312 5.4689C2.98437 5.60327 2.94687 5.73452 2.91562 5.77827C2.88437 5.8189 2.81875 5.8814 2.77187 5.9189C2.70312 5.9689 2.6375 5.98452 2.5 5.98452C2.36562 5.98452 2.29375 5.9689 2.23125 5.92202C2.1875 5.88765 2.11875 5.8189 2.08125 5.77202C2.025 5.6939 2.01562 5.64077 2.01875 5.39702C2.02187 5.17202 2.04062 5.05952 2.10625 4.87515C2.15 4.74702 2.23438 4.56577 2.29062 4.47202C2.34375 4.37827 2.47812 4.21577 2.58437 4.1064C2.69375 3.99702 2.85937 3.86577 2.95312 3.81265C3.04687 3.75952 3.125 3.71265 3.125 3.70327C3.125 3.6939 3.06562 3.65327 2.99062 3.60952C2.91875 3.56577 2.7875 3.52202 2.70312 3.51265C2.59375 3.49702 2.5 3.5064 2.39062 3.5439C2.30312 3.57202 2.15625 3.6564 2.0625 3.73452C1.96875 3.81265 1.84062 3.90952 1.78125 3.95327C1.70312 4.00952 1.62812 4.03452 1.51562 4.03765C1.40625 4.04077 1.325 4.02202 1.24063 3.97515C1.17188 3.93452 1.1 3.8564 1.0625 3.7814C1.02812 3.71265 1 3.60952 1 3.55327C1 3.50015 1.02812 3.39702 1.06562 3.32827C1.1 3.25952 1.21875 3.12515 1.32812 3.0314C1.44062 2.93765 1.64062 2.80015 1.775 2.72827C1.90625 2.6564 2.10937 2.57515 2.225 2.54702C2.34375 2.52202 2.51875 2.50015 2.61562 2.50015C2.71562 2.50015 2.88437 2.52202 2.99062 2.54702C3.1 2.57202 3.27187 2.63452 3.375 2.68765C3.47812 2.74077 3.57187 2.7814 3.58437 2.7814C3.6 2.78452 3.63437 2.71577 3.66875 2.63452C3.7 2.55327 3.78437 2.38452 3.85312 2.26577C3.925 2.14702 4.08125 1.9439 4.20312 1.81577C4.32187 1.69077 4.49062 1.53452 4.575 1.47202C4.65937 1.40952 4.86562 1.2814 5.02812 1.18452C5.27187 1.04077 5.35625 1.0064 5.475 1.00327H5.47812ZM5.70625 8.00015H10.3C8.53125 6.2314 8.0125 5.7189 8.00312 5.7189C7.99375 5.7189 7.475 6.2314 6.84687 6.85952L5.70625 8.00015ZM2.77187 9.19702C2.67187 9.25327 2.51562 9.37515 2.425 9.4689C2.3375 9.56265 2.225 9.71577 2.17812 9.80327C2.13437 9.8939 2.075 10.0501 2.05 10.147C2.0125 10.2939 2.00312 10.5564 2.00312 11.5001C2.00312 12.4439 2.0125 12.7064 2.05 12.8501C2.075 12.9501 2.13437 13.1064 2.17812 13.1939C2.225 13.2845 2.34062 13.4408 2.4375 13.5408C2.54375 13.6533 2.69062 13.7626 2.81562 13.8251C2.92812 13.8814 3.09687 13.9439 3.19062 13.9658C3.30937 13.9908 3.71875 14.0001 4.525 13.9939C5.62812 13.9845 5.69062 13.9814 5.77187 13.922C5.81562 13.8876 5.88125 13.8251 5.91562 13.7814C5.94687 13.7376 5.9875 13.6126 6.00312 13.5001C6.01875 13.3876 6.05937 13.2626 6.09062 13.2189C6.125 13.1751 6.19062 13.1126 6.23437 13.0783C6.31875 13.0189 6.36875 13.0158 8.00312 13.0158C9.6375 13.0158 9.6875 13.0189 9.77187 13.0783C9.81563 13.1126 9.88125 13.1751 9.91562 13.2189C9.94687 13.2626 9.9875 13.3876 10.0031 13.5001C10.0187 13.6126 10.0562 13.7376 10.0875 13.7783C10.1187 13.8189 10.1844 13.8814 10.2312 13.9189C10.3187 13.9814 10.3531 13.9845 11.4812 13.9939C12.2875 14.0001 12.6969 13.9908 12.8156 13.9658C12.9094 13.9439 13.0781 13.8814 13.1906 13.8251C13.3125 13.7626 13.4625 13.6501 13.5687 13.5408C13.6719 13.4345 13.7875 13.2751 13.8437 13.1564C13.8969 13.0439 13.9531 12.8751 13.9719 12.7814C13.9906 12.6814 14.0031 12.122 14.0031 11.4689C14.0031 10.5533 13.9937 10.2939 13.9562 10.147C13.9312 10.0501 13.8719 9.8939 13.825 9.80327C13.7812 9.71577 13.6687 9.56265 13.5812 9.4689C13.4906 9.37515 13.3344 9.25327 13.2344 9.19702C13.1312 9.1439 12.9656 9.07515 12.8625 9.05015C12.6969 9.0064 12.1469 9.00015 7.9875 9.00327C3.93438 9.00327 3.27812 9.00952 3.12812 9.05015C3.03437 9.07515 2.875 9.1439 2.77187 9.19702ZM11.7844 9.50015C12.0344 9.50015 12.2375 9.51577 12.3531 9.54702C12.4531 9.57202 12.6094 9.6314 12.6969 9.67827C12.7875 9.72202 12.9437 9.83765 13.0437 9.93452C13.1562 10.0408 13.2656 10.1876 13.3281 10.3126C13.3844 10.4251 13.45 10.6001 13.4719 10.7033C13.4937 10.8064 13.5031 10.9595 13.4937 11.047C13.4844 11.1314 13.45 11.2376 13.4156 11.2814C13.3812 11.3251 13.3156 11.3876 13.2719 11.422C13.2094 11.4689 13.1375 11.4845 13.0031 11.4845C12.8656 11.4845 12.7969 11.4689 12.7312 11.4189C12.6844 11.3814 12.6187 11.3189 12.5875 11.2783C12.5562 11.2376 12.5187 11.1126 12.5031 11.0001C12.4875 10.8876 12.4469 10.7626 12.4156 10.7189C12.3812 10.6751 12.3156 10.6126 12.2719 10.5783C12.2 10.5251 12.1219 10.5126 11.7594 10.5001C11.525 10.4908 11.3031 10.4689 11.2687 10.4501C11.2344 10.4314 11.1687 10.372 11.1187 10.3158C11.0719 10.2626 11.025 10.1658 11.0156 10.1001C11.0031 10.0376 11.0031 9.93765 11.0156 9.8814C11.025 9.82827 11.0656 9.73765 11.1062 9.68452C11.1469 9.62827 11.2281 9.56577 11.2875 9.5439C11.3531 9.5189 11.5375 9.50327 11.7844 9.50015ZM12.9937 12.0001C13.05 12.0001 13.1437 12.0189 13.1969 12.0408C13.2531 12.0658 13.3375 12.1283 13.3844 12.1814C13.4344 12.2376 13.4812 12.3345 13.4906 12.397C13.5 12.4626 13.5 12.5658 13.4875 12.6251C13.475 12.6876 13.4156 12.7814 13.35 12.847C13.275 12.9241 13.1958 12.9699 13.1125 12.9845C13.0437 12.997 12.9375 12.997 12.8781 12.9845C12.8156 12.972 12.7219 12.9126 12.6562 12.847C12.5792 12.772 12.5333 12.6929 12.5187 12.6095C12.5062 12.5408 12.5031 12.4376 12.5156 12.3814C12.525 12.3283 12.5656 12.2376 12.6062 12.1845C12.6469 12.1283 12.7281 12.0658 12.7875 12.0439C12.8469 12.022 12.9406 12.0033 12.9937 12.0001Z" fill="#ACB9CB"/>
</svg>
