<svg width="312" height="202" viewBox="0 0 312 202" fill="none" xmlns="http://www.w3.org/2000/svg">
<path d="M29 88L30.1617 91.9725C31.6936 97.2105 35.7895 101.306 41.0275 102.838L45 104L41.0275 105.162C35.7895 106.694 31.6936 110.79 30.1617 116.027L29 120L27.8382 116.027C26.3064 110.79 22.2105 106.694 16.9725 105.162L13 104L16.9725 102.838C22.2105 101.306 26.3064 97.2105 27.8382 91.9725L29 88Z" fill="#E9E9E9"/>
<path d="M285.5 0L289.038 12.0966C290.569 17.3346 294.665 21.4305 299.903 22.9624L312 26.5L299.903 30.0376C294.665 31.5695 290.569 35.6654 289.038 40.9034L285.5 53L281.962 40.9034C280.431 35.6654 276.335 31.5695 271.097 30.0376L259 26.5L271.097 22.9624C276.335 21.4305 280.431 17.3346 281.962 12.0966L285.5 0Z" fill="#E9E9E9"/>
<path d="M132.5 26L133.096 28.0382C134.628 33.2762 138.724 37.3721 143.962 38.9039L146 39.5L143.962 40.0961C138.724 41.6279 134.628 45.7238 133.096 50.9618L132.5 53L131.904 50.9618C130.372 45.7238 126.276 41.6279 121.038 40.0961L119 39.5L121.038 38.9039C126.276 37.3721 130.372 33.2762 131.904 28.0382L132.5 26Z" fill="#E9E9E9"/>
<path d="M89.5 175L90.0961 177.038C91.6279 182.276 95.7238 186.372 100.962 187.904L103 188.5L100.962 189.096C95.7238 190.628 91.6279 194.724 90.0961 199.962L89.5 202L88.9039 199.962C87.3721 194.724 83.2762 190.628 78.0382 189.096L76 188.5L78.0382 187.904C83.2762 186.372 87.3721 182.276 88.9039 177.038L89.5 175Z" fill="#E9E9E9"/>
</svg>
