<svg width="30" height="40" viewBox="0 0 30 40" fill="none" xmlns="http://www.w3.org/2000/svg">
<path d="M23.3817 20C26.77 16.7133 30 11.9383 30 5.68167C30 2.54833 27.4517 0 24.3183 0H5.68167C2.54833 0 0 2.55 0 5.68333C0 11.94 3.24167 16.715 6.64333 20.0017C3.24167 23.2867 0 28.06 0 34.3183V40H30V34.3183C30 28.0633 26.77 23.2867 23.3817 20ZM25 35H5V34.3183C5 28.6767 8.80167 24.485 11.9917 21.9617L14.47 20.0017L11.9917 18.0417C8.80167 15.5183 5 11.325 5 5.68333C5 5.30667 5.30667 5.00167 5.68167 5.00167H24.3183C24.695 5.00167 25 5.30667 25 5.68333C25 11.325 21.215 15.5183 18.0383 18.045L15.5783 20.0017L18.0383 21.9583C21.2133 24.485 25 28.6783 25 34.32V35Z" fill="#F65A03"/>
<path d="M15.0188 16.1847L15.9621 15.4347H15.9638C18.0038 13.8113 20.3538 11.3847 21.2705 8.33301H8.73047C9.65214 11.3797 12.0105 13.803 14.0588 15.4247L15.0188 16.1847Z" fill="#FFB92B"/>
</svg>
