<svg width="27" height="40" viewBox="0 0 27 40" fill="none" xmlns="http://www.w3.org/2000/svg">
<path d="M8.33255 21.6666V39.9999H3.33255V29.2666L0.199219 26.2166L4.63255 21.6833H8.33255V21.6666ZM19.9992 7.59993L16.8659 4.54993L21.2992 0.0166016H24.9992V18.3333H19.9992V7.59993Z" fill="#F65A03"/>
<path d="M7.5 18.3333C11.6333 18.3333 15 14.9667 15 10.8333V7.5C15 3.36667 11.6333 0 7.5 0C3.36667 0 0 3.36667 0 7.5V10.8333C0 14.9667 3.36667 18.3333 7.5 18.3333ZM5 7.5C5 6.11667 6.11667 5 7.5 5C8.88333 5 10 6.11667 10 7.5V10.8333C10 12.2167 8.88333 13.3333 7.5 13.3333C6.11667 13.3333 5 12.2167 5 10.8333V7.5ZM19.1667 21.6667C15.0333 21.6667 11.6667 25.0333 11.6667 29.1667V32.5C11.6667 36.6333 15.0333 40 19.1667 40C23.3 40 26.6667 36.6333 26.6667 32.5V29.1667C26.6667 25.0333 23.3 21.6667 19.1667 21.6667ZM21.6667 32.5C21.6667 33.8833 20.55 35 19.1667 35C17.7833 35 16.6667 33.8833 16.6667 32.5V29.1667C16.6667 27.7833 17.7833 26.6667 19.1667 26.6667C20.55 26.6667 21.6667 27.7833 21.6667 29.1667V32.5Z" fill="#FFB92B"/>
</svg>
