<svg width="40" height="40" viewBox="0 0 40 40" fill="none" xmlns="http://www.w3.org/2000/svg">
<g clip-path="url(#clip0_249_25781)">
<path d="M5 34.1667V0H0V34.1667C0 35.7138 0.614581 37.1975 1.70854 38.2915C2.80251 39.3854 4.28624 40 5.83333 40H40V35H5.83333C5.61232 35 5.40036 34.9122 5.24408 34.7559C5.0878 34.5996 5 34.3877 5 34.1667Z" fill="#F65A03"/>
<path d="M35.9338 20.7318L26.6655 11.4651L22.4988 15.6318L14.2671 7.39844L10.7305 10.9351L22.4988 22.7018L26.6655 18.5351L32.3971 24.2684L28.3321 28.3334H37.4988C38.1618 28.3334 38.7977 28.07 39.2666 27.6012C39.7354 27.1324 39.9988 26.4965 39.9988 25.8334V16.6668L35.9338 20.7318Z" fill="#FFB92B"/>
</g>
<defs>
<clipPath id="clip0_249_25781">
<rect width="40" height="40" fill="white"/>
</clipPath>
</defs>
</svg>
