<svg width="24" height="24" viewBox="0 0 24 24" fill="none" xmlns="http://www.w3.org/2000/svg">
<g id="free-icon-font-puzzle-pieces-13794345 1" clip-path="url(#clip0_2029_37617)">
<path id="Vector" d="M15.782 23.5566C15.032 24.3376 13.79 24.3616 13.009 23.6116C12.968 23.5716 11.967 22.1996 11.789 21.9476L10.462 23.2546C9.88298 23.8346 9.10598 24.1556 8.27898 24.1556C7.45198 24.1556 6.67498 23.8336 6.09098 23.2486L4.64298 21.8006C5.58098 21.1396 6.41298 20.5516 6.43098 20.5336C7.18198 19.7526 7.25798 18.6286 6.24698 17.6376C6.20598 17.5946 6.29198 17.6766 6.24698 17.6376C5.42898 16.9286 4.18998 17.0166 3.48098 17.8346C3.37398 17.9616 2.88098 18.6716 2.32498 19.4816L0.907984 18.0646C-0.299016 16.8576 -0.299016 14.8946 0.907984 13.6886L2.00698 12.6066C1.54398 12.2716 0.580984 11.5676 0.547984 11.5336C-0.202016 10.7526 -0.178016 9.51158 0.602984 8.76058C1.50898 7.85458 2.78898 8.01658 3.49898 8.83458C3.70798 9.08158 4.20598 9.80658 4.46598 10.1866L6.55498 8.12958L10.082 11.6566C9.65798 11.9616 8.58298 12.7466 8.54798 12.7836C7.79798 13.5646 7.88598 14.8706 8.66698 15.6206C9.48498 16.3296 10.789 16.3006 11.498 15.4816C11.717 15.2216 12.255 14.4366 12.502 14.0766L16.115 17.6896L14.193 19.5816C14.467 19.7696 15.417 20.4156 15.708 20.6606C16.526 21.3696 16.678 22.6946 15.782 23.5566ZM23.323 12.6606C23.094 12.4676 22.455 12.0256 22.061 11.7546L23.122 10.5956C24.292 9.42658 24.292 7.52258 23.122 6.35258L21.595 4.82458C22.09 4.48558 23.09 3.85158 23.323 3.65558C24.141 2.94658 24.23 1.70758 23.52 0.889578C22.715 -0.0514218 21.405 -0.0454218 20.624 0.705578C20.59 0.738578 19.623 1.92258 19.234 2.46458L17.804 1.03458C16.633 -0.134422 14.73 -0.133422 13.561 1.03458L12.762 1.83358C13.681 2.46258 14.544 3.05958 14.685 3.17858C15.503 3.88758 15.592 5.12658 14.882 5.94458C14.843 5.98958 14.925 5.90358 14.882 5.94458C13.891 6.95558 12.767 6.87958 11.986 6.12858C11.965 6.10858 11.262 5.11158 10.527 4.06858L7.97298 6.72058L17.539 16.2866L17.533 16.2806L19.598 14.2166C19.947 14.6986 20.591 15.5796 20.624 15.6106C21.405 16.3606 22.512 16.3736 23.52 15.4266C24.229 14.6086 24.141 13.3696 23.323 12.6606Z" fill="#333333"/>
</g>
<defs>
<clipPath id="clip0_2029_37617">
<rect width="24" height="24" fill="white" transform="translate(0 0.158203)"/>
</clipPath>
</defs>
</svg>
