<svg width="24" height="24" viewBox="0 0 24 24" fill="none" xmlns="http://www.w3.org/2000/svg">
<path fill-rule="evenodd" clip-rule="evenodd" d="M22.35 1.64454C22.3922 1.63985 22.4062 3.66485 22.4062 21.6086H24V23.2024H0V21.6086H1.59375V15.4211L11.2031 10.6164L11.1844 7.19454L16.7344 4.41954C19.7906 2.89141 22.3172 1.64454 22.3453 1.64454H22.35ZM12.7828 8.20235L12.8016 21.6086H20.8172C20.8172 8.13204 20.8031 4.21798 20.7797 4.22266C20.7609 4.22266 18.9563 5.11798 16.7672 6.21485L12.7828 8.20235ZM3.17344 16.4055L3.1875 21.6086H11.2031C11.2031 14.4883 11.1891 12.4211 11.1703 12.4211C11.1516 12.4211 9.34219 13.3211 7.15313 14.4133L3.17344 16.4055ZM14.3953 9.6086H15.9891V11.9992H14.3953V9.6086ZM17.5828 9.6086H19.2234V11.9992H17.5828V9.6086ZM14.3953 13.593H15.9891V15.9836H14.3953V13.593ZM19.2234 13.593V15.9836H17.5828L17.5734 14.8211C17.5688 14.1789 17.5828 13.6399 17.6063 13.6258C17.6297 13.607 18 13.593 19.2234 13.593ZM6.40313 17.6008V19.9914H4.80937L4.8 18.843C4.8 18.2149 4.80469 17.6711 4.81406 17.6383C4.82812 17.5867 5.00625 17.5774 6.40313 17.6008ZM8.02031 17.5774L9.59063 17.6008L9.61406 20.0149H8.02031V17.5774ZM15.9844 17.582V20.0195H14.3906L14.3859 18.8289C14.3812 18.1774 14.3953 17.6289 14.4141 17.6102C14.4375 17.5961 14.7984 17.582 15.9844 17.582ZM19.1953 17.6055V19.9961H17.6016L17.5969 18.8477C17.5922 18.2149 17.5969 17.6711 17.6063 17.6383C17.625 17.5914 17.8031 17.582 19.1953 17.6055Z" fill="#333333"/>
</svg>
