<svg width="1731" height="98" viewBox="0 0 1731 98" fill="none" xmlns="http://www.w3.org/2000/svg">
<path d="M1 9L1730 9.00015" stroke="#E1E1E1" stroke-width="1.5" stroke-linecap="round"/>
<path d="M654.5 2.20577L668 10L654.5 17.7942L654.5 2.20577Z" fill="#A6ABB4" stroke="#E1E1E1"/>
<path d="M1060.5 2.20577L1074 10L1060.5 17.7942L1060.5 2.20577Z" fill="#A6ABB4" stroke="#E1E1E1"/>
<circle cx="1597" cy="10" r="9.5" fill="#A6ABB4" stroke="#E1E1E1"/>
<circle cx="180" cy="10" r="9.5" fill="#A6ABB4" stroke="#E1E1E1"/>
<path d="M180 20.5002V20.5002C180 48.9428 203.057 72 231.5 72L1545.5 72C1574.22 72 1597.5 48.7189 1597.5 20.0001V20.0001" stroke="#E1E1E1" stroke-width="1.5"/>
<rect x="653.75" y="48.75" width="424.5" height="48.5" rx="24.25" fill="#F6F6F6" stroke="#E1E1E1" stroke-width="1.5"/>
<path d="M789.701 79H786.985V71.5645C786.985 71.3594 786.988 71.1074 786.994 70.8086C787 70.5039 787.009 70.1934 787.021 69.877C787.032 69.5547 787.044 69.2646 787.056 69.0068C786.991 69.083 786.859 69.2148 786.66 69.4023C786.467 69.584 786.285 69.748 786.115 69.8945L784.639 71.0811L783.329 69.4463L787.469 66.1504H789.701V79ZM802.56 76.3369H801.013V79H798.358V76.3369H792.874V74.4473L798.508 66.1504H801.013V74.2275H802.56V76.3369ZM798.358 74.2275V72.0479C798.358 71.8428 798.361 71.5996 798.367 71.3184C798.379 71.0371 798.391 70.7559 798.402 70.4746C798.414 70.1934 798.426 69.9443 798.438 69.7275C798.455 69.5049 798.467 69.3496 798.473 69.2617H798.402C798.291 69.502 798.174 69.7363 798.051 69.9648C797.928 70.1875 797.784 70.4219 797.62 70.668L795.265 74.2275H798.358ZM803.403 75.2734V73.0762H808.123V75.2734H803.403ZM818.371 79H809.389V77.1104L812.614 73.8496C813.265 73.1816 813.786 72.625 814.179 72.1797C814.577 71.7285 814.864 71.3184 815.04 70.9492C815.222 70.5801 815.312 70.1846 815.312 69.7627C815.312 69.2529 815.169 68.8721 814.882 68.6201C814.601 68.3623 814.223 68.2334 813.748 68.2334C813.25 68.2334 812.767 68.3477 812.298 68.5762C811.829 68.8047 811.34 69.1299 810.83 69.5518L809.354 67.8027C809.723 67.4863 810.112 67.1875 810.522 66.9062C810.938 66.625 811.419 66.3994 811.964 66.2295C812.515 66.0537 813.174 65.9658 813.941 65.9658C814.785 65.9658 815.509 66.1182 816.112 66.4229C816.722 66.7275 817.19 67.1436 817.519 67.6709C817.847 68.1924 818.011 68.7842 818.011 69.4463C818.011 70.1553 817.87 70.8027 817.589 71.3887C817.308 71.9746 816.897 72.5547 816.358 73.1289C815.825 73.7031 815.181 74.3389 814.425 75.0361L812.772 76.5918V76.7148H818.371V79ZM826.404 79H823.688V71.5645C823.688 71.3594 823.691 71.1074 823.697 70.8086C823.703 70.5039 823.712 70.1934 823.724 69.877C823.735 69.5547 823.747 69.2646 823.759 69.0068C823.694 69.083 823.562 69.2148 823.363 69.4023C823.17 69.584 822.988 69.748 822.818 69.8945L821.342 71.0811L820.032 69.4463L824.172 66.1504H826.404V79ZM836.942 65.3242V68.7432C836.942 69.1357 836.931 69.5166 836.907 69.8857C836.89 70.2549 836.875 70.542 836.863 70.7471H836.942C837.206 70.3135 837.587 69.9473 838.085 69.6484C838.583 69.3496 839.219 69.2002 839.992 69.2002C841.199 69.2002 842.16 69.6191 842.875 70.457C843.596 71.2891 843.956 72.5283 843.956 74.1748C843.956 75.2588 843.792 76.1729 843.464 76.917C843.136 77.6611 842.673 78.2236 842.075 78.6045C841.478 78.9854 840.771 79.1758 839.957 79.1758C839.195 79.1758 838.568 79.0352 838.076 78.7539C837.59 78.4668 837.215 78.1182 836.951 77.708H836.837L836.538 79H835.483V65.3242H836.942ZM839.755 70.4219C839.058 70.4219 838.504 70.5596 838.094 70.835C837.684 71.1045 837.388 71.5146 837.206 72.0654C837.03 72.6104 836.942 73.3018 836.942 74.1396V74.2188C836.942 75.4316 837.145 76.3604 837.549 77.0049C837.953 77.6436 838.688 77.9629 839.755 77.9629C840.651 77.9629 841.322 77.6348 841.768 76.9785C842.219 76.3223 842.444 75.3848 842.444 74.166C842.444 72.9238 842.222 71.9893 841.776 71.3623C841.337 70.7354 840.663 70.4219 839.755 70.4219ZM854.459 69.3672V79H853.264L853.053 77.6465H852.974C852.774 77.9805 852.517 78.2617 852.2 78.4902C851.884 78.7188 851.526 78.8887 851.128 79C850.735 79.1172 850.316 79.1758 849.871 79.1758C849.109 79.1758 848.471 79.0527 847.955 78.8066C847.439 78.5605 847.05 78.1797 846.786 77.6641C846.528 77.1484 846.399 76.4863 846.399 75.6777V69.3672H847.876V75.5723C847.876 76.375 848.058 76.9756 848.421 77.374C848.784 77.7666 849.338 77.9629 850.082 77.9629C850.797 77.9629 851.365 77.8281 851.787 77.5586C852.215 77.2891 852.522 76.8936 852.71 76.3721C852.897 75.8447 852.991 75.2002 852.991 74.4385V69.3672H854.459ZM863.775 76.3633C863.775 76.9785 863.62 77.4971 863.31 77.9189C863.005 78.335 862.565 78.6484 861.991 78.8594C861.423 79.0703 860.743 79.1758 859.952 79.1758C859.278 79.1758 858.695 79.123 858.203 79.0176C857.711 78.9121 857.28 78.7627 856.911 78.5693V77.2246C857.304 77.418 857.772 77.5938 858.317 77.752C858.862 77.9102 859.419 77.9893 859.987 77.9893C860.819 77.9893 861.423 77.8545 861.798 77.585C862.173 77.3154 862.36 76.9492 862.36 76.4863C862.36 76.2227 862.284 75.9912 862.132 75.792C861.985 75.5869 861.736 75.3906 861.385 75.2031C861.033 75.0098 860.547 74.7988 859.926 74.5703C859.311 74.3359 858.777 74.1045 858.326 73.876C857.881 73.6416 857.535 73.3574 857.289 73.0234C857.049 72.6895 856.929 72.2559 856.929 71.7227C856.929 70.9082 857.257 70.2842 857.913 69.8506C858.575 69.4111 859.442 69.1914 860.515 69.1914C861.095 69.1914 861.637 69.25 862.141 69.3672C862.65 69.4785 863.125 69.6309 863.564 69.8242L863.072 70.9932C862.674 70.8232 862.249 70.6797 861.798 70.5625C861.347 70.4453 860.887 70.3867 860.418 70.3867C859.744 70.3867 859.226 70.498 858.862 70.7207C858.505 70.9434 858.326 71.248 858.326 71.6348C858.326 71.9336 858.408 72.1797 858.572 72.373C858.742 72.5664 859.012 72.748 859.381 72.918C859.75 73.0879 860.236 73.2871 860.84 73.5156C861.443 73.7383 861.965 73.9697 862.404 74.21C862.844 74.4443 863.181 74.7314 863.415 75.0713C863.655 75.4053 863.775 75.8359 863.775 76.3633ZM867.581 69.3672V79H866.122V69.3672H867.581ZM866.869 65.7637C867.109 65.7637 867.314 65.8428 867.484 66.001C867.66 66.1533 867.748 66.3936 867.748 66.7217C867.748 67.0439 867.66 67.2842 867.484 67.4424C867.314 67.6006 867.109 67.6797 866.869 67.6797C866.617 67.6797 866.406 67.6006 866.236 67.4424C866.072 67.2842 865.99 67.0439 865.99 66.7217C865.99 66.3936 866.072 66.1533 866.236 66.001C866.406 65.8428 866.617 65.7637 866.869 65.7637ZM875.236 69.1914C876.379 69.1914 877.243 69.4727 877.829 70.0352C878.415 70.5918 878.708 71.4883 878.708 72.7246V79H877.267V72.8213C877.267 72.0186 877.082 71.418 876.713 71.0195C876.35 70.6211 875.79 70.4219 875.034 70.4219C873.968 70.4219 873.218 70.7236 872.784 71.3271C872.351 71.9307 872.134 72.8066 872.134 73.9551V79H870.675V69.3672H871.853L872.072 70.7559H872.151C872.356 70.416 872.617 70.1318 872.934 69.9033C873.25 69.6689 873.604 69.4932 873.997 69.376C874.39 69.2529 874.803 69.1914 875.236 69.1914ZM885.423 69.1914C886.243 69.1914 886.946 69.373 887.532 69.7363C888.118 70.0996 888.566 70.6094 888.877 71.2656C889.188 71.916 889.343 72.6777 889.343 73.5508V74.4561H882.689C882.707 75.5869 882.988 76.4482 883.533 77.04C884.078 77.6318 884.846 77.9277 885.836 77.9277C886.445 77.9277 886.984 77.8721 887.453 77.7607C887.922 77.6494 888.408 77.4854 888.912 77.2686V78.5518C888.426 78.7686 887.942 78.9268 887.462 79.0264C886.987 79.126 886.425 79.1758 885.774 79.1758C884.849 79.1758 884.04 78.9883 883.349 78.6133C882.663 78.2324 882.13 77.6758 881.749 76.9434C881.368 76.2109 881.178 75.3145 881.178 74.2539C881.178 73.2168 881.351 72.3203 881.696 71.5645C882.048 70.8027 882.54 70.2168 883.173 69.8066C883.812 69.3965 884.562 69.1914 885.423 69.1914ZM885.405 70.3867C884.626 70.3867 884.005 70.6416 883.542 71.1514C883.079 71.6611 882.804 72.373 882.716 73.2871H887.813C887.808 72.7129 887.717 72.209 887.541 71.7754C887.371 71.3359 887.11 70.9961 886.759 70.7559C886.407 70.5098 885.956 70.3867 885.405 70.3867ZM898.053 76.3633C898.053 76.9785 897.897 77.4971 897.587 77.9189C897.282 78.335 896.843 78.6484 896.269 78.8594C895.7 79.0703 895.021 79.1758 894.229 79.1758C893.556 79.1758 892.973 79.123 892.48 79.0176C891.988 78.9121 891.558 78.7627 891.188 78.5693V77.2246C891.581 77.418 892.05 77.5938 892.595 77.752C893.14 77.9102 893.696 77.9893 894.265 77.9893C895.097 77.9893 895.7 77.8545 896.075 77.585C896.45 77.3154 896.638 76.9492 896.638 76.4863C896.638 76.2227 896.562 75.9912 896.409 75.792C896.263 75.5869 896.014 75.3906 895.662 75.2031C895.311 75.0098 894.824 74.7988 894.203 74.5703C893.588 74.3359 893.055 74.1045 892.604 73.876C892.158 73.6416 891.812 73.3574 891.566 73.0234C891.326 72.6895 891.206 72.2559 891.206 71.7227C891.206 70.9082 891.534 70.2842 892.19 69.8506C892.853 69.4111 893.72 69.1914 894.792 69.1914C895.372 69.1914 895.914 69.25 896.418 69.3672C896.928 69.4785 897.402 69.6309 897.842 69.8242L897.35 70.9932C896.951 70.8232 896.526 70.6797 896.075 70.5625C895.624 70.4453 895.164 70.3867 894.695 70.3867C894.021 70.3867 893.503 70.498 893.14 70.7207C892.782 70.9434 892.604 71.248 892.604 71.6348C892.604 71.9336 892.686 72.1797 892.85 72.373C893.02 72.5664 893.289 72.748 893.658 72.918C894.027 73.0879 894.514 73.2871 895.117 73.5156C895.721 73.7383 896.242 73.9697 896.682 74.21C897.121 74.4443 897.458 74.7314 897.692 75.0713C897.933 75.4053 898.053 75.8359 898.053 76.3633ZM906.631 76.3633C906.631 76.9785 906.476 77.4971 906.165 77.9189C905.86 78.335 905.421 78.6484 904.847 78.8594C904.278 79.0703 903.599 79.1758 902.808 79.1758C902.134 79.1758 901.551 79.123 901.059 79.0176C900.566 78.9121 900.136 78.7627 899.767 78.5693V77.2246C900.159 77.418 900.628 77.5938 901.173 77.752C901.718 77.9102 902.274 77.9893 902.843 77.9893C903.675 77.9893 904.278 77.8545 904.653 77.585C905.028 77.3154 905.216 76.9492 905.216 76.4863C905.216 76.2227 905.14 75.9912 904.987 75.792C904.841 75.5869 904.592 75.3906 904.24 75.2031C903.889 75.0098 903.402 74.7988 902.781 74.5703C902.166 74.3359 901.633 74.1045 901.182 73.876C900.736 73.6416 900.391 73.3574 900.145 73.0234C899.904 72.6895 899.784 72.2559 899.784 71.7227C899.784 70.9082 900.112 70.2842 900.769 69.8506C901.431 69.4111 902.298 69.1914 903.37 69.1914C903.95 69.1914 904.492 69.25 904.996 69.3672C905.506 69.4785 905.98 69.6309 906.42 69.8242L905.928 70.9932C905.529 70.8232 905.104 70.6797 904.653 70.5625C904.202 70.4453 903.742 70.3867 903.273 70.3867C902.6 70.3867 902.081 70.498 901.718 70.7207C901.36 70.9434 901.182 71.248 901.182 71.6348C901.182 71.9336 901.264 72.1797 901.428 72.373C901.598 72.5664 901.867 72.748 902.236 72.918C902.605 73.0879 903.092 73.2871 903.695 73.5156C904.299 73.7383 904.82 73.9697 905.26 74.21C905.699 74.4443 906.036 74.7314 906.271 75.0713C906.511 75.4053 906.631 75.8359 906.631 76.3633ZM917.081 79.1758C915.862 79.1758 914.896 78.7598 914.181 77.9277C913.472 77.0957 913.117 75.8594 913.117 74.2188C913.117 72.5605 913.48 71.3096 914.207 70.4658C914.934 69.6162 915.9 69.1914 917.107 69.1914C917.617 69.1914 918.062 69.2588 918.443 69.3936C918.824 69.5283 919.152 69.71 919.428 69.9385C919.703 70.1611 919.935 70.416 920.122 70.7031H920.228C920.204 70.5215 920.181 70.2725 920.157 69.9561C920.134 69.6396 920.122 69.3818 920.122 69.1826V65.3242H921.581V79H920.403L920.184 77.6289H920.122C919.94 77.916 919.709 78.1768 919.428 78.4111C919.152 78.6455 918.821 78.833 918.435 78.9736C918.054 79.1084 917.603 79.1758 917.081 79.1758ZM917.31 77.9629C918.341 77.9629 919.07 77.6699 919.498 77.084C919.926 76.498 920.14 75.6279 920.14 74.4736V74.21C920.14 72.9854 919.935 72.0449 919.524 71.3887C919.12 70.7324 918.382 70.4043 917.31 70.4043C916.413 70.4043 915.742 70.75 915.297 71.4414C914.852 72.127 914.629 73.0645 914.629 74.2539C914.629 75.4375 914.849 76.3516 915.288 76.9961C915.733 77.6406 916.407 77.9629 917.31 77.9629ZM928.278 69.209C929.427 69.209 930.279 69.4668 930.836 69.9824C931.393 70.498 931.671 71.3213 931.671 72.4521V79H930.607L930.326 77.5762H930.256C929.986 77.9277 929.705 78.2236 929.412 78.4639C929.119 78.6982 928.779 78.877 928.393 79C928.012 79.1172 927.543 79.1758 926.986 79.1758C926.4 79.1758 925.879 79.0732 925.422 78.8682C924.971 78.6631 924.613 78.3525 924.35 77.9365C924.092 77.5205 923.963 76.9932 923.963 76.3545C923.963 75.3936 924.344 74.6553 925.105 74.1396C925.867 73.624 927.027 73.3428 928.586 73.2959L930.247 73.2256V72.6367C930.247 71.8047 930.068 71.2217 929.711 70.8877C929.354 70.5537 928.85 70.3867 928.199 70.3867C927.695 70.3867 927.215 70.46 926.758 70.6064C926.301 70.7529 925.867 70.9258 925.457 71.125L925.009 70.0176C925.442 69.7949 925.94 69.6045 926.503 69.4463C927.065 69.2881 927.657 69.209 928.278 69.209ZM930.229 74.2539L928.762 74.3154C927.561 74.3623 926.714 74.5586 926.222 74.9043C925.729 75.25 925.483 75.7393 925.483 76.3721C925.483 76.9229 925.65 77.3301 925.984 77.5938C926.318 77.8574 926.761 77.9893 927.312 77.9893C928.167 77.9893 928.867 77.752 929.412 77.2773C929.957 76.8027 930.229 76.0908 930.229 75.1416V74.2539ZM933.156 69.3672H934.721L936.848 74.957C936.971 75.2852 937.085 75.6016 937.19 75.9062C937.296 76.2051 937.39 76.4922 937.472 76.7676C937.554 77.043 937.618 77.3096 937.665 77.5674H937.727C937.809 77.2744 937.926 76.8906 938.078 76.416C938.23 75.9355 938.395 75.4463 938.57 74.9482L940.583 69.3672H942.156L937.964 80.415C937.741 81.0068 937.48 81.5225 937.182 81.9619C936.889 82.4014 936.531 82.7383 936.109 82.9727C935.688 83.2129 935.178 83.333 934.58 83.333C934.305 83.333 934.062 83.3154 933.851 83.2803C933.64 83.251 933.458 83.2158 933.306 83.1748V82.0059C933.435 82.0352 933.59 82.0615 933.771 82.085C933.959 82.1084 934.152 82.1201 934.352 82.1201C934.715 82.1201 935.028 82.0498 935.292 81.9092C935.562 81.7744 935.793 81.5752 935.986 81.3115C936.18 81.0479 936.347 80.7344 936.487 80.3711L937.015 79.0176L933.156 69.3672ZM949.926 76.3633C949.926 76.9785 949.771 77.4971 949.46 77.9189C949.155 78.335 948.716 78.6484 948.142 78.8594C947.573 79.0703 946.894 79.1758 946.103 79.1758C945.429 79.1758 944.846 79.123 944.354 79.0176C943.861 78.9121 943.431 78.7627 943.062 78.5693V77.2246C943.454 77.418 943.923 77.5938 944.468 77.752C945.013 77.9102 945.569 77.9893 946.138 77.9893C946.97 77.9893 947.573 77.8545 947.948 77.585C948.323 77.3154 948.511 76.9492 948.511 76.4863C948.511 76.2227 948.435 75.9912 948.282 75.792C948.136 75.5869 947.887 75.3906 947.535 75.2031C947.184 75.0098 946.697 74.7988 946.076 74.5703C945.461 74.3359 944.928 74.1045 944.477 73.876C944.031 73.6416 943.686 73.3574 943.439 73.0234C943.199 72.6895 943.079 72.2559 943.079 71.7227C943.079 70.9082 943.407 70.2842 944.063 69.8506C944.726 69.4111 945.593 69.1914 946.665 69.1914C947.245 69.1914 947.787 69.25 948.291 69.3672C948.801 69.4785 949.275 69.6309 949.715 69.8242L949.223 70.9932C948.824 70.8232 948.399 70.6797 947.948 70.5625C947.497 70.4453 947.037 70.3867 946.568 70.3867C945.895 70.3867 945.376 70.498 945.013 70.7207C944.655 70.9434 944.477 71.248 944.477 71.6348C944.477 71.9336 944.559 72.1797 944.723 72.373C944.893 72.5664 945.162 72.748 945.531 72.918C945.9 73.0879 946.387 73.2871 946.99 73.5156C947.594 73.7383 948.115 73.9697 948.555 74.21C948.994 74.4443 949.331 74.7314 949.565 75.0713C949.806 75.4053 949.926 75.8359 949.926 76.3633Z" fill="#212E44"/>
</svg>
