<svg width="16" height="16" viewBox="0 0 16 16" fill="none" xmlns="http://www.w3.org/2000/svg">
<g clip-path="url(#clip0_544_4441)">
<path fill-rule="evenodd" clip-rule="evenodd" d="M1.4 0.00293846C2.46562 -0.000186543 2.46875 -0.00018654 2.5875 0.0716885C2.65 0.112313 2.72813 0.196688 2.75938 0.259188C2.7875 0.321688 2.8125 0.421688 2.8125 0.474813C2.8125 0.531063 2.7875 0.627938 2.75312 0.687313C2.72187 0.746688 2.64062 0.827938 2.575 0.865438C2.45938 0.934188 2.42188 0.937313 0.9375 0.937313V1.71231C0.9375 2.40294 0.93125 2.49669 0.878125 2.59356C0.846875 2.65294 0.765625 2.73419 0.7 2.77169C0.634375 2.81231 0.534375 2.84356 0.484375 2.84356C0.434375 2.84356 0.334375 2.81544 0.265625 2.78106C0.190625 2.74669 0.1125 2.67481 0.071875 2.60294C0.003125 2.48731 0.003125 2.46231 0 1.43731C0 0.456063 0.00625 0.381063 0.0625 0.265438C0.096875 0.196688 0.171875 0.109188 0.225 0.0716885C0.325 0.00606346 0.35 0.00293846 1.4 0.00293846ZM7.99375 0.00293846C8.10625 -0.000186543 8.2 0.0435635 8.63437 0.293563C8.9125 0.456063 10.4062 1.32169 11.9531 2.21544C13.5 3.11231 14.8 3.87794 14.8406 3.91544C14.8812 3.95294 14.9344 4.03106 14.9563 4.08419C14.9938 4.16856 15 4.84044 15 7.99981C15 11.1592 14.9938 11.8311 14.9563 11.9154C14.9344 11.9686 14.8812 12.0467 14.8406 12.0842C14.8 12.1217 13.5 12.8873 11.9531 13.7842C10.4062 14.6779 8.9125 15.5436 8.63125 15.7061C8.22188 15.9436 8.1 15.9998 8 15.9998C7.90625 15.9998 7.80312 15.9561 7.56875 15.8248C7.40312 15.7279 5.92812 14.8748 4.29688 13.9311C2.6625 12.9842 1.28125 12.1811 1.225 12.1436C1.16875 12.1092 1.09687 12.0217 1.0625 11.9529C1.00312 11.8311 1 11.7467 1 7.99981C1 4.25294 1.00312 4.16856 1.0625 4.04669C1.09687 3.97794 1.16875 3.89044 1.225 3.85606C1.28125 3.81856 2.75625 2.96231 4.5 1.95294C6.24375 0.943563 7.7125 0.0935635 7.76562 0.0623135C7.81875 0.0310635 7.91875 0.00293846 7.99375 0.00293846ZM2.43125 4.24981C2.43438 4.25919 3.67813 4.97794 5.19688 5.84981C6.7125 6.72169 7.975 7.43419 8 7.43419C8.025 7.43419 9.2875 6.72169 10.8031 5.84981C12.3219 4.97794 13.5625 4.25919 13.5625 4.24981C13.5625 4.24044 12.3188 3.51231 10.7969 2.63419C9.275 1.75294 8.0125 1.03106 7.99062 1.03106C7.97187 1.03419 6.70938 1.75294 5.19063 2.63419C3.66875 3.51231 2.42813 4.24044 2.43125 4.24981ZM1.9375 10.9373C2.21563 10.7811 3.125 10.2623 4.14062 9.68106C5.77187 8.74669 6 8.62481 6.11562 8.62481C6.19062 8.62481 6.29063 8.64669 6.34375 8.67169C6.39375 8.69669 6.46562 8.75606 6.5 8.80606C6.53438 8.85294 6.57188 8.93419 6.58125 8.98419C6.59063 9.03419 6.59063 9.12481 6.58125 9.18106C6.57188 9.23419 6.52812 9.31856 6.49062 9.36856C6.45 9.41544 5.52187 9.96544 4.42812 10.5936C3.33437 11.2217 2.4375 11.7404 2.4375 11.7498C2.4375 11.7592 3.56563 12.4186 4.94063 13.2186C6.31875 14.0186 7.46563 14.6811 7.4875 14.6967C7.525 14.7154 7.53125 14.1936 7.53125 11.4936L7.52812 8.26544C3.47812 5.94044 2.22187 5.21856 2.12188 5.16231L1.94375 5.05919L1.9375 10.9373ZM8.47188 8.26544C8.46875 14.1811 8.475 14.7154 8.50937 14.6936C8.53437 14.6811 9.68125 14.0186 11.0562 13.2186C12.4344 12.4186 13.5625 11.7592 13.5625 11.7498C13.5625 11.7404 12.6656 11.2217 11.5719 10.5936C10.4781 9.96544 9.55 9.41231 9.50937 9.36544C9.47187 9.31856 9.42812 9.23419 9.41875 9.17794C9.40938 9.12169 9.40938 9.03419 9.41875 8.98419C9.42812 8.93106 9.46562 8.84981 9.5 8.80294C9.53438 8.75606 9.60312 8.69669 9.65625 8.67169C9.70625 8.64669 9.80938 8.62481 9.88125 8.62481C10 8.62481 10.2437 8.75606 12.0312 9.77794L14.0469 10.9311C14.0594 8.67169 14.0594 7.35294 14.0562 6.54044L14.0469 5.06544L8.47188 8.26544ZM14.5875 0.00293846C15.6469 -0.000186543 15.6594 -0.00018654 15.7656 0.0716885C15.825 0.109188 15.9 0.190438 15.9344 0.249813C15.9969 0.352938 16 0.415438 16 1.40606C16 2.38731 15.9969 2.46231 15.9375 2.58731C15.8906 2.68419 15.8406 2.73419 15.7437 2.78106C15.6687 2.81544 15.5688 2.84356 15.5156 2.84356C15.4656 2.84356 15.3688 2.81231 15.3 2.77481C15.2344 2.73419 15.1531 2.65606 15.1219 2.59356C15.0687 2.49669 15.0625 2.40606 15.0625 0.937313H14.3062C13.5781 0.937313 13.5437 0.934188 13.425 0.868563C13.3594 0.827938 13.2781 0.749813 13.2469 0.687313C13.2156 0.627938 13.1875 0.534188 13.1875 0.477938C13.1875 0.421688 13.2125 0.324813 13.2437 0.262313C13.2719 0.196688 13.3469 0.115438 13.4062 0.0748135C13.5156 0.00606346 13.5281 0.00293846 14.5875 0.00293846ZM0.5 13.1654C0.578125 13.1717 0.684375 13.2029 0.734375 13.2404C0.7875 13.2748 0.853125 13.3561 0.884375 13.4186C0.93125 13.5154 0.9375 13.6311 0.9375 15.0623H1.6875C2.3375 15.0623 2.45312 15.0717 2.55312 15.1186C2.61562 15.1467 2.69375 15.2154 2.73125 15.2654C2.76562 15.3186 2.8 15.4154 2.80938 15.4842C2.81875 15.5748 2.80312 15.6436 2.75312 15.7342C2.71563 15.8029 2.6375 15.8904 2.57812 15.9311C2.47187 15.9998 2.45625 15.9998 0.328125 15.9998L0.228125 15.9217C0.171875 15.8779 0.096875 15.7998 0.0625 15.7436C0.003125 15.6467 0 15.5873 0.003125 13.5154L0.084375 13.3967C0.128125 13.3311 0.209375 13.2467 0.2625 13.2154C0.33125 13.1717 0.4 13.1561 0.5 13.1654ZM15.5312 13.1561C15.5938 13.1561 15.6906 13.1842 15.75 13.2154C15.8125 13.2467 15.8906 13.3279 15.9312 13.3936C15.9969 13.5123 16 13.5373 16 14.5561C16 15.3467 15.9906 15.6186 15.9594 15.6967C15.9375 15.7529 15.8625 15.8436 15.6719 15.9998H14.6031C13.5469 15.9998 13.5312 15.9998 13.425 15.9311C13.3656 15.8904 13.2844 15.8029 13.2469 15.7342C13.1969 15.6436 13.1844 15.5748 13.1938 15.4842C13.2 15.4154 13.2375 15.3186 13.2719 15.2654C13.3063 15.2154 13.3875 15.1467 13.45 15.1186C13.5469 15.0717 13.6625 15.0623 15.0625 15.0623L15.0719 14.2592C15.0781 13.4873 15.0813 13.4498 15.1469 13.3561C15.1844 13.3029 15.2625 13.2373 15.3188 13.2092C15.375 13.1811 15.4719 13.1592 15.5312 13.1561Z" fill="#ACB9CB"/>
</g>
<defs>
<clipPath id="clip0_544_4441">
<rect width="16" height="16" fill="white"/>
</clipPath>
</defs>
</svg>
