<svg width="16" height="16" viewBox="0 0 16 16" fill="none" xmlns="http://www.w3.org/2000/svg">
<g clip-path="url(#clip0_544_4452)">
<path fill-rule="evenodd" clip-rule="evenodd" d="M10.8094 0C10.9094 0 10.9875 0.021875 11.0719 0.078125C11.1344 0.121875 11.2094 0.20625 11.2344 0.265625C11.2688 0.35 11.2812 0.50625 11.2812 0.9375C11.2812 1.40937 11.2719 1.51875 11.2281 1.6125C11.1969 1.67812 11.1281 1.75625 11.0781 1.79375C11.0125 1.84063 10.9375 1.85938 10.8219 1.85938C10.7094 1.85938 10.6344 1.84063 10.575 1.79688C10.5312 1.7625 10.4625 1.69375 10.425 1.64688C10.3656 1.56563 10.3594 1.5125 10.35 1.00625C10.3438 0.671875 10.3531 0.40625 10.3719 0.334375C10.3938 0.2625 10.4531 0.178125 10.5375 0.109375C10.6438 0.01875 10.6937 0 10.8094 0ZM7.75 0.609375C7.87813 0.615625 8.0625 0.65 8.15625 0.684375C8.25 0.71875 8.4125 0.809375 8.51562 0.8875C8.61875 0.9625 9.91875 2.24687 11.4094 3.74062C13.4125 5.75313 14.1344 6.49375 14.1938 6.60938C14.2406 6.69375 14.3 6.85 14.325 6.95312C14.3531 7.05625 14.375 7.21875 14.375 7.3125C14.375 7.40625 14.3594 7.54688 14.3406 7.625C14.3219 7.70312 14.2719 7.84375 14.225 7.9375C14.1781 8.03125 14.0625 8.1875 13.9688 8.28438C13.8594 8.39688 13.7219 8.49687 13.5938 8.55937C13.4812 8.6125 13.2937 8.67188 13.1719 8.69063C13.0094 8.71562 12.9031 8.71562 12.75 8.6875C12.6375 8.66875 12.4625 8.6125 12.3594 8.5625C12.2563 8.5125 12.1438 8.47812 12.1094 8.48438C12.075 8.49375 11.9 8.53438 11.7188 8.57812C11.5375 8.62187 11.2375 8.70938 11.0469 8.76875C10.8594 8.83125 10.55 8.94375 10.3594 9.02188C10.1719 9.1 9.8625 9.24063 9.67188 9.33438C9.48438 9.42813 9.26562 9.54375 9.1875 9.5875C9.10938 9.63125 8.91562 9.75 8.75937 9.85C8.6 9.95 8.46875 10.0375 8.46875 10.0469C8.46875 10.0562 8.54063 10.1438 8.62813 10.2406C8.71875 10.3406 8.825 10.475 8.8625 10.5375C8.90313 10.6031 8.96562 10.7406 9 10.8438C9.04167 10.9688 9.0625 11.1146 9.0625 11.2812C9.0625 11.4531 9.04062 11.5938 8.99687 11.725C8.95937 11.8344 8.8875 11.9844 8.83438 12.0625C8.77813 12.1406 8.65 12.2937 8.35 12.6094L8.91875 13.1875C9.3875 13.6625 9.50625 13.8031 9.5875 13.9688C9.64062 14.0813 9.7 14.2625 9.72188 14.375C9.74687 14.5281 9.74687 14.6313 9.71875 14.7969C9.7 14.9187 9.65312 15.0844 9.6125 15.1719C9.57188 15.2563 9.48438 15.3969 9.41562 15.4844C9.34687 15.5688 9.2375 15.6781 9.16875 15.725C9.10312 15.7719 8.94375 15.8531 8.82187 15.9062C8.63125 15.9844 8.55312 16 8.3375 16C8.15 16 8.03125 15.9812 7.90625 15.9344C7.8125 15.9 7.68437 15.8406 7.625 15.8062C7.56563 15.7687 6.95625 15.1844 5.03438 13.2656L4.79063 13.5C4.65625 13.6281 4.48438 13.7719 4.40625 13.8188C4.32812 13.8625 4.18125 13.925 4.07812 13.9531C3.94062 13.9937 3.81875 14.0031 3.60938 13.9937C3.37812 13.9812 3.29063 13.9625 3.10938 13.8781C2.9125 13.7875 2.81562 13.7031 2.07812 12.9688C1.59375 12.4844 1.225 12.0938 1.16562 11.9937C1.10937 11.9031 1.04375 11.7437 1.01562 11.6406C0.990625 11.5375 0.96875 11.375 0.96875 11.2812C0.96875 11.1875 0.990625 11.0281 1.01562 10.9281C1.04062 10.8313 1.09375 10.6906 1.12812 10.6156C1.17187 10.5312 1.68438 9.99063 2.62188 9.04688C3.40938 8.25625 4.15 7.49687 4.26875 7.35938C4.3875 7.22188 4.57188 6.99687 4.675 6.85938C4.78125 6.72188 4.97187 6.44688 5.1 6.25C5.23125 6.05312 5.43438 5.7 5.55625 5.46875C5.67812 5.2375 5.84063 4.9 5.91563 4.71875C5.99062 4.5375 6.11875 4.19375 6.19688 3.95312C6.275 3.7125 6.37812 3.35313 6.50625 2.79688L6.42812 2.64062C6.38125 2.55625 6.33125 2.41563 6.30937 2.32812C6.2875 2.24062 6.27813 2.05312 6.28438 1.90625C6.29688 1.68125 6.31562 1.60312 6.4125 1.40625C6.48438 1.25312 6.58125 1.11563 6.69063 1.00625C6.78438 0.915625 6.94375 0.8 7.04688 0.746875C7.15 0.696875 7.29688 0.64375 7.375 0.625C7.45312 0.609375 7.62187 0.603125 7.75 0.609375ZM7.2875 1.75C7.24062 1.82187 7.21875 1.90625 7.21875 1.99375C7.21875 2.06562 7.23438 2.15625 7.25313 2.19688C7.27188 2.23438 8.5125 3.49375 10.0125 4.99375C12.2969 7.28125 12.7531 7.725 12.8531 7.75C12.9281 7.77187 13.0094 7.77187 13.0875 7.75C13.15 7.73125 13.225 7.7 13.2531 7.67812C13.2812 7.65937 13.3344 7.59062 13.3719 7.53125C13.4062 7.47188 13.4375 7.375 13.4375 7.31875C13.4375 7.26562 13.4187 7.17188 13.3938 7.11562C13.3688 7.05625 12.25 5.91563 10.6344 4.30625C9.14375 2.81563 7.88438 1.58125 7.8375 1.5625C7.7875 1.54688 7.7125 1.53125 7.66563 1.53125C7.61562 1.53125 7.52812 1.55625 7.46875 1.5875C7.40938 1.61563 7.32812 1.69062 7.2875 1.75ZM7.125 4.125C7.05312 4.35625 6.94375 4.675 6.88438 4.82812C6.825 4.98125 6.66875 5.32812 6.54063 5.59375C6.4125 5.85938 6.2375 6.19688 6.15 6.34375C6.0625 6.49062 5.88125 6.77187 5.74687 6.96875C5.6125 7.16563 5.39062 7.46875 5.25313 7.64062L5.00313 7.95312L7.01562 9.975C7.525 9.56875 7.8625 9.325 8.09375 9.16875C8.325 9.01562 8.68437 8.79375 8.89062 8.68125C9.09688 8.56562 9.4625 8.3875 9.70312 8.27812C9.94375 8.17188 10.3906 8.00313 10.6969 7.90312C11 7.8 11.2719 7.71875 11.2969 7.71875C11.3219 7.71875 11.3438 7.70937 11.3438 7.69375C11.3438 7.68125 10.4312 6.75938 9.3125 5.64062C7.98438 4.30937 7.27813 3.625 7.26875 3.65625C7.2625 3.68125 7.19688 3.89375 7.125 4.125ZM3.15 9.83438C2.14375 10.8469 1.9375 11.0656 1.92188 11.1562C1.90938 11.2156 1.90938 11.3219 1.92188 11.3906C1.94063 11.5 2.025 11.6 2.66563 12.2437C3.06563 12.6469 3.42813 12.9938 3.47813 13.0188C3.525 13.0437 3.61875 13.0625 3.6875 13.0625C3.75625 13.0625 3.85 13.0437 3.9 13.0188C3.94688 12.9938 4.51562 12.4406 5.16563 11.7906L6.34375 10.6094L4.35938 8.625L3.15 9.83438ZM7.01562 11.275L7.67188 11.9344C7.95312 11.6562 8.05625 11.5375 8.07812 11.4906C8.10313 11.4438 8.125 11.3469 8.125 11.2781C8.125 11.2094 8.10938 11.1219 8.09062 11.0844C8.06875 11.0469 7.975 10.9344 7.87813 10.8344C7.78125 10.7344 7.69375 10.6531 7.68437 10.6531C7.67188 10.6531 7.51875 10.7937 7.34062 10.9656L7.01562 11.275ZM5.6875 12.6062C7.90938 14.825 8.125 15.0281 8.21875 15.0469C8.27812 15.0562 8.375 15.0562 8.4375 15.0406C8.49687 15.0281 8.59375 14.975 8.65 14.9219C8.70937 14.8687 8.76562 14.775 8.78125 14.7094C8.8 14.6344 8.8 14.5469 8.78125 14.475C8.75625 14.3781 8.53437 14.1406 7.55312 13.1625C6.89687 12.5031 6.35 11.9656 6.34375 11.9656C6.33437 11.9656 6.18125 12.1094 6.00625 12.2875L5.6875 12.6062ZM13.6562 0.940625C13.7406 0.946875 13.8406 0.984375 13.9031 1.02813C13.9625 1.07188 14.0312 1.15 14.0531 1.20625C14.075 1.2625 14.0938 1.35 14.0938 1.40313C14.0938 1.45312 14.0719 1.54062 14.0469 1.59687C14.0219 1.65312 13.7594 1.94062 13.4625 2.23438C12.9937 2.7 12.9062 2.775 12.7969 2.79375C12.7281 2.80625 12.6219 2.80312 12.5625 2.78437C12.5031 2.76562 12.4062 2.7 12.3531 2.64062C12.2969 2.57812 12.2406 2.48125 12.2312 2.425C12.2219 2.36875 12.2281 2.26875 12.25 2.2C12.2812 2.10625 12.4062 1.95625 12.7625 1.59375C13.0219 1.32812 13.2969 1.07187 13.375 1.02188C13.4906 0.946875 13.5406 0.93125 13.6562 0.940625ZM14.0938 3.74688C14.6 3.74688 14.6844 3.75312 14.7812 3.80312C14.8406 3.8375 14.9156 3.89687 14.9469 3.9375C14.9781 3.97813 15.0125 4.08125 15.0188 4.16875C15.0312 4.28437 15.0188 4.35312 14.975 4.43437C14.9438 4.49375 14.8594 4.575 14.7937 4.6125C14.6781 4.68125 14.6469 4.68438 14.0719 4.675C13.5312 4.66875 13.4656 4.6625 13.3875 4.60625C13.3438 4.57187 13.2781 4.50625 13.2469 4.46562C13.2125 4.42188 13.1781 4.3375 13.1656 4.27812C13.1531 4.2 13.1656 4.12812 13.2125 4.02812C13.2562 3.93437 13.3188 3.8625 13.3969 3.81562C13.5094 3.75312 13.5531 3.74688 14.0938 3.74688ZM4.35313 10.1531C4.41563 10.1531 4.50625 10.1719 4.55625 10.1969C4.60313 10.2219 4.675 10.2781 4.71875 10.325C4.775 10.3844 4.8 10.45 4.80937 10.5688C4.81562 10.6719 4.80312 10.7625 4.77187 10.825C4.74687 10.875 4.54375 11.0938 4.32188 11.3125C4.01875 11.6125 3.89687 11.7125 3.8125 11.7281C3.75312 11.7406 3.65625 11.7437 3.60313 11.7344C3.54688 11.7219 3.45 11.6687 3.3875 11.6125C3.31875 11.55 3.26562 11.4656 3.24688 11.3875C3.22813 11.3187 3.225 11.2188 3.2375 11.1687C3.25 11.1062 3.39062 10.9406 3.65313 10.6719C3.86875 10.45 4.09063 10.2437 4.14062 10.2125C4.19375 10.1781 4.2875 10.1531 4.35313 10.1531Z" fill="#ACB9CB"/>
</g>
<defs>
<clipPath id="clip0_544_4452">
<rect width="16" height="16" fill="white"/>
</clipPath>
</defs>
</svg>
