<svg width="16" height="16" viewBox="0 0 16 16" fill="none" xmlns="http://www.w3.org/2000/svg">
<g clip-path="url(#clip0_544_4455)">
<path fill-rule="evenodd" clip-rule="evenodd" d="M6.17188 0.003125L11.8594 0L12.1094 0.08125C12.2469 0.125 12.4375 0.203125 12.5312 0.25625C12.625 0.309375 12.8094 0.4625 12.9375 0.590625C13.1062 0.759375 13.2062 0.896875 13.2906 1.0625C13.3531 1.19062 13.425 1.39688 13.4531 1.51562C13.4875 1.6875 13.5 1.98125 13.5 4.03125H16V11.9688H13.5V13.1187C13.5 14.0187 13.4875 14.3125 13.4531 14.4844C13.425 14.6062 13.3531 14.8094 13.2906 14.9375C13.2062 15.1031 13.1062 15.2406 12.9375 15.4094C12.8094 15.5375 12.625 15.6906 12.5312 15.7437C12.4375 15.7969 12.2469 15.875 11.8594 16H6.20312L5.95312 15.9187C5.81563 15.875 5.625 15.7969 5.53125 15.7437C5.4375 15.6906 5.25313 15.5375 5.125 15.4094C4.95625 15.2406 4.85625 15.1031 4.77187 14.9375C4.70937 14.8094 4.6375 14.6062 4.60938 14.4844C4.57188 14.3062 4.5625 13.9812 4.5625 11.2812H2.95312L1.70312 12.3125H0V11.375H1.35938L2.60938 10.3438H4.5625V9.40625H0V8.46875H4.5625V7.53125H0V6.59375H4.5625V5.65625H2.60938L1.35938 4.625H0V3.6875H1.70312L2.95312 4.71875H4.5625V3.225C4.5625 2.01875 4.57188 1.69375 4.60938 1.51562C4.6375 1.39688 4.70937 1.19062 4.77187 1.0625C4.85625 0.89375 4.95625 0.759375 5.125 0.590625C5.25313 0.4625 5.43125 0.315625 5.51562 0.265625C5.60313 0.215625 5.78438 0.1375 5.92188 0.0875L6.17188 0.003125ZM5.92812 1.12188C5.84687 1.175 5.7375 1.2875 5.68125 1.36875C5.62813 1.45 5.5625 1.58125 5.54063 1.65625C5.50625 1.77188 5.5 2.86875 5.5 7.49375V13.1875H12.5625V11.9688H6.4375V4.03125H12.5625L12.5469 1.67188C12.4281 1.43125 12.3375 1.30313 12.2656 1.23438C12.1969 1.16562 12.0688 1.075 11.9844 1.03125C11.8344 0.95625 11.8 0.953125 11.1313 0.946875L10.4375 0.9375V2.8125H7.625V0.9375C6.55625 0.94375 6.28438 0.95625 6.20312 0.98125C6.13438 1.00312 6.0125 1.06563 5.92812 1.12188ZM8.5625 1.875H9.5V0.9375H8.5625V1.875ZM7.375 11.0312H15.0625V4.96875H7.375V11.0312ZM5.5125 14.2437C5.525 14.3094 5.56563 14.425 5.60313 14.5C5.64062 14.5781 5.725 14.7 5.79688 14.7688C5.86562 14.8375 5.99375 14.9281 6.07812 14.9719L6.23438 15.0469H11.8281C12.0719 14.9281 12.1969 14.8375 12.2656 14.7688C12.3344 14.7 12.4219 14.5781 12.4594 14.5C12.4938 14.425 12.5344 14.3094 12.5437 14.2437L12.5625 14.125H5.49062L5.5125 14.2437ZM9.59375 5.92188C9.775 5.92812 9.875 5.95312 10.0312 6.025C10.15 6.07812 10.2969 6.18125 10.3875 6.27187C10.475 6.35938 10.5844 6.5125 10.7344 6.83125L10.75 10.0969H9.8125V9.03438H9.25V10.0969H8.3125L8.32812 6.83125L8.425 6.62813C8.47813 6.5125 8.5875 6.35938 8.675 6.27187C8.75938 6.1875 8.89375 6.0875 8.97812 6.04688C9.05937 6.00625 9.17812 5.95938 9.24375 5.94063C9.30625 5.925 9.46562 5.91563 9.59375 5.92188ZM9.25625 7.02812L9.25 8.09688H9.8125V7.03438C9.65625 6.87813 9.59375 6.84688 9.52812 6.84688C9.4625 6.84688 9.40312 6.875 9.34375 6.9375L9.25625 7.02812ZM11.6875 6.00313H12.2437C12.55 6.00313 12.875 6.01562 12.9688 6.03438C13.0656 6.05 13.225 6.10625 13.3281 6.15625C13.4312 6.20625 13.5938 6.325 13.6875 6.41875C13.7844 6.5125 13.9 6.65937 13.9438 6.74062C13.9906 6.825 14.05 6.98438 14.0781 7.09688C14.1125 7.25 14.125 7.48125 14.125 8.05C14.125 8.61563 14.1125 8.85 14.0781 9.00313C14.05 9.11563 13.9875 9.275 13.9406 9.3625C13.8906 9.44688 13.775 9.59375 13.6844 9.68437C13.5906 9.775 13.4312 9.89062 13.3281 9.94063C13.225 9.99375 13.0656 10.0469 12.9688 10.0656C12.875 10.0813 12.55 10.0969 11.6875 10.0969V6.00313ZM12.625 9.175C12.8313 9.14062 12.925 9.10625 12.9656 9.075C13.0062 9.04375 13.0719 8.97812 13.1062 8.93125C13.1719 8.84375 13.1719 8.80937 13.1719 8.05C13.1719 7.30625 13.1687 7.25313 13.1094 7.17188C13.075 7.125 13.0125 7.0625 12.9688 7.02812C12.9281 6.99687 12.8344 6.95937 12.7625 6.95L12.6344 6.93125L12.625 9.175Z" fill="#ACB9CB"/>
</g>
<defs>
<clipPath id="clip0_544_4455">
<rect width="16" height="16" fill="white"/>
</clipPath>
</defs>
</svg>
