<svg width="16" height="16" viewBox="0 0 16 16" fill="none" xmlns="http://www.w3.org/2000/svg">
<path fill-rule="evenodd" clip-rule="evenodd" d="M1.40625 1.4375H8.90625V2.375L8.1375 2.39062L8.6625 4.14062C8.95 5.10313 9.20312 5.94375 9.25 6.125H11.3125V4.9125C11.3125 4.2125 11.325 3.63125 11.3438 3.53125C11.3625 3.4375 11.4156 3.275 11.4656 3.17188C11.5156 3.06875 11.6031 2.92813 11.6625 2.85938C11.7219 2.79062 11.8406 2.6875 11.925 2.63125C12.0094 2.575 12.15 2.50312 12.2344 2.47187C12.3188 2.44062 12.4656 2.40625 12.7188 2.375V2.84375C12.7188 3.24063 12.7125 3.3125 12.6719 3.3125C12.6469 3.3125 12.5688 3.34063 12.5 3.375C12.4167 3.41667 12.3542 3.47917 12.3125 3.5625C12.2531 3.68125 12.25 3.75 12.25 6.125H12.8062C13.1719 6.125 13.4344 6.14062 13.5781 6.17188C13.7 6.19688 13.9031 6.26875 14.0312 6.33125C14.2031 6.41563 14.3313 6.5125 14.5031 6.68437C14.675 6.85625 14.7719 6.98438 14.8562 7.15625C14.9187 7.28438 14.9906 7.49062 15.0156 7.60938C15.05 7.77187 15.0625 8.05625 15.0594 9.64062L15.1438 9.71875C15.1875 9.7625 15.3094 9.90938 15.4156 10.0469C15.5187 10.1844 15.6562 10.4094 15.7219 10.5469C15.7875 10.6844 15.8719 10.9156 15.9125 11.0625C15.9719 11.2844 15.9812 11.4 15.9812 11.7656C15.9781 12.1125 15.9625 12.2563 15.9094 12.4531C15.8719 12.5906 15.7812 12.8313 15.7031 12.9844C15.6281 13.1375 15.4812 13.3719 15.3781 13.5C15.275 13.6281 15.0812 13.8219 14.9469 13.9312C14.8125 14.0406 14.575 14.1906 14.4219 14.2656C14.2688 14.3438 14.0281 14.4344 13.8906 14.4719C13.6875 14.5281 13.5562 14.5406 13.1875 14.5406C12.8188 14.5406 12.6875 14.5281 12.4844 14.4719C12.3469 14.4344 12.1062 14.3438 11.9531 14.2656C11.8 14.1906 11.5625 14.0406 11.4281 13.9312C11.2938 13.8219 11.1 13.6281 10.9969 13.5C10.8938 13.3719 10.7469 13.1375 10.6719 12.9844C10.5938 12.8313 10.5063 12.5969 10.4125 12.2344L8.4375 12.2188V11.4219C8.4375 10.9844 8.42188 10.4875 8.40312 10.3188C8.3875 10.1531 8.34375 9.8875 8.30625 9.73438C8.27187 9.58125 8.19687 9.33437 8.14062 9.1875C8.08438 9.04063 8 8.84375 7.95312 8.75C7.90625 8.65625 7.81875 8.49375 7.75625 8.39062C7.69375 8.2875 7.56562 8.09688 7.46562 7.96875C7.36875 7.84062 7.17188 7.61875 7.02812 7.47813C6.88437 7.3375 6.675 7.15312 6.5625 7.06875C6.45 6.9875 6.275 6.86875 6.17188 6.80625C6.06875 6.74375 5.90625 6.65625 5.8125 6.60938C5.71875 6.5625 5.52187 6.47813 5.375 6.42188C5.22813 6.36562 4.98125 6.29063 4.82812 6.25625C4.675 6.21875 4.40938 6.175 4.24375 6.15938C4.075 6.14062 3.83125 6.125 3.70312 6.125C3.575 6.125 3.35938 6.14062 3.22813 6.15625C3.09375 6.175 2.8875 6.20938 2.76562 6.2375C2.64687 6.2625 2.43438 6.31875 2.29688 6.3625C2.15937 6.40625 1.9125 6.50625 1.75 6.58125C1.5875 6.65938 1.38437 6.76562 1.29688 6.82188C1.2125 6.875 1.05937 6.97813 0.9625 7.05312C0.8625 7.12812 0.778125 7.1875 0.775 7.1875C0.76875 7.19063 0.646875 7.04688 0.5 6.86875C0.353125 6.69063 0.221875 6.52812 0.209375 6.50625C0.196875 6.48438 0.21875 6.44063 0.259375 6.40625C0.296875 6.37187 0.4625 6.25313 0.625 6.14062C0.7875 6.03125 1.09063 5.85938 1.29688 5.75938C1.50312 5.65938 1.825 5.52812 2.34375 5.35938V2.375H1.40625V1.4375ZM3.28125 5.20312C4.19688 5.20625 4.42188 5.22187 4.70312 5.27187C4.90938 5.30937 5.24062 5.39062 5.4375 5.45312C5.63438 5.51875 5.93125 5.63125 6.09375 5.70937C6.25625 5.78437 6.49687 5.90938 6.625 5.98438L6.85938 6.125L8.26875 6.10938C7.45625 3.39687 7.20312 2.55625 7.1875 2.49062L7.15625 2.375H3.28125V5.20312ZM8.09688 7.25625C8.1875 7.36562 8.34375 7.57812 8.44687 7.73438C8.54688 7.8875 8.69063 8.13438 8.76562 8.28125C8.8375 8.42812 8.93125 8.63438 8.97188 8.74063L9.04688 8.93437C13.3469 8.95625 13.6656 8.9625 13.8281 9.00625C13.9312 9.03438 14.0406 9.06875 14.075 9.08438C14.1281 9.10938 14.1312 9.08125 14.1219 8.4375C14.1094 7.84062 14.1031 7.75 14.0437 7.625C14.0094 7.54688 13.9187 7.42188 13.8406 7.34688C13.7656 7.26875 13.6406 7.17813 13.5625 7.14375C13.425 7.07812 13.3688 7.07812 10.6781 7.06875L7.93437 7.0625L8.09688 7.25625ZM9.32187 10.0375C9.33437 10.1281 9.35313 10.4438 9.36563 10.7406L9.39062 11.2812L10.4156 11.2625C10.5 10.95 10.5531 10.7812 10.5906 10.6844C10.6281 10.5906 10.7062 10.4375 10.7594 10.3406C10.8125 10.2469 10.9094 10.1031 10.975 10.0219L11.0938 9.87187H9.30313L9.32187 10.0375ZM12.3406 10.0813C12.1719 10.1656 12.0437 10.2625 11.8687 10.4344C11.6969 10.6062 11.6031 10.7344 11.5188 10.9062C11.4563 11.0344 11.3812 11.2375 11.3562 11.3594C11.3313 11.4781 11.3125 11.6562 11.3125 11.75C11.3125 11.8438 11.3313 12.0188 11.3562 12.1406C11.3812 12.2594 11.4563 12.4656 11.5188 12.5938C11.6031 12.7625 11.6969 12.8906 11.8687 13.0656C12.0437 13.2375 12.1719 13.3344 12.3406 13.4156C12.4719 13.4812 12.675 13.5531 12.7937 13.5781C12.9156 13.6031 13.0906 13.6219 13.1844 13.6219C13.2812 13.6219 13.4563 13.6031 13.575 13.5781C13.6969 13.5531 13.9 13.4812 14.0281 13.4156C14.2 13.3344 14.3281 13.2375 14.5 13.0656C14.675 12.8906 14.7687 12.7625 14.8531 12.5938C14.9156 12.4656 14.9875 12.2594 15.0125 12.1406C15.0375 12.0188 15.0594 11.8438 15.0594 11.75C15.0594 11.6562 15.0375 11.4781 15.0125 11.3594C14.9875 11.2375 14.9156 11.0344 14.8531 10.9062C14.7687 10.7344 14.675 10.6062 14.5 10.4344C14.3281 10.2625 14.2 10.1656 14.0281 10.0813C13.9 10.0188 13.6969 9.94687 13.575 9.92188C13.4563 9.89688 13.2719 9.875 13.1687 9.87813C13.0656 9.87813 12.8906 9.9 12.7781 9.92188C12.6687 9.94687 12.4719 10.0188 12.3406 10.0813ZM3.84063 7.075C4.05625 7.08125 4.34375 7.10938 4.48125 7.14062C4.61875 7.16875 4.8375 7.22813 4.96562 7.27187C5.09687 7.31562 5.28437 7.39375 5.3875 7.44375C5.49062 7.49687 5.6875 7.6125 5.825 7.70312C5.9625 7.79375 6.18125 7.9625 6.30625 8.08125C6.43438 8.2 6.625 8.40938 6.72813 8.55C6.83437 8.69063 6.98438 8.93125 7.06563 9.08125C7.14375 9.23438 7.24688 9.46562 7.29063 9.59375C7.33437 9.72188 7.39375 9.94687 7.425 10.0938C7.46563 10.2781 7.48125 10.4937 7.48125 10.8125C7.48125 11.1281 7.46563 11.3438 7.425 11.5312C7.39375 11.6781 7.33125 11.9031 7.2875 12.0312C7.24375 12.1594 7.16563 12.35 7.11562 12.4531C7.06562 12.5562 6.94687 12.7531 6.85625 12.8906C6.76562 13.0281 6.59688 13.2437 6.47813 13.3719C6.35938 13.4969 6.15 13.6875 6.00938 13.7937C5.86875 13.8969 5.63125 14.05 5.47813 14.1281C5.325 14.2094 5.09687 14.3094 4.96562 14.3531C4.8375 14.3969 4.6125 14.4563 4.46562 14.4875C4.28125 14.5281 4.06563 14.5437 3.74688 14.5437C3.43125 14.5437 3.21563 14.5281 3.02813 14.4875C2.88438 14.4563 2.65937 14.3969 2.52813 14.3531C2.4 14.3094 2.16875 14.2094 2.01875 14.1281C1.86562 14.05 1.62812 13.8969 1.4875 13.7937C1.34687 13.6875 1.13437 13.4969 1.01875 13.3719C0.9 13.2437 0.728125 13.0281 0.6375 12.8906C0.546875 12.7531 0.43125 12.5562 0.38125 12.4531C0.328125 12.35 0.25 12.1594 0.20625 12.0312C0.1625 11.9031 0.103125 11.6781 0.071875 11.5312C0.03125 11.3438 0.015625 11.1281 0.015625 10.8125C0.015625 10.4937 0.03125 10.2781 0.071875 10.0938C0.103125 9.94687 0.1625 9.72188 0.20625 9.59375C0.25 9.46562 0.328125 9.275 0.38125 9.17188C0.43125 9.06875 0.546875 8.87187 0.6375 8.73438C0.728125 8.59688 0.9 8.38125 1.01875 8.25313C1.13437 8.125 1.3375 7.94375 1.46563 7.84688C1.59688 7.74688 1.8 7.6125 1.91875 7.54688C2.04063 7.47813 2.2375 7.38438 2.35625 7.33437C2.47813 7.2875 2.65937 7.225 2.7625 7.19688C2.86563 7.16875 3.0625 7.12812 3.2 7.10625C3.35313 7.08125 3.60313 7.06875 3.84063 7.075ZM2.75625 8.18437C2.62187 8.2375 2.42813 8.32812 2.325 8.39062C2.22187 8.45312 2.05625 8.57187 1.95625 8.65C1.85625 8.73125 1.68437 8.90938 1.57187 9.04688C1.45938 9.18437 1.30625 9.42188 1.23125 9.57812C1.15625 9.73125 1.0625 9.97188 1.025 10.1094C0.96875 10.3125 0.95625 10.4438 0.95625 10.8125C0.95625 11.1812 0.96875 11.3125 1.025 11.5156C1.0625 11.6531 1.15625 11.8906 1.23125 12.0469C1.30625 12.2 1.45625 12.4375 1.56562 12.5719C1.675 12.7062 1.86875 12.9 1.99688 13.0031C2.12812 13.1062 2.35938 13.2531 2.5125 13.3281C2.66875 13.4031 2.90625 13.4969 3.04375 13.5344C3.24688 13.5906 3.37812 13.6031 3.74688 13.6031C4.11562 13.6031 4.24687 13.5906 4.45 13.5344C4.5875 13.4969 4.82812 13.4031 4.98125 13.3281C5.1375 13.2531 5.36875 13.1062 5.49687 13.0031C5.62812 12.9 5.82188 12.7062 5.93125 12.5719C6.0375 12.4375 6.19063 12.2 6.26562 12.0469C6.34062 11.8906 6.43438 11.6531 6.47188 11.5156C6.525 11.3125 6.54063 11.1812 6.54063 10.8125C6.54063 10.4438 6.525 10.3125 6.47188 10.1094C6.43438 9.97188 6.34062 9.73125 6.26562 9.57812C6.19063 9.42188 6.0375 9.1875 5.93125 9.05313C5.82188 8.91875 5.62812 8.725 5.49687 8.62187C5.36875 8.51562 5.1375 8.37187 4.98125 8.29375C4.82812 8.21875 4.5875 8.12812 4.45 8.09062C4.29375 8.05 4.06563 8.02187 3.84063 8.0125C3.60313 8.00625 3.4 8.01562 3.24062 8.04688C3.10625 8.07188 2.8875 8.13437 2.75625 8.18437ZM3.71563 9.40938C3.77813 9.40625 3.90313 9.41875 3.99688 9.4375C4.09375 9.45625 4.25625 9.5125 4.36562 9.5625C4.47813 9.61563 4.63125 9.72812 4.73125 9.82812C4.83125 9.92813 4.94375 10.0813 4.99687 10.1938C5.05 10.3031 5.10938 10.4875 5.12813 10.6094C5.15313 10.7719 5.15313 10.8781 5.12813 11.0312C5.10938 11.1438 5.05 11.3219 4.99687 11.4281C4.94375 11.5406 4.83125 11.6969 4.73125 11.7969C4.63437 11.8969 4.47813 12.0094 4.36562 12.0625C4.25625 12.1125 4.07188 12.1719 3.95 12.1906C3.7875 12.2188 3.68125 12.2188 3.52813 12.1906C3.41875 12.1719 3.2375 12.1125 3.13125 12.0625C3.01875 12.0094 2.8625 11.8969 2.7625 11.7969C2.66563 11.6969 2.55313 11.5406 2.49688 11.4281C2.44688 11.3219 2.3875 11.1344 2.36875 11.0156C2.34063 10.85 2.34063 10.7469 2.36875 10.5938C2.3875 10.4812 2.44688 10.3031 2.49688 10.1938C2.55313 10.0813 2.66563 9.92813 2.7625 9.82812C2.8625 9.72812 3.01875 9.61563 3.13125 9.5625C3.2375 9.50937 3.39062 9.45625 3.46563 9.44063C3.54375 9.425 3.65625 9.40938 3.71563 9.40938ZM3.34063 10.5938C3.30625 10.6625 3.27813 10.7594 3.27813 10.8125C3.27813 10.8625 3.30625 10.9625 3.34063 11.0312C3.38229 11.1146 3.44479 11.1771 3.52813 11.2188C3.59687 11.2531 3.69688 11.2812 3.74688 11.2812C3.8 11.2812 3.89688 11.2531 3.96563 11.2188C4.04896 11.1771 4.11146 11.1146 4.15312 11.0312C4.1875 10.9625 4.21562 10.8625 4.21562 10.8125C4.21562 10.7594 4.1875 10.6625 4.15312 10.5938C4.11146 10.5104 4.04896 10.4479 3.96563 10.4062C3.89688 10.3719 3.79688 10.3438 3.74062 10.3438C3.68437 10.3438 3.58437 10.3719 3.52187 10.4062C3.44687 10.4469 3.38125 10.5156 3.34063 10.5938ZM13.1781 11.2812C13.2344 11.2812 13.3344 11.3094 13.4031 11.3438C13.4865 11.3854 13.549 11.4479 13.5906 11.5312C13.625 11.6 13.6531 11.6969 13.6531 11.75C13.6531 11.8 13.625 11.9 13.5906 11.9688C13.549 12.0521 13.4865 12.1146 13.4031 12.1562C13.3344 12.1906 13.2375 12.2188 13.1844 12.2188C13.1344 12.2188 13.0344 12.1906 12.9656 12.1562C12.8823 12.1146 12.8198 12.0521 12.7781 11.9688C12.7437 11.9 12.7156 11.8 12.7156 11.75C12.7156 11.6969 12.7437 11.6 12.7781 11.5312C12.8187 11.4531 12.8844 11.3844 12.9594 11.3438C13.0219 11.3094 13.1219 11.2812 13.1781 11.2812Z" fill="#ACB9CB"/>
</svg>
