<svg width="16" height="16" viewBox="0 0 16 16" fill="none" xmlns="http://www.w3.org/2000/svg">
<g clip-path="url(#clip0_544_4778)">
<path fill-rule="evenodd" clip-rule="evenodd" d="M3.0875 0.003125C3.34688 0 3.6375 0.015625 3.72813 0.034375C3.81563 0.053125 4.025 0.096875 4.1875 0.13125C4.35 0.165625 4.63125 0.246875 4.8125 0.3125C4.99375 0.375 5.25938 0.484375 5.40625 0.553125C5.55312 0.621875 5.78438 0.746875 5.92188 0.83125C6.05937 0.915625 6.28438 1.07187 6.42188 1.175C6.55937 1.28125 6.7875 1.48438 6.93125 1.62812C7.07188 1.77187 7.25313 1.975 7.33125 2.07812C7.40938 2.18125 7.54063 2.40625 7.625 2.57812C7.70937 2.75 7.8 2.975 7.82812 3.07812C7.85313 3.18125 7.88438 3.38438 7.89687 3.53125C7.90937 3.725 7.9 3.86875 7.85938 4.0625C7.83125 4.20937 7.77187 4.4125 7.73125 4.51562C7.6875 4.61875 7.6125 4.76562 7.47813 4.98438L7.59688 5.20312C7.6625 5.32188 7.77812 5.57188 7.85 5.75625C7.925 5.94062 7.99062 6.09375 8 6.09375C8.00937 6.09375 8.0625 5.97187 8.12187 5.81875C8.18125 5.66875 8.29375 5.41875 8.52188 4.98438L8.43125 4.84375C8.38437 4.76562 8.30313 4.59688 8.25313 4.46875C8.20312 4.34062 8.14375 4.12187 8.12187 3.98438C8.1 3.8375 8.09375 3.6375 8.10312 3.5C8.11562 3.37188 8.15312 3.15937 8.1875 3.03125C8.225 2.90313 8.31563 2.67812 8.39375 2.53125C8.46875 2.38438 8.59375 2.18125 8.67188 2.07812C8.75 1.975 8.92813 1.77187 9.06875 1.62812C9.2125 1.48438 9.4625 1.26562 9.625 1.14375C9.7875 1.02187 10.0406 0.853125 10.1875 0.76875C10.3344 0.684375 10.5437 0.571875 10.6562 0.521875C10.7688 0.471875 11.0094 0.375 11.1969 0.309375C11.3812 0.24375 11.7375 0.146875 11.9906 0.09375C12.3719 0.015625 12.5281 0 12.875 0C13.1938 0 13.3875 0.01875 13.6719 0.075C13.8781 0.115625 14.1375 0.18125 14.25 0.21875C14.3625 0.25625 14.55 0.33125 14.6719 0.3875C14.7937 0.44375 14.9969 0.55625 15.125 0.640625C15.2531 0.721875 15.4437 0.86875 15.5437 0.965625C15.6438 1.0625 15.7906 1.22187 16 1.5L15.925 1.64688C15.8844 1.73125 15.7531 1.94375 15.6313 2.125C15.5125 2.30625 15.3156 2.56562 15.2 2.70312C15.0813 2.84063 14.8719 3.07188 14.7344 3.21563C14.5969 3.35938 14.3313 3.6125 14.1406 3.775C13.95 3.9375 13.6281 4.18125 13.4219 4.31875C13.2156 4.45625 12.8938 4.64375 12.7031 4.7375C12.5125 4.82812 12.1906 4.95937 11.9844 5.02812C11.7781 5.09687 11.475 5.18437 11.3125 5.21875C11.15 5.25625 10.875 5.30625 10.7031 5.33125C10.5312 5.35625 10.1531 5.3875 9.34062 5.42188L9.17188 5.76562C9.08125 5.95625 8.95625 6.25 8.89688 6.42188C8.8375 6.59375 8.75313 6.88125 8.70938 7.0625C8.66563 7.24375 8.59688 7.5875 8.55937 7.82812C8.50625 8.1875 8.49062 8.45625 8.4625 10.3906L8.75313 10.4469C8.91563 10.4781 9.175 10.5469 9.32812 10.5969C9.48125 10.65 9.72188 10.75 9.85938 10.8188C9.99687 10.8875 10.2281 11.0219 10.375 11.1187C10.525 11.2188 10.7812 11.4375 10.9688 11.625C11.15 11.8062 11.3656 12.0594 11.45 12.1875C11.5344 12.3156 11.6062 12.425 11.6062 12.4281C11.6094 12.4313 11.7437 12.3969 11.9062 12.3531C12.1687 12.2812 12.2625 12.2688 12.7031 12.2719C13.1375 12.2719 13.2406 12.2812 13.5 12.35C13.6625 12.3938 13.9156 12.4844 14.0625 12.5531C14.2094 12.6188 14.4406 12.75 14.575 12.8438C14.7125 12.9375 14.9219 13.1125 15.0406 13.2344C15.1594 13.3562 15.3188 13.5375 15.3938 13.6406C15.4656 13.7437 15.5812 13.9406 15.65 14.0781C15.7188 14.2156 15.8031 14.4187 15.8375 14.5312C15.875 14.6438 15.925 14.8406 15.9531 14.9688C15.9812 15.1062 16 15.3656 16 16H0L0.0125 15.5094C0.021875 15.1437 0.040625 14.9563 0.0875 14.7812C0.121875 14.6531 0.19375 14.4344 0.246875 14.2969C0.296875 14.1594 0.425 13.9187 0.528125 13.7656C0.628125 13.6125 0.821875 13.375 0.95625 13.2406C1.09375 13.1063 1.30938 12.9219 1.4375 12.8344C1.56562 12.7469 1.79062 12.6188 1.9375 12.5531C2.08437 12.4844 2.3375 12.3938 2.5 12.35C2.75938 12.2812 2.85938 12.2719 3.29688 12.2719C3.73438 12.2719 3.83437 12.2812 4.09375 12.35C4.25625 12.3938 4.39062 12.4281 4.39062 12.425C4.39062 12.425 4.4625 12.3156 4.54688 12.1875C4.63438 12.0594 4.8375 11.8219 5 11.6562C5.1625 11.4906 5.39687 11.2812 5.51562 11.1938C5.6375 11.1063 5.88125 10.9563 6.0625 10.8625C6.24375 10.7688 6.51875 10.65 6.67188 10.5969C6.825 10.5469 7.08437 10.4781 7.53125 10.3906V9.5625C7.53125 9.10625 7.51562 8.56563 7.49687 8.35938C7.48125 8.15312 7.4375 7.82188 7.40312 7.625C7.37187 7.42812 7.30937 7.13125 7.26562 6.96875C7.225 6.80625 7.14062 6.53125 7.07812 6.35938C7.01562 6.1875 6.89688 5.90625 6.65938 5.42188L6.13438 5.4C5.84688 5.3875 5.46875 5.35625 5.29688 5.33125C5.125 5.30625 4.84375 5.25313 4.67188 5.21875C4.5 5.18125 4.2125 5.10312 4.03125 5.04375C3.85 4.98438 3.52187 4.84687 3.29688 4.74062C3.075 4.63125 2.77187 4.46562 2.625 4.37187C2.47813 4.27812 2.21875 4.09375 2.04688 3.95625C1.875 3.82187 1.53125 3.50312 1.28125 3.25312C1.03125 3 0.715625 2.64688 0.578125 2.46563C0.440625 2.28125 0.253125 1.99063 0 1.5L0.134375 1.32187C0.209375 1.22187 0.375 1.04062 0.503125 0.921875C0.63125 0.8 0.834375 0.640625 0.953125 0.56875C1.075 0.5 1.30625 0.384375 1.46875 0.315625C1.63125 0.25 1.89375 0.165625 2.04688 0.128125C2.20312 0.09375 2.39062 0.05 2.46875 0.034375C2.54688 0.01875 2.825 0.00625 3.0875 0.003125ZM2.10938 1.075C2.00625 1.10625 1.80938 1.18438 1.67188 1.25C1.53437 1.31875 1.35625 1.42188 1.275 1.48438L1.125 1.59375C1.20938 1.74375 1.34375 1.91875 1.47812 2.08125C1.60938 2.24375 1.85 2.50625 2.00938 2.66563C2.16875 2.82188 2.41875 3.05 2.5625 3.16563C2.70937 3.28438 2.94062 3.45312 3.07812 3.54375C3.21563 3.63438 3.44688 3.77187 3.59375 3.84375C3.74062 3.91875 3.97813 4.02188 4.125 4.08125C4.27187 4.1375 4.53125 4.21875 4.70312 4.25938C4.875 4.30312 5.15625 4.35938 5.32812 4.3875C5.5 4.41562 5.7125 4.4375 5.79688 4.4375H5.95312C5.6875 4.16563 5.48125 3.98125 5.32812 3.85C5.175 3.71875 4.9 3.51562 4.71875 3.39687C4.5375 3.27812 4.19375 3.08125 3.95312 2.9625C3.7125 2.84375 3.50938 2.74063 3.5 2.73125C3.49062 2.725 3.5625 2.53437 3.65625 2.30938C3.75 2.08125 3.83437 1.89375 3.84375 1.8875C3.85313 1.88438 4 1.94688 4.17188 2.025C4.34375 2.10625 4.59062 2.22812 4.71875 2.3C4.84688 2.36875 5.08125 2.50938 5.23438 2.60938C5.3875 2.7125 5.65 2.90313 5.8125 3.03437C5.975 3.16562 6.2875 3.45625 6.50938 3.68438L6.90625 4.09375C6.9625 3.84063 6.96875 3.675 6.95937 3.5625C6.95312 3.45 6.90625 3.26875 6.8625 3.15625C6.81875 3.04375 6.73438 2.87812 6.67812 2.7875C6.625 2.69375 6.48125 2.5125 6.35938 2.38438C6.24062 2.25313 6.02812 2.05938 5.89062 1.95C5.75313 1.84375 5.52187 1.6875 5.375 1.6C5.22813 1.51562 4.975 1.3875 4.8125 1.31875C4.65 1.24688 4.3875 1.15313 4.23438 1.10938C4.08125 1.06562 3.81875 1.00625 3.65625 0.984375C3.49375 0.959375 3.225 0.940625 3.0625 0.940625C2.9 0.94375 2.65937 0.9625 2.53125 0.984375C2.40313 1.00625 2.2125 1.04688 2.10938 1.075ZM12.2031 1.00312C12.1 1.01875 11.875 1.07812 11.7031 1.13125C11.5312 1.18438 11.2781 1.275 11.1406 1.3375C11.0031 1.39688 10.7719 1.51562 10.625 1.6C10.4781 1.6875 10.2469 1.84375 10.1094 1.95C9.97188 2.05938 9.7625 2.25313 9.64062 2.38438C9.51875 2.5125 9.375 2.69375 9.32187 2.7875C9.26562 2.87812 9.18125 3.04375 9.1375 3.15625C9.09375 3.26875 9.04688 3.45 9.04062 3.5625C9.03125 3.675 9.0375 3.84063 9.05937 3.93125L9.09375 4.09375C9.7125 3.45625 10.025 3.16562 10.1875 3.03437C10.35 2.90313 10.6125 2.7125 10.7656 2.60938C10.9187 2.50938 11.1531 2.36875 11.2812 2.3C11.4094 2.22812 11.6531 2.10625 11.8281 2.025C12 1.94688 12.15 1.89062 12.1625 1.9C12.175 1.9125 12.2563 2.09687 12.3438 2.3125C12.4312 2.52813 12.5 2.7125 12.5 2.72813C12.5 2.74063 12.3 2.84687 12.0562 2.96563C11.8094 3.08125 11.4625 3.27812 11.2812 3.39687C11.1 3.51562 10.825 3.71875 10.6719 3.85C10.5188 3.98125 10.3125 4.16563 10.2188 4.26562L10.0469 4.44375C10.4812 4.41563 10.7719 4.37188 10.9688 4.33125C11.1656 4.29063 11.475 4.20937 11.6562 4.14687C11.8375 4.0875 12.1313 3.96563 12.3125 3.875C12.4937 3.7875 12.7594 3.63437 12.9062 3.5375C13.0531 3.44062 13.2906 3.2625 13.4375 3.14062C13.5844 3.01875 13.8094 2.8125 13.9375 2.68438C14.0656 2.55938 14.2719 2.34063 14.3906 2.20312C14.5125 2.06562 14.6656 1.87812 14.7344 1.78437L14.8594 1.61563C14.6656 1.45312 14.4812 1.34375 14.3281 1.26562C14.175 1.1875 13.9062 1.0875 13.7344 1.04375C13.4906 0.98125 13.325 0.9625 12.9844 0.953125C12.7437 0.946875 12.5125 0.946875 12.4688 0.95625C12.425 0.9625 12.3062 0.984375 12.2031 1.00312ZM6.98438 11.4812C6.84688 11.5281 6.62187 11.625 6.48438 11.6969C6.34688 11.7719 6.14375 11.9 6.03125 11.9844C5.92188 12.0719 5.75938 12.2125 5.675 12.2969C5.59063 12.3844 5.45 12.5437 5.36562 12.6562C5.28125 12.7688 5.12187 13.0437 5.0125 13.2656L4.8125 13.6719C4.26875 13.4031 4.0125 13.3 3.89062 13.2688C3.77187 13.2375 3.55312 13.2062 3.40625 13.1969C3.2375 13.1844 3.05 13.1969 2.89062 13.2281C2.75312 13.2531 2.55 13.3094 2.4375 13.3562C2.325 13.4 2.15625 13.4844 2.0625 13.5406C1.96875 13.5938 1.77188 13.7594 1.625 13.9062C1.44062 14.0875 1.32187 14.2406 1.24375 14.3906C1.18125 14.5125 1.1 14.6938 1.0625 14.7969C1.02813 14.9 1 15.0031 1 15.025C1 15.0531 2.42188 15.0625 8 15.0625C13.5781 15.0625 15 15.0531 15 15.025C15 15.0031 14.9719 14.9 14.9375 14.7969C14.9 14.6938 14.8188 14.5125 14.7563 14.3906C14.6781 14.2406 14.5594 14.0875 14.375 13.9062C14.2281 13.7594 14.0312 13.5938 13.9375 13.5406C13.8438 13.4844 13.6812 13.4031 13.5781 13.3625C13.475 13.3188 13.2719 13.2625 13.125 13.2312C12.9375 13.1937 12.7812 13.1844 12.5938 13.1969C12.4469 13.2062 12.2312 13.2375 12.1094 13.2688C11.9875 13.3 11.7313 13.4062 11.5375 13.5063L11.1875 13.6875C10.8781 13.0469 10.7125 12.7625 10.6219 12.6406C10.5281 12.5188 10.3625 12.3313 10.25 12.225C10.1375 12.1156 9.95625 11.9656 9.84375 11.8906C9.73125 11.8188 9.55 11.7125 9.4375 11.6562C9.325 11.6 9.1375 11.5187 9.01562 11.4781C8.89375 11.4375 8.66875 11.3844 8.51562 11.3594C8.3625 11.3344 8.11563 11.3156 7.96875 11.3156C7.82188 11.3188 7.59688 11.3375 7.46875 11.3594C7.34062 11.3813 7.12187 11.4375 6.98438 11.4812Z" fill="#ACB9CB"/>
</g>
<defs>
<clipPath id="clip0_544_4778">
<rect width="16" height="16" fill="white"/>
</clipPath>
</defs>
</svg>
