<svg width="16" height="16" viewBox="0 0 16 16" fill="none" xmlns="http://www.w3.org/2000/svg">
<path fill-rule="evenodd" clip-rule="evenodd" d="M8.07812 1.8286C8.26875 1.83485 8.59062 1.86923 8.79688 1.9036C9.00313 1.9411 9.3125 2.01923 9.48438 2.07548C9.65625 2.13173 9.91562 2.2411 10.0625 2.31298C10.2094 2.38485 10.4406 2.51923 10.5781 2.60985C10.7156 2.70048 10.9375 2.86923 11.3188 3.2036L10.6406 3.87235L10.4844 3.72235C10.3969 3.6411 10.2094 3.49423 10.0625 3.39735C9.91562 3.3036 9.68437 3.17235 9.54688 3.10985C9.40938 3.04735 9.18437 2.96298 9.04688 2.92235C8.90938 2.88485 8.66875 2.83485 8.51562 2.81298C8.34688 2.78798 8.07812 2.78173 7.84375 2.7911C7.62813 2.79735 7.34062 2.8286 7.20312 2.85985C7.06563 2.88798 6.8125 2.9661 6.64062 3.03173C6.46875 3.10048 6.19688 3.23485 6.03438 3.33485C5.875 3.43485 5.65625 3.59735 5.35938 3.87235L4.68125 3.2036L4.88125 3.0286C4.99062 2.93173 5.18437 2.77548 5.3125 2.68485C5.44063 2.5911 5.6875 2.44423 5.85938 2.3536C6.03125 2.2661 6.325 2.1411 6.51562 2.0786C6.70625 2.0161 7.02187 1.93798 7.21875 1.90673C7.41563 1.87235 7.6125 1.8411 7.65625 1.83173C7.7 1.82548 7.8875 1.82235 8.07812 1.8286ZM13.0469 7.04735L13.25 7.11923C13.3625 7.15985 13.5312 7.2411 13.625 7.29735C13.7188 7.3536 13.8719 7.47548 13.9656 7.56923C14.0594 7.65985 14.1844 7.81298 14.2437 7.90673C14.3062 8.00048 14.3875 8.16923 14.4312 8.28173C14.4781 8.40985 14.5125 8.58798 14.5469 9.04735L16 9.06298V12.063H14.5312V12.3067C14.5312 12.438 14.5094 12.6317 14.4812 12.7349C14.4563 12.838 14.3938 13.0067 14.3406 13.1099C14.2906 13.213 14.1937 13.3692 14.1219 13.4536C14.0531 13.5411 13.925 13.6661 13.8438 13.7349C13.7594 13.8036 13.6031 13.9036 13.4937 13.9599C13.3844 14.013 13.1781 14.088 13.0312 14.1224C12.7812 14.1849 12.6719 14.188 11.1719 14.188C9.74063 14.188 9.55625 14.1817 9.375 14.1317C9.2625 14.1005 9.10938 14.038 9.03125 13.9942C8.95312 13.9474 8.725 13.7536 8.52188 13.5661C8.30938 13.363 8.12188 13.2099 8.06875 13.2005C8.02188 13.1911 7.95312 13.1911 7.9125 13.2005C7.875 13.2099 7.67188 13.3817 7.45937 13.5786C7.24375 13.7849 7.00938 13.9724 6.92188 14.0161C6.83437 14.0599 6.6875 14.1161 6.59375 14.1411C6.45312 14.1786 6.13438 14.188 4.82812 14.188C3.34375 14.188 3.21562 14.1849 2.975 14.1255C2.83437 14.0911 2.625 14.0161 2.5125 13.963C2.39688 13.9067 2.23125 13.7974 2.14375 13.7224C2.05625 13.6474 1.93125 13.5192 1.86875 13.4411C1.80313 13.363 1.70937 13.213 1.65937 13.1099C1.60625 13.0067 1.54375 12.838 1.51875 12.7349C1.49062 12.6317 1.46875 12.4442 1.46875 12.0942H0V9.09423H1.46875V8.86923C1.46875 8.74423 1.49062 8.55673 1.51875 8.4536C1.54375 8.35048 1.60625 8.18173 1.65937 8.0786C1.70937 7.97548 1.80313 7.82548 1.86875 7.74735C1.93125 7.66923 2.05625 7.5411 2.14375 7.4661C2.23125 7.3911 2.3875 7.28798 2.4875 7.23798C2.59063 7.18798 2.75625 7.11923 2.85938 7.0911C3.03437 7.03798 3.36563 7.03485 13.0469 7.04735ZM2.90937 8.07235C2.85625 8.1036 2.7625 8.17235 2.69688 8.2286C2.63438 8.28173 2.54375 8.41298 2.49375 8.5161L2.40625 8.7036V12.4849C2.54375 12.7755 2.63438 12.9067 2.69688 12.963C2.7625 13.0161 2.87187 13.0942 2.94375 13.1349C3.07812 13.2036 3.0875 13.2036 4.71875 13.213C5.62187 13.2161 6.39062 13.213 6.42812 13.2036C6.46875 13.1942 6.65 13.0474 6.83437 12.8724C7.02187 12.7005 7.22813 12.5192 7.29688 12.4724C7.36562 12.4224 7.49062 12.3599 7.57812 12.3255C7.6875 12.2849 7.81563 12.2661 8 12.2661C8.18437 12.2661 8.3125 12.2849 8.42188 12.3255C8.50625 12.3599 8.63437 12.4224 8.70312 12.4724C8.77188 12.5192 8.97813 12.7005 9.1625 12.8724C9.35 13.0474 9.53125 13.1942 9.56875 13.2036C9.60938 13.213 10.3781 13.2161 11.2812 13.213C12.9125 13.2036 12.9219 13.2036 13.0531 13.1349C13.1281 13.0942 13.2375 13.0161 13.3 12.963C13.3625 12.9067 13.4531 12.7755 13.5031 12.6724L13.5938 12.4849V8.7036C13.4563 8.41298 13.3656 8.28173 13.3031 8.2286C13.2375 8.17235 13.1281 8.09423 13.0531 8.05673L12.9219 7.98485C5.36562 7.97548 3.13438 7.98485 3.0875 7.99735C3.04063 8.01298 2.95937 8.04423 2.90937 8.07235ZM14.5312 11.1255H15.0625V10.0005H14.5312V11.1255ZM0.9375 11.1567H1.46875V10.0317H0.9375V11.1567ZM8.09375 3.73485C8.32187 3.7411 8.5625 3.76923 8.67188 3.79735C8.775 3.82548 8.96562 3.89735 9.09375 3.95985C9.22188 4.01923 9.4125 4.1286 9.51562 4.2036C9.61875 4.27548 9.73438 4.36923 9.84375 4.48485L9.51562 4.81298C9.19375 5.1411 9.19062 5.1411 9.11875 5.08798C9.07812 5.05673 8.975 4.98173 8.89062 4.92235C8.80313 4.86298 8.64375 4.78173 8.53125 4.74423C8.37187 4.68798 8.25625 4.67235 8 4.67235C7.71875 4.67235 7.64062 4.68485 7.4375 4.75985C7.30937 4.80673 7.13438 4.89735 7.05 4.96298C6.96563 5.02548 6.87812 5.09423 6.85625 5.10985C6.82187 5.13485 6.73438 5.05985 6.15625 4.48485L6.22813 4.40985C6.26562 4.36923 6.38125 4.27548 6.48438 4.2036C6.5875 4.1286 6.77812 4.01923 6.90625 3.95985C7.03438 3.89735 7.225 3.8286 7.32812 3.8036C7.43125 3.77548 7.55625 3.74735 7.60938 3.73798C7.65938 3.73173 7.87813 3.7286 8.09375 3.73485ZM7.99687 5.46923C8.09688 5.46923 8.175 5.4911 8.25 5.53798C8.30937 5.5786 8.38438 5.65985 8.4125 5.71923C8.44375 5.7786 8.46875 5.8786 8.46875 5.93798C8.46562 5.99735 8.43438 6.10048 8.39688 6.1661C8.35625 6.23798 8.27812 6.30985 8.20312 6.34423C8.13437 6.3786 8.04375 6.40673 8 6.40673C7.95625 6.40673 7.86562 6.3786 7.79688 6.34423C7.72188 6.30985 7.64375 6.23798 7.60313 6.1661C7.56563 6.10048 7.53438 5.99735 7.53125 5.93798C7.53125 5.8786 7.55625 5.7786 7.5875 5.71923C7.61562 5.65985 7.6875 5.5786 7.74687 5.5411C7.81979 5.49319 7.90312 5.46923 7.99687 5.46923ZM3.46875 8.84423H5.3125V9.78173H3.46875V8.84423Z" fill="#ACB9CB"/>
</svg>
