<svg width="16" height="16" viewBox="0 0 16 16" fill="none" xmlns="http://www.w3.org/2000/svg">
<path fill-rule="evenodd" clip-rule="evenodd" d="M5.26562 3.00625L10.6875 3L10.9781 3.08125C11.1344 3.125 11.3625 3.20937 11.4844 3.27187C11.6062 3.33125 11.7656 3.42812 11.8438 3.48438C11.9219 3.54062 12.075 3.68437 12.1875 3.8C12.3344 3.95625 12.5125 4.21563 13.2812 5.5L13.9812 5.50625C14.6406 5.51562 14.6875 5.51875 14.7719 5.58125C14.8188 5.61875 14.8875 5.6875 14.9219 5.73125C14.9688 5.79375 14.9844 5.86562 14.9844 6C14.9844 6.1375 14.9688 6.20312 14.9187 6.27187C14.8812 6.31875 14.8125 6.3875 14.7688 6.42188C14.6969 6.475 14.625 6.48438 14 6.5L14.2281 6.80625C14.3531 6.97188 14.5188 7.2375 14.5969 7.39062C14.6781 7.54375 14.7719 7.7625 14.8125 7.875C14.85 7.9875 14.9062 8.2125 14.9406 8.375C14.9938 8.64375 15 8.8125 15 10.1719C15 11.4062 14.9906 11.7031 14.9531 11.8531C14.9281 11.95 14.8687 12.1062 14.8219 12.1969C14.7781 12.2844 14.6687 12.4344 14.5813 12.5281C14.4938 12.6187 14.3656 12.7281 14.2969 12.7688C14.2281 12.8094 14.0813 12.8781 13.9688 12.9219C13.7719 13 13.7469 13 13 13C12.2531 13 12.2281 13 12.0312 12.9219C11.9187 12.8781 11.7719 12.8094 11.7031 12.7688C11.6344 12.7281 11.5031 12.6156 11.4156 12.5188C11.325 12.4219 11.2062 12.25 11.15 12.1344C11.0969 12.0156 11.0375 11.8281 10.9844 11.5H5.01562L4.98125 11.7094C4.9625 11.8281 4.90312 12.0156 4.85 12.1344C4.79375 12.25 4.675 12.4219 4.5875 12.5188C4.49688 12.6156 4.36562 12.7281 4.29688 12.7688C4.22813 12.8094 4.08125 12.8781 3.96875 12.9219C3.77187 13 3.74688 13 3 13C2.25312 13 2.22812 13 2.03125 12.9219C1.91875 12.8781 1.77188 12.8094 1.70312 12.7688C1.63437 12.7281 1.50625 12.6187 1.41875 12.5281C1.33125 12.4344 1.225 12.2906 1.18125 12.2031C1.1375 12.1187 1.07812 11.9688 1.05 11.875C1.00625 11.7281 1 11.4937 1 10.1969C1 8.84062 1.00625 8.65625 1.05938 8.38437C1.09375 8.21562 1.15 7.9875 1.1875 7.875C1.22813 7.7625 1.32188 7.54375 1.40313 7.39062C1.48125 7.2375 1.64688 6.97187 2 6.5L1.65937 6.49375C1.36562 6.48438 1.30312 6.475 1.22812 6.41875C1.18125 6.38125 1.1125 6.3125 1.07812 6.26875C1.03125 6.20625 1.01562 6.13438 1.01562 6C1.01562 5.8625 1.03125 5.79688 1.08125 5.72813C1.11875 5.68125 1.1875 5.6125 1.23125 5.57812C1.30938 5.52187 1.37188 5.51562 2.71875 5.5L3.1625 4.75938C3.5625 4.08438 3.63125 3.99063 3.8875 3.73438C4.10625 3.51562 4.23438 3.41875 4.4375 3.3125C4.58437 3.2375 4.83125 3.1375 4.98438 3.09063L5.26562 3.00625ZM4.925 4.18125C4.84063 4.22813 4.7 4.33125 4.6125 4.40938C4.49688 4.51563 4.34375 4.73437 4.0625 5.2C3.84687 5.55312 3.67812 5.85 3.6875 5.85625C3.69688 5.8625 3.82812 5.95 3.98438 6.05312C4.1375 6.15312 4.38438 6.28125 4.53125 6.33437C4.67812 6.3875 4.9 6.44687 5.025 6.46562C5.17812 6.4875 6.1375 6.5 8 6.5C9.8625 6.5 10.8219 6.4875 10.9781 6.46562C11.1 6.44687 11.3219 6.3875 11.4688 6.33437C11.6156 6.28125 11.8625 6.15312 12.0156 6.05312C12.1687 5.95 12.3031 5.8625 12.3125 5.85625C12.3219 5.85 12.1531 5.55312 11.9375 5.2C11.6562 4.73437 11.5031 4.51563 11.3875 4.40938C11.3 4.33125 11.1594 4.22813 11.075 4.18125C10.9906 4.13438 10.8375 4.075 10.7344 4.05C10.5719 4.00625 10.2156 4 7.98438 4.00313C5.81563 4.00313 5.39687 4.0125 5.25 4.05C5.15625 4.075 5.00938 4.13438 4.925 4.18125ZM2.33125 7.76562C2.27187 7.86875 2.18438 8.05937 2.14062 8.1875C2.09687 8.31563 2.04688 8.52812 2.02813 8.65625C2.00938 8.8 2 9.425 2.00625 10.2875C2.01562 11.6531 2.01562 11.6844 2.08125 11.7719C2.11875 11.8188 2.1875 11.8875 2.23125 11.9219C2.3125 11.9812 2.36563 11.9844 3 11.9844C3.63438 11.9844 3.6875 11.9812 3.76875 11.9219C3.8125 11.8875 3.88125 11.8188 3.91875 11.7719C3.975 11.6938 3.9875 11.6281 4 11.25C4.0125 10.8719 4.025 10.8062 4.08125 10.7281C4.11875 10.6812 4.1875 10.6125 4.23125 10.5781C4.31562 10.5156 4.36562 10.5156 8 10.5156C11.6344 10.5156 11.6844 10.5156 11.7688 10.5781C11.8125 10.6125 11.8812 10.6812 11.9187 10.7281C11.975 10.8062 11.9875 10.8719 12 11.2469C12.0156 11.6656 12.0188 11.6812 12.1094 11.7969C12.1594 11.8625 12.2531 11.9375 12.3125 11.9625C12.3969 11.9969 12.5656 12.0031 13.0531 11.9937C13.625 11.9844 13.6906 11.9781 13.7688 11.9219C13.8125 11.8875 13.8812 11.8188 13.9187 11.7719C13.9844 11.6844 13.9844 11.6531 13.9937 10.2875C14 9.34688 13.9906 8.80937 13.9688 8.64062C13.9469 8.50313 13.8969 8.29375 13.8531 8.17188C13.8094 8.05312 13.7313 7.875 13.6781 7.78125C13.625 7.6875 13.4344 7.4125 13.2563 7.17188C13.075 6.93125 12.9219 6.72187 12.9094 6.70937C12.9 6.69375 12.7719 6.75938 12.625 6.85313C12.4781 6.94688 12.2719 7.06875 12.1656 7.12187C12.0562 7.175 11.8937 7.24687 11.8062 7.28125C11.7156 7.31563 11.5219 7.37187 11.375 7.4125C11.1094 7.48125 11.1 7.48125 8.17188 7.49375C6.25 7.5 5.14687 7.49063 4.98438 7.47188C4.84687 7.45312 4.62188 7.40937 4.48438 7.37187C4.34687 7.3375 4.10938 7.25 3.95312 7.175C3.8 7.10313 3.55 6.9625 3.4 6.86562C3.24688 6.76875 3.12187 6.6875 3.11562 6.6875C3.10938 6.6875 2.95625 6.8875 2.775 7.13438C2.59375 7.37813 2.39375 7.6625 2.33125 7.76562ZM3.49375 8.5C3.54688 8.5 3.64062 8.51875 3.69688 8.54062C3.75 8.56562 3.83438 8.62812 3.88438 8.68125C3.93125 8.7375 3.97812 8.83437 3.9875 8.9C3.99688 8.9625 3.99688 9.06563 3.98438 9.125C3.97187 9.1875 3.9125 9.28125 3.84687 9.34688C3.77187 9.42396 3.69271 9.46979 3.60938 9.48438C3.54063 9.49687 3.43438 9.49687 3.375 9.48438C3.3125 9.47188 3.21875 9.41563 3.15313 9.34688C3.07604 9.27188 3.03021 9.19271 3.01562 9.10938C3.00312 9.04063 3.00312 8.9375 3.0125 8.88437C3.02188 8.82812 3.06563 8.7375 3.10313 8.68437C3.14375 8.62812 3.225 8.56562 3.28437 8.54375C3.34375 8.52187 3.4375 8.50313 3.49375 8.5ZM12.4906 8.5C12.5469 8.5 12.6406 8.51875 12.6969 8.54062C12.75 8.56562 12.8344 8.62812 12.8844 8.68125C12.9312 8.7375 12.9781 8.83437 12.9875 8.9C12.9969 8.9625 12.9969 9.06563 12.9844 9.125C12.9719 9.1875 12.9125 9.28125 12.8469 9.34688C12.7719 9.42396 12.6927 9.46979 12.6094 9.48438C12.5406 9.49687 12.4344 9.49687 12.375 9.48438C12.3125 9.47188 12.2188 9.41563 12.1531 9.34688C12.076 9.27188 12.0302 9.19271 12.0156 9.10938C12.0031 9.04063 12.0031 8.9375 12.0125 8.88437C12.0219 8.82812 12.0656 8.7375 12.1031 8.68437C12.1437 8.62812 12.225 8.56562 12.2844 8.54375C12.3438 8.52187 12.4375 8.50313 12.4937 8.5H12.4906Z" fill="#ACB9CB"/>
</svg>
