<svg width="16" height="16" viewBox="0 0 16 16" fill="none" xmlns="http://www.w3.org/2000/svg">
<g clip-path="url(#clip0_544_4774)">
<path fill-rule="evenodd" clip-rule="evenodd" d="M5.18125 0.003125C5.26562 0 5.35313 0.025 5.425 0.06875C5.4875 0.109375 5.56563 0.19375 5.59688 0.25625C5.63125 0.321875 5.65625 0.421875 5.65625 0.475C5.65625 0.53125 5.68437 0.6375 5.71875 0.709375C5.7625 0.803125 5.82188 0.86875 5.9125 0.91875C5.9875 0.9625 6.475 1.18438 7 1.41875C7.525 1.65 7.975 1.84063 8 1.84063C8.025 1.84063 8.475 1.65 9 1.41875C9.525 1.18438 10.0125 0.9625 10.0844 0.91875C10.1781 0.86875 10.2375 0.803125 10.2812 0.709375C10.3156 0.6375 10.3438 0.53125 10.3438 0.475C10.3438 0.421875 10.3687 0.321875 10.4031 0.25625C10.4344 0.19375 10.5125 0.109375 10.575 0.06875C10.6406 0.028125 10.7375 0 10.8125 0C10.8875 0 10.9844 0.028125 11.05 0.071875C11.1125 0.109375 11.1906 0.19375 11.2219 0.259375C11.2563 0.321875 11.2812 0.434375 11.2812 0.509375C11.2812 0.58125 11.2594 0.721875 11.2344 0.821875C11.2094 0.91875 11.1531 1.06562 11.1125 1.15C11.0719 1.23125 10.975 1.36563 10.9031 1.45C10.8281 1.53438 10.6938 1.65 10.6094 1.70312C10.5219 1.75625 10.1687 1.92812 9.82187 2.08125C9.47187 2.23438 9.1875 2.36562 9.1875 2.375C9.1875 2.38438 9.34688 2.45938 9.5375 2.54375C9.73125 2.62812 10.0344 2.76562 10.2094 2.85C10.4313 2.95312 10.5875 3.05313 10.7094 3.16563C10.8094 3.25938 10.9406 3.40937 11 3.50312C11.0594 3.59687 11.1438 3.7625 11.1844 3.875C11.2594 4.06875 11.2625 4.11562 11.2812 5.65625H12.5469L13.2656 5.05937L13.2281 4.88125C13.2062 4.78437 13.1875 4.64375 13.1875 4.57188C13.1875 4.49688 13.2031 4.3625 13.2219 4.275C13.2438 4.18438 13.2937 4.03125 13.3375 3.9375C13.3844 3.8375 13.5 3.68438 13.6094 3.57812C13.7188 3.46563 13.8719 3.35312 13.975 3.30312C14.075 3.25625 14.25 3.20312 14.3656 3.18125C14.5312 3.15313 14.6281 3.15313 14.8031 3.18125C14.9281 3.20312 15.1125 3.25625 15.2094 3.30312C15.3156 3.35312 15.4688 3.46563 15.5781 3.57812C15.6906 3.6875 15.8031 3.84063 15.8531 3.94688C15.9 4.04375 15.9531 4.21875 15.975 4.3375C16.0031 4.5 16.0031 4.59688 15.975 4.775C15.9531 4.9 15.8937 5.08437 15.8375 5.19688C15.7844 5.30312 15.6812 5.45312 15.6094 5.53125C15.5375 5.60938 15.3812 5.72188 15.2625 5.78438C15.1438 5.84688 14.9719 5.91562 14.8813 5.93437C14.7938 5.95312 14.6531 5.96875 14.5688 5.96875C14.4875 5.96875 14.35 5.95 14.2656 5.925C14.1781 5.90313 14.0563 5.85938 13.9906 5.825C13.8844 5.77187 13.8688 5.76875 13.8188 5.81563C13.7906 5.84063 13.5969 6.00625 13.3906 6.17812C13.1844 6.35 12.9688 6.5125 12.9125 6.54063C12.8281 6.5875 12.6969 6.59375 11.1719 6.59062L11.0469 6.8C10.9781 6.91563 10.8344 7.09063 10.725 7.19063C10.5844 7.325 10.4438 7.41563 10.2094 7.525C10.0344 7.60938 9.73125 7.74688 9.5375 7.83125C9.34688 7.91563 9.1875 7.99062 9.1875 8C9.1875 8.00937 9.34688 8.08437 9.5375 8.16875C9.73125 8.25313 10.0312 8.3875 10.2031 8.46875C10.4094 8.56875 10.5781 8.675 10.7 8.78438C10.8031 8.87813 10.9406 9.0375 11.0063 9.14062C11.0719 9.24375 11.1594 9.41875 11.1969 9.53125C11.2625 9.725 11.2656 9.78125 11.2656 10.8125C11.2656 11.8438 11.2625 11.9 11.1969 12.0938C11.1594 12.2063 11.0719 12.3813 11.0063 12.4844C10.9406 12.5875 10.8031 12.7469 10.7 12.8406C10.5781 12.95 10.4094 13.0562 10.2031 13.1562C10.0312 13.2375 9.73125 13.3719 9.5375 13.4563C9.34688 13.5406 9.1875 13.6156 9.1875 13.625C9.1875 13.6344 9.47187 13.7656 9.82187 13.9187C10.1687 14.0719 10.5219 14.2437 10.6094 14.2969C10.6938 14.35 10.8281 14.4656 10.9031 14.55C10.975 14.6344 11.0719 14.7687 11.1125 14.8531C11.1531 14.9344 11.2094 15.0812 11.2344 15.1812C11.2594 15.2781 11.2812 15.4187 11.2812 15.4937C11.2812 15.5656 11.2563 15.6781 11.2219 15.7437C11.1906 15.8062 11.1125 15.8906 11.05 15.9312C10.9844 15.9719 10.8875 16 10.8125 16C10.7375 16 10.6406 15.9719 10.575 15.9312C10.5125 15.8906 10.4344 15.8062 10.4031 15.7437C10.3687 15.6781 10.3438 15.5781 10.3438 15.525C10.3438 15.4688 10.3156 15.3625 10.2812 15.2906C10.2375 15.1969 10.1781 15.1313 10.0844 15.0813C10.0125 15.0375 9.525 14.8156 9 14.5813C8.475 14.35 8.025 14.1594 8 14.1594C7.975 14.1594 7.525 14.35 7 14.5813C6.475 14.8156 5.9875 15.0375 5.9125 15.0813C5.82188 15.1313 5.7625 15.1969 5.71875 15.2906C5.68437 15.3625 5.65625 15.4688 5.65625 15.525C5.65625 15.5781 5.63125 15.6781 5.59688 15.7437C5.56563 15.8062 5.4875 15.8906 5.425 15.9312C5.35938 15.9719 5.2625 16 5.1875 16C5.1125 16 5.01562 15.9719 4.95 15.9312C4.8875 15.8906 4.80937 15.8062 4.77812 15.7437C4.74375 15.6781 4.71875 15.5656 4.71875 15.4937C4.71875 15.4187 4.74062 15.2781 4.76562 15.1812C4.79063 15.0812 4.85 14.925 4.89687 14.8375C4.94062 14.7469 5.05625 14.5938 5.15312 14.4937C5.29375 14.3531 5.40312 14.2812 5.71875 14.1344C5.93437 14.0312 6.26875 13.8781 6.4625 13.7937C6.65313 13.7094 6.8125 13.6344 6.8125 13.625C6.8125 13.6156 6.65313 13.5406 6.4625 13.4563C6.26875 13.3719 5.96562 13.2344 5.7875 13.15C5.56875 13.0469 5.4125 12.9469 5.2875 12.8344C5.19062 12.7406 5.05937 12.5906 5 12.4969C4.94063 12.4031 4.85625 12.2375 4.81563 12.125C4.74063 11.9312 4.7375 11.8844 4.71875 10.3438H3.45312L2.73438 10.9406L2.77187 11.1187C2.79375 11.2156 2.8125 11.3562 2.8125 11.4312C2.8125 11.5031 2.79688 11.6375 2.77813 11.7281C2.75938 11.8156 2.7 11.975 2.64687 12.0781C2.59375 12.1812 2.49375 12.3281 2.42188 12.4062C2.35 12.4844 2.19375 12.6 2.075 12.6625C1.93438 12.7375 1.77813 12.7906 1.625 12.8156C1.44062 12.8469 1.34688 12.85 1.17813 12.8188C1.0625 12.7969 0.8875 12.7437 0.7875 12.6969C0.684375 12.6469 0.53125 12.5344 0.421875 12.4219C0.309375 12.3125 0.196875 12.1594 0.146875 12.0562C0.1 11.9562 0.046875 11.7719 0.025 11.65C-0.003125 11.4719 -0.003125 11.375 0.025 11.2125C0.046875 11.0938 0.1 10.9187 0.146875 10.8219C0.196875 10.7125 0.30625 10.5656 0.41875 10.4531C0.528125 10.3438 0.684375 10.2281 0.78125 10.1812C0.875 10.1375 1.02813 10.0875 1.11563 10.0656C1.20625 10.0469 1.34688 10.0312 1.42813 10.0312C1.5125 10.0312 1.64688 10.05 1.73438 10.075C1.81875 10.0969 1.94375 10.1406 2.00938 10.175C2.11563 10.2281 2.13125 10.2312 2.18125 10.1844C2.20938 10.1594 2.40313 9.99375 2.60938 9.82187C2.81562 9.65 3.03125 9.4875 3.08437 9.45938C3.17188 9.4125 3.30312 9.40625 4.82812 9.40938L4.95312 9.2C5.02187 9.08437 5.16563 8.90938 5.27187 8.80937C5.41563 8.675 5.55625 8.58438 5.7875 8.475C5.96562 8.39062 6.26875 8.25313 6.4625 8.16875C6.65313 8.08437 6.8125 8.00937 6.8125 8C6.8125 7.99062 6.65313 7.91563 6.4625 7.83125C6.26875 7.74688 5.96875 7.6125 5.79688 7.53125C5.59062 7.43125 5.42188 7.325 5.3 7.21562C5.19688 7.12187 5.05938 6.9625 4.99375 6.85938C4.92812 6.75625 4.84062 6.58125 4.80312 6.46875C4.7375 6.275 4.73438 6.21875 4.73438 5.1875C4.73438 4.15625 4.7375 4.1 4.80312 3.90625C4.84062 3.79375 4.92812 3.61875 4.99375 3.51562C5.05938 3.4125 5.19688 3.25312 5.3 3.15937C5.42188 3.05 5.59062 2.94375 5.79688 2.84375C5.96875 2.7625 6.26875 2.62812 6.4625 2.54375C6.65313 2.45938 6.8125 2.38438 6.8125 2.375C6.8125 2.36562 6.65313 2.29062 6.4625 2.20625C6.26875 2.12188 5.93437 1.96875 5.71875 1.86563C5.40312 1.71875 5.29375 1.64688 5.15312 1.50625C5.05625 1.40625 4.94062 1.25312 4.89687 1.16562C4.85 1.075 4.79063 0.91875 4.76562 0.821875C4.74062 0.721875 4.71875 0.58125 4.71875 0.509375C4.71875 0.434375 4.74375 0.321875 4.77812 0.259375C4.80937 0.19375 4.88125 0.109375 4.94063 0.071875C5.00313 0.03125 5.1 0.003125 5.17812 0.003125H5.18125ZM6.09688 3.74688C6.06563 3.76875 6.675 3.77813 8.00313 3.78125C9.15625 3.78125 9.94375 3.77187 9.925 3.75312C9.90625 3.7375 9.47813 3.54062 8.97188 3.31562C8.46562 3.09063 8.02812 2.90937 8.00313 2.90937C7.97813 2.90937 7.54688 3.09063 7.05 3.3125C6.55313 3.53437 6.12188 3.72813 6.09688 3.74688ZM14.1844 4.35C14.1562 4.40625 14.1313 4.5 14.1281 4.55625C14.1281 4.60938 14.1562 4.7125 14.1906 4.78125C14.2323 4.86458 14.2948 4.92708 14.3781 4.96875C14.4469 5.00313 14.5469 5.03125 14.5969 5.03125C14.6469 5.03125 14.7469 5.00313 14.8156 4.96875C14.899 4.92708 14.9615 4.86458 15.0031 4.78125C15.0375 4.7125 15.0656 4.61562 15.0656 4.5625C15.0656 4.5125 15.0375 4.4125 15.0031 4.34375C14.9615 4.26042 14.899 4.19792 14.8156 4.15625C14.7469 4.12187 14.6437 4.09375 14.5875 4.09375C14.5344 4.09375 14.4313 4.12813 14.3625 4.17188C14.2937 4.2125 14.2125 4.29375 14.1844 4.35ZM5.65938 5.65625H10.3469V4.71875H5.65938V5.65625ZM7.03438 7.05937C7.54063 7.28437 7.97813 7.46562 8.00313 7.46562C8.02812 7.46562 8.46562 7.28437 8.97188 7.05937C9.47813 6.83437 9.90625 6.6375 9.925 6.62187C9.94063 6.60625 9.125 6.59375 8.00313 6.59375C6.85 6.59375 6.0625 6.60312 6.08125 6.62187C6.1 6.6375 6.52813 6.83437 7.03438 7.05937ZM6.09688 9.37187C6.06563 9.39375 6.675 9.40312 8.00313 9.40625C9.15625 9.40625 9.94375 9.39688 9.925 9.37813C9.90625 9.3625 9.47813 9.16563 8.97188 8.94063C8.46562 8.71562 8.02812 8.53438 8.00313 8.53438C7.97813 8.53438 7.54688 8.71562 7.05 8.9375C6.55313 9.15938 6.12188 9.35312 6.09688 9.37187ZM5.65938 11.2812H10.3469V10.3438H5.65938V11.2812ZM1.00312 11.2188C0.96875 11.2875 0.940625 11.3875 0.940625 11.4375C0.940625 11.4875 0.96875 11.5844 1 11.65C1.03437 11.7156 1.10938 11.7938 1.17813 11.8344C1.24688 11.8719 1.34687 11.9031 1.4 11.9062C1.45625 11.9062 1.55937 11.8781 1.62812 11.8438C1.71146 11.8021 1.77396 11.7396 1.81562 11.6562C1.85 11.5875 1.87812 11.4875 1.87812 11.4375C1.87812 11.3875 1.85 11.2875 1.81562 11.2188C1.77396 11.1354 1.71146 11.0729 1.62812 11.0312C1.55937 10.9969 1.45625 10.9688 1.4 10.9688C1.34687 10.9719 1.24687 11 1.18125 11.0312C1.10938 11.0719 1.04375 11.1406 1.00312 11.2188ZM7.03438 12.6844C7.54063 12.9094 7.97813 13.0906 8.00313 13.0906C8.02812 13.0906 8.46562 12.9094 8.97188 12.6844C9.47813 12.4594 9.90625 12.2625 9.925 12.2469C9.94063 12.2312 9.125 12.2188 8.00313 12.2188C6.85 12.2188 6.0625 12.2281 6.08125 12.2469C6.1 12.2625 6.52813 12.4594 7.03438 12.6844Z" fill="#ACB9CB"/>
</g>
<defs>
<clipPath id="clip0_544_4774">
<rect width="16" height="16" fill="white"/>
</clipPath>
</defs>
</svg>
