<svg width="16" height="16" viewBox="0 0 16 16" fill="none" xmlns="http://www.w3.org/2000/svg">
<path fill-rule="evenodd" clip-rule="evenodd" d="M9.63632 7.01476H0.909047C0.708319 7.01476 0.54541 6.84836 0.54541 6.64333V2.92905C0.54541 2.72365 0.708319 2.55762 0.909047 2.55762H9.63632C9.83705 2.55762 9.99996 2.72365 9.99996 2.92905V6.64333C9.99996 6.84836 9.83705 7.01476 9.63632 7.01476Z" stroke="#ACB9CB" stroke-width="1.09091" stroke-linecap="round" stroke-linejoin="round"/>
<path fill-rule="evenodd" clip-rule="evenodd" d="M11.4545 5.90045H10V3.67188H11.4545C11.856 3.67188 12.1818 4.00468 12.1818 4.41473V5.15759C12.1818 5.56765 11.856 5.90045 11.4545 5.90045Z" stroke="#ACB9CB" stroke-width="1.09091" stroke-linecap="round" stroke-linejoin="round"/>
<path fill-rule="evenodd" clip-rule="evenodd" d="M1.27295 11.4718H3.45477V7.01465H1.27295V11.4718Z" stroke="#ACB9CB" stroke-width="1.09091" stroke-linecap="round" stroke-linejoin="round"/>
<path fill-rule="evenodd" clip-rule="evenodd" d="M3.45459 9.24322H4.18186C4.58332 9.24322 4.90914 8.91042 4.90914 8.50036V7.01465H3.45459V9.24322Z" stroke="#ACB9CB" stroke-width="1.09091" stroke-linecap="round" stroke-linejoin="round"/>
<path fill-rule="evenodd" clip-rule="evenodd" d="M5.63659 14.4431H2.00022C1.59877 14.4431 1.27295 14.1103 1.27295 13.7003V11.4717H5.63659C6.03804 11.4717 6.36386 11.8045 6.36386 12.2145V13.7003C6.36386 14.1103 6.03804 14.4431 5.63659 14.4431Z" stroke="#ACB9CB" stroke-width="1.09091" stroke-linecap="round" stroke-linejoin="round"/>
<path d="M12.1816 4.78532H15.4544" stroke="#ACB9CB" stroke-width="1.09091" stroke-linecap="round" stroke-linejoin="round"/>
<path d="M2.36377 4.04314H4.90922" stroke="#ACB9CB" stroke-width="1.09091" stroke-linecap="round" stroke-linejoin="round"/>
<path d="M2.36377 5.52849H4.90922" stroke="#ACB9CB" stroke-width="1.09091" stroke-linecap="round" stroke-linejoin="round"/>
</svg>
