<svg width="16" height="16" viewBox="0 0 16 16" fill="none" xmlns="http://www.w3.org/2000/svg">
<path fill-rule="evenodd" clip-rule="evenodd" d="M4.82823 0.00625L11.1564 0L11.2689 0.071875C11.3314 0.109375 11.4095 0.19375 11.4407 0.259375C11.4751 0.321875 11.5001 0.415625 11.5001 0.46875C11.5001 0.51875 11.472 0.61875 11.4376 0.6875C11.3959 0.770833 11.3334 0.833333 11.2501 0.875C11.1501 0.925 11.0626 0.9375 10.4689 0.9375V5.40625L12.6376 9.74375C14.3564 13.1812 14.8157 14.125 14.8595 14.3125C14.9095 14.5156 14.9126 14.575 14.8782 14.7656C14.8595 14.8875 14.8001 15.075 14.747 15.1875C14.6939 15.3 14.6064 15.4437 14.5501 15.5094C14.497 15.575 14.3845 15.6781 14.297 15.7375C14.2095 15.7937 14.0501 15.8781 13.7345 16H2.25011L2.03761 15.9125C1.92198 15.8656 1.75636 15.775 1.67198 15.7094C1.58448 15.6469 1.47823 15.5469 1.43448 15.4906C1.38761 15.4375 1.31573 15.3188 1.27198 15.2344C1.22823 15.1469 1.16573 14.975 1.13448 14.85C1.08136 14.6313 1.08136 14.6063 1.13136 14.3656C1.17823 14.1375 1.41573 13.6438 5.53448 5.39062L5.53136 0.9375H5.19386C4.90636 0.934375 4.84386 0.925 4.73761 0.865625C4.66886 0.825 4.59386 0.746875 4.55948 0.678125C4.52823 0.615625 4.50011 0.51875 4.50011 0.46875C4.50011 0.415625 4.52511 0.321875 4.55948 0.25625C4.59073 0.19375 4.66261 0.109375 4.72198 0.071875L4.82823 0.00625ZM6.46886 5.62813C5.25948 8.05 4.90636 8.75938 4.90636 8.76875C4.90636 8.775 5.29073 8.78125 5.75948 8.78125H6.60948C6.75636 8.46875 6.85948 8.325 6.96886 8.22188C7.06573 8.125 7.21261 8.0125 7.29698 7.96562C7.38448 7.91875 7.53761 7.85938 7.64073 7.83125C7.74386 7.80625 7.90636 7.78438 8.00011 7.78438C8.09386 7.78438 8.25636 7.80625 8.35948 7.83125C8.46261 7.85938 8.61886 7.91875 8.70323 7.96562C8.79073 8.0125 8.93761 8.125 9.03448 8.22188C9.13761 8.325 9.24386 8.46875 9.30011 8.5875L9.39073 8.78125C10.7095 8.78125 11.0939 8.775 11.0939 8.76875C11.0939 8.75938 10.7439 8.05 10.3126 7.19063L9.53136 5.62813V0.940625H6.46886V5.62813ZM7.58761 8.91875C7.54073 8.98125 7.49073 9.07812 7.48136 9.13437C7.47198 9.19062 7.47198 9.29375 7.48448 9.3625C7.50011 9.45 7.54698 9.525 7.63761 9.61563C7.71573 9.69688 7.80948 9.75313 7.87511 9.76875C7.93448 9.78125 8.03761 9.78125 8.10323 9.77188C8.17511 9.75938 8.26573 9.70937 8.34698 9.63437C8.41573 9.57187 8.48761 9.46875 8.50636 9.40938C8.52511 9.34688 8.53136 9.24375 8.51886 9.175C8.50948 9.10625 8.46886 9.00312 8.43136 8.94687C8.39073 8.89062 8.30323 8.81875 8.23448 8.78438C8.16573 8.75 8.05948 8.72188 8.00011 8.72188C7.94073 8.72188 7.84073 8.74063 7.78136 8.76562C7.72198 8.7875 7.63448 8.85625 7.58761 8.91875ZM3.24073 12.0875C2.21886 14.1406 2.06261 14.475 2.06261 14.5969C2.06261 14.6906 2.08448 14.7719 2.13136 14.8469C2.17198 14.9062 2.25323 14.9812 2.31261 15.0094C2.41573 15.0625 2.75323 15.0656 8.00011 15.0656C13.247 15.0656 13.5845 15.0625 13.6876 15.0094C13.747 14.9812 13.8282 14.9062 13.8689 14.8469C13.9157 14.7719 13.9407 14.6906 13.9407 14.5969C13.9376 14.475 13.7845 14.1437 12.7595 12.0875L11.5782 9.71875L9.39073 9.725C9.24386 10.0312 9.13136 10.1844 9.03136 10.2844C8.93761 10.3781 8.79073 10.4937 8.70323 10.5406C8.61886 10.5844 8.46261 10.6438 8.35948 10.6719C8.25636 10.7 8.09386 10.7219 8.00011 10.7219C7.90636 10.7219 7.74386 10.7 7.64073 10.6719C7.53761 10.6438 7.38448 10.5844 7.29698 10.5406C7.21261 10.4937 7.06573 10.3781 6.96886 10.2844C6.85948 10.1781 6.75636 10.0375 6.70011 9.91875L6.60948 9.725L4.41573 9.72188L3.24073 12.0875ZM5.97198 11.0344C6.05011 11.0312 6.19073 11.0469 6.28448 11.0625C6.37823 11.0813 6.54698 11.1406 6.65948 11.1938C6.77823 11.2531 6.93448 11.3656 7.03761 11.4656C7.13448 11.5656 7.25323 11.7281 7.30948 11.8438C7.36573 11.9563 7.42823 12.1469 7.44698 12.2656C7.47511 12.4312 7.47511 12.5437 7.44698 12.7188C7.42511 12.8594 7.37198 13.0344 7.30948 13.1562C7.25323 13.2719 7.13448 13.4344 7.03761 13.5344C6.93761 13.6344 6.77511 13.75 6.65948 13.8094C6.53761 13.8687 6.36261 13.925 6.22198 13.9438C6.04073 13.9719 5.93448 13.9719 5.76886 13.9438C5.64698 13.9219 5.45948 13.8625 5.34698 13.8062C5.22823 13.75 5.07198 13.6375 4.96886 13.5344C4.86886 13.4344 4.75323 13.2719 4.69386 13.1562C4.63448 13.0344 4.58136 12.8594 4.55948 12.7188C4.53136 12.5437 4.53136 12.4312 4.55948 12.2656C4.57823 12.1469 4.63448 11.9625 4.68761 11.8594C4.73761 11.7563 4.84073 11.6031 4.91886 11.5156C4.99386 11.4312 5.14073 11.3094 5.24073 11.25C5.34073 11.1906 5.51573 11.1187 5.62823 11.0875C5.73761 11.0594 5.89386 11.0344 5.97198 11.0344ZM5.59073 12.1687C5.54073 12.2312 5.49386 12.3281 5.48448 12.3844C5.47198 12.4406 5.47511 12.5406 5.48761 12.6094C5.50323 12.6969 5.54698 12.775 5.63761 12.8656C5.71886 12.9438 5.80948 13.0031 5.87823 13.0156C5.93761 13.0281 6.04073 13.0312 6.10323 13.0188C6.17823 13.0063 6.26886 12.9562 6.34698 12.8844C6.41886 12.8187 6.49073 12.7156 6.50948 12.6562C6.52823 12.5969 6.53448 12.4906 6.52198 12.4219C6.51261 12.3531 6.47198 12.25 6.43448 12.1969C6.39386 12.1406 6.30636 12.0656 6.23761 12.0312C6.16886 11.9969 6.06261 11.9719 6.00323 11.9719C5.94386 11.9719 5.84386 11.9906 5.78448 12.0125C5.72511 12.0344 5.63761 12.1062 5.59073 12.1687ZM9.49386 11.0344C9.55011 11.0312 9.65323 11.0594 9.72198 11.0938C9.80532 11.1354 9.86782 11.1979 9.90948 11.2812C9.94386 11.35 9.97198 11.45 9.97198 11.5C9.97198 11.5531 9.94386 11.65 9.90948 11.7188C9.86782 11.8021 9.80532 11.8646 9.72198 11.9062C9.65323 11.9406 9.55323 11.9688 9.50323 11.9688C9.45011 11.9688 9.35323 11.9406 9.28448 11.9062C9.20115 11.8646 9.13865 11.8021 9.09698 11.7188C9.06261 11.65 9.03448 11.5531 9.03448 11.5C9.03448 11.45 9.06261 11.35 9.09698 11.2812C9.13448 11.2031 9.20323 11.1344 9.27511 11.0969C9.34073 11.0625 9.43761 11.0344 9.49386 11.0344ZM11.0032 12.0344C11.0626 12.0312 11.1626 12.0562 11.222 12.0906C11.2814 12.1219 11.3626 12.2031 11.4001 12.2688C11.4376 12.3375 11.472 12.4375 11.472 12.4937C11.472 12.55 11.4439 12.65 11.4095 12.7188C11.3678 12.8021 11.3053 12.8646 11.222 12.9062C11.1532 12.9406 11.0532 12.9688 11.0032 12.9688C10.9501 12.9688 10.8532 12.9406 10.7845 12.9062C10.7011 12.8646 10.6386 12.8021 10.597 12.7188C10.5626 12.65 10.5345 12.5531 10.5345 12.5C10.5345 12.45 10.5626 12.35 10.597 12.2812C10.6345 12.2031 10.7032 12.1344 10.7751 12.0969C10.8407 12.0625 10.9439 12.0344 11.0032 12.0344ZM8.99386 13.0344C9.05011 13.0312 9.15323 13.0594 9.22198 13.0938C9.30532 13.1354 9.36782 13.1979 9.40948 13.2812C9.44386 13.35 9.47198 13.45 9.47198 13.5C9.47198 13.5531 9.44386 13.65 9.40948 13.7188C9.36782 13.8021 9.30532 13.8646 9.22198 13.9062C9.15323 13.9406 9.05323 13.9688 9.00323 13.9688C8.95011 13.9688 8.85323 13.9406 8.78448 13.9062C8.70115 13.8646 8.63865 13.8021 8.59698 13.7188C8.56261 13.65 8.53448 13.5531 8.53448 13.5C8.53448 13.45 8.56261 13.35 8.59698 13.2812C8.63448 13.2031 8.70323 13.1344 8.77511 13.0969C8.84073 13.0625 8.93761 13.0344 8.99386 13.0344Z" fill="#ACB9CB"/>
</svg>
