<svg width="16" height="16" viewBox="0 0 16 16" fill="none" xmlns="http://www.w3.org/2000/svg">
<g clip-path="url(#clip0_544_4769)">
<path fill-rule="evenodd" clip-rule="evenodd" d="M9.4842 0.25L13.9217 0.253125L14.0248 0.328125C14.0779 0.371875 14.1467 0.446875 14.1717 0.5C14.2123 0.578125 14.2186 0.828125 14.2186 3.6875L14.7311 3.69688C15.1967 3.70312 15.2529 3.70937 15.3342 3.76875C15.3811 3.80312 15.4529 3.88125 15.4936 3.94062C15.5311 4 15.5623 4.0875 15.5623 4.14062C15.5623 4.19375 15.3717 5.42188 15.1404 6.875C14.9092 8.32812 14.6904 9.6 14.6561 9.70312C14.6217 9.80625 14.5342 9.98125 14.4623 10.0906C14.3873 10.2031 14.2498 10.3594 14.1561 10.4438C14.0623 10.5281 13.9061 10.6344 13.8123 10.6875C13.7186 10.7375 13.5561 10.8 13.4529 10.8281C13.3404 10.8562 12.0467 10.9812 10.2029 11.1438C8.51857 11.2875 6.53419 11.4594 5.79357 11.525C4.49982 11.6375 4.44357 11.6438 4.32482 11.7219C4.24669 11.7719 4.17482 11.8562 4.12794 11.9563C4.06857 12.075 4.05607 12.1469 4.06544 12.2688C4.07482 12.3906 4.10294 12.4625 4.17482 12.55C4.22794 12.6188 4.31857 12.6969 4.37794 12.725C4.47794 12.7781 4.73107 12.7812 8.3592 12.7812C10.8936 12.7812 12.2936 12.7906 12.4061 12.8125C12.4998 12.8313 12.6686 12.8875 12.7811 12.9406C12.9061 13 13.0498 13.1062 13.1592 13.2156C13.2561 13.3125 13.3748 13.4688 13.4217 13.5625C13.4686 13.6562 13.5279 13.8062 13.5498 13.8906C13.5748 13.9781 13.5936 14.1438 13.5936 14.2656C13.5936 14.3969 13.5717 14.5656 13.5342 14.6875C13.4998 14.8 13.4279 14.9562 13.3748 15.0406C13.3248 15.1219 13.2217 15.2469 13.1467 15.3188C13.0717 15.3938 12.9279 15.4969 12.8248 15.55C12.7248 15.6062 12.5592 15.6719 12.4592 15.7C12.3623 15.7281 12.1998 15.75 12.0998 15.75C12.0029 15.75 11.8436 15.7219 11.7498 15.6906C11.6561 15.6594 11.5154 15.6031 11.4373 15.5625C11.3592 15.525 11.2404 15.4469 11.1717 15.3938C11.1029 15.3375 10.9873 15.2031 10.9123 15.0906C10.8373 14.9812 10.7498 14.8 10.7154 14.6875C10.6779 14.5625 10.6561 14.3938 10.6561 14.25C10.6561 14.1219 10.6779 13.95 10.7498 13.7188H7.8592L7.8842 13.8188C7.89982 13.875 7.92169 14 7.9342 14.0938C7.94982 14.1875 7.94982 14.35 7.93732 14.4531C7.9217 14.5562 7.88732 14.7031 7.8592 14.7812C7.83107 14.8594 7.76857 14.9844 7.71857 15.0625C7.6717 15.1406 7.56232 15.2688 7.47795 15.3469C7.3967 15.425 7.2717 15.5188 7.20295 15.5531C7.13419 15.5906 6.99982 15.6469 6.90607 15.6844C6.78419 15.7312 6.66232 15.75 6.49045 15.75C6.32794 15.75 6.18107 15.7281 6.03732 15.6812C5.92169 15.6437 5.74357 15.5562 5.64044 15.4844C5.53732 15.4125 5.38732 15.2719 5.30919 15.1687C5.23107 15.0687 5.13732 14.9 5.09669 14.7969C5.05607 14.6938 5.01857 14.5031 5.00919 14.375C4.9967 14.2375 5.00607 14.075 5.02794 13.9844C5.04982 13.8969 5.07169 13.8031 5.07794 13.7719C5.09357 13.725 5.06232 13.7188 4.74044 13.7188C4.47794 13.7188 4.34044 13.7031 4.18732 13.6594C4.07482 13.625 3.91232 13.55 3.82794 13.4969C3.74044 13.4406 3.60919 13.3313 3.53107 13.25C3.45294 13.1687 3.35294 13.025 3.30294 12.9344C3.25607 12.8406 3.19669 12.6875 3.17169 12.5938C3.14669 12.5 3.12482 12.3313 3.12482 12.2188C3.12482 12.1062 3.14669 11.9344 3.17169 11.8344C3.19669 11.7375 3.25294 11.5906 3.29357 11.5063C3.33419 11.425 3.43732 11.2812 3.52169 11.1875C3.60919 11.0938 3.76857 10.9625 3.87794 10.9C4.00294 10.825 4.16544 10.7625 4.30294 10.7344C4.52794 10.6875 4.53107 10.6844 4.51544 10.6C4.50607 10.5531 4.28107 8.85625 4.01544 6.82812C3.73419 4.65625 3.51544 3.08125 3.48419 3C3.45607 2.92188 3.39357 2.80312 3.34669 2.73438C3.29669 2.66563 3.20294 2.5625 3.13732 2.50312C3.07169 2.44375 2.93732 2.35938 2.84357 2.31562C2.67482 2.23438 2.66232 2.23438 1.71857 2.21875C0.834194 2.20312 0.759194 2.2 0.665444 2.14062C0.609194 2.10625 0.534194 2.02188 0.496694 1.95312C0.443569 1.85625 0.431069 1.79688 0.446694 1.6875C0.456069 1.60938 0.490444 1.5125 0.524819 1.46875C0.556069 1.425 0.631069 1.36563 0.690444 1.33438C0.787319 1.28438 0.884194 1.28125 1.78107 1.29062C2.70607 1.3 2.77794 1.30313 2.98419 1.37188C3.10294 1.40938 3.29357 1.49375 3.40607 1.55625C3.51857 1.61875 3.70607 1.7625 3.82169 1.875C3.94044 1.9875 4.08732 2.15625 4.14982 2.25C4.21232 2.34375 4.30294 2.52813 4.35294 2.65625C4.40294 2.7875 4.46232 3.03437 4.48732 3.21875C4.51232 3.4 4.54044 3.57812 4.54669 3.61875C4.56232 3.68438 4.57794 3.6875 5.06232 3.6875V3.02187C5.0592 2.38125 5.06232 2.35625 5.13107 2.25C5.17169 2.19062 5.25294 2.11563 5.31232 2.0875C5.40919 2.0375 5.53107 2.03125 7.45295 2.03125L7.58732 1.68125C7.6592 1.4875 7.7467 1.28437 7.77482 1.23438C7.80607 1.18437 7.8842 1.11563 7.9467 1.08438C8.0092 1.05625 8.11232 1.03125 8.1717 1.03125C8.23107 1.03125 8.47795 1.10938 8.71857 1.20312C8.9592 1.29688 9.16232 1.375 9.1717 1.375C9.18107 1.375 9.18732 1.2 9.18732 0.984375C9.18732 0.7 9.19982 0.56875 9.2342 0.5C9.2592 0.446875 9.32795 0.371875 9.38107 0.328125L9.4842 0.25ZM10.1248 1.75C10.7561 1.99063 11.1186 2.13125 11.3373 2.21563C11.6248 2.32812 11.7592 2.39688 11.8217 2.46563C11.8686 2.51875 11.9154 2.60938 11.9279 2.6625C11.9373 2.71875 11.9373 2.80625 11.9248 2.85938C11.9123 2.90937 11.8404 3.1125 11.7654 3.30312C11.6873 3.49687 11.6248 3.6625 11.6248 3.67188C11.6248 3.68125 11.9998 3.6875 12.4529 3.6875H13.2811V1.1875H10.1248V1.75ZM8.17795 2.75C8.04982 3.08437 7.91545 3.43437 7.87795 3.52187L7.81232 3.6875H10.6092C10.8154 3.17188 10.8498 3.05 10.8279 3.03437C10.8123 3.01875 10.4123 2.85938 9.93732 2.67812C9.46545 2.49687 8.9342 2.29062 8.75607 2.22187C8.58107 2.15312 8.43107 2.10625 8.42482 2.11875C8.41857 2.13125 8.3092 2.41563 8.17795 2.75ZM5.99982 3.6875H6.81232C7.01232 3.16563 7.07482 3.00625 7.0842 2.99062C7.09045 2.97812 6.84982 2.96875 6.5467 2.96875H5.99982V3.6875ZM5.06544 7.59375C5.2717 9.18437 5.44669 10.5125 5.45294 10.5469C5.46545 10.6062 5.48107 10.6063 5.77482 10.5844C5.94044 10.5688 7.68107 10.4187 9.64045 10.25C13.0217 9.95625 13.2123 9.93437 13.3592 9.8625C13.4467 9.82188 13.5623 9.73438 13.6154 9.66562C13.6717 9.6 13.7373 9.48438 13.7654 9.40625C13.7904 9.32812 13.9748 8.24687 14.1717 7C14.3717 5.75313 14.5342 4.70937 14.5342 4.67812C14.5342 4.62812 14.2779 4.625 9.6092 4.625C5.69357 4.625 4.68732 4.63125 4.68732 4.6625C4.68732 4.68437 4.8592 6.00313 5.06544 7.59375ZM6.10294 13.8813C6.06232 13.9219 6.00919 14 5.98419 14.0531C5.9592 14.1094 5.93732 14.2063 5.93732 14.2656C5.93732 14.325 5.95919 14.4219 5.98107 14.475C6.00607 14.5312 6.06544 14.6156 6.11544 14.6625C6.16544 14.7094 6.24357 14.7594 6.29044 14.7781C6.33732 14.7969 6.4217 14.8125 6.47795 14.8125C6.53419 14.8125 6.63419 14.7844 6.70295 14.7563C6.7717 14.725 6.86545 14.65 6.90607 14.5906C6.94669 14.5312 6.99357 14.4344 7.00607 14.375C7.01857 14.3156 7.01545 14.2094 6.99982 14.1406C6.9842 14.0719 6.92482 13.9656 6.86857 13.9062C6.8092 13.8469 6.7092 13.7781 6.64045 13.7594C6.57169 13.7375 6.4967 13.7188 6.46857 13.7188C6.44357 13.7219 6.36545 13.7406 6.29669 13.7656C6.22794 13.7906 6.14045 13.8438 6.10294 13.8813ZM11.6654 13.9875C11.6217 14.0656 11.5967 14.1625 11.5967 14.2563C11.5967 14.3406 11.6154 14.4438 11.6373 14.4906C11.6623 14.5406 11.7248 14.6156 11.7779 14.6625C11.8311 14.7125 11.9311 14.7625 11.9998 14.7812C12.0832 14.8021 12.1665 14.8021 12.2498 14.7812C12.3186 14.7625 12.4217 14.7125 12.4748 14.6625C12.5311 14.6156 12.5936 14.5312 12.6154 14.475C12.6404 14.4219 12.6561 14.3156 12.6561 14.2406C12.6561 14.1594 12.6279 14.0594 12.5779 13.975C12.5279 13.8875 12.4592 13.8219 12.3686 13.7812C12.2967 13.7469 12.1873 13.7188 12.1248 13.7188C12.0654 13.7188 11.9529 13.75 11.8748 13.7906C11.7873 13.8375 11.7092 13.9094 11.6654 13.9875ZM6.84357 5.3125C6.94044 5.30937 7.0217 5.33437 7.09357 5.38125C7.15295 5.42188 7.22482 5.49375 7.25607 5.54688C7.29982 5.62187 7.34045 5.95937 7.45607 7.17188C7.5342 8.0125 7.59669 8.775 7.59045 8.8625C7.58107 8.98438 7.5592 9.04688 7.49982 9.10938C7.4592 9.15625 7.3842 9.2125 7.33732 9.2375C7.29045 9.2625 7.20295 9.28125 7.14045 9.28125C7.08107 9.28125 6.98732 9.25937 6.93107 9.23438C6.87482 9.20938 6.7967 9.14062 6.7592 9.08438C6.69357 8.99063 6.67482 8.8625 6.53107 7.35938C6.38732 5.84375 6.37794 5.725 6.42169 5.6C6.45607 5.5125 6.5092 5.44375 6.58732 5.39062C6.66857 5.3375 6.7467 5.3125 6.84357 5.3125ZM9.6717 5.32188C9.76857 5.32812 9.86232 5.35625 9.91232 5.39062C9.9592 5.425 10.0217 5.49375 10.0529 5.54688C10.1061 5.63438 10.1123 5.75 10.1217 7.15625C10.1248 7.99062 10.1217 8.75 10.1092 8.84375C10.0904 8.98125 10.0654 9.0375 9.97482 9.13437C9.87795 9.2375 9.8342 9.25938 9.70295 9.27188C9.5967 9.28438 9.51857 9.275 9.45295 9.24063C9.40295 9.21563 9.32482 9.15625 9.20295 9.025V5.56563L9.29357 5.46562C9.34357 5.40937 9.41232 5.35313 9.44982 5.3375C9.48732 5.325 9.58732 5.31563 9.6717 5.32188ZM12.4279 5.3125C12.5029 5.3125 12.6061 5.33437 12.6561 5.35938C12.7092 5.38438 12.7779 5.44375 12.8092 5.49062C12.8436 5.54063 12.8779 5.61875 12.8873 5.67188C12.8998 5.72188 12.8467 6.44063 12.7686 7.26562C12.6904 8.09062 12.6186 8.81563 12.6092 8.875C12.5998 8.93437 12.5686 9.025 12.5373 9.07812C12.5061 9.12813 12.4311 9.19688 12.3654 9.225C12.3029 9.25625 12.1998 9.28125 12.1342 9.28125C12.0686 9.28125 11.9717 9.25313 11.9154 9.21875C11.8592 9.18437 11.7873 9.10938 11.7529 9.05313C11.7154 8.99688 11.6904 8.89688 11.6904 8.82812C11.6873 8.75937 11.7529 8.02187 11.8311 7.1875C11.9373 6.05312 11.9873 5.64375 12.0279 5.5625C12.0561 5.50313 12.1279 5.42188 12.1873 5.38438C12.2561 5.3375 12.3404 5.3125 12.4279 5.3125Z" fill="#ACB9CB"/>
</g>
<defs>
<clipPath id="clip0_544_4769">
<rect width="16" height="16" fill="white"/>
</clipPath>
</defs>
</svg>
