<svg width="16" height="16" viewBox="0 0 16 16" fill="none" xmlns="http://www.w3.org/2000/svg">
<path fill-rule="evenodd" clip-rule="evenodd" d="M15.5312 15.0625H15.0625V6.125C15.0625 5.86609 14.8527 5.65625 14.5938 5.65625H12.2188V4.25C12.2188 3.99109 12.0089 3.78125 11.75 3.78125H11.2812V2.375C11.2812 2.11609 11.0714 1.90625 10.8125 1.90625H9.40625V0.46875C9.40625 0.209839 9.19641 0 8.9375 0C8.67859 0 8.46875 0.209839 8.46875 0.46875V1.90625H7.0625C6.80359 1.90625 6.59375 2.11609 6.59375 2.375V3.78125H6.125C5.86609 3.78125 5.65625 3.99109 5.65625 4.25V5.65625H4.71875V4.25C4.71875 3.99109 4.50891 3.78125 4.25 3.78125C3.99109 3.78125 3.78125 3.99109 3.78125 4.25V5.65625H2.375C2.11609 5.65625 1.90625 5.86609 1.90625 6.125V7.53125H1.40625C1.14734 7.53125 0.9375 7.74109 0.9375 8V15.0625H0.46875C0.209839 15.0625 0 15.2723 0 15.5312C0 15.7902 0.209839 16 0.46875 16H15.5312C15.7902 16 16 15.7902 16 15.5312C16 15.2723 15.7902 15.0625 15.5312 15.0625ZM14.125 6.59375V7.53125H13.6562C13.3973 7.53125 13.1875 7.74109 13.1875 8C13.1875 8.25891 13.3973 8.46875 13.6562 8.46875H14.125V9.40625H13.6562C13.3973 9.40625 13.1875 9.61609 13.1875 9.875C13.1875 10.1339 13.3973 10.3438 13.6562 10.3438H14.125V11.2812H13.6562C13.3973 11.2812 13.1875 11.4911 13.1875 11.75C13.1875 12.0089 13.3973 12.2188 13.6562 12.2188H14.125V13.1562H13.6562C13.3973 13.1562 13.1875 13.3661 13.1875 13.625C13.1875 13.8839 13.3973 14.0938 13.6562 14.0938H14.125V15.0625H12.2188V6.59375H14.125ZM10.3438 3.78125V2.84375H7.53125V3.78125H10.3438ZM6.59375 4.71875H11.2812V15.0625H10.3438V13.625C10.3438 13.3661 10.1339 13.1562 9.875 13.1562H8C7.74109 13.1562 7.53125 13.3661 7.53125 13.625V15.0625H6.59375V4.71875ZM8.46875 14.0938V15.0625H9.40625V14.0938H8.46875ZM2.84375 6.59375H5.65625V7.53125H2.84375V6.59375ZM5.65625 8.46875H1.875V15.0625H5.65625V8.46875Z" fill="#ACB9CB"/>
<path fill-rule="evenodd" clip-rule="evenodd" d="M10.3438 11.75C10.3438 12.0089 10.1339 12.2188 9.875 12.2188C9.61609 12.2188 9.40625 12.0089 9.40625 11.75C9.40625 11.4911 9.61609 11.2812 9.875 11.2812C10.1339 11.2812 10.3438 11.4911 10.3438 11.75Z" fill="#ACB9CB"/>
<path fill-rule="evenodd" clip-rule="evenodd" d="M8.46875 11.75C8.46875 12.0089 8.25891 12.2188 8 12.2188C7.74109 12.2188 7.53125 12.0089 7.53125 11.75C7.53125 11.4911 7.74109 11.2812 8 11.2812C8.25891 11.2812 8.46875 11.4911 8.46875 11.75Z" fill="#ACB9CB"/>
<path fill-rule="evenodd" clip-rule="evenodd" d="M10.3438 9.875C10.3438 10.1339 10.1339 10.3438 9.875 10.3438C9.61609 10.3438 9.40625 10.1339 9.40625 9.875C9.40625 9.61609 9.61609 9.40625 9.875 9.40625C10.1339 9.40625 10.3438 9.61609 10.3438 9.875Z" fill="#ACB9CB"/>
<path fill-rule="evenodd" clip-rule="evenodd" d="M8.46875 9.875C8.46875 10.1339 8.25891 10.3438 8 10.3438C7.74109 10.3438 7.53125 10.1339 7.53125 9.875C7.53125 9.61609 7.74109 9.40625 8 9.40625C8.25891 9.40625 8.46875 9.61609 8.46875 9.875Z" fill="#ACB9CB"/>
<path fill-rule="evenodd" clip-rule="evenodd" d="M10.3438 8C10.3438 8.25891 10.1339 8.46875 9.875 8.46875C9.61609 8.46875 9.40625 8.25891 9.40625 8C9.40625 7.74109 9.61609 7.53125 9.875 7.53125C10.1339 7.53125 10.3438 7.74109 10.3438 8Z" fill="#ACB9CB"/>
<path fill-rule="evenodd" clip-rule="evenodd" d="M8.46875 8C8.46875 8.25891 8.25891 8.46875 8 8.46875C7.74109 8.46875 7.53125 8.25891 7.53125 8C7.53125 7.74109 7.74109 7.53125 8 7.53125C8.25891 7.53125 8.46875 7.74109 8.46875 8Z" fill="#ACB9CB"/>
<path fill-rule="evenodd" clip-rule="evenodd" d="M10.3438 6.125C10.3438 6.38391 10.1339 6.59375 9.875 6.59375C9.61609 6.59375 9.40625 6.38391 9.40625 6.125C9.40625 5.86609 9.61609 5.65625 9.875 5.65625C10.1339 5.65625 10.3438 5.86609 10.3438 6.125Z" fill="#ACB9CB"/>
<path fill-rule="evenodd" clip-rule="evenodd" d="M8.46875 6.125C8.46875 6.38391 8.25891 6.59375 8 6.59375C7.74109 6.59375 7.53125 6.38391 7.53125 6.125C7.53125 5.86609 7.74109 5.65625 8 5.65625C8.25891 5.65625 8.46875 5.86609 8.46875 6.125Z" fill="#ACB9CB"/>
<path fill-rule="evenodd" clip-rule="evenodd" d="M3.3125 10.3438H4.25C4.50891 10.3438 4.71875 10.1339 4.71875 9.875C4.71875 9.61609 4.50891 9.40625 4.25 9.40625H3.3125C3.05359 9.40625 2.84375 9.61609 2.84375 9.875C2.84375 10.1339 3.05359 10.3438 3.3125 10.3438Z" fill="#ACB9CB"/>
<path fill-rule="evenodd" clip-rule="evenodd" d="M4.25 11.2812H3.3125C3.05359 11.2812 2.84375 11.4911 2.84375 11.75C2.84375 12.0089 3.05359 12.2188 3.3125 12.2188H4.25C4.50891 12.2188 4.71875 12.0089 4.71875 11.75C4.71875 11.4911 4.50891 11.2812 4.25 11.2812Z" fill="#ACB9CB"/>
<path fill-rule="evenodd" clip-rule="evenodd" d="M4.25 13.1562H3.3125C3.05359 13.1562 2.84375 13.3661 2.84375 13.625C2.84375 13.8839 3.05359 14.0938 3.3125 14.0938H4.25C4.50891 14.0938 4.71875 13.8839 4.71875 13.625C4.71875 13.3661 4.50891 13.1562 4.25 13.1562Z" fill="#ACB9CB"/>
</svg>
