<svg width="16" height="16" viewBox="0 0 16 16" fill="none" xmlns="http://www.w3.org/2000/svg">
<g clip-path="url(#clip0_544_4766)">
<path fill-rule="evenodd" clip-rule="evenodd" d="M3.90625 0.00341175C4.19063 0.000286754 4.5 0.0127868 4.59375 0.0284118C4.6875 0.0471618 4.9 0.0815368 5.0625 0.109662C5.225 0.137787 5.52187 0.200287 5.71875 0.250287C5.91563 0.300287 6.24375 0.397162 6.44688 0.465912C6.64687 0.537787 6.92812 0.640912 7.06875 0.700287C7.2125 0.759662 7.47813 0.878412 8 1.12529L8.4 0.940912C8.61875 0.837787 8.9375 0.700287 9.10938 0.631537C9.28125 0.562787 9.5625 0.462787 9.73438 0.406537C9.90625 0.353412 10.2156 0.265912 10.4219 0.215912C10.6281 0.165912 10.9375 0.103412 11.1094 0.0752868C11.2812 0.0440368 11.6594 0.0159118 11.9531 0.00653675C12.2937 0.000286754 12.5625 0.00653675 12.7031 0.0315368C12.825 0.0534118 13.0344 0.0940368 13.1719 0.125287C13.3094 0.156537 13.5125 0.212787 13.625 0.253412C13.7375 0.290912 13.925 0.369037 14.0469 0.431537C14.1687 0.490912 14.3625 0.606537 14.4844 0.690912C14.6062 0.772162 14.8156 0.956537 14.9563 1.10029C15.0938 1.24404 15.2656 1.44404 15.3344 1.54716C15.4031 1.65029 15.5125 1.84091 15.5781 1.96904C15.6438 2.09716 15.7344 2.32216 15.7812 2.46904C15.8281 2.61591 15.9 2.90966 15.9375 3.12529C15.9969 3.45966 16.0031 3.59404 15.9906 4.06279C15.9813 4.42841 15.9563 4.73466 15.9094 4.98466C15.8719 5.19091 15.8 5.52216 15.75 5.71904C15.7 5.91591 15.6125 6.21904 15.5531 6.39091C15.4938 6.56279 15.3813 6.85654 15.3031 7.04716C15.225 7.23779 15.0969 7.52841 14.875 8.00029L15.0344 8.33779C15.1219 8.52216 15.2406 8.78779 15.3 8.92841C15.3594 9.07216 15.4625 9.35341 15.5344 9.55654C15.6031 9.75654 15.7 10.0847 15.75 10.2815C15.8031 10.4784 15.8781 10.8534 15.9219 11.1097C15.9812 11.4628 16 11.694 16 12.0409C16 12.3597 15.9812 12.6128 15.9375 12.8659C15.9031 13.069 15.8406 13.3472 15.7969 13.4847C15.7563 13.6222 15.6625 13.8534 15.5906 14.0003C15.5219 14.1472 15.3938 14.3628 15.3125 14.4847C15.2281 14.6065 15.0437 14.8159 14.9 14.9565C14.7562 15.094 14.5562 15.2659 14.4531 15.3347C14.35 15.4034 14.1812 15.5034 14.0781 15.5534C13.975 15.6034 13.8125 15.6753 13.7188 15.7128C13.625 15.7503 13.4406 15.8065 13.3125 15.8409C13.1844 15.8753 12.9375 15.9253 12.7656 15.9534C12.5312 15.994 12.325 16.0034 11.9375 15.994C11.6531 15.9847 11.2812 15.9565 11.1094 15.9253C10.9375 15.8972 10.6281 15.8347 10.4219 15.7847C10.2156 15.7347 9.90625 15.6472 9.73438 15.594C9.5625 15.5378 9.28125 15.4378 9.10938 15.369C8.9375 15.3003 8.61875 15.1628 8 14.8753L7.6625 15.0347C7.47813 15.1222 7.2125 15.2409 7.07188 15.3003C6.92812 15.3597 6.64687 15.4628 6.44375 15.5347C6.24375 15.6034 5.91563 15.7003 5.71875 15.7503C5.52187 15.8003 5.225 15.8628 5.0625 15.8909C4.9 15.919 4.6875 15.9534 4.59375 15.9722C4.5 15.9878 4.21562 16.0003 3.95937 16.0003C3.64062 16.0003 3.39062 15.9815 3.14062 15.9378C2.94375 15.9034 2.66562 15.8378 2.52187 15.794C2.38125 15.7503 2.15937 15.6628 2.03125 15.6034C1.90313 15.544 1.68438 15.4222 1.54688 15.3284C1.40937 15.2378 1.18438 15.044 1.04375 14.9003C0.90625 14.7597 0.734375 14.5565 0.665625 14.4534C0.596875 14.3503 0.4875 14.1597 0.421875 14.0315C0.35625 13.9034 0.265625 13.6784 0.21875 13.5315C0.171875 13.3847 0.1 13.0909 0.0625 12.8753C0.003125 12.5409 -0.003125 12.4065 0.009375 11.9378C0.01875 11.5722 0.04375 11.2659 0.090625 11.0159C0.128125 10.8097 0.2 10.4784 0.25 10.2815C0.3 10.0847 0.396875 9.75654 0.465625 9.55654C0.5375 9.35341 0.640625 9.07216 0.7 8.93154C0.759375 8.78779 0.878125 8.52216 1.125 8.00029L0.965625 7.66591C0.878125 7.47841 0.759375 7.21279 0.7 7.07216C0.640625 6.92841 0.5375 6.64716 0.465625 6.44716C0.396875 6.24404 0.3 5.91591 0.25 5.71904C0.196875 5.52216 0.121875 5.15029 0.078125 4.89091C0.01875 4.53779 0 4.30654 0 3.96279C0 3.64091 0.01875 3.38779 0.0625 3.13466C0.096875 2.93154 0.159375 2.65341 0.203125 2.51591C0.24375 2.37841 0.3375 2.14716 0.409375 2.00029C0.478125 1.85341 0.609375 1.63154 0.696875 1.50341C0.7875 1.37529 0.9875 1.15029 1.14375 1.00341C1.3125 0.840912 1.5375 0.669037 1.70625 0.569037C1.85938 0.478412 2.09687 0.359662 2.23438 0.309662C2.37188 0.256537 2.61875 0.178412 2.78125 0.140912C2.94375 0.100287 3.15 0.0565368 3.23438 0.0377868C3.32188 0.0221618 3.62188 0.00653675 3.90625 0.00341175ZM2.92188 1.06279C2.78437 1.09716 2.54688 1.18779 2.39062 1.26279C2.23438 1.34091 2.01562 1.48154 1.9 1.57529C1.78125 1.67216 1.625 1.83154 1.54375 1.93154C1.46563 2.02841 1.34063 2.23779 1.26562 2.39091C1.1875 2.54716 1.09687 2.78466 1.0625 2.92216C1.02813 3.05966 0.984375 3.28466 0.96875 3.42216C0.95 3.55966 0.9375 3.78779 0.9375 3.93154C0.9375 4.07216 0.953125 4.32529 0.971875 4.49404C0.990625 4.65966 1.0375 4.95966 1.07812 5.15654C1.12188 5.35341 1.2125 5.69716 1.28437 5.92216C1.35625 6.14716 1.45312 6.42841 1.5 6.54716C1.55 6.66591 1.6125 6.82216 1.64062 6.89091L1.69062 7.01591C2.10625 6.38466 2.35 6.04091 2.50312 5.84404C2.65313 5.64716 2.86875 5.37216 2.98438 5.23466C3.1 5.09716 3.37813 4.78154 3.60313 4.53466C3.83125 4.28466 4.2 3.91279 4.42188 3.70654C4.64687 3.49716 4.99062 3.19404 5.1875 3.02841C5.38438 2.86591 5.66563 2.63779 5.8125 2.52529C5.95937 2.41279 6.29063 2.17841 6.54688 2.00341C6.98438 1.70966 7.00938 1.68779 6.9375 1.65966C6.89375 1.64404 6.79063 1.60029 6.70312 1.56279C6.61875 1.52529 6.4125 1.44716 6.25 1.38779C6.0875 1.32529 5.77187 1.22841 5.54688 1.17216C5.32188 1.11279 5.00625 1.04091 4.84375 1.01591C4.68125 0.987787 4.32812 0.959662 4.0625 0.953412C3.79688 0.947162 3.4875 0.953412 3.375 0.969037C3.2625 0.984662 3.05938 1.02841 2.92188 1.06279ZM11.2656 1.00341C11.1125 1.02216 10.775 1.09091 10.5156 1.15654C10.2594 1.22216 9.87813 1.33779 9.67188 1.41591C9.46562 1.49716 9.22812 1.59091 9.14062 1.62529L8.98438 1.69091C9.6875 2.15966 10.0312 2.40654 10.2031 2.53779C10.375 2.66904 10.6562 2.89404 10.8281 3.03779C11 3.18154 11.3375 3.48154 11.5781 3.70654C11.8188 3.93154 12.1938 4.30966 12.4125 4.55029C12.6281 4.78779 12.9031 5.09716 13.0156 5.23466C13.1313 5.37216 13.3625 5.66591 13.5312 5.89091C13.6969 6.11591 13.9437 6.45966 14.0719 6.65654L14.3094 7.01591C14.3875 6.82216 14.45 6.66591 14.5 6.54716C14.5469 6.42841 14.6438 6.14716 14.7156 5.92216C14.7875 5.69716 14.8781 5.35341 14.9219 5.15654C14.9625 4.95966 15.0125 4.64404 15.0344 4.45341C15.0563 4.24716 15.0625 3.95341 15.05 3.71904C15.0406 3.50341 15.0063 3.20966 14.9719 3.06279C14.9406 2.91591 14.8656 2.68466 14.8094 2.54716C14.7531 2.40966 14.6406 2.19716 14.5594 2.07841C14.4781 1.95966 14.3375 1.78779 14.2469 1.70029C14.1531 1.61279 13.9875 1.48154 13.875 1.40966C13.7625 1.33779 13.5656 1.23466 13.4375 1.18466C13.3094 1.13154 13.0844 1.05966 12.9375 1.02841C12.7594 0.987787 12.5094 0.962787 12.1875 0.953412C11.9219 0.947162 11.6687 0.947162 11.625 0.956537C11.5813 0.962787 11.4187 0.984662 11.2656 1.00341ZM6.85313 2.92841C6.65 3.06904 6.3 3.33154 6.07812 3.50966C5.85313 3.69091 5.6 3.90341 5.51562 3.98154L5.35938 4.12216C9.44063 4.12529 10.6188 4.11591 10.6125 4.10341C10.6062 4.08779 10.4344 3.93779 10.2312 3.76591C10.0281 3.59404 9.71875 3.34716 9.54688 3.21591C9.375 3.08466 9.0875 2.88154 8.90625 2.75966C8.725 2.64091 8.45938 2.46904 8.3125 2.38154C8.16562 2.29404 8.025 2.22216 8 2.21904C7.975 2.21904 7.7875 2.32216 7.5875 2.44716C7.38438 2.56904 7.05312 2.78779 6.85313 2.92841ZM4.7 4.76591C4.35625 5.10966 3.93438 5.55966 3.7625 5.76591C3.59063 5.97216 3.34375 6.28154 3.21563 6.45341C3.08438 6.62529 2.8375 6.97841 2.66875 7.23466C2.5 7.49404 2.325 7.77216 2.28125 7.85341L2.20312 8.00029C2.325 8.23154 2.525 8.54404 2.725 8.84404C2.925 9.14404 3.20625 9.54091 3.35 9.72216C3.49375 9.90654 3.76562 10.2378 3.95937 10.4565C4.15 10.6784 4.5375 11.0847 4.81875 11.3597L5.32812 11.8597C5.34062 8.85654 5.34063 7.11904 5.3375 6.06279L5.32812 4.14091L4.7 4.76591ZM10.7094 11.8159C10.7406 11.8003 11.025 11.5222 11.3438 11.1972C11.6594 10.8753 12.0625 10.4409 12.2344 10.2347C12.4062 10.0284 12.6531 9.71904 12.7844 9.54716C12.9156 9.37529 13.1594 9.02216 13.3313 8.76591C13.5 8.50654 13.675 8.22841 13.7188 8.14716L13.7969 8.00029C13.675 7.77216 13.5 7.49404 13.3313 7.23466C13.1594 6.97841 12.9156 6.62529 12.7844 6.45341C12.6531 6.28154 12.4062 5.97216 12.2344 5.76591C12.0625 5.55966 11.6594 5.12529 11.3438 4.80341C11.025 4.47841 10.7406 4.20029 10.7125 4.18466C10.6625 4.15654 10.6594 4.39716 10.6562 8.00029C10.6562 11.6503 10.6562 11.844 10.7094 11.8159ZM6.28125 6.40654H9.71875V5.06279H8.46875V5.71904H7.53125V5.06279H6.28125V6.40654ZM6.28125 8.65654H9.71875V7.34404H8.46875V8.00029H7.53125V7.34404H6.28125V8.65654ZM1.64375 9.11279C1.6125 9.18154 1.54688 9.33154 1.5 9.45341C1.45 9.57529 1.35312 9.85654 1.28125 10.0784C1.2125 10.3003 1.11875 10.6472 1.07812 10.844C1.0375 11.0409 0.984375 11.3597 0.965625 11.5472C0.94375 11.7534 0.9375 12.0472 0.946875 12.2815C0.959375 12.4972 0.99375 12.7909 1.025 12.9378C1.05937 13.0847 1.13125 13.3159 1.19062 13.4534C1.24687 13.5909 1.35938 13.8003 1.4375 13.9222C1.51875 14.044 1.66875 14.2159 1.76875 14.3097C1.86875 14.4034 2.0375 14.5347 2.14062 14.6003C2.24375 14.6659 2.43125 14.7659 2.5625 14.8159C2.69062 14.869 2.92188 14.944 3.07812 14.9784C3.30625 15.0315 3.4625 15.044 3.9375 15.044C4.34375 15.044 4.60625 15.0284 4.82812 14.9878C5 14.9597 5.28125 14.9003 5.45312 14.8565C5.625 14.8128 5.9125 14.7284 6.09375 14.6659C6.27187 14.6065 6.50625 14.5222 6.60938 14.4784C6.7125 14.4347 6.84062 14.3784 6.89687 14.3565L7 14.3128C6.28438 13.8222 5.9 13.544 5.6875 13.3753C5.47188 13.2065 5.13438 12.9315 4.9375 12.7628C4.74062 12.5909 4.35938 12.2347 4.09062 11.969C3.82187 11.7034 3.45 11.3065 3.2625 11.0909C3.075 10.8753 2.7875 10.5284 2.625 10.3159C2.45937 10.1065 2.18438 9.72216 2.0125 9.46279L1.69687 8.99404L1.64375 9.11279ZM13.4 10.2847C13.2562 10.4659 12.9875 10.7972 12.7969 11.019C12.6094 11.2409 12.2219 11.6534 11.9375 11.9378C11.6562 12.2222 11.2531 12.6003 11.0469 12.7753C10.8406 12.9534 10.5063 13.2284 10.3031 13.3847C10.1 13.5409 9.71875 13.8128 9.45938 13.9909L8.98438 14.3097C9.17813 14.3867 9.33958 14.4513 9.46875 14.5034C9.59688 14.5565 9.83125 14.6378 9.98438 14.6909C10.1406 14.7409 10.4 14.8159 10.5625 14.8565C10.725 14.9003 11 14.9565 11.1719 14.9878C11.3938 15.0253 11.6562 15.0409 12.0625 15.0409C12.5375 15.0409 12.6906 15.0284 12.9219 14.9784C13.0781 14.9409 13.3094 14.869 13.4375 14.8159C13.5656 14.7628 13.7625 14.6597 13.875 14.5878C13.9875 14.5159 14.1531 14.3847 14.2469 14.2972C14.3375 14.2097 14.4781 14.0409 14.5594 13.919C14.6406 13.8003 14.7531 13.5878 14.8094 13.4503C14.8687 13.3128 14.9406 13.0815 14.9719 12.9347C15.0063 12.7909 15.0406 12.494 15.05 12.2784C15.0625 12.0472 15.0563 11.7503 15.0344 11.544C15.0125 11.3565 14.9625 11.0409 14.9219 10.8409C14.8813 10.644 14.7875 10.3003 14.7156 10.0753C14.6469 9.85341 14.5312 9.52841 14.4625 9.35654C14.3937 9.18466 14.3281 9.03779 14.3156 9.02529C14.3031 9.01279 14.1531 9.21904 13.9781 9.47841C13.8031 9.73779 13.5437 10.1003 13.4 10.2847ZM6.28125 10.9347H9.71875V9.59091H8.46875V10.2784H7.53125V9.59091H6.28125V10.9347ZM5.51562 12.019C5.60313 12.0972 5.85 12.3034 6.06563 12.4784C6.28125 12.6534 6.6125 12.9034 6.8 13.0347C6.9875 13.1659 7.275 13.3565 7.4375 13.4597C7.6 13.5628 7.79375 13.6784 7.86875 13.7222L8 13.794C8.25313 13.6534 8.5125 13.494 8.73438 13.3503C8.95938 13.2034 9.29688 12.969 9.48438 12.8284C9.675 12.6878 10.0031 12.4253 10.2156 12.2472C10.4281 12.0659 10.6094 11.9097 10.6156 11.8972C10.6219 11.8847 9.44063 11.8753 7.99375 11.8753H5.35938L5.51562 12.019Z" fill="#ACB9CB"/>
</g>
<defs>
<clipPath id="clip0_544_4766">
<rect width="16" height="16" fill="white"/>
</clipPath>
</defs>
</svg>
