<svg width="16" height="16" viewBox="0 0 16 16" fill="none" xmlns="http://www.w3.org/2000/svg">
<g clip-path="url(#clip0_544_4782)">
<path fill-rule="evenodd" clip-rule="evenodd" d="M4.10938 0.975L15.6562 0.96875L15.7688 1.04062C15.8313 1.07812 15.9094 1.1625 15.9406 1.22812C15.9969 1.34062 16 1.55312 16 7.0625C16 12.7188 16 12.7812 15.9375 12.9062C15.8958 12.9896 15.8333 13.0521 15.75 13.0938C15.6313 13.1531 15.5625 13.1562 13.0938 13.1562L13.1094 13.2437C13.1187 13.2906 13.1344 13.4187 13.1469 13.5312C13.1562 13.6531 13.15 13.8031 13.125 13.9062C13.1031 14 13.0531 14.15 13.0094 14.2344C12.9656 14.3219 12.8813 14.4531 12.8188 14.5281C12.7531 14.6062 12.6406 14.7156 12.5625 14.7719C12.4844 14.8281 12.325 14.9094 11.9844 15.0312L5.14062 15.0156L3.71875 14.5531C2.5 14.1594 2.26875 14.0938 1.90625 14.0938V14.375C1.90625 14.5875 1.89062 14.6844 1.84687 14.775C1.81562 14.8375 1.7375 14.9219 1.675 14.9625C1.56875 15.0281 1.53125 15.0312 0.953125 15.0312C0.375 15.0312 0.3375 15.0281 0.23125 14.9625C0.16875 14.9219 0.090625 14.8375 0.059375 14.775C0.025 14.7094 0 14.6125 0 14.5625C0 14.5125 0.028125 14.4125 0.0625 14.3438C0.104167 14.2604 0.166667 14.1979 0.25 14.1562C0.35 14.1062 0.4375 14.0938 0.96875 14.0938V8.46875H0.671875C0.446875 8.46875 0.346875 8.45625 0.259375 8.40938C0.19375 8.37813 0.109375 8.3 0.071875 8.2375C0.028125 8.17188 0 8.075 0 8C0 7.925 0.028125 7.82812 0.071875 7.7625C0.109375 7.7 0.19375 7.62187 0.259375 7.59062C0.359375 7.5375 0.453125 7.53125 0.953125 7.53125C1.46875 7.53125 1.54375 7.5375 1.65625 7.59375C1.73958 7.63542 1.80208 7.69792 1.84375 7.78125C1.89375 7.87813 1.90625 7.96875 1.90625 8.46875H2.025C2.12188 8.46562 2.17188 8.4375 2.32812 8.29062C2.43125 8.19375 2.57812 8.07188 2.65625 8.02188C2.73438 7.96875 2.90313 7.87187 3.03125 7.80937C3.15937 7.74375 3.38125 7.65938 3.78125 7.54688V4.44688C3.78125 1.4875 3.78437 1.3375 3.84063 1.22812C3.87188 1.1625 3.94375 1.07812 4.00313 1.04062L4.10938 0.975ZM4.71875 7.56563C5.04688 7.64062 5.24062 7.70625 5.35938 7.75625C5.48125 7.80937 5.66875 7.90938 5.78125 7.98438C5.89375 8.05625 6.06875 8.19375 6.17188 8.29062L6.35938 8.46875C8.1875 8.47188 8.65312 8.48438 8.75937 8.50625C8.84687 8.525 9 8.57812 9.09375 8.62187C9.19375 8.66875 9.34688 8.78438 9.45312 8.89062C9.56563 9.00313 9.67812 9.15312 9.72812 9.25937C9.775 9.35938 9.82812 9.54062 9.85 9.66562C9.88125 9.84375 9.87813 9.9375 9.85 10.1125C9.825 10.2438 9.7625 10.4156 9.69375 10.5469C9.625 10.6719 9.5125 10.8219 9.41875 10.9062C9.33437 10.9844 9.18437 11.0875 9.09062 11.1313C9 11.175 8.84687 11.2281 8.75937 11.25C8.65312 11.2719 8.1625 11.2844 7.40625 11.2844H6.21875C6.24687 11.3938 6.3 11.4937 6.35625 11.5781C6.40937 11.6625 6.51875 11.7875 6.59688 11.8594C6.675 11.9281 6.80938 12.0219 6.89375 12.0625C6.97813 12.1031 7.11875 12.1562 7.20312 12.1781C7.32812 12.2125 8.13125 12.2188 11.2125 12.2219H15.0625V1.90937H11.75C11.75 4.75312 11.7469 4.81875 11.6875 4.94063C11.6458 5.02396 11.5833 5.08646 11.5 5.12813C11.3813 5.1875 11.3125 5.19063 9.875 5.19063C8.4375 5.19063 8.36875 5.1875 8.25 5.12813C8.16667 5.08646 8.10417 5.02396 8.0625 4.94063C8.00313 4.81875 8 4.75312 8 3.3625V1.90937H4.71875V7.56563ZM8.9375 4.25313H10.8125V1.90937H8.9375V4.25313ZM3.39062 8.67188C3.25938 8.73438 3.12188 8.84375 2.93125 9.0375C2.77813 9.19063 2.61562 9.33438 2.5625 9.3625C2.5 9.39375 2.375 9.40938 2.1875 9.40938H1.90625V13.1594C2.44688 13.1594 2.49375 13.1719 3.92188 13.6281L5.39062 14.0969C11.7812 14.0969 11.8469 14.0938 11.9688 14.0344C12.0521 13.9927 12.1146 13.9302 12.1562 13.8469C12.1906 13.7781 12.2188 13.6781 12.2188 13.6281C12.2188 13.575 12.1906 13.4781 12.1562 13.4094C12.1146 13.326 12.0521 13.2635 11.9688 13.2219C11.8469 13.1594 11.7812 13.1594 9.57812 13.1594C7.62813 13.1594 7.27813 13.15 7.07188 13.1094C6.9375 13.0813 6.74375 13.0219 6.64062 12.9812C6.5375 12.9375 6.375 12.8531 6.28125 12.7906C6.1875 12.7312 6.01875 12.5969 5.90938 12.4906C5.8 12.3844 5.65 12.2063 5.57812 12.0969C5.50625 11.9844 5.40937 11.8094 5.36562 11.7063C5.32188 11.6031 5.26562 11.4094 5.2375 11.275C5.20938 11.1437 5.1875 10.9625 5.1875 10.8781C5.1875 10.7844 5.2125 10.6719 5.25 10.5969C5.29167 10.5135 5.35417 10.451 5.4375 10.4094C5.55625 10.35 5.625 10.3469 7.0625 10.3469C8.5 10.3469 8.56875 10.3438 8.6875 10.2844C8.77083 10.2427 8.83333 10.1802 8.875 10.0969C8.90938 10.0281 8.9375 9.92813 8.9375 9.87813C8.9375 9.825 8.90938 9.72813 8.875 9.65938C8.83333 9.57604 8.77083 9.51354 8.6875 9.47188C8.56875 9.4125 8.5 9.40938 7.29688 9.40938C6.23438 9.40938 6.01562 9.4 5.9375 9.3625C5.8875 9.33438 5.72188 9.19063 5.57188 9.0375C5.36562 8.83125 5.24687 8.7375 5.09375 8.66562C4.98125 8.6125 4.80625 8.54688 4.70312 8.52188C4.59688 8.49375 4.39375 8.47188 4.23438 8.475C4.06875 8.475 3.875 8.49687 3.76562 8.52812C3.6625 8.55937 3.49375 8.62187 3.39062 8.67188Z" fill="#ACB9CB"/>
</g>
<defs>
<clipPath id="clip0_544_4782">
<rect width="16" height="16" fill="white"/>
</clipPath>
</defs>
</svg>
