<svg width="16" height="16" viewBox="0 0 16 16" fill="none" xmlns="http://www.w3.org/2000/svg">
<g clip-path="url(#clip0_545_4786)">
<path fill-rule="evenodd" clip-rule="evenodd" d="M1.34375 0.003125C1.50312 0 1.6375 0.01875 1.76562 0.0625C1.86875 0.1 2.01562 0.16875 2.09375 0.21875C2.17188 0.265625 2.29688 0.375 2.375 0.459375C2.45 0.540625 2.55625 0.7 2.60625 0.8125C2.6875 0.984375 2.70312 1.0625 2.7125 1.3125C2.72188 1.54062 2.7125 1.65 2.60938 1.97187L5.0625 4.375L5.36875 4.08437C5.53438 3.92812 5.77187 3.73125 5.89062 3.65313C6.0125 3.57188 6.21562 3.45312 6.34375 3.39062C6.47188 3.325 6.69688 3.23438 6.84375 3.1875C6.99062 3.1375 7.25625 3.07812 7.4375 3.05C7.61875 3.02187 7.87187 3 8 3C8.12813 3 8.36875 3.02187 8.53125 3.04688C8.69375 3.07188 8.93437 3.12188 9.0625 3.15625C9.19063 3.19375 9.43125 3.2875 9.59375 3.3625C9.75625 3.44062 9.9875 3.56875 10.1094 3.65C10.2312 3.72813 10.4656 3.92812 10.9344 4.39062L13.3906 1.97187L13.3313 1.79062C13.2875 1.65 13.2781 1.54062 13.2875 1.3125C13.2969 1.0625 13.3125 0.984375 13.3938 0.8125C13.4438 0.7 13.55 0.540625 13.625 0.459375C13.7031 0.375 13.8281 0.265625 13.9062 0.21875C13.9844 0.16875 14.1313 0.1 14.2344 0.065625C14.35 0.025 14.5063 0 14.6406 0C14.7875 0 14.9156 0.021875 15.0312 0.065625C15.125 0.103125 15.2562 0.159375 15.3219 0.190625C15.3844 0.221875 15.5094 0.321875 15.5938 0.40625C15.6812 0.49375 15.7875 0.6375 15.8313 0.728125C15.8781 0.815625 15.9344 0.953125 15.9563 1.03125C15.9812 1.10938 16 1.25937 16 1.36875C16 1.475 15.975 1.64375 15.9438 1.74375C15.9125 1.84062 15.85 1.98438 15.8062 2.0625C15.7625 2.14062 15.6469 2.27813 15.55 2.36875C15.4531 2.45625 15.2969 2.56562 15.2031 2.60938C15.1094 2.65313 14.9437 2.7 14.8375 2.71563C14.7281 2.73125 14.5625 2.73125 14.4688 2.71875C14.375 2.70625 14.2437 2.68125 14.0625 2.625L12.7594 3.9125C12.0406 4.62187 11.4563 5.21562 11.4594 5.23438C11.4625 5.25 11.5062 5.38438 11.5562 5.53125C11.6094 5.67812 11.675 5.90938 11.7063 6.04688C11.7438 6.22188 11.7594 6.43437 11.7625 6.76562C11.7625 7.10313 11.7469 7.30937 11.7063 7.5C11.675 7.64687 11.6281 7.81875 11.5625 8L14.0094 10.4844L14.2312 10.4094C14.4156 10.35 14.4937 10.3406 14.7031 10.3531C14.8438 10.3625 15.0281 10.3969 15.125 10.4344C15.2188 10.4688 15.375 10.5594 15.4688 10.6344C15.5625 10.7094 15.6906 10.8469 15.7531 10.9406C15.8156 11.0312 15.8969 11.2 15.9344 11.3125C15.975 11.4312 16 11.5969 16 11.7125C16 11.8187 15.975 11.9875 15.9438 12.0875C15.9125 12.1844 15.8438 12.3375 15.7906 12.4219C15.7375 12.5094 15.625 12.6406 15.5406 12.7188C15.4594 12.7937 15.3 12.9 15.1875 12.95C15.0219 13.0281 14.9312 13.0469 14.7031 13.0562C14.4688 13.0687 14.3875 13.0594 14.2031 12.9969C14.0813 12.9563 13.9062 12.8656 13.8125 12.7969C13.7188 12.725 13.5875 12.5906 13.525 12.4969C13.4594 12.4031 13.3781 12.2469 13.3438 12.15C13.3021 12.0292 13.2812 11.8885 13.2812 11.7281C13.2812 11.5938 13.3 11.4156 13.3719 11.1719L12.2563 10.0375C11.6438 9.41563 11.1344 8.90625 11.125 8.90625C11.1156 8.90625 11.075 8.95938 11.0312 9.02188C10.9875 9.0875 10.8469 9.25 10.7188 9.38437C10.5906 9.52187 10.4094 9.68437 10.3219 9.75313C10.2312 9.81875 10.1625 9.8875 10.1719 9.90625C10.1812 9.925 10.3375 10.0156 10.525 10.1156C10.7094 10.2125 10.9438 10.3469 11.0469 10.4187C11.15 10.4875 11.3156 10.6219 11.4187 10.7156C11.5188 10.8125 11.6625 10.975 11.7344 11.0781C11.8094 11.1812 11.9281 11.3844 11.9969 11.5312C12.0656 11.6781 12.1438 11.8813 12.1719 11.9844C12.1969 12.0875 12.2312 12.2906 12.2469 12.4375C12.2625 12.5844 12.2625 12.8156 12.25 12.9531C12.2375 13.0906 12.2 13.2937 12.1719 13.4062C12.1438 13.5188 12.075 13.7063 12.0188 13.8281C11.9625 13.95 11.6438 14.4875 10.7031 16H6.8125L6.10625 15.2406C5.71875 14.825 5.33125 14.3781 5.24687 14.25C5.1625 14.1219 5.05 13.9031 4.99687 13.7656C4.94375 13.6281 4.87813 13.4187 4.85313 13.2969C4.81875 13.1375 4.80938 12.9594 4.82188 12.6406C4.83437 12.325 4.85625 12.1438 4.90312 11.9844C4.9375 11.8625 5.02187 11.6531 5.09062 11.5156C5.15937 11.3781 5.28438 11.175 5.36875 11.0625C5.45312 10.95 5.60313 10.7844 5.70625 10.6938C5.80625 10.6 6.00625 10.4531 6.40625 10.2031L6.17812 10.0781C6.05312 10.0094 5.85313 9.88125 5.73438 9.79375C5.6125 9.70312 5.39688 9.50625 5.25313 9.35625C5.10938 9.20312 4.96875 9.04063 4.94063 8.99063C4.9125 8.94375 4.88438 8.90625 4.875 8.90625C4.86562 8.90625 4.35625 9.41562 2.62812 11.1719L2.675 11.3281C2.7 11.4156 2.71875 11.5938 2.71875 11.7281C2.71875 11.8885 2.69792 12.0281 2.65625 12.1469C2.62188 12.2469 2.54062 12.4031 2.475 12.4969C2.4125 12.5906 2.28125 12.725 2.1875 12.7969C2.09375 12.8656 1.91875 12.9563 1.79688 12.9969C1.6125 13.0594 1.53125 13.0687 1.29688 13.0562C1.06875 13.0469 0.978125 13.0281 0.8125 12.95C0.7 12.9 0.540625 12.7937 0.459375 12.7188C0.375 12.6406 0.265625 12.5156 0.215625 12.4375C0.165625 12.3594 0.09375 12.2063 0.05625 12.0938C0.003125 11.9281 -0.00625 11.8438 0.00625 11.6406C0.01875 11.4937 0.053125 11.3219 0.09375 11.2188C0.13125 11.125 0.2125 10.9781 0.275 10.8938C0.340625 10.8094 0.4625 10.6844 0.546875 10.6187C0.634375 10.5562 0.78125 10.4719 0.875 10.4344C0.975 10.3969 1.15 10.3625 1.29688 10.3531C1.50625 10.3406 1.58438 10.35 1.99063 10.4844L4.42188 8.025L4.35 7.7375C4.3125 7.58125 4.26562 7.325 4.24687 7.17188C4.22812 7.01875 4.21875 6.75313 4.23125 6.5875C4.24062 6.41875 4.27188 6.17188 4.3 6.04063C4.32812 5.90625 4.39062 5.67812 4.44375 5.53125C4.49375 5.38438 4.5375 5.25313 4.54063 5.23438C4.54375 5.21562 3.95937 4.62187 1.9375 2.625L1.82187 2.65937C1.75625 2.68125 1.625 2.70625 1.53125 2.71875C1.4375 2.73125 1.27188 2.73125 1.16562 2.71563C1.05625 2.7 0.8875 2.65 0.790625 2.60313C0.690625 2.55625 0.534375 2.44687 0.440625 2.3625C0.35 2.275 0.240625 2.14687 0.2 2.07812C0.159375 2.00938 0.1 1.86875 0.0625 1.76562C0.025 1.65625 0 1.5 0 1.39062C0 1.2875 0.01875 1.13437 0.04375 1.04688C0.065625 0.9625 0.115625 0.828125 0.15625 0.75C0.19375 0.671875 0.271875 0.553125 0.328125 0.484375C0.384375 0.415625 0.484375 0.321875 0.55 0.275C0.615625 0.228125 0.771875 0.146875 0.890625 0.096875C1.0625 0.025 1.15937 0.003125 1.34375 0.003125ZM1.00625 1.15625C0.96875 1.21563 0.9375 1.30313 0.9375 1.35312C0.9375 1.4 0.95625 1.48438 0.978125 1.54062C1 1.59375 1.0625 1.66875 1.1125 1.70625C1.1625 1.74375 1.24688 1.78125 1.29688 1.7875C1.35 1.79688 1.43438 1.79375 1.48438 1.77813C1.5375 1.76562 1.625 1.70312 1.68125 1.64375C1.76562 1.55 1.78125 1.50625 1.78125 1.38437C1.78125 1.29688 1.75937 1.19687 1.725 1.14062C1.69375 1.09063 1.61563 1.02188 1.55313 0.99375C1.49063 0.9625 1.40625 0.9375 1.36875 0.9375C1.32812 0.9375 1.24688 0.9625 1.1875 0.99375C1.12812 1.02188 1.04688 1.09687 1.00625 1.15625ZM14.2844 1.1375C14.2406 1.20208 14.2188 1.28437 14.2188 1.38437C14.2188 1.50625 14.2344 1.55 14.3219 1.64375C14.375 1.70312 14.4656 1.76562 14.5156 1.77813C14.5688 1.79375 14.6531 1.79688 14.7031 1.7875C14.7563 1.78125 14.8375 1.74375 14.8875 1.70625C14.9375 1.66875 15 1.59375 15.0219 1.54062C15.0438 1.48438 15.0625 1.4 15.0625 1.35312C15.0625 1.30313 15.0344 1.21875 15 1.16562C14.9656 1.10938 14.9062 1.04062 14.8687 1.01562C14.8281 0.990625 14.7406 0.959375 14.6719 0.953125C14.5875 0.940625 14.5156 0.953125 14.4469 0.990625C14.3937 1.01875 14.3219 1.0875 14.2844 1.1375ZM7.09375 4.09375C6.98125 4.13125 6.78438 4.21875 6.65625 4.2875C6.52812 4.35625 6.325 4.49062 6.20312 4.5875C6.08437 4.6875 5.90625 4.86562 5.80625 4.98438C5.70625 5.10625 5.55625 5.34375 5.46875 5.51562C5.38125 5.69063 5.28438 5.95 5.24375 6.10938C5.19063 6.325 5.175 6.48438 5.175 6.78125C5.175 7.08437 5.19062 7.23438 5.24687 7.45312C5.28437 7.60938 5.3625 7.83437 5.41875 7.95312C5.475 8.075 5.58125 8.2625 5.65625 8.375C5.73125 8.4875 5.88437 8.66875 5.99687 8.78125C6.10938 8.89375 6.26875 9.03125 6.35313 9.0875C6.43438 9.14062 6.51562 9.1875 6.53125 9.1875C6.55312 9.1875 6.5625 8.64375 6.5625 7.61875C6.5625 6.25938 6.56875 6.025 6.6125 5.875C6.64062 5.78125 6.69063 5.64687 6.72813 5.57812C6.7625 5.50938 6.85625 5.38438 6.93437 5.30312C7.0125 5.21875 7.15 5.10625 7.23438 5.05312C7.32188 5 7.48125 4.92812 7.59375 4.9C7.70625 4.86875 7.8625 4.84375 7.94688 4.84375C8.02812 4.84375 8.16875 4.85938 8.25937 4.87813C8.34687 4.9 8.5 4.95 8.59375 4.99375C8.69063 5.04063 8.84688 5.15625 8.95625 5.26562C9.0625 5.37187 9.18125 5.52812 9.225 5.625C9.27188 5.71875 9.32187 5.85938 9.34062 5.9375C9.3625 6.025 9.37187 6.65938 9.37187 7.64062C9.37187 8.5 9.38438 9.2125 9.39688 9.225C9.4125 9.2375 9.48438 9.20312 9.5625 9.15C9.64062 9.09687 9.775 8.99375 9.85938 8.92188C9.94687 8.85 10.0875 8.7 10.1781 8.59062C10.2656 8.48125 10.3969 8.29375 10.4656 8.17188C10.5375 8.05 10.6375 7.82812 10.6844 7.67188C10.7344 7.51875 10.7937 7.26562 10.8125 7.10938C10.8344 6.94688 10.8438 6.72813 10.8313 6.59375C10.8188 6.46562 10.7812 6.24062 10.7469 6.09375C10.7125 5.94063 10.6219 5.69688 10.5312 5.51562C10.4438 5.34375 10.2906 5.1 10.1875 4.97813C10.0844 4.85313 9.89062 4.66562 9.75937 4.55937C9.625 4.45312 9.39062 4.30625 9.23438 4.23125C9.08125 4.15625 8.84062 4.06562 8.70312 4.02812C8.55 3.99062 8.31563 3.95937 8.09375 3.95312C7.86562 3.94375 7.65312 3.95312 7.51562 3.98125C7.39687 4.00625 7.20625 4.05625 7.09375 4.09375ZM7.57188 6.00625L7.49687 6.10938L7.5 12.0312H6.5625C6.5625 11.35 6.55312 11.25 6.525 11.25C6.50313 11.2469 6.4 11.3312 6.29688 11.4312C6.19375 11.5344 6.05937 11.7 6 11.8C5.94063 11.9 5.8625 12.0594 5.83125 12.1562C5.79063 12.275 5.76562 12.4406 5.75625 12.6875C5.74687 13.0125 5.75312 13.0719 5.825 13.2969C5.87187 13.4344 5.95937 13.625 6.025 13.7219C6.0875 13.8188 6.38438 14.1594 6.68125 14.4812L7.21875 15.0625L10.1719 15.0656C10.8813 13.9375 11.1156 13.55 11.1531 13.4781C11.1875 13.4031 11.2406 13.2562 11.2688 13.15C11.3 13.0406 11.3219 12.8344 11.3219 12.6875C11.3219 12.5281 11.3 12.3469 11.2656 12.2344C11.2375 12.1313 11.1781 11.9781 11.1344 11.8906C11.0906 11.8062 11 11.6594 10.9344 11.5719C10.8687 11.4812 10.7313 11.3469 10.6313 11.275C10.5344 11.2 10 10.8938 9.44375 10.5938L8.4375 10.0469C8.4375 6.21875 8.43437 6.15312 8.375 6.03125C8.33333 5.94792 8.27083 5.88542 8.1875 5.84375C8.11875 5.80937 8.01562 5.78125 7.9625 5.78125C7.90625 5.78125 7.8125 5.80937 7.75313 5.84062C7.69375 5.87187 7.6125 5.94688 7.57188 6.00625ZM1 11.5094C0.965625 11.5625 0.9375 11.6469 0.9375 11.6969C0.9375 11.7437 0.959375 11.8313 0.984375 11.8906C1.00937 11.95 1.07812 12.0281 1.13437 12.0656C1.2125 12.1156 1.27188 12.125 1.40625 12.1156C1.55625 12.1031 1.59062 12.0875 1.68125 11.9875C1.76562 11.8938 1.78125 11.85 1.78125 11.7281C1.78125 11.6344 1.75937 11.5406 1.71875 11.4781C1.68438 11.4219 1.60625 11.3531 1.54688 11.3281C1.4875 11.3031 1.4 11.2812 1.35312 11.2812C1.30313 11.2812 1.21875 11.3094 1.16562 11.3438C1.10938 11.3781 1.03437 11.4531 1 11.5094ZM14.2875 11.475C14.2406 11.5469 14.2188 11.625 14.2188 11.7344C14.2219 11.8719 14.2344 11.9031 14.3375 12.0063C14.4406 12.1094 14.4719 12.1219 14.6094 12.125C14.7063 12.125 14.8 12.1031 14.8594 12.0688C14.9125 12.0375 14.9781 11.9594 15.0094 11.8969C15.0375 11.8344 15.0625 11.7437 15.0625 11.6969C15.0625 11.6469 15.0344 11.5625 15 11.5094C14.9656 11.4531 14.8906 11.3781 14.8375 11.3438C14.7812 11.3094 14.6938 11.2812 14.6406 11.2812C14.5906 11.2844 14.5031 11.3031 14.45 11.3281C14.4 11.3531 14.325 11.4188 14.2875 11.475Z" fill="#ACB9CB"/>
</g>
<defs>
<clipPath id="clip0_545_4786">
<rect width="16" height="16" fill="white"/>
</clipPath>
</defs>
</svg>
