<svg width="16" height="16" viewBox="0 0 16 16" fill="none" xmlns="http://www.w3.org/2000/svg">
<g clip-path="url(#clip0_545_4789)">
<path fill-rule="evenodd" clip-rule="evenodd" d="M3.06255 0.003125C3.24692 0 3.3813 0.015625 3.50005 0.05625C3.5938 0.090625 3.72817 0.14375 3.79692 0.178125C3.86567 0.2125 4.0063 0.31875 4.10942 0.4125C4.21567 0.509375 4.34067 0.665625 4.39692 0.76875C4.45005 0.86875 4.5188 1.0375 4.5438 1.14062C4.57192 1.24375 4.5938 1.4125 4.5938 1.51562C4.5938 1.61875 4.57192 1.7875 4.5438 1.89062C4.5188 1.99375 4.45942 2.15 4.41255 2.23438C4.36567 2.31875 4.2438 2.475 4.14067 2.58125C4.02192 2.70312 3.87817 2.80625 3.75005 2.86875C3.63755 2.92188 3.44067 2.98438 3.31255 3.00312C3.12505 3.03437 3.0313 3.03437 2.8438 3C2.71567 2.97813 2.5188 2.9125 2.4063 2.85625C2.27192 2.7875 2.13442 2.68438 2.00005 2.54063C1.8688 2.40625 1.7688 2.2625 1.64067 1.96875H0.937545L0.94692 3.57188C0.956295 5.05625 0.962545 5.19375 1.02192 5.45312C1.05942 5.60625 1.1313 5.8625 1.18755 6.01562C1.24067 6.16875 1.3438 6.40312 1.41255 6.53125C1.4813 6.65938 1.60317 6.8625 1.6813 6.98438C1.76255 7.10313 1.96255 7.34062 2.12505 7.5125C2.28755 7.68125 2.54692 7.9125 2.70317 8.02188C2.85942 8.13125 3.12505 8.29062 3.29692 8.375C3.4688 8.45938 3.71567 8.5625 3.8438 8.60312C3.97192 8.64687 4.19692 8.70625 4.3438 8.7375C4.54067 8.78125 4.74692 8.79375 5.14067 8.79688C5.53442 8.79688 5.74067 8.78125 5.93755 8.74063C6.08442 8.70938 6.31567 8.64687 6.45317 8.60312C6.59067 8.55937 6.82192 8.46563 6.9688 8.39688C7.11567 8.325 7.35317 8.1875 7.50005 8.09062C7.64692 7.99062 7.87817 7.80938 8.01255 7.68125C8.15005 7.55625 8.34692 7.34062 8.45005 7.20312C8.5563 7.06563 8.67817 6.89687 8.72192 6.82812C8.7688 6.75938 8.8563 6.59688 8.92192 6.46875C8.98755 6.34062 9.08442 6.09375 9.1438 5.92188C9.20005 5.75 9.27192 5.475 9.30317 5.3125C9.35005 5.05625 9.3563 4.80937 9.35942 1.98438L8.64067 1.96563L8.54067 2.1625C8.48755 2.27187 8.3813 2.43125 8.3063 2.51562C8.22817 2.60313 8.09692 2.71562 8.01255 2.77187C7.92817 2.82812 7.77505 2.9 7.67192 2.9375C7.5688 2.97187 7.3938 3.00937 7.2813 3.01875C7.1438 3.03125 7.0063 3.02187 6.85942 2.98438C6.74067 2.95625 6.56255 2.89375 6.4688 2.84375C6.37505 2.79375 6.21567 2.67188 6.11567 2.57188C5.9938 2.45312 5.89692 2.31562 5.82817 2.17188C5.7688 2.05 5.7063 1.85625 5.68755 1.73438C5.66255 1.575 5.66255 1.45625 5.68755 1.29688C5.7063 1.17813 5.75942 0.99375 5.80942 0.890625C5.8563 0.7875 5.95317 0.634375 6.02192 0.546875C6.08755 0.4625 6.22192 0.3375 6.31567 0.275C6.40942 0.2125 6.58442 0.125 6.70317 0.08125C6.8688 0.01875 6.9813 0 7.17192 0C7.33442 0 7.4813 0.01875 7.5938 0.05625C7.68755 0.090625 7.82817 0.146875 7.9063 0.1875C7.98442 0.228125 8.1313 0.34375 8.23755 0.45C8.35005 0.565625 8.46255 0.715625 8.60942 1.025L9.2813 1.03437C9.8938 1.04688 9.96255 1.05312 10.0625 1.1125C10.1219 1.14687 10.2 1.225 10.2344 1.28437C10.2938 1.3875 10.2969 1.44687 10.2969 3.23438C10.2969 4.98438 10.2907 5.09688 10.2282 5.45312C10.1907 5.65938 10.1125 5.98125 10.05 6.17188C9.99067 6.3625 9.85317 6.69063 9.7438 6.90625C9.63442 7.12187 9.46255 7.41563 9.35942 7.5625C9.2563 7.70625 9.02505 7.97812 8.8438 8.16562C8.66255 8.35312 8.40317 8.59063 8.26567 8.69375C8.12817 8.8 7.8813 8.9625 7.7188 9.05625C7.5563 9.15312 7.27505 9.29063 7.0938 9.36563C6.91255 9.44063 6.60317 9.54062 6.4063 9.59062C6.20942 9.64062 5.95317 9.69063 5.62505 9.71875L5.64067 12.2344L5.73755 12.4375C5.7938 12.55 5.9063 12.7094 5.98755 12.7937C6.07505 12.8844 6.22817 12.9875 6.54692 13.1406H8.60317L8.6938 12.7969L8.53755 12.4688C8.45005 12.2875 8.34692 12.0125 8.30942 11.8594C8.2438 11.6156 8.23442 11.5031 8.23442 11.0312C8.23442 10.4937 8.23755 10.4781 8.33755 10.1875C8.3938 10.025 8.50005 9.79375 8.5688 9.67188C8.64067 9.55 8.80005 9.35625 8.92192 9.23438C9.04067 9.1125 9.2313 8.9625 9.3438 8.89688C9.4563 8.83125 9.65942 8.74062 9.79692 8.69687C10.0188 8.62187 10.0938 8.6125 10.4532 8.6125C10.8063 8.61563 10.8907 8.625 11.1094 8.69687C11.2469 8.74375 11.45 8.83125 11.5594 8.89688C11.6688 8.9625 11.8344 9.08125 12.0938 9.3125L12.3063 9.1375C12.4219 9.04375 12.6438 8.90312 12.7969 8.82812C12.9688 8.74375 13.1813 8.67188 13.3438 8.6375C13.5344 8.6 13.6875 8.59062 13.8907 8.60312C14.05 8.6125 14.275 8.65313 14.4063 8.69375C14.5344 8.73438 14.7375 8.82187 14.8594 8.89062C14.9969 8.96562 15.1688 9.10312 15.3282 9.2625C15.4657 9.40312 15.6313 9.60625 15.6969 9.71875C15.7625 9.83125 15.85 10.0344 15.8938 10.1719C15.9438 10.3281 15.9782 10.5312 15.9907 10.7188C16.0032 10.9219 15.9907 11.1281 15.9532 11.375C15.925 11.5719 15.8532 11.8813 15.7938 12.0625C15.7344 12.2437 15.6063 12.5375 15.5125 12.7188C15.4188 12.9 15.25 13.175 15.1407 13.3281C15.0282 13.4812 14.825 13.7375 14.6844 13.8906C14.5438 14.0437 14.3063 14.2812 14.1594 14.4156C14.0125 14.5531 13.7375 14.7781 13.5469 14.9219C13.3563 15.0625 13.0625 15.2688 12.8907 15.375C12.7188 15.4812 12.4969 15.6094 12.4 15.6594C12.2907 15.7156 12.1688 15.75 12.0938 15.75C12.025 15.75 11.9094 15.775 11.8375 15.8094C11.7625 15.8406 11.5938 15.8969 11.4625 15.9344C11.2907 15.9812 11.1282 16 10.9157 16C10.6782 16 10.5469 15.9844 10.3282 15.9219C10.175 15.875 9.95942 15.7938 9.85005 15.7406C9.7438 15.6844 9.56567 15.5719 9.45942 15.4875C9.35317 15.4031 9.20317 15.2625 9.12817 15.175C9.05317 15.0875 8.94067 14.9312 8.87817 14.8281C8.81567 14.725 8.72192 14.5188 8.57817 14.0906L7.57817 14.0938C6.6688 14.0938 6.5563 14.0875 6.32817 14.0312C6.19067 13.9937 5.96567 13.9062 5.82817 13.8344C5.6438 13.7406 5.50942 13.6375 5.32192 13.4469C5.10942 13.2375 5.03755 13.1344 4.92192 12.9C4.8438 12.7406 4.75942 12.5125 4.73442 12.3906C4.70005 12.2219 4.68755 11.9 4.68755 9.73438L4.41567 9.69687C4.26255 9.675 4.02817 9.62813 3.89067 9.59062C3.75317 9.55625 3.5563 9.49687 3.45317 9.4625C3.35005 9.42812 3.1188 9.33125 2.93755 9.24375C2.7563 9.15937 2.49692 9.01562 2.35942 8.925C2.22192 8.83438 1.98442 8.65625 1.82817 8.52812C1.67505 8.4 1.43755 8.16875 1.30317 8.01562C1.1688 7.8625 0.97192 7.60625 0.868795 7.45312C0.76567 7.3 0.606295 7.01875 0.51567 6.82812C0.425045 6.6375 0.31567 6.37187 0.268795 6.23438C0.225045 6.09688 0.162545 5.86562 0.12817 5.71875C0.0937953 5.57188 0.0500453 5.3 0.0312953 5.10938C0.00942031 4.89062 4.53126e-05 4.14375 0.00629531 3.05625C0.0156703 1.37188 0.0156703 1.34687 0.0812953 1.25937C0.118795 1.2125 0.187545 1.14375 0.231295 1.10938C0.30942 1.05313 0.37192 1.04688 1.6563 1.03125L1.72192 0.884375C1.7563 0.8 1.83755 0.665625 1.90005 0.58125C1.96255 0.496875 2.10005 0.36875 2.20317 0.296875C2.3063 0.225 2.44692 0.146875 2.51567 0.11875C2.58442 0.090625 2.67505 0.05625 2.7188 0.0375C2.76255 0.01875 2.91567 0.003125 3.06255 0.003125ZM2.6938 1.10312C2.65317 1.14062 2.59692 1.21563 2.57192 1.26562C2.5438 1.31562 2.52192 1.43125 2.52192 1.51562C2.52192 1.6 2.5438 1.71563 2.5688 1.76562C2.59692 1.81562 2.6563 1.89375 2.7063 1.9375C2.7563 1.98125 2.85317 2.0375 2.92192 2.05938C2.99692 2.08438 3.09692 2.09375 3.17192 2.08125C3.24067 2.06875 3.34692 2.02813 3.4063 1.9875C3.46567 1.95 3.54692 1.85625 3.58442 1.77813C3.62505 1.70312 3.6563 1.58438 3.6563 1.51562C3.6563 1.44687 3.62817 1.33438 3.59692 1.26562C3.56567 1.19687 3.51255 1.11563 3.4813 1.0875C3.45005 1.05937 3.3688 1.0125 3.3063 0.9875C3.24067 0.959375 3.14067 0.9375 3.08755 0.9375C3.0313 0.940625 2.93442 0.9625 2.87505 0.9875C2.81567 1.0125 2.7313 1.06562 2.6938 1.10312ZM6.80317 1.0875C6.75317 1.13437 6.6938 1.20625 6.67192 1.25C6.65005 1.29375 6.62192 1.37188 6.61255 1.42188C6.60005 1.47187 6.60317 1.575 6.62192 1.65C6.64067 1.72187 6.70317 1.83125 6.75942 1.89375C6.81255 1.95312 6.91567 2.025 6.98442 2.05312C7.0688 2.08437 7.15317 2.09375 7.25005 2.08125C7.32817 2.06875 7.4438 2.02187 7.50942 1.975C7.57505 1.92813 7.6563 1.83438 7.69067 1.76562C7.72192 1.69687 7.75005 1.58438 7.75005 1.51562C7.75005 1.44687 7.7188 1.32812 7.67817 1.25312C7.63755 1.16875 7.55942 1.08125 7.48442 1.03437C7.40942 0.984375 7.3063 0.953125 7.2188 0.946875C7.14067 0.94375 7.03755 0.953125 6.98442 0.96875C6.93442 0.9875 6.85005 1.0375 6.80317 1.0875ZM9.88442 9.66562C9.82817 9.69687 9.71567 9.77813 9.63755 9.85C9.5563 9.925 9.45317 10.0406 9.4063 10.1094C9.3563 10.1781 9.2813 10.3438 9.23755 10.475C9.17192 10.675 9.1563 10.7781 9.1563 11.0375C9.1563 11.2313 9.17817 11.4563 9.21255 11.5969C9.24067 11.7281 9.27505 11.8438 9.29067 11.8562C9.30317 11.8656 9.40005 11.8125 9.50942 11.7375C9.61567 11.6594 9.80942 11.55 9.93755 11.4906C10.0657 11.4313 10.2844 11.3562 10.4219 11.3281C10.6094 11.2875 10.7594 11.275 11.0313 11.2875C11.3125 11.3 11.4438 11.3219 11.6407 11.3875C11.7782 11.4344 11.9875 11.5312 12.1094 11.6031C12.2313 11.675 12.4188 11.8188 12.5282 11.9219C12.6375 12.025 12.7938 12.2063 12.8719 12.3281C12.9532 12.45 13.0563 12.6406 13.1032 12.7563C13.15 12.875 13.2094 13.0906 13.2344 13.2406C13.2625 13.3938 13.2813 13.6031 13.275 13.7094C13.2688 13.8156 13.2719 13.9094 13.2813 13.9187C13.2907 13.9281 13.4375 13.8063 13.6094 13.6469C13.7813 13.4844 14.0157 13.2437 14.1282 13.1062C14.2407 12.9719 14.3907 12.775 14.4594 12.6719C14.5282 12.5688 14.6407 12.3719 14.7094 12.2344C14.7782 12.0969 14.8657 11.8969 14.9032 11.7875C14.9375 11.6813 14.9907 11.4625 15.0188 11.3031C15.05 11.125 15.0625 10.9281 15.0532 10.7812C15.0438 10.6531 15.0063 10.4688 14.9719 10.375C14.9344 10.2812 14.8563 10.1375 14.7969 10.0531C14.7375 9.97188 14.6219 9.85625 14.5407 9.79688C14.4563 9.7375 14.3125 9.65625 14.2188 9.61875C14.0844 9.56562 13.9813 9.55 13.75 9.55C13.4782 9.54688 13.4375 9.55625 13.2438 9.64688C13.125 9.70312 12.9532 9.825 12.8594 9.9125C12.7563 10.0094 12.6407 10.1625 12.5782 10.2812C12.5219 10.3938 12.4375 10.5188 12.3907 10.5625C12.325 10.6219 12.2688 10.6437 12.1313 10.65C11.9938 10.6562 11.9313 10.6438 11.8532 10.5969C11.7875 10.5531 11.7125 10.4563 11.6438 10.3188C11.5844 10.2031 11.4813 10.0469 11.4125 9.96875C11.3438 9.89062 11.2125 9.78437 11.1219 9.72812C11.0282 9.67188 10.8688 9.60625 10.7657 9.57812C10.6625 9.55313 10.5094 9.53125 10.4219 9.53438C10.3375 9.53438 10.2032 9.55312 10.125 9.575C10.0469 9.59688 9.93755 9.6375 9.88442 9.66562ZM10.1875 12.4094C10.1094 12.4563 9.97192 12.575 9.87817 12.675C9.78755 12.7781 9.6688 12.95 9.61567 13.0625C9.53755 13.2312 9.51567 13.3156 9.5063 13.5469C9.49692 13.7563 9.5063 13.8813 9.55005 14.0312C9.5813 14.1438 9.6563 14.3125 9.7188 14.4062C9.7813 14.5 9.8938 14.6312 9.97192 14.6969C10.0469 14.7656 10.1875 14.8562 10.2813 14.9062C10.375 14.9531 10.5282 15.0094 10.6188 15.0281C10.7063 15.0469 10.8469 15.0625 10.9313 15.0625C11.0125 15.0625 11.1625 15.0406 11.2657 15.0125C11.3688 14.9875 11.525 14.925 11.6094 14.875C11.6969 14.8281 11.8438 14.7063 11.9375 14.6062C12.0344 14.5031 12.15 14.3406 12.1969 14.2406C12.2438 14.1438 12.2969 13.9531 12.3188 13.8188C12.3469 13.6156 12.3469 13.5406 12.3032 13.3438C12.2719 13.2031 12.2063 13.0344 12.1375 12.9219C12.0782 12.8188 11.9907 12.6938 11.9438 12.6469C11.8969 12.5969 11.7907 12.5125 11.7032 12.4531C11.6188 12.3969 11.4594 12.3219 11.3532 12.2844C11.2157 12.2375 11.0813 12.2188 10.9 12.2188C10.7375 12.2219 10.5813 12.2406 10.4844 12.275C10.4 12.3031 10.2657 12.3656 10.1875 12.4094ZM12.1563 0.003125C12.3063 0 12.5594 0.028125 12.7344 0.0625C12.9063 0.1 13.175 0.16875 13.3282 0.221875C13.4844 0.275 13.7282 0.38125 13.875 0.459375C14.0219 0.5375 14.225 0.6625 14.3282 0.734375C14.4313 0.809375 14.6125 0.959375 14.7313 1.06875C14.85 1.175 15.0344 1.37812 15.1407 1.51562C15.2469 1.65313 15.3844 1.85 15.4469 1.95312C15.5063 2.05625 15.6032 2.2375 15.6563 2.35938C15.7094 2.47813 15.7813 2.66875 15.8157 2.78125C15.8469 2.89375 15.9032 3.11875 15.9375 3.28125C15.9719 3.44375 16 3.69375 16 3.83437C16 4.05 15.9875 4.1125 15.9313 4.20625C15.8907 4.26875 15.8063 4.34688 15.7438 4.37813C15.6782 4.4125 15.5813 4.4375 15.5313 4.4375C15.4813 4.4375 15.3813 4.40938 15.3125 4.375C15.2313 4.33437 15.1657 4.27187 15.1282 4.19375C15.0907 4.11875 15.0657 3.97187 15.05 3.78125C15.0407 3.61875 15.0094 3.39687 14.9844 3.2875C14.9594 3.18125 14.8938 2.97812 14.8375 2.83437C14.7813 2.69375 14.6594 2.45937 14.5625 2.3125C14.4657 2.16563 14.2813 1.94375 14.1532 1.81875C14.025 1.69375 13.825 1.525 13.7032 1.44375C13.5813 1.36563 13.3782 1.25312 13.25 1.19687C13.1219 1.14062 12.9032 1.06562 12.7657 1.03125C12.6282 0.996875 12.3813 0.959375 12.2188 0.95C11.9969 0.9375 11.8907 0.915625 11.8 0.865625C11.7344 0.828125 11.6532 0.746875 11.6219 0.6875C11.5875 0.628125 11.5625 0.53125 11.5625 0.475C11.5625 0.421875 11.5875 0.321875 11.6188 0.259375C11.6469 0.196875 11.7219 0.1125 11.7813 0.075C11.8719 0.015625 11.9344 0.003125 12.1563 0.003125ZM12.2032 1.72812C12.4407 1.7375 12.575 1.7625 12.7657 1.83125C12.9032 1.88125 13.1 1.97187 13.2 2.03125C13.3032 2.09063 13.4938 2.24688 13.6219 2.37812C13.7532 2.50625 13.9094 2.69687 13.9688 2.8C14.0282 2.9 14.1188 3.09687 14.1688 3.23438C14.2375 3.425 14.2625 3.55938 14.2719 3.79688C14.2875 4.0875 14.2813 4.11562 14.2125 4.21875C14.1719 4.27812 14.0907 4.35313 14.0313 4.38438C13.9532 4.425 13.8813 4.4375 13.7813 4.425C13.7032 4.41563 13.6063 4.38438 13.5625 4.35C13.5188 4.31875 13.4594 4.25 13.4313 4.2C13.4 4.15 13.3625 3.99688 13.3469 3.85938C13.3282 3.70937 13.2844 3.53437 13.2344 3.42188C13.1844 3.30938 13.0782 3.1625 12.975 3.05312C12.8657 2.94375 12.7219 2.83438 12.6094 2.77813C12.4844 2.71771 12.3334 2.67708 12.1563 2.65625C12.0094 2.6375 11.85 2.6 11.8 2.56875C11.75 2.54062 11.6813 2.48125 11.65 2.4375C11.6157 2.39375 11.5844 2.29688 11.575 2.21875C11.5625 2.11875 11.575 2.04688 11.6157 1.96875C11.6469 1.90937 11.7219 1.82812 11.7813 1.7875C11.8844 1.71875 11.9125 1.7125 12.2032 1.72812ZM12.0625 3.50938C12.1407 3.51562 12.2469 3.54688 12.2969 3.58437C12.3469 3.61875 12.4157 3.70312 12.45 3.76875C12.4907 3.85625 12.5032 3.92812 12.4907 4.01562C12.4782 4.08437 12.4438 4.175 12.4125 4.21875C12.3782 4.2625 12.3188 4.32188 12.2782 4.35313C12.2375 4.38125 12.1532 4.41563 12.0938 4.42812C12.0157 4.44062 11.9438 4.42812 11.8438 4.38125C11.7438 4.33437 11.6813 4.27813 11.6282 4.18125C11.5719 4.08125 11.5563 4.01562 11.5688 3.92188C11.575 3.85313 11.6157 3.75 11.6532 3.69062C11.6938 3.63437 11.7688 3.56562 11.825 3.54375C11.8782 3.51875 11.9844 3.50313 12.0625 3.50938ZM10.8844 13.1594C10.9469 13.1562 11.05 13.1813 11.1125 13.2094C11.175 13.2406 11.2532 13.3094 11.2844 13.3594C11.3188 13.4156 11.3407 13.5125 11.3438 13.6094C11.3438 13.7125 11.3219 13.8 11.2813 13.8656C11.2469 13.9219 11.1719 13.9906 11.1188 14.0219C11.0625 14.05 10.9594 14.0719 10.8907 14.0719C10.8219 14.0719 10.7188 14.05 10.6657 14.0219C10.6094 13.9906 10.5344 13.9219 10.5 13.8656C10.4584 13.799 10.4375 13.7104 10.4375 13.6C10.4375 13.4656 10.4532 13.4187 10.5313 13.325C10.5844 13.2625 10.6563 13.2 10.6969 13.1875C10.7344 13.1719 10.8188 13.1594 10.8844 13.1594Z" fill="#ACB9CB"/>
</g>
<defs>
<clipPath id="clip0_545_4789">
<rect width="16" height="16" fill="white"/>
</clipPath>
</defs>
</svg>
