<svg width="16" height="16" viewBox="0 0 16 16" fill="none" xmlns="http://www.w3.org/2000/svg">
<g clip-path="url(#clip0_545_4795)">
<path fill-rule="evenodd" clip-rule="evenodd" d="M13.8592 0.00273748C14.3998 -0.000387524 14.4248 0.00273747 14.5311 0.0714875C14.5904 0.112112 14.6654 0.196487 14.6967 0.258987C14.7248 0.324612 14.7498 0.437112 14.7498 0.655862H15.1873C15.5623 0.655862 15.6436 0.665237 15.7498 0.718362C15.8332 0.760029 15.8957 0.822529 15.9373 0.905862C15.9717 0.974612 15.9998 1.07461 15.9998 1.12461C15.9998 1.17461 15.9717 1.27461 15.9373 1.34336C15.8957 1.4267 15.8332 1.4892 15.7498 1.53086C15.6436 1.58399 15.5623 1.59336 14.7498 1.59336V2.53086H15.1873C15.5623 2.53086 15.6436 2.54024 15.7498 2.59336C15.8332 2.63503 15.8957 2.69753 15.9373 2.78086C15.9717 2.84961 15.9998 2.94649 15.9998 2.99961C15.9998 3.05274 15.9717 3.14961 15.9373 3.21836C15.8957 3.3017 15.8332 3.3642 15.7498 3.40586C15.6436 3.45899 15.5623 3.46836 14.7498 3.46836V3.61836C14.7498 3.70274 14.7248 3.81211 14.6904 3.87461C14.6592 3.93399 14.5779 4.01524 14.5123 4.05586C14.3936 4.12461 14.3686 4.12774 13.8123 4.11524C13.2873 4.10586 13.2123 4.09649 12.9998 4.02461C12.8717 3.98086 12.6748 3.89024 12.5623 3.82461C12.4498 3.75899 12.2748 3.62149 12.1717 3.51524C12.0686 3.41211 11.9311 3.24336 11.8686 3.14024C11.8061 3.03711 11.7217 2.85899 11.6092 2.53086L1.98419 2.54649L1.74044 2.66524C1.59982 2.73086 1.43732 2.84336 1.34982 2.93086C1.26544 3.01211 1.15294 3.16524 1.09982 3.27461C1.04357 3.38086 0.984193 3.56211 0.962318 3.68086C0.934193 3.84336 0.934193 3.94024 0.962318 4.10899C0.981068 4.22774 1.04044 4.41211 1.09044 4.51524C1.14044 4.61836 1.25919 4.77774 1.34982 4.86836C1.44044 4.95899 1.59982 5.07461 1.70294 5.12461C1.80607 5.17774 1.96857 5.23086 2.06232 5.24961C2.15607 5.26836 2.49357 5.28086 3.39044 5.28399L3.53107 5.07149C3.60919 4.95586 3.76544 4.76836 3.87794 4.65586C3.99357 4.54336 4.16232 4.40586 4.25294 4.35274C4.34669 4.29649 4.51232 4.21211 4.62482 4.16836C4.73732 4.12149 4.93419 4.06524 5.06232 4.04336C5.25607 4.00586 5.79669 3.99961 8.10919 4.00586C10.6717 4.01524 10.9373 4.02149 11.1092 4.07149C11.2123 4.09961 11.4092 4.18086 11.5467 4.24961C11.6842 4.31524 11.8779 4.44024 11.9748 4.52149C12.0717 4.60274 12.2154 4.74961 12.2904 4.84336C12.3686 4.93711 12.8498 5.70274 14.2967 8.06524L14.4842 8.14336C14.5873 8.18711 14.7623 8.28399 14.8748 8.35586C14.9873 8.43086 15.1748 8.59649 15.2967 8.72461C15.4342 8.86836 15.5654 9.04961 15.6467 9.20586C15.7154 9.34024 15.8061 9.54961 15.8467 9.67149C15.9186 9.88711 15.9186 9.91836 15.9311 11.4215C15.9373 12.509 15.9311 13.0059 15.9061 13.1402C15.8842 13.2434 15.8248 13.4121 15.7717 13.5152C15.7186 13.6184 15.6092 13.7684 15.3748 13.9996V14.4621C15.3748 14.8277 15.3623 14.9621 15.3154 15.1246C15.2811 15.2371 15.2029 15.3965 15.1373 15.484C15.0717 15.5715 14.9904 15.6652 14.9561 15.6934C14.9186 15.7246 14.8404 15.7809 14.7811 15.8184C14.7217 15.8559 14.5998 15.9121 14.5154 15.9434C14.3779 15.9934 14.2467 15.9996 13.4529 15.9996C12.5561 15.9996 12.5436 15.9996 12.3436 15.9215C12.2311 15.8777 12.0904 15.8027 12.0311 15.7559C11.9717 15.709 11.8842 15.6277 11.8373 15.5777C11.7873 15.5277 11.7029 15.3934 11.6467 15.2809C11.5529 15.0871 11.5467 15.0559 11.5311 14.2809H4.46857V14.6027C4.46857 14.8309 4.45294 14.9777 4.40919 15.1246C4.37482 15.2402 4.29357 15.3996 4.21857 15.4996C4.14982 15.5934 4.01857 15.7215 3.92794 15.7809C3.84044 15.8434 3.69044 15.9152 3.59982 15.9465C3.46232 15.9902 3.30294 15.9996 2.53732 15.9996C1.64982 15.9996 1.63732 15.9996 1.43732 15.9215C1.32482 15.8777 1.18419 15.8027 1.12482 15.7559C1.06544 15.709 0.977943 15.6277 0.931068 15.5777C0.881068 15.5277 0.796693 15.3934 0.740443 15.2809C0.640443 15.0809 0.640443 15.0777 0.624818 13.9996L0.474818 13.8527C0.390443 13.7684 0.281068 13.6184 0.227943 13.5152C0.174818 13.4121 0.115443 13.2496 0.0935677 13.1559C0.0685677 13.0309 0.0591927 12.5621 0.0685677 11.4371C0.0810677 9.91836 0.0810677 9.88711 0.152943 9.67149C0.193568 9.54961 0.284193 9.34024 0.352943 9.20586C0.434193 9.04961 0.568568 8.86836 0.702943 8.72461C0.821693 8.59649 1.02794 8.42149 1.15607 8.34024C1.28419 8.25586 1.45919 8.16211 1.69044 8.07774L2.25294 7.16524C2.55919 6.66211 2.81232 6.24649 2.81232 6.24336C2.81232 6.23711 2.61232 6.22461 2.36857 6.21211C2.12169 6.20274 1.83732 6.17149 1.73419 6.14336C1.63107 6.11524 1.43419 6.03711 1.29669 5.97149C1.15919 5.90274 0.962318 5.78086 0.859193 5.69649C0.759193 5.61524 0.606068 5.46211 0.524818 5.35899C0.440443 5.25586 0.324818 5.08086 0.268568 4.96836C0.209193 4.85586 0.131068 4.66836 0.0935677 4.54649C0.0591927 4.42774 0.0185677 4.19336 0.00919265 4.03086C-0.00330735 3.81836 0.00606765 3.66211 0.0404426 3.48399C0.0685676 3.34649 0.121693 3.15586 0.162318 3.06211C0.199818 2.96836 0.281068 2.80586 0.340443 2.70274C0.402943 2.59961 0.537318 2.42461 0.640443 2.31524C0.743568 2.20586 0.918568 2.05586 1.03107 1.98399C1.14357 1.90899 1.31857 1.81524 1.42169 1.77149C1.52482 1.72774 1.71857 1.67149 1.84982 1.64336C2.06544 1.59961 2.62169 1.59336 11.6092 1.59336L11.6811 1.38399C11.7217 1.26524 11.8061 1.08711 11.8686 0.983987C11.9311 0.880862 12.0686 0.712112 12.1717 0.608987C12.2748 0.502737 12.4498 0.365237 12.5623 0.299612C12.6748 0.233987 12.8842 0.140237 13.0311 0.0902375C13.2811 0.00898748 13.3279 0.00273748 13.8592 0.00273748ZM13.0779 1.08399C13.0092 1.12149 12.8873 1.22149 12.8029 1.30899C12.7217 1.39649 12.6248 1.53399 12.5873 1.61836C12.5342 1.73711 12.5186 1.82149 12.5186 2.06211C12.5186 2.30274 12.5342 2.38711 12.5873 2.50899C12.6248 2.59024 12.7248 2.73086 12.8092 2.82149C12.9092 2.92774 13.0279 3.01524 13.1592 3.07461C13.2936 3.13711 13.4311 3.17149 13.5873 3.18399L13.8123 3.20274V0.937112C13.5342 0.940237 13.3967 0.958987 13.3279 0.980862C13.2592 1.00274 13.1467 1.04961 13.0779 1.08399ZM4.79669 5.12461C4.70919 5.17461 4.58107 5.27461 4.50919 5.34961C4.43732 5.42461 4.04357 6.03399 3.63107 6.70274L2.88419 7.92149C6.83732 7.93399 9.13732 7.93399 10.5467 7.93086L13.1123 7.92149C11.9842 6.08086 11.5904 5.46836 11.5061 5.37461C11.4217 5.28086 11.2842 5.16524 11.1998 5.11836C11.1154 5.07149 10.9623 5.01211 10.8592 4.98711C10.6967 4.94336 10.3279 4.93711 7.98419 4.94024C5.70607 4.94024 5.27169 4.94961 5.12482 4.98711C5.03107 5.01211 4.88419 5.07461 4.79669 5.12461ZM1.79669 9.04961C1.71232 9.09024 1.57794 9.18086 1.49982 9.24649C1.42169 9.30899 1.31232 9.43399 1.25607 9.51836C1.19982 9.60274 1.15607 9.68086 1.15607 9.69649C1.15607 9.70899 1.27169 9.71836 1.41544 9.71836C1.57482 9.71836 1.76544 9.74336 1.92169 9.78086C2.05919 9.81836 2.28419 9.90586 2.41857 9.97774C2.56232 10.0527 2.75919 10.1965 2.88419 10.3121C3.00294 10.4246 3.16232 10.6059 3.23732 10.7184C3.30919 10.8309 3.40607 11.0059 3.44669 11.109C3.49044 11.2121 3.54669 11.4059 3.57482 11.5402C3.60294 11.6715 3.62482 11.8621 3.62482 11.9621C3.62482 12.0684 3.60294 12.184 3.56857 12.2496C3.54044 12.309 3.46544 12.3902 3.40607 12.4309C3.29669 12.5027 3.29357 12.5027 2.14982 12.4996H0.999818C0.996693 12.9434 1.00919 13.0027 1.06857 13.0902C1.10919 13.1496 1.18107 13.2277 1.22794 13.2621L1.31544 13.3277H14.6842C14.8186 13.2277 14.8904 13.1496 14.9311 13.0902C14.9904 13.0027 15.0029 12.9434 14.9998 12.7434V12.4996C12.7061 12.5027 12.7029 12.5027 12.5936 12.4309C12.5342 12.3902 12.4592 12.309 12.4311 12.2496C12.3967 12.184 12.3748 12.0684 12.3748 11.9621C12.3748 11.8621 12.3967 11.6715 12.4248 11.5402C12.4529 11.4059 12.5092 11.2121 12.5529 11.109C12.5936 11.0059 12.6904 10.8309 12.7623 10.7184C12.8373 10.6059 12.9967 10.4246 13.1154 10.3121C13.2373 10.1996 13.4467 10.0496 13.5811 9.97774C13.7186 9.90586 13.9404 9.81836 14.0779 9.78086C14.2311 9.74336 14.4279 9.71836 14.5873 9.71836C14.7279 9.71836 14.8436 9.70899 14.8436 9.69649C14.8436 9.68086 14.7998 9.60274 14.7436 9.51836C14.6873 9.43399 14.5779 9.30899 14.4998 9.24649C14.4217 9.18086 14.2904 9.09024 14.2029 9.04961C14.1186 9.00586 13.9623 8.94961 13.8592 8.92149C13.6936 8.88086 13.0029 8.87461 7.98419 8.87774C3.09982 8.87774 2.27169 8.88399 2.12482 8.92461C2.03107 8.94961 1.88419 9.00586 1.79669 9.04961ZM1.02482 10.8715L0.999818 11.5621H2.62482C2.56544 11.4277 2.49982 11.3152 2.43732 11.2215C2.37794 11.1277 2.27794 11.0121 2.21857 10.9621C2.15919 10.9121 2.01857 10.8277 1.90607 10.7715C1.75294 10.6996 1.64982 10.6715 1.48107 10.6621C1.25919 10.6496 1.25607 10.6496 1.14044 10.759L1.02482 10.8715ZM14.0311 10.7965C13.9717 10.8277 13.8654 10.8965 13.7967 10.9527C13.7279 11.0059 13.6217 11.1277 13.5623 11.2215C13.4998 11.3152 13.4342 11.4277 13.4123 11.4777L13.3748 11.5621H14.9998L14.9842 10.8715C14.7623 10.6652 14.7342 10.6559 14.5717 10.659C14.4717 10.659 14.3342 10.6777 14.2654 10.6996C14.1967 10.7215 14.0936 10.7652 14.0311 10.7965ZM1.56232 14.5777C1.56232 14.8652 1.56544 14.8777 1.65607 14.9684L1.74982 15.0621H3.34982C3.52794 14.8777 3.53107 14.8652 3.53107 14.5777V14.2809H1.56232V14.5777ZM12.4686 14.5777C12.4686 14.8652 12.4717 14.8777 12.5623 14.9684L12.6561 15.0621H14.2561C14.4342 14.8777 14.4373 14.8652 14.4373 14.5777V14.2809H12.4686V14.5777ZM4.26544 9.68711H7.99357C11.6561 9.68711 11.7217 9.68711 11.8436 9.74961C11.9269 9.79128 11.9894 9.85378 12.0311 9.93711C12.0654 10.0059 12.0936 10.109 12.0936 10.1652C12.0936 10.2246 11.9592 10.559 11.7467 11.0152C11.5592 11.4277 11.3623 11.8277 11.3154 11.9059C11.2654 11.984 11.1686 12.0996 11.0967 12.1652C11.0279 12.2277 10.8873 12.3215 10.7904 12.3715C10.6904 12.4215 10.5373 12.4777 10.4467 12.4965C10.3342 12.5215 9.57169 12.5309 7.99982 12.5309C6.44044 12.5309 5.66857 12.5215 5.55607 12.4965C5.46544 12.4777 5.31544 12.4246 5.21857 12.3777C5.12482 12.334 4.96232 12.2121 4.85919 12.109C4.68419 11.934 4.64982 11.8746 4.29044 11.0934C4.03628 10.5413 3.90815 10.2288 3.90607 10.1559C3.90607 10.0965 3.93419 9.99649 3.96544 9.93711C3.99669 9.87774 4.07794 9.79649 4.14357 9.75899L4.26544 9.68711ZM5.14357 10.6934C5.15607 10.7309 5.24044 10.9215 5.33419 11.1152C5.48419 11.4277 5.51544 11.4746 5.62482 11.5277C5.74669 11.5902 5.81232 11.5902 7.99982 11.5902C9.60607 11.5902 10.2717 11.5809 10.3217 11.5559C10.3592 11.5371 10.4248 11.4902 10.4654 11.4559C10.5061 11.4184 10.6061 11.2465 10.6873 11.0746C10.7686 10.9027 10.8436 10.7309 10.8561 10.6934L10.8748 10.6215H5.12169L5.14357 10.6934Z" fill="#ACB9CB"/>
</g>
<defs>
<clipPath id="clip0_545_4795">
<rect width="16" height="16" fill="white"/>
</clipPath>
</defs>
</svg>
