<svg width="16" height="16" viewBox="0 0 16 16" fill="none" xmlns="http://www.w3.org/2000/svg">
<g clip-path="url(#clip0_545_4801)">
<path fill-rule="evenodd" clip-rule="evenodd" d="M12.875 0.658905C13.7969 0.65578 14.0375 0.66203 14.125 0.69953C14.1844 0.72453 14.275 0.783905 14.3219 0.833905C14.3719 0.88078 14.425 0.977655 14.4438 1.0464C14.4657 1.13078 14.4688 1.5964 14.4594 2.45265C14.4469 3.36828 14.4282 3.80578 14.3969 3.9839C14.3719 4.1214 14.3188 4.35265 14.2813 4.49953C14.2438 4.6464 14.1656 4.89328 14.1031 5.0464C14.0406 5.19953 13.9469 5.41828 13.8906 5.53078C13.8344 5.64328 13.6844 5.88703 13.5594 6.07765C13.4281 6.2714 13.1938 6.56203 13.0156 6.7464C12.8438 6.92453 12.5906 7.15891 12.4531 7.26515C12.3156 7.3714 12.1094 7.51828 11.9907 7.59015C11.875 7.6589 11.6657 7.77766 11.5219 7.84641C11.3813 7.91828 11.1031 8.03078 10.9063 8.09641C10.7094 8.16203 10.4406 8.2339 10.3125 8.26203C10.1844 8.28703 9.93127 8.32453 9.75002 8.34328C9.55315 8.36203 8.57502 8.37453 7.31252 8.37453C6.15002 8.37453 5.0844 8.3589 4.93752 8.34328C4.79065 8.32765 4.5594 8.2839 4.4219 8.2464C4.2844 8.21203 4.05627 8.1339 3.91252 8.07453C3.7719 8.01515 3.56252 7.91203 3.44377 7.84015C3.32815 7.7714 3.16252 7.65891 3.07815 7.59328C2.99065 7.52765 2.83127 7.3839 2.7219 7.27453C2.61252 7.16515 2.44377 6.97141 2.3469 6.84328C2.25002 6.71515 2.11252 6.4964 2.04065 6.3589C1.96877 6.22141 1.86877 5.98078 1.81565 5.82765C1.76565 5.67453 1.70002 5.41828 1.6719 5.26515C1.6344 5.04328 1.62502 4.72765 1.62502 3.7964C1.6219 2.6089 1.6219 2.6089 1.69377 2.49953C1.7344 2.44015 1.81565 2.36515 1.87502 2.3339C1.97502 2.2839 2.08127 2.27765 3.25002 2.29015C4.39377 2.30265 4.54065 2.3089 4.78127 2.36828C4.92815 2.40265 5.13752 2.46515 5.25002 2.5089C5.36252 2.54953 5.54377 2.63078 5.65627 2.68703C5.76877 2.74328 5.96565 2.86203 6.09377 2.9464C6.2219 3.0339 6.44065 3.21828 6.58127 3.3589C6.7219 3.4964 6.8969 3.69328 7.1094 3.99015L7.2594 3.67453C7.34065 3.49953 7.48752 3.2339 7.58752 3.07765C7.68752 2.9214 7.87503 2.6714 8.00628 2.51515C8.1344 2.3589 8.36877 2.1214 8.52815 1.9839C8.68752 1.8464 8.94065 1.65265 9.08752 1.55265C9.23752 1.45265 9.51252 1.29328 9.70315 1.20265C9.89377 1.11203 10.2 0.98703 10.3906 0.927655C10.5813 0.86828 10.8688 0.796405 11.0313 0.76828C11.1938 0.740155 11.4188 0.70578 11.5313 0.690155C11.6438 0.67453 12.2469 0.66203 12.875 0.658905ZM11.2188 1.68703C11.0906 1.7089 10.85 1.76828 10.6875 1.81828C10.525 1.8714 10.2844 1.96203 10.1563 2.0214C10.0281 2.08078 9.78127 2.2214 9.6094 2.3339C9.40627 2.46828 9.17502 2.66515 8.95315 2.88703C8.76252 3.07765 8.53753 3.34015 8.45315 3.46828C8.36565 3.5964 8.2344 3.82765 8.15627 3.9839C8.07502 4.13703 7.96877 4.40578 7.91252 4.57765C7.8594 4.74953 7.79065 5.01828 7.76565 5.1714C7.7344 5.36203 7.71877 5.66515 7.71877 6.1089V6.76515C10.275 4.21515 11.0469 3.4589 11.0875 3.44015C11.125 3.4214 11.2063 3.40578 11.2656 3.40578C11.325 3.40578 11.425 3.43078 11.4907 3.46203C11.5532 3.49015 11.6219 3.54328 11.6469 3.57765C11.6688 3.61203 11.7031 3.6964 11.7219 3.76515C11.7438 3.85578 11.7438 3.9214 11.7156 3.99953C11.6906 4.08078 11.2469 4.54328 10.0344 5.75578C8.64377 7.14953 8.40002 7.40578 8.45315 7.42453C8.48752 7.43703 8.80315 7.44015 9.15627 7.42765C9.61877 7.41515 9.88128 7.39328 10.0938 7.34641C10.2563 7.31203 10.5188 7.24015 10.6719 7.1839C10.825 7.13078 11.0438 7.04015 11.1563 6.9839C11.2688 6.92765 11.4938 6.79328 11.6563 6.6839C11.8281 6.56828 12.0844 6.35265 12.2656 6.1714C12.4563 5.9839 12.6625 5.73703 12.7875 5.5464C12.9032 5.37453 13.0469 5.12766 13.1063 4.99953C13.1656 4.8714 13.2563 4.63703 13.3063 4.4839C13.3563 4.33078 13.4219 4.06828 13.4531 3.90578C13.4938 3.68703 13.5125 3.3464 13.5281 2.61515L13.5469 1.62453C11.9969 1.63078 11.525 1.63703 11.5 1.64015C11.475 1.6464 11.3469 1.66828 11.2188 1.68703ZM2.5719 4.17765C2.58127 5.0589 2.58752 5.15891 2.65002 5.36828C2.68752 5.49015 2.7594 5.68078 2.80627 5.79015C2.85315 5.8964 2.95002 6.06828 3.01877 6.1714C3.0844 6.27453 3.21877 6.44016 3.31252 6.54015C3.40627 6.64328 3.56877 6.79015 3.6719 6.86828C3.77502 6.9464 3.98752 7.06828 4.14065 7.14328C4.29377 7.21828 4.5344 7.30891 4.6719 7.34641C4.85315 7.39328 5.06252 7.41515 5.43752 7.43078C5.7219 7.44016 5.98127 7.43703 6.01565 7.42453C6.06877 7.40578 5.90002 7.22765 4.91565 6.24015C4.27502 5.59953 3.73752 5.04015 3.7219 4.99015C3.70315 4.94328 3.68752 4.86515 3.68752 4.81203C3.68752 4.7589 3.70315 4.68703 3.7219 4.6464C3.74065 4.6089 3.79377 4.53703 3.84065 4.49015C3.8844 4.44328 3.97815 4.39015 4.0469 4.3714C4.11565 4.35265 4.21252 4.34953 4.26565 4.3589C4.3344 4.37453 4.67502 4.6964 5.55315 5.5714C6.56877 6.58703 6.75002 6.75578 6.76877 6.70265C6.78127 6.66828 6.7844 6.4214 6.7719 6.15578C6.76252 5.89015 6.73128 5.5714 6.70627 5.45265C6.68127 5.3339 6.62502 5.1339 6.57815 5.01515C6.5344 4.8964 6.44377 4.70578 6.37502 4.59328C6.3094 4.48078 6.18127 4.30265 6.08752 4.1964C5.9969 4.09015 5.8219 3.92453 5.70315 3.82765C5.5844 3.73078 5.35627 3.59015 5.20315 3.51203C5.05002 3.43703 4.8094 3.34328 4.6719 3.30578C4.4469 3.2464 4.32503 3.23703 3.49377 3.22453L2.56252 3.21203L2.5719 4.17765ZM0.3219 9.72141H1.88752C3.3969 9.72141 3.45627 9.72141 3.55315 9.78391C3.6094 9.81828 3.67502 9.87765 3.70002 9.91515C3.72502 9.95578 3.75315 10.0277 3.76252 10.0808C3.77502 10.1308 3.76877 10.2308 3.75315 10.2995C3.7344 10.3683 3.68127 10.462 3.6344 10.5058C3.5844 10.5527 3.49065 10.6058 3.4219 10.6245C3.34065 10.6464 2.86877 10.6589 0.937525 10.6589V12.0652L1.80315 12.062C2.65627 12.062 2.6719 12.0652 2.77815 12.1339C2.8469 12.1777 2.9094 12.2589 2.9469 12.3464C2.98752 12.4433 3.00002 12.5214 2.98752 12.6027C2.97502 12.6714 2.92502 12.7683 2.86565 12.8308C2.8094 12.8933 2.71565 12.9558 2.65627 12.9714C2.5969 12.987 2.1844 13.0027 0.937525 13.0027V14.3777L2.20002 14.3839C3.4094 14.3933 3.46877 14.3964 3.5469 14.4558C3.59377 14.4902 3.6594 14.5527 3.69065 14.5964C3.72502 14.637 3.7594 14.7308 3.76877 14.7995C3.78127 14.8902 3.76565 14.9589 3.71252 15.0652C3.6594 15.1683 3.60315 15.2214 3.50002 15.2745C3.3594 15.3433 3.34065 15.3433 1.8969 15.3433C0.550025 15.3464 0.425025 15.3402 0.30315 15.287C0.231275 15.2558 0.137525 15.1839 0.0156498 15.0183L0.00627476 12.5495C2.47641e-05 10.2464 0.00314977 10.0714 0.0531498 9.97141C0.0843998 9.91203 0.156275 9.83078 0.21565 9.79015L0.3219 9.72141ZM7.3719 9.7339C7.64377 9.74328 7.86877 9.76515 7.9969 9.79953C8.1094 9.83078 8.30627 9.90265 8.4344 9.96203C8.56565 10.0214 8.75315 10.1308 8.85627 10.2058C8.9594 10.2808 9.11565 10.4089 9.20315 10.4933C9.29065 10.5777 9.39377 10.6933 9.43127 10.7527C9.46877 10.8152 9.4969 10.9152 9.4969 10.9808C9.4969 11.0464 9.48752 11.1308 9.4719 11.1683C9.45627 11.2058 9.40315 11.2777 9.35315 11.3245C9.30315 11.3745 9.20627 11.4277 9.13752 11.4464C9.05002 11.4683 8.9844 11.4652 8.90315 11.437C8.84377 11.4152 8.6969 11.3058 8.57502 11.1933C8.44065 11.0652 8.26565 10.9402 8.10627 10.8589C7.96877 10.7902 7.7719 10.7152 7.66877 10.6933C7.55315 10.6683 7.36252 10.6589 7.16877 10.6683C6.96252 10.6777 6.7969 10.7058 6.66877 10.7495C6.56565 10.787 6.40627 10.862 6.31252 10.9183C6.21877 10.9745 6.05315 11.112 5.94065 11.2214C5.80315 11.3652 5.70315 11.5027 5.61877 11.6745C5.55315 11.812 5.47815 12.0245 5.45002 12.1433C5.42502 12.2652 5.40627 12.4339 5.40627 12.5183C5.40627 12.6058 5.42502 12.7745 5.45002 12.8933C5.47815 13.0152 5.55315 13.2245 5.61877 13.362C5.71252 13.5495 5.7969 13.6652 5.95627 13.8183C6.07503 13.9308 6.24065 14.0652 6.32502 14.1152C6.41252 14.1652 6.57502 14.2402 6.6844 14.2808C6.8219 14.3308 6.9844 14.3589 7.1844 14.3683C7.40315 14.3808 7.54377 14.3714 7.70002 14.3339C7.8219 14.3058 8.01252 14.2339 8.1219 14.1745C8.2344 14.1152 8.40315 13.9995 8.4969 13.9152C8.59377 13.8339 8.71877 13.7495 8.77815 13.7277C8.8594 13.6995 8.9219 13.6964 9.01252 13.7214C9.08127 13.737 9.16565 13.7714 9.20002 13.7964C9.2344 13.8183 9.28753 13.8902 9.31878 13.9527C9.35003 14.0152 9.3719 14.1152 9.3719 14.1745C9.3719 14.237 9.35315 14.3245 9.33127 14.3714C9.30628 14.4183 9.20627 14.5339 9.10315 14.6245C9.00315 14.7183 8.81565 14.8558 8.6844 14.937C8.55627 15.0152 8.33752 15.1183 8.20002 15.1652C8.06252 15.212 7.8094 15.2745 7.63752 15.3027C7.37502 15.3464 7.2844 15.3464 7.0594 15.3183C6.91565 15.2964 6.69065 15.2527 6.5594 15.2183C6.43127 15.1839 6.22815 15.1089 6.10627 15.0558C5.98752 14.9995 5.7969 14.8933 5.6844 14.8183C5.57502 14.7402 5.39065 14.587 5.27502 14.4745C5.16252 14.362 5.00315 14.1652 4.91877 14.0339C4.83752 13.9058 4.73127 13.7089 4.6844 13.5964C4.63752 13.487 4.57502 13.2808 4.54377 13.1433C4.50315 12.9683 4.4844 12.7777 4.4844 12.5027C4.4844 12.2089 4.50315 12.0464 4.55627 11.8308C4.59377 11.6777 4.68752 11.4245 4.76252 11.2683C4.84065 11.1152 4.9844 10.8902 5.08127 10.7714C5.18127 10.6527 5.36252 10.4714 5.48127 10.3714C5.60315 10.2714 5.8219 10.1277 5.96565 10.0527C6.11252 9.97766 6.30315 9.8964 6.38752 9.86828C6.47502 9.84015 6.63752 9.7964 6.7469 9.77141C6.89065 9.73703 7.07815 9.72765 7.3719 9.7339ZM13.2781 9.73703C13.6219 9.74328 13.7875 9.76203 13.9594 9.81203C14.0844 9.84953 14.2875 9.93078 14.4125 9.99328C14.5375 10.0527 14.7219 10.1652 14.825 10.237C14.9281 10.312 15.1063 10.4683 15.2156 10.587C15.3281 10.7058 15.475 10.887 15.5438 10.9902C15.6125 11.0902 15.7063 11.2589 15.75 11.362C15.7969 11.4652 15.8719 11.687 15.9156 11.8558C15.9781 12.087 15.9969 12.2339 15.9969 12.4714C15.9969 12.6933 15.975 12.8808 15.9219 13.1058C15.8813 13.2808 15.8094 13.5183 15.7656 13.6277C15.7188 13.7402 15.6344 13.9089 15.5781 14.0027C15.5219 14.0995 15.4032 14.2589 15.3188 14.362C15.2344 14.4652 15.0594 14.6308 14.9313 14.7277C14.8063 14.8277 14.5813 14.962 14.4344 15.0308C14.2906 15.0995 14.0438 15.187 13.8875 15.2277C13.6688 15.2808 13.5188 15.2964 13.2 15.2964C12.8875 15.2964 12.7313 15.2808 12.5125 15.2277C12.3531 15.1902 12.0969 15.0902 11.9188 15.0027C11.7469 14.9183 11.5094 14.7652 11.3875 14.6652C11.2688 14.5683 11.0969 14.387 11.0063 14.2683C10.9157 14.1495 10.7875 13.937 10.7188 13.7995C10.65 13.662 10.5563 13.4089 10.5125 13.237C10.4719 13.0652 10.425 12.7995 10.4156 12.6433C10.4063 12.4777 10.4125 12.262 10.4344 12.112C10.4563 11.9745 10.5125 11.7495 10.5563 11.612C10.6031 11.4745 10.7031 11.2495 10.7813 11.112C10.8813 10.9339 11.0094 10.7745 11.2313 10.5495C11.4031 10.3777 11.6219 10.1933 11.7156 10.137C11.8125 10.0808 12 9.98703 12.1375 9.92766C12.275 9.86828 12.4875 9.79953 12.6063 9.77141C12.7656 9.73703 12.95 9.72766 13.2781 9.73703ZM12.2969 10.887C12.1938 10.9433 12.0344 11.0589 11.9406 11.1433C11.8469 11.2308 11.7157 11.3839 11.6469 11.487C11.5813 11.5902 11.4906 11.787 11.4469 11.9245C11.4063 12.062 11.3625 12.2808 11.35 12.4089C11.3375 12.5777 11.35 12.7152 11.3906 12.8933C11.4188 13.0308 11.4969 13.2495 11.5625 13.3777C11.6281 13.5089 11.7563 13.6933 11.8469 13.787C11.9375 13.8839 12.1063 14.0214 12.2156 14.0933C12.3281 14.1683 12.5188 14.2558 12.6375 14.2933C12.8094 14.3464 12.9344 14.362 13.2 14.362C13.4688 14.362 13.5938 14.3464 13.7625 14.2933C13.8844 14.2558 14.075 14.1683 14.1844 14.0933C14.2969 14.0214 14.4625 13.8839 14.5563 13.787C14.6469 13.6933 14.775 13.5089 14.8406 13.3777C14.9031 13.2495 14.9844 13.0308 15.0125 12.8933C15.0563 12.7089 15.0656 12.5808 15.05 12.4027C15.0375 12.2683 14.9938 12.0527 14.9531 11.9183C14.9094 11.7839 14.8219 11.5902 14.7563 11.487C14.6875 11.3839 14.5563 11.2308 14.4625 11.1433C14.3688 11.0589 14.2094 10.9433 14.1063 10.887C14.0031 10.8339 13.8063 10.7589 13.6688 10.7245C13.5188 10.6839 13.3281 10.6589 13.1844 10.662C13.0563 10.662 12.8469 10.6902 12.7156 10.7245C12.5875 10.7589 12.4 10.8339 12.2969 10.887Z" fill="#ACB9CB"/>
</g>
<defs>
<clipPath id="clip0_545_4801">
<rect width="16" height="16" fill="white"/>
</clipPath>
</defs>
</svg>
