<svg width="16" height="16" viewBox="0 0 16 16" fill="none" xmlns="http://www.w3.org/2000/svg">
<g clip-path="url(#clip0_556_4027)">
<path fill-rule="evenodd" clip-rule="evenodd" d="M7.99672 0.03125C8.44672 0.03125 8.71859 0.046875 9.01547 0.090625C9.23734 0.125 9.53422 0.175 9.67172 0.203125C9.80922 0.23125 10.0811 0.303125 10.2717 0.3625C10.4655 0.421875 10.7342 0.5125 10.8655 0.565625C10.9998 0.61875 11.2623 0.7375 11.453 0.83125C11.6436 0.921875 11.9373 1.0875 12.1092 1.19375C12.2811 1.30313 12.5342 1.475 12.6686 1.57812C12.8061 1.68125 13.053 1.8875 13.2155 2.03437C13.3811 2.18125 13.6373 2.44062 13.7842 2.6125C13.9311 2.78125 14.1342 3.03437 14.2373 3.17188C14.3373 3.30938 14.4842 3.52813 14.5655 3.65625C14.6436 3.78437 14.7936 4.05937 14.8967 4.26562C14.9998 4.47188 15.1342 4.775 15.1967 4.9375C15.2592 5.1 15.3467 5.35313 15.3905 5.5C15.4342 5.64687 15.4686 5.82812 15.4686 5.90625C15.4686 5.98438 15.4436 6.08437 15.4123 6.13125C15.3842 6.17812 15.3155 6.24687 15.2655 6.28125C15.203 6.32188 15.1186 6.34375 15.0217 6.34375C14.9405 6.34375 14.8342 6.31875 14.778 6.29063C14.7248 6.25938 14.6561 6.19375 14.6248 6.14062C14.5936 6.0875 14.5405 5.9375 14.503 5.80625C14.4655 5.67188 14.3873 5.43125 14.3248 5.27187C14.2623 5.11562 14.1405 4.84375 14.053 4.67188C13.9686 4.5 13.8405 4.26875 13.7717 4.15625C13.6998 4.04375 13.5467 3.81875 13.4248 3.65625C13.3061 3.49375 13.0592 3.20625 12.878 3.01875C12.6967 2.83437 12.4342 2.59063 12.2967 2.47813C12.1592 2.36875 11.9123 2.1875 11.7498 2.07812C11.5873 1.97187 11.2842 1.79688 11.078 1.69375C10.8717 1.59063 10.5623 1.45312 10.3905 1.39062C10.2186 1.32812 9.92484 1.23438 9.73422 1.1875C9.54359 1.1375 9.23734 1.07187 9.04672 1.04062C8.79359 1 8.53109 0.9875 8.04672 0.9875C7.58109 0.9875 7.29672 1.00312 7.06234 1.04062C6.88109 1.07187 6.59984 1.12812 6.43734 1.17188C6.27484 1.2125 6.02797 1.28437 5.89047 1.32812C5.75297 1.375 5.46547 1.49375 5.24984 1.59063C5.03422 1.6875 4.72484 1.85312 4.56234 1.95312C4.39984 2.05625 4.13109 2.24062 3.96859 2.3625C3.80609 2.48438 3.53109 2.725 3.35609 2.89375C3.18422 3.06562 2.94672 3.32188 2.83109 3.46875C2.71234 3.61562 2.54359 3.84687 2.45297 3.98438C2.36234 4.12187 2.20922 4.38438 2.11234 4.57188C2.01547 4.75625 1.94047 4.91875 1.94359 4.93437C1.94984 4.95 2.03109 4.93125 2.12484 4.89062C2.21859 4.85 2.35922 4.81563 2.43734 4.8125C2.53734 4.8125 2.61234 4.83437 2.69359 4.89062C2.77172 4.94063 2.83109 5.01562 2.86234 5.10313C2.89359 5.18438 2.90609 5.27813 2.89359 5.35313C2.88109 5.42188 2.83422 5.5125 2.77172 5.57812C2.69359 5.6625 2.51859 5.75 1.95297 5.9875C1.55609 6.15313 1.19047 6.3 1.14047 6.31563C1.08422 6.33125 0.996719 6.33125 0.921719 6.3125C0.852969 6.29688 0.759219 6.24375 0.709219 6.19688C0.656094 6.14062 0.512344 5.84063 0.312344 5.36875C0.0404693 4.72188 -0.000155703 4.6 -0.000155703 4.44688C-0.0032807 4.3125 0.0154693 4.24375 0.0623443 4.18125C0.0967193 4.13125 0.165469 4.07188 0.218594 4.04688C0.268594 4.02187 0.362344 4 0.421719 4C0.481094 4 0.568594 4.01563 0.615469 4.03438C0.665469 4.05313 0.731094 4.09375 0.765469 4.125C0.799844 4.15625 0.868594 4.28125 0.921719 4.40312C0.971719 4.52812 1.02172 4.625 1.03109 4.625C1.04047 4.625 1.10297 4.5 1.17172 4.35313C1.24047 4.20312 1.38422 3.93438 1.49359 3.75312C1.59984 3.57187 1.81234 3.25938 1.96234 3.0625C2.10922 2.86562 2.42172 2.5125 2.65609 2.28125C2.88734 2.04688 3.24047 1.7375 3.43734 1.5875C3.63422 1.44062 3.93734 1.2375 4.10922 1.13437C4.28109 1.03125 4.50609 0.903125 4.60922 0.853125C4.71234 0.8 4.93109 0.7 5.09359 0.63125C5.25609 0.565625 5.52484 0.465625 5.68734 0.409375C5.84984 0.35625 6.13109 0.278125 6.31234 0.2375C6.49359 0.19375 6.80297 0.134375 6.99984 0.10625C7.19672 0.078125 7.36547 0.05 7.37172 0.04375C7.37797 0.0375 7.65922 0.03125 7.99672 0.03125ZM14.8905 9.62813C14.9092 9.625 14.9717 9.6375 15.0311 9.65625C15.0905 9.67188 15.178 9.725 15.2248 9.77188C15.2811 9.82812 15.4342 10.15 15.6436 10.6406C15.9155 11.2875 15.9717 11.4438 15.9623 11.5469C15.9561 11.6187 15.9155 11.7219 15.8655 11.7875C15.8123 11.8656 15.7405 11.9187 15.6655 11.9406C15.5998 11.9594 15.4905 11.9688 15.4217 11.9594C15.353 11.9469 15.2623 11.9156 15.2217 11.8844C15.1811 11.8531 15.1217 11.7781 15.0905 11.7188C15.0561 11.6594 15.0092 11.5531 14.9342 11.3594L14.7686 11.7031C14.678 11.8906 14.5248 12.1812 14.4248 12.3438C14.3248 12.5063 14.128 12.7937 13.9842 12.9844C13.8436 13.1719 13.5873 13.475 13.4186 13.6531C13.2467 13.8313 12.9748 14.0906 12.8123 14.225C12.6498 14.3625 12.353 14.5844 12.1561 14.7156C11.9592 14.8469 11.678 15.0219 11.5311 15.1031C11.3842 15.1812 11.1311 15.3062 10.9686 15.375C10.8061 15.4469 10.5186 15.5594 10.328 15.625C10.1373 15.6875 9.82172 15.7781 9.62484 15.8219C9.42797 15.8687 9.15297 15.925 9.01547 15.9531C8.82797 15.9875 8.54047 16 7.86547 16C7.37172 16 6.90922 15.9875 6.83422 15.9688C6.76234 15.9531 6.52172 15.9 6.29672 15.8562C6.07172 15.8125 5.70297 15.7156 5.47484 15.6375C5.24984 15.5625 4.93109 15.4406 4.77484 15.3687C4.61547 15.3 4.35609 15.1719 4.20297 15.0844C4.04984 15 3.78734 14.8406 3.62484 14.7344C3.46234 14.625 3.20922 14.4406 3.06234 14.3219C2.91547 14.2062 2.64984 13.9625 2.46859 13.7812C2.28734 13.6 2.04359 13.3344 1.92797 13.1875C1.80922 13.0406 1.61547 12.775 1.49672 12.5938C1.37484 12.4125 1.18109 12.075 1.06547 11.8438C0.946719 11.6125 0.799844 11.2875 0.737344 11.125C0.674844 10.9625 0.590469 10.7094 0.546719 10.5625C0.502969 10.4156 0.468594 10.2344 0.468594 10.1562C0.468594 10.0688 0.493594 9.98125 0.531094 9.92188C0.565469 9.86875 0.634219 9.80312 0.681094 9.775C0.734219 9.74062 0.824844 9.71875 0.921719 9.71875C1.02172 9.72188 1.11234 9.74375 1.17172 9.78125C1.22484 9.8125 1.28734 9.87813 1.31547 9.92813C1.34359 9.975 1.39672 10.125 1.43422 10.2563C1.46859 10.3906 1.54984 10.6313 1.61234 10.7875C1.67484 10.9469 1.79672 11.2188 1.88422 11.3906C1.96859 11.5625 2.09672 11.7937 2.16547 11.9062C2.23734 12.0188 2.39047 12.2437 2.51234 12.4062C2.63109 12.5688 2.87172 12.85 3.04359 13.0281C3.21859 13.2063 3.50609 13.4688 3.68734 13.6156C3.86859 13.7594 4.14359 13.9594 4.29672 14.0531C4.44984 14.15 4.75922 14.3188 4.98422 14.425C5.20922 14.5344 5.56234 14.6812 5.77484 14.75C5.98422 14.8188 6.32797 14.9094 6.53734 14.9531C6.74984 14.9937 7.09047 15.0469 7.29672 15.0656C7.51859 15.0875 7.85609 15.0938 8.12484 15.0844C8.37484 15.0719 8.71234 15.0437 8.87484 15.0188C9.03734 14.9938 9.31234 14.9375 9.48422 14.8938C9.65609 14.85 9.94359 14.7656 10.1248 14.7031C10.3061 14.6375 10.6061 14.5125 10.7967 14.4219C10.9873 14.3313 11.2686 14.175 11.4217 14.0781C11.5748 13.9812 11.8342 13.8 11.9967 13.6781C12.1592 13.5531 12.4405 13.3062 12.6217 13.125C12.803 12.9438 13.0748 12.6344 13.2217 12.4375C13.3686 12.2406 13.5592 11.9656 13.6405 11.8281C13.7248 11.6906 13.853 11.45 13.928 11.2969C14.003 11.1406 14.053 11.0125 14.0405 11.0063C14.028 11 13.9248 11.0344 13.8123 11.0813C13.6655 11.1406 13.5717 11.1594 13.4686 11.15C13.3905 11.1437 13.2811 11.1063 13.228 11.0688C13.1655 11.0281 13.1061 10.9469 13.0748 10.8656C13.0436 10.7844 13.0311 10.6906 13.0436 10.6156C13.0561 10.5469 13.103 10.4563 13.1655 10.3938C13.2436 10.3094 13.4217 10.2188 13.9842 9.98125C14.378 9.81563 14.7373 9.66875 14.7811 9.65625C14.8248 9.64062 14.8717 9.62813 14.8905 9.62813ZM8.92797 2.8125C8.98422 2.8125 9.08734 2.84063 9.15609 2.875C9.23943 2.91667 9.30193 2.97917 9.34359 3.0625C9.40297 3.18438 9.40609 3.25 9.40609 7.53125H10.2967C10.8498 7.53125 11.2186 7.54375 11.2748 7.56563C11.3217 7.58125 11.3998 7.63438 11.4467 7.68125C11.4936 7.72813 11.5467 7.81875 11.5623 7.88125C11.5842 7.95937 11.5811 8.04063 11.5623 8.11563C11.5405 8.20312 10.9967 8.88125 9.51547 10.6719C8.23422 12.2188 7.46234 13.1281 7.39672 13.1625C7.34047 13.1906 7.24984 13.2156 7.19672 13.2188C7.14047 13.2188 7.03734 13.1906 6.96859 13.1562C6.88526 13.1146 6.82276 13.0521 6.78109 12.9688C6.72172 12.8469 6.71859 12.7812 6.71859 8.5H5.82797C5.27484 8.5 4.90609 8.4875 4.85297 8.46562C4.80297 8.45 4.72484 8.39688 4.67797 8.35C4.63109 8.30313 4.57797 8.2125 4.56234 8.14688C4.54047 8.07188 4.54359 7.99062 4.56234 7.9125C4.58422 7.82812 5.12484 7.15312 6.59359 5.375C7.91547 3.77813 8.63422 2.92813 8.71234 2.88438C8.77484 2.84375 8.87484 2.8125 8.93109 2.8125H8.92797ZM7.23734 6.04688C6.58109 6.85313 6.04047 7.52187 6.03734 7.5375C6.03109 7.55 6.30922 7.5625 6.65297 7.5625C7.21547 7.5625 7.29047 7.56875 7.40297 7.625C7.47172 7.65938 7.55297 7.73125 7.58422 7.7875C7.63109 7.88125 7.63734 8.05313 7.65297 9.65938L7.66859 11.4281C9.53422 9.175 10.078 8.50937 10.0842 8.49375C10.0873 8.48125 9.8061 8.46875 9.45922 8.46875C8.86234 8.46562 8.81859 8.4625 8.70297 8.39688C8.63734 8.35938 8.55922 8.28438 8.53109 8.23438C8.48734 8.15312 8.47797 7.925 8.45609 6.3625L8.43422 4.58437L7.23734 6.04688Z" fill="#ACB9CB"/>
</g>
<defs>
<clipPath id="clip0_556_4027">
<rect width="16" height="16" fill="white"/>
</clipPath>
</defs>
</svg>
