<svg width="16" height="16" viewBox="0 0 16 16" fill="none" xmlns="http://www.w3.org/2000/svg">
<g clip-path="url(#clip0_556_4033)">
<path fill-rule="evenodd" clip-rule="evenodd" d="M7.95312 0.00331336C8.37813 0.000188364 8.61875 0.0158134 8.9375 0.0626884C9.16875 0.100188 9.52812 0.168938 9.73438 0.222063C9.94063 0.275188 10.2437 0.365813 10.4062 0.428313C10.5688 0.487688 10.7531 0.565813 10.8125 0.597063C10.8719 0.631438 10.9531 0.709563 10.9906 0.775188C11.0281 0.837688 11.0594 0.937688 11.0625 0.993938C11.0625 1.04706 11.0094 1.21269 10.9438 1.35956C10.8813 1.50644 10.8344 1.63144 10.8438 1.63456C10.8531 1.64081 10.9781 1.71581 11.1187 1.80019C11.2625 1.88456 11.4875 2.03456 11.6187 2.13144C11.7531 2.23144 11.9781 2.42206 12.125 2.55644C12.2719 2.69081 12.4906 2.92206 12.6125 3.06581C12.7375 3.20956 12.9312 3.46894 13.0469 3.64081C13.1656 3.81269 13.35 4.13456 13.4594 4.35956C13.5688 4.58456 13.7125 4.93456 13.7781 5.14081C13.8469 5.34706 13.9281 5.65019 14.0219 6.10956L14.3625 6.12519C14.6031 6.13769 14.7344 6.15644 14.8062 6.19706C14.8625 6.22519 14.9344 6.30644 14.9688 6.37519C15.025 6.49081 15.0312 6.56269 15.0312 7.29706C15.0312 8.03144 15.025 8.10331 14.9688 8.21894C14.9281 8.30019 14.8656 8.36581 14.7906 8.40331C14.725 8.43456 14.5406 8.49394 14.0938 8.60956V9.75956C14.0938 10.8439 14.0906 10.9127 14.0312 11.0314C13.9969 11.1002 13.925 11.1814 13.8687 11.2127C13.7906 11.2533 13.6625 11.2689 12.9625 11.2971L12.8625 11.5783C12.8063 11.7314 12.7031 11.9783 12.5 12.3908L12.7625 12.6564C12.9062 12.8033 13.0406 12.9533 13.0594 12.9939C13.0781 13.0314 13.0938 13.1189 13.0938 13.1877C13.0938 13.2564 13.0781 13.3439 13.0594 13.3846C13.0406 13.4221 12.7063 13.7752 12.3156 14.1658C11.9281 14.5596 11.5719 14.9002 11.525 14.9252C11.475 14.9502 11.3813 14.9689 11.3125 14.9689C11.2437 14.9689 11.1562 14.9533 11.1187 14.9346C11.0781 14.9158 10.9281 14.7814 10.5156 14.3752L10.2656 14.5002C10.1281 14.5689 9.88125 14.6721 9.42188 14.8377L9.40625 15.2533C9.39375 15.5533 9.375 15.6971 9.34062 15.7658C9.3125 15.8158 9.2375 15.8908 9.175 15.9283C9.06563 16.0002 9.04688 16.0002 8 16.0002C6.95312 16.0002 6.93437 16.0002 6.825 15.9283C6.7625 15.8908 6.6875 15.8158 6.65938 15.7658C6.625 15.6971 6.60625 15.5533 6.57812 14.8377L6.29688 14.7377C6.14375 14.6814 5.89687 14.5783 5.48438 14.3721L5.21875 14.6377C5.07188 14.7814 4.92188 14.9158 4.88438 14.9346C4.84375 14.9533 4.75625 14.9689 4.6875 14.9689C4.61875 14.9689 4.525 14.9502 4.47813 14.9252C4.42813 14.9002 4.07188 14.5596 3.68438 14.1658C3.29375 13.7752 2.95937 13.4221 2.94062 13.3814C2.92188 13.3439 2.90625 13.2564 2.90625 13.1877C2.90625 13.1189 2.92188 13.0314 2.94062 12.9908C2.95937 12.9533 3.09375 12.8033 3.5 12.3908L3.36875 12.1252C3.29688 11.9783 3.19375 11.7314 3.0375 11.2971L2.6375 11.2814C2.3375 11.2689 2.20938 11.2533 2.13438 11.2096C2.075 11.1814 2.00312 11.1002 1.96875 11.0314C1.90938 10.9127 1.90625 10.8439 1.90625 8.59394L1.61875 8.52831C1.45937 8.49081 1.275 8.43456 1.2125 8.40331C1.13437 8.36581 1.07187 8.30019 1.03125 8.21894C0.975 8.10331 0.96875 8.03144 0.96875 7.29706C0.96875 6.56269 0.975 6.49081 1.03125 6.37519C1.06562 6.30644 1.1375 6.22519 1.19687 6.19394C1.26562 6.15644 1.39687 6.13769 1.97812 6.10956L2.0375 5.81269C2.07187 5.65019 2.15312 5.34706 2.22187 5.14081C2.2875 4.93456 2.43125 4.58456 2.54063 4.35956C2.65 4.13456 2.83438 3.81269 2.95312 3.64081C3.06875 3.46894 3.2625 3.20956 3.3875 3.06581C3.50938 2.92206 3.71563 2.70331 3.84375 2.58456C3.97187 2.46269 4.2125 2.26581 4.375 2.14394C4.5375 2.02206 4.77813 1.85956 4.90625 1.78456C5.03438 1.70956 5.14375 1.64081 5.15 1.63769C5.15313 1.63144 5.10625 1.50956 5.04688 1.36581C4.9875 1.22519 4.9375 1.05956 4.94063 1.00019C4.94063 0.940813 4.97188 0.837688 5.00938 0.772063C5.05938 0.681438 5.12813 0.628313 5.26562 0.562688C5.36875 0.512688 5.6 0.425188 5.78125 0.365813C5.9625 0.303313 6.20937 0.231438 6.32812 0.203313C6.45 0.175188 6.7375 0.118938 6.96875 0.0783134C7.29063 0.0251884 7.52187 0.00643836 7.95312 0.00331336ZM7.04688 1.01894C6.875 1.04394 6.575 1.10956 6.38125 1.16581C6.1875 1.22206 6.03437 1.28144 6.04375 1.29706C6.05 1.31269 6.3875 2.06894 6.79375 2.97831C7.225 3.94394 7.53125 4.66269 7.53125 4.71894C7.53125 4.77206 7.50313 4.86894 7.46875 4.93769C7.42708 5.02102 7.36458 5.08352 7.28125 5.12519C7.2125 5.15956 7.11562 5.18769 7.0625 5.18769C7.0125 5.18769 6.91563 5.16269 6.85313 5.12831C6.7875 5.09706 6.7125 5.03769 6.68437 4.99706C6.65937 4.95644 6.42188 4.43769 6.15625 3.84394C5.89375 3.25019 5.64688 2.70644 5.6125 2.63456L5.54688 2.50331C5.40312 2.58144 5.23438 2.68769 5.08125 2.79394C4.92813 2.89706 4.66875 3.10956 4.50625 3.26581C4.34062 3.42206 4.11563 3.66269 4.00313 3.80331C3.89063 3.94394 3.70938 4.20331 3.60313 4.38144C3.49375 4.55956 3.34375 4.85019 3.26875 5.03144C3.19062 5.21269 3.09375 5.47831 3.05312 5.62519C3.00937 5.77206 2.96562 5.94394 2.95625 6.00956L2.9375 6.12519H13.0625C13.0312 5.94394 12.9875 5.77206 12.9469 5.62519C12.9062 5.47831 12.8094 5.21269 12.7344 5.03144C12.6562 4.85019 12.5094 4.56269 12.4031 4.39081C12.3 4.21894 12.125 3.96581 12.0188 3.82831C11.9094 3.69081 11.675 3.44081 11.4969 3.26894C11.3187 3.10019 11.0125 2.85331 10.8188 2.72206C10.625 2.59081 10.4594 2.49081 10.4531 2.50019C10.4469 2.50956 10.2031 3.04394 9.9125 3.68769C9.62188 4.33144 9.3625 4.90644 9.33438 4.96269C9.30313 5.01894 9.22812 5.08769 9.15625 5.12519C9.0875 5.15956 8.9875 5.18769 8.9375 5.18769C8.8875 5.18769 8.7875 5.15956 8.71875 5.12519C8.63542 5.08352 8.57292 5.02102 8.53125 4.93769C8.49687 4.86894 8.46875 4.77206 8.46875 4.71894C8.46875 4.66269 8.77812 3.92831 9.21875 2.94394C9.63125 2.02206 9.9625 1.26269 9.95938 1.25956C9.95625 1.25644 9.825 1.21894 9.67188 1.17206C9.51875 1.12831 9.22812 1.06269 9.03125 1.02831C8.7875 0.984563 8.49375 0.959563 8.125 0.953313C7.825 0.947063 7.52812 0.950188 7.46875 0.956438C7.40938 0.962688 7.21875 0.990813 7.04688 1.01894ZM1.90625 7.64081C2.15937 7.70019 2.45312 7.76581 2.71875 7.82519C2.98438 7.88769 3.47187 7.98456 3.79688 8.04394C4.125 8.10331 4.5875 8.18144 4.82812 8.21581C5.06875 8.25019 5.45 8.30019 5.67188 8.32519C5.89687 8.35019 6.28125 8.39081 6.53125 8.41269C6.79063 8.43456 7.42812 8.45019 8.03125 8.45019C8.76562 8.45019 9.25 8.43144 9.65625 8.39394C9.975 8.36581 10.4531 8.31269 10.7188 8.27831C10.9844 8.24394 11.45 8.17519 11.75 8.12519C12.05 8.07519 12.4719 7.99706 12.6875 7.95331C12.9031 7.90956 13.3062 7.82206 13.5875 7.75644L14.0938 7.64081V7.06269H1.90625V7.64081ZM2.84375 10.3439C3.4375 10.3439 3.525 10.3564 3.625 10.4064C3.71563 10.4502 3.76875 10.5064 3.8125 10.6002C3.84687 10.6752 3.90937 10.8689 3.95625 11.0314C4 11.1939 4.08437 11.4346 4.14062 11.5627C4.19688 11.6908 4.30625 11.9033 4.38438 12.0314C4.4625 12.1596 4.5375 12.3096 4.55 12.3596C4.5625 12.4096 4.5625 12.5033 4.55 12.5627C4.53125 12.6408 4.45625 12.7439 4.27187 12.9314L4.01562 13.1908L4.6875 13.8596C5.13125 13.4221 5.23438 13.3439 5.3125 13.3283C5.375 13.3158 5.46562 13.3158 5.51562 13.3283C5.56875 13.3377 5.675 13.3877 5.75 13.4377C5.82812 13.4877 5.99687 13.5783 6.125 13.6439C6.25625 13.7064 6.44375 13.7908 6.54688 13.8283C6.65 13.8689 6.85313 13.9314 6.99375 13.9658C7.13438 14.0033 7.2875 14.0564 7.33437 14.0846C7.37812 14.1158 7.44062 14.1939 7.475 14.2564C7.52187 14.3502 7.53125 14.4471 7.53125 14.7189V15.0627H8.46875C8.46875 14.4377 8.48125 14.3533 8.53125 14.2502C8.57812 14.1596 8.63437 14.1064 8.72812 14.0658C8.8 14.0314 8.99375 13.9658 9.15625 13.9221C9.32187 13.8752 9.54688 13.8002 9.65625 13.7502C9.76875 13.7002 9.95312 13.6096 10.0625 13.5439C10.175 13.4814 10.3156 13.4002 10.375 13.3689C10.4375 13.3377 10.525 13.3127 10.5719 13.3127C10.6187 13.3127 10.6969 13.3283 10.7437 13.3471C10.7906 13.3627 10.9375 13.4877 11.0719 13.6189L11.3156 13.8596L11.9844 13.1877C11.6125 12.8127 11.4906 12.6658 11.4719 12.6158C11.4531 12.5689 11.4375 12.4939 11.4375 12.4439C11.4375 12.3971 11.4656 12.3096 11.4969 12.2502C11.5281 12.1908 11.6094 12.0439 11.6781 11.9221C11.75 11.8002 11.8562 11.5752 11.9156 11.4221C11.9781 11.2658 12.0562 11.0252 12.0938 10.8814C12.1281 10.7408 12.1812 10.5877 12.2125 10.5439C12.2437 10.4971 12.3187 10.4346 12.3844 10.4033C12.475 10.3564 12.5719 10.3439 12.8281 10.3439H13.1562V8.82831C12.6125 8.93144 12.175 9.00956 11.8375 9.06894L11.2188 9.17206C11.2563 9.46269 11.2656 9.73769 11.2625 9.96894C11.2594 10.2783 11.2406 10.4533 11.1938 10.6252C11.1594 10.7533 11.0906 10.9721 11.0375 11.1096C10.9844 11.2471 10.8531 11.4939 10.7469 11.6564C10.6406 11.8189 10.4469 12.0596 10.3156 12.1908C10.1875 12.3221 9.95312 12.5096 9.79688 12.6096C9.64375 12.7127 9.4125 12.8377 9.28125 12.8939C9.15312 12.9471 8.92188 13.0252 8.76562 13.0658C8.525 13.1283 8.41563 13.1377 7.98438 13.1377C7.58437 13.1346 7.44063 13.1221 7.25 13.0721C7.12187 13.0346 6.90312 12.9627 6.76562 12.9096C6.62813 12.8564 6.38438 12.7283 6.21875 12.6221C6.05625 12.5158 5.81562 12.3221 5.68437 12.1908C5.55625 12.0596 5.3625 11.8189 5.25625 11.6564C5.15 11.4939 5.01875 11.2471 4.96562 11.1096C4.9125 10.9721 4.84375 10.7533 4.80937 10.6252C4.775 10.4971 4.74062 10.2439 4.73125 10.0627C4.71875 9.87519 4.72812 9.61269 4.74687 9.45331C4.76875 9.29706 4.78125 9.16894 4.775 9.16894C4.77188 9.16581 4.45625 9.10956 4.07812 9.04706C3.7 8.98456 3.26562 8.90644 3.1125 8.87831L2.83437 8.82206L2.84375 10.3439ZM5.69688 9.47206C5.675 9.58144 5.65625 9.76581 5.65625 9.88144C5.65625 9.99706 5.67813 10.2002 5.70625 10.3346C5.73438 10.4689 5.79063 10.6627 5.83437 10.7658C5.87812 10.8689 5.9625 11.0283 6.02187 11.1252C6.08437 11.2189 6.21875 11.3846 6.325 11.4939C6.43125 11.6033 6.60625 11.7533 6.71875 11.8283C6.83125 11.9002 7.00625 11.9971 7.10938 12.0408C7.2125 12.0814 7.40625 12.1408 7.54063 12.1689C7.67188 12.1939 7.88125 12.2189 8 12.2189C8.12187 12.2189 8.32812 12.1939 8.4625 12.1689C8.59375 12.1408 8.7875 12.0814 8.89062 12.0408C8.99375 11.9971 9.16875 11.9002 9.28125 11.8283C9.39375 11.7564 9.56875 11.6096 9.67188 11.5033C9.775 11.3971 9.90625 11.2377 9.96562 11.1471C10.0219 11.0564 10.1031 10.9064 10.1438 10.8127C10.1875 10.7158 10.2438 10.5564 10.2719 10.4533C10.3031 10.3377 10.325 10.1314 10.325 9.92206C10.3281 9.73144 10.3156 9.50644 10.3031 9.42206L10.2781 9.26581C10.05 9.30019 9.775 9.32831 9.51562 9.34706C9.25625 9.36894 8.575 9.38769 7.98438 9.38769C7.4 9.38769 6.725 9.36894 6.48438 9.34706C6.24375 9.32519 5.97813 9.30019 5.89062 9.29081L5.73438 9.27206L5.69688 9.47206Z" fill="#ACB9CB"/>
</g>
<defs>
<clipPath id="clip0_556_4033">
<rect width="16" height="16" fill="white"/>
</clipPath>
</defs>
</svg>
