<svg width="16" height="16" viewBox="0 0 16 16" fill="none" xmlns="http://www.w3.org/2000/svg">
<path fill-rule="evenodd" clip-rule="evenodd" d="M5.3375 0.846875C5.40938 0.84375 5.5 0.859375 5.5375 0.878125C5.57812 0.896875 6.14687 1.45 8 3.29688L9.19375 2.10625C9.85313 1.45 10.4219 0.896875 10.4594 0.878125C10.5 0.859375 10.5875 0.84375 10.6562 0.84375C10.7344 0.84375 10.825 0.871875 10.8969 0.915625C10.9625 0.95625 11.0375 1.025 11.0656 1.06562C11.0938 1.10625 11.1281 1.175 11.1406 1.21875C11.1531 1.2625 11.1531 1.35938 11.1406 1.4375C11.1219 1.57187 11.075 1.62188 9.20312 3.5H10.8813C12.1875 3.5 12.6125 3.50938 12.7875 3.54375C12.9125 3.56875 13.1125 3.625 13.2344 3.675C13.3562 3.72187 13.5375 3.80938 13.6406 3.87188C13.7437 3.93438 13.9187 4.06875 14.0281 4.17188C14.1375 4.275 14.2875 4.44375 14.3625 4.54688C14.4344 4.65 14.5375 4.825 14.5906 4.9375C14.6438 5.05 14.7219 5.28125 14.8438 5.76562V9.3125C14.8438 12.7156 14.8406 12.8719 14.7812 13.1562C14.7437 13.3469 14.6719 13.5562 14.5844 13.7344C14.5094 13.8875 14.375 14.1062 14.2844 14.2188C14.1969 14.3313 14.0438 14.4906 13.9438 14.5719C13.8469 14.6562 13.675 14.775 13.5625 14.8375C13.45 14.9 13.2875 14.9781 13.2031 15.0094C13.1156 15.0437 12.9156 15.0969 12.7563 15.1281C12.4813 15.1844 12.2625 15.1875 8 15.1875C3.73438 15.1875 3.51875 15.1844 3.24062 15.1281C3.08437 15.0969 2.875 15.0375 2.78125 15C2.6875 14.9625 2.525 14.8844 2.42188 14.8281C2.31875 14.7688 2.15313 14.6562 2.05625 14.5719C1.95938 14.4906 1.80312 14.3281 1.7125 14.2156C1.62187 14.1 1.49375 13.8969 1.425 13.7625C1.35937 13.625 1.275 13.4031 1.2375 13.2656C1.17187 13.0188 1.17188 12.9875 1.17188 5.60938L1.25625 5.33437C1.30625 5.18437 1.38125 4.9875 1.425 4.89687C1.47187 4.80937 1.56563 4.65 1.64062 4.54688C1.7125 4.44375 1.875 4.2625 2.00312 4.14687C2.17187 3.9875 2.31875 3.89062 2.54688 3.77813C2.71875 3.69375 2.94375 3.6 3.04688 3.57188C3.2125 3.525 3.44688 3.51562 6.79688 3.49688L5.85313 2.55312C5.33437 2.03437 4.89375 1.57188 4.875 1.52188C4.85938 1.475 4.84375 1.39375 4.84375 1.34375C4.84375 1.29063 4.87188 1.19375 4.90625 1.125C4.94062 1.05625 5.02187 0.965625 5.08437 0.925C5.1625 0.875 5.25 0.846875 5.33437 0.846875H5.3375ZM2.94062 4.69375C2.8625 4.7375 2.74375 4.825 2.675 4.88125C2.60625 4.94062 2.5 5.06563 2.4375 5.15938C2.37188 5.25313 2.2875 5.41875 2.25 5.53125L2.175 5.73438C2.15937 11.5969 2.16875 12.7406 2.19062 12.8906C2.20937 13.0125 2.26875 13.2 2.32188 13.3125C2.3875 13.4469 2.49063 13.5844 2.625 13.7188C2.75 13.8438 2.90313 13.9594 3.00938 14.0094C3.10938 14.0562 3.25 14.1062 3.32188 14.125C3.40625 14.1438 5.15938 14.1562 8.00313 14.1562C11.0688 14.1562 12.5969 14.1438 12.6906 14.1219C12.7688 14.1031 12.9094 14.0531 13.0031 14.0094C13.1031 13.9594 13.2594 13.8406 13.3813 13.7219C13.5156 13.5875 13.6219 13.4438 13.6844 13.3125C13.7469 13.1844 13.7937 13.0188 13.8156 12.8594C13.8375 12.6875 13.8469 11.5188 13.8406 9.17188L13.8313 5.73438C13.7188 5.41875 13.6375 5.25625 13.5813 5.17188C13.5219 5.08437 13.4281 4.97188 13.3719 4.91563C13.3156 4.8625 13.1844 4.76563 13.0813 4.70625C12.9781 4.64375 12.8 4.57188 12.6812 4.54688C12.5 4.50625 11.8594 4.5 7.97813 4.50313C3.85625 4.50313 3.47187 4.50938 3.28437 4.55625C3.17188 4.58438 3.01875 4.64687 2.94062 4.69375ZM7.675 7.025L8.8375 7.60625C9.84375 8.10938 10.025 8.20937 10.1594 8.34375C10.2438 8.42812 10.3531 8.58125 10.4 8.67813C10.4781 8.8375 10.4875 8.89688 10.4875 9.17188C10.4875 9.45312 10.4781 9.50313 10.4 9.65625C10.35 9.75 10.2594 9.88125 10.1969 9.95C10.1344 10.0156 9.60313 10.3906 9.01875 10.7812C8.43438 11.1719 7.89375 11.525 7.81563 11.5656C7.69375 11.6313 7.63438 11.6406 7.34688 11.6406C7.05313 11.6406 7 11.6313 6.8375 11.5531C6.74062 11.5063 6.59688 11.4062 6.51875 11.3281C6.44063 11.25 6.34375 11.1219 6.30312 11.0375C6.2625 10.9563 6.2125 10.8062 6.19063 10.7031C6.16563 10.5719 6.15938 10.125 6.16563 9.21875C6.175 7.975 6.17812 7.91563 6.24375 7.75C6.28125 7.65 6.38125 7.5 6.47813 7.39375C6.56875 7.29375 6.7 7.18125 6.76875 7.14687C6.8375 7.1125 6.95 7.06563 7.01875 7.04063C7.1 7.01562 7.2375 7.00313 7.675 7.025ZM7.15625 9.32812C7.15938 10.3313 7.16563 10.525 7.20625 10.5844C7.23438 10.6281 7.28438 10.6562 7.33125 10.6562C7.38125 10.6562 7.78438 10.4062 8.44063 9.96875C9.00625 9.59062 9.48125 9.25625 9.49063 9.225C9.50313 9.19688 9.50312 9.14375 9.49375 9.10938C9.47812 9.06563 9.17813 8.9 8.425 8.52188C7.85 8.23438 7.35 8 7.31563 8C7.28438 8 7.23438 8.03125 7.20625 8.06875C7.15938 8.13125 7.15312 8.26875 7.15625 9.32812Z" fill="#ACB9CB"/>
</svg>
