<svg width="16" height="16" viewBox="0 0 16 16" fill="none" xmlns="http://www.w3.org/2000/svg">
<g clip-path="url(#clip0_556_4039)">
<path fill-rule="evenodd" clip-rule="evenodd" d="M4.21865 0.034375C4.33428 0.034375 4.5499 0.0625 4.71865 0.10625C4.88115 0.146875 5.11553 0.228125 5.23428 0.2875C5.35303 0.35 5.54053 0.46875 5.6499 0.559375C5.75615 0.646875 5.90615 0.8 5.98428 0.9C6.0624 0.996875 6.17178 1.175 6.23115 1.29687C6.29053 1.41875 6.3624 1.60625 6.39365 1.71875C6.43115 1.85625 6.4499 2.0375 6.4499 2.28125C6.4499 2.57187 6.4374 2.68437 6.37803 2.875C6.3374 3.00312 6.26553 3.1875 6.21865 3.28125C6.17178 3.375 6.05928 3.54687 5.8124 3.875L6.06865 3.99375C6.2124 4.0625 6.40615 4.16562 6.4999 4.225C6.59365 4.28437 6.77803 4.41875 6.90615 4.52187C7.03428 4.625 7.21553 4.79375 7.30928 4.89375C7.40303 4.99687 7.55928 5.18437 7.65303 5.3125C7.7499 5.44062 7.8624 5.61562 7.90615 5.69687C7.9499 5.77812 7.99053 5.84375 7.9999 5.84375C8.00928 5.84375 8.0499 5.77812 8.09365 5.69687C8.1374 5.61562 8.25303 5.43437 8.35615 5.29687C8.45615 5.15937 8.6624 4.92812 8.80928 4.78125C8.95928 4.63437 9.20615 4.42812 9.35928 4.32187C9.51553 4.21875 9.7624 4.07187 10.1874 3.875L10.028 3.6625C9.94053 3.54687 9.82803 3.375 9.78115 3.28125C9.73428 3.1875 9.6624 3.00312 9.62178 2.875C9.5624 2.68437 9.5499 2.57187 9.5499 2.28125C9.5499 2.0375 9.56865 1.85625 9.60615 1.71875C9.6374 1.60625 9.70928 1.41875 9.76865 1.29687C9.8249 1.175 9.94053 0.99375 10.0249 0.890625C10.1062 0.7875 10.2593 0.6375 10.3593 0.553125C10.4624 0.471875 10.6437 0.353125 10.7655 0.290625C10.8874 0.228125 11.1187 0.14375 11.2812 0.10625C11.4437 0.065625 11.6624 0.03125 11.7655 0.03125C11.8687 0.03125 12.0874 0.065625 12.2499 0.10625C12.4124 0.146875 12.6437 0.228125 12.7655 0.2875C12.8874 0.35 13.0718 0.46875 13.178 0.559375C13.2874 0.646875 13.4374 0.8 13.5155 0.9C13.5937 0.996875 13.703 1.175 13.7624 1.29687C13.8218 1.41875 13.8937 1.60625 13.9249 1.71875C13.9624 1.85625 13.9812 2.0375 13.9812 2.28125C13.9812 2.57187 13.9687 2.68437 13.9093 2.875C13.8687 3.00312 13.7968 3.1875 13.7499 3.28125C13.703 3.375 13.5905 3.54687 13.3437 3.875L13.553 3.97187C13.6718 4.025 13.903 4.15625 14.0687 4.26875C14.2374 4.37812 14.503 4.59062 14.6593 4.74375C14.8155 4.89375 15.0343 5.13437 15.1437 5.28125C15.2562 5.42812 15.4218 5.69375 15.5155 5.875C15.6062 6.05625 15.7249 6.33125 15.7749 6.48437C15.828 6.6375 15.8968 6.91875 15.9343 7.10937C15.978 7.3375 15.9999 7.57812 15.9999 7.82187C15.9999 8.0625 15.978 8.29062 15.9374 8.49375C15.903 8.65937 15.8468 8.8875 15.8093 9C15.7749 9.1125 15.6874 9.31562 15.6187 9.45312C15.5499 9.59062 15.4218 9.80937 15.3343 9.9375C15.2437 10.0656 15.053 10.2875 14.9062 10.4281C14.7593 10.5687 13.1562 11.8625 11.3437 13.3C9.53115 14.7375 8.03428 15.9219 8.01553 15.9281C7.99678 15.9344 6.49365 14.7562 4.67178 13.3094C2.8499 11.8625 1.28115 10.6125 1.1874 10.5312C1.09365 10.45 0.924902 10.2687 0.812402 10.125C0.699902 9.98437 0.556152 9.775 0.490527 9.6625C0.421777 9.54688 0.331152 9.3625 0.281152 9.25C0.234277 9.1375 0.156152 8.9 0.109277 8.71875C0.0405273 8.45937 0.0186523 8.29687 0.00927734 7.95312C-0.00322266 7.59687 0.00615234 7.44687 0.0624023 7.14062C0.0967773 6.93437 0.168652 6.64375 0.221777 6.49375C0.271777 6.34062 0.381152 6.08125 0.465527 5.91562C0.549902 5.74687 0.709277 5.48438 0.815527 5.33125C0.924902 5.18125 1.1499 4.925 1.3124 4.76562C1.4749 4.60937 1.7499 4.3875 1.92178 4.27187C2.09365 4.15937 2.32803 4.025 2.65615 3.875L2.49678 3.66562C2.40928 3.54688 2.29678 3.375 2.2499 3.28125C2.20303 3.1875 2.13115 3.00312 2.09053 2.875C2.03115 2.68437 2.01865 2.57187 2.01865 2.28125C2.01865 2.0375 2.0374 1.85625 2.0749 1.71875C2.10615 1.60625 2.17803 1.41875 2.2374 1.29687C2.29365 1.17812 2.40928 0.99375 2.49365 0.890625C2.5749 0.7875 2.72803 0.6375 2.82803 0.553125C2.93115 0.471875 3.11553 0.353125 3.23428 0.290625C3.35303 0.228125 3.57803 0.146875 3.73428 0.10625C3.89053 0.06875 4.10615 0.034375 4.21865 0.034375ZM3.59365 1.1625C3.51553 1.20625 3.39053 1.30312 3.31553 1.37812C3.24053 1.45312 3.14053 1.59375 3.09365 1.6875C3.04365 1.78125 2.9874 1.95937 2.96553 2.07812C2.93428 2.25 2.93428 2.3375 2.9624 2.48437C2.98428 2.5875 3.03428 2.74375 3.07178 2.82812C3.1124 2.91562 3.20615 3.05312 3.28115 3.13437C3.35928 3.21875 3.48428 3.325 3.5624 3.375C3.64053 3.425 3.78115 3.48437 3.8749 3.5125C3.96865 3.54062 4.13115 3.5625 4.23428 3.5625C4.3374 3.5625 4.4999 3.54062 4.59365 3.5125C4.6874 3.48437 4.82803 3.425 4.90615 3.375C4.98428 3.325 5.10928 3.21875 5.1874 3.13437C5.2624 3.05312 5.35615 2.91562 5.39678 2.82812C5.43428 2.74375 5.48428 2.5875 5.50615 2.48437C5.53428 2.3375 5.53428 2.25 5.50303 2.07812C5.48115 1.95937 5.4249 1.78125 5.3749 1.6875C5.32803 1.59375 5.21865 1.44687 5.13428 1.36562C5.05303 1.28125 4.89365 1.16875 4.78115 1.11562C4.60303 1.02812 4.54365 1.01562 4.28115 1.00937C4.10303 1.00312 3.93428 1.01562 3.85928 1.04062C3.79053 1.0625 3.67178 1.11875 3.59365 1.1625ZM11.1249 1.1625C11.0468 1.20625 10.9218 1.30312 10.8468 1.37812C10.7718 1.45312 10.6718 1.59375 10.6249 1.6875C10.5749 1.78125 10.5187 1.95937 10.4968 2.07812C10.4655 2.25 10.4655 2.3375 10.4937 2.48437C10.5155 2.5875 10.5655 2.74375 10.603 2.82812C10.6437 2.91562 10.7374 3.05312 10.8124 3.13437C10.8905 3.21875 11.0155 3.325 11.0937 3.375C11.1718 3.425 11.3124 3.48437 11.4062 3.5125C11.4999 3.54062 11.6624 3.5625 11.7655 3.5625C11.8687 3.5625 12.0312 3.54062 12.1249 3.5125C12.2187 3.48437 12.3593 3.425 12.4374 3.375C12.5155 3.325 12.6405 3.21875 12.7187 3.13437C12.7937 3.05312 12.8874 2.91562 12.928 2.82812C12.9655 2.74375 13.0155 2.5875 13.0374 2.48437C13.0655 2.3375 13.0655 2.25 13.0343 2.07812C13.0124 1.95937 12.9562 1.78125 12.9062 1.6875C12.8593 1.59375 12.7499 1.44687 12.6655 1.36562C12.5843 1.28125 12.4249 1.16875 12.3124 1.11562C12.1343 1.02812 12.0749 1.01562 11.8124 1.00937C11.6343 1.00312 11.4655 1.01562 11.3905 1.04062C11.3218 1.0625 11.203 1.11875 11.1249 1.1625ZM3.3749 4.62812C3.24678 4.6625 3.04053 4.73437 2.92178 4.7875C2.80303 4.8375 2.59053 4.95312 2.45303 5.04375C2.31553 5.13437 2.1124 5.29063 2.00303 5.39375C1.89365 5.49375 1.71865 5.69062 1.61553 5.82812C1.5124 5.96562 1.35928 6.21875 1.27803 6.39062C1.19365 6.5625 1.0874 6.84375 1.04365 7.01562C0.971777 7.28437 0.959277 7.39375 0.956152 7.79687C0.956152 8.15937 0.968652 8.31562 1.0124 8.48437C1.04365 8.60625 1.1249 8.82187 1.19365 8.96875C1.2624 9.11562 1.37803 9.31875 1.45303 9.42187C1.52803 9.525 1.6624 9.68125 1.75615 9.76875C1.84678 9.85938 2.6874 10.5375 3.6249 11.2812L5.32803 12.6312C5.3624 11.2781 5.37803 11.0969 5.42803 10.9062C5.46553 10.7781 5.53428 10.5812 5.58428 10.4687C5.63428 10.3562 5.7374 10.175 5.8124 10.0625C5.89053 9.95 6.03115 9.77812 6.13115 9.68125C6.23115 9.58125 6.39053 9.44687 6.48428 9.38437C6.58115 9.31875 6.65928 9.25937 6.65928 9.25C6.65615 9.24062 6.61865 9.18437 6.5749 9.125C6.52803 9.06562 6.44365 8.9125 6.3874 8.79062C6.31865 8.64375 6.26865 8.46875 6.24365 8.30625C6.21553 8.10625 6.21553 7.99062 6.24365 7.79687C6.26865 7.625 6.31865 7.46875 6.40303 7.29687C6.47178 7.15625 6.5999 6.96562 6.69053 6.8625C6.78428 6.7625 6.94053 6.62812 7.04053 6.56562C7.14053 6.50312 7.22178 6.44375 7.21865 6.43125C7.21865 6.41562 7.1874 6.34687 7.15303 6.275C7.11553 6.2 7.01865 6.04375 6.93428 5.92187C6.85303 5.80312 6.66865 5.59062 6.5249 5.45C6.38115 5.3125 6.1749 5.1375 6.0624 5.0625C5.9499 4.9875 5.74678 4.87187 5.60928 4.80937C5.47178 4.74375 5.24678 4.6625 5.10928 4.62812C4.97178 4.59062 4.75303 4.55 4.6249 4.53125C4.49678 4.51562 4.30615 4.50312 4.20303 4.50625C4.0999 4.50625 3.9249 4.51875 3.8124 4.53437C3.6999 4.55 3.50303 4.59062 3.3749 4.62812ZM10.8905 4.62812C10.753 4.6625 10.5343 4.74062 10.4062 4.8C10.278 4.8625 10.0593 4.98437 9.92178 5.07812C9.78428 5.16875 9.55928 5.3625 9.41865 5.50625C9.28115 5.64687 9.10928 5.85 9.04053 5.95312C8.97178 6.05625 8.88428 6.2 8.84678 6.275C8.8124 6.34687 8.78115 6.41562 8.78115 6.43125C8.77803 6.44375 8.85928 6.50312 8.95928 6.56562C9.05928 6.62812 9.21553 6.7625 9.30928 6.8625C9.3999 6.96562 9.52803 7.15625 9.59678 7.29687C9.68115 7.46875 9.73115 7.625 9.75615 7.79687C9.78428 7.98125 9.78428 8.10937 9.75928 8.28125C9.74053 8.40937 9.69678 8.59375 9.6624 8.6875C9.6249 8.78125 9.54053 8.94375 9.47178 9.04687C9.40303 9.15 9.34365 9.24062 9.34365 9.25C9.34365 9.25937 9.41553 9.31562 9.50615 9.37812C9.59678 9.44062 9.7624 9.58125 9.87178 9.69062C9.98115 9.8 10.128 9.975 10.1968 10.0781C10.2687 10.1812 10.3655 10.3562 10.4155 10.4687C10.4655 10.5812 10.5343 10.7781 10.5718 10.9062C10.6218 11.0969 10.6374 11.2781 10.653 11.8875L10.6718 12.6344C13.3124 10.5406 14.153 9.85938 14.2437 9.76875C14.3374 9.68125 14.4718 9.525 14.5468 9.42187C14.6218 9.31875 14.7374 9.11562 14.8062 8.96875C14.8749 8.82187 14.9562 8.60625 14.9874 8.48437C15.0312 8.31562 15.0437 8.15937 15.0437 7.79687C15.0405 7.39375 15.028 7.28437 14.9562 7.01562C14.9124 6.84375 14.8062 6.5625 14.7218 6.39062C14.6405 6.21875 14.4874 5.96562 14.3843 5.82812C14.2812 5.69062 14.1062 5.49375 13.9968 5.39375C13.8874 5.29063 13.6843 5.13437 13.5468 5.04375C13.4093 4.95312 13.1905 4.83437 13.0624 4.78125C12.9343 4.725 12.6937 4.64687 12.5312 4.60625C12.3405 4.55625 12.1093 4.525 11.8905 4.51562C11.6999 4.50937 11.4562 4.51562 11.3437 4.53125C11.2312 4.54687 11.028 4.59062 10.8905 4.62812ZM7.51865 7.38125C7.41657 7.45 7.33324 7.54167 7.26865 7.65625C7.18428 7.80625 7.17178 7.85937 7.17178 8.0625C7.17178 8.2375 7.19053 8.32812 7.2374 8.42187C7.2749 8.49062 7.35303 8.59375 7.40928 8.65312C7.46865 8.70937 7.57178 8.7875 7.64053 8.825C7.73428 8.87187 7.82178 8.89062 7.9999 8.89062C8.17803 8.89062 8.26553 8.87187 8.35928 8.825C8.42803 8.7875 8.53115 8.70937 8.59053 8.65312C8.64678 8.59375 8.7249 8.49062 8.75928 8.42187C8.79053 8.35312 8.82803 8.22812 8.83428 8.14062C8.84365 8.05625 8.83428 7.92812 8.81865 7.85937C8.7999 7.79062 8.7374 7.66562 8.68115 7.58125C8.6124 7.475 8.52178 7.39687 8.40615 7.33437C8.28115 7.2625 8.18428 7.2375 8.04678 7.23125C7.94365 7.225 7.81865 7.23437 7.76553 7.25C7.71553 7.26562 7.60303 7.325 7.51865 7.38125ZM7.2499 10.0219C7.07803 10.1031 6.95615 10.1937 6.79678 10.3562C6.6749 10.4781 6.54053 10.65 6.49365 10.7344C6.44678 10.8219 6.38115 11.0031 6.34365 11.1406C6.2874 11.3687 6.28115 11.4812 6.28115 12.3906V13.3906L7.9999 14.75C9.1749 13.8219 9.5624 13.5156 9.61553 13.4719L9.71865 13.3906C9.71865 11.6594 9.70615 11.3687 9.67178 11.2031C9.64678 11.0812 9.58115 10.8937 9.5249 10.7812C9.4624 10.6469 9.3499 10.5031 9.20615 10.3562C9.04365 10.1937 8.92178 10.1031 8.7499 10.0219C8.62178 9.9625 8.43115 9.89687 8.32803 9.87812C8.2249 9.85938 8.0624 9.84375 7.96865 9.84687C7.8749 9.85 7.72803 9.8625 7.64053 9.88125C7.55615 9.89687 7.37803 9.95937 7.2499 10.0219Z" fill="#ACB9CB"/>
</g>
<defs>
<clipPath id="clip0_556_4039">
<rect width="16" height="16" fill="white"/>
</clipPath>
</defs>
</svg>
