<svg width="16" height="16" viewBox="0 0 16 16" fill="none" xmlns="http://www.w3.org/2000/svg">
<g clip-path="url(#clip0_556_4042)">
<path fill-rule="evenodd" clip-rule="evenodd" d="M2.8375 0.003125C2.92188 0 3.00937 0.025 3.08125 0.06875C3.14375 0.109375 3.21875 0.18125 3.24688 0.234375C3.2875 0.3125 3.3 0.48125 3.3125 1.23438C3.32812 2.06562 3.33437 2.15313 3.39375 2.28125C3.42812 2.35938 3.50625 2.475 3.56562 2.54063C3.625 2.60938 3.75 2.7 3.84375 2.74375C3.98438 2.8125 4.05937 2.82812 4.25 2.82812C4.44063 2.82812 4.51562 2.8125 4.65625 2.74375C4.75 2.7 4.875 2.60938 4.93437 2.54063C4.99375 2.475 5.07187 2.35938 5.10625 2.28125C5.16562 2.15313 5.17188 2.06562 5.1875 1.23438C5.2 0.48125 5.2125 0.3125 5.25313 0.234375C5.28125 0.18125 5.35625 0.109375 5.41875 0.06875C5.48438 0.028125 5.58125 0 5.65625 0C5.73125 0 5.82812 0.028125 5.9 0.071875C5.98438 0.128125 6.05 0.2125 6.15312 0.409375C6.22812 0.553125 6.36875 0.790625 6.4625 0.9375C6.55625 1.08438 6.69687 1.2875 6.77812 1.39062C6.85625 1.49375 7.17188 1.8375 7.48438 2.15625C7.79375 2.475 8.09375 2.8125 8.14688 2.90625C8.20312 3 8.28438 3.1625 8.325 3.26562C8.36875 3.36875 8.41875 3.55938 8.44063 3.6875C8.45938 3.81562 8.46875 4.02812 8.45625 4.15625C8.44375 4.33437 8.4125 4.44375 8.33438 4.60938C8.275 4.72813 8.16562 4.9125 8.0875 5.01562C8.00937 5.11875 7.7 5.4375 7.40312 5.72188C7.10312 6.00625 6.8125 6.30938 6.75938 6.39375C6.70312 6.47813 6.65625 6.5875 6.65625 6.64062C6.65625 6.69375 6.70625 6.81875 6.77187 6.93125C6.8375 7.04063 7.04375 7.29375 7.22813 7.49375C7.41563 7.69688 7.64687 7.96562 7.74687 8.09375C7.84375 8.22188 7.9875 8.45625 8.06875 8.60938C8.14688 8.7625 8.24687 9.00313 8.29062 9.14062C8.33437 9.27812 8.39062 9.475 8.4125 9.57812C8.4375 9.69063 8.45 9.98125 8.45 10.3125C8.45 10.6781 8.43125 10.9625 8.39375 11.1719C8.36563 11.3438 8.30625 11.6469 8.2625 11.8438C8.21875 12.0406 8.075 12.5969 7.94688 13.0781C7.81875 13.5594 7.66875 14.1281 7.6125 14.3438C7.55625 14.5594 7.4875 14.7812 7.45937 14.8375C7.425 14.9031 7.32812 14.9844 7.18125 15.075C7.05625 15.1531 6.77812 15.3 6.5625 15.4031C6.34688 15.5062 6.00313 15.6469 5.79688 15.7156C5.59062 15.7844 5.24687 15.875 5.03125 15.9187C4.73438 15.9812 4.54688 16 4.25 16C3.98438 16 3.75938 15.9781 3.54688 15.9375C3.375 15.9031 3.10938 15.8375 2.95312 15.7937C2.79688 15.75 2.51562 15.65 2.32812 15.575C2.14062 15.4969 1.85 15.3625 1.6875 15.275C1.525 15.1875 1.32187 15.0719 1.23438 15.0156C1.13125 14.9469 1.05937 14.8719 1.025 14.7906C0.996875 14.725 0.8875 14.3562 0.784375 13.9688C0.678125 13.5813 0.515625 12.9844 0.421875 12.6406C0.325 12.2969 0.20625 11.8125 0.15625 11.5625C0.10625 11.3125 0.05 10.9812 0.03125 10.8281C0.015625 10.675 0 10.3938 0 10.2031C0 9.96875 0.021875 9.7625 0.065625 9.5625C0.1 9.4 0.15625 9.18125 0.19375 9.07812C0.228125 8.975 0.3125 8.77812 0.38125 8.64062C0.45 8.50313 0.58125 8.28438 0.675 8.15625C0.765625 8.02812 1.0125 7.74062 1.22187 7.51562C1.42812 7.29063 1.65625 7.025 1.725 6.92188C1.79062 6.81875 1.85625 6.7 1.86563 6.65625C1.875 6.6125 1.87187 6.54375 1.8625 6.5C1.85 6.45625 1.65625 6.24687 1.41562 6.01562C1.18125 5.79063 0.83125 5.45625 0.640625 5.26562C0.378125 5.00625 0.26875 4.86875 0.184375 4.70312C0.121875 4.58437 0.053125 4.40625 0.03125 4.3125C0.00625 4.20312 -0.003125 4.04688 0.009375 3.875C0.021875 3.72813 0.053125 3.53125 0.08125 3.4375C0.109375 3.34375 0.171875 3.1875 0.21875 3.09375C0.265625 3 0.3875 2.81562 0.490625 2.6875C0.59375 2.55938 0.796875 2.34687 0.9375 2.21875C1.08125 2.09063 1.325 1.84375 1.47812 1.67188C1.63125 1.5 1.85 1.21875 1.96563 1.04688C2.08125 0.875 2.24375 0.603125 2.33125 0.440625C2.44062 0.228125 2.51562 0.125 2.59375 0.075C2.6625 0.03125 2.75313 0.003125 2.8375 0.003125ZM1.05 3.53125C1.00312 3.62812 0.959375 3.79063 0.95 3.90625C0.934375 4.06875 0.940625 4.13125 0.984375 4.21875C1.01562 4.27812 1.09688 4.39687 1.16875 4.48125C1.2375 4.56562 1.5 4.8125 1.75 5.03125C2 5.25 2.28438 5.51875 2.38438 5.62813C2.48438 5.7375 2.61563 5.93437 2.68125 6.0625C2.79063 6.28125 2.79688 6.30937 2.79688 6.59375C2.79688 6.87187 2.79063 6.90625 2.68438 7.125C2.62188 7.25313 2.4875 7.47188 2.38438 7.60938C2.27813 7.74687 2.03437 8.02812 1.84063 8.23438C1.64688 8.44063 1.43125 8.7 1.35625 8.8125C1.28438 8.925 1.19063 9.1 1.14688 9.20312C1.10312 9.30625 1.04375 9.48125 1.0125 9.59375C0.96875 9.74687 0.95625 9.91562 0.95625 10.2812C0.95625 10.6187 0.971875 10.8594 1.0125 11.0781C1.04375 11.25 1.10938 11.5594 1.1625 11.7656C1.2125 11.9719 1.35625 12.5125 1.48438 12.9688C1.60938 13.425 1.74688 13.9125 1.7875 14.0562L1.85938 14.3156C2.44062 14.5969 2.70937 14.7188 2.82812 14.7656C2.94688 14.8125 3.20312 14.8906 3.39062 14.9406C3.57812 14.9875 3.85938 15.0375 4.01562 15.05C4.16875 15.0625 4.39062 15.0625 4.50938 15.05L4.71875 15.0312C4.71875 11.7188 4.72188 11.6531 4.78125 11.5312C4.82292 11.4479 4.88542 11.3854 4.96875 11.3438C5.0375 11.3094 5.13438 11.2812 5.1875 11.2812C5.24062 11.2812 5.33437 11.3094 5.39687 11.3406C5.46562 11.375 5.54375 11.45 5.58437 11.5188C5.65312 11.6406 5.65312 11.6469 5.65625 13.2094V14.7812C5.8375 14.7063 6.05937 14.6 6.26562 14.5L6.64062 14.3188C6.825 13.6469 6.96875 13.1156 7.07812 12.7031C7.19063 12.2906 7.32187 11.7563 7.37187 11.5156C7.42188 11.275 7.48125 10.9312 7.50313 10.75C7.52188 10.5656 7.53125 10.2844 7.52187 10.1094C7.5125 9.9375 7.475 9.69063 7.44375 9.5625C7.40937 9.43437 7.3375 9.2375 7.28125 9.125C7.225 9.0125 7.13437 8.85312 7.075 8.76562C7.01875 8.68125 6.8375 8.4625 6.67188 8.28125C6.50313 8.1 6.28438 7.84688 6.18125 7.71875C6.07812 7.59062 5.93438 7.36563 5.8625 7.22188C5.7375 6.96563 5.73438 6.95 5.73438 6.64375C5.73438 6.34063 5.74062 6.31875 5.85 6.09375C5.91563 5.96562 6.05625 5.75937 6.1625 5.6375C6.27187 5.5125 6.53438 5.25 6.75 5.05C6.96562 4.85313 7.20625 4.60625 7.29063 4.50938C7.37188 4.40938 7.4625 4.27812 7.49062 4.21875C7.52812 4.13438 7.53438 4.0625 7.51875 3.90625C7.50625 3.77813 7.46562 3.62812 7.40312 3.5C7.325 3.3375 7.22813 3.21875 6.925 2.92188C6.71875 2.7125 6.45312 2.44375 6.33437 2.31875C6.21875 2.19375 6.11875 2.1125 6.1125 2.13438C6.10625 2.15313 6.08125 2.25625 6.05937 2.35938C6.04062 2.4625 5.97187 2.64687 5.9125 2.76562C5.8375 2.91563 5.72813 3.05938 5.56563 3.22187C5.39062 3.39375 5.26562 3.49063 5.09375 3.575C4.96562 3.6375 4.75938 3.70937 4.64062 3.73438C4.51875 3.75938 4.34375 3.78125 4.25 3.78125C4.15625 3.78125 3.97813 3.75938 3.85938 3.73438C3.7375 3.70937 3.53437 3.6375 3.40625 3.575C3.23438 3.49063 3.10625 3.39375 2.93438 3.22187C2.7625 3.05 2.66562 2.92188 2.58125 2.75C2.51875 2.62188 2.45 2.42813 2.42812 2.32188C2.40937 2.21875 2.38125 2.125 2.37188 2.11875C2.3625 2.1125 2.07812 2.3875 1.74375 2.73125C1.275 3.2125 1.1125 3.4 1.05 3.53125ZM12.6719 1.90937C12.7594 1.90937 12.8906 1.92188 12.9688 1.94062C13.0469 1.95937 13.1875 2.0125 13.2812 2.05625C13.375 2.10313 13.5562 2.24062 13.6812 2.35938C13.8094 2.47813 13.9719 2.66875 14.0469 2.78125C14.1187 2.89375 14.2375 3.09687 14.3062 3.23438C14.375 3.37188 14.4781 3.61875 14.5406 3.78125C14.6 3.94375 14.6937 4.24062 14.7437 4.4375C14.7969 4.63438 14.8687 4.97188 14.9031 5.1875C14.9406 5.40312 14.9844 5.75938 15.0031 5.98438C15.0219 6.20937 15.0437 6.4375 15.0625 6.59375H15.3438C15.5625 6.59375 15.6531 6.60625 15.75 6.65625C15.8333 6.69792 15.8958 6.76042 15.9375 6.84375C15.9969 6.9625 16 7.03125 16 8.54062C16 9.88125 15.9906 10.1313 15.95 10.25C15.9219 10.3281 15.8563 10.475 15.8031 10.575C15.7469 10.675 15.6312 10.825 15.5437 10.9031C15.4594 10.9812 15.3094 11.0844 15.2156 11.1281C15.1219 11.175 14.9719 11.2281 14.8844 11.2469C14.7719 11.2688 14.0688 11.2812 12.7031 11.2812C11.3188 11.2812 10.6375 11.2688 10.525 11.2469C10.4344 11.225 10.2812 11.175 10.1875 11.1313C10.0875 11.0844 9.93437 10.9688 9.82812 10.8594C9.71875 10.7531 9.60312 10.6 9.55625 10.5C9.5125 10.4062 9.4625 10.2531 9.44063 10.1625C9.41875 10.0531 9.40625 9.49687 9.40625 8.48438C9.40625 7.03125 9.40938 6.9625 9.46875 6.84375C9.51042 6.76042 9.57292 6.69792 9.65625 6.65625C9.75313 6.60625 9.84375 6.59375 10.3438 6.59375L10.3594 6.4625C10.3656 6.3875 10.3813 6.2 10.3906 6.04688C10.4 5.89375 10.4313 5.61875 10.4563 5.4375C10.4844 5.25625 10.5406 4.94063 10.5844 4.73438C10.625 4.52812 10.7219 4.17812 10.7937 3.95312C10.8687 3.72813 11 3.4 11.0906 3.21875C11.1812 3.0375 11.3156 2.80625 11.3875 2.70312C11.4625 2.6 11.6125 2.43438 11.7219 2.33125C11.8313 2.23125 12.0031 2.10625 12.1031 2.05938C12.2 2.00938 12.3344 1.95625 12.4 1.94062C12.4625 1.925 12.5875 1.9125 12.6719 1.90937ZM12.2594 3.1125C12.1875 3.19687 12.0563 3.4 11.9719 3.5625C11.8875 3.725 11.775 3.9875 11.7188 4.14062C11.6656 4.29375 11.5813 4.59062 11.5312 4.79688C11.4812 5.00313 11.4187 5.31875 11.3938 5.5C11.3688 5.68125 11.3375 5.95625 11.3281 6.10938C11.3188 6.2625 11.3031 6.4375 11.2969 6.49375L11.2812 6.59375H14.125C14.1031 6.4125 14.0875 6.24687 14.0781 6.10938C14.0688 5.97188 14.0375 5.7125 14.0125 5.53125C13.9875 5.35 13.925 5.03438 13.875 4.82812C13.825 4.62187 13.7375 4.31875 13.6781 4.15625C13.6188 3.99375 13.525 3.76875 13.4688 3.65625C13.4125 3.54375 13.325 3.39062 13.2719 3.3125C13.2219 3.23438 13.1344 3.125 13.0813 3.06875C13.0281 3.00937 12.9312 2.9375 12.8687 2.90313C12.8031 2.87188 12.7188 2.84375 12.6812 2.84375C12.6406 2.84687 12.5594 2.87188 12.5 2.90313C12.4406 2.93438 12.3312 3.02813 12.2594 3.1125ZM10.4531 7.60313C10.4656 7.64062 10.5188 7.74062 10.575 7.825C10.6281 7.90937 10.7375 8.0375 10.8156 8.10625C10.8938 8.17812 11.0281 8.26875 11.1125 8.30937C11.1969 8.35312 11.3375 8.40313 11.4219 8.42813C11.5375 8.45625 11.875 8.46875 12.7031 8.46875C13.5312 8.46875 13.8687 8.45625 13.9844 8.42813C14.0719 8.40313 14.2094 8.35312 14.2937 8.30937C14.3781 8.26875 14.5188 8.16875 14.6062 8.09062C14.6937 8.0125 14.8094 7.8625 14.8656 7.7625C14.9219 7.6625 14.9656 7.56875 14.9688 7.55625C14.9688 7.54063 13.9469 7.53125 12.7 7.53125H10.4312L10.4531 7.60313ZM10.3406 9.45625C10.3438 9.89688 10.3531 9.9875 10.4031 10.0875C10.4375 10.1562 10.5125 10.2344 10.5813 10.275L10.7031 10.3438C14.625 10.3438 14.6906 10.3438 14.8125 10.2844C14.8958 10.2427 14.9583 10.1802 15 10.0969C15.0562 9.98438 15.0625 9.90938 15.0625 9.45625V8.94063C14.8094 9.10313 14.65 9.18437 14.5469 9.22812C14.4438 9.27187 14.2812 9.325 14.1875 9.35C14.0562 9.38125 13.7094 9.39375 12.6719 9.39375H11.3281C10.8687 9.23125 10.6469 9.13125 10.5375 9.0625L10.3406 8.94063V9.45625Z" fill="#ACB9CB"/>
</g>
<defs>
<clipPath id="clip0_556_4042">
<rect width="16" height="16" fill="white"/>
</clipPath>
</defs>
</svg>
