<svg width="16" height="16" viewBox="0 0 16 16" fill="none" xmlns="http://www.w3.org/2000/svg">
<g clip-path="url(#clip0_556_4045)">
<path fill-rule="evenodd" clip-rule="evenodd" d="M7.98438 0.00326009C8.17188 0.000135088 8.28438 0.0188851 8.4375 0.0720101C8.55 0.112635 8.70312 0.187635 8.78125 0.24076C8.85938 0.29076 8.97812 0.39701 9.04688 0.475135C9.11563 0.550135 9.20938 0.69076 9.25313 0.78451C9.3 0.87826 9.35 1.02826 9.37187 1.11889C9.39062 1.20639 9.40625 1.34701 9.40625 1.43139C9.40625 1.51263 9.3875 1.65014 9.36563 1.73451C9.34063 1.82201 9.29062 1.96264 9.24687 2.04701C9.20625 2.13451 9.0875 2.28764 8.98438 2.39076C8.88125 2.49701 8.72188 2.61576 8.46875 2.73451V3.48451L8.7875 3.54076C8.96563 3.57201 9.25 3.64389 9.42188 3.70014C9.59375 3.75639 9.85312 3.86576 10 3.93764C10.1469 4.01264 10.3844 4.15013 10.5312 4.24701C10.6906 4.35013 10.9531 4.57513 11.5875 5.20326L12.8438 4.57826V3.39076L12.6344 3.28139C12.5125 3.21576 12.3688 3.10639 12.2844 3.01264C12.2063 2.92514 12.1062 2.78451 12.0656 2.70014C12.0219 2.61576 11.9719 2.47514 11.9469 2.39076C11.925 2.30326 11.9062 2.16888 11.9062 2.08451C11.9062 2.00326 11.9219 1.86264 11.9406 1.77514C11.9625 1.68451 12.0125 1.53139 12.0562 1.43764C12.1031 1.33764 12.2188 1.18451 12.3281 1.07826C12.4375 0.96576 12.5906 0.85326 12.6969 0.80326C12.7937 0.756385 12.9688 0.70326 13.0844 0.681385C13.25 0.65326 13.3469 0.65326 13.5219 0.681385C13.6469 0.70326 13.8313 0.756385 13.9281 0.80326C14.0375 0.85326 14.1844 0.962635 14.2969 1.07514C14.4062 1.18451 14.5219 1.34076 14.5688 1.43764C14.6125 1.53139 14.6625 1.68451 14.6844 1.77514C14.7031 1.86264 14.7188 2.00326 14.7188 2.08764C14.7188 2.16889 14.7 2.30639 14.6781 2.39076C14.6531 2.47826 14.6031 2.61889 14.5594 2.70326C14.5188 2.79076 14.4 2.94389 14.2969 3.04701C14.1938 3.15326 14.0344 3.27201 13.7812 3.39076V4.18763C13.7812 4.95326 13.7781 4.99076 13.7094 5.10951C13.6469 5.22513 13.5813 5.26576 12.8906 5.61576C12.4781 5.82513 12.1281 6.00013 12.1125 6.00638C12.0969 6.01263 12.1375 6.15014 12.2031 6.31263C12.2688 6.47513 12.3531 6.73764 12.3906 6.89076C12.4312 7.04388 12.4719 7.25326 12.5 7.53138H13.2656L13.3406 7.36889C13.3844 7.27201 13.4969 7.12201 13.6062 7.01263C13.7125 6.90951 13.8656 6.79076 13.9531 6.75013C14.0375 6.70951 14.1781 6.65638 14.2656 6.63451C14.35 6.61264 14.4875 6.59388 14.5688 6.59388C14.6531 6.59388 14.7938 6.60951 14.8813 6.62826C14.9719 6.65014 15.125 6.70014 15.2188 6.74389C15.3188 6.79076 15.4719 6.90638 15.5781 7.01576C15.6844 7.11889 15.8 7.27514 15.8406 7.35951C15.8812 7.44701 15.9344 7.57826 15.9563 7.65638C15.9812 7.73451 16 7.88138 16 7.98451C16 8.08764 15.9813 8.24389 15.9594 8.32826C15.9344 8.41576 15.8687 8.57514 15.8094 8.68451C15.75 8.79389 15.6406 8.94389 15.5625 9.01576C15.4844 9.08764 15.3375 9.18764 15.2344 9.24076C15.1313 9.29389 14.9719 9.35326 14.8813 9.37201C14.7938 9.39076 14.6531 9.40639 14.5688 9.40639C14.4875 9.40639 14.35 9.38764 14.2656 9.36576C14.1781 9.34076 14.0375 9.29076 13.9531 9.24701C13.8656 9.20639 13.7125 9.08764 13.6062 8.98451C13.4969 8.87514 13.3844 8.72826 13.2656 8.46889H12.5L12.4812 8.65014C12.4719 8.74701 12.4312 8.95639 12.3906 9.10951C12.3531 9.26264 12.2688 9.52514 12.2031 9.68764C12.1375 9.85014 12.0969 9.98763 12.1125 9.99389C12.1281 10.0001 12.4781 10.1751 12.8906 10.3845C13.5813 10.7345 13.6469 10.7751 13.7094 10.8908C13.7781 11.0095 13.7812 11.047 13.7812 12.6095L13.9438 12.6845C14.0406 12.7283 14.1875 12.8408 14.2969 12.9501C14.4 13.0564 14.5188 13.2126 14.5594 13.297C14.6031 13.3845 14.6531 13.5251 14.6781 13.6095C14.7 13.697 14.7188 13.8314 14.7188 13.9158C14.7188 13.997 14.7031 14.1376 14.6844 14.2283C14.6656 14.3158 14.5969 14.4876 14.5344 14.6064C14.4688 14.7345 14.3594 14.8814 14.2625 14.9658C14.1781 15.0439 14.025 15.147 13.9281 15.197C13.8313 15.2439 13.6469 15.297 13.5219 15.3189C13.3469 15.347 13.25 15.347 13.0844 15.3189C12.9688 15.297 12.7938 15.2439 12.6938 15.197C12.5906 15.147 12.4375 15.0345 12.3281 14.922C12.2188 14.8158 12.1031 14.6626 12.0562 14.5626C12.0125 14.4689 11.9625 14.3158 11.9406 14.2283C11.9219 14.1376 11.9062 13.997 11.9062 13.9158C11.9062 13.8314 11.925 13.697 11.9469 13.6095C11.9688 13.5251 12.0219 13.3845 12.0625 13.297C12.1031 13.2126 12.2219 13.0564 12.325 12.9501C12.4344 12.8408 12.5844 12.7283 12.8438 12.6095V11.422L11.5875 10.797L11.1938 11.1876C10.9531 11.4251 10.6906 11.6501 10.5312 11.7533C10.3844 11.8501 10.1469 11.9876 10 12.0626C9.85312 12.1345 9.59375 12.2439 9.42188 12.3001C9.25 12.3564 8.96562 12.4283 8.46875 12.5158V13.2658L8.63125 13.3408C8.72813 13.3845 8.875 13.497 8.98438 13.6064C9.0875 13.7126 9.20625 13.8689 9.24687 13.9533C9.29062 14.0408 9.34063 14.1814 9.36563 14.2658C9.3875 14.3533 9.40625 14.4876 9.40625 14.572C9.40625 14.6533 9.39062 14.7939 9.37187 14.8845C9.35312 14.972 9.29688 15.1283 9.24687 15.2283C9.19687 15.3251 9.10313 15.4658 9.0375 15.5376C8.975 15.6095 8.85 15.7126 8.76562 15.7658C8.67813 15.822 8.525 15.897 8.42188 15.9314C8.29375 15.9783 8.15938 16.0001 8 16.0001C7.85 16.0001 7.70937 15.9783 7.60938 15.9439C7.52187 15.9126 7.39687 15.8595 7.32812 15.8283C7.25938 15.7939 7.11875 15.6845 7.01562 15.5783C6.90625 15.472 6.79063 15.3189 6.74375 15.2189C6.7 15.1251 6.65 14.972 6.62813 14.8845C6.60938 14.7939 6.59375 14.6533 6.59375 14.572C6.59375 14.4876 6.6125 14.3533 6.63438 14.2658C6.65625 14.1814 6.70937 14.0408 6.75 13.9533C6.79063 13.8689 6.90937 13.7126 7.0125 13.6064C7.12187 13.497 7.27187 13.3845 7.53125 13.2658V12.5158L7.275 12.472C7.13125 12.4501 6.875 12.3908 6.70312 12.3376C6.53125 12.2876 6.22188 12.1626 6.01562 12.0626C5.80937 11.9595 5.50938 11.7814 5.34688 11.6658C5.1875 11.547 4.9125 11.3033 4.42188 10.7939L3.15625 11.422V12.6095L3.31875 12.6845C3.41562 12.7283 3.5625 12.8408 3.67188 12.9501C3.775 13.0564 3.89375 13.2126 3.93438 13.297C3.97813 13.3845 4.02812 13.5251 4.05312 13.6095C4.075 13.697 4.09375 13.8314 4.09375 13.9158C4.09375 13.997 4.07812 14.1376 4.05937 14.2283C4.04062 14.3158 3.97187 14.4876 3.90937 14.6064C3.84375 14.7345 3.73438 14.8814 3.6375 14.9658C3.55313 15.0439 3.4 15.147 3.30312 15.197C3.20625 15.2439 3.02187 15.297 2.89687 15.3189C2.72187 15.347 2.625 15.347 2.45937 15.3189C2.34375 15.297 2.16875 15.2439 2.06875 15.197C1.96562 15.147 1.8125 15.0345 1.70312 14.922C1.59375 14.8158 1.47812 14.6626 1.43125 14.5626C1.3875 14.4689 1.3375 14.3158 1.31562 14.2283C1.29688 14.1376 1.28125 13.997 1.28125 13.9158C1.28125 13.8314 1.3 13.697 1.32187 13.6095C1.34375 13.5251 1.39688 13.3845 1.4375 13.297C1.47812 13.2126 1.59688 13.0564 1.7 12.9501C1.80938 12.8408 1.95938 12.7283 2.21875 12.6095V11.8126C2.21875 11.047 2.22188 11.0095 2.29063 10.8908C2.35313 10.7751 2.41875 10.7345 3.10938 10.3845C3.52187 10.1751 3.87188 10.0001 3.8875 9.99389C3.90313 9.98763 3.8625 9.85014 3.79688 9.68764C3.73125 9.52514 3.64687 9.26264 3.60938 9.10951C3.56875 8.95639 3.52813 8.74701 3.5 8.46889H2.73438L2.625 8.67826C2.55938 8.80014 2.45 8.94388 2.35625 9.02826C2.26875 9.10639 2.12812 9.20639 2.04375 9.24701C1.95938 9.29076 1.81875 9.34076 1.73438 9.36576C1.64688 9.38764 1.5125 9.40639 1.42813 9.40639C1.34688 9.40639 1.20625 9.39076 1.11563 9.37201C1.02813 9.35013 0.875 9.30014 0.78125 9.25639C0.68125 9.20951 0.528125 9.09389 0.421875 8.98451C0.315625 8.88139 0.2 8.72826 0.159375 8.64076C0.11875 8.55639 0.065625 8.42201 0.04375 8.34389C0.01875 8.26576 0 8.11889 0 8.01576C0 7.91264 0.01875 7.75951 0.040625 7.67201C0.0625 7.58764 0.115625 7.44701 0.15625 7.35951C0.196875 7.27514 0.315625 7.11889 0.41875 7.01576C0.528125 6.90638 0.684375 6.79076 0.78125 6.74389C0.875 6.70014 1.02813 6.65014 1.11563 6.62826C1.20625 6.60951 1.34688 6.59388 1.42813 6.59388C1.5125 6.59388 1.64688 6.61264 1.73438 6.63451C1.81875 6.65951 1.95938 6.70951 2.04688 6.75326C2.13125 6.79389 2.2875 6.91263 2.39062 7.01576C2.49688 7.11889 2.61562 7.27826 2.73438 7.53138H3.5L3.51875 7.35326C3.52813 7.25326 3.56875 7.04388 3.60938 6.89076C3.64687 6.73764 3.73125 6.47513 3.79688 6.31263C3.8625 6.15014 3.90313 6.01263 3.8875 6.00638C3.87188 6.00013 3.52187 5.82513 3.10938 5.61576C2.41875 5.26576 2.35313 5.22513 2.29063 5.10951C2.22188 4.99076 2.21875 4.95326 2.21875 3.39076L2.00938 3.28139C1.8875 3.21576 1.74375 3.10639 1.65937 3.01264C1.58125 2.92514 1.48125 2.78451 1.44062 2.70014C1.39687 2.61576 1.34687 2.47826 1.32187 2.39076C1.3 2.30639 1.28125 2.16889 1.28125 2.08764C1.28125 2.00326 1.29688 1.86264 1.31562 1.77514C1.3375 1.68451 1.3875 1.53139 1.43125 1.43764C1.47812 1.33764 1.59375 1.18451 1.70312 1.07826C1.8125 0.96576 1.96562 0.85326 2.06875 0.80326C2.16875 0.756385 2.35312 0.70326 2.475 0.681385C2.65312 0.65326 2.75 0.65326 2.9125 0.681385C3.03125 0.70326 3.20625 0.756385 3.30312 0.80326C3.4125 0.85326 3.55938 0.962635 3.67188 1.07514C3.78125 1.18451 3.89687 1.34076 3.94375 1.43764C3.9875 1.53139 4.0375 1.68451 4.05937 1.77514C4.07812 1.86264 4.09375 2.00326 4.09375 2.08764C4.09375 2.16889 4.075 2.30639 4.05312 2.39076C4.02812 2.47826 3.97813 2.61889 3.93438 2.70326C3.89375 2.79076 3.775 2.94389 3.67188 3.04701C3.56875 3.15326 3.40937 3.27201 3.15625 3.39076V4.57826L4.4125 5.20326L4.80625 4.81263C5.05312 4.56888 5.30937 4.35013 5.48438 4.23451C5.6375 4.13451 5.90625 3.98451 6.07812 3.90326C6.25 3.82201 6.53125 3.71264 6.70312 3.66264C6.875 3.60951 7.13125 3.55014 7.53125 3.48451V2.73451L7.32188 2.62514C7.2 2.55951 7.05625 2.45014 6.97188 2.35639C6.89375 2.26889 6.79375 2.12826 6.75313 2.04389C6.70938 1.95951 6.65938 1.82201 6.63438 1.73451C6.6125 1.65014 6.59375 1.51263 6.59375 1.43139C6.59375 1.34701 6.60938 1.20639 6.62813 1.11889C6.64688 1.02826 6.7 0.875135 6.74375 0.781385C6.79063 0.681385 6.90312 0.531385 7.0125 0.42201C7.11875 0.31576 7.25938 0.206385 7.32812 0.17201C7.39687 0.14076 7.51562 0.0907601 7.59375 0.0595101C7.68125 0.0251351 7.82812 0.00638509 7.98438 0.00326009ZM7.5875 1.19389C7.55938 1.25014 7.53438 1.34389 7.53125 1.40014C7.53125 1.45326 7.55937 1.55639 7.59375 1.62514C7.63542 1.70847 7.69792 1.77097 7.78125 1.81264C7.85 1.84701 7.94688 1.87514 8 1.87514C8.05 1.87514 8.14688 1.84701 8.20938 1.81576C8.27813 1.78139 8.35625 1.70639 8.39688 1.63764C8.43438 1.56889 8.46562 1.46889 8.46875 1.41576C8.46875 1.35951 8.44063 1.25639 8.40625 1.18764C8.36458 1.1043 8.30208 1.0418 8.21875 1.00014C8.15 0.96576 8.04688 0.937635 7.99062 0.937635C7.9375 0.937635 7.83437 0.97201 7.76562 1.01576C7.69688 1.05639 7.61562 1.13764 7.5875 1.19389ZM2.275 1.85014C2.24688 1.90639 2.22187 2.00014 2.21875 2.05639C2.21875 2.10951 2.24688 2.20951 2.27813 2.27514C2.3125 2.34076 2.3875 2.41888 2.45625 2.45951C2.525 2.49701 2.625 2.52826 2.67812 2.53139C2.73438 2.53139 2.83437 2.50326 2.89687 2.47201C2.96562 2.43764 3.04375 2.36264 3.08437 2.29389C3.12187 2.22514 3.15313 2.12514 3.15625 2.07201C3.15625 2.01576 3.12812 1.91264 3.09375 1.84389C3.05208 1.76055 2.98958 1.69805 2.90625 1.65639C2.8375 1.62201 2.73438 1.59389 2.67812 1.59389C2.625 1.59389 2.52187 1.62826 2.45312 1.67201C2.38438 1.71264 2.30313 1.79389 2.275 1.85014ZM12.9 1.85014C12.8719 1.90639 12.8469 2.00014 12.8438 2.05639C12.8438 2.10951 12.8719 2.20951 12.9031 2.27514C12.9375 2.34076 13.0125 2.41888 13.0813 2.45951C13.15 2.49701 13.25 2.52826 13.3031 2.53139C13.3594 2.53139 13.4594 2.50326 13.5219 2.47201C13.5906 2.43764 13.6688 2.36264 13.7094 2.29389C13.7469 2.22514 13.7781 2.12514 13.7812 2.07201C13.7812 2.01576 13.7531 1.91264 13.7188 1.84389C13.6771 1.76055 13.6146 1.69805 13.5312 1.65639C13.4625 1.62201 13.3594 1.59389 13.3031 1.59389C13.25 1.59389 13.1469 1.62826 13.0781 1.67201C13.0094 1.71264 12.9281 1.79389 12.9 1.85014ZM6.86562 4.59388C6.71562 4.64701 6.50625 4.73139 6.39687 4.78451C6.29063 4.84076 6.09688 4.95326 5.96875 5.04076C5.84062 5.12826 5.6125 5.31888 5.46562 5.46576C5.31875 5.61263 5.12813 5.84076 5.04063 5.96888C4.95312 6.09701 4.84063 6.29076 4.78438 6.39701C4.73125 6.50638 4.64687 6.71576 4.59375 6.86576C4.54375 7.01888 4.48125 7.27514 4.45625 7.43763C4.42813 7.60013 4.40625 7.85326 4.40625 8.00013C4.40625 8.14701 4.42813 8.40014 4.45625 8.56264C4.48125 8.72514 4.54375 8.98139 4.59375 9.13139C4.64687 9.28451 4.73125 9.49389 4.78438 9.60014C4.84063 9.70951 4.95312 9.90326 5.04063 10.0314C5.12813 10.1595 5.31875 10.3876 5.46562 10.5345C5.6125 10.6814 5.84062 10.872 5.96875 10.9595C6.09688 11.047 6.29063 11.1595 6.39687 11.2158C6.50625 11.2689 6.71562 11.3533 6.86562 11.4064C7.01875 11.4564 7.28125 11.5189 7.45312 11.547C7.625 11.572 7.87187 11.5939 8 11.5939C8.12813 11.5939 8.375 11.572 8.54688 11.547C8.71875 11.5189 8.98125 11.4564 9.13125 11.4064C9.28438 11.3533 9.49375 11.2689 9.6 11.2158C9.70938 11.1595 9.90312 11.0439 10.0312 10.9595C10.1594 10.872 10.3875 10.6814 10.5344 10.5345C10.6813 10.3876 10.8719 10.1595 10.9594 10.0314C11.0438 9.90326 11.1594 9.70951 11.2156 9.60014C11.2688 9.49389 11.3531 9.28451 11.4062 9.13139C11.4563 8.98139 11.5188 8.71889 11.5469 8.54701C11.5719 8.37514 11.5938 8.12826 11.5938 8.00013C11.5938 7.87201 11.5719 7.62513 11.5469 7.45326C11.5188 7.28138 11.4563 7.01888 11.4062 6.86576C11.3531 6.71576 11.2688 6.50638 11.2156 6.39701C11.1594 6.29076 11.0438 6.09701 10.9594 5.96888C10.8719 5.84076 10.6813 5.61263 10.5344 5.46576C10.3844 5.31888 10.1594 5.12513 10.0312 5.04076C9.90312 4.95326 9.70938 4.84076 9.6 4.78451C9.49375 4.73139 9.28438 4.64701 9.13125 4.59388C8.98125 4.54388 8.725 4.48139 8.5625 4.45639C8.4 4.42826 8.13125 4.40951 7.96875 4.40951C7.80625 4.41264 7.55312 4.43139 7.40625 4.45639C7.25938 4.48139 7.01875 4.54388 6.86562 4.59388ZM1 7.78138C0.965625 7.85013 0.9375 7.94701 0.9375 8.00013C0.9375 8.05013 0.965625 8.15014 1 8.21889C1.04167 8.30222 1.10417 8.36472 1.1875 8.40639C1.25625 8.44076 1.35312 8.46889 1.40625 8.46889C1.45625 8.46889 1.55625 8.44076 1.625 8.40639C1.70833 8.36472 1.77083 8.30222 1.8125 8.21889C1.84687 8.15014 1.875 8.05013 1.875 8.00013C1.875 7.94701 1.84687 7.85013 1.8125 7.78138C1.77083 7.69805 1.70833 7.63555 1.625 7.59388C1.55625 7.55951 1.45312 7.53138 1.39688 7.53138C1.34375 7.53451 1.24375 7.56263 1.17813 7.59388C1.10625 7.63451 1.04062 7.70326 1 7.78138ZM14.1875 7.78138C14.1531 7.85013 14.125 7.94701 14.125 8.00013C14.125 8.05013 14.1531 8.15014 14.1875 8.21889C14.2292 8.30222 14.2917 8.36472 14.375 8.40639C14.4438 8.44076 14.5406 8.46889 14.5938 8.46889C14.6438 8.46889 14.7437 8.44076 14.8125 8.40639C14.8958 8.36472 14.9583 8.30222 15 8.21889C15.0344 8.15014 15.0625 8.05013 15.0625 8.00013C15.0625 7.94701 15.0344 7.85013 15 7.78138C14.9583 7.69805 14.8958 7.63555 14.8125 7.59388C14.7437 7.55951 14.6406 7.53138 14.5844 7.53138C14.5312 7.53451 14.4313 7.56263 14.3656 7.59388C14.2938 7.63451 14.2281 7.70326 14.1875 7.78138ZM2.275 13.7251C2.24688 13.7814 2.22187 13.8751 2.21875 13.9314C2.21875 13.9845 2.24688 14.0845 2.27813 14.1501C2.3125 14.2158 2.3875 14.2939 2.45625 14.3345C2.525 14.372 2.625 14.4033 2.67812 14.4064C2.73438 14.4064 2.8375 14.3783 2.90625 14.3439C2.98958 14.3022 3.05208 14.2397 3.09375 14.1564C3.12812 14.0876 3.15625 13.9876 3.15625 13.9376C3.15625 13.8876 3.12812 13.7876 3.09375 13.7189C3.05208 13.6356 2.98958 13.5731 2.90625 13.5314C2.8375 13.497 2.73438 13.4689 2.67812 13.4689C2.625 13.4689 2.52187 13.5033 2.45312 13.547C2.38438 13.5876 2.30313 13.6689 2.275 13.7251ZM12.9 13.7251C12.8719 13.7814 12.8469 13.8751 12.8438 13.9314C12.8438 13.9845 12.8719 14.0845 12.9031 14.1501C12.9375 14.2158 13.0125 14.2939 13.0813 14.3345C13.15 14.372 13.25 14.4033 13.3031 14.4064C13.3594 14.4064 13.4625 14.3783 13.5312 14.3439C13.6146 14.3022 13.6771 14.2397 13.7188 14.1564C13.7531 14.0876 13.7812 13.9876 13.7812 13.9376C13.7812 13.8876 13.7531 13.7876 13.7188 13.7189C13.6771 13.6356 13.6146 13.5731 13.5312 13.5314C13.4625 13.497 13.3594 13.4689 13.3031 13.4689C13.25 13.4689 13.1469 13.5033 13.0781 13.547C13.0094 13.5876 12.9281 13.6689 12.9 13.7251ZM7.59375 14.3751C7.55937 14.4439 7.53125 14.5439 7.53125 14.5939C7.53125 14.6439 7.55937 14.7408 7.59062 14.8064C7.625 14.872 7.7 14.9501 7.76875 14.9908C7.8375 15.0283 7.9375 15.0595 7.99062 15.0626C8.04688 15.0626 8.15 15.0345 8.21875 15.0001C8.30208 14.9585 8.36458 14.896 8.40625 14.8126C8.44063 14.7439 8.46875 14.6439 8.46875 14.5939C8.46875 14.5439 8.44063 14.4439 8.40625 14.3751C8.36458 14.2918 8.30208 14.2293 8.21875 14.1876C8.15 14.1533 8.04688 14.1251 7.99062 14.1251C7.9375 14.1283 7.8375 14.1564 7.77187 14.1876C7.7 14.2283 7.63438 14.297 7.59375 14.3751ZM8.0125 5.50951C8.09688 5.52201 8.16563 5.55638 8.20938 5.60638C8.2625 5.66576 8.28125 5.72826 8.28125 5.82826C8.28125 5.96888 8.28125 5.96888 8.4125 6.00326C8.4875 6.02201 8.60312 6.06888 8.67188 6.10951C8.74063 6.15014 8.8375 6.22513 8.89062 6.28138C8.96562 6.35951 8.98438 6.40326 8.98125 6.50951C8.975 6.61264 8.95625 6.65951 8.87813 6.72513C8.825 6.77514 8.74375 6.81263 8.69375 6.81263C8.64688 6.81263 8.54688 6.77201 8.46875 6.71888C8.39062 6.66888 8.31875 6.62513 8.30313 6.62513C8.29063 6.62513 8.28125 6.84701 8.28125 7.60951L8.52188 7.71888C8.6625 7.78451 8.81875 7.88138 8.89688 7.95951C8.97188 8.03451 9.06875 8.16889 9.11563 8.25639C9.19375 8.40639 9.20312 8.45326 9.20312 8.75014C9.20312 9.05639 9.19687 9.09389 9.10312 9.28139C9.04062 9.41264 8.94062 9.54701 8.82187 9.65639C8.70625 9.76889 8.57812 9.85326 8.46875 9.89701C8.3 9.95951 8.29688 9.96264 8.2875 10.097C8.28438 10.172 8.275 10.2658 8.26562 10.3033C8.25625 10.3439 8.20312 10.4033 8.14688 10.4376C8.09375 10.472 8.00937 10.5001 7.95937 10.5001C7.9125 10.5001 7.83437 10.4626 7.77812 10.4126C7.7 10.347 7.67813 10.2939 7.65938 10.1626C7.64375 10.0189 7.63125 9.99389 7.5625 9.98139C7.51875 9.97201 7.4125 9.94388 7.32812 9.91576C7.24062 9.89076 7.12187 9.84076 7.0625 9.80639C7.00313 9.76888 6.91563 9.70326 6.86562 9.65951C6.8 9.59701 6.78125 9.55014 6.78125 9.45326C6.78125 9.38451 6.80312 9.29701 6.82812 9.25639C6.85313 9.21889 6.92812 9.17201 6.99062 9.15326C7.09687 9.12201 7.125 9.12826 7.26562 9.20326C7.35 9.25014 7.475 9.30639 7.65625 9.37514V8.04701L7.43125 7.92201C7.30938 7.85326 7.15625 7.73451 7.0875 7.65638C7.02187 7.57826 6.94375 7.44388 6.91563 7.35951C6.88229 7.25534 6.87083 7.13034 6.88125 6.98451C6.8875 6.84076 6.91875 6.70951 6.97188 6.59388C7.01562 6.50013 7.1125 6.35951 7.1875 6.28138C7.26562 6.20639 7.39687 6.11263 7.48438 6.07513C7.6375 6.00326 7.64062 6.00013 7.65938 5.83764C7.67813 5.70326 7.7 5.65638 7.78438 5.58139C7.87188 5.50639 7.90312 5.49701 8.0125 5.50951ZM7.57188 6.81263C7.525 6.88138 7.5 6.97201 7.5 7.05326C7.5 7.15014 7.51875 7.20638 7.56875 7.25638L7.64062 7.32826C7.65625 7.10951 7.65625 6.96888 7.65 6.87513L7.64062 6.70326L7.57188 6.81263ZM8.30625 9.26576C8.31875 9.27201 8.36563 9.24076 8.4125 9.19389C8.45625 9.14701 8.51562 9.06264 8.54375 9.00639C8.57187 8.95014 8.59375 8.83139 8.59375 8.73451C8.59375 8.57826 8.58437 8.55014 8.47812 8.43764C8.4125 8.36576 8.34375 8.30951 8.32187 8.31264C8.29375 8.31264 8.28125 8.42826 8.28125 8.78139C8.28125 9.03764 8.29375 9.25639 8.30625 9.26576Z" fill="#ACB9CB"/>
</g>
<defs>
<clipPath id="clip0_556_4045">
<rect width="16" height="16" fill="white"/>
</clipPath>
</defs>
</svg>
