<svg width="16" height="16" viewBox="0 0 16 16" fill="none" xmlns="http://www.w3.org/2000/svg">
<g clip-path="url(#clip0_556_4054)">
<path fill-rule="evenodd" clip-rule="evenodd" d="M7.9625 0.00295496C9.01875 -0.000170045 9.03125 -0.000170045 9.14375 0.06858C9.20625 0.109205 9.28438 0.19358 9.31563 0.25608C9.35 0.321705 9.375 0.415455 9.375 0.46858C9.375 0.51858 9.34688 0.61858 9.3125 0.68733C9.27812 0.75608 9.20625 0.83733 9.14688 0.86858C9.05938 0.915455 8.925 0.92483 7.275 0.952955L6.03125 2.85921L8.00937 2.87483C9.8125 2.89046 9.99375 2.89671 10.0844 2.94671C10.1438 2.97483 10.2156 3.05608 10.25 3.12483C10.3094 3.24358 10.3125 3.31233 10.3125 4.28108C10.3125 5.24983 10.3094 5.31858 10.25 5.43733C10.2083 5.52066 10.1458 5.58316 10.0625 5.62483C9.99375 5.6592 9.87813 5.68733 9.67188 5.68733L9.65 5.94358C9.6375 6.08733 9.61563 6.36858 9.57812 6.9342L11.5469 6.94358C13.4719 6.95608 13.5219 6.95608 13.7656 7.02483C13.9031 7.06233 14.1281 7.1467 14.2656 7.21233C14.4031 7.27796 14.6062 7.39358 14.7188 7.46858C14.8313 7.54358 15.0125 7.69983 15.125 7.81233C15.2375 7.92483 15.3938 8.10608 15.4688 8.21858C15.5437 8.33108 15.6594 8.53421 15.7219 8.67171C15.7875 8.80921 15.8687 9.03421 15.9062 9.17171C15.9406 9.30921 15.9781 9.54983 15.9906 9.70296C16.0063 9.94983 16 9.99983 15.9406 10.1186C15.8969 10.2092 15.8344 10.2686 15.75 10.3123C15.675 10.3498 15.5625 10.3748 15.3125 10.3748L15.3344 10.5092C15.35 10.5811 15.3594 10.7467 15.3594 10.8748C15.3594 11.0186 15.3344 11.178 15.3 11.2811C15.2688 11.3748 15.1938 11.528 15.0312 11.7811L15.1375 11.9467C15.1937 12.0342 15.2688 12.1873 15.3 12.2811C15.3344 12.3842 15.3594 12.5436 15.3594 12.6873C15.3594 12.8155 15.35 12.9811 15.3125 13.1873H15.4688C15.5625 13.1873 15.675 13.2123 15.75 13.2498C15.8344 13.2936 15.8969 13.353 15.9406 13.4467C16 13.5592 16.0063 13.6123 15.9906 13.8123C15.9813 13.9405 15.9531 14.1311 15.925 14.2342C15.9 14.3373 15.8438 14.4998 15.8 14.5936C15.7594 14.6873 15.6781 14.8373 15.6187 14.928C15.5625 15.0186 15.4312 15.178 15.3281 15.2842C15.225 15.3905 15.05 15.5373 14.9375 15.6092C14.825 15.6811 14.6719 15.7686 14.5938 15.803C14.5156 15.8373 14.3438 15.8967 13.9688 15.9998H1.59375L1.475 15.928C1.40625 15.8842 1.3375 15.803 1.30625 15.7311C1.25937 15.628 1.20625 14.8436 0.953125 10.6717C0.790625 7.95608 0.65625 5.72483 0.65625 5.7092C0.65625 5.6967 0.59375 5.68733 0.515625 5.68733C0.4375 5.68733 0.31875 5.6592 0.25 5.62483C0.166667 5.58316 0.104167 5.52066 0.0625 5.43733C0.003125 5.31858 0 5.24983 0 4.28108C0 3.31233 0.003125 3.24358 0.0625 3.12483C0.096875 3.05608 0.16875 2.97483 0.225 2.94671C0.31875 2.89358 0.515625 2.89046 4.9125 2.85921L5.8 1.49983C6.41563 0.552955 6.71562 0.11858 6.7875 0.071705C6.8875 0.00607996 6.9125 0.00295496 7.95937 0.00295496H7.9625ZM0.940625 4.74983H9.37813V3.81233H0.940625V4.74983ZM1.60625 5.93108C1.61875 6.06233 1.64062 6.4467 1.65937 6.78108C1.67812 7.11545 1.7 7.44983 1.70625 7.52483L1.72187 7.65608C2.0125 7.65608 2.20625 7.67796 2.3375 7.70608C2.47188 7.7342 2.65 7.7842 2.7375 7.81858C2.82187 7.85295 2.99062 7.94046 3.1125 8.01546C3.23125 8.09046 3.425 8.24671 3.54063 8.36546C3.65313 8.48108 3.79688 8.65608 3.85625 8.74983C3.91563 8.84358 4 9.00608 4.04375 9.10921C4.0875 9.21233 4.14687 9.41545 4.17812 9.56233C4.21562 9.7592 4.225 9.90296 4.2125 10.1248C4.2 10.2873 4.17188 10.4998 4.14687 10.5936C4.11875 10.6873 4.06875 10.8373 4.03125 10.9217C3.99375 11.0092 3.90937 11.1623 3.84375 11.2655C3.78125 11.3686 3.61563 11.5592 3.48125 11.6873C3.34375 11.8155 3.15625 11.9686 3.0625 12.0217C2.97187 12.078 2.79375 12.1592 2.675 12.1998C2.55312 12.2436 2.35625 12.2936 2.2375 12.3123C2.11562 12.3311 2.01562 12.3498 2.00938 12.353C2.00625 12.3561 2.0375 12.9498 2.08125 13.6717C2.125 14.3936 2.15937 15.003 2.15937 15.0248C2.15937 15.053 2.51875 15.0623 3.84687 15.0623H5.53438C5.36875 14.8092 5.29063 14.6561 5.25313 14.5623C5.21563 14.4686 5.1625 14.3217 5.14062 14.2342C5.11562 14.1498 5.0875 13.9655 5.07812 13.828C5.05937 13.6092 5.06563 13.5623 5.125 13.4467C5.16875 13.353 5.23125 13.2936 5.31563 13.2498C5.39062 13.2123 5.50313 13.1873 5.59688 13.1873H5.75313C5.71563 12.9811 5.70625 12.8155 5.70625 12.6873C5.70625 12.5436 5.73125 12.3842 5.76562 12.2811C5.79688 12.1873 5.87187 12.0342 5.92812 11.9467L6.03438 11.7811C5.87188 11.528 5.79688 11.3748 5.76562 11.2811C5.73125 11.178 5.70625 11.0186 5.70625 10.8748C5.70625 10.7467 5.71563 10.5811 5.72813 10.5092L5.75313 10.3748C5.50313 10.3748 5.39062 10.3498 5.31563 10.3123C5.23125 10.2686 5.16875 10.2092 5.125 10.1186C5.06563 9.99983 5.05937 9.94983 5.075 9.70296C5.0875 9.54983 5.125 9.30921 5.15938 9.17171C5.19688 9.03421 5.27812 8.80921 5.34375 8.67171C5.40625 8.53421 5.52188 8.33108 5.59688 8.21858C5.67188 8.10608 5.82812 7.92483 5.94063 7.81233C6.05313 7.69983 6.23438 7.54358 6.34688 7.46858C6.45938 7.39358 6.6625 7.27795 6.8 7.21545C6.9375 7.14983 7.1625 7.06858 7.3 7.03108C7.49688 6.97483 7.66875 6.9592 8.09688 6.9467L8.64375 6.93108C8.68125 6.34358 8.70312 6.06233 8.71562 5.92795L8.7375 5.68733H1.5875L1.60625 5.93108ZM7.12813 8.09983C6.92188 8.20296 6.80625 8.28733 6.60938 8.48421C6.40625 8.68421 6.32812 8.79046 6.22813 9.00296C6.15625 9.14671 6.09063 9.30608 6.08125 9.35295L6.06563 9.44046H15.0031C14.9781 9.30608 14.9125 9.14671 14.8406 9.00296C14.7375 8.79046 14.6594 8.68421 14.4594 8.48421C14.2594 8.28421 14.15 8.20296 13.9406 8.09983C13.7937 8.02796 13.575 7.94983 13.4563 7.9217C13.2719 7.8842 12.7906 7.87795 10.5188 7.87795C8.31563 7.88108 7.7625 7.89045 7.59688 7.92483C7.48438 7.94983 7.275 8.02796 7.12813 8.09983ZM1.8625 10.1123C1.90625 10.8155 1.95 11.3998 1.95938 11.4092C1.96563 11.4155 2.05313 11.403 2.15313 11.3811C2.25 11.3561 2.40625 11.2998 2.5 11.2561C2.59375 11.2092 2.74062 11.1092 2.82812 11.0311C2.92188 10.9467 3.03438 10.7967 3.10313 10.6717C3.17813 10.528 3.23125 10.3748 3.25625 10.2217C3.2875 10.0342 3.2875 9.94045 3.25938 9.77483C3.2375 9.6592 3.18438 9.48421 3.1375 9.3842C3.0875 9.27796 2.975 9.12483 2.8625 9.01546C2.75312 8.90296 2.60312 8.79045 2.50312 8.74358C2.40937 8.69983 2.25625 8.64983 2.16563 8.63108C2.075 8.61233 1.95312 8.59671 1.89375 8.59671C1.7875 8.59671 1.78437 8.59983 1.78437 8.71233C1.78437 8.77796 1.81875 9.40608 1.8625 10.1123ZM6.69063 10.628C6.65625 10.6967 6.62813 10.7936 6.62813 10.8467C6.62813 10.8967 6.65625 10.9967 6.69063 11.0655C6.73229 11.1488 6.79479 11.2113 6.87813 11.253C7 11.3123 7.06563 11.3155 10.5344 11.3155C14.0031 11.3155 14.0688 11.3123 14.1906 11.253C14.274 11.2113 14.3365 11.1488 14.3781 11.0655C14.4125 10.9967 14.4406 10.8967 14.4406 10.8467C14.4406 10.7936 14.4125 10.6967 14.3781 10.628C14.3365 10.5446 14.274 10.4821 14.1906 10.4405C14.0688 10.378 14.0031 10.378 10.525 10.378C7.075 10.378 6.98438 10.3811 6.86875 10.4405C6.79688 10.478 6.72813 10.5467 6.69063 10.628ZM6.8625 12.328C6.79375 12.3717 6.7125 12.4498 6.68437 12.5092C6.65312 12.5655 6.62813 12.6561 6.62813 12.7123C6.62813 12.7686 6.65625 12.8717 6.69063 12.9405C6.73229 13.0238 6.79479 13.0863 6.87813 13.128C7 13.1873 7.06563 13.1905 10.5344 13.1905C13.9344 13.1905 14.0687 13.1873 14.1812 13.1311C14.25 13.0967 14.3281 13.0186 14.3687 12.9498C14.4062 12.8842 14.4375 12.7842 14.4406 12.728C14.4406 12.6717 14.4125 12.5717 14.3781 12.503C14.3365 12.4196 14.274 12.3571 14.1906 12.3155C14.0688 12.253 14.0031 12.253 10.525 12.253H6.9875L6.8625 12.328ZM6.1125 14.1967C6.125 14.2342 6.17812 14.3342 6.23125 14.4186C6.2875 14.503 6.39375 14.6311 6.475 14.6998C6.55312 14.7717 6.6875 14.8623 6.77187 14.903C6.85625 14.9467 6.99375 14.9967 7.08125 15.0217C7.20625 15.053 7.9125 15.0623 10.5344 15.0623C13.1562 15.0623 13.8625 15.053 13.9875 15.0217C14.0719 14.9967 14.2125 14.9467 14.2969 14.903C14.3813 14.8623 14.5156 14.7717 14.5938 14.6998C14.6719 14.6311 14.7812 14.503 14.8344 14.4186C14.8906 14.3342 14.9406 14.2342 14.9531 14.1967L14.9719 14.1248H6.09062L6.1125 14.1967Z" fill="#ACB9CB"/>
</g>
<defs>
<clipPath id="clip0_556_4054">
<rect width="16" height="16" fill="white"/>
</clipPath>
</defs>
</svg>
