<svg width="16" height="16" viewBox="0 0 16 16" fill="none" xmlns="http://www.w3.org/2000/svg">
<path fill-rule="evenodd" clip-rule="evenodd" d="M15.75 3.04944C15.8881 3.04944 16 2.93751 16 2.79944V2.36194C16 2.22387 15.8881 2.11194 15.75 2.11194H12.0492C11.9111 2.11194 11.7992 2.00001 11.7992 1.86194V1.1875C11.7992 1.04943 11.9111 0.9375 12.0492 0.9375H12.4375C12.5756 0.9375 12.6875 0.825571 12.6875 0.6875V0.25C12.6875 0.111929 12.5756 0 12.4375 0H0.25C0.111929 0 0 0.111929 0 0.25V0.6875C0 0.825571 0.111929 0.9375 0.25 0.9375H0.596558C0.734629 0.9375 0.846558 1.04943 0.846558 1.1875V14.8125C0.846558 14.9506 0.734629 15.0625 0.596558 15.0625H0.25C0.111929 15.0625 0 15.1744 0 15.3125V15.75C0 15.8881 0.111929 16 0.25 16H15.75C15.8881 16 16 15.8881 16 15.75V15.3125C16 15.1744 15.8881 15.0625 15.75 15.0625H15.4064C15.2683 15.0625 15.1564 14.9506 15.1564 14.8125V3.29944C15.1564 3.16137 15.2683 3.04944 15.4064 3.04944H15.75ZM1.78406 1.1875C1.78406 1.04943 1.89599 0.9375 2.03406 0.9375H10.6117C10.7498 0.9375 10.8617 1.04943 10.8617 1.1875V14.8125C10.8617 14.9506 10.7498 15.0625 10.6117 15.0625H9.86157C9.7235 15.0625 9.61157 14.9506 9.61157 14.8125V11.576C9.61157 11.438 9.7235 11.326 9.86157 11.326H9.93335C10.0714 11.326 10.1833 11.2141 10.1833 11.076V10.6385C10.1833 10.5005 10.0714 10.3885 9.93335 10.3885H2.7124C2.57433 10.3885 2.4624 10.5005 2.4624 10.6385V11.076C2.4624 11.2141 2.57433 11.326 2.7124 11.326H2.78418C2.92225 11.326 3.03418 11.438 3.03418 11.576V14.8125C3.03418 14.9506 2.92225 15.0625 2.78418 15.0625H2.03406C1.89599 15.0625 1.78406 14.9506 1.78406 14.8125V1.1875ZM6.54895 15.0627C6.68702 15.0627 6.79895 14.9508 6.79895 14.8127V13.3662C6.79895 13.2281 6.68702 13.1162 6.54895 13.1162H6.0968C5.95873 13.1162 5.8468 13.2281 5.8468 13.3662V14.8127C5.8468 14.9508 5.95873 15.0627 6.0968 15.0627H6.54895ZM5.1593 12.1785C5.02123 12.1785 4.9093 12.2904 4.9093 12.4285V14.8125C4.9093 14.9506 4.79737 15.0625 4.6593 15.0625H4.22168C4.08361 15.0625 3.97168 14.9506 3.97168 14.8125V11.576C3.97168 11.438 4.08361 11.326 4.22168 11.326H8.42407C8.56214 11.326 8.67407 11.438 8.67407 11.576V14.8125C8.67407 14.9506 8.56214 15.0625 8.42407 15.0625H7.98645C7.84838 15.0625 7.73645 14.9506 7.73645 14.8125V12.4285C7.73645 12.2904 7.62452 12.1785 7.48645 12.1785H5.1593ZM13.969 15.0629C14.1071 15.0629 14.219 14.9509 14.219 14.8129V3.2998C14.219 3.16173 14.1071 3.0498 13.969 3.0498H12.0493C11.9112 3.0498 11.7993 3.16173 11.7993 3.2998V3.94446C11.7993 4.08253 11.9112 4.19446 12.0493 4.19446H12.7501C12.8882 4.19446 13.0001 4.30639 13.0001 4.44446V4.88196C13.0001 5.02003 12.8882 5.13196 12.7501 5.13196H12.0493C11.9112 5.13196 11.7993 5.24389 11.7993 5.38196V5.81958C11.7993 5.95765 11.9112 6.06958 12.0493 6.06958H12.7501C12.8882 6.06958 13.0001 6.18151 13.0001 6.31958V6.75708C13.0001 6.89515 12.8882 7.00708 12.7501 7.00708H12.0493C11.9112 7.00708 11.7993 7.11901 11.7993 7.25708V7.6947C11.7993 7.83277 11.9112 7.9447 12.0493 7.9447H12.7501C12.8882 7.9447 13.0001 8.05663 13.0001 8.1947V8.6322C13.0001 8.77027 12.8882 8.8822 12.7501 8.8822H12.0493C11.9112 8.8822 11.7993 8.99413 11.7993 9.1322V9.5697C11.7993 9.70777 11.9112 9.8197 12.0493 9.8197H12.7501C12.8882 9.8197 13.0001 9.93163 13.0001 10.0697V10.5072C13.0001 10.6453 12.8882 10.7572 12.7501 10.7572H12.0493C11.9112 10.7572 11.7993 10.8691 11.7993 11.0072V14.8129C11.7993 14.9509 11.9112 15.0629 12.0493 15.0629H13.969Z" fill="#ACB9CB"/>
<path fill-rule="evenodd" clip-rule="evenodd" d="M9.52161 2.02148C9.65968 2.02148 9.77161 2.13341 9.77161 2.27148V8.50134C9.77161 8.63941 9.65968 8.75134 9.52161 8.75134H3.16553C3.02746 8.75134 2.91553 8.63941 2.91553 8.50134V2.27148C2.91553 2.13341 3.02746 2.02148 3.16553 2.02148H9.52161ZM8.58411 7.81384C8.72218 7.81384 8.83411 7.70191 8.83411 7.56384V3.20898C8.83411 3.07091 8.72218 2.95898 8.58411 2.95898H4.10303C3.96496 2.95898 3.85303 3.07091 3.85303 3.20898V7.56384C3.85303 7.70191 3.96496 7.81384 4.10303 7.81384H8.58411Z" fill="#ACB9CB"/>
<path fill-rule="evenodd" clip-rule="evenodd" d="M5.92871 5.85559H6.75854V6.91711H7.69604V3.85645H6.75854V4.91809H5.92871V3.85645H4.99121V6.91711H5.92871V5.85559Z" fill="#ACB9CB"/>
</svg>
