<svg width="16" height="16" viewBox="0 0 16 16" fill="none" xmlns="http://www.w3.org/2000/svg">
<g clip-path="url(#clip0_556_4068)">
<path fill-rule="evenodd" clip-rule="evenodd" d="M5.48438 0.00326227C5.71562 0.000137265 5.85313 0.0188873 6.01562 0.0657623C6.13438 0.103262 6.33437 0.181387 6.45312 0.243887C6.6 0.318887 6.75313 0.437637 6.925 0.609512C7.125 0.806387 7.20625 0.915762 7.30937 1.12514C7.38125 1.27201 7.45937 1.49076 7.48438 1.60951C7.50938 1.73139 7.53125 1.91889 7.53125 2.03139C7.53125 2.14389 7.50938 2.33451 7.48438 2.45326C7.45937 2.57201 7.38125 2.79076 7.30937 2.93764C7.20625 3.14701 7.12188 3.25639 6.925 3.45639C6.725 3.65326 6.61562 3.73764 6.40625 3.84076C6.25938 3.91264 6.04063 3.99076 5.92188 4.01576C5.80312 4.04076 5.6125 4.06264 5.5 4.06264C5.3875 4.06264 5.19688 4.04076 5.07812 4.01576C4.95937 3.99076 4.74062 3.91264 4.59375 3.84076C4.38438 3.73764 4.275 3.65326 4.075 3.45639C3.87812 3.25639 3.79375 3.14701 3.69062 2.93764C3.61875 2.79076 3.54063 2.57201 3.51562 2.45326C3.49062 2.33451 3.46875 2.14389 3.46875 2.03139C3.46875 1.91889 3.49062 1.73139 3.51562 1.60951C3.54063 1.48764 3.61875 1.27201 3.69062 1.12514C3.79375 0.915762 3.875 0.806387 4.075 0.609512C4.23437 0.450137 4.40313 0.318887 4.53125 0.250137C4.64375 0.190762 4.83437 0.112637 4.95312 0.0751373C5.11562 0.0220123 5.25312 0.00326227 5.48438 0.00326227ZM4.9375 1.10014C4.85938 1.14389 4.75 1.23451 4.69063 1.30014C4.63125 1.36889 4.54688 1.50014 4.50313 1.59389C4.43438 1.73764 4.42188 1.81264 4.42188 2.03139C4.42188 2.26576 4.43438 2.32201 4.51875 2.50014C4.57813 2.62201 4.675 2.75326 4.75313 2.82514C4.82813 2.89076 4.96875 2.98139 5.0625 3.02826C5.20625 3.09701 5.27813 3.10951 5.5 3.10951C5.71875 3.10951 5.79688 3.09701 5.9375 3.02826C6.03125 2.98451 6.17188 2.89389 6.24375 2.82514C6.32188 2.75639 6.42188 2.61576 6.47813 2.50014C6.56563 2.32201 6.57812 2.26576 6.57812 2.03139C6.57812 1.81264 6.56562 1.73451 6.49687 1.59389C6.45312 1.50014 6.3625 1.35951 6.29375 1.28764C6.22187 1.20639 6.0875 1.10951 5.96875 1.05326C5.8125 0.978262 5.71562 0.953262 5.54688 0.947012C5.42812 0.940762 5.27187 0.956387 5.20312 0.978262C5.13438 1.00014 5.01562 1.05326 4.9375 1.10014ZM12.6719 0.00326227C12.9031 0.000137265 13.0406 0.0188873 13.2031 0.0657623C13.325 0.103262 13.5188 0.181387 13.6406 0.243887C13.7875 0.318887 13.9406 0.437637 14.1125 0.609512C14.3125 0.806387 14.3938 0.915762 14.4969 1.12514C14.5687 1.27201 14.6469 1.49076 14.6719 1.60951C14.6969 1.73139 14.7188 1.91889 14.7188 2.03139C14.7188 2.14389 14.6969 2.33451 14.6719 2.45326C14.6469 2.57201 14.5687 2.79076 14.4969 2.93764C14.3938 3.14701 14.3094 3.25639 14.1125 3.45639C13.9125 3.65326 13.8031 3.73764 13.5938 3.84076C13.4469 3.91264 13.2312 3.99076 13.1094 4.01576C12.9875 4.04076 12.8 4.06264 12.6875 4.06264C12.575 4.06264 12.3875 4.04076 12.2656 4.01576C12.1438 3.99076 11.9281 3.91264 11.7812 3.84076C11.5719 3.73764 11.4625 3.65639 11.2656 3.45639C11.0938 3.28451 10.975 3.13139 10.9 2.98451C10.8375 2.86576 10.7688 2.70639 10.7031 2.50014H9.71875V6.56264H10.7031L10.7437 6.43139C10.7687 6.35639 10.8375 6.19701 10.9 6.07826C10.975 5.93139 11.0938 5.77826 11.2656 5.60639C11.4625 5.40639 11.5719 5.32514 11.7812 5.22201C11.9281 5.15014 12.1438 5.07201 12.2656 5.04701C12.3875 5.02201 12.575 5.00014 12.6875 5.00014C12.8 5.00014 12.9875 5.02201 13.1094 5.04701C13.2312 5.07201 13.4469 5.15014 13.5938 5.22201C13.8031 5.32514 13.9125 5.40951 14.1125 5.60639C14.3094 5.80639 14.3938 5.91576 14.4969 6.12514C14.5687 6.27201 14.6469 6.49076 14.6719 6.60951C14.6969 6.72826 14.7188 6.94076 14.7188 7.07826C14.7188 7.24076 14.6937 7.40326 14.6531 7.54701C14.6156 7.66576 14.5375 7.86576 14.475 7.98451C14.4 8.13139 14.2812 8.28451 14.1094 8.45639C13.9125 8.65639 13.8031 8.73764 13.5938 8.84076C13.4469 8.91264 13.2312 8.99076 13.1094 9.01576C12.9875 9.04076 12.8 9.06264 12.6875 9.06264C12.575 9.06264 12.3875 9.04076 12.2656 9.01576C12.1438 8.99076 11.9281 8.91264 11.7812 8.84076C11.5719 8.73764 11.4625 8.65639 11.2656 8.45639C11.0938 8.28451 10.975 8.13139 10.9 7.98451C10.8375 7.86576 10.7688 7.70639 10.7031 7.50014H9.71875V11.5626H10.7031L10.7437 11.4314C10.7687 11.3564 10.8375 11.2001 10.9 11.0783C10.975 10.9314 11.0938 10.7783 11.2656 10.6064C11.4625 10.4064 11.5719 10.3251 11.7812 10.222C11.9281 10.1501 12.1438 10.072 12.2656 10.047C12.3875 10.022 12.575 10.0001 12.6875 10.0001C12.8 10.0001 12.9875 10.022 13.1094 10.047C13.2312 10.072 13.4469 10.1501 13.5938 10.222C13.8031 10.3251 13.9125 10.4095 14.1125 10.6064C14.3094 10.8064 14.3938 10.9158 14.4969 11.1251C14.5687 11.272 14.6469 11.4876 14.6719 11.6095C14.6969 11.7314 14.7188 11.9189 14.7188 12.0314C14.7188 12.1439 14.6969 12.3314 14.6719 12.4533C14.6469 12.5751 14.5687 12.7908 14.4969 12.9376C14.3938 13.147 14.3094 13.2564 14.1125 13.4564C13.9125 13.6533 13.8031 13.7376 13.5938 13.8408C13.4469 13.9126 13.2312 13.9908 13.1094 14.0158C12.9875 14.0408 12.8 14.0626 12.6875 14.0626C12.575 14.0626 12.3875 14.0408 12.2656 14.0158C12.1438 13.9908 11.9281 13.9126 11.7812 13.8408C11.5719 13.7376 11.4625 13.6564 11.2656 13.4564C11.0938 13.2845 10.975 13.1314 10.9 12.9845C10.8375 12.8626 10.7688 12.7064 10.7031 12.5001H8.78125V1.56264H10.7031L10.7437 1.43139C10.7687 1.35639 10.8375 1.19701 10.9 1.07826C10.9781 0.928262 11.0938 0.781387 11.2656 0.609512C11.425 0.450137 11.5906 0.318887 11.7188 0.250137C11.8313 0.190762 12.0188 0.112637 12.1406 0.0751373C12.3031 0.0220123 12.4406 0.00326227 12.6719 0.00326227ZM12.125 1.10014C12.0469 1.14389 11.9375 1.23451 11.8781 1.30014C11.8188 1.36889 11.7344 1.50014 11.6906 1.59389C11.6219 1.73764 11.6094 1.81264 11.6094 2.03139C11.6094 2.26576 11.6219 2.32201 11.7063 2.50014C11.7656 2.62201 11.8625 2.75326 11.9406 2.82514C12.0156 2.89076 12.1562 2.98139 12.25 3.02826C12.3938 3.09701 12.4656 3.10951 12.6875 3.10951C12.9062 3.10951 12.9844 3.09701 13.125 3.02826C13.2188 2.98451 13.3594 2.89389 13.4312 2.82514C13.5094 2.75639 13.6094 2.61576 13.6656 2.50014C13.7531 2.32201 13.7656 2.26576 13.7656 2.03139C13.7656 1.81264 13.7531 1.73451 13.6844 1.59389C13.6406 1.50014 13.55 1.35951 13.4812 1.28764C13.4094 1.20639 13.275 1.10951 13.1562 1.05326C13 0.978262 12.9031 0.953262 12.7344 0.947012C12.6125 0.940762 12.4594 0.956387 12.3906 0.978262C12.3219 1.00014 12.2031 1.05326 12.125 1.10014ZM12.125 6.10014C12.0469 6.14389 11.9375 6.23451 11.8781 6.30014C11.8188 6.36889 11.7344 6.50014 11.6906 6.59389C11.6219 6.73764 11.6094 6.81264 11.6094 7.03139C11.6094 7.26576 11.6219 7.32201 11.7063 7.50014C11.7656 7.62201 11.8625 7.75326 11.9406 7.82514C12.0156 7.89076 12.1562 7.98139 12.25 8.02826C12.3938 8.09701 12.4656 8.10951 12.6875 8.10951C12.9062 8.10951 12.9844 8.09701 13.125 8.02826C13.2188 7.98451 13.3594 7.89389 13.4312 7.82514C13.5094 7.75639 13.6094 7.61576 13.6656 7.50014C13.7531 7.32201 13.7656 7.26576 13.7656 7.03139C13.7656 6.81264 13.7531 6.73451 13.6844 6.59389C13.6406 6.50014 13.55 6.35951 13.4812 6.28764C13.4094 6.20639 13.275 6.10951 13.1562 6.05326C13 5.97826 12.9031 5.95326 12.7344 5.94701C12.6125 5.94076 12.4594 5.95639 12.3906 5.97826C12.3219 6.00014 12.2031 6.05326 12.125 6.10014ZM12.125 11.1001C12.0469 11.1439 11.9375 11.2345 11.8781 11.3001C11.8188 11.3689 11.7344 11.5001 11.6906 11.5939C11.6219 11.7376 11.6094 11.8126 11.6094 12.0314C11.6094 12.2658 11.6219 12.322 11.7063 12.5001C11.7656 12.622 11.8625 12.7533 11.9406 12.8251C12.0156 12.8908 12.1562 12.9814 12.25 13.0283C12.3938 13.097 12.4656 13.1095 12.6875 13.1095C12.9062 13.1095 12.9844 13.097 13.125 13.0283C13.2188 12.9845 13.3594 12.8939 13.4312 12.8251C13.5094 12.7564 13.6094 12.6158 13.6656 12.5001C13.7531 12.322 13.7656 12.2658 13.7656 12.0314C13.7656 11.8126 13.7531 11.7345 13.6844 11.5939C13.6406 11.5001 13.55 11.3595 13.4812 11.2876C13.4094 11.2064 13.275 11.1095 13.1562 11.0533C13 10.9783 12.9031 10.9533 12.7344 10.947C12.6125 10.9408 12.4594 10.9564 12.3906 10.9783C12.3219 11.0001 12.2031 11.0533 12.125 11.1001ZM7.84375 5.00014V16.0001H3.15625V11.4845L3.05625 11.5095C3 11.5251 2.88437 11.5439 2.79688 11.5533C2.7125 11.5626 2.55 11.5533 2.4375 11.5314C2.325 11.5095 2.15625 11.4564 2.0625 11.4126C1.96562 11.3658 1.80937 11.2501 1.70312 11.1408C1.59375 11.0345 1.47812 10.8814 1.43125 10.7814C1.3875 10.6876 1.3375 10.5345 1.31562 10.4439C1.29375 10.3345 1.28125 9.75014 1.28125 8.65639C1.28125 7.09701 1.28437 7.02201 1.34687 6.78764C1.38437 6.65639 1.44375 6.47514 1.48125 6.39076C1.51875 6.30326 1.60938 6.15014 1.67813 6.04701C1.74688 5.94389 1.8875 5.77826 1.9875 5.68139C2.09062 5.58139 2.25 5.45014 2.34375 5.38451C2.4375 5.32201 2.60625 5.23139 2.71875 5.18451C2.83125 5.13764 3.02188 5.07826 3.14062 5.05326C3.32188 5.01264 3.73438 5.00326 7.84375 5.00014ZM2.98438 6.09389C2.9 6.13451 2.74375 6.25326 2.6375 6.35951C2.52813 6.46889 2.41563 6.61889 2.36875 6.71889C2.325 6.81264 2.27187 6.96576 2.25312 7.05326C2.23125 7.16264 2.21875 7.73764 2.21875 8.73451C2.21875 10.1595 2.22188 10.2564 2.27813 10.3658C2.3125 10.4345 2.3875 10.5126 2.45625 10.5533C2.525 10.5908 2.625 10.622 2.68125 10.6251C2.73438 10.6251 2.8375 10.597 2.90625 10.5626C2.98958 10.521 3.05208 10.4585 3.09375 10.3751C3.15313 10.2533 3.15625 10.1876 3.15625 8.56264V6.87514H4.09375V15.0626H5.03125V10.1564H5.96875V15.0626H6.90625V5.93764H5.96875V8.75014H5.03125V5.93764C3.72187 5.94076 3.4 5.95639 3.29688 5.98139C3.20938 6.00326 3.06875 6.05326 2.98438 6.09389Z" fill="#ACB9CB"/>
</g>
<defs>
<clipPath id="clip0_556_4068">
<rect width="16" height="16" fill="white"/>
</clipPath>
</defs>
</svg>
