<svg width="16" height="16" viewBox="0 0 16 16" fill="none" xmlns="http://www.w3.org/2000/svg">
<g clip-path="url(#clip0_556_4079)">
<path fill-rule="evenodd" clip-rule="evenodd" d="M10.4533 0.262355C10.6752 0.27173 10.9564 0.29673 11.0783 0.324855C11.2002 0.349855 11.4033 0.406105 11.5314 0.449855C11.6595 0.49673 11.8439 0.57798 11.9377 0.63423C12.0314 0.687355 12.2064 0.83423 12.547 1.17798L12.6408 1.05923C12.6908 0.993605 12.8127 0.87798 12.9064 0.80298C13.0002 0.724855 13.1627 0.62173 13.2658 0.568605C13.3689 0.518605 13.5439 0.44673 13.6564 0.412355C13.7689 0.37798 13.9439 0.331105 14.047 0.30923C14.1502 0.287355 14.447 0.268605 14.7033 0.26548C15.122 0.26548 15.1845 0.27173 15.2814 0.331105C15.3408 0.36548 15.422 0.443605 15.4627 0.50298C15.5002 0.562355 15.5408 0.68423 15.5502 0.781105C15.5627 0.874855 15.5627 1.09986 15.5533 1.28111C15.5439 1.46236 15.5189 1.68736 15.5002 1.78111C15.4783 1.87486 15.4345 2.04361 15.4033 2.15611C15.3689 2.26861 15.3002 2.4436 15.247 2.54673C15.197 2.64986 15.1002 2.80611 15.0283 2.89048C14.9595 2.97485 14.8283 3.10611 14.7408 3.18111C14.6502 3.25611 14.4658 3.37173 14.3283 3.44048C14.1908 3.5061 13.9658 3.59048 13.8283 3.62486C13.6908 3.65923 13.4595 3.69986 13.047 3.73423L13.0314 5.06236L13.547 4.79673C13.9408 4.59361 14.0908 4.53111 14.1877 4.53111C14.2564 4.53111 14.3502 4.54985 14.397 4.57485C14.447 4.59985 14.5158 4.65298 14.5533 4.6936C14.5877 4.7311 14.6345 4.82173 14.6533 4.89048C14.6752 4.97485 14.6877 5.59673 14.6877 8.49986H15.1564C15.5533 8.49986 15.6439 8.50923 15.7439 8.55923C15.8095 8.59361 15.8877 8.6686 15.997 8.85923L16.0002 12.1249C16.0002 15.2467 15.997 15.3967 15.9439 15.4999C15.9095 15.5592 15.8377 15.6405 15.672 15.753H0.328282L0.222032 15.6811C0.162657 15.6405 0.0907822 15.5592 0.0564072 15.4999C0.0032822 15.3967 0.000157208 15.2467 0.00328221 8.85923L0.0720322 8.73736C0.112657 8.6686 0.190782 8.59361 0.256407 8.55923C0.356407 8.50923 0.447032 8.49986 1.31266 8.49986V7.70923C1.31266 7.27798 1.32828 6.86861 1.34391 6.80298C1.36266 6.74048 1.41266 6.64673 1.45953 6.59673C1.51578 6.53736 2.15016 6.19673 3.15641 5.68111C4.64703 4.92173 4.77828 4.85923 4.92828 4.85923C5.04078 4.85923 5.11578 4.87798 5.17516 4.92173C5.21891 4.95611 5.28766 5.02486 5.32516 5.07173C5.39078 5.15923 5.39078 5.18423 5.40641 8.49986H5.96891V7.65611C5.96891 6.9186 5.97516 6.79673 6.02203 6.69673C6.05328 6.63423 6.12828 6.55298 6.18766 6.51235C6.24703 6.47485 6.99391 6.09048 7.84391 5.65611C9.02203 5.05611 9.42516 4.86548 9.53141 4.85298C9.63766 4.84361 9.70016 4.85923 9.79391 4.91235C9.85953 4.95298 9.94078 5.03423 9.97203 5.09361C10.0283 5.19673 10.0314 5.30611 10.0314 8.49986H10.5939V7.5061C10.5939 6.53111 10.5939 6.51235 10.6658 6.37486C10.7345 6.23736 10.7595 6.22173 12.0627 5.56236L12.047 3.73423L11.7814 3.71236C11.6345 3.70298 11.4252 3.66861 11.3127 3.64048C11.2002 3.61235 11.0314 3.56236 10.9377 3.52798C10.8439 3.49361 10.6752 3.41235 10.5627 3.34673C10.4502 3.28111 10.272 3.13423 10.1627 3.0186C10.0564 2.90611 9.92828 2.73735 9.87516 2.64673C9.82516 2.55923 9.74078 2.35923 9.69078 2.20298C9.64078 2.04673 9.58141 1.82173 9.55953 1.70298C9.53766 1.58111 9.51891 1.30298 9.51891 1.07798C9.51891 0.768605 9.53141 0.64673 9.57203 0.562355C9.60016 0.50298 9.65328 0.424855 9.69078 0.39048C9.72828 0.356105 9.82203 0.30923 9.90328 0.287355C9.99703 0.262355 10.1845 0.25298 10.4533 0.262355ZM10.4814 1.39986C10.4939 1.49673 10.5252 1.66236 10.5533 1.76548C10.5783 1.86861 10.6345 2.02486 10.6783 2.10923C10.7189 2.19673 10.8064 2.3186 10.8689 2.3811C10.9314 2.44673 11.0533 2.53423 11.1408 2.57486C11.2252 2.61861 11.3752 2.67173 11.4689 2.69673C11.5627 2.72173 11.7283 2.74986 11.8345 2.76236L12.0314 2.78111C12.0314 2.61235 12.0095 2.45923 11.9845 2.33736C11.9564 2.21236 11.8939 2.02173 11.8439 1.91548C11.7908 1.80611 11.697 1.66548 11.6314 1.60298C11.5658 1.53736 11.4345 1.44673 11.3408 1.40298C11.247 1.35611 11.0689 1.29673 10.9439 1.26861C10.822 1.24048 10.6595 1.21861 10.5908 1.21861H10.4595L10.4814 1.39986ZM13.7345 1.40611C13.6158 1.46236 13.4908 1.55611 13.397 1.66236C13.3095 1.75611 13.2189 1.90298 13.1814 2.00298C13.147 2.09673 13.0939 2.30298 13.0658 2.45923C13.0377 2.6186 13.0283 2.75923 13.0408 2.77173C13.0533 2.78735 13.1939 2.77486 13.3533 2.74673C13.5127 2.71861 13.7189 2.6686 13.8127 2.6311C13.9095 2.59673 14.0564 2.50298 14.1533 2.41861C14.2439 2.33423 14.3564 2.19673 14.397 2.11236C14.4408 2.02486 14.5033 1.84986 14.5345 1.72173C14.5658 1.59048 14.5939 1.42486 14.5939 1.35298V1.22173C14.3877 1.22486 14.2377 1.24673 14.1252 1.27173C14.0127 1.29361 13.8377 1.35611 13.7345 1.40611ZM11.5595 6.88423C11.547 9.08111 11.5439 9.11236 11.4783 9.21861C11.4408 9.28111 11.3689 9.35298 11.3158 9.38423C11.2283 9.43423 11.1189 9.43736 10.3189 9.43736C9.47828 9.43736 9.41578 9.43423 9.31891 9.37486C9.26578 9.34048 9.19078 9.2686 9.15641 9.21235C9.09703 9.11548 9.09391 9.0561 9.09391 7.61861C9.09391 6.44361 9.08453 6.12798 9.05328 6.12798C9.03453 6.13111 8.54391 6.37173 7.96891 6.6686L6.92203 7.20298C6.89391 9.02798 6.88453 9.15611 6.83453 9.22798C6.80641 9.27485 6.73453 9.34048 6.67828 9.37486C6.58453 9.43423 6.52203 9.43736 5.67828 9.43736C4.88141 9.43736 4.77203 9.43423 4.68453 9.38423C4.63141 9.35298 4.55953 9.28111 4.52203 9.21861C4.45328 9.11236 4.45328 9.09048 4.44391 7.61861C4.44078 6.79673 4.42828 6.12798 4.41266 6.12798C4.40016 6.12798 3.91578 6.37173 3.33766 6.66548L2.28141 7.20298C2.28141 8.9936 2.27516 9.09048 2.22203 9.18736C2.19078 9.24986 2.11891 9.3311 2.05953 9.3686C1.95953 9.43736 1.92203 9.44048 1.45953 9.44048L0.968907 9.43736V14.8124H15.0314V9.43736C14.1783 9.43736 14.0408 9.42798 13.9689 9.39048C13.9158 9.36548 13.8439 9.29985 13.8033 9.2436C13.7345 9.1436 13.7345 9.14048 13.7189 7.46236L13.7033 5.78423L11.5595 6.88423ZM3.34078 10.5374C3.50641 10.5342 3.67203 10.553 3.77828 10.5842C3.87516 10.6124 4.02203 10.6749 4.10641 10.7249C4.19391 10.7749 4.33766 10.8874 4.42828 10.978C4.51891 11.0686 4.63453 11.2217 4.68453 11.3155C4.73453 11.4092 4.79703 11.5717 4.82516 11.6749C4.85016 11.778 4.87516 11.9405 4.87516 12.0342C4.87516 12.128 4.85328 12.2874 4.82516 12.3874C4.80016 12.4842 4.74078 12.6405 4.69703 12.7311C4.65016 12.8186 4.54078 12.9686 4.45328 13.0624C4.36578 13.153 4.21891 13.2749 4.12203 13.328C4.02828 13.3842 3.87203 13.453 3.77203 13.4811C3.67203 13.5124 3.48453 13.5342 3.35016 13.5342C3.19391 13.5342 3.04703 13.5155 2.93453 13.478C2.84078 13.4436 2.70016 13.3874 2.62203 13.3467C2.54703 13.3061 2.39703 13.1905 2.29391 13.0842C2.19078 12.978 2.06891 12.8155 2.02203 12.7217C1.97516 12.628 1.91578 12.4655 1.89078 12.3624C1.86266 12.2592 1.84078 12.1124 1.84078 12.0342C1.84078 11.9561 1.86266 11.8092 1.89078 11.7061C1.91578 11.603 1.97203 11.4499 2.01266 11.3624C2.05328 11.278 2.16266 11.1249 2.25328 11.0217C2.34391 10.9217 2.49703 10.7936 2.59078 10.7374C2.68766 10.6842 2.83453 10.6155 2.91891 10.5905C3.00641 10.5624 3.19703 10.5405 3.34078 10.5374ZM2.90953 11.7092C2.84078 11.8061 2.82516 11.8592 2.82516 12.0342C2.82516 12.2124 2.83766 12.2592 2.91266 12.3561C2.95953 12.4217 3.03766 12.4905 3.08453 12.5155C3.13141 12.5405 3.21891 12.5686 3.27828 12.5811C3.34703 12.5936 3.43766 12.5874 3.51266 12.5624C3.58141 12.5405 3.68141 12.4842 3.73141 12.4436C3.78141 12.3999 3.84078 12.3155 3.86266 12.2624C3.88453 12.2061 3.90328 12.0967 3.90328 12.0186C3.90328 11.9405 3.88453 11.8405 3.85953 11.7936C3.83766 11.7436 3.78453 11.6749 3.74391 11.6374C3.70328 11.5999 3.61891 11.5467 3.55328 11.5217C3.48766 11.4936 3.39703 11.4717 3.35016 11.4717C3.30328 11.4717 3.20328 11.4999 3.12828 11.5311C3.04391 11.5686 2.95953 11.6374 2.90953 11.7092ZM7.98141 10.5374C8.18141 10.5342 8.31578 10.5499 8.43453 10.5905C8.53141 10.6249 8.65641 10.6749 8.71578 10.7061C8.77828 10.7374 8.89391 10.8186 8.97828 10.8905C9.06266 10.9624 9.18141 11.0967 9.24703 11.1905C9.30953 11.2842 9.39391 11.4624 9.43453 11.5811C9.49703 11.7686 9.50328 11.8436 9.49078 12.0967C9.48141 12.2905 9.45328 12.453 9.41266 12.5655C9.37516 12.6592 9.28453 12.8217 9.20641 12.9249C9.13141 13.028 8.98453 13.1717 8.88453 13.2467C8.78453 13.3217 8.62516 13.4124 8.52828 13.4499C8.38766 13.5061 8.29391 13.5186 7.99703 13.5186C7.70328 13.5186 7.60953 13.5061 7.46578 13.4499C7.37203 13.4124 7.21266 13.3217 7.11266 13.2467C7.01266 13.1717 6.86578 13.028 6.79078 12.9249C6.71266 12.8217 6.62203 12.6592 6.58453 12.5655C6.54391 12.453 6.51578 12.2905 6.50641 12.0967C6.49078 11.8436 6.50016 11.7686 6.56266 11.5811C6.60328 11.4624 6.68766 11.2842 6.75016 11.1905C6.81266 11.0967 6.93453 10.9624 7.01891 10.8905C7.10328 10.8186 7.21891 10.7374 7.27828 10.7061C7.34078 10.6749 7.45953 10.6249 7.54391 10.5936C7.64703 10.5592 7.80016 10.5374 7.98141 10.5374ZM7.54078 11.7311C7.46891 11.8342 7.45016 11.8905 7.45016 12.0342C7.45016 12.1717 7.46891 12.2342 7.52828 12.3249C7.57203 12.3842 7.65641 12.4686 7.71578 12.5092C7.79703 12.5624 7.86578 12.5811 7.99703 12.5811C8.13453 12.5811 8.20016 12.5655 8.28766 12.503C8.35016 12.4592 8.43141 12.378 8.47203 12.3186C8.52828 12.2374 8.54391 12.1686 8.54391 12.0342C8.54391 11.8967 8.52828 11.8311 8.46578 11.7342C8.41891 11.6624 8.32828 11.5842 8.24703 11.5436C8.16891 11.503 8.05953 11.4717 7.99703 11.4717C7.93766 11.4717 7.83141 11.503 7.75953 11.5405C7.68766 11.5749 7.58766 11.6624 7.54078 11.7311ZM12.6158 10.5374C12.7689 10.5342 12.947 10.5561 13.0533 10.5874C13.1533 10.6155 13.3095 10.6842 13.4033 10.7374C13.5002 10.7936 13.6502 10.9217 13.7439 11.0217C13.8345 11.1249 13.9439 11.278 13.9845 11.3624C14.0252 11.4499 14.0814 11.603 14.1064 11.7061C14.1345 11.8092 14.1564 11.9561 14.1564 12.0342C14.1564 12.1124 14.1345 12.2592 14.1064 12.3624C14.0814 12.4655 14.022 12.628 13.9752 12.7217C13.9283 12.8155 13.8064 12.978 13.7033 13.0842C13.597 13.1905 13.4502 13.3061 13.372 13.3467C13.297 13.3874 13.1564 13.4436 13.0595 13.478C12.9502 13.5155 12.8033 13.5342 12.647 13.5342C12.5127 13.5342 12.3252 13.5124 12.2252 13.4811C12.1252 13.453 11.9689 13.3842 11.872 13.328C11.7783 13.2749 11.6314 13.153 11.5439 13.0624C11.4564 12.9686 11.347 12.8186 11.3002 12.7311C11.2533 12.6405 11.197 12.4842 11.1689 12.3874C11.1439 12.2874 11.122 12.128 11.122 12.0342C11.122 11.9405 11.1439 11.778 11.172 11.6749C11.2002 11.5717 11.2627 11.4092 11.3127 11.3155C11.3627 11.2217 11.4783 11.0686 11.5689 10.978C11.6595 10.8874 11.797 10.778 11.872 10.7311C11.9502 10.6874 12.0908 10.6249 12.1845 10.5936C12.2939 10.5592 12.4564 10.5374 12.6158 10.5374ZM12.2533 11.6374C12.2127 11.6749 12.1595 11.7436 12.1345 11.7936C12.1127 11.8405 12.0908 11.9405 12.0908 12.0186C12.0908 12.0967 12.1095 12.2061 12.1345 12.2624C12.1564 12.3155 12.2158 12.3999 12.2658 12.4436C12.3158 12.4842 12.4127 12.5405 12.4814 12.5624C12.5595 12.5874 12.6502 12.5936 12.7158 12.5811C12.7783 12.5686 12.8658 12.5405 12.9127 12.5155C12.9595 12.4905 13.0377 12.4217 13.0845 12.3561C13.1595 12.2592 13.1689 12.2124 13.1689 12.0342C13.1689 11.8499 13.1595 11.8124 13.0752 11.7061C13.0252 11.6405 12.9252 11.5592 12.8564 11.528C12.7877 11.4999 12.6908 11.4749 12.6377 11.4749C12.5877 11.4749 12.497 11.4967 12.4345 11.5217C12.3752 11.5467 12.2939 11.5999 12.2533 11.6374Z" fill="#ACB9CB"/>
<g clip-path="url(#clip1_556_4079)">
<path fill-rule="evenodd" clip-rule="evenodd" d="M-193.5 -246.8L71 -247L79.3 -244.3C84.3 -242.7 90.3 -239.7 94.9 -236.6C99 -233.8 104.4 -229 106.8 -226C109.2 -223 112.5 -218 114 -215C115.5 -212 117.6 -207 118.6 -204C120.3 -199 120.4 -193.2 121.1 -70.5L118.8 -66C117.5 -63.5 114.9 -60.5 113 -59.2C110.5 -57.6 108.1 -57 104.5 -57C101.3 -57 98.3 -57.7 96.2 -59C94.5 -60.1 92.2 -62.2 91.2 -63.7C89.6 -66.2 89.5 -71.7 89 -130.5C88.5 -189.3 88.4 -194.8 86.7 -198.5C85.7 -200.7 83.2 -204.2 81.2 -206.3C79.2 -208.4 75.7 -211.1 69.5 -214.5H-60.5C-188.3 -214.5 -190.6 -214.5 -194.5 -212.5C-196.7 -211.4 -200.1 -208.9 -202 -207C-203.9 -205.1 -206.4 -201.7 -207.5 -199.5C-209.5 -195.6 -209.5 -193.2 -209.5 -23C-209.5 147.2 -209.5 149.6 -207.5 153.5C-206.4 155.7 -203.9 159.1 -202 161C-200.1 162.9 -196.7 165.4 -194.5 166.5C-190.6 168.4 -187.8 168.5 -10.3 169.5L-6.89999 172.1C-5 173.5 -2.70001 176.4 -1.60001 178.6C-0.400009 181.1 0.100006 183.9 -0.199997 186.5C-0.399994 188.7 -1.70001 192.1 -3.10001 194C-4.5 195.9 -7.3 198.3 -9.3 199.2C-12.7 200.9 -19.3 201 -101.2 201C-187.1 201 -189.7 201 -197.5 199C-201.9 197.8 -208.2 195.5 -211.5 193.7C-214.8 191.9 -220.7 187.4 -224.5 183.5C-228.4 179.7 -232.9 173.8 -234.7 170.5C-236.5 167.2 -238.8 160.9 -240 156.5C-242 148.6 -242 146.8 -242 -23C-242 -192.8 -242 -194.6 -240 -202.5C-238.8 -206.9 -236.5 -213.2 -234.7 -216.5C-232.9 -219.8 -228.6 -225.5 -225 -229.1C-221.4 -232.7 -216.2 -237 -213.5 -238.6C-210.7 -240.2 -205.1 -242.7 -201 -244.2L-193.5 -246.8ZM144 -33.4C145.9 -33 173.1 -24 204.5 -13.3C235.9 -2.60001 262.4 6.89999 263.5 7.7C264.6 8.5 266.5 10.7 270 16.1V67.8C270 115.6 269.8 120.3 268 129.6C266.9 135.1 264.6 143.8 262.9 149.1C261.2 154.3 257.1 163.7 253.9 170.1C250.7 176.4 244.5 186.3 240.1 192.1C235.8 197.8 227.8 207 222.4 212.4C216.9 217.8 208.5 225.6 203.5 229.6C198.6 233.6 189.6 240.1 183.5 244.1C177.5 248.1 166.6 254.5 159.5 258.2C149 263.7 145.6 265.1 142 265.1C138.4 265.1 135.1 263.8 125 258.5C118.1 254.8 106.9 248.2 100 243.6C93.1 239.1 83.4 232 78.5 227.9C73.6 223.8 65.5 216.4 60.6 211.5C55.8 206.6 48.2 197.8 43.9 192.1C39.6 186.3 33.4 176.4 30.1 170.1C26.9 163.7 23 155 21.5 150.6C20 146.2 17.8 138.5 16.7 133.6C14.8 125.2 14.6 120.7 14.3 71.1C14 19.7 14 17.4 15.9 13.6C17 11.4 19.1 8.70001 20.7 7.60001C22.2 6.60001 42.6 -0.800003 66 -8.7C89.4 -16.7 115.7 -25.6 124.5 -28.6C136.8 -32.7 141.3 -33.8 144 -33.4ZM91.5 16.5L46.5 31.8L46.6 121.6C50.8 137.1 54 145.6 56.3 150.6C58.7 155.5 63.4 163.6 66.8 168.6C70.1 173.5 76.6 181.6 81.2 186.5C85.8 191.4 94 199 99.5 203.4C105 207.8 114.2 214.5 120 218.3C125.8 222.2 133.1 226.6 136.3 228.2L142 231.1C154 224.7 161.6 220.1 166.5 216.8C171.5 213.5 178.6 208.2 182.5 205.1C186.3 202.1 192.4 196.9 195.9 193.6C199.4 190.3 205.1 184.2 208.5 180.1C211.9 175.9 216.6 169.6 219 166.1C221.4 162.5 225.3 155.5 227.7 150.6C230 145.6 233.2 137.1 234.7 131.6L237.4 121.6L237.5 31.8C163.4 6.39999 141.8 -0.899994 141.7 -0.899994C141.6 -0.799988 140.4 -0.400009 139 0.199997C137.6 0.800003 116.3 8.10001 91.5 16.5ZM-112.5 -161.7C-61.6 -161.4 -61.5 -161.4 -57.7 -159.2C-55.5 -157.9 -53.1 -155.2 -51.9 -152.7C-50.3 -149.5 -49.9 -147.4 -50.3 -143.9C-50.6 -141.5 -51.7 -138.3 -52.8 -136.9C-53.8 -135.6 -56.2 -133.4 -61.5 -129.9H-166.5L-169.9 -132.2C-171.8 -133.4 -174.2 -135.6 -175.2 -136.9C-176.3 -138.3 -177.4 -141.5 -177.7 -143.9C-178.1 -147.3 -177.7 -149.5 -176.2 -152.4C-175.1 -154.6 -173.4 -157.1 -172.4 -157.9C-171.4 -158.8 -169 -160 -167 -160.7C-164.4 -161.6 -150.6 -161.8 -112.5 -161.7ZM-166.6 -75.9H-60.8C31.2 -75.9 45.4 -75.7 48 -74.4C49.6 -73.6 51.9 -71.7 53.1 -70.2C54.2 -68.7 55.5 -65.8 56.1 -63.7C56.6 -61.4 56.6 -58.5 56.1 -56.2C55.5 -53.9 53.6 -51 51.1 -48.7C48.1 -46 45.8 -44.8 42.8 -44.4C40.4 -44.1 -7.60001 -44 -166.5 -44.4L-170.2 -46.7C-172.5 -48 -174.9 -50.7 -176.1 -53.2C-177.7 -56.4 -178.1 -58.5 -177.7 -61.9C-177.4 -64.4 -176.3 -67.6 -175.2 -68.9C-174.2 -70.3 -171.8 -72.5 -170 -73.7L-166.6 -75.9ZM-102.3 9.39999C-39.9 9.60001 -39 9.60001 -36.3 11.7C-34.7 12.8 -32.4 15.3 -31.2 17.2C-29.6 19.5 -28.9 22.1 -28.9 25.1C-28.9 28.1 -29.6 30.7 -31.2 33C-32.4 34.9 -34.7 37.4 -36.3 38.5C-39 40.6 -40 40.6 -101.3 40.9C-139.5 41.1 -164.8 40.8 -166.9 40.2C-168.9 39.7 -171.9 37.7 -173.7 35.7C-175.6 33.6 -177.2 30.6 -177.6 28.4C-177.9 26.3 -177.9 23.1 -177.6 21.4C-177.2 19.6 -175.9 16.7 -174.6 15C-173.3 13.3 -170.7 11.2 -168.8 10.5C-166.1 9.39999 -153.1 9.19998 -102.3 9.39999ZM200.8 52.1C203.1 52.1 206.4 52.8 208.1 53.6C209.7 54.4 212 56.3 213.1 57.9C214.2 59.4 215.6 62.2 216.1 64.1C216.6 66 216.8 69.2 216.4 71.1C215.9 73.6 205.5 88.2 181.6 120.1C154 156.8 146.7 165.9 143.7 167.4C141.7 168.3 138.7 169.1 137.1 169.1C135.4 169.1 132.6 168.5 130.8 167.7C129 166.9 116.9 155.6 103.9 142.5C90.8 129.3 79.7 117.4 79.1 115.9C78.5 114.3 78.1 111.8 78.1 110.1C78.1 108.5 79 105.3 80.1 103.1C81.2 100.9 83.1 98.4 84.3 97.6C85.5 96.7 88.2 95.6 90.3 95.1C92.8 94.4 95.4 94.5 98.3 95.2C101.9 96.1 105.2 98.9 118.8 112.4C129 122.6 135.4 128.2 135.9 127.6C136.4 127.1 148.7 110.6 163.3 91C183.4 64.1 190.7 54.9 193.2 53.7C195.1 52.9 198.5 52.1 200.8 52.1Z" fill="black"/>
</g>
</g>
<defs>
<clipPath id="clip0_556_4079">
<rect width="16" height="16" fill="white"/>
</clipPath>
<clipPath id="clip1_556_4079">
<rect width="512" height="512" fill="white" transform="translate(-242 -247)"/>
</clipPath>
</defs>
</svg>
