<svg width="16" height="16" viewBox="0 0 16 16" fill="none" xmlns="http://www.w3.org/2000/svg">
<g clip-path="url(#clip0_556_4088)">
<path fill-rule="evenodd" clip-rule="evenodd" d="M1.51562 0.00625L9.78125 0L10.0406 0.084375C10.1969 0.134375 10.3844 0.228125 10.5281 0.325C10.6562 0.4125 10.825 0.5625 10.9 0.65625C10.975 0.75 11.0781 0.90625 11.125 1C11.1719 1.09375 11.2375 1.25 11.2688 1.34375C11.3219 1.5 11.325 1.68125 11.3469 5.51562L11.275 5.65625C11.2344 5.73438 11.1531 5.82812 11.0938 5.86875C11.0156 5.91875 10.9406 5.9375 10.8281 5.9375C10.7281 5.9375 10.6344 5.91563 10.5688 5.875C10.5156 5.84062 10.4438 5.775 10.4125 5.72813C10.3625 5.65 10.3594 5.47813 10.3438 3.64062C10.3281 1.80313 10.325 1.63125 10.2719 1.51562C10.2406 1.44687 10.1625 1.3375 10.1 1.27188C10.0375 1.20625 9.92813 1.12188 9.73438 1.01562H5.67188C1.67812 1.01562 1.60625 1.01562 1.48438 1.07812C1.41562 1.1125 1.30938 1.19062 1.25 1.25C1.19062 1.30938 1.1125 1.41562 1.07812 1.48438C1.01562 1.60625 1.01562 1.68125 1.01562 7C1.01562 12.3188 1.01562 12.3938 1.07812 12.5156C1.1125 12.5844 1.19062 12.6906 1.25 12.75C1.30938 12.8094 1.41562 12.8875 1.48438 12.9219C1.60625 12.9812 1.69375 12.9844 7.24062 13.0156L7.34688 13.0969C7.40625 13.1406 7.47812 13.2312 7.5125 13.3C7.55 13.3781 7.56563 13.4656 7.55625 13.5469C7.55 13.6156 7.50937 13.7219 7.46562 13.7812C7.42188 13.8406 7.33437 13.9156 7.27187 13.9438C7.16563 13.9969 6.95938 14 4.4 14C1.71563 14 1.63437 14 1.39062 13.9375C1.25312 13.9 1.05625 13.8281 0.953125 13.7719C0.85 13.7156 0.665625 13.575 0.546875 13.4531C0.425 13.3344 0.284375 13.15 0.228125 13.0469C0.171875 12.9438 0.1 12.7469 0.0625 12.6094C0 12.3625 0 12.3062 0 7C0 1.69375 0 1.6375 0.0625 1.39062C0.1 1.25312 0.171875 1.05625 0.228125 0.953125C0.284375 0.85 0.41875 0.671875 0.53125 0.559375C0.64375 0.446875 0.80625 0.3125 0.890625 0.2625C0.978125 0.2125 1.15313 0.134375 1.28125 0.0875L1.51562 0.00625ZM12.0625 6.675C12.1219 6.6875 12.9719 6.96875 13.9531 7.30312C14.9344 7.6375 15.7625 7.93437 15.7969 7.95937C15.8313 7.98438 15.8906 8.05313 16 8.22188V9.8375C16 11.3312 15.9937 11.4781 15.9375 11.7688C15.9031 11.9406 15.8313 12.2125 15.7781 12.3781C15.725 12.5406 15.5969 12.8344 15.4969 13.0344C15.3969 13.2312 15.2031 13.5406 15.0656 13.7219C14.9313 13.9 14.6812 14.1875 14.5125 14.3562C14.3406 14.525 14.0781 14.7688 13.9219 14.8938C13.7688 15.0188 13.4875 15.2219 13.2969 15.3469C13.1094 15.4719 12.7688 15.6719 12.5469 15.7875C12.2188 15.9594 12.1125 16.0031 12 16.0031C11.8875 16.0031 11.7844 15.9625 11.4688 15.7969C11.2531 15.6812 10.9031 15.475 10.6875 15.3313C10.4719 15.1906 10.1687 14.9688 10.0156 14.8406C9.8625 14.7125 9.60938 14.4812 9.45625 14.3281C9.30625 14.175 9.06875 13.9 8.93437 13.7219C8.8 13.5406 8.60625 13.2312 8.50313 13.0344C8.40312 12.8344 8.28125 12.5625 8.23438 12.425C8.1875 12.2875 8.11875 12.0469 8.08438 11.8938C8.025 11.6313 8.01875 11.4906 8.00937 9.94063C8 8.33438 8 8.2625 8.05937 8.14375C8.09375 8.075 8.15938 7.99063 8.20938 7.95625C8.25625 7.925 8.89375 7.69375 9.625 7.44688C10.3562 7.19688 11.1781 6.91875 11.4531 6.825C11.8375 6.69687 11.9781 6.6625 12.0625 6.675ZM10.4219 8.23438L9.01562 8.7125L9.01875 11.5188C9.15 12.0031 9.25 12.2688 9.32187 12.425C9.39687 12.5781 9.54375 12.8313 9.65 12.9875C9.75312 13.1406 9.95625 13.3938 10.1 13.5469C10.2438 13.7 10.5 13.9375 10.6719 14.075C10.8438 14.2125 11.1313 14.4219 11.3125 14.5406C11.4937 14.6625 11.7219 14.8 11.8219 14.85L12 14.9406C12.375 14.7406 12.6125 14.5969 12.7656 14.4937C12.9219 14.3906 13.1438 14.225 13.2656 14.1281C13.3844 14.0344 13.575 13.8719 13.6844 13.7688C13.7937 13.6656 13.9719 13.475 14.0781 13.3469C14.1844 13.2156 14.3313 13.0188 14.4062 12.9094C14.4812 12.7969 14.6031 12.5781 14.6781 12.425C14.75 12.2688 14.85 12.0031 14.8969 11.8313L14.9812 11.5188L14.9844 8.7125C12.6687 7.91875 11.9938 7.69063 11.9906 7.69063C11.9875 7.69375 11.95 7.70625 11.9062 7.725C11.8625 7.74375 11.1969 7.97188 10.4219 8.23438ZM4.04688 2.66563C5.6375 2.675 5.64062 2.675 5.75938 2.74375C5.82812 2.78438 5.90313 2.86875 5.94063 2.94688C5.99063 3.04688 6.00312 3.1125 5.99062 3.22187C5.98125 3.29688 5.94688 3.39687 5.9125 3.44062C5.88125 3.48125 5.80625 3.55 5.64062 3.65937H2.35938L2.25312 3.5875C2.19375 3.55 2.11875 3.48125 2.0875 3.44062C2.05313 3.39687 2.01875 3.29688 2.00938 3.22187C1.99688 3.11562 2.00938 3.04688 2.05625 2.95625C2.09063 2.8875 2.14375 2.80938 2.175 2.78437C2.20625 2.75625 2.28125 2.71875 2.34375 2.69688C2.425 2.66875 2.85625 2.6625 4.04688 2.66563ZM2.35625 5.34688H5.6625C8.5375 5.34688 8.98125 5.35313 9.0625 5.39375C9.1125 5.41875 9.18437 5.47813 9.22188 5.525C9.25625 5.57188 9.29688 5.6625 9.31563 5.72813C9.33125 5.8 9.33125 5.89062 9.31563 5.9625C9.29688 6.03438 9.2375 6.125 9.15938 6.19688C9.06563 6.28125 8.99375 6.31875 8.9 6.33125C8.825 6.34063 7.325 6.34375 2.35938 6.33125L2.24375 6.25938C2.17188 6.21875 2.09687 6.13438 2.05938 6.05625C2.00938 5.95625 1.99688 5.89062 2.00938 5.78438C2.01875 5.70625 2.05313 5.60625 2.0875 5.56563C2.11875 5.52188 2.19375 5.45312 2.25 5.41563L2.35625 5.34688ZM4.36562 8.0125C6.31563 8.01875 6.34375 8.01875 6.42812 8.08438C6.47813 8.11875 6.55 8.19688 6.5875 8.25625C6.6375 8.32812 6.65938 8.40938 6.65938 8.50313C6.65938 8.59688 6.6375 8.67813 6.5875 8.75C6.55 8.80937 6.47813 8.8875 6.42812 8.92188C6.34375 8.9875 6.3125 8.9875 4.39687 8.99687C3.20312 9.00313 2.4125 8.99375 2.34687 8.975C2.28437 8.95938 2.19063 8.89688 2.13438 8.83438C2.075 8.76875 2.025 8.675 2.0125 8.60625C2.00312 8.54062 2.00312 8.44063 2.0125 8.3875C2.025 8.33125 2.06562 8.24063 2.10625 8.1875C2.14688 8.13437 2.22812 8.06875 2.2875 8.04688C2.37187 8.0125 2.77812 8.00625 4.36562 8.0125ZM13.8375 9.34688C13.9094 9.34688 14.0125 9.36875 14.0656 9.39375C14.1156 9.41875 14.1875 9.47812 14.2219 9.52812C14.2563 9.575 14.3 9.6625 14.3156 9.72188C14.3313 9.78125 14.3375 9.88125 14.325 9.94063C14.3094 10.0188 13.9844 10.475 13.2375 11.4719C12.375 12.6188 12.1469 12.9031 12.0531 12.95C11.9906 12.9781 11.8969 13.0031 11.8469 13.0031C11.7937 13.0031 11.7062 12.9844 11.65 12.9594C11.5938 12.9344 11.2156 12.5813 10.8094 12.1719C10.4 11.7594 10.0531 11.3875 10.0344 11.3406C10.0156 11.2906 10.0031 11.2125 10.0031 11.1594C10.0031 11.1094 10.0312 11.0094 10.0656 10.9406C10.1 10.8719 10.1594 10.7937 10.1969 10.7688C10.2344 10.7406 10.3187 10.7063 10.3844 10.6906C10.4625 10.6687 10.5437 10.6719 10.6344 10.6938C10.7469 10.7219 10.85 10.8094 11.275 11.2312C11.5938 11.55 11.7937 11.725 11.8094 11.7063C11.825 11.6906 12.2094 11.175 12.6656 10.5625C13.2937 9.72188 13.5219 9.43438 13.6 9.39688C13.6594 9.37188 13.7656 9.34688 13.8375 9.34688Z" fill="#ACB9CB"/>
</g>
<defs>
<clipPath id="clip0_556_4088">
<rect width="16" height="16" fill="white"/>
</clipPath>
</defs>
</svg>
