<svg width="16" height="16" viewBox="0 0 16 16" fill="none" xmlns="http://www.w3.org/2000/svg">
<g clip-path="url(#clip0_556_4097)">
<path fill-rule="evenodd" clip-rule="evenodd" d="M7.53125 0H8.46875V1.98438L8.63125 2.0625C8.72188 2.10313 8.88125 2.225 8.98438 2.32812C9.0875 2.43125 9.20938 2.59063 9.32812 2.84375H15.0625V3.78125H14.4844C14.1656 3.78125 13.9062 3.7875 13.9062 3.79688C13.9062 3.80625 14.3781 4.94375 14.9531 6.32812C15.9156 8.64375 16 8.85938 16 9.025C16 9.12187 15.9719 9.31563 15.9406 9.45312C15.9062 9.59062 15.8438 9.78125 15.8 9.875C15.7594 9.96875 15.6781 10.1219 15.6187 10.2094C15.5625 10.3 15.425 10.4656 15.3125 10.5813C15.2 10.6938 15.0125 10.8469 14.8906 10.9219C14.7688 10.9969 14.6 11.0844 14.5156 11.1187C14.4281 11.1531 14.25 11.2031 14.1156 11.2312C13.9375 11.2688 13.6969 11.2812 13.1875 11.2812C12.6812 11.2812 12.4375 11.2688 12.2563 11.2312C12.125 11.2031 11.9312 11.1469 11.8281 11.1031C11.725 11.0594 11.5625 10.975 11.4688 10.9156C11.375 10.8562 11.2063 10.7188 11.0969 10.6156C10.9875 10.5094 10.8375 10.3313 10.7656 10.2188C10.6938 10.1062 10.5969 9.93125 10.5531 9.82812C10.5094 9.725 10.4531 9.53125 10.425 9.4C10.3969 9.26562 10.375 9.0875 10.375 9C10.375 8.86563 10.5219 8.49063 11.4219 6.32812C11.9969 4.94375 12.4688 3.80625 12.4688 3.79688C12.4688 3.7875 11.7625 3.78125 9.32812 3.78125L9.25 3.94375C9.20938 4.03437 9.0875 4.19375 8.98438 4.29688C8.88125 4.4 8.72188 4.52187 8.46875 4.64062V11.375L8.58438 11.3938C8.65 11.4031 8.7875 11.4469 8.89062 11.4906C8.99375 11.5344 9.15625 11.6188 9.25 11.6781C9.34375 11.7375 9.51875 11.8812 9.63437 11.9937C9.75312 12.1094 9.90938 12.3 9.98438 12.4219C10.0594 12.5437 10.1625 12.7594 10.2094 12.9062C10.2594 13.0531 10.3063 13.1844 10.3188 13.2031C10.3281 13.2219 10.3844 13.2438 10.4406 13.2563C10.5 13.2688 10.6375 13.3188 10.75 13.3625C10.8625 13.4094 11.0312 13.4938 11.125 13.5531C11.2188 13.6125 11.3781 13.7406 11.4781 13.8375C11.5781 13.9375 11.7063 14.0781 11.7656 14.1562C11.8219 14.2344 11.9156 14.3875 11.9719 14.5C12.0281 14.6125 12.1 14.7937 12.1313 14.9062C12.1719 15.0406 12.2 15.2625 12.2344 16H3.76562L3.7875 15.5562C3.8 15.2531 3.82812 15.0437 3.86875 14.9062C3.90313 14.7937 3.95625 14.6469 3.98438 14.5781C4.01562 14.5094 4.09375 14.3687 4.15625 14.2656C4.22188 14.1625 4.37812 13.9781 4.50625 13.8594C4.63125 13.7375 4.825 13.5844 4.9375 13.5188C5.05 13.4531 5.25938 13.3594 5.40625 13.3094C5.55312 13.2594 5.675 13.2156 5.67812 13.2094C5.68437 13.2063 5.73125 13.075 5.78438 12.9219C5.83438 12.7688 5.94063 12.5437 6.01562 12.4219C6.09062 12.3 6.24687 12.1094 6.36562 11.9937C6.48125 11.8812 6.65625 11.7375 6.75 11.6781C6.84375 11.6188 6.98438 11.5437 7.0625 11.5094C7.14062 11.475 7.27812 11.4281 7.53125 11.3594V4.64062L7.36875 4.5625C7.27813 4.52187 7.11875 4.4 7.01562 4.29688C6.9125 4.19375 6.79063 4.03438 6.67188 3.78125H5.1C4.2375 3.78125 3.53125 3.7875 3.53125 3.79688C3.53125 3.80625 4.00313 4.94688 5.63125 8.85938L5.61562 9.09375C5.60625 9.22188 5.57812 9.4125 5.55 9.51562C5.525 9.61875 5.46875 9.78125 5.425 9.875C5.38438 9.96875 5.30312 10.1219 5.24375 10.2094C5.1875 10.3 5.05 10.4656 4.9375 10.5813C4.825 10.6938 4.63438 10.8469 4.51562 10.9219C4.39687 10.9969 4.225 11.0844 4.14062 11.1187C4.05312 11.1531 3.875 11.2031 3.74062 11.2312C3.5625 11.2688 3.32188 11.2812 2.8125 11.2812C2.30625 11.2812 2.0625 11.2688 1.88125 11.2312C1.75 11.2031 1.55625 11.1469 1.45312 11.1031C1.35 11.0594 1.1875 10.975 1.09375 10.9156C1 10.8562 0.83125 10.7188 0.721875 10.6156C0.6125 10.5094 0.465625 10.3313 0.390625 10.2188C0.31875 10.1062 0.228125 9.94687 0.190625 9.85938C0.153125 9.775 0.09375 9.59375 0.0625 9.4625C0.028125 9.32812 0 9.13437 0 9.03125C0 8.85625 0.06875 8.68125 1.04688 6.32812C1.62188 4.94375 2.09375 3.80625 2.09375 3.79688C2.09375 3.7875 1.83438 3.78125 0.9375 3.78125V2.84375H6.67188L6.75 2.68125C6.79063 2.59063 6.9125 2.43125 7.01562 2.32812C7.11875 2.225 7.27812 2.10313 7.53125 1.98438V0ZM7.5875 3.1C7.55938 3.15625 7.53438 3.25 7.53438 3.30312C7.53125 3.35938 7.55937 3.45937 7.59062 3.52187C7.625 3.59062 7.7 3.66875 7.76875 3.70937C7.8375 3.74687 7.9375 3.77813 7.99375 3.78125C8.04688 3.78125 8.14687 3.75312 8.2125 3.72187C8.27812 3.6875 8.35938 3.6125 8.39688 3.54375C8.43438 3.475 8.46875 3.375 8.46875 3.31875C8.46875 3.26562 8.44063 3.1625 8.40625 3.09375C8.36458 3.01042 8.30208 2.94792 8.21875 2.90625C8.15 2.87188 8.04688 2.84375 7.99375 2.84375C7.9375 2.84375 7.83437 2.87812 7.76562 2.92188C7.69688 2.9625 7.61562 3.04375 7.5875 3.1ZM1.20312 8.41562C1.1875 8.46562 1.28125 8.46875 2.8125 8.46875C4.34688 8.46875 4.4375 8.46562 4.42188 8.41562C4.4125 8.38437 4.05625 7.50625 3.62812 6.4625C3.2 5.41563 2.8375 4.5625 2.82188 4.5625C2.80625 4.5625 2.44063 5.41563 2.00938 6.4625C1.575 7.50625 1.2125 8.38437 1.20312 8.41562ZM11.5781 8.41562C11.5625 8.46562 11.6562 8.46875 13.1875 8.46875C14.7219 8.46875 14.8125 8.46562 14.7969 8.41562C14.7875 8.38437 14.4313 7.50625 14.0031 6.4625C13.575 5.41563 13.2125 4.5625 13.1969 4.5625C13.1812 4.5625 12.8156 5.41563 12.3844 6.4625C11.95 7.50625 11.5875 8.38437 11.5781 8.41562ZM1.05 9.47812C1.0625 9.51562 1.11563 9.61875 1.17188 9.70312C1.225 9.79062 1.33438 9.91562 1.4125 9.98438C1.49063 10.0531 1.62187 10.1438 1.70625 10.1844C1.79062 10.2281 1.93125 10.2781 2.01562 10.3031C2.12188 10.3281 2.38438 10.3438 2.8125 10.3438C3.24062 10.3438 3.50625 10.3281 3.60938 10.3031C3.69688 10.2781 3.83438 10.2281 3.91875 10.1844C4.00313 10.1438 4.14375 10.0437 4.23125 9.96562C4.31875 9.8875 4.4375 9.7375 4.49062 9.6375C4.54688 9.5375 4.59375 9.44375 4.59375 9.43125C4.59375 9.41562 3.79063 9.40625 2.80938 9.40625H1.025L1.05 9.47812ZM11.425 9.47812C11.4375 9.51562 11.4937 9.61875 11.5469 9.70625C11.6031 9.79063 11.7125 9.91875 11.7906 9.9875C11.8656 10.0531 12 10.1438 12.0844 10.1875C12.1688 10.2281 12.3063 10.2812 12.3938 10.3031C12.4969 10.3313 12.7594 10.3438 13.1906 10.3438C13.6188 10.3438 13.8813 10.3313 13.9875 10.3031C14.0719 10.2812 14.2125 10.2281 14.2969 10.1875C14.3813 10.1438 14.5219 10.0469 14.6094 9.96875C14.6969 9.8875 14.8125 9.74063 14.8687 9.64062C14.925 9.5375 14.9688 9.44375 14.9688 9.43125C14.9719 9.41875 14.1687 9.40938 13.1875 9.40938H11.4031L11.425 9.47812ZM7.375 12.3969C7.3 12.4344 7.16563 12.525 7.07812 12.6031C6.99375 12.6781 6.87812 12.8094 6.825 12.8938C6.77187 12.9781 6.71875 13.0781 6.70937 13.1156L6.6875 13.1875H9.3125C9.28438 13.0781 9.22813 12.975 9.175 12.8906C9.11875 12.8031 9.0125 12.6781 8.93437 12.6094C8.85625 12.5406 8.72188 12.45 8.6375 12.4094C8.55312 12.3656 8.41562 12.3156 8.32812 12.2906C8.24375 12.2687 8.0875 12.2531 7.98438 12.2531C7.88125 12.2531 7.73438 12.2719 7.65625 12.2937C7.58125 12.3156 7.45312 12.3625 7.375 12.3969ZM5.4875 14.2844C5.40313 14.325 5.27188 14.4156 5.19063 14.4875C5.1125 14.5563 5.00312 14.6844 4.95 14.7688C4.89687 14.8531 4.84375 14.9531 4.83437 14.9937L4.8125 15.0625H11.1875C11.1594 14.9531 11.1063 14.8531 11.0531 14.7688C11 14.6844 10.8844 14.5531 10.7969 14.4781C10.7125 14.4 10.5781 14.3094 10.5 14.2719C10.425 14.2375 10.2906 14.1875 10.2031 14.1656C10.0844 14.1344 9.59062 14.125 7.98438 14.1281C6.45625 14.1313 5.8875 14.1406 5.78125 14.1687C5.70625 14.1906 5.57188 14.2406 5.4875 14.2844Z" fill="#ACB9CB"/>
</g>
<defs>
<clipPath id="clip0_556_4097">
<rect width="16" height="16" fill="white"/>
</clipPath>
</defs>
</svg>
