<svg width="16" height="16" viewBox="0 0 16 16" fill="none" xmlns="http://www.w3.org/2000/svg">
<g clip-path="url(#clip0_556_4100)">
<path fill-rule="evenodd" clip-rule="evenodd" d="M0 0H2.8125V0.9375H1.60938L3.5625 2.89062L2.89062 3.5625L0.9375 1.60938V2.8125H0V0ZM13.1875 0H16V2.8125H15.0625V1.60938L13.1094 3.5625L12.4375 2.89062L14.3906 0.9375H13.1875V0ZM2.89062 12.4375L3.5625 13.1094L1.60938 15.0625H2.8125V16H0V13.1875H0.9375L0.921875 14.3906L2.89062 12.4375ZM13.1094 12.4375L15.0625 14.3906V13.1875H16V16H13.1875V15.0625H14.3906L12.4375 13.1094L13.1094 12.4375ZM8.01562 2.04063C8.05 2.04688 9.225 2.71562 13.1719 4.99687V11.0031L10.625 12.475C9.225 13.2844 8.05937 13.9531 8.03125 13.9594C8.00625 13.9688 6.82188 13.3062 2.8125 11L2.8 5.00625L5.37813 3.51875C6.95625 2.60625 7.97813 2.0375 8.01562 2.04063ZM4.25 5.28125C4.25313 5.29063 4.55938 5.47188 4.93125 5.6875C5.30625 5.90312 5.625 6.07812 5.64375 6.07812C5.6625 6.07812 6.51562 5.59375 7.54063 5C8.56875 4.40625 9.39687 3.9125 9.38437 3.9C9.37187 3.8875 9.05625 3.70312 8.68125 3.4875C8.30625 3.26875 7.99688 3.09375 7.99375 3.09687C7.99062 3.09687 7.14688 3.58438 6.11875 4.18125C5.09062 4.77813 4.25 5.27187 4.25 5.28125ZM7.88125 5.89062C7.17188 6.30312 6.60313 6.64688 6.61562 6.65938C6.63125 6.66875 6.94063 6.84688 7.30625 7.05625C7.67188 7.26562 7.98438 7.4375 8 7.4375C8.01875 7.4375 8.86875 6.95625 9.89062 6.36562C10.9125 5.77812 11.75 5.29063 11.7531 5.28125C11.7531 5.27187 11.4438 5.08437 11.0656 4.86562C10.6875 4.64687 10.3656 4.46875 10.3531 4.46875C10.3406 4.47188 10.0688 4.62188 9.75 4.80625C9.43437 4.99062 8.59375 5.47813 7.88125 5.89062ZM3.75312 10.4531C4.80312 11.0594 5.12813 11.2375 5.15 11.2406C5.18125 11.2469 5.19062 10.8219 5.19375 9.08125L5.19688 6.91563C4.23438 6.36562 3.9125 6.17812 3.85938 6.14687L3.7625 6.0875L3.75312 10.4531ZM8.47188 8.26562V12.625C8.8 12.4438 9.65 11.9531 10.575 11.4219L12.25 10.4531C12.25 7.075 12.2469 6.09375 12.2437 6.09375C12.2406 6.09375 11.3906 6.58437 10.3531 7.18125L8.47188 8.26562ZM6.12813 11.8281C6.93438 12.2875 7.25 12.4656 7.35 12.5219L7.53438 12.625L7.53125 8.26562C6.77187 7.82812 6.45625 7.64688 6.34375 7.58125L6.13438 7.4625L6.12813 11.8281Z" fill="#ACB9CB"/>
</g>
<defs>
<clipPath id="clip0_556_4100">
<rect width="16" height="16" fill="white"/>
</clipPath>
</defs>
</svg>
