<svg width="16" height="16" viewBox="0 0 16 16" fill="none" xmlns="http://www.w3.org/2000/svg">
<g clip-path="url(#clip0_546_5033)">
<path fill-rule="evenodd" clip-rule="evenodd" d="M6.42219 0.003125C6.65344 0 6.79094 0.01875 6.95344 0.065625C7.07219 0.103125 7.26907 0.18125 7.39094 0.24375C7.50969 0.309375 7.69719 0.440625 8.00032 0.71875L8.19719 0.540625C8.30344 0.440625 8.49094 0.309375 8.60969 0.24375C8.73157 0.18125 8.92532 0.103125 9.04719 0.065625C9.20344 0.01875 9.35344 0 9.56282 0C9.77219 0 9.92219 0.01875 10.0784 0.065625C10.2003 0.103125 10.3941 0.18125 10.5159 0.24375C10.6378 0.309375 10.8316 0.45 10.9534 0.565625C11.0753 0.68125 11.2253 0.8625 11.2909 0.971875C11.3566 1.08125 11.4378 1.25 11.4722 1.34375C11.5316 1.50937 11.5378 1.51562 11.6972 1.55938C11.7847 1.58125 11.9784 1.65313 12.1253 1.71563C12.2722 1.77813 12.4972 1.9 12.6253 1.98438C12.7534 2.07188 12.9503 2.225 13.0597 2.32812C13.1691 2.43125 13.3316 2.61562 13.4222 2.73438C13.5128 2.85313 13.6378 3.04375 13.7003 3.15625C13.7628 3.26875 13.8534 3.48438 13.9066 3.64062C13.9597 3.79688 14.0191 4.0125 14.0347 4.125C14.0534 4.2375 14.0722 4.35625 14.0784 4.39062C14.0847 4.425 14.1941 4.53125 14.3191 4.63125C14.4441 4.72813 14.6659 4.93125 14.8128 5.08437C14.9597 5.23438 15.1472 5.45 15.2253 5.5625C15.3066 5.675 15.4441 5.90625 15.5316 6.07812C15.6191 6.25 15.7316 6.51875 15.7816 6.67188C15.8284 6.825 15.9003 7.10625 15.9378 7.29688C15.9972 7.59062 16.0066 7.70625 15.9909 8.10938C15.9816 8.36875 15.9503 8.68125 15.9222 8.8125C15.8941 8.94063 15.8284 9.175 15.7816 9.32812C15.7316 9.48125 15.6191 9.75 15.5316 9.92188C15.4441 10.0938 15.3066 10.325 15.2253 10.4375C15.1441 10.55 14.9659 10.7594 14.8284 10.9031C14.6909 11.0469 14.4878 11.2344 14.3753 11.3219C14.2628 11.4062 14.1472 11.5094 14.1159 11.5437C14.0847 11.5813 14.0597 11.6531 14.0628 11.7031C14.0628 11.7531 14.0347 11.9156 13.9972 12.0625C13.9597 12.2094 13.8784 12.4469 13.8159 12.5938C13.7534 12.7406 13.6316 12.9656 13.5472 13.0938C13.4628 13.2219 13.2722 13.45 13.1253 13.5969C12.9784 13.7438 12.7534 13.9344 12.6253 14.0188C12.4972 14.1031 12.2722 14.2219 12.1253 14.2844C11.9784 14.3469 11.7847 14.4187 11.6972 14.4406C11.5378 14.4844 11.5316 14.4906 11.4722 14.6562C11.4378 14.75 11.3566 14.9187 11.2909 15.0281C11.2253 15.1375 11.0753 15.3187 10.9534 15.4344C10.8316 15.55 10.6378 15.6906 10.5159 15.7563C10.3941 15.8188 10.2003 15.8969 10.0784 15.9344C9.92219 15.9812 9.77219 16 9.56282 16C9.35344 16 9.20344 15.9812 9.04719 15.9344C8.92532 15.8969 8.73157 15.8188 8.60969 15.7563C8.49094 15.6906 8.30344 15.5594 8.00032 15.2812L7.80344 15.4594C7.69719 15.5594 7.50969 15.6906 7.39094 15.7563C7.26907 15.8188 7.07219 15.8969 6.95344 15.9344C6.79719 15.9812 6.64719 16 6.43782 16C6.22844 16 6.07844 15.9812 5.92219 15.9344C5.80344 15.8969 5.60344 15.8188 5.48469 15.7563C5.36282 15.6906 5.16907 15.55 5.04719 15.4344C4.92844 15.3187 4.77532 15.1375 4.70969 15.0281C4.64407 14.9187 4.56282 14.75 4.53157 14.6562C4.46907 14.4906 4.46282 14.4812 4.31907 14.4469C4.23782 14.4281 4.04407 14.3562 3.89094 14.2906C3.73469 14.225 3.50344 14.1 3.37532 14.0156C3.24719 13.9281 3.05032 13.775 2.94094 13.6719C2.83157 13.5688 2.65657 13.3719 2.55344 13.2344C2.45344 13.0969 2.30657 12.8562 2.23157 12.7031C2.15657 12.55 2.05969 12.2812 2.01594 12.1094C1.97219 11.9375 1.93782 11.7594 1.93782 11.7094C1.93782 11.6625 1.92844 11.6 1.91594 11.5719C1.90032 11.5437 1.79407 11.4469 1.67219 11.3562C1.55344 11.2688 1.33469 11.0687 1.18782 10.9187C1.04094 10.7656 0.853445 10.55 0.77532 10.4375C0.69407 10.325 0.559695 10.1 0.478445 9.9375C0.39407 9.775 0.28157 9.50625 0.22532 9.34375C0.172195 9.18125 0.0971947 8.89375 0.0596947 8.70312C0.00344468 8.4125 -0.00593032 8.2875 0.00969468 7.89062C0.0190697 7.63125 0.0503197 7.31875 0.0784447 7.1875C0.10657 7.05937 0.172195 6.825 0.21907 6.67188C0.26907 6.51875 0.38157 6.25 0.46907 6.07812C0.55657 5.90625 0.69407 5.675 0.77532 5.5625C0.853445 5.45 1.04094 5.23438 1.18782 5.08125C1.33469 4.93125 1.55032 4.73125 1.67219 4.64375C1.79407 4.55313 1.90032 4.45625 1.91594 4.42812C1.92844 4.4 1.93782 4.3375 1.93782 4.2875C1.93782 4.24062 1.97219 4.0625 2.01594 3.89062C2.05969 3.71875 2.15657 3.45312 2.23157 3.29688C2.30657 3.14062 2.45344 2.90313 2.55344 2.76562C2.65657 2.62812 2.83157 2.43125 2.94094 2.32812C3.05032 2.225 3.24719 2.07188 3.37532 1.98438C3.50344 1.9 3.72844 1.77813 3.87532 1.71563C4.02219 1.65313 4.21594 1.58125 4.30344 1.55938C4.46282 1.51562 4.46907 1.50937 4.52844 1.34375C4.56282 1.25 4.64407 1.08125 4.70969 0.971875C4.77532 0.8625 4.92844 0.68125 5.04719 0.565625C5.16907 0.453125 5.35657 0.3125 5.46907 0.253125C5.58157 0.19375 5.77219 0.1125 5.89094 0.075C6.05344 0.021875 6.19094 0.003125 6.42219 0.003125ZM5.90657 1.07812C5.85344 1.10312 5.75032 1.1875 5.67219 1.26562C5.59407 1.34375 5.49719 1.48125 5.45344 1.57187C5.41282 1.65937 5.36907 1.80625 5.35657 1.89062C5.34407 1.97812 5.31594 2.08125 5.29719 2.125C5.27532 2.16875 5.22219 2.23438 5.18157 2.27187C5.13157 2.31875 5.01282 2.3625 4.79719 2.40937C4.62532 2.44687 4.41282 2.50312 4.32844 2.5375C4.24094 2.57187 4.10969 2.63437 4.03157 2.67812C3.95344 2.725 3.80969 2.825 3.70657 2.90313C3.60657 2.98125 3.44719 3.14687 3.35344 3.26562C3.25969 3.38438 3.13469 3.58437 3.07844 3.70312C3.01907 3.82188 2.95032 4.0125 2.92219 4.125C2.89407 4.2375 2.85969 4.45625 2.84719 4.60938C2.83469 4.7875 2.80657 4.92188 2.77219 4.97813C2.74407 5.025 2.58782 5.15 2.43157 5.25625C2.27219 5.35938 2.02844 5.55937 1.89094 5.7C1.75344 5.84062 1.56907 6.05937 1.48469 6.1875C1.40032 6.31563 1.27844 6.54063 1.21594 6.6875C1.15344 6.83437 1.06907 7.08125 1.02844 7.23438C0.965945 7.47188 0.95657 7.59375 0.95657 8C0.95657 8.40938 0.965945 8.52812 1.02844 8.76562C1.06907 8.91875 1.14407 9.14375 1.19407 9.26562C1.24407 9.3875 1.33469 9.56875 1.39719 9.67188C1.45969 9.775 1.57844 9.94375 1.65657 10.0469C1.73782 10.15 1.88782 10.3094 1.98782 10.4031C2.09094 10.4969 2.29407 10.6531 2.44719 10.7531C2.59719 10.8562 2.74407 10.975 2.77219 11.025C2.80657 11.0781 2.83469 11.2125 2.84719 11.3906C2.85969 11.5437 2.89407 11.7625 2.92219 11.875C2.95032 11.9875 3.01907 12.175 3.07844 12.2969C3.13469 12.4187 3.25969 12.6125 3.35344 12.7344C3.44719 12.8562 3.60657 13.0188 3.70657 13.0969C3.80969 13.175 3.95344 13.275 4.03157 13.3219C4.10969 13.3656 4.24407 13.4281 4.32844 13.4625C4.41594 13.4969 4.62532 13.5531 4.79719 13.5906C5.01282 13.6375 5.13157 13.6812 5.18157 13.7281C5.22219 13.7656 5.27532 13.8313 5.29719 13.875C5.31594 13.9187 5.34407 14.025 5.35657 14.1094C5.36907 14.1969 5.40657 14.3281 5.44094 14.4062C5.47532 14.4844 5.54407 14.5969 5.59094 14.6562C5.64094 14.7156 5.74719 14.8094 5.83157 14.8656C5.91594 14.9219 6.08469 14.9906 6.20344 15.0188C6.38782 15.0656 6.45032 15.0688 6.60969 15.0375C6.71282 15.0156 6.85969 14.9688 6.93782 14.9312C7.01594 14.8937 7.13782 14.8 7.21282 14.7281C7.28469 14.6531 7.37844 14.5187 7.42219 14.4312C7.46282 14.3406 7.50969 14.175 7.51907 14.0625C7.53157 13.95 7.56594 13.8062 7.59719 13.7437C7.63469 13.6656 7.70032 13.6031 7.78157 13.5625C7.85032 13.5281 7.94719 13.5 8.00032 13.5C8.05032 13.5 8.15032 13.5281 8.21907 13.5625C8.30032 13.6031 8.36594 13.6656 8.40344 13.7437C8.43469 13.8062 8.46907 13.9438 8.47532 14.0469C8.48469 14.15 8.52219 14.3062 8.55969 14.3906C8.60032 14.4781 8.66907 14.5969 8.71594 14.6562C8.76594 14.7156 8.87219 14.8094 8.95657 14.8656C9.04095 14.9219 9.20657 14.9906 9.32844 15.0188C9.51282 15.0656 9.57532 15.0688 9.73469 15.0375C9.83782 15.0156 9.98469 14.9688 10.0628 14.9312C10.1409 14.8937 10.2628 14.8 10.3347 14.7281C10.4097 14.6531 10.5034 14.5187 10.5472 14.4312C10.5878 14.3406 10.6316 14.1969 10.6441 14.1094C10.6566 14.025 10.6847 13.9187 10.7034 13.875C10.7253 13.8313 10.7784 13.7656 10.8191 13.7281C10.8691 13.6812 10.9878 13.6375 11.2034 13.5906C11.3753 13.5531 11.5847 13.4969 11.6722 13.4625C11.7566 13.4281 11.8972 13.3625 11.9847 13.3125C12.0691 13.2625 12.2222 13.1531 12.3191 13.0719C12.4191 12.9906 12.5722 12.8313 12.6597 12.7188C12.7472 12.6062 12.8659 12.4187 12.9222 12.2969C12.9816 12.175 13.0503 11.9875 13.0784 11.875C13.1066 11.7625 13.1409 11.5437 13.1534 11.3906C13.1659 11.2125 13.1941 11.0781 13.2284 11.025C13.2566 10.975 13.4034 10.8562 13.5534 10.7531C13.7066 10.6531 13.9097 10.4969 14.0128 10.4031C14.1128 10.3094 14.2628 10.15 14.3441 10.0469C14.4222 9.94375 14.5409 9.775 14.6034 9.67188C14.6659 9.56875 14.7566 9.3875 14.8066 9.26562C14.8566 9.14375 14.9316 8.91875 14.9722 8.76562C15.0347 8.52812 15.0441 8.40938 15.0441 8C15.0441 7.59062 15.0347 7.47188 14.9722 7.23438C14.9316 7.08125 14.8566 6.85313 14.8066 6.73438C14.7566 6.61562 14.6659 6.43125 14.6034 6.32812C14.5409 6.225 14.4222 6.05625 14.3441 5.95312C14.2628 5.85 14.1128 5.69063 14.0128 5.59688C13.9097 5.50313 13.7066 5.34687 13.5534 5.24687C13.4034 5.14375 13.2566 5.025 13.2284 4.97813C13.1941 4.92188 13.1659 4.7875 13.1534 4.60938C13.1409 4.45625 13.1066 4.2375 13.0784 4.125C13.0503 4.0125 12.9816 3.82188 12.9222 3.70312C12.8659 3.58437 12.7472 3.39375 12.6628 3.28125C12.5753 3.16875 12.4159 3.00625 12.3066 2.91875C12.1972 2.83125 12.0472 2.72187 11.9691 2.67812C11.8909 2.63437 11.7566 2.57187 11.6722 2.5375C11.5847 2.50312 11.3753 2.44687 11.2034 2.40937C10.9878 2.3625 10.8691 2.31875 10.8191 2.27187C10.7784 2.23438 10.7253 2.16875 10.7034 2.125C10.6847 2.08125 10.6566 1.97812 10.6441 1.89062C10.6316 1.80625 10.5878 1.65937 10.5472 1.57187C10.5034 1.48125 10.4097 1.34688 10.3347 1.27188C10.2628 1.2 10.1316 1.10625 10.0472 1.0625C9.95969 1.02188 9.80032 0.975 9.69094 0.959375C9.52844 0.93125 9.45657 0.934375 9.30032 0.978125C9.1972 1.00625 9.03469 1.08438 8.94094 1.15C8.84719 1.2125 8.72219 1.3375 8.66594 1.42188C8.60657 1.50937 8.53782 1.65 8.51282 1.73438C8.48782 1.82187 8.46907 1.94375 8.46907 2.00938C8.46907 2.07188 8.44094 2.18125 8.40657 2.25C8.3649 2.33333 8.3024 2.39583 8.21907 2.4375C8.15032 2.47187 8.05032 2.5 8.00032 2.5C7.94719 2.5 7.85032 2.47187 7.78157 2.4375C7.70032 2.39687 7.63469 2.33438 7.59719 2.25938C7.56594 2.19375 7.53157 2.05 7.51907 1.9375C7.50657 1.825 7.46907 1.67188 7.43469 1.59375C7.40032 1.51562 7.33157 1.40313 7.28469 1.34375C7.23469 1.28437 7.12844 1.19062 7.04407 1.13437C6.95969 1.08125 6.81282 1.01562 6.71907 0.9875C6.62532 0.959375 6.49719 0.9375 6.43782 0.940625C6.37844 0.940625 6.25344 0.9625 6.16282 0.9875C6.07532 1.0125 5.95969 1.05313 5.90657 1.07812ZM7.99407 3.15625C8.04719 3.15625 8.15032 3.18438 8.21907 3.21875C8.3024 3.26042 8.3649 3.32292 8.40657 3.40625C8.46282 3.52187 8.46907 3.59375 8.46907 5.1875H9.09407V4.67188C9.09407 4.21875 9.10032 4.14062 9.15657 4.03125C9.19824 3.94792 9.26074 3.88542 9.34407 3.84375C9.41282 3.80938 9.51282 3.78125 9.56282 3.78125C9.61282 3.78125 9.71282 3.80938 9.78157 3.84375C9.8649 3.88542 9.9274 3.94792 9.96907 4.03125C10.0253 4.14062 10.0316 4.21875 10.0316 5.17188L10.1941 5.2125C10.2847 5.23438 10.4128 5.2875 10.4784 5.32812C10.5409 5.37187 10.6284 5.45937 10.6722 5.525C10.7128 5.5875 10.7659 5.71562 10.8284 5.96875H11.3378C11.7816 5.96875 11.8597 5.975 11.9691 6.03125C12.0524 6.07292 12.1149 6.13542 12.1566 6.21875C12.1909 6.2875 12.2191 6.38438 12.2191 6.4375C12.2191 6.49062 12.1909 6.5875 12.1566 6.65625C12.1149 6.73958 12.0524 6.80208 11.9691 6.84375C11.8597 6.9 11.7816 6.90625 10.8128 6.90625V7.53125H11.6409C12.4066 7.53125 12.4784 7.5375 12.5941 7.59375C12.6774 7.63542 12.7399 7.69792 12.7816 7.78125C12.8159 7.85 12.8441 7.94688 12.8441 8C12.8441 8.05 12.8159 8.15 12.7816 8.21875C12.7399 8.30208 12.6774 8.36458 12.5941 8.40625C12.4784 8.4625 12.4066 8.46875 10.8128 8.46875V9.09375H11.3284C11.7816 9.09375 11.8597 9.1 11.9691 9.15625C12.0524 9.19792 12.1149 9.26042 12.1566 9.34375C12.1909 9.4125 12.2191 9.5125 12.2191 9.5625C12.2191 9.6125 12.1909 9.7125 12.1566 9.78125C12.1149 9.86458 12.0524 9.92708 11.9691 9.96875C11.8597 10.025 11.7816 10.0312 10.8284 10.0312L10.7878 10.1938C10.7659 10.2844 10.7128 10.4125 10.6722 10.4781C10.6284 10.5406 10.5409 10.6281 10.4784 10.6719C10.4128 10.7125 10.2847 10.7656 10.0316 10.8281V11.3375C10.0316 11.7812 10.0253 11.8594 9.96907 11.9688C9.9274 12.0521 9.8649 12.1146 9.78157 12.1562C9.71282 12.1906 9.61282 12.2188 9.56282 12.2188C9.51282 12.2188 9.41282 12.1906 9.34407 12.1562C9.26074 12.1146 9.19824 12.0521 9.15657 11.9688C9.10032 11.8594 9.09407 11.7812 9.09407 10.8125H8.46907V11.6406C8.46907 12.4062 8.46282 12.4781 8.40657 12.5938C8.3649 12.6771 8.3024 12.7396 8.21907 12.7812C8.15032 12.8156 8.05032 12.8438 8.00032 12.8438C7.94719 12.8438 7.85032 12.8156 7.78157 12.7812C7.69824 12.7396 7.63574 12.6771 7.59407 12.5938C7.53782 12.4781 7.53157 12.4062 7.53157 10.8125H6.90657V11.3281C6.90657 11.7812 6.90032 11.8594 6.84407 11.9688C6.8024 12.0521 6.7399 12.1146 6.65657 12.1562C6.58782 12.1906 6.49094 12.2188 6.43782 12.2188C6.38469 12.2188 6.28782 12.1906 6.21907 12.1562C6.13574 12.1146 6.07324 12.0521 6.03157 11.9688C5.97532 11.8594 5.96907 11.7812 5.96907 10.8281L5.80657 10.7875C5.71594 10.7656 5.58782 10.7125 5.52532 10.6719C5.45969 10.6281 5.37219 10.5406 5.32844 10.4781C5.28782 10.4125 5.23469 10.2844 5.17219 10.0312H4.66594C4.21907 10.0312 4.14094 10.025 4.03157 9.96875C3.94824 9.92708 3.88574 9.86458 3.84407 9.78125C3.80969 9.7125 3.78157 9.6125 3.78157 9.5625C3.78157 9.5125 3.80969 9.4125 3.84407 9.34375C3.88574 9.26042 3.94824 9.19792 4.03157 9.15625C4.14094 9.1 4.21907 9.09375 5.18782 9.09375V8.46875H4.35969C3.59407 8.46875 3.52219 8.4625 3.40657 8.40625C3.32324 8.36458 3.26074 8.30208 3.21907 8.21875C3.18469 8.15 3.15657 8.05 3.15657 8C3.15657 7.94688 3.18469 7.85 3.21907 7.78125C3.26074 7.69792 3.32324 7.63542 3.40657 7.59375C3.52219 7.5375 3.59407 7.53125 5.18782 7.53125V6.90625H4.67219C4.21907 6.90625 4.14094 6.9 4.03157 6.84375C3.94824 6.80208 3.88574 6.73958 3.84407 6.65625C3.80969 6.5875 3.78157 6.49062 3.78157 6.4375C3.78157 6.38438 3.80969 6.2875 3.84407 6.21875C3.88574 6.13542 3.94824 6.07292 4.03157 6.03125C4.14094 5.975 4.21907 5.96875 5.17219 5.96875L5.21282 5.80625C5.23469 5.71563 5.28782 5.5875 5.33469 5.525C5.38157 5.45937 5.46907 5.37187 5.52844 5.32812C5.59094 5.2875 5.71594 5.23438 5.96907 5.17188V4.66563C5.96907 4.21875 5.97532 4.14062 6.03157 4.03125C6.07324 3.94792 6.13574 3.88542 6.21907 3.84375C6.28782 3.80938 6.38469 3.78125 6.43782 3.78125C6.49094 3.78125 6.58782 3.80938 6.65657 3.84375C6.7399 3.88542 6.8024 3.94792 6.84407 4.03125C6.90032 4.14062 6.90657 4.21875 6.90657 5.1875H7.53157V4.35938C7.53157 3.59375 7.53782 3.52187 7.59407 3.40625C7.63469 3.32812 7.70032 3.25938 7.77532 3.21875C7.83782 3.1875 7.93782 3.15937 7.99407 3.15625ZM6.12532 9.875H9.87532V6.125H6.12532V9.875Z" fill="#ACB9CB"/>
</g>
<defs>
<clipPath id="clip0_546_5033">
<rect width="16" height="16" fill="white"/>
</clipPath>
</defs>
</svg>
