<svg width="16" height="16" viewBox="0 0 16 16" fill="none" xmlns="http://www.w3.org/2000/svg">
<path fill-rule="evenodd" clip-rule="evenodd" d="M11.488 0.020459C12.5427 0.020459 13.4251 0.555978 14.2651 1.70579C15.5657 3.48325 14.8641 5.49992 14.3003 7.12045L14.3003 7.12052L14.2905 7.1485C14.0455 7.84901 13.8141 8.5106 13.8141 8.98824C13.8141 10.6155 13.6305 15.9251 11.2689 15.9251C9.57634 15.9251 9.175 14.1164 8.85249 12.6629L8.85248 12.6629C8.4798 10.9993 8.21098 10.3054 7.50838 10.3054C6.694 10.3054 6.34936 11.3772 5.95138 12.8915C5.57655 14.3299 5.15283 15.9557 3.77568 15.9557C1.76339 15.9557 1.22652 11.5782 1.22652 8.99156C1.22652 8.48778 0.987218 7.82059 0.733799 7.11414C0.164748 5.52629 -0.540693 3.55742 0.701789 1.71882C1.49165 0.546361 2.35335 0 3.41324 0C4.08822 0 4.76251 0.22776 5.41468 0.448175L5.41608 0.44865C6.08047 0.675036 6.76307 0.907628 7.4595 0.907628C8.15457 0.907628 8.79876 0.692699 9.48071 0.465168L9.48186 0.464787L9.50303 0.457705L9.5036 0.457513C10.143 0.24284 10.8054 0.020459 11.488 0.020459ZM13.0744 6.70925L13.0833 6.68337C13.5928 5.21915 14.1196 3.70501 13.2289 2.48796C12.4848 1.46929 11.9313 1.33202 11.488 1.33202C11.013 1.33202 10.4757 1.51239 9.90686 1.70343L9.88457 1.71086C9.17061 1.94911 8.36131 2.2191 7.45941 2.2191C6.55198 2.2191 5.73219 1.93964 5.00881 1.69304L5.00827 1.69285C4.42726 1.49657 3.87929 1.31148 3.41324 1.31148C2.98161 1.31148 2.44835 1.44796 1.76658 2.46033C0.899705 3.74313 1.43098 5.22579 1.94479 6.65958L1.9449 6.65989C2.24027 7.48338 2.51745 8.25618 2.51745 8.99139C2.51745 10.5102 2.69257 12.0191 2.99804 13.1312C3.3413 14.381 3.71622 14.644 3.77577 14.644C4.15936 14.644 4.48611 13.3904 4.70244 12.5604L4.70262 12.5597C5.09914 11.0508 5.63988 8.99375 7.50838 8.99375C9.35423 8.99375 9.79116 10.9439 10.1102 12.3679L10.1103 12.3682C10.5017 14.1322 10.7505 14.6135 11.2689 14.6135C11.3853 14.6135 11.7588 14.3408 12.0846 13.0956C12.3635 12.0297 12.5234 10.5326 12.5234 8.98815C12.5234 8.28442 12.791 7.5193 13.0744 6.70925Z" fill="#ACB9CB"/>
</svg>
