<svg width="16" height="16" viewBox="0 0 16 16" fill="none" xmlns="http://www.w3.org/2000/svg">
<path fill-rule="evenodd" clip-rule="evenodd" d="M8.00959 1.47168C8.20959 1.47168 8.51271 1.48418 8.67834 1.50293C8.84709 1.52168 9.09084 1.56543 9.21896 1.59668C9.34709 1.63105 9.55959 1.70605 9.68771 1.76855C9.83771 1.84043 9.99084 1.94668 10.1096 2.0623C10.2127 2.1623 10.3346 2.3123 10.3815 2.39355C10.4283 2.47793 10.494 2.65918 10.5315 2.79668C10.5721 2.95605 10.594 3.14355 10.594 3.59355L10.694 3.60918C10.7502 3.61543 11.0002 3.64355 11.2502 3.67168C11.5002 3.6998 11.8221 3.74043 11.969 3.76855C12.1158 3.79355 12.369 3.84355 12.5315 3.88418C12.6908 3.92168 12.9252 4.00293 13.0471 4.0623C13.2627 4.17168 13.269 4.1748 13.4002 4.4373C13.4815 4.60293 13.569 4.84668 13.6283 5.07793C13.6783 5.28418 13.7565 5.69355 13.7971 5.98418C13.8377 6.2748 13.8877 6.73418 13.9065 6.9998C13.9252 7.26543 13.9533 7.6248 13.969 7.79668C13.9877 7.96855 14.0002 8.3623 14.0002 8.67168C14.0002 8.98105 13.9846 9.49355 13.969 9.8123C13.9502 10.1311 13.9158 10.5998 13.8908 10.8592C13.8627 11.1154 13.8065 11.5279 13.7658 11.7717C13.7221 12.0186 13.6471 12.3498 13.594 12.5061C13.544 12.6654 13.4627 12.8592 13.4127 12.9373C13.3658 13.0154 13.2783 13.1123 13.219 13.1529C13.1596 13.1967 13.0033 13.2686 12.8752 13.3154C12.7471 13.3623 12.4783 13.4342 12.2815 13.4779C12.0846 13.5217 11.7315 13.5873 11.5002 13.6217C11.269 13.6561 10.8533 13.7061 10.5783 13.7342C10.3033 13.7592 9.88146 13.7967 9.64084 13.8154C9.40021 13.8342 8.77521 13.8561 8.25021 13.8654C7.68459 13.8748 7.06271 13.8686 6.71896 13.8467C6.40021 13.8248 5.94396 13.7967 5.70334 13.7779C5.46271 13.7623 5.03771 13.7186 4.75646 13.6873C4.47834 13.6529 4.07834 13.5873 3.86584 13.5436C3.65646 13.4998 3.39396 13.4279 3.28146 13.3873C3.16896 13.3467 3.02834 13.2717 2.96896 13.2217C2.90959 13.1748 2.81584 13.0529 2.75959 12.9498C2.70646 12.8498 2.62521 12.6373 2.57834 12.4842C2.53459 12.3311 2.46271 12.0061 2.42209 11.7654C2.38146 11.5248 2.32521 11.0904 2.30021 10.7967C2.27521 10.5029 2.23771 10.0279 2.21584 9.73418C2.19396 9.41543 2.18771 8.8998 2.19709 8.45293C2.20646 8.04043 2.22834 7.59043 2.24709 7.45293C2.26271 7.31543 2.29396 7.02168 2.31584 6.79668C2.33459 6.57168 2.38146 6.17793 2.42209 5.92168C2.46271 5.6623 2.53146 5.30605 2.57834 5.1248C2.62521 4.94355 2.70959 4.69043 2.77209 4.5623C2.83146 4.43418 2.93459 4.26543 2.99709 4.1873C3.08146 4.08418 3.16584 4.02793 3.30021 3.9748C3.40021 3.9373 3.65334 3.86855 3.85959 3.82793C4.06584 3.78418 4.48146 3.72168 4.78146 3.6873C5.08146 3.6498 5.37521 3.61543 5.53146 3.59355V3.38105C5.53146 3.26543 5.54709 3.08105 5.56271 2.96855C5.58146 2.8498 5.64709 2.65918 5.71584 2.51543C5.80646 2.32793 5.88771 2.21855 6.03771 2.07793C6.15646 1.96543 6.32834 1.84668 6.46896 1.7748C6.59709 1.7123 6.81584 1.63105 6.95334 1.59668C7.09084 1.5623 7.30021 1.51855 7.42209 1.50293C7.54084 1.49043 7.80647 1.4748 8.00646 1.47168H8.00959ZM7.09709 2.57168C7.00334 2.5998 6.86896 2.6623 6.80021 2.70918C6.73146 2.75918 6.64709 2.85605 6.61584 2.9248C6.58146 2.99355 6.54709 3.14668 6.53771 3.28418L6.51896 3.5248C8.67521 3.55293 9.35334 3.56855 9.41584 3.57793L9.53459 3.59355C9.53459 3.26543 9.51896 3.11855 9.50334 3.05293C9.48459 2.9873 9.41584 2.88105 9.33771 2.80293C9.24396 2.70605 9.15021 2.6498 9.00334 2.5998C8.89084 2.5623 8.70334 2.51855 8.58146 2.4998C8.45959 2.48418 8.18771 2.47168 7.97209 2.47168C7.75646 2.4748 7.50959 2.4873 7.42521 2.4998C7.33771 2.5123 7.19084 2.54355 7.09709 2.57168ZM5.20647 4.6373C4.79397 4.6998 4.37209 4.76543 4.26897 4.78418C4.16584 4.7998 3.97834 4.83418 3.85334 4.85918C3.68459 4.89355 3.61584 4.9248 3.58459 4.9748C3.55959 5.01543 3.50959 5.15293 3.47521 5.28105C3.43771 5.40918 3.38771 5.63418 3.36271 5.78105C3.33771 5.92793 3.29709 6.2373 3.27209 6.46855C3.24709 6.6998 3.20646 7.20605 3.18459 7.59355C3.16271 7.98105 3.14709 8.52168 3.15021 8.79668C3.15646 9.07168 3.18146 9.55605 3.20646 9.8748C3.23459 10.1936 3.27521 10.6279 3.30334 10.8436C3.32834 11.0592 3.37521 11.3967 3.40959 11.5936C3.44396 11.7904 3.49396 12.0592 3.52521 12.1873C3.55646 12.3154 3.59396 12.4373 3.61271 12.4529C3.62834 12.4717 3.80647 12.5186 4.00334 12.5561C4.20022 12.5936 4.52521 12.6467 4.72209 12.6717C4.91897 12.6967 5.31272 12.7404 5.59709 12.7654C5.88146 12.7904 6.53459 12.8279 7.05021 12.8467C7.75334 12.8748 8.22521 12.8748 8.94084 12.8467C9.46584 12.8279 10.1252 12.7904 10.4096 12.7654C10.694 12.7404 11.094 12.6967 11.3002 12.6686C11.5065 12.6436 11.7877 12.5998 11.9252 12.5748C12.0627 12.5498 12.2283 12.5154 12.2908 12.4967C12.3877 12.4748 12.4158 12.4498 12.4408 12.3654C12.4565 12.3123 12.4971 12.1248 12.5315 11.9529C12.5658 11.7811 12.6221 11.4092 12.6565 11.1248C12.6908 10.8404 12.7377 10.3842 12.7565 10.1092C12.7752 9.83418 12.794 9.21543 12.794 8.73418C12.7971 8.25293 12.7815 7.69043 12.7596 7.48418C12.7408 7.27793 12.7065 6.91855 12.6908 6.6873C12.6721 6.45605 12.6346 6.1123 12.6065 5.92168C12.5815 5.73105 12.5252 5.44355 12.4846 5.28105C12.4408 5.11855 12.3877 4.95293 12.3627 4.9123C12.3283 4.8623 12.2565 4.83105 12.1033 4.7998C11.9877 4.7748 11.7471 4.73106 11.5658 4.70605C11.3846 4.68105 11.0346 4.63731 10.7846 4.6123C10.5346 4.58418 10.0627 4.5498 9.73771 4.53418C9.40959 4.51543 8.82834 4.49668 8.44084 4.49043C8.05334 4.4873 7.33771 4.49043 6.84709 4.50293C6.05646 4.5248 5.87209 4.5373 5.20647 4.6373ZM8.10334 5.81855C8.25334 5.8248 8.33459 5.84668 8.40021 5.89355C8.44709 5.92793 8.51271 6.00605 8.54084 6.06543C8.59084 6.15918 8.59709 6.28105 8.59709 8.1873H9.52521C10.0377 8.1873 10.5127 8.20293 10.5815 8.21855C10.6502 8.23418 10.7408 8.2748 10.7846 8.30605C10.8283 8.34043 10.8908 8.40605 10.9252 8.45293C10.9627 8.50293 10.9908 8.5998 10.9971 8.69668C11.0065 8.81855 10.9908 8.89355 10.9346 8.9998C10.894 9.08105 10.819 9.16543 10.7533 9.20293C10.6502 9.2623 10.5846 9.26543 8.59709 9.28105V11.1561L8.47834 11.2842C8.41584 11.3529 8.30646 11.4373 8.23771 11.4717C8.16896 11.5029 8.06271 11.5311 8.00334 11.5311C7.94396 11.5311 7.83146 11.4998 7.75334 11.4623C7.65959 11.4154 7.59084 11.3498 7.54396 11.2654C7.47521 11.1436 7.47209 11.1186 7.47209 9.1248H6.49396C5.54396 9.12168 5.51584 9.12168 5.40021 9.05293C5.33459 9.01543 5.25021 8.93418 5.21271 8.8748C5.16584 8.79668 5.14397 8.71543 5.14397 8.59355C5.14397 8.47793 5.16584 8.38418 5.20647 8.3123C5.24396 8.24668 5.32522 8.1748 5.40959 8.13105C5.54709 8.0623 5.57521 8.0623 7.53459 8.0623V7.14668C7.53459 6.2623 7.53771 6.23105 7.60334 6.09355C7.64396 6.01543 7.72521 5.92168 7.78459 5.88105C7.87834 5.81855 7.92521 5.80918 8.10334 5.81855Z" fill="#ACB9CB"/>
</svg>
