<svg width="16" height="16" viewBox="0 0 16 16" fill="none" xmlns="http://www.w3.org/2000/svg">
<path fill-rule="evenodd" clip-rule="evenodd" d="M2.20312 1.00312L8.76562 1L8.96875 1.07812C9.08125 1.12188 9.22812 1.19063 9.29687 1.23125C9.36562 1.27188 9.49375 1.38125 9.58125 1.47187C9.66875 1.56562 9.77812 1.71563 9.82187 1.80313C9.86875 1.89375 9.92812 2.05 9.95312 2.14687C9.98125 2.25625 10 2.46563 10 3H10.5719C11.1031 3 11.15 3.00625 11.2656 3.07188C11.35 3.11875 11.4156 3.1875 11.4625 3.28125C11.525 3.40625 11.5312 3.46875 11.5344 4.29688L11.7719 4.40625C11.9062 4.46563 12.125 4.59063 12.2656 4.68125C12.4031 4.77188 12.5187 4.84375 12.525 4.84375C12.5281 4.84375 12.6969 4.75 12.8969 4.63438C13.1 4.52188 13.3125 4.41563 13.3656 4.4C13.4281 4.38438 13.5219 4.3875 13.5937 4.40625C13.6625 4.425 13.7594 4.475 13.8094 4.52187C13.8594 4.57187 14.1469 5.03125 14.45 5.54688C14.9344 6.36875 15.0031 6.5 15 6.61875C15 6.70312 14.9719 6.79375 14.9219 6.875C14.8594 6.975 14.7656 7.04375 14.4375 7.22813C14.0875 7.42188 14.0344 7.4625 14.0531 7.51562C14.0625 7.55 14.0719 7.76875 14.0719 8C14.0719 8.23125 14.0625 8.45 14.0531 8.48438C14.0344 8.5375 14.0875 8.57812 14.4375 8.775C14.7656 8.95625 14.8594 9.025 14.9219 9.125C14.9719 9.20625 15 9.29688 15 9.38437C15.0031 9.5 14.9344 9.63125 14.45 10.4531C14.1469 10.9688 13.8594 11.4281 13.8094 11.4781C13.7594 11.525 13.6625 11.575 13.5937 11.5938C13.5219 11.6125 13.4281 11.6156 13.3656 11.6C13.3125 11.5844 13.1 11.4781 12.8969 11.3656C12.6969 11.25 12.5281 11.1562 12.5219 11.1562C12.5187 11.1562 12.4031 11.2281 12.2656 11.3188C12.125 11.4094 11.9062 11.5344 11.5344 11.7031L11.5312 12.1406C11.5312 12.5312 11.525 12.5938 11.4625 12.7188C11.4156 12.8125 11.35 12.8813 11.2656 12.9281C11.15 12.9938 11.1031 13 10 13V13.3375C10 13.5344 9.98125 13.7438 9.95312 13.85C9.92812 13.95 9.86875 14.1062 9.82187 14.1969C9.77812 14.2844 9.66875 14.4344 9.58125 14.5281C9.49375 14.6187 9.36562 14.7281 9.29687 14.7688C9.22812 14.8094 9.08125 14.8781 8.76562 15H2.23437L2.03125 14.9219C1.91875 14.8781 1.77187 14.8094 1.70312 14.7688C1.63437 14.7281 1.50625 14.6187 1.41875 14.5281C1.33125 14.4344 1.22188 14.2844 1.17813 14.1969C1.13125 14.1062 1.07187 13.95 1.04687 13.8531C1.00625 13.6937 1 12.95 1 8C1 3.05 1.00625 2.30625 1.04687 2.14687C1.07187 2.05 1.13125 1.89375 1.17813 1.80625C1.22188 1.71562 1.33125 1.56563 1.41875 1.475C1.50625 1.38125 1.62812 1.27813 1.6875 1.24063C1.74687 1.20313 1.8875 1.13437 2 1.0875L2.20312 1.00312ZM2.10312 2.18438C2.06563 2.2375 2.025 2.32813 2.01562 2.38438C2.00625 2.4375 2.00312 5.00313 2.00625 8.08438L2.01562 13.6844C2.11875 13.8187 2.1875 13.8875 2.23125 13.9219C2.31562 13.9844 2.36562 13.9844 5.5 13.9844H8.68437C8.81875 13.8813 8.8875 13.8125 8.92187 13.7688C8.98437 13.6844 8.98437 13.6344 8.98437 8V2.31875C8.88125 2.18125 8.8125 2.1125 8.76875 2.07812C8.6875 2.01875 8.62812 2.01563 7.59062 2.00938L6.5 2C6.47187 2.23125 6.43125 2.35938 6.39062 2.4375C6.35312 2.51562 6.28437 2.62188 6.24375 2.67188C6.2 2.725 6.075 2.81562 5.96562 2.875C5.78125 2.975 5.74375 2.98438 5.5 2.98438C5.25625 2.98438 5.21875 2.975 5.03437 2.875C4.925 2.81562 4.8 2.725 4.75625 2.67188C4.71562 2.62188 4.64687 2.51562 4.60937 2.4375C4.56875 2.35938 4.52813 2.23125 4.51875 2.15L4.5 2C2.64375 2.00312 2.36562 2.0125 2.28437 2.04375C2.225 2.06563 2.14375 2.12813 2.10312 2.18438ZM10 6C10.1562 6 10.3031 6.02187 10.4219 6.04688C10.5437 6.07188 10.7406 6.14062 10.8594 6.2C10.9812 6.25937 11.1531 6.36562 11.2437 6.43437C11.3312 6.50625 11.4719 6.64375 11.55 6.74375C11.6281 6.84063 11.7406 7.02187 11.8 7.14062C11.8594 7.2625 11.9281 7.46562 11.9562 7.59375C11.9906 7.75625 12 7.9125 11.9906 8.10938C11.9812 8.26562 11.9437 8.48125 11.9094 8.59375C11.875 8.70625 11.7937 8.88437 11.7281 8.99375C11.6625 9.1 11.5531 9.25625 11.4812 9.3375C11.4125 9.41875 11.25 9.55625 11.1219 9.64375C10.9969 9.72813 10.8062 9.83125 10.7031 9.87187C10.6 9.9125 10.4 9.95937 10.2562 9.97812L10 10.0156V12H10.5312C10.5312 11.3875 10.5469 11.2125 10.5719 11.15C10.5969 11.0938 10.6562 11.0156 10.7062 10.975C10.7562 10.9375 10.8687 10.8812 10.9531 10.8562C11.0406 10.8281 11.2375 10.7437 11.3906 10.6687C11.5469 10.5938 11.8 10.4312 11.9531 10.3125C12.1094 10.1906 12.2844 10.0781 12.3437 10.0594C12.4031 10.0406 12.4969 10.0344 12.5469 10.0469C12.6 10.0594 12.7875 10.1531 12.9687 10.2531C13.2656 10.4187 13.3 10.4313 13.3312 10.3813C13.35 10.3531 13.4469 10.1875 13.5469 10.0156C13.6469 9.84375 13.7469 9.67188 13.7719 9.63437C13.8094 9.56562 13.8031 9.55937 13.6031 9.45C13.4844 9.3875 13.3281 9.29688 13.25 9.24687C13.1719 9.2 13.0906 9.12812 13.0656 9.0875C13.0406 9.04688 13.0094 8.975 13 8.92188C12.9844 8.86875 12.9969 8.72813 13.0219 8.59375C13.0469 8.46562 13.0687 8.19688 13.0687 8C13.0687 7.80312 13.0469 7.53438 13.0219 7.40625C12.9969 7.27187 12.9844 7.13125 13 7.07812C13.0094 7.02812 13.0406 6.95312 13.0656 6.9125C13.0906 6.87187 13.1719 6.8 13.25 6.75313C13.3281 6.70312 13.4844 6.6125 13.6031 6.55C13.8031 6.44375 13.8094 6.43438 13.7719 6.36875C13.7469 6.32812 13.6469 6.15625 13.5469 5.98438C13.4469 5.8125 13.35 5.64687 13.3312 5.61875C13.3 5.57188 13.2656 5.58437 12.9687 5.74687C12.7875 5.84687 12.6 5.94063 12.5469 5.95312C12.4969 5.96562 12.4031 5.95938 12.3437 5.94063C12.2844 5.92188 12.1094 5.80937 11.9531 5.6875C11.8 5.56875 11.5469 5.40625 11.3906 5.33125C11.2375 5.25625 11.0406 5.17188 10.9531 5.14687C10.8687 5.11875 10.7562 5.06563 10.7062 5.025C10.6562 4.98438 10.5969 4.90625 10.5719 4.85313C10.5469 4.7875 10.5312 4.61562 10.5312 4.375V4H10V6ZM10 9C10.2312 8.97188 10.3594 8.93125 10.4375 8.89062C10.5156 8.85313 10.6219 8.78437 10.6719 8.74375C10.725 8.7 10.8156 8.575 10.875 8.46562C10.975 8.28125 10.9844 8.24375 10.9844 8C10.9844 7.75625 10.975 7.71875 10.875 7.53438C10.8156 7.425 10.725 7.3 10.6719 7.25625C10.6219 7.21562 10.5156 7.14687 10.4375 7.10938C10.3594 7.06875 10.2312 7.02812 10.1531 7.01562L10.0094 6.99375L10 9ZM4.49062 6C4.54687 6 4.6375 6.01875 4.69375 6.04063C4.75 6.0625 4.83437 6.12813 4.88125 6.18125C4.92812 6.2375 4.975 6.33437 4.9875 6.39687C4.99688 6.4625 4.99687 6.56563 4.98437 6.625C4.96562 6.7125 4.84062 6.85625 3.70312 8L4.33125 8.63125C4.84063 9.14375 4.96562 9.2875 4.98437 9.375C4.99687 9.43437 4.99687 9.54062 4.98437 9.60938C4.96771 9.69271 4.92188 9.77188 4.84687 9.84688C4.77187 9.92396 4.69271 9.96979 4.60937 9.98438C4.54062 9.99687 4.43437 9.99687 4.375 9.98438C4.28437 9.96875 4.1125 9.8125 3.4 9.1C2.68438 8.38438 2.53125 8.21562 2.5125 8.125C2.5 8.06563 2.50312 7.95937 2.5125 7.89062C2.53125 7.77812 2.62812 7.66875 3.35312 6.92188C3.93438 6.325 4.20625 6.06563 4.28125 6.04063C4.34062 6.01875 4.43437 6 4.49062 6ZM6.49062 6C6.54687 6 6.6375 6.01875 6.69375 6.04375C6.75 6.06875 7.1625 6.45625 7.62812 6.925C8.3125 7.6125 8.46562 7.78438 8.48437 7.875C8.49687 7.93437 8.49687 8.04063 8.48437 8.10938C8.46562 8.22188 8.375 8.32188 7.59687 9.1C6.82188 9.875 6.72187 9.96562 6.60937 9.98438C6.54062 9.99687 6.43437 9.99687 6.375 9.98438C6.30937 9.97188 6.21562 9.9125 6.15 9.84688C6.08437 9.78125 6.02812 9.6875 6.01562 9.625C6.00312 9.56563 6.00312 9.45938 6.0125 9.39062C6.03125 9.27812 6.10937 9.19063 7.29687 8L6.66562 7.36562C6.10938 6.80937 6.03125 6.71875 6.0125 6.60938C6.00312 6.54063 6 6.4375 6.0125 6.38125C6.02187 6.325 6.0625 6.2375 6.10312 6.18125C6.14375 6.12813 6.225 6.06562 6.28437 6.04375C6.34062 6.02187 6.43437 6 6.49062 6Z" fill="#ACB9CB"/>
</svg>
