<svg width="16" height="16" viewBox="0 0 16 16" fill="none" xmlns="http://www.w3.org/2000/svg">
<g clip-path="url(#clip0_546_5020)">
<path fill-rule="evenodd" clip-rule="evenodd" d="M7.99375 0.00308029C8.10625 -4.47116e-05 8.20313 0.0437053 8.64688 0.299955C8.9375 0.46558 10.4031 1.31246 11.9062 2.17808C13.4094 3.04683 14.6937 3.79058 14.7594 3.83121C14.8219 3.87183 14.9031 3.96246 14.9375 4.03121C15 4.15308 15 4.21871 15 7.99371C15 11.7468 14.9969 11.8312 14.9375 11.9625C14.9 12.0406 14.8281 12.125 14.7563 12.1687C14.6938 12.2093 13.4094 12.9531 11.9062 13.8218C10.4031 14.6875 8.9375 15.5343 8.64688 15.7C8.225 15.9406 8.1 16 8 16C7.9 16 7.7875 15.95 7.45937 15.7593C7.23438 15.6281 5.73125 14.7625 4.125 13.8343C2.51875 12.9093 1.18437 12.1343 1.15937 12.1125C1.1375 12.0937 1.09063 12.025 1.05938 11.9625C1.00313 11.8468 1 11.6968 1 8.00933C1 4.36558 1.00313 4.16558 1.05938 4.04683C1.09063 3.97808 1.13437 3.90621 1.15937 3.88746C1.18437 3.86558 2.65937 3.01246 4.4375 1.98433C6.21562 0.95933 7.7125 0.0937053 7.76562 0.0624553C7.81875 0.0312053 7.91875 0.00308029 7.99062 0.00308029H7.99375ZM1.92813 4.51246L1.94062 11.4843C6.61563 14.1843 7.98438 14.9687 8.00313 14.9687C8.02188 14.9687 9.39062 14.1843 11.05 13.225L14.0688 11.4843V4.51558C9.39062 1.81558 8.01562 1.03121 7.99687 1.03433C7.975 1.03433 6.6 1.81558 4.94063 2.77183L1.92813 4.51246ZM3.75938 6.03433C4.01562 6.03433 4.15625 6.04683 4.21562 6.07808C4.2625 6.09996 4.33125 6.15308 4.36875 6.19371C4.40625 6.23433 4.6125 6.69683 4.83125 7.22183C5.05 7.74371 5.24687 8.19371 5.27187 8.22183C5.3125 8.26246 5.31875 8.14996 5.31875 7.31558C5.31875 6.41558 5.32188 6.35621 5.38125 6.25933C5.41563 6.20308 5.4875 6.13121 5.54375 6.09683C5.6 6.05933 5.7 6.03433 5.77187 6.03433C5.84062 6.03433 5.94375 6.05933 6.00625 6.09058C6.07188 6.12808 6.14375 6.20308 6.25625 6.42496V9.58121L6.18437 9.71558C6.14375 9.79996 6.07188 9.87496 6.00625 9.91246C5.91563 9.95933 5.82812 9.97183 5.52812 9.97183C5.275 9.97183 5.13437 9.95621 5.075 9.92808C5.02812 9.90308 4.9625 9.85308 4.92812 9.81246C4.89375 9.77496 4.67812 9.29683 4.45312 8.75621C4.22813 8.21246 4.025 7.76246 4.00625 7.75933C3.98438 7.75308 3.97187 8.04996 3.95937 9.71558L3.88125 9.79996C3.8375 9.84371 3.7625 9.90308 3.71563 9.92808C3.66875 9.94996 3.57812 9.96871 3.5125 9.96871C3.45 9.96871 3.34687 9.94058 3.2875 9.90621C3.225 9.87183 3.15 9.79996 3.11562 9.74371C3.05312 9.64683 3.05312 9.58746 3.05312 7.99683C3.05312 6.37496 3.05313 6.34996 3.11875 6.26246C3.15313 6.21246 3.23125 6.14058 3.2875 6.10308C3.38125 6.04058 3.42813 6.03433 3.75938 6.03433ZM8.5375 6.03433C9.64375 6.03121 9.64688 6.03121 9.75625 6.10308C9.81563 6.14371 9.89062 6.22496 9.91875 6.28433C9.95 6.34371 9.975 6.44058 9.975 6.50308C9.975 6.56246 9.95 6.65933 9.91562 6.72183C9.88125 6.79058 9.80937 6.85621 9.72188 6.89996C9.5875 6.96871 9.55313 6.97183 8.00625 6.97183V7.78433H8.55313C9.00938 7.78433 9.11875 7.79058 9.2125 7.83746C9.275 7.86871 9.35625 7.93433 9.39375 7.98746C9.44063 8.05308 9.45938 8.12808 9.45938 8.25308C9.45938 8.38433 9.44063 8.44683 9.38125 8.53121C9.3375 8.59058 9.25625 8.65621 9.2 8.67808C9.13125 8.70933 8.93125 8.72183 8.00625 8.72183V9.16558C8.00625 9.52808 7.99375 9.63121 7.95 9.71871C7.92188 9.77808 7.85625 9.85308 7.80625 9.89058C7.74062 9.93746 7.67188 9.95621 7.5375 9.95621C7.4 9.95621 7.33125 9.93746 7.26562 9.89058C7.21562 9.85308 7.15312 9.77808 7.12187 9.71871C7.07187 9.61871 7.06875 9.48433 7.08437 6.33121L7.15625 6.22496C7.19688 6.16871 7.275 6.09996 7.32812 6.07808C7.40625 6.04371 7.67813 6.03433 8.5375 6.03433ZM11.7625 6.03433C12.7625 6.03433 12.8906 6.03746 12.9937 6.08746C13.0562 6.11871 13.1344 6.19058 13.1687 6.25308C13.2094 6.32183 13.2312 6.41246 13.2281 6.50308C13.2281 6.57808 13.2 6.68433 13.1687 6.73433C13.1406 6.78121 13.075 6.85308 13.025 6.89058C12.95 6.94371 12.8875 6.95621 12.2563 6.97183L12.2469 8.31246C12.2406 9.61871 12.2375 9.65621 12.175 9.74058C12.1375 9.79058 12.0594 9.86246 12.0031 9.89996C11.9344 9.94683 11.85 9.97183 11.7719 9.97183C11.6938 9.97183 11.6062 9.94683 11.5406 9.89996C11.4812 9.86246 11.4031 9.79058 11.3687 9.74058C11.3031 9.65621 11.3031 9.61871 11.2875 6.97183H11.0125C10.8625 6.97183 10.6906 6.95621 10.6313 6.93746C10.5688 6.92183 10.4875 6.87496 10.4469 6.83746C10.4062 6.79996 10.3594 6.73121 10.3438 6.69058C10.325 6.64683 10.3125 6.55621 10.3094 6.48746C10.3094 6.40621 10.3344 6.32183 10.3813 6.24683C10.4219 6.18433 10.4969 6.11246 10.55 6.08433C10.6313 6.04058 10.8 6.03433 11.7625 6.03433Z" fill="#ACB9CB"/>
</g>
<defs>
<clipPath id="clip0_546_5020">
<rect width="16" height="16" fill="white"/>
</clipPath>
</defs>
</svg>
