<svg width="16" height="18" viewBox="0 0 16 18" fill="none" xmlns="http://www.w3.org/2000/svg">
<path d="M8.74622 6.61719C8.74622 6.61719 6.16408 9.46825 7.38037 13.4257" stroke="#ACB9CB" stroke-width="1.02128" stroke-linecap="round" stroke-linejoin="round"/>
<path d="M8.40497 11.0425C8.40497 11.0425 13.3562 9.55313 9.08789 3.89355C9.08789 3.89355 8.3295 5.22155 6.45043 6.36641C5.93516 6.68062 5.4998 7.12283 5.22492 7.65934C4.72707 8.63126 4.57716 10.1169 7.03911 11.3829" stroke="#ACB9CB" stroke-width="1.02128" stroke-linecap="round" stroke-linejoin="round"/>
<path fill-rule="evenodd" clip-rule="evenodd" d="M8.00017 1.16992L1.1709 3.89333V8.85026C1.1709 10.2498 1.74729 11.5883 2.76519 12.5524L7.05943 16.6195C7.58665 17.1189 8.41368 17.1189 8.9409 16.6195L13.2351 12.5524C14.253 11.5883 14.8294 10.2498 14.8294 8.85026V3.89333L8.00017 1.16992Z" stroke="#ACB9CB" stroke-width="1.02128" stroke-linecap="round" stroke-linejoin="round"/>
</svg>
