<svg width="16" height="16" viewBox="0 0 16 16" fill="none" xmlns="http://www.w3.org/2000/svg">
<path fill-rule="evenodd" clip-rule="evenodd" d="M1.97685 13.9608V13.9608C0.969956 12.9539 0.969956 11.3207 1.97685 10.3138L10.3135 1.97713C11.3204 0.969864 12.9536 0.969864 13.9605 1.97713C14.9677 2.98439 14.9677 4.61723 13.9605 5.62413L5.62385 13.9608C4.61696 14.9677 2.98411 14.9677 1.97685 13.9608Z" stroke="#ACB9CB" stroke-width="1.10526"/>
<path d="M11.4995 7.85254L14.0247 10.3777C14.9966 11.3496 14.9966 12.9253 14.0247 13.8969L13.8969 14.0251C12.925 14.997 11.3496 14.997 10.3773 14.0251L7.85254 11.4995" stroke="#ACB9CB" stroke-width="1.10526"/>
<path d="M4.16912 7.81661L1.91328 5.56077C0.941016 4.58887 0.941016 3.01314 1.91328 2.04124L2.04112 1.91377C3.01265 0.941505 4.58875 0.941505 5.56028 1.91377L7.81575 4.16924" stroke="#ACB9CB" stroke-width="1.10526"/>
<path d="M7.96888 5.38965V6.12649" stroke="#ACB9CB" stroke-width="1.10526"/>
<path d="M7.96888 6.86328V7.60012" stroke="#ACB9CB" stroke-width="1.10526"/>
<path d="M7.96888 8.33691V9.07376" stroke="#ACB9CB" stroke-width="1.10526"/>
<path d="M9.44251 6.86328V7.60012" stroke="#ACB9CB" stroke-width="1.10526"/>
<path d="M9.44251 8.33691V9.07376" stroke="#ACB9CB" stroke-width="1.10526"/>
<path d="M6.49476 6.86328V7.60012" stroke="#ACB9CB" stroke-width="1.10526"/>
<path d="M6.49476 8.33691V9.07376" stroke="#ACB9CB" stroke-width="1.10526"/>
<path d="M7.96888 9.81055V10.5474" stroke="#ACB9CB" stroke-width="1.10526"/>
</svg>
