<svg width="16" height="16" viewBox="0 0 16 16" fill="none" xmlns="http://www.w3.org/2000/svg">
<g clip-path="url(#clip0_545_4820)">
<path fill-rule="evenodd" clip-rule="evenodd" d="M10.0625 0V5.625H11V4.09375H11.9375L11.9531 5.60938L14.6562 5.625V15.0625H16V16H0V15.0625H1.34375L1.3375 7.55312C1.33438 3.42188 1.34375 0.03125 1.35938 0.021875C1.375 0.009375 3.3375 0 10.0625 0ZM2.275 1.90937L2.28125 2.84375L9.10938 2.82812L9.11563 0.9375C3.87813 0.940625 2.3375 0.95 2.31562 0.959375C2.275 0.971875 2.26875 1.11562 2.275 1.90937ZM2.28125 5.625L9.10938 5.60938L9.11563 3.78125H2.28125V5.625ZM2.28125 8.40625H8.3125V6.5625H2.28125V8.40625ZM9.25 15.0625H11V13.4375H11.9375V15.0625H13.7188V6.5625H9.25V15.0625ZM2.28125 11.1875H8.3125V9.34375H2.28125V11.1875ZM2.28125 15.0625H5.21875V13.4375H6.15625V15.0625H8.3125V12.125H2.28125V15.0625ZM10.1562 7.9375H11.0312V8.875H10.1562V7.9375ZM11.9375 7.9375H12.8125V8.875H11.9375V7.9375ZM10.1562 9.625H11.0312V10.5625H10.1562V9.625ZM11.9375 9.625H12.8125V10.5625H11.9375V9.625ZM10.1562 11.3125H11.0312V12.25H10.1562V11.3125ZM11.9375 11.3125H12.8125V12.25H11.9375V11.3125Z" fill="#ACB9CB"/>
</g>
<defs>
<clipPath id="clip0_545_4820">
<rect width="16" height="16" fill="white"/>
</clipPath>
</defs>
</svg>
