<svg width="16" height="16" viewBox="0 0 16 16" fill="none" xmlns="http://www.w3.org/2000/svg">
<path d="M10.1362 14.8372H3.62459C2.90538 14.8372 2.32227 14.2541 2.32227 13.5349V8.65114C2.32227 8.3057 2.45934 7.97459 2.70385 7.7304L7.39678 3.03714C7.65106 2.78319 8.06324 2.78319 8.31752 3.03714L13.0105 7.7304C13.2546 7.97459 13.392 8.3057 13.392 8.65114V13.5349C13.392 14.2541 12.8089 14.8372 12.0897 14.8372H10.1362" stroke="#ACB9CB" stroke-width="0.976744"/>
<path d="M14.6944 7.46064L8.77797 1.5445C8.26974 1.03595 7.44472 1.03595 6.93648 1.5445L1.02002 7.46064" stroke="#ACB9CB" stroke-width="0.976744"/>
<path fill-rule="evenodd" clip-rule="evenodd" d="M8.83386 8.97674C8.83386 9.51623 8.3966 9.95349 7.85712 9.95349C7.31763 9.95349 6.88037 9.51623 6.88037 8.97674C6.88037 8.43726 7.31763 8 7.85712 8C8.3966 8 8.83386 8.43726 8.83386 8.97674Z" stroke="#ACB9CB" stroke-width="0.976744"/>
<path d="M7.85713 9.95312V13.2089" stroke="#ACB9CB" stroke-width="0.976744"/>
<path d="M7.85693 12.5583H8.83368" stroke="#ACB9CB" stroke-width="0.976744"/>
<path d="M7.85693 11.5817H8.5081" stroke="#ACB9CB" stroke-width="0.976744"/>
</svg>
