<svg width="18" height="16" viewBox="0 0 18 16" fill="none" xmlns="http://www.w3.org/2000/svg">
<path fill-rule="evenodd" clip-rule="evenodd" d="M14.4804 3.81054C14.4804 4.70193 11.8138 5.42479 8.52485 5.42479C5.23587 5.42479 2.56934 4.70193 2.56934 3.81054C2.56934 2.91915 5.23587 2.19629 8.52485 2.19629C11.8138 2.19629 14.4804 2.91915 14.4804 3.81054Z" stroke="#ACB9CB" stroke-width="1.17073" stroke-linecap="round"/>
<path d="M2.5694 3.81055C2.5694 3.81055 2.28335 10.4974 8.52491 10.4974" stroke="#ACB9CB" stroke-width="1.17073" stroke-linecap="round"/>
<path d="M8.5249 10.4974C14.7665 10.4974 14.4804 3.81055 14.4804 3.81055H15.8545C16.3606 3.81055 16.7708 4.22344 16.7708 4.73258V4.96319C16.7708 6.23683 15.7452 7.26926 14.4804 7.26926H14.0223" stroke="#ACB9CB" stroke-width="1.17073" stroke-linecap="round"/>
<path d="M14.3922 9.11523C15.3108 9.50023 15.8548 9.97913 15.8548 10.4977C15.8548 11.7709 12.5733 12.8034 8.52526 12.8034C4.47687 12.8034 1.19531 11.7709 1.19531 10.4977C1.19531 9.99602 1.70458 9.53166 2.56975 9.15295" stroke="#ACB9CB" stroke-width="1.17073" stroke-linecap="round"/>
</svg>
