<svg width="16" height="16" viewBox="0 0 16 16" fill="none" xmlns="http://www.w3.org/2000/svg">
<g clip-path="url(#clip0_545_4897)">
<path fill-rule="evenodd" clip-rule="evenodd" d="M1.875 0H14.125V2.23438L16 5.04688V7.35938L15.0625 7.82812V15.0625H16V16H0V15.0625H0.9375V7.82812L0 7.35938V5.04688L1.875 2.23438V0ZM2.8125 1.90625H13.1875V0.9375H2.8125V1.90625ZM1.34375 4.71875L3.88438 4.70312C4.3375 3.34687 4.475 2.92812 4.48438 2.89687C4.5 2.84687 4.44063 2.84375 3.54688 2.84375H2.59375L1.34375 4.71875ZM5.17188 3.8125C5.00938 4.30312 4.875 4.70625 4.875 4.70937C4.875 4.71562 5.47188 4.71875 6.20312 4.71875H7.53125V2.84375C5.73125 2.84375 5.49687 2.85312 5.48438 2.88125C5.475 2.90312 5.33437 3.32188 5.17188 3.8125ZM8.46875 4.71875C11.0469 4.71875 11.125 4.71562 11.1094 4.6625C11.1031 4.63438 10.9625 4.21562 10.8031 3.73438L10.5094 2.85938L8.46875 2.84375V4.71875ZM11.825 3.82812L12.1156 4.70312L14.6562 4.71875L13.4062 2.84375C11.5562 2.84375 11.4969 2.84687 11.5125 2.89687C11.525 2.92812 11.6625 3.34687 11.825 3.82812ZM0.9375 6.76562L2.34375 7.46875L3.75 6.76562V5.65625H0.9375V6.76562ZM4.6875 6.76562L6.10938 7.475L7.53438 6.76562L7.53125 5.65625H4.6875V6.76562ZM8.46875 6.76562L9.89375 7.475L11.3156 6.76562V5.65625H8.47188L8.46875 6.76562ZM12.25 6.76562L13.6562 7.46875L15.0625 6.76562V5.65625H12.25V6.76562ZM2.34375 8.53125C2.00312 8.35938 1.9 8.3125 1.89062 8.3125C1.88125 8.3125 1.875 9.83125 1.875 11.6875V15.0625H8.46875V14.0938H2.8125V9.40625H13.1875V15.0625H14.125C14.125 9.83125 14.1187 8.3125 14.1094 8.3125C14.1 8.3125 13.9937 8.35938 13.875 8.42188L13.6562 8.53125L11.7812 7.59375L9.90625 8.53125L8.00937 7.58125L6.09375 8.53125C4.64062 7.80312 4.21562 7.59375 4.20937 7.59375C4.20625 7.59688 3.78437 7.80625 3.27187 8.0625L2.34375 8.53125ZM3.75 13.1562H8.46875V10.3438H3.75V13.1562ZM9.40625 15.0625H12.25V14.0938H11.3125V13.1562H12.25V10.3438H9.40625V15.0625Z" fill="#ACB9CB"/>
</g>
<defs>
<clipPath id="clip0_545_4897">
<rect width="16" height="16" fill="white"/>
</clipPath>
</defs>
</svg>
