<svg width="16" height="16" viewBox="0 0 16 16" fill="none" xmlns="http://www.w3.org/2000/svg">
<g clip-path="url(#clip0_545_4900)">
<path fill-rule="evenodd" clip-rule="evenodd" d="M6.48414 1.00331C6.78414 1.00019 6.97789 1.01581 7.21852 1.06269C7.39977 1.10019 7.66852 1.16894 7.82164 1.22206C7.97164 1.27206 8.17477 1.35331 8.27164 1.40331C8.37164 1.45331 8.58102 1.57831 8.73414 1.68144C8.90914 1.79706 9.13414 1.99081 9.32789 2.19081C9.49977 2.36894 9.71227 2.62519 9.95289 3.00331L10.2091 3.00019C10.3529 3.00019 10.5779 3.01581 10.7091 3.03456C10.8435 3.05331 11.0654 3.10331 11.2029 3.14706C11.3404 3.19081 11.5654 3.28144 11.7029 3.35019C11.8404 3.41894 12.0373 3.53456 12.1404 3.60956C12.2435 3.68144 12.4404 3.85956 12.5779 4.00331C12.7154 4.14706 12.8716 4.33144 12.9216 4.41269C13.0123 4.55644 13.0185 4.56269 13.1248 4.53769C13.1841 4.52519 13.3873 4.51894 13.5779 4.52206C13.8498 4.52519 13.981 4.54394 14.2029 4.60956C14.356 4.65331 14.5748 4.74081 14.6873 4.80331C14.7998 4.86269 14.981 4.98769 15.0935 5.07519C15.206 5.16581 15.3779 5.34394 15.4748 5.47206C15.5716 5.60019 15.7029 5.80956 15.7623 5.93769C15.8216 6.06581 15.8998 6.28769 15.9341 6.42831C15.9779 6.59706 15.9998 6.78769 15.9998 6.97831C15.9998 7.17831 15.9779 7.35644 15.9279 7.56269C15.8873 7.72519 15.7935 7.97206 15.7248 8.10956C15.6529 8.24706 15.5279 8.44394 15.4435 8.54706C15.3623 8.65019 15.2029 8.80956 15.0904 8.90019C14.981 8.99081 14.7841 9.11894 14.656 9.18456C14.5279 9.25331 14.3091 9.34081 13.9216 9.45331H8.04664C3.25289 9.45331 2.13414 9.44706 1.96852 9.41269C1.85602 9.38769 1.65289 9.32519 1.51539 9.27206C1.37789 9.21894 1.16852 9.10956 1.04664 9.02831C0.924765 8.95019 0.74039 8.78769 0.631015 8.66894C0.50289 8.52831 0.381015 8.35019 0.28414 8.15644C0.18414 7.96269 0.10914 7.75331 0.0622652 7.54706C0.00289024 7.28456 -0.00648476 7.17831 0.00914024 6.89081C0.0185152 6.70019 0.0497652 6.45644 0.0778902 6.34394C0.10914 6.23144 0.18414 6.02831 0.249765 5.89081C0.312265 5.75331 0.43414 5.55019 0.518515 5.44081C0.60289 5.32831 0.762265 5.16269 0.874765 5.07206C0.987265 4.97831 1.19039 4.85019 1.32789 4.78144C1.46539 4.71269 1.69664 4.63144 1.84352 4.59706C1.99039 4.56269 2.20289 4.52831 2.53102 4.50019L2.54977 4.35019C2.55914 4.26894 2.59977 4.07519 2.64039 3.92206C2.68102 3.76581 2.76852 3.51581 2.83414 3.35956C2.89977 3.20331 3.03414 2.95644 3.13414 2.80331C3.23102 2.65331 3.42789 2.40956 3.57164 2.25956C3.71227 2.11269 3.93414 1.91269 4.06227 1.81581C4.19039 1.71894 4.43727 1.56894 4.60914 1.47831C4.78102 1.39081 5.02789 1.28144 5.15602 1.23769C5.28414 1.19081 5.54352 1.12206 5.73414 1.08144C5.98414 1.02831 6.18727 1.00644 6.48414 1.00331ZM5.37477 2.13769C5.26227 2.18456 5.08102 2.27206 4.96852 2.33769C4.85602 2.40019 4.66539 2.53144 4.54664 2.62831C4.42789 2.72519 4.24977 2.90019 4.15602 3.01269C4.06227 3.12831 3.92477 3.32206 3.84977 3.44706C3.77789 3.57206 3.67477 3.78769 3.62477 3.92831C3.57164 4.07206 3.50914 4.30956 3.48414 4.45956C3.45914 4.61269 3.43727 4.82519 3.43727 4.93769C3.43727 5.07519 3.41851 5.17519 3.38102 5.25019C3.34664 5.30956 3.27477 5.39081 3.21539 5.43144C3.15602 5.46894 3.06852 5.50019 3.01539 5.50019C2.96227 5.50019 2.81539 5.48456 2.68727 5.46581C2.50602 5.43769 2.39977 5.43769 2.21852 5.46894C2.08727 5.49081 1.89352 5.55644 1.78102 5.61269C1.66852 5.66581 1.49352 5.79394 1.39039 5.89706C1.25602 6.02206 1.16227 6.15331 1.07789 6.32831C0.962265 6.55644 0.95289 6.59706 0.94039 6.89081C0.931015 7.14081 0.94039 7.24706 0.993515 7.42206C1.03102 7.54081 1.11227 7.72519 1.18102 7.82831C1.24664 7.93144 1.35602 8.06269 1.42477 8.12206C1.49039 8.18144 1.59664 8.25956 1.65602 8.29706C1.71539 8.33456 1.84977 8.40019 1.95289 8.44081L2.14039 8.51581C11.2716 8.52831 13.6216 8.52206 13.7341 8.50331C13.8373 8.48769 13.9998 8.44706 14.0935 8.40956C14.1873 8.37519 14.3498 8.28769 14.4529 8.21269C14.5716 8.12519 14.6904 8.00019 14.7748 7.87519C14.8498 7.76269 14.9404 7.57206 14.9779 7.45331C15.0216 7.30956 15.0435 7.15019 15.0435 6.98456C15.0435 6.8179 15.0206 6.66165 14.9748 6.51581C14.9373 6.39706 14.8685 6.23456 14.8185 6.15644C14.7716 6.07831 14.6748 5.95956 14.606 5.89394C14.5404 5.82519 14.4216 5.72831 14.3435 5.68144C14.2654 5.63144 14.106 5.56269 13.9841 5.52519C13.8435 5.48144 13.6748 5.45956 13.5154 5.45644C13.3404 5.45644 13.1966 5.47519 13.0404 5.52519C12.8779 5.57519 12.7779 5.58769 12.6966 5.57206C12.631 5.55956 12.5373 5.51269 12.4873 5.46894C12.4404 5.42519 12.3529 5.30019 12.2935 5.18769C12.2373 5.07519 12.1216 4.90019 12.0373 4.79706C11.956 4.69394 11.8029 4.54081 11.7029 4.45956C11.5998 4.37519 11.4029 4.25331 11.2654 4.18456C11.1279 4.11894 10.931 4.04081 10.8279 4.01581C10.7248 3.98769 10.5279 3.95644 10.3904 3.94706C10.2466 3.93769 10.0341 3.94394 9.89039 3.96581C9.71539 3.99394 9.61227 3.99394 9.54664 3.97206C9.49664 3.95331 9.41539 3.90019 9.37164 3.85331C9.32789 3.80331 9.23727 3.66581 9.17164 3.54706C9.10602 3.42831 8.99664 3.25019 8.92477 3.15644C8.85602 3.06269 8.72789 2.91269 8.64039 2.82831C8.55602 2.74081 8.40602 2.61269 8.31227 2.54081C8.21852 2.47206 8.04977 2.36269 7.93727 2.30019C7.82477 2.24081 7.63414 2.15644 7.51539 2.11269C7.39664 2.07206 7.18727 2.01581 7.05289 1.98769C6.91227 1.95956 6.66852 1.93769 6.46227 1.94081C6.24977 1.94081 6.00289 1.96581 5.84352 1.99706C5.69664 2.02831 5.48727 2.09394 5.37477 2.13769ZM2.69352 10.5408C3.06539 10.5471 3.13102 10.5564 3.20602 10.6096C3.24977 10.6439 3.31539 10.7064 3.34977 10.7502C3.38414 10.7939 3.41539 10.8908 3.42477 10.9689C3.43727 11.0721 3.42477 11.1377 3.38102 11.2189C3.34664 11.2783 3.28102 11.3564 3.23727 11.3908C3.16227 11.4439 3.08727 11.4564 2.67789 11.4689C2.27477 11.4846 2.19039 11.4971 2.11227 11.5471C2.06227 11.5814 2.00289 11.6471 1.98102 11.6971C1.95602 11.7439 1.93727 11.8346 1.93727 11.9002C1.93727 11.9627 1.96539 12.0596 1.99664 12.1096C2.03102 12.1596 2.09664 12.2221 2.14664 12.2471C2.19352 12.2689 2.39039 12.3002 2.57789 12.3127C2.81852 12.3283 2.97789 12.3596 3.10914 12.4096C3.21227 12.4502 3.35914 12.5314 3.43727 12.5939C3.51539 12.6564 3.62477 12.7752 3.68102 12.8627C3.73727 12.9471 3.80914 13.0877 3.84039 13.1721C3.87477 13.2596 3.90914 13.4064 3.92164 13.5002C3.93414 13.6002 3.92789 13.7564 3.90602 13.8752C3.88414 13.9877 3.83414 14.1533 3.79352 14.2439C3.75289 14.3314 3.65289 14.4783 3.56852 14.5658C3.48727 14.6533 3.38102 14.7502 3.32789 14.7814C3.27477 14.8158 3.12789 14.8783 2.99977 14.9221C2.79039 14.9939 2.71852 15.0002 2.30289 15.0002C1.87789 15.0002 1.83414 14.9939 1.72789 14.9283C1.66227 14.8877 1.58414 14.8033 1.55289 14.7408C1.52477 14.6783 1.49977 14.5721 1.49977 14.5096C1.49977 14.4439 1.52789 14.3439 1.56227 14.2908C1.59664 14.2346 1.67164 14.1596 1.72477 14.1252C1.81539 14.0721 1.88414 14.0627 2.24039 14.0627C2.53727 14.0627 2.68102 14.0502 2.74039 14.0189C2.79039 13.9939 2.85914 13.9408 2.89977 13.9002C2.93727 13.8627 2.97789 13.7721 2.98727 13.7033C3.00289 13.6189 2.99039 13.5471 2.95602 13.4783C2.92789 13.4221 2.87477 13.3502 2.83414 13.3189C2.78414 13.2783 2.68102 13.2596 2.43727 13.2408C2.25602 13.2314 2.03102 13.1971 1.93727 13.1689C1.84352 13.1408 1.69352 13.0721 1.60914 13.0158C1.52164 12.9627 1.39977 12.8596 1.33414 12.7877C1.27164 12.7158 1.18727 12.5971 1.14977 12.5252C1.11539 12.4502 1.06539 12.3221 1.04352 12.2346C1.01852 12.1502 0.999765 11.9939 0.999765 11.8908C0.999765 11.7877 1.01539 11.6408 1.03414 11.5627C1.05289 11.4846 1.10602 11.3439 1.14977 11.2533C1.19664 11.1596 1.29977 11.0127 1.38102 10.9314C1.46539 10.8502 1.61852 10.7408 1.72477 10.6877C1.83414 10.6377 1.99977 10.5846 2.09352 10.5658C2.18727 10.5502 2.45914 10.5377 2.69352 10.5408ZM6.14039 10.5471C6.25914 10.5564 6.43102 10.5846 6.51539 10.6158C6.60289 10.6439 6.73414 10.7033 6.81227 10.7471C6.88727 10.7908 7.01539 10.8908 7.09352 10.9689C7.17164 11.0471 7.27789 11.1877 7.33414 11.2814C7.38727 11.3752 7.45289 11.5377 7.48102 11.6408C7.52164 11.7971 7.53102 12.0596 7.53102 13.2283C7.53102 14.4939 7.52477 14.6346 7.47789 14.7408C7.44664 14.8033 7.36852 14.8877 7.30602 14.9283C7.23414 14.9721 7.13727 15.0002 7.06227 15.0002C6.97789 15.0002 6.89664 14.9721 6.81227 14.9158C6.73414 14.8627 6.66852 14.7846 6.64039 14.7127C6.60602 14.6252 6.59352 14.4533 6.59352 13.5002H5.53102L5.52477 14.0908C5.51539 14.6377 5.50914 14.6908 5.44977 14.7721C5.41539 14.8189 5.33727 14.8908 5.27789 14.9314C5.21227 14.9752 5.12477 15.0002 5.05602 15.0002C4.98414 15.0002 4.88727 14.9689 4.81227 14.9221C4.74352 14.8783 4.66539 14.8002 4.64039 14.7502C4.59977 14.6721 4.59352 14.4346 4.59352 13.2283C4.59352 11.8908 4.59664 11.7846 4.65289 11.5939C4.68727 11.4814 4.76852 11.3064 4.83727 11.2033C4.90289 11.1002 5.01852 10.9658 5.09664 10.9033C5.17164 10.8408 5.28414 10.7627 5.34352 10.7283C5.40289 10.6939 5.52477 10.6439 5.61539 10.6189C5.70602 10.5939 5.81227 10.5658 5.84977 10.5533C5.89039 10.5439 6.02164 10.5408 6.14039 10.5471ZM5.70914 11.6221C5.65914 11.6658 5.59977 11.7408 5.57477 11.7908C5.54352 11.8471 5.53102 11.9846 5.53102 12.2189V12.5627H6.59352C6.59352 12.0533 6.57789 11.8689 6.55914 11.8221C6.54039 11.7721 6.49664 11.7002 6.45914 11.6596C6.42164 11.6189 6.33414 11.5596 6.26539 11.5283C6.19664 11.4971 6.10602 11.4721 6.06227 11.4721C6.01852 11.4721 5.94352 11.4877 5.89039 11.5064C5.83727 11.5252 5.75602 11.5752 5.70914 11.6221ZM9.90602 10.5346C9.96539 10.5346 10.106 10.5502 10.2185 10.5752C10.331 10.5971 10.4998 10.6564 10.5935 10.7033C10.6873 10.7533 10.8466 10.8689 10.9466 10.9658C11.0591 11.0721 11.1685 11.2189 11.231 11.3439C11.2873 11.4564 11.3498 11.6439 11.3716 11.7658C11.3966 11.9189 11.406 12.3846 11.3998 13.3346C11.3904 14.6471 11.3873 14.6846 11.3248 14.7721C11.2904 14.8189 11.2123 14.8908 11.1529 14.9314C11.0873 14.9752 10.9998 15.0002 10.9279 15.0002C10.8591 15.0002 10.7623 14.9689 10.6873 14.9221C10.6185 14.8783 10.5404 14.8002 10.5154 14.7502C10.4779 14.6783 10.4685 14.5283 10.4685 13.5002H9.37477V14.0783C9.37477 14.5283 9.36539 14.6783 9.32789 14.7502C9.30289 14.8002 9.22477 14.8783 9.15602 14.9221C9.08414 14.9658 8.98414 15.0002 8.92164 15.0002C8.86227 15.0002 8.77477 14.9814 8.72477 14.9564C8.67789 14.9314 8.60914 14.8783 8.57164 14.8377C8.53726 14.8002 8.49039 14.7096 8.47164 14.6408C8.44977 14.5596 8.43727 14.0721 8.43727 13.2658C8.43727 12.5752 8.45289 11.9189 8.47164 11.7971C8.48727 11.6752 8.54664 11.4877 8.59977 11.3752C8.66227 11.2471 8.76539 11.1033 8.88727 10.9846C8.99352 10.8814 9.15602 10.7564 9.24977 10.7064C9.34352 10.6564 9.50602 10.5971 9.60914 10.5752C9.71227 10.5533 9.84664 10.5346 9.90602 10.5346ZM9.61227 11.5814C9.56539 11.6127 9.49352 11.6908 9.45914 11.7502C9.40289 11.8439 9.39039 11.9096 9.39039 12.2033V12.5471H10.4529C10.4685 12.1346 10.456 11.9533 10.4341 11.8752C10.4154 11.7971 10.356 11.6908 10.2998 11.6377C10.2466 11.5846 10.1466 11.5252 10.0779 11.5033C10.0091 11.4846 9.93102 11.4689 9.90602 11.4721C9.88102 11.4721 9.82477 11.4846 9.78102 11.4971C9.73727 11.5096 9.66227 11.5471 9.61227 11.5814ZM13.6873 10.5346C13.8841 10.5346 14.0966 10.5439 14.156 10.5596C14.2154 10.5752 14.3091 10.6377 14.3623 10.6939C14.4248 10.7596 14.4654 10.8471 14.481 10.9377C14.4998 11.0533 14.4904 11.1033 14.431 11.2158C14.3873 11.2971 14.3154 11.3752 14.2498 11.4096C14.1591 11.4596 14.0716 11.4689 13.7404 11.4689C13.4841 11.4689 13.306 11.4846 13.2404 11.5096C13.1873 11.5314 13.1091 11.5971 13.0685 11.6502C13.0248 11.7127 12.9998 11.7971 12.9998 11.8752C12.9998 11.9439 13.0185 12.0377 13.0435 12.0877C13.0654 12.1346 13.1248 12.2002 13.1748 12.2314C13.2435 12.2752 13.3529 12.2971 13.6248 12.3127C13.8529 12.3283 14.0404 12.3596 14.1404 12.3971C14.2248 12.4283 14.3716 12.5096 14.4654 12.5783C14.5591 12.6471 14.6779 12.7658 14.7279 12.8439C14.781 12.9221 14.8498 13.0408 14.881 13.1096C14.9091 13.1783 14.9466 13.3252 14.9623 13.4377C14.981 13.5596 14.981 13.7221 14.9654 13.8439C14.9498 13.9564 14.8966 14.1314 14.8498 14.2346C14.7998 14.3377 14.7123 14.4783 14.6529 14.5439C14.5935 14.6096 14.4841 14.7064 14.406 14.7596C14.3279 14.8127 14.1685 14.8877 14.0466 14.9283C13.856 14.9908 13.7685 15.0002 13.3591 15.0002C12.9123 15.0002 12.8841 14.9971 12.7716 14.9221C12.7091 14.8783 12.6341 14.8002 12.6091 14.7502C12.5841 14.7002 12.5623 14.5971 12.5623 14.5252C12.5623 14.4471 12.5873 14.3502 12.6248 14.2908C12.6591 14.2346 12.7341 14.1596 12.7873 14.1252C12.8779 14.0721 12.9466 14.0627 13.2873 14.0627C13.5466 14.0627 13.7216 14.0471 13.7873 14.0221C13.8435 13.9971 13.9216 13.9377 13.9623 13.8877C13.9998 13.8377 14.0404 13.7533 14.0498 13.7033C14.0591 13.6502 14.0466 13.5596 14.0185 13.4939C13.9904 13.4252 13.9248 13.3502 13.8654 13.3158C13.7935 13.2721 13.681 13.2502 13.4685 13.2377C13.306 13.2283 13.081 13.1939 12.9685 13.1596C12.856 13.1252 12.6966 13.0471 12.6091 12.9814C12.5216 12.9158 12.4185 12.8221 12.3748 12.7689C12.331 12.7189 12.2716 12.6377 12.2404 12.5877C12.2123 12.5408 12.1591 12.4158 12.1248 12.3127C12.0873 12.1971 12.0623 12.0408 12.0623 11.9002C12.0623 11.7627 12.0841 11.5908 12.1216 11.4689C12.156 11.3502 12.2404 11.1877 12.3185 11.0783C12.3935 10.9752 12.5248 10.8471 12.6123 10.7908C12.6966 10.7346 12.8185 10.6689 12.881 10.6439C12.9466 10.6158 13.0748 10.5814 13.1623 10.5658C13.2529 10.5502 13.4904 10.5377 13.6873 10.5346Z" fill="#ACB9CB"/>
</g>
<defs>
<clipPath id="clip0_545_4900">
<rect width="16" height="16" fill="white"/>
</clipPath>
</defs>
</svg>
