<svg width="17" height="18" viewBox="0 0 17 18" fill="none" xmlns="http://www.w3.org/2000/svg">
<path d="M10.5928 4.3781L11.6393 5.44477L13.3835 3.66699" stroke="#ACB9CB" stroke-width="1.06667"/>
<path fill-rule="evenodd" clip-rule="evenodd" d="M5.70908 2.95551C5.70908 3.9372 4.92803 4.73329 3.96489 4.73329C3.0014 4.73329 2.2207 3.9372 2.2207 2.95551C2.2207 1.97347 3.0014 1.17773 3.96489 1.17773C4.92803 1.17773 5.70908 1.97347 5.70908 2.95551Z" stroke="#ACB9CB" stroke-width="1.06667"/>
<path fill-rule="evenodd" clip-rule="evenodd" d="M1.17432 6.86638V12.1997H2.56967V16.8219H5.36036V12.1997H6.75571V6.86638C6.75571 6.4735 6.44315 6.15527 6.05804 6.15527H1.87199C1.48687 6.15527 1.17432 6.4735 1.17432 6.86638Z" stroke="#ACB9CB" stroke-width="1.06667"/>
<path d="M2.56993 12.2001V8.64453" stroke="#ACB9CB" stroke-width="1.06667"/>
<path d="M5.36045 12.2001V8.64453" stroke="#ACB9CB" stroke-width="1.06667"/>
<path d="M3.96495 16.8225V11.8447" stroke="#ACB9CB" stroke-width="1.06667"/>
<path fill-rule="evenodd" clip-rule="evenodd" d="M8.15137 1.88867V7.57756H9.19788V9.71089L11.2909 7.57756H15.8258V1.88867H8.15137Z" stroke="#ACB9CB" stroke-width="1.06667" stroke-linejoin="round"/>
</svg>
