<svg width="16" height="16" viewBox="0 0 16 16" fill="none" xmlns="http://www.w3.org/2000/svg">
<g clip-path="url(#clip0_545_4903)">
<path fill-rule="evenodd" clip-rule="evenodd" d="M7.95312 0.00337858C8.44063 0.000253583 8.675 0.0127536 9.01562 0.0627536C9.25625 0.100254 9.6375 0.172129 9.85938 0.225254C10.0813 0.278379 10.4062 0.369004 10.5781 0.428379C10.75 0.487754 10.975 0.572129 11.0781 0.615879C11.1812 0.659629 11.4187 0.772129 11.6094 0.865879C11.8 0.962754 12.0875 1.12213 12.5469 1.41275L12.525 1.26275C12.5125 1.17838 12.4906 1.00025 12.4531 0.631504L12.5625 0.612754C12.6219 0.603379 12.825 0.581504 13.0156 0.562753C13.2063 0.544004 13.3688 0.537754 13.3781 0.553379C13.3875 0.565879 13.4531 1.10963 13.5188 1.7565C13.5875 2.40338 13.6344 2.94088 13.625 2.95025C13.6156 2.95963 13.075 3.02213 12.4219 3.08775C11.7688 3.1565 11.225 3.20338 11.2156 3.19088C11.2031 3.1815 11.175 2.97213 11.1531 2.72838C11.1281 2.4815 11.1156 2.2815 11.125 2.2815C11.1344 2.2815 11.325 2.25963 11.5469 2.23463C11.7688 2.20963 11.9594 2.1815 11.9688 2.17213C11.9781 2.16588 11.8938 2.10025 11.7812 2.0315C11.6687 1.95963 11.375 1.80025 11.125 1.67525C10.8687 1.54713 10.4781 1.38775 10.225 1.30338C9.98125 1.22213 9.60938 1.12213 9.4 1.0815C9.1875 1.03775 8.8625 0.987754 8.67188 0.972129C8.48125 0.953378 8.1875 0.937753 8.01562 0.937753C7.84375 0.937753 7.55 0.953378 7.35938 0.969003C7.16875 0.987754 6.8625 1.0315 6.67188 1.06588C6.48125 1.10338 6.16875 1.17838 5.975 1.23775C5.78437 1.29713 5.51562 1.38775 5.38438 1.44088C5.25 1.494 5.00312 1.6065 4.83437 1.69088C4.66875 1.77525 4.41563 1.91588 4.275 2.00338C4.13125 2.09088 3.89062 2.25963 3.73438 2.37525C3.57812 2.49088 3.3125 2.719 3.14375 2.87838C2.975 3.04088 2.72188 3.3065 2.5875 3.469C2.45 3.6315 2.25 3.90025 2.14062 4.06275C2.03125 4.22525 1.875 4.48775 1.79062 4.64088C1.70625 4.794 1.58125 5.0565 1.50937 5.219C1.44062 5.3815 1.33125 5.67525 1.26875 5.869C1.20625 6.05963 1.12187 6.39088 1.08125 6.60025C1.0375 6.81275 0.9875 7.14713 0.971875 7.344C0.953125 7.54088 0.9375 7.844 0.9375 8.01588C0.9375 8.18775 0.953125 8.4815 0.971875 8.67213C0.9875 8.86275 1.0375 9.18775 1.08125 9.40025C1.12187 9.60963 1.21875 9.97525 1.29688 10.2096C1.375 10.4471 1.525 10.8159 1.62812 11.0315C1.73125 11.2471 1.8875 11.5378 1.97187 11.6815C2.05625 11.8221 2.12188 11.944 2.11875 11.9503C2.1125 11.9565 1.94062 12.0753 1.35938 12.469L1.225 12.2596C1.15 12.1409 0.975 11.8159 0.83125 11.5315C0.665625 11.1971 0.51875 10.844 0.415625 10.5315C0.328125 10.2659 0.228125 9.91275 0.19375 9.75025C0.15625 9.58775 0.1 9.25338 0.065625 9.0065C0.01875 8.69713 0 8.40025 0 8.02525C0 7.669 0.01875 7.3315 0.059375 7.0315C0.09375 6.7815 0.15625 6.40963 0.203125 6.20338C0.25 5.99713 0.35 5.65338 0.421875 5.43775C0.496875 5.22213 0.621875 4.90025 0.703125 4.719C0.78125 4.53775 0.91875 4.26275 1.00625 4.10963C1.09375 3.95338 1.24688 3.70963 1.34375 3.56275C1.44062 3.41588 1.63437 3.1565 1.77188 2.98463C1.90938 2.81275 2.18438 2.51275 2.37812 2.32213C2.575 2.12838 2.8625 1.869 3.01562 1.74713C3.17188 1.62213 3.41563 1.44088 3.5625 1.344C3.70937 1.244 3.96875 1.08775 4.14062 0.990879C4.3125 0.894004 4.61562 0.747129 4.8125 0.662754C5.00938 0.578379 5.34688 0.450254 5.5625 0.381504C5.77812 0.312754 6.1 0.225254 6.28125 0.184629C6.4625 0.147129 6.77187 0.0908786 6.96875 0.0627536C7.20312 0.0283786 7.54375 0.00650358 7.95312 0.00337858ZM14.6375 3.5315L14.775 3.74088C14.8469 3.85963 15.025 4.18463 15.1687 4.469C15.3344 4.80338 15.4813 5.1565 15.5844 5.469C15.6719 5.73463 15.7719 6.08775 15.8062 6.25025C15.8438 6.41275 15.9 6.74713 15.9344 6.99088C15.9812 7.3065 16 7.59713 16 7.97525C16 8.2815 15.9781 8.67838 15.9531 8.89088C15.925 9.09713 15.8687 9.43463 15.8281 9.64088C15.7875 9.84713 15.6937 10.2003 15.6219 10.4221C15.55 10.644 15.4219 10.9909 15.3375 11.1878C15.2531 11.3846 15.1062 11.6878 15.0094 11.8596C14.9125 12.0315 14.7563 12.2909 14.6562 12.4378C14.5594 12.5846 14.3781 12.8315 14.2531 12.9846C14.1313 13.1378 13.8719 13.4253 13.6781 13.6221C13.4875 13.8159 13.1875 14.0909 13.0156 14.2284C12.8438 14.3659 12.55 14.5815 12.3594 14.7065C12.1687 14.8284 11.8687 15.0065 11.6875 15.1034C11.5063 15.1971 11.1906 15.3409 10.9844 15.4253C10.7781 15.5065 10.4469 15.619 10.25 15.6784C10.0531 15.7346 9.75 15.8096 9.57812 15.8409C9.40625 15.8753 9.10312 15.9253 8.90625 15.9534C8.63437 15.9909 8.3875 16.0003 7.89062 15.9909C7.41875 15.9815 7.11562 15.9596 6.8125 15.9128C6.58125 15.8753 6.2 15.794 5.96875 15.7315C5.7375 15.6721 5.4125 15.5721 5.25 15.5128C5.0875 15.4503 4.75625 15.3065 4.51562 15.1909C4.275 15.0753 3.9375 14.8909 3.45312 14.5878L3.475 14.7378C3.4875 14.8221 3.50938 14.9971 3.54688 15.369L3.45312 15.3846C3.4 15.3971 3.19688 15.419 3 15.4378C2.80312 15.4565 2.63125 15.4596 2.62188 15.4471C2.6125 15.4346 2.54688 14.8909 2.48125 14.244C2.4125 13.5971 2.36562 13.0596 2.375 13.0503C2.38438 13.044 2.925 12.9815 3.57812 12.9128C4.23125 12.844 4.775 12.7971 4.78438 12.8096C4.79688 12.819 4.825 13.0284 4.84688 13.2721C4.87188 13.519 4.88438 13.719 4.875 13.719C4.86562 13.719 4.67812 13.7409 4.45312 13.7659C4.22813 13.794 4.04063 13.819 4.03125 13.8284C4.02187 13.8346 4.10625 13.9003 4.21875 13.969C4.33125 14.0409 4.61875 14.194 4.85938 14.3128C5.1 14.4315 5.4375 14.5815 5.60938 14.644C5.78125 14.7034 6.05625 14.7909 6.21875 14.8315C6.38125 14.8753 6.68437 14.9378 6.89062 14.9721C7.09688 15.0034 7.475 15.0409 7.73438 15.0503C8.00937 15.0628 8.36875 15.0565 8.60938 15.0346C8.83125 15.0128 9.19063 14.9628 9.40625 14.919C9.62187 14.8753 9.99375 14.7753 10.2344 14.694C10.475 14.6159 10.875 14.4503 11.125 14.3253C11.375 14.2003 11.725 14.0003 11.9062 13.8815C12.0875 13.7596 12.3687 13.5503 12.5312 13.4159C12.6938 13.2784 12.9594 13.0253 13.1219 12.8565C13.2812 12.6878 13.5094 12.419 13.625 12.2659C13.7406 12.1128 13.9125 11.8659 14.0031 11.719C14.0938 11.5721 14.2563 11.269 14.3656 11.0471C14.4719 10.8253 14.625 10.4471 14.7031 10.2096C14.7812 9.97525 14.8781 9.60963 14.9187 9.39713C14.9625 9.18775 15.0125 8.85338 15.0281 8.6565C15.0469 8.45963 15.0625 8.1565 15.0625 7.98463C15.0625 7.81275 15.0469 7.519 15.0281 7.32838C15.0125 7.13775 14.9625 6.81275 14.9187 6.60025C14.8781 6.39088 14.7812 6.02525 14.7031 5.78775C14.625 5.55338 14.475 5.18463 14.3719 4.969C14.2688 4.75338 14.1094 4.45963 14.0219 4.31588C13.8875 4.10025 13.8687 4.05025 13.9062 4.02838C13.9312 4.01588 14.1062 3.89713 14.2969 3.769L14.6375 3.5315ZM10.075 5.844H10.4594C10.6688 5.844 10.8406 5.85338 10.8406 5.86588C10.8406 5.87838 10.5063 6.84713 9.35 10.1409L8.55937 10.1565L8.68125 9.819C8.75 9.63463 9.09062 8.66588 9.44063 7.66275L10.075 5.844ZM3.79375 6.44088C4.02187 6.43775 4.1625 6.45338 4.30937 6.50025C4.42188 6.5315 4.58125 6.6065 4.66563 6.66275C4.75 6.719 4.85938 6.82838 4.90625 6.9065C4.95625 6.98463 5.0125 7.119 5.03125 7.20338C5.05312 7.29088 5.05937 7.43463 5.04688 7.5315C5.0375 7.62525 4.9875 7.78775 4.9375 7.89088C4.86875 8.02838 4.75625 8.169 4.50625 8.41275C4.32188 8.594 4.1125 8.79088 3.925 8.95338L5.1375 8.98463V9.70338L2.65313 9.719L2.65937 9.10963L3.3 8.51588C3.65313 8.19088 3.98438 7.85963 4.03438 7.7815C4.09688 7.68463 4.12187 7.60338 4.12187 7.50963C4.12187 7.43463 4.10938 7.34713 4.09062 7.31275C4.075 7.27838 4.00938 7.22838 3.95 7.20338C3.89062 7.17838 3.79688 7.1565 3.74062 7.1565C3.68437 7.1565 3.58437 7.17213 3.52187 7.18775C3.45625 7.2065 3.34375 7.27525 3.1375 7.46588L2.81875 7.28775C2.64062 7.19088 2.49688 7.094 2.49688 7.07213C2.49688 7.05025 2.57187 6.9565 2.6625 6.86588C2.75312 6.77213 2.9 6.65963 2.99062 6.61588C3.08125 6.569 3.22812 6.51275 3.31875 6.48775C3.40937 6.46275 3.62188 6.44088 3.79375 6.44088ZM6.88125 6.50025H7.80937L7.75625 6.58775C7.72813 6.63463 7.44688 7.04088 7.13125 7.494C6.81875 7.944 6.55937 8.32838 6.55937 8.344C6.55937 8.36275 6.68437 8.37525 7.18437 8.37525V7.81275H8.02812V8.37525H8.52812L8.5125 9.07838L8.02812 9.094V9.719H7.15312V9.094H5.43437V8.51588L6.88125 6.50025ZM10.8406 6.50025H13.5281V7.04713L12.3875 9.70338L11.8969 9.71275C11.625 9.71588 11.4031 9.71275 11.4031 9.70338C11.4031 9.694 11.6375 9.15025 11.9219 8.494C12.2094 7.83463 12.4469 7.2815 12.4531 7.25963C12.4625 7.22838 12.3687 7.219 11.6219 7.219V7.719L10.8562 7.70338L10.8406 6.50025Z" fill="#ACB9CB"/>
</g>
<defs>
<clipPath id="clip0_545_4903">
<rect width="16" height="16" fill="white"/>
</clipPath>
</defs>
</svg>
