<svg width="16" height="16" viewBox="0 0 16 16" fill="none" xmlns="http://www.w3.org/2000/svg">
<path fill-rule="evenodd" clip-rule="evenodd" d="M6.49023 0C6.14502 0 5.86523 0.279785 5.86523 0.625V3.03894C2.59229 3.35388 0 6.10889 0 9.50403C0 13.0859 2.91577 16 6.49976 16C9.87256 16 12.6532 13.4188 12.9689 10.129H15.375C15.7202 10.129 16 9.84924 16 9.50403C16 4.25122 11.7467 0 6.49023 0ZM6.49976 14.7505C3.60498 14.7505 1.25 12.3971 1.25 9.50452C1.25 6.81677 3.26904 4.60742 5.86523 4.29688V9.50452C5.86523 9.84973 6.14502 10.1295 6.49023 10.1295H11.7117C11.4015 12.7286 9.18262 14.7505 6.49976 14.7505ZM7.11523 1.27344V8.87939H14.7268C14.4235 4.802 11.1616 1.5741 7.11523 1.27344Z" fill="#ACB9CB"/>
</svg>
