<svg width="16" height="16" viewBox="0 0 16 16" fill="none" xmlns="http://www.w3.org/2000/svg">
<g clip-path="url(#clip0_545_4914)">
<path fill-rule="evenodd" clip-rule="evenodd" d="M7.85938 0.00326921C8.13125 0.00014421 8.39062 0.0188942 8.54688 0.0470192C8.68437 0.0751442 8.90312 0.125144 9.03125 0.159519C9.15938 0.193894 9.37813 0.268894 9.51562 0.328269C9.65312 0.384519 9.89375 0.506394 10.0469 0.597019C10.2 0.687644 10.45 0.865769 10.6031 0.990769C10.7531 1.11577 10.9031 1.26577 10.9375 1.32202C10.975 1.38139 11 1.47827 11 1.56264C11 1.65952 10.9781 1.73764 10.9312 1.81264C10.8906 1.87202 10.8094 1.94702 10.75 1.97514C10.6906 2.00639 10.5938 2.03139 10.5375 2.03139C10.4844 2.03139 10.3938 2.00952 10.3438 1.98452C10.2937 1.95952 10.1625 1.85952 10.0531 1.76264C9.94688 1.66577 9.79062 1.54077 9.70312 1.48452C9.61563 1.42827 9.42813 1.32202 9.28125 1.25327C9.13437 1.18139 8.875 1.08764 8.70312 1.04077C8.425 0.968894 8.33438 0.959519 7.89062 0.959519C7.44688 0.959519 7.35625 0.968894 7.07812 1.04077C6.90625 1.08764 6.64687 1.18139 6.5 1.25327C6.35313 1.32202 6.1625 1.42827 6.07812 1.48452C5.99062 1.54077 5.83437 1.66577 5.725 1.76264C5.61875 1.85952 5.49062 1.95952 5.4375 1.98452C5.38438 2.00952 5.29688 2.03139 5.24062 2.03139C5.1875 2.03139 5.09062 2.00639 5.03125 1.97514C4.97188 1.94702 4.89062 1.87202 4.85 1.81264C4.80312 1.74077 4.78125 1.65639 4.78125 1.57202C4.78125 1.49702 4.8 1.40014 4.825 1.35327C4.84687 1.30327 4.95625 1.18764 5.06563 1.09077C5.175 0.993894 5.35625 0.850144 5.46875 0.768894C5.58125 0.687644 5.825 0.543894 6.01562 0.447019C6.20625 0.353269 6.47188 0.243894 6.60938 0.200144C6.74687 0.156394 6.9875 0.0970192 7.14062 0.0657692C7.33125 0.0251442 7.5625 0.00639421 7.85938 0.00326921ZM2.8125 2.70014C2.89062 2.70952 2.9875 2.74077 3.03125 2.77514C3.075 2.80639 3.1375 2.88139 3.17188 2.94077C3.22813 3.03764 3.23438 3.11264 3.25 4.43764L3.55938 4.44702C3.81875 4.45327 3.88437 4.46264 3.95937 4.51889C4.00625 4.55639 4.075 4.63139 4.10938 4.69077C4.16563 4.78764 4.17188 4.86264 4.1875 6.31264H4.67188C5.09375 6.31264 5.17188 6.32202 5.28125 6.37514C5.36458 6.41681 5.42708 6.47931 5.46875 6.56264C5.52187 6.66889 5.53125 6.75014 5.53125 7.56264H9.1875V6.33764C9.1875 5.20014 9.19063 5.10014 9.24687 5.00014C9.27812 4.94077 9.35938 4.85952 9.425 4.82202C9.49063 4.78139 9.57812 4.75014 9.61563 4.75014C9.65625 4.75014 11.0188 4.96264 12.6469 5.21889C14.7625 5.55327 15.6469 5.70639 15.7406 5.75014C15.8375 5.79389 15.8938 5.85014 15.9375 5.93764C16 6.05952 16 6.12514 16 10.8439C16 15.4376 15.9969 15.6283 15.9406 15.7439C15.9094 15.8064 15.8313 15.8908 15.6562 16.0001H0.34375L0.23125 15.9283C0.16875 15.8908 0.090625 15.8064 0.059375 15.7408C0.003125 15.6283 0 15.447 0 6.65639L0.06875 6.54389C0.109375 6.48139 0.19375 6.40327 0.25625 6.37202C0.35625 6.32202 0.45 6.31264 1.34375 6.31264L1.35312 5.55327C1.35938 4.86264 1.36563 4.78764 1.42188 4.69077C1.45625 4.63139 1.525 4.55639 1.57187 4.51889C1.64688 4.46264 1.7125 4.45327 2.28125 4.43764V3.81889C2.28125 3.48139 2.29688 3.14702 2.3125 3.07827C2.32812 3.00952 2.36875 2.91889 2.4 2.87514C2.43125 2.83139 2.50625 2.77202 2.56562 2.74077C2.64062 2.70014 2.7125 2.68764 2.8125 2.70014ZM2.3125 6.31264H3.21875V5.37514H2.3125V6.31264ZM10.125 7.56264C10.75 7.56264 10.8344 7.57514 10.9375 7.62514C11.0208 7.66681 11.0833 7.72931 11.125 7.81264C11.1875 7.93452 11.1875 8.00014 11.1875 11.5001V15.0626H15.0625V6.56264C14.9531 6.53764 13.8594 6.36264 12.5625 6.15639C11.2656 5.95014 10.1844 5.78139 10.1625 5.78139C10.1344 5.78139 10.125 5.98139 10.125 6.67202V7.56264ZM0.9375 8.18764C2.59375 8.18764 2.66563 8.19077 2.78125 8.25014C2.86458 8.29181 2.92708 8.35431 2.96875 8.43764C3.00312 8.50639 3.03125 8.60639 3.03125 8.65639C3.03125 8.70639 3.00312 8.80639 2.96875 8.87514C2.92708 8.95848 2.86458 9.02098 2.78125 9.06264C2.66563 9.12202 2.59375 9.12514 1.79688 9.12514H0.9375V10.0626C2.59375 10.0626 2.66563 10.0658 2.78125 10.1251C2.86458 10.1668 2.92708 10.2293 2.96875 10.3126C3.00312 10.3814 3.03125 10.4814 3.03125 10.5314C3.03125 10.5814 3.00312 10.6814 2.96875 10.7501C2.92708 10.8335 2.86458 10.896 2.78125 10.9376C2.66563 10.997 2.59375 11.0001 1.79688 11.0001H0.9375V11.9376C2.59375 11.9376 2.66563 11.9408 2.78125 12.0001C2.86458 12.0418 2.92708 12.1043 2.96875 12.1876C3.00312 12.2564 3.03125 12.3564 3.03125 12.4064C3.03125 12.4564 3.00312 12.5564 2.96875 12.6251C2.92708 12.7085 2.86458 12.771 2.78125 12.8126C2.66563 12.872 2.59375 12.8751 1.79688 12.8751H0.9375V15.0626H4.59375V7.25014H0.9375V8.18764ZM5.53125 15.0626H6.46875C6.48438 13.6126 6.49062 13.5376 6.54688 13.4408C6.58125 13.3814 6.65 13.3064 6.69688 13.2689C6.78438 13.2064 6.81563 13.2033 7.89062 13.2033C8.96562 13.2033 8.99688 13.2064 9.08438 13.2689C9.13125 13.3064 9.2 13.3814 9.23438 13.4408C9.29062 13.5376 9.29688 13.6126 9.30313 14.3033L9.3125 15.0626H10.25V8.50014H5.53125V15.0626ZM7.4375 15.0626H8.34375V14.1251H7.4375V15.0626ZM7.98438 1.89077C8.22188 1.89702 8.39688 1.92202 8.54688 1.96889C8.66875 2.00639 8.87187 2.09077 9 2.15639C9.1375 2.22827 9.32188 2.35952 9.44375 2.47514C9.6125 2.63452 9.65625 2.69702 9.675 2.79702C9.68437 2.86577 9.68125 2.97202 9.65938 3.04077C9.64062 3.10327 9.58125 3.19077 9.53125 3.23452C9.48125 3.27827 9.39062 3.32514 9.33438 3.34077C9.28125 3.35639 9.18437 3.35952 9.125 3.34702C9.06563 3.33452 8.93125 3.25639 8.82812 3.17514C8.725 3.09077 8.5875 2.99702 8.52188 2.96577C8.45938 2.93139 8.31875 2.88452 8.20938 2.85639C8.07812 2.82202 7.94688 2.80952 7.79688 2.82202C7.675 2.83139 7.49375 2.87202 7.39062 2.90952C7.2875 2.95014 7.125 3.04389 7.03125 3.11577C6.9375 3.19077 6.83125 3.27202 6.79688 3.30014C6.7625 3.32514 6.67188 3.34702 6.59375 3.35014C6.50313 3.35327 6.41563 3.33452 6.34688 3.29389C6.2875 3.26264 6.2125 3.19389 6.175 3.14702C6.12813 3.08139 6.10938 3.01264 6.10938 2.89077C6.10938 2.76889 6.12813 2.70014 6.175 2.63452C6.20938 2.58764 6.32188 2.48139 6.425 2.39702C6.525 2.31577 6.7 2.20014 6.8125 2.14389C6.925 2.08764 7.09375 2.01577 7.1875 1.98452C7.28125 1.95327 7.42188 1.91889 7.5 1.90327C7.57812 1.89077 7.79375 1.88452 7.98438 1.89077ZM7.89687 3.75014C7.95312 3.75014 8.05625 3.77827 8.125 3.81264C8.20833 3.85431 8.27083 3.91681 8.3125 4.00014C8.34688 4.06889 8.375 4.16577 8.375 4.21889C8.375 4.27202 8.34688 4.36889 8.3125 4.43764C8.27083 4.52098 8.20833 4.58348 8.125 4.62514C8.05625 4.65952 7.95625 4.68764 7.90625 4.68764C7.85313 4.68764 7.75625 4.65952 7.6875 4.62514C7.60417 4.58348 7.54167 4.52098 7.5 4.43764C7.46562 4.36889 7.4375 4.27202 7.4375 4.21889C7.4375 4.16577 7.46562 4.06889 7.5 4.00014C7.54063 3.92202 7.60625 3.85327 7.67812 3.81264C7.74375 3.78139 7.84375 3.75327 7.89687 3.75014ZM12.5844 7.12514C12.6406 7.12514 12.7437 7.15327 12.8125 7.18764C12.8958 7.22931 12.9583 7.29181 13 7.37514C13.0625 7.49702 13.0625 7.56264 13.0625 10.1564C13.0625 12.7501 13.0625 12.8158 13 12.9376C12.9583 13.021 12.8958 13.0835 12.8125 13.1251C12.7437 13.1595 12.6438 13.1876 12.5938 13.1876C12.5437 13.1876 12.4438 13.1595 12.375 13.1251C12.2917 13.0835 12.2292 13.021 12.1875 12.9376C12.125 12.8158 12.125 12.7501 12.125 10.1564C12.125 7.56264 12.125 7.49702 12.1875 7.37514C12.2281 7.29702 12.2938 7.22827 12.3656 7.18764C12.4313 7.15639 12.5312 7.12827 12.5844 7.12514ZM7.89687 9.43764C8.875 9.43764 8.94375 9.44077 9.0625 9.50014C9.14583 9.54181 9.20833 9.60431 9.25 9.68764C9.28438 9.75639 9.3125 9.85639 9.3125 9.90639C9.3125 9.95639 9.28438 10.0564 9.25 10.1251C9.20833 10.2085 9.14583 10.271 9.0625 10.3126C8.94375 10.372 8.875 10.3751 7.90625 10.3751C6.9375 10.3751 6.86875 10.372 6.75 10.3126C6.66667 10.271 6.60417 10.2085 6.5625 10.1251C6.52812 10.0564 6.5 9.95639 6.5 9.90639C6.5 9.85639 6.52812 9.75639 6.5625 9.68764C6.60313 9.60952 6.66875 9.54077 6.74062 9.50014C6.85 9.44389 6.92812 9.44077 7.89687 9.43764ZM7.89687 11.3126C8.875 11.3126 8.94375 11.3158 9.0625 11.3751C9.14583 11.4168 9.20833 11.4793 9.25 11.5626C9.28438 11.6314 9.3125 11.7314 9.3125 11.7814C9.3125 11.8314 9.28438 11.9314 9.25 12.0001C9.20833 12.0835 9.14583 12.146 9.0625 12.1876C8.94375 12.247 8.875 12.2501 7.90625 12.2501C6.9375 12.2501 6.86875 12.247 6.75 12.1876C6.66667 12.146 6.60417 12.0835 6.5625 12.0001C6.52812 11.9314 6.5 11.8314 6.5 11.7814C6.5 11.7314 6.52812 11.6314 6.5625 11.5626C6.60313 11.4845 6.66875 11.4158 6.74062 11.3751C6.85 11.3189 6.92812 11.3158 7.89687 11.3126Z" fill="#ACB9CB"/>
</g>
<defs>
<clipPath id="clip0_545_4914">
<rect width="16" height="16" fill="white"/>
</clipPath>
</defs>
</svg>
