<svg width="16" height="16" viewBox="0 0 16 16" fill="none" xmlns="http://www.w3.org/2000/svg">
<g clip-path="url(#clip0_545_4917)">
<path fill-rule="evenodd" clip-rule="evenodd" d="M7.98438 0.00326227C8.21562 0.000137265 8.35312 0.0188873 8.51562 0.0657623C8.6375 0.103262 8.83125 0.181387 8.95312 0.243887C9.1 0.318887 9.25313 0.437637 9.425 0.609512C9.625 0.806387 9.70625 0.915762 9.80937 1.12514C9.88125 1.27201 9.95938 1.49076 9.98438 1.60951C10.0094 1.73139 10.0312 1.91889 10.0312 2.03139C10.0312 2.14389 10.0094 2.33451 9.98438 2.45326C9.95625 2.57201 9.9 2.75014 9.85625 2.84389C9.8125 2.93764 9.73125 3.08451 9.67813 3.16576C9.62188 3.24701 9.58438 3.31889 9.59375 3.32201C9.60312 3.32826 9.71562 3.39701 9.84375 3.47826C9.97188 3.55639 10.1719 3.71576 10.2875 3.83451C10.4 3.95014 10.5437 4.12514 10.6031 4.21889C10.6625 4.31264 10.7437 4.46889 10.7812 4.56264C10.8188 4.65639 10.8719 4.80326 10.8969 4.89076C10.9281 4.99076 10.95 5.25326 10.9594 5.60951C10.975 6.14076 10.9719 6.17826 10.9094 6.30639C10.8656 6.39701 10.8031 6.45639 10.7188 6.50014C10.6 6.55951 10.5312 6.56264 8.46875 6.56264V8.57826L8.63125 8.65326C8.72813 8.69701 8.875 8.80951 8.98438 8.91889C9.0875 9.02514 9.20625 9.17826 9.24687 9.26576C9.29062 9.35014 9.34688 9.51889 9.42188 9.85639L11.2656 10.4345L11.3281 10.3501C11.3625 10.3033 11.4937 10.1595 11.625 10.0283C11.8062 9.84701 11.9187 9.76264 12.125 9.66264C12.2719 9.58764 12.4875 9.50951 12.6094 9.48451C12.7312 9.45951 12.9187 9.43764 13.0312 9.43764C13.1438 9.43764 13.3313 9.45951 13.4531 9.48451C13.575 9.50951 13.7906 9.58764 13.9375 9.65951C14.1469 9.76264 14.2563 9.84701 14.4563 10.0439C14.6531 10.2439 14.7375 10.3533 14.8406 10.5626C14.9125 10.7095 14.9906 10.9251 15.0156 11.047C15.0406 11.1689 15.0625 11.3564 15.0625 11.4689C15.0625 11.5814 15.0406 11.7689 15.0156 11.8908C14.9875 12.0126 14.9312 12.1876 14.8875 12.2814C14.8438 12.3751 14.7625 12.522 14.7094 12.6033C14.6531 12.6845 14.6156 12.7564 14.625 12.7595C14.6344 12.7658 14.7469 12.8345 14.875 12.9158C15.0031 12.9939 15.2031 13.1533 15.3188 13.272C15.4313 13.3876 15.575 13.5626 15.6344 13.6564C15.6937 13.7501 15.775 13.9064 15.8125 14.0001C15.85 14.0939 15.9094 14.2689 15.9406 14.3908C15.9844 14.5595 16 14.722 16 15.1158C16 15.5501 15.9906 15.6439 15.9406 15.7408C15.9094 15.8064 15.8313 15.8908 15.6562 16.0001H10.4062L10.2937 15.9283C10.2312 15.8908 10.15 15.8033 10.1156 15.7345C10.0594 15.6189 10.0562 15.5658 10.0719 15.047C10.0812 14.6908 10.1031 14.4283 10.1344 14.3283C10.1594 14.2408 10.2094 14.097 10.2469 14.0064C10.2812 13.9189 10.3687 13.7564 10.4344 13.647C10.5031 13.5408 10.6594 13.3533 10.7875 13.2345C10.9125 13.1126 11.1062 12.9595 11.2188 12.8939C11.3313 12.8251 11.4281 12.7658 11.4375 12.7626C11.4469 12.7564 11.4094 12.6845 11.3531 12.6033C11.3 12.522 11.2188 12.3751 11.175 12.2814C11.1313 12.1876 11.075 12.0126 11.0469 11.8908C11.0219 11.7689 11 11.5939 11 11.3283L9.14062 10.7533L8.96562 10.9158C8.87187 11.0064 8.725 11.1126 8.6375 11.1533C8.55312 11.197 8.4125 11.247 8.32812 11.272C8.24063 11.2939 8.09375 11.3126 8 11.3126C7.90625 11.3126 7.75625 11.2939 7.67188 11.272C7.58437 11.247 7.44688 11.197 7.3625 11.1533C7.28125 11.1126 7.13125 11.0064 6.85938 10.7533L5 11.3283V11.5001C5 11.5939 4.97813 11.7689 4.95312 11.8908C4.925 12.0126 4.86875 12.1876 4.825 12.2814C4.78125 12.3751 4.7 12.522 4.64687 12.6033C4.59062 12.6845 4.55312 12.7564 4.5625 12.7595C4.57188 12.7658 4.68437 12.8345 4.8125 12.9158C4.94063 12.9939 5.14062 13.1533 5.25625 13.272C5.36875 13.3876 5.5125 13.5626 5.57188 13.6564C5.63125 13.7501 5.7125 13.9064 5.75 14.0001C5.7875 14.0939 5.84062 14.2408 5.86562 14.3283C5.89687 14.4283 5.91875 14.6908 5.92812 15.047C5.94375 15.5658 5.94063 15.6189 5.88438 15.7345C5.85 15.8033 5.76875 15.8908 5.59375 16.0001H0.34375L0.23125 15.9283C0.16875 15.8908 0.090625 15.8064 0.059375 15.7408C0.009375 15.6439 0 15.5501 0 15.1314C0 14.8064 0.015625 14.572 0.046875 14.4376C0.075 14.3251 0.13125 14.147 0.171875 14.0376C0.215625 13.9314 0.30625 13.7564 0.371875 13.647C0.440625 13.5408 0.596875 13.3533 0.725 13.2345C0.85 13.1126 1.04375 12.9595 1.15625 12.8939C1.26875 12.8251 1.36563 12.7658 1.375 12.7626C1.38437 12.7564 1.34687 12.6845 1.29062 12.6033C1.2375 12.522 1.15625 12.3751 1.1125 12.2814C1.06875 12.1876 1.0125 12.0126 0.984375 11.8908C0.959375 11.7689 0.9375 11.5814 0.9375 11.4689C0.9375 11.3564 0.959375 11.1689 0.984375 11.047C1.00937 10.9251 1.0875 10.7095 1.15937 10.5626C1.2625 10.3533 1.34688 10.2439 1.54375 10.0439C1.74375 9.84701 1.85312 9.76264 2.0625 9.65951C2.20937 9.58764 2.42812 9.50951 2.54688 9.48451C2.66563 9.45951 2.85625 9.43764 2.96875 9.43764C3.08125 9.43764 3.27187 9.45951 3.39062 9.48451C3.50938 9.50951 3.72813 9.58764 3.875 9.66264C4.08125 9.76264 4.19375 9.84701 4.375 10.0283C4.50625 10.1595 4.6375 10.3033 4.73438 10.4345L6.57812 9.85639L6.625 9.63764C6.65312 9.51889 6.70937 9.35014 6.75 9.26576C6.79063 9.17826 6.90937 9.02514 7.0125 8.91889C7.12187 8.80951 7.27187 8.69701 7.53125 8.57826V6.56264H6.46875C5.46875 6.56264 5.4 6.55951 5.28125 6.50014C5.19688 6.45639 5.13437 6.39701 5.09062 6.30326C5.02812 6.17826 5.025 6.14076 5.04063 5.60951C5.05 5.25326 5.07188 4.99076 5.10313 4.89076C5.12813 4.80326 5.17812 4.65951 5.21562 4.56889C5.25 4.48139 5.3375 4.31889 5.40312 4.20951C5.47187 4.10326 5.62812 3.91576 5.75625 3.79701C5.88125 3.67514 6.075 3.52201 6.1875 3.45639C6.3 3.38764 6.39687 3.32826 6.40625 3.32514C6.41563 3.31889 6.37813 3.24701 6.32188 3.16576C6.26875 3.08451 6.1875 2.93764 6.14375 2.84389C6.1 2.75014 6.04375 2.57201 6.01562 2.45326C5.99062 2.33451 5.96875 2.14389 5.96875 2.03139C5.96875 1.91889 5.99062 1.73139 6.01562 1.60951C6.04063 1.48764 6.11875 1.27201 6.19063 1.12514C6.29375 0.915762 6.375 0.806387 6.575 0.609512C6.73438 0.450137 6.90312 0.318887 7.03125 0.250137C7.14375 0.190762 7.33125 0.112637 7.45312 0.0751373C7.61562 0.0220123 7.75313 0.00326227 7.98438 0.00326227ZM7.4375 1.10014C7.35938 1.14389 7.25 1.23451 7.19063 1.30014C7.13125 1.36889 7.04688 1.50014 7.00313 1.59389C6.93438 1.73764 6.92188 1.81264 6.92188 2.03139C6.92188 2.26576 6.93437 2.32201 7.02187 2.50014C7.07812 2.61576 7.17812 2.75639 7.25625 2.82514C7.32812 2.89389 7.46875 2.98451 7.5625 3.02826C7.70312 3.09701 7.78125 3.10951 8 3.10951C8.21875 3.10951 8.29688 3.09701 8.4375 3.02826C8.53125 2.98451 8.67188 2.89389 8.74375 2.82514C8.82187 2.75639 8.92188 2.61576 8.97812 2.50014C9.06562 2.32201 9.07812 2.26576 9.07812 2.03139C9.07812 1.81264 9.06563 1.73451 8.99687 1.59389C8.95312 1.50014 8.8625 1.35951 8.79375 1.28764C8.72188 1.20639 8.5875 1.10951 8.46875 1.05326C8.3125 0.978262 8.21562 0.953262 8.04688 0.947012C7.925 0.940762 7.77187 0.956387 7.70312 0.978262C7.63438 1.00014 7.51562 1.05326 7.4375 1.10014ZM6.73438 4.22201C6.64687 4.26264 6.49375 4.38139 6.3875 4.48451C6.275 4.59389 6.16563 4.74389 6.11875 4.84389C6.075 4.93764 6.02188 5.09076 6.00313 5.17826C5.98438 5.26889 5.96875 5.40639 5.96875 5.48451V5.62514H10.0312C10.0312 5.40639 10.0156 5.26889 9.99687 5.17826C9.975 5.09076 9.925 4.93764 9.88125 4.84389C9.83438 4.74701 9.71875 4.59076 9.60938 4.48139C9.5 4.37201 9.35 4.25951 9.25 4.21264C9.15625 4.16889 9.00313 4.11576 8.9125 4.09701C8.81563 4.07826 8.4375 4.06264 7.975 4.06576C7.46875 4.06576 7.15 4.08139 7.04688 4.10639C6.95937 4.12826 6.81875 4.18139 6.73438 4.22201ZM7.59375 9.68764C7.55937 9.75639 7.53125 9.85639 7.53125 9.90639C7.53125 9.95639 7.55937 10.0564 7.59375 10.1251C7.63542 10.2085 7.69792 10.271 7.78125 10.3126C7.85 10.347 7.94688 10.3751 8 10.3751C8.05 10.3751 8.14688 10.347 8.20938 10.3158C8.27813 10.2814 8.35625 10.2064 8.39688 10.1376C8.43438 10.0689 8.46562 9.96889 8.46875 9.91264C8.46875 9.85951 8.44063 9.75639 8.40625 9.68764C8.36458 9.60431 8.30208 9.54181 8.21875 9.50014C8.15 9.46576 8.04688 9.43764 7.99062 9.43764C7.9375 9.44076 7.8375 9.46889 7.77187 9.50014C7.7 9.54076 7.63438 9.60951 7.59375 9.68764ZM2.40625 10.5376C2.32812 10.5814 2.21875 10.672 2.15937 10.7376C2.1 10.8064 2.01562 10.9376 1.97187 11.0314C1.90312 11.1751 1.89062 11.2501 1.89062 11.4689C1.89062 11.7033 1.90313 11.7595 1.99063 11.9376C2.04688 12.0533 2.14687 12.1939 2.225 12.2626C2.29688 12.3314 2.4375 12.422 2.53125 12.4658C2.67188 12.5345 2.75 12.547 2.96875 12.547C3.1875 12.547 3.26562 12.5345 3.40625 12.4658C3.5 12.422 3.64062 12.3314 3.7125 12.2626C3.79063 12.1939 3.89062 12.0533 3.94688 11.9376C4.03438 11.7595 4.04688 11.7033 4.04688 11.4689C4.04688 11.2501 4.03438 11.172 3.96563 11.0314C3.92188 10.9376 3.83125 10.797 3.7625 10.7251C3.69062 10.6439 3.55625 10.547 3.4375 10.4908C3.28125 10.4158 3.18438 10.3908 3.01562 10.3845C2.89375 10.3783 2.74062 10.3939 2.67188 10.4158C2.60313 10.4376 2.48438 10.4908 2.40625 10.5376ZM12.4688 10.5376C12.3906 10.5814 12.2812 10.672 12.2219 10.7376C12.1625 10.8064 12.0781 10.9376 12.0344 11.0314C11.9656 11.1751 11.9531 11.2501 11.9531 11.4689C11.9531 11.7033 11.9656 11.7595 12.0531 11.9376C12.1094 12.0533 12.2094 12.1939 12.2875 12.2626C12.3594 12.3314 12.5 12.422 12.5938 12.4658C12.7344 12.5345 12.8125 12.547 13.0312 12.547C13.25 12.547 13.3281 12.5345 13.4688 12.4658C13.5625 12.422 13.7031 12.3314 13.775 12.2626C13.8531 12.1939 13.9531 12.0533 14.0094 11.9376C14.0969 11.7595 14.1094 11.7033 14.1094 11.4689C14.1094 11.2501 14.0969 11.172 14.0281 11.0314C13.9844 10.9376 13.8938 10.797 13.825 10.7251C13.7531 10.6439 13.6187 10.547 13.5 10.4908C13.3438 10.4158 13.2469 10.3908 13.0781 10.3845C12.9563 10.3783 12.8031 10.3939 12.7344 10.4158C12.6656 10.4376 12.5469 10.4908 12.4688 10.5376ZM1.70312 13.6595C1.61563 13.7001 1.4625 13.8189 1.35625 13.922C1.24375 14.0314 1.13437 14.1814 1.0875 14.2814C1.04375 14.3751 0.990625 14.5283 0.971875 14.6158C0.953125 14.7064 0.9375 14.8439 0.9375 14.922V15.0626H5C5 14.8439 4.98438 14.7064 4.96562 14.6158C4.94375 14.5283 4.89375 14.3751 4.85 14.2814C4.80312 14.1845 4.6875 14.0283 4.57812 13.9189C4.46875 13.8095 4.31875 13.697 4.21875 13.6501C4.125 13.6064 3.97187 13.5533 3.88125 13.5345C3.78437 13.5158 3.40625 13.5001 2.94375 13.5033C2.4375 13.5033 2.11875 13.5189 2.01562 13.5439C1.92813 13.5658 1.7875 13.6189 1.70312 13.6595ZM11.7656 13.6595C11.6781 13.7001 11.525 13.8189 11.4187 13.922C11.3062 14.0314 11.1969 14.1814 11.15 14.2814C11.1062 14.3751 11.0531 14.5283 11.0344 14.6158C11.0156 14.7064 11 14.8439 11 14.922V15.0626H15.0625C15.0625 14.8439 15.0469 14.7064 15.0281 14.6158C15.0062 14.5283 14.9563 14.3751 14.9125 14.2814C14.8656 14.1845 14.75 14.0283 14.6406 13.9189C14.5312 13.8095 14.3813 13.697 14.2812 13.6501C14.1875 13.6064 14.0344 13.5533 13.9438 13.5345C13.8469 13.5158 13.4688 13.5001 13.0063 13.5033C12.5 13.5033 12.1812 13.5189 12.0781 13.5439C11.9906 13.5658 11.85 13.6189 11.7656 13.6595Z" fill="#ACB9CB"/>
</g>
<defs>
<clipPath id="clip0_545_4917">
<rect width="16" height="16" fill="white"/>
</clipPath>
</defs>
</svg>
