<svg width="16" height="16" viewBox="0 0 16 16" fill="none" xmlns="http://www.w3.org/2000/svg">
<g clip-path="url(#clip0_545_4920)">
<path fill-rule="evenodd" clip-rule="evenodd" d="M8.80625 0C8.975 0 9.07188 0.01875 9.19375 0.071875C9.28438 0.1125 10.5063 0.775 11.9063 1.54688C13.3063 2.31562 14.5125 2.99063 14.5875 3.04375C14.6625 3.09687 14.7594 3.19688 14.8094 3.26562C14.8563 3.33437 14.9219 3.45312 14.95 3.53125C14.9875 3.62188 15.0063 3.75625 15.0063 3.90625C15.0063 4.05625 14.9875 4.19063 14.95 4.28125C14.9219 4.35938 14.8531 4.48438 14.8 4.55937C14.7469 4.63437 14.625 4.74687 14.5281 4.80937C14.4344 4.87187 13.4469 5.42188 10.3125 7.14062L10.3156 8.01562C10.3156 8.70312 10.325 8.87813 10.3531 8.83438C10.375 8.8 10.5375 8.55625 10.7188 8.2875C11.0031 7.86563 11.0719 7.78125 11.2438 7.66563C11.35 7.59063 11.5188 7.50937 11.6156 7.48125C11.7406 7.44687 11.8781 7.43438 12.0625 7.44063C12.2906 7.45312 12.3625 7.46875 12.5625 7.56875C12.7156 7.64375 12.8438 7.73438 12.9375 7.83437C13.0125 7.91563 13.1156 8.06875 13.1625 8.17188C13.2125 8.275 13.2625 8.44375 13.2781 8.54688C13.2938 8.65 13.2938 8.8125 13.2813 8.90625C13.2688 9 13.2219 9.15938 13.0938 9.4375H13.9063C14.3938 9.4375 14.7844 9.45312 14.8813 9.47188C14.9719 9.49375 15.125 9.54375 15.2188 9.5875C15.3188 9.63437 15.4719 9.75 15.5781 9.85938C15.6844 9.9625 15.8 10.1125 15.8375 10.1969C15.875 10.2781 15.9281 10.4094 15.9563 10.4937C16 10.6219 16.0031 10.8375 15.9813 13.7969L15.8969 14.0719C15.85 14.2219 15.775 14.4188 15.7313 14.5063C15.6844 14.5969 15.5906 14.7563 15.5188 14.8594C15.45 14.9625 15.3156 15.125 15.2188 15.2188C15.125 15.3156 14.9625 15.45 14.8594 15.5188C14.7563 15.5906 14.5969 15.6844 14.5063 15.7312C14.4188 15.775 14.2 15.8531 13.7031 16H12.1938C10.8406 16 10.6781 15.9937 10.6 15.9469C10.5531 15.9187 10.3719 15.7531 9.875 15.2656V15.4438C9.875 15.5563 9.85313 15.6688 9.81563 15.7406C9.78438 15.8063 9.70625 15.8906 9.53125 16H6.46875L6.35625 15.9281C6.29375 15.8906 6.21563 15.8063 6.18438 15.7406C6.13125 15.6344 6.125 15.5375 6.125 13.625H3.95938C2.18125 13.625 1.75938 13.6156 1.57813 13.5781C1.45625 13.5531 1.24063 13.4719 1.09375 13.4C0.890625 13.3 0.771875 13.2125 0.590625 13.0344C0.434375 12.875 0.31875 12.725 0.24375 12.5781C0.184375 12.4563 0.103125 12.2656 0.065625 12.1469C0 11.9375 0 11.9188 0 8.52188C0 5.64688 0.009375 5.075 0.046875 4.89062C0.071875 4.77187 0.15 4.55312 0.221875 4.40625C0.321875 4.2 0.40625 4.0875 0.590625 3.90313C0.771875 3.725 0.89375 3.6375 1.09375 3.5375C1.24063 3.46562 1.45625 3.38438 1.57813 3.35938C1.7625 3.32188 2.27813 3.3125 7.71875 3.3125L7.73438 0.828125L7.81563 0.65625C7.85938 0.5625 7.95 0.421875 8.01875 0.346875C8.09375 0.265625 8.22813 0.171875 8.35938 0.10625C8.54688 0.015625 8.6125 0 8.80313 0L8.80625 0ZM8.65313 2.19062L8.65938 3.32812C8.9625 3.41563 9.14688 3.49375 9.26875 3.55625C9.4125 3.63125 9.56875 3.75 9.725 3.90313C9.90313 4.08437 9.99063 4.20312 10.0906 4.40625C10.1625 4.55312 10.2438 4.77187 10.2688 4.89062C10.2969 5.025 10.3156 5.29063 10.3156 5.5875C10.3156 5.84688 10.3188 6.0625 10.3219 6.0625C10.3281 6.0625 11.1625 5.60625 12.175 5.05C13.2063 4.48438 14.0375 4.00625 14.0594 3.97187C14.0875 3.91875 14.0875 3.89375 14.0563 3.84063C14.0375 3.80625 12.875 3.14687 11.4406 2.35938C10.0219 1.57812 8.84063 0.9375 8.8125 0.9375C8.78438 0.9375 8.7375 0.9625 8.70625 0.99375C8.65313 1.04688 8.64688 1.125 8.65313 2.19062ZM1.39375 4.44375C1.30938 4.5 1.19063 4.61875 1.13438 4.70312C1.07813 4.79063 1.00938 4.93125 0.984375 5.01562C0.95 5.1375 0.940625 5.38438 0.940625 6.11875V7.0625H3.22188C3.59688 6.68437 3.79063 6.525 3.89375 6.4625C3.99688 6.39687 4.16563 6.3125 4.26875 6.26875C4.37188 6.22813 4.56563 6.17188 4.7 6.14375C4.83125 6.11563 5.02813 6.09375 5.1375 6.09375C5.24375 6.09375 5.42188 6.10938 5.53438 6.12813C5.64688 6.14375 5.8375 6.19375 5.95625 6.2375C6.07813 6.27813 6.275 6.37187 6.39375 6.44375C6.51563 6.51562 6.72188 6.68437 6.85625 6.81875L7.09688 7.0625H9.37813L9.3625 5.04688C9.20938 4.73125 9.1125 4.59375 9.04375 4.53438C8.97813 4.475 8.84688 4.39062 8.75313 4.34688L8.58125 4.26562C2.41875 4.25625 1.80625 4.2625 1.69063 4.29688C1.6125 4.32188 1.48125 4.3875 1.39375 4.44375ZM4.425 7.24062C4.3375 7.29375 4.19688 7.4125 4.10938 7.50625C4.025 7.59687 3.91563 7.75 3.86875 7.84375C3.82188 7.9375 3.76875 8.1125 3.74688 8.23438C3.71875 8.40625 3.71875 8.50313 3.74688 8.6875C3.76875 8.81563 3.82813 9.00625 3.87813 9.10938C3.92813 9.2125 4.05313 9.37812 4.15 9.47812C4.25 9.575 4.41563 9.7 4.51875 9.75C4.62188 9.8 4.8125 9.85938 4.94063 9.88125C5.125 9.90938 5.22188 9.90938 5.39375 9.88125C5.51563 9.85938 5.69688 9.8 5.8 9.75C5.90313 9.7 6.06875 9.575 6.16875 9.47812C6.26563 9.37812 6.39063 9.2125 6.44063 9.10938C6.49063 9.00625 6.55 8.81563 6.57188 8.6875C6.6 8.50313 6.6 8.40625 6.57188 8.23438C6.55 8.1125 6.49688 7.9375 6.45 7.84375C6.40313 7.75 6.2875 7.5875 6.1875 7.48438C6.08125 7.36875 5.93125 7.25625 5.8125 7.19688C5.70313 7.14062 5.53438 7.07812 5.44063 7.0625C5.34688 7.04375 5.20625 7.03125 5.12813 7.03125C5.05 7.03438 4.89688 7.05938 4.78438 7.0875C4.67188 7.11562 4.50938 7.18437 4.425 7.24062ZM0.95625 11.8906C1.08125 12.1562 1.16563 12.2875 1.225 12.3531C1.28438 12.4219 1.42188 12.5187 1.53438 12.5719L1.7375 12.6719L6.12813 12.6875C6.12813 10.7188 6.125 10.6562 6.075 10.6719C6.04375 10.6781 5.92188 10.7156 5.8 10.7531C5.625 10.8094 5.50313 10.8219 5.175 10.825C4.875 10.825 4.71563 10.8125 4.56563 10.7719C4.45313 10.7406 4.26563 10.6687 4.14375 10.6094C4.025 10.5531 3.82188 10.425 3.69375 10.3219C3.56563 10.2219 3.39375 10.0562 3.30938 9.95312C3.22813 9.85 3.10313 9.65312 3.03438 9.51562C2.96563 9.37813 2.88438 9.175 2.85625 9.0625C2.81563 8.91562 2.8 8.74062 2.8 8.43125V8H0.9375L0.95625 11.8906ZM7.51563 8.44375C7.51563 8.81563 7.50313 8.92813 7.44688 9.10938C7.40625 9.23125 7.36875 9.35313 7.3625 9.38125C7.35 9.43438 7.4125 9.4375 8.3625 9.4375H9.37813V8H7.51875L7.51563 8.44375ZM10.9719 9.60625C10.3438 10.5625 10.2219 10.7344 10.1188 10.7844C10.0563 10.8156 9.975 10.8406 9.94063 10.8406C9.87813 10.8406 9.87813 10.8625 9.87813 12.4812C9.87813 13.9187 9.88438 14.1219 9.925 14.1219C9.95 14.1219 10.0188 14.1469 10.0719 14.1719C10.1281 14.2 10.3656 14.4125 10.5969 14.6438L11.0188 15.0625L13.7063 15.0437C14.0219 14.9219 14.1813 14.8438 14.2688 14.7906C14.3531 14.7344 14.4969 14.6156 14.5844 14.525C14.6688 14.4312 14.7781 14.2937 14.825 14.2156C14.8688 14.1406 14.9375 13.9906 14.9781 13.8875C15.0469 13.7063 15.0469 13.6719 15.0563 12.225C15.0656 10.8 15.0625 10.7437 15.0031 10.6219C14.9615 10.5385 14.899 10.476 14.8156 10.4344C14.6969 10.375 14.6281 10.375 13.4 10.375C12.2063 10.375 12.1031 10.3688 12.0031 10.3156C11.9438 10.2844 11.8625 10.2031 11.8219 10.1344C11.7688 10.0437 11.7531 9.97812 11.7625 9.87187C11.7719 9.75937 11.8219 9.65938 12.0344 9.34062C12.1781 9.12813 12.3125 8.90312 12.3344 8.84062C12.3563 8.77187 12.3625 8.7 12.3438 8.6375C12.3281 8.5875 12.275 8.50625 12.2219 8.45938C12.15 8.39375 12.0969 8.37187 11.9938 8.37187C11.9094 8.37187 11.8281 8.39687 11.7813 8.43125C11.7406 8.4625 11.375 8.99375 10.9719 9.60625ZM7.06563 15.0594H8.94063V10.3719H7.06563V15.0594ZM7.99375 5.1875C8.05 5.1875 8.15313 5.2125 8.22188 5.24687C8.30521 5.28854 8.36771 5.35104 8.40938 5.43437C8.44375 5.50312 8.47188 5.60312 8.47188 5.65312C8.47188 5.70625 8.44375 5.80312 8.40938 5.87187C8.36771 5.95521 8.30521 6.01771 8.22188 6.05937C8.15313 6.09375 8.05313 6.12187 8.00313 6.12187C7.95 6.12187 7.85313 6.09375 7.78438 6.05937C7.70104 6.01771 7.63854 5.95521 7.59688 5.87187C7.5625 5.80312 7.53438 5.70312 7.53438 5.64687C7.5375 5.59062 7.5625 5.5 7.59063 5.44375C7.61875 5.38438 7.7 5.30625 7.76875 5.2625C7.8375 5.22187 7.94063 5.1875 7.99375 5.1875Z" fill="#ACB9CB"/>
</g>
<defs>
<clipPath id="clip0_545_4920">
<rect width="16" height="16" fill="white"/>
</clipPath>
</defs>
</svg>
