<svg width="16" height="16" viewBox="0 0 16 16" fill="none" xmlns="http://www.w3.org/2000/svg">
<g clip-path="url(#clip0_545_4932)">
<path fill-rule="evenodd" clip-rule="evenodd" d="M6.20312 0.46875H6.82812C7.44375 0.471875 7.45312 0.471875 7.55625 0.546875C7.60938 0.590625 7.67812 0.66875 7.70312 0.71875C7.74062 0.79375 7.75 0.934375 7.74062 1.45C7.73438 2.08438 7.73438 2.09063 7.65625 2.17188C7.6125 2.21875 7.54063 2.275 7.49062 2.3C7.42812 2.33437 7.2625 2.34375 6.82188 2.34375C6.3125 2.34375 6.21875 2.3375 6.125 2.2875C6.05625 2.25 5.99062 2.17813 5.94375 2.09063C5.88125 1.9625 5.875 1.9125 5.875 1.41562C5.875 1.0375 5.8875 0.84375 5.91563 0.775C5.94063 0.71875 6.0125 0.625 6.08125 0.56875L6.20312 0.46875ZM10.5844 0.471875C11.1562 0.471875 11.1938 0.475 11.2969 0.540625C11.3562 0.578125 11.4344 0.66875 11.4688 0.7375C11.5219 0.846875 11.5281 0.928125 11.5312 1.425C11.5312 1.9125 11.5219 2 11.4719 2.09687C11.4406 2.15625 11.3656 2.2375 11.3094 2.275C11.2063 2.34375 11.175 2.34687 10.5938 2.34687C10.0406 2.34687 9.975 2.34062 9.88125 2.28437C9.825 2.25 9.75313 2.175 9.71875 2.11875C9.6625 2.02813 9.65625 1.9625 9.65625 1.41562C9.65625 0.94375 9.66562 0.79375 9.70312 0.721875C9.72812 0.66875 9.80313 0.590625 9.86563 0.55C9.98125 0.471875 9.99375 0.46875 10.5844 0.471875ZM8.875 7.29375C11.8281 7.3 11.8906 7.3 11.9969 7.3625C12.0813 7.40938 12.2719 7.6875 13.6562 9.8625L14.6687 9.87813C15.6406 9.89062 15.6844 9.89375 15.7719 9.95938C15.8188 9.99375 15.8875 10.0625 15.9219 10.1094C15.9812 10.1906 15.9844 10.25 15.9906 12.0906C16 13.8906 15.9969 13.9906 15.9406 14.0969C15.9094 14.1562 15.8344 14.2375 15.7781 14.275C15.6719 14.3469 15.6531 14.3469 13.9844 14.3469L13.8813 14.5406C13.8281 14.6469 13.7219 14.8063 13.6469 14.8938C13.5719 14.9781 13.4125 15.1156 13.2937 15.1969C13.1594 15.2906 12.9719 15.3813 12.7969 15.4406C12.5656 15.5156 12.4625 15.5344 12.2344 15.5344C12.0031 15.5312 11.9031 15.5156 11.6719 15.4375C11.5125 15.3813 11.2969 15.275 11.1719 15.1938C11.0531 15.1156 10.8969 14.9781 10.8219 14.8938C10.7469 14.8063 10.6406 14.6469 10.4844 14.3469H5.04688L4.9375 14.5562C4.87187 14.6781 4.74375 14.85 4.625 14.9719C4.475 15.1219 4.35 15.2094 4.15625 15.3062C4.00938 15.3781 3.81562 15.4594 3.725 15.4844C3.63437 15.5125 3.44062 15.5344 3.2875 15.5344C3.07187 15.5344 2.95937 15.5156 2.75 15.4469C2.60313 15.3969 2.38438 15.2937 2.26562 15.2156C2.14375 15.1375 1.99375 15.0125 1.92813 14.9438C1.86563 14.8719 1.76562 14.7406 1.70625 14.65C1.65 14.5594 1.59375 14.4531 1.58125 14.4156C1.5625 14.3469 1.55938 14.3469 0.94375 14.3469C0.353125 14.3469 0.321875 14.3438 0.21875 14.275C0.159375 14.2375 0.084375 14.1562 0.053125 14.0938C0.003125 13.9969 0 13.8469 0 10.675L0.078125 10.5719C0.121875 10.5156 0.1875 10.45 0.225 10.425C0.26875 10.3969 0.86875 10.2969 1.84375 10.1594C2.69375 10.0375 3.41875 9.93125 3.45312 9.925C3.4875 9.91875 3.94375 9.38438 4.5375 8.65938C5.1 7.97188 5.59375 7.39062 5.63125 7.37187C5.67188 7.35312 5.7375 7.325 5.78125 7.3125C5.825 7.3 7.21562 7.29062 8.875 7.29375ZM5.95937 8.41562C5.88438 8.50625 5.58437 8.86875 5.29688 9.22188L4.775 9.8625C10.7688 9.875 12.5125 9.86875 12.5188 9.8625C12.525 9.85313 12.3031 9.4875 12.0219 9.05L11.5156 8.25313H6.09688L5.95937 8.41562ZM0.921875 11.2344L0.9375 13.4062H1.42188C1.45938 13.2125 1.49688 13.0812 1.53125 12.9937C1.5625 12.9031 1.64375 12.7437 1.7125 12.6406C1.77812 12.5375 1.89375 12.3906 1.96875 12.3156C2.04688 12.2406 2.19375 12.125 2.29688 12.0562C2.4 11.9906 2.59687 11.9 2.73438 11.8562C2.93125 11.7937 3.05 11.7781 3.29688 11.7781C3.525 11.7781 3.66875 11.7969 3.82812 11.8438C3.94688 11.8813 4.1375 11.9656 4.25 12.0312C4.3625 12.0969 4.5375 12.2375 4.64062 12.3469C4.74375 12.4563 4.875 12.625 4.92812 12.7188C4.98438 12.8125 5.05937 13.0063 5.1 13.1469L5.17188 13.4062H10.3594C10.425 13.1281 10.4906 12.9437 10.55 12.8219C10.6219 12.6687 10.725 12.5219 10.8656 12.3719C10.9844 12.25 11.1562 12.1031 11.25 12.0469C11.3438 11.9906 11.5344 11.9062 11.6719 11.8594C11.875 11.7906 11.9781 11.7781 12.2344 11.7781C12.4781 11.7781 12.6 11.7937 12.7969 11.8562C12.9344 11.9 13.1313 11.9906 13.2344 12.0562C13.3375 12.1219 13.5094 12.2719 13.6156 12.3844C13.7406 12.5187 13.85 12.675 13.9187 12.8219C13.9781 12.9437 14.0438 13.1281 14.0688 13.2281L14.1094 13.4062H15.0625V10.8125L3.79688 10.8188L0.921875 11.2344ZM2.59375 13.0219C2.5375 13.0875 2.45937 13.2063 2.425 13.2844C2.38125 13.3813 2.3625 13.4906 2.3625 13.6438C2.3625 13.7969 2.38125 13.9062 2.43125 14.0188C2.46875 14.1031 2.55937 14.2344 2.63125 14.3062C2.70312 14.3781 2.83437 14.4688 2.92188 14.5063C3.03437 14.5594 3.1375 14.5781 3.29688 14.5781C3.46875 14.5813 3.55 14.5625 3.6875 14.4969C3.78437 14.45 3.91563 14.35 3.99375 14.2625C4.06875 14.175 4.14688 14.0437 4.175 13.9563C4.20312 13.8688 4.225 13.7156 4.22188 13.6125C4.21875 13.4844 4.19375 13.3719 4.14375 13.2688C4.10313 13.1813 4.03125 13.0656 3.98125 13.0063C3.93125 12.95 3.80625 12.8625 3.70312 12.8125C3.54688 12.7375 3.475 12.7188 3.29375 12.7219C3.11563 12.7219 3.04063 12.7375 2.8875 12.8125C2.7875 12.8625 2.65313 12.9563 2.59375 13.0219ZM11.4937 13.0813C11.4281 13.1656 11.3594 13.3 11.3375 13.3781C11.3156 13.4531 11.3 13.5938 11.3 13.6906C11.3031 13.7844 11.3313 13.925 11.3625 14.0031C11.3969 14.0781 11.4812 14.2063 11.55 14.2844C11.6219 14.3625 11.75 14.4563 11.8469 14.5C11.9719 14.5594 12.0688 14.5781 12.2344 14.5781C12.3938 14.5781 12.4937 14.5594 12.6094 14.5063C12.6938 14.4688 12.825 14.3781 12.8969 14.3062C12.9719 14.2344 13.0594 14.1031 13.0969 14.0188C13.1344 13.9281 13.1656 13.7875 13.1687 13.6906C13.1687 13.5938 13.1531 13.4531 13.1313 13.3781C13.1094 13.3 13.0375 13.1656 12.9719 13.0813C12.8906 12.9719 12.7938 12.8937 12.6625 12.8219C12.4938 12.7344 12.4375 12.7219 12.2375 12.7219C12.0375 12.7219 11.9781 12.7344 11.8094 12.8219C11.6687 12.8937 11.575 12.9719 11.4937 13.0813ZM4.95312 2.35C5.425 2.34687 5.49687 2.35312 5.60938 2.40937C5.67812 2.44375 5.7625 2.50938 5.79688 2.55625C5.85313 2.63438 5.85938 2.7 5.86875 3.26875C5.87813 3.87812 5.875 3.89687 5.80625 4C5.76562 4.05938 5.69375 4.13438 5.64375 4.17188C5.5625 4.23125 5.51562 4.2375 4.95625 4.2375C4.41563 4.2375 4.34688 4.23125 4.25313 4.175C4.19375 4.14063 4.11563 4.07188 4.08125 4.025C4.01875 3.94375 4.0125 3.8875 4.00313 3.38438C4 3.07812 4.00312 2.78438 4.0125 2.72813C4.02187 2.67188 4.06875 2.57812 4.11875 2.51875C4.16875 2.45625 4.25313 2.39687 4.3125 2.38125C4.37187 2.36562 4.65938 2.35 4.95312 2.35ZM8.75 2.35313C9.27812 2.35938 9.33438 2.36562 9.42188 2.42812C9.47188 2.4625 9.54375 2.53437 9.57812 2.58437C9.63437 2.66562 9.64062 2.73438 9.65 3.25312C9.65625 3.80312 9.65625 3.8375 9.5875 3.96875C9.54375 4.05312 9.46875 4.1375 9.40625 4.17188C9.30625 4.23125 9.24063 4.2375 8.70312 4.2375C8.1625 4.2375 8.1 4.23125 8.00313 4.175C7.94688 4.14063 7.86875 4.0625 7.83125 4.00313C7.76875 3.9 7.76562 3.85625 7.76562 3.3C7.76562 2.75938 7.76875 2.69375 7.82812 2.59687C7.86562 2.53125 7.94688 2.45625 8.03125 2.41563C8.16562 2.34688 8.19687 2.34375 8.75 2.35313ZM12.4844 2.35C12.9469 2.34687 13.0312 2.35312 13.1406 2.40625C13.2156 2.44375 13.2906 2.51562 13.3344 2.5875C13.4 2.69688 13.4031 2.74375 13.4062 3.3C13.4062 3.86562 13.4031 3.89687 13.3344 4C13.2969 4.05938 13.225 4.13438 13.175 4.17188C13.0938 4.23125 13.0469 4.2375 12.4875 4.2375C11.9406 4.2375 11.8813 4.23125 11.7812 4.17188C11.7188 4.1375 11.6375 4.05938 11.6 4C11.5312 3.89687 11.5281 3.86563 11.5281 3.30625C11.5312 2.86563 11.5406 2.7 11.575 2.63438C11.5969 2.5875 11.65 2.51875 11.6906 2.47813C11.7312 2.44063 11.8062 2.39687 11.8594 2.38125C11.9094 2.36562 12.1906 2.35 12.4844 2.35Z" fill="#ACB9CB"/>
</g>
<defs>
<clipPath id="clip0_545_4932">
<rect width="16" height="16" fill="white"/>
</clipPath>
</defs>
</svg>
