<svg width="16" height="16" viewBox="0 0 16 16" fill="none" xmlns="http://www.w3.org/2000/svg">
<g clip-path="url(#clip0_545_4935)">
<path fill-rule="evenodd" clip-rule="evenodd" d="M1.64062 0.00625L8.3125 0L8.57187 0.0875C8.7125 0.134375 8.9125 0.221875 9.0125 0.28125C9.1125 0.340625 9.28125 0.475 9.3875 0.58125C9.49375 0.6875 9.62813 0.85625 9.6875 0.95625C9.74687 1.05625 9.83125 1.23125 9.875 1.34375C9.95312 1.54688 9.95312 1.55 9.95938 2.775C9.96563 3.44688 9.97813 4 9.99063 4C10.0063 4 10.1562 3.92812 10.3281 3.84375C10.5 3.75938 10.7469 3.6625 10.875 3.625C11.0031 3.59063 11.25 3.54688 11.4219 3.52813C11.65 3.50312 11.8156 3.50312 12.0312 3.53125C12.1938 3.55 12.4125 3.5875 12.5156 3.6125C12.6187 3.64062 12.8094 3.70625 12.9375 3.75938C13.0656 3.8125 13.2437 3.89688 13.3281 3.94688C13.4125 3.99688 13.5688 4.09688 13.6719 4.17188C13.775 4.24375 13.9719 4.42188 14.1094 4.56563C14.2469 4.70938 14.4281 4.93437 14.5063 5.0625C14.5875 5.19063 14.7 5.40312 14.7531 5.53125C14.8063 5.65938 14.8781 5.87187 14.9125 6C14.9438 6.12813 14.9781 6.38125 14.9875 6.5625C15 6.75 14.9906 6.99687 14.9719 7.14062C14.95 7.27812 14.9281 7.42188 14.9219 7.4625C14.9062 7.53125 14.9094 7.53125 15.2656 7.53125C15.5437 7.53125 15.65 7.54375 15.7406 7.58437C15.8031 7.61562 15.8875 7.69375 15.9281 7.75625C15.9719 7.82812 16 7.925 16 8C16 8.075 15.9719 8.17188 15.9281 8.24063C15.8875 8.30625 15.8031 8.38438 15.7406 8.4125C15.6438 8.45938 15.5344 8.46875 14.5312 8.46875L14.4344 8.64688C14.3781 8.74688 14.2781 8.9125 14.2094 9.01562C14.1406 9.11875 14.0031 9.3 13.9062 9.42188C13.8062 9.54375 13.6 9.78125 13.4406 9.95312C13.2844 10.125 12.975 10.4312 12.7563 10.6375C12.5375 10.8406 12.1844 11.1562 11.9688 11.3344C11.7531 11.5156 11.3938 11.8 11.1719 11.9688C10.95 12.1344 10.5906 12.3875 9.98438 12.7844L9.96562 13.6187C9.95 14.4062 9.94687 14.4656 9.87187 14.6562C9.83125 14.7688 9.74687 14.9437 9.6875 15.0437C9.62813 15.1438 9.49375 15.3125 9.3875 15.4187C9.28125 15.525 9.1125 15.6594 9.0125 15.7188C8.9125 15.7781 8.7125 15.8656 8.3125 16L1.67188 15.9969L1.45312 15.925C1.33125 15.8875 1.15 15.8125 1.05 15.7625C0.946875 15.7125 0.76875 15.5813 0.646875 15.4688C0.528125 15.3562 0.375 15.1812 0.309375 15.0781C0.240625 14.975 0.146875 14.7781 0.015625 14.3906V1.64062L0.0875 1.40625C0.128125 1.27813 0.20625 1.09375 0.259375 1C0.315625 0.90625 0.44375 0.7375 0.546875 0.63125C0.65 0.521875 0.8125 0.38125 0.90625 0.31875C1 0.25625 1.20312 0.159375 1.35938 0.10625L1.64062 0.00625ZM1.53125 1.04062C1.47187 1.06875 1.36563 1.14062 1.29688 1.19687C1.22812 1.25625 1.12188 1.39375 1.0625 1.50312L0.953125 1.70312V14.2969C1.0875 14.55 1.16563 14.6719 1.21563 14.7281C1.2625 14.7812 1.39375 14.8781 1.50312 14.9375L1.70312 15.0469H8.26562C8.54062 14.9156 8.66875 14.8125 8.75937 14.7125C8.84375 14.6219 8.9375 14.475 8.97188 14.3844C9.025 14.2375 9.03125 14.1375 9.03125 13.4937L9.02812 12.7656C8.60625 12.5 8.30937 12.2969 8.09375 12.1438C7.87813 11.9906 7.53438 11.7313 7.32812 11.5688C7.12187 11.4062 6.84688 11.1781 6.71875 11.0656C6.59062 10.9531 6.37187 10.7563 6.23438 10.6281C6.09688 10.5 5.83125 10.2312 5.64687 10.0344C5.45937 9.83438 5.19063 9.51875 5.04688 9.32812C4.90625 9.14062 4.72187 8.86875 4.6375 8.72812L4.48438 8.47188C3.36562 8.45312 3.30938 8.44687 3.22813 8.3875C3.18125 8.35 3.1125 8.275 3.08125 8.21562C3.04688 8.15625 3.01875 8.05937 3.01875 8C3.01875 7.94063 3.04688 7.84375 3.08125 7.78438C3.1125 7.725 3.18125 7.65 3.22813 7.6125C3.30625 7.55625 3.36875 7.54688 3.7125 7.5375L4.10938 7.525C4.04063 7.17812 4.03125 6.95625 4.04063 6.64062C4.05 6.32812 4.07188 6.10313 4.10938 5.96875C4.14062 5.85625 4.21562 5.64687 4.27812 5.5C4.34062 5.35313 4.4625 5.12813 4.54688 5C4.63438 4.87187 4.81563 4.65312 4.95312 4.51562C5.09062 4.375 5.32188 4.18438 5.46875 4.0875C5.61562 3.99063 5.82812 3.86562 5.94688 3.81562C6.0625 3.7625 6.27187 3.68438 6.41563 3.64375C6.55625 3.60312 6.8125 3.55312 6.98438 3.53125C7.2125 3.50625 7.375 3.50312 7.59375 3.52813C7.75625 3.54688 7.975 3.58437 8.07812 3.60938C8.18125 3.6375 8.3625 3.7 8.48438 3.74688C8.60625 3.79688 8.77812 3.88125 8.86875 3.93438L9.03125 4.03125C9.03125 1.87188 9.025 1.76875 8.97188 1.61875C8.9375 1.525 8.84375 1.37813 8.75937 1.2875C8.66875 1.1875 8.54062 1.08438 8.4375 1.0375L8.26562 0.953125C3.275 0.946875 1.7875 0.953125 1.73438 0.965625C1.68438 0.978125 1.59063 1.0125 1.53125 1.04062ZM6.5625 4.58437C6.41563 4.63125 6.21875 4.71875 6.125 4.775C6.03125 4.83125 5.87813 4.9375 5.78438 5.00938C5.69375 5.08125 5.54688 5.225 5.4625 5.32812C5.37813 5.43125 5.25313 5.62813 5.1875 5.76562C5.11875 5.90312 5.04062 6.11562 5.0125 6.23438C4.975 6.39687 4.96563 6.54688 4.97813 6.82812C4.9875 7.04375 5.01562 7.27187 5.04375 7.36875L5.09375 7.53125H7C7.84688 6.25938 7.94687 6.13125 8.04062 6.0875C8.10312 6.05625 8.20625 6.03125 8.26562 6.03125C8.325 6.03125 8.4125 6.05 8.45938 6.07188C8.50625 6.09063 9.02813 6.69063 9.63125 7.41563L10.7188 8.71875C11.3656 7.76875 11.4781 7.62813 11.5625 7.5875C11.6594 7.5375 11.7875 7.53125 12.8062 7.53125H13.9375C14.0281 7.12813 14.0469 6.92812 14.0437 6.6875C14.0406 6.39062 14.025 6.28438 13.9594 6.07812C13.9125 5.94063 13.825 5.7375 13.7594 5.62813C13.6937 5.51562 13.5625 5.34375 13.4688 5.24062C13.375 5.1375 13.2125 4.99375 13.1094 4.91875C13.0063 4.84687 12.8156 4.7375 12.6875 4.67812C12.5594 4.61875 12.3562 4.54688 12.2344 4.51562C12.1031 4.48438 11.8906 4.4625 11.7031 4.4625C11.4781 4.4625 11.3188 4.48125 11.1406 4.53125C11.0031 4.56875 10.8062 4.64062 10.7031 4.69375C10.6 4.74375 10.4469 4.84062 10.3594 4.90312C10.275 4.96875 10.1125 5.12187 10 5.24687C9.8875 5.37187 9.75937 5.49375 9.7125 5.51875C9.6625 5.54375 9.575 5.5625 9.51562 5.5625C9.45625 5.5625 9.35938 5.54063 9.30625 5.51562C9.25 5.49062 9.14062 5.39375 9.0625 5.29688C8.98438 5.20312 8.8375 5.05312 8.73438 4.96875C8.63125 4.88438 8.44063 4.7625 8.3125 4.69375C8.18125 4.625 7.975 4.55 7.84375 4.52187C7.71562 4.49375 7.54063 4.46875 7.45312 4.45937C7.36875 4.45312 7.19063 4.45938 7.0625 4.47188C6.93437 4.48438 6.70937 4.53437 6.5625 4.58437ZM7.9375 7.8125C7.65 8.24375 7.55625 8.3625 7.4625 8.40938C7.35313 8.4625 7.2625 8.46875 6.46875 8.46875C5.9875 8.46875 5.59375 8.475 5.59375 8.48438C5.59375 8.49375 5.64062 8.56562 5.69375 8.65C5.75 8.73125 5.91563 8.9375 6.06563 9.10938C6.21563 9.28125 6.4625 9.54375 6.6125 9.69063C6.76562 9.8375 7.01875 10.0688 7.17188 10.2063C7.32812 10.3438 7.6 10.575 7.78125 10.7219C7.9625 10.8688 8.27812 11.1156 8.48438 11.2688C8.69063 11.4219 9.00312 11.6437 9.18125 11.7594L9.5 11.9688C9.99687 11.6469 10.3094 11.4281 10.5156 11.2812C10.7219 11.1313 11.0531 10.875 11.2531 10.7156C11.4531 10.5531 11.7906 10.2656 12.0031 10.0719C12.2156 9.87812 12.5031 9.59687 12.6406 9.44687C12.7781 9.29688 12.9563 9.09375 13.0344 9C13.1125 8.90625 13.2375 8.74687 13.3062 8.65L13.4375 8.46875L12.0156 8.47188C11.2531 9.6125 11.075 9.85 11 9.9C10.9312 9.94375 10.8438 9.97188 10.7656 9.97188C10.6875 9.97188 10.6 9.94375 10.5312 9.9C10.4719 9.85938 9.975 9.29375 9.42813 8.64062C8.88438 7.9875 8.40625 7.4125 8.36563 7.3625L8.29688 7.275L7.9375 7.8125ZM5.0375 2.00625C5.60938 2.0125 5.65937 2.01875 5.74062 2.08125C5.7875 2.11875 5.85313 2.18125 5.88438 2.22187C5.92188 2.26875 5.94375 2.35313 5.94688 2.45312C5.95 2.55625 5.93125 2.64375 5.89062 2.71563C5.85625 2.77188 5.77812 2.84687 5.71875 2.87812C5.61875 2.93438 5.54688 2.9375 4.28125 2.92188L4.16563 2.80312C4.05938 2.69687 4.04688 2.66562 4.0375 2.50625C4.03125 2.36875 4.04375 2.30312 4.09062 2.225C4.12812 2.16875 4.21563 2.09687 4.29063 2.0625C4.40938 2.00312 4.475 2 5.0375 2.00625ZM4.97813 13.0625C7.06875 13.0625 7.61562 13.0687 7.69688 13.1031C7.75 13.125 7.83125 13.1906 7.875 13.25C7.93437 13.3313 7.95312 13.3969 7.95312 13.5188C7.95312 13.6375 7.93437 13.7063 7.8875 13.7688C7.85 13.8188 7.78125 13.8875 7.7375 13.9219C7.65313 13.9812 7.59375 13.9844 5.1 13.9937C3.69687 13.9969 2.4875 13.9937 2.41563 13.9844C2.31563 13.9719 2.25 13.9375 2.1625 13.85C2.07187 13.7625 2.03437 13.6969 2.01875 13.5938C1.99687 13.4688 2.00625 13.4344 2.08437 13.3156C2.13125 13.2406 2.2125 13.1531 2.26562 13.1187C2.35625 13.0625 2.47188 13.0625 4.97813 13.0625Z" fill="#ACB9CB"/>
</g>
<defs>
<clipPath id="clip0_545_4935">
<rect width="16" height="16" fill="white"/>
</clipPath>
</defs>
</svg>
