<svg width="16" height="16" viewBox="0 0 16 16" fill="none" xmlns="http://www.w3.org/2000/svg">
<g clip-path="url(#clip0_545_4938)">
<path fill-rule="evenodd" clip-rule="evenodd" d="M12.8125 0L12.925 0.071875C12.9875 0.109375 13.0656 0.19375 13.0969 0.259375C13.1531 0.36875 13.1562 0.49375 13.1562 4.71875H14.1406C15.0625 4.71875 15.1344 4.72188 15.25 4.78125C15.3333 4.82292 15.3958 4.88542 15.4375 4.96875C15.5 5.09062 15.5 5.15625 15.5 14.7188L15.4281 14.8313C15.3906 14.8938 15.3063 14.9719 15.2406 15.0031C15.1531 15.0469 15.0562 15.0625 14.5625 15.0625V15.3438C14.5625 15.5562 14.5469 15.6531 14.5031 15.7437C14.4719 15.8062 14.3938 15.8906 14.3313 15.9312C14.2656 15.9719 14.1687 16 14.0938 16C14.0188 16 13.9219 15.9719 13.8562 15.9312C13.7937 15.8906 13.7156 15.8062 13.6844 15.7437C13.6406 15.6531 13.625 15.5562 13.625 15.0625H8.9375V15.3438C8.9375 15.5562 8.92188 15.6531 8.87813 15.7437C8.84688 15.8062 8.76875 15.8906 8.59375 16H0.84375L0.73125 15.9312C0.66875 15.8906 0.590625 15.8062 0.559375 15.7437C0.503125 15.6312 0.5 15.4875 0.5 9.75L0.56875 9.6375C0.609375 9.575 0.69375 9.49687 0.75625 9.46562C0.865625 9.40938 0.96875 9.40625 3.3125 9.40625V8.65625C3.3125 7.96875 3.31875 7.89687 3.375 7.78125C3.41667 7.69792 3.47917 7.63542 3.5625 7.59375C3.68125 7.53438 3.75 7.53125 4.71875 7.53125C5.6875 7.53125 5.75625 7.53438 5.875 7.59375C5.95833 7.63542 6.02083 7.69792 6.0625 7.78125C6.11875 7.89687 6.125 7.96875 6.125 9.40625H7.0625V7.25C7.0625 5.15625 7.06563 5.09062 7.125 4.96875C7.16667 4.88542 7.22917 4.82292 7.3125 4.78125C7.42812 4.72188 7.5 4.71875 9.40625 4.71875V2.54688C9.40625 0.496875 9.40938 0.36875 9.46562 0.259375C9.49687 0.19375 9.56875 0.109375 9.62813 0.071875C9.73438 0.00625 9.75 0.00625 12.8125 0ZM10.3438 4.71875H12.2188V0.9375H10.3438V4.71875ZM8 9.40625C8.5 9.40625 8.59062 9.41875 8.6875 9.46875C8.77083 9.51042 8.83333 9.57292 8.875 9.65625C8.93437 9.775 8.9375 9.84375 8.9375 11.0156V12.25H14.5625V5.65625H8V9.40625ZM4.25 9.40625H5.1875V8.46875H4.25V9.40625ZM1.4375 15.0625H2.375V10.3438H1.4375V15.0625ZM3.3125 15.0625H6.125V10.3438H3.3125V15.0625ZM7.0625 15.0625H8V10.3438H7.0625V15.0625ZM8.9375 14.125H14.5625V13.1875H8.9375V14.125ZM11.275 6.59375C13.1875 6.59375 13.2531 6.59688 13.375 6.65625C13.4583 6.69792 13.5208 6.76042 13.5625 6.84375C13.5969 6.9125 13.625 7.0125 13.625 7.0625C13.625 7.11562 13.5969 7.2125 13.5625 7.28125C13.5208 7.36458 13.4583 7.42708 13.375 7.46875C13.2781 7.51875 13.1875 7.53125 12.6875 7.53125V7.8125C12.6875 8.03125 12.675 8.12187 12.625 8.21875C12.5833 8.30208 12.5208 8.36458 12.4375 8.40625C12.3687 8.44063 12.2688 8.46875 12.2188 8.46875C12.1687 8.46875 12.0688 8.44063 12 8.40625C11.9167 8.36458 11.8542 8.30208 11.8125 8.21875C11.7625 8.12187 11.75 8.03125 11.75 7.53125H10.5312C9.375 7.53125 9.30625 7.52812 9.1875 7.46875C9.10417 7.42708 9.04167 7.36458 9 7.28125C8.96562 7.2125 8.9375 7.11562 8.9375 7.0625C8.9375 7.0125 8.96562 6.9125 9 6.84375C9.04062 6.76562 9.10625 6.69688 9.17813 6.65625C9.29375 6.6 9.375 6.59688 11.2719 6.59375H11.275Z" fill="#ACB9CB"/>
</g>
<defs>
<clipPath id="clip0_545_4938">
<rect width="16" height="16" fill="white"/>
</clipPath>
</defs>
</svg>
