<svg width="16" height="16" viewBox="0 0 16 16" fill="none" xmlns="http://www.w3.org/2000/svg">
<path fill-rule="evenodd" clip-rule="evenodd" d="M0 1.4375H16V14.5625H0V1.4375ZM0.9375 4.25H12.25V2.375H0.9375V4.25ZM13.1875 4.25H15.0625V2.375H13.1875V4.25ZM0.9375 6.125H15.0625V5.1875H0.9375V6.125ZM0.9375 13.625H15.0625V7.0625H0.9375V13.625ZM1.875 8H2.8125L2.82812 10.7812L3.10938 10.3313C3.26562 10.0813 3.39687 9.88437 3.40625 9.8875C3.41563 9.89375 3.54063 10.0938 3.95312 10.7625L3.96875 8H4.9375V12.6875H4.04688L3.76562 12.2281C3.60938 11.975 3.4625 11.7438 3.4375 11.7094C3.39375 11.6531 3.36875 11.6844 2.75 12.6875H1.875V8ZM5.375 8H7.28125V8.9375H6.34375V9.875H7.28125V10.8125H6.34375V11.75H7.28125V12.6875H5.375V8ZM7.71875 8H8.50937C9.125 8 9.3375 8.00938 9.48438 8.05C9.5875 8.075 9.74062 8.13437 9.825 8.18125C9.90625 8.22812 10.0406 8.32812 10.1187 8.40625C10.1969 8.48438 10.2937 8.6 10.3313 8.66562C10.3719 8.72812 10.4344 8.86562 10.4688 8.96875C10.5104 9.09375 10.5312 9.23958 10.5312 9.40625C10.5312 9.57812 10.5094 9.71875 10.4656 9.85312C10.4312 9.95937 10.3531 10.1125 10.2937 10.1969C10.1906 10.3406 10.1875 10.3438 10.2437 10.4156C10.275 10.4531 10.325 10.5219 10.3531 10.5719C10.3812 10.6187 10.4344 10.7406 10.4688 10.8438C10.5104 10.9688 10.5312 11.1146 10.5312 11.2812C10.5312 11.4479 10.5104 11.5938 10.4688 11.7188C10.4344 11.8219 10.3719 11.9594 10.3313 12.025C10.2937 12.0875 10.1969 12.2031 10.1187 12.2812C10.0406 12.3594 9.90625 12.4594 9.825 12.5063C9.74062 12.5531 9.5875 12.6125 9.48438 12.6375C9.3375 12.6781 9.125 12.6875 7.71875 12.6875V8ZM8.6875 9.875C9.15938 9.875 9.26562 9.85938 9.34375 9.81875C9.40312 9.79063 9.48438 9.71562 9.525 9.65625C9.57187 9.58438 9.59688 9.5 9.59688 9.40625C9.59688 9.3125 9.57187 9.22813 9.525 9.15625C9.48438 9.09688 9.40312 9.02187 9.34375 8.99375C9.26562 8.95312 9.15938 8.9375 8.95938 8.9375H8.6875V9.875ZM8.6875 11.75C9.15938 11.75 9.26562 11.7344 9.34375 11.6938C9.40312 11.6656 9.48438 11.5906 9.525 11.5312C9.57187 11.4594 9.59688 11.375 9.59688 11.2812C9.59688 11.1875 9.57187 11.1031 9.525 11.0312C9.48438 10.9719 9.40312 10.8969 9.34375 10.8687C9.26562 10.8281 9.15938 10.8125 8.95938 10.8125H8.6875V11.75ZM12.6969 8.00313C12.7781 8 12.9188 8.01562 13.0063 8.03438C13.0969 8.05313 13.2406 8.10313 13.3281 8.14062C13.4125 8.18125 13.5625 8.28125 13.6562 8.36875C13.7656 8.46562 13.8688 8.6 13.9438 8.7375C14.0063 8.85625 14.075 9.04375 14.0969 9.15625C14.1188 9.275 14.125 9.43437 14.1125 9.54062C14.1031 9.6375 14.0719 9.78437 14.0437 9.86875C14.0156 9.95 13.9438 10.0906 13.7812 10.3438L13.8875 10.5094C13.9437 10.5969 14.0156 10.7375 14.0437 10.8219C14.0719 10.9031 14.1031 11.05 14.1125 11.15C14.125 11.2531 14.1187 11.4125 14.0938 11.5312C14.0719 11.6438 14.0188 11.8125 13.975 11.9062C13.9281 12.0031 13.8125 12.1594 13.7031 12.2688C13.5969 12.375 13.4406 12.4938 13.3438 12.5375C13.25 12.5844 13.1094 12.6344 13.0312 12.6531C12.9531 12.6719 12.8125 12.6875 12.7188 12.6875C12.625 12.6875 12.475 12.6688 12.3906 12.6469C12.3031 12.625 12.1625 12.5719 12.0781 12.5312C11.9906 12.4906 11.8375 12.3719 11.7312 12.2688C11.6281 12.1625 11.5094 12.0094 11.4688 11.9219C11.4281 11.8375 11.375 11.6969 11.3531 11.6094C11.3312 11.525 11.3125 11.4156 11.3125 11.2812H11.7812C12.2063 11.2812 12.25 11.2875 12.25 11.3375C12.25 11.3656 12.2812 11.4469 12.3219 11.5125C12.3594 11.5781 12.4406 11.6594 12.5 11.6906C12.5594 11.725 12.6562 11.75 12.7094 11.75C12.7656 11.75 12.8687 11.7219 12.9375 11.6875C13.0208 11.6458 13.0833 11.5833 13.125 11.5C13.1594 11.4312 13.1875 11.3281 13.1875 11.275C13.1844 11.2188 13.1531 11.1188 13.1156 11.05C13.075 10.9812 12.9969 10.9062 12.9281 10.8719C12.8656 10.8406 12.7906 10.8125 12.7656 10.8125C12.725 10.8125 12.7188 10.7406 12.7188 10.3438C12.7188 9.94687 12.725 9.875 12.7656 9.875C12.7906 9.875 12.8687 9.84688 12.9375 9.8125C13.0208 9.77083 13.0833 9.70833 13.125 9.625C13.1594 9.55625 13.1875 9.45625 13.1875 9.40625C13.1875 9.35625 13.1594 9.25625 13.125 9.1875C13.0833 9.10417 13.0208 9.04167 12.9375 9C12.8687 8.96562 12.7656 8.9375 12.7094 8.9375C12.6562 8.94063 12.5563 8.97187 12.4875 9.00937C12.4187 9.05 12.3438 9.12812 12.3094 9.19687C12.2781 9.25937 12.25 9.33437 12.25 9.35938C12.25 9.4 12.1781 9.40625 11.3125 9.40625V9.32187C11.3125 9.27187 11.3312 9.16563 11.3531 9.07812C11.375 8.99375 11.4281 8.85313 11.4688 8.76562C11.5094 8.68125 11.6281 8.525 11.7312 8.41875C11.8375 8.31562 11.9906 8.19688 12.0781 8.15625C12.1625 8.11562 12.3031 8.0625 12.3906 8.04375C12.475 8.02187 12.6125 8.00313 12.6938 8.00313H12.6969Z" fill="#ACB9CB"/>
</svg>
