<svg width="24" height="24" viewBox="0 0 24 24" fill="none" xmlns="http://www.w3.org/2000/svg">
<g clip-path="url(#clip0_2455_1783)">
<g clip-path="url(#clip1_2455_1783)">
<path fill-rule="evenodd" clip-rule="evenodd" d="M2.36719 0.70856H11.9766C21.5625 0.703873 21.5859 0.703873 21.9375 0.80231C22.1297 0.853873 22.3922 0.956998 22.5234 1.02262C22.65 1.09294 22.8844 1.27575 23.0391 1.43044C23.2125 1.60387 23.3766 1.82887 23.4656 2.01637C23.55 2.18512 23.6484 2.47575 23.6906 2.66325C23.7563 2.96794 23.7656 3.87731 23.7656 11.4945C23.7656 18.7882 23.7563 20.0398 23.6953 20.3211C23.6578 20.5039 23.5547 20.7945 23.4656 20.9773C23.3625 21.1836 23.2031 21.4086 23.0297 21.5773C22.8797 21.7226 22.6406 21.9054 22.5 21.9851C22.3594 22.0601 22.1156 22.1539 21.9609 22.1914C21.7734 22.2414 21.4734 22.2664 21.0609 22.2664C20.6016 22.2664 20.3906 22.2476 20.2641 22.1914C20.1656 22.1539 20.0344 22.0742 19.9781 22.0179C19.9172 21.9617 19.8234 21.8304 19.7719 21.7273C19.7016 21.5867 19.6781 21.4742 19.6922 21.2726C19.7063 21.0757 19.7437 20.9632 19.8516 20.8086C19.9266 20.7007 20.0766 20.5648 20.1797 20.5132C20.3344 20.4336 20.4797 20.4101 20.9906 20.3914C21.6047 20.3679 21.6187 20.3632 21.8438 20.1101V8.532H2.15625V20.1101L2.4375 20.3914H4.06875C5.175 20.3914 5.74687 20.4054 5.85938 20.4429C5.94844 20.4757 6.09375 20.5461 6.17813 20.607C6.25781 20.6679 6.37031 20.8039 6.42188 20.907C6.47813 21.0195 6.51562 21.1882 6.51562 21.3289C6.51562 21.4554 6.49219 21.6195 6.46406 21.6898C6.44062 21.7648 6.36094 21.882 6.29062 21.9523C6.22031 22.0273 6.08438 22.1257 5.99063 22.1773C5.82656 22.2617 5.69063 22.2664 4.06875 22.2664C2.62969 22.2664 2.26875 22.2523 2.03906 22.1914C1.88437 22.1539 1.64062 22.0601 1.5 21.9851C1.35938 21.9054 1.12031 21.7226 0.970313 21.5773C0.825 21.4273 0.6375 21.1882 0.5625 21.0476C0.4875 20.907 0.384375 20.6211 0.328125 20.4148C0.234375 20.0445 0.234375 19.9695 0.234375 11.5414C0.234375 4.11637 0.24375 3.00075 0.304688 2.682C0.346875 2.48512 0.445313 2.18512 0.529688 2.01637C0.609375 1.85231 0.796875 1.5945 0.9375 1.44919C1.07812 1.30856 1.30313 1.12575 1.42969 1.05075C1.56094 0.975748 1.82344 0.867935 2.01562 0.811685L2.36719 0.70856ZM2.16563 2.90231L2.15625 6.657H21.8438V2.907L21.5625 2.62575H2.42812L2.16563 2.90231ZM7.90313 12.9757C7.97813 12.9898 8.475 13.1773 9.00469 13.3976C9.53438 13.6132 11.4516 14.4195 13.2703 15.1789C15.0891 15.9382 16.6266 16.5992 16.6875 16.6367C16.7484 16.6789 16.8469 16.8007 16.9078 16.9039C16.9641 17.007 17.025 17.1617 17.0438 17.2554C17.0625 17.3445 17.0531 17.5086 17.025 17.6164C16.9922 17.7382 16.8937 17.9023 16.7719 18.0336C16.6641 18.1507 16.5187 18.2773 16.4437 18.3148C16.3734 18.3476 16.0781 18.4179 15.7875 18.4695C15.5016 18.5211 15.1453 18.6007 15.0047 18.6523C14.8641 18.6992 14.6203 18.7976 14.1844 18.9992L15.6 20.4101C16.5656 21.3711 17.0391 21.882 17.0906 21.9992C17.1281 22.0976 17.1609 22.2476 17.1609 22.3414C17.1609 22.4304 17.1281 22.5851 17.0859 22.6789C17.0484 22.7773 16.9594 22.9179 16.8891 22.9882C16.8187 23.0632 16.6734 23.1617 16.5609 23.2132C16.4531 23.2601 16.3078 23.3023 16.2328 23.3023C16.1625 23.3023 16.0219 23.2695 15.9188 23.2273C15.7828 23.1711 15.3375 22.7586 14.3156 21.7367C13.5375 20.9586 12.8906 20.3351 12.8766 20.3492C12.8672 20.3586 12.8063 20.4804 12.7359 20.6164C12.6703 20.7523 12.5625 21.0382 12.5016 21.2492C12.4406 21.4648 12.3609 21.8164 12.3328 22.0367C12.3 22.2523 12.2484 22.4867 12.2156 22.5523C12.1828 22.6132 12.0703 22.7445 11.9719 22.8382C11.8734 22.932 11.7188 23.0445 11.6297 23.0914C11.5125 23.1476 11.3859 23.1664 11.2031 23.1523C11.025 23.1429 10.8937 23.1007 10.7766 23.0211C10.6828 22.9554 10.5609 22.8382 10.5094 22.7632C10.4578 22.6836 9.62344 20.7242 8.65313 18.4039C7.53281 15.7367 6.87656 14.1054 6.8625 13.9742C6.84844 13.8429 6.86719 13.6929 6.91406 13.5757C6.95156 13.4726 7.06406 13.3132 7.15781 13.2242C7.26094 13.1211 7.40625 13.0367 7.54219 13.0039C7.66406 12.9757 7.82344 12.9617 7.90313 12.9757ZM10.3594 17.6304C10.7766 18.6195 11.1328 19.4492 11.1516 19.4679C11.1703 19.4914 11.3016 19.332 11.4422 19.1164C11.5828 18.9054 11.8969 18.5304 12.1453 18.282C12.3891 18.0382 12.7734 17.7101 13.0031 17.5554C13.2281 17.4007 13.4062 17.2742 13.4016 17.2695C13.3922 17.2648 12.5766 16.9226 11.5828 16.5054C10.5891 16.0882 9.72656 15.7273 9.66094 15.7039C9.55781 15.6664 9.54844 15.6711 9.57187 15.7414C9.59062 15.7882 9.94219 16.6367 10.3594 17.6304ZM14.2828 3.76481C14.4563 3.77419 14.5734 3.81637 14.7188 3.9195C14.8266 3.9945 14.9578 4.1445 15.0047 4.24762C15.0563 4.35075 15.0984 4.52887 15.0984 4.64606C15.0984 4.75856 15.0563 4.94137 15.0047 5.0445C14.9578 5.14762 14.8359 5.28825 14.7375 5.36325C14.6344 5.43825 14.4703 5.50387 14.3484 5.51793C14.2219 5.53668 14.0625 5.52262 13.95 5.48512C13.8469 5.45231 13.7016 5.36794 13.6266 5.30231C13.5516 5.23669 13.4484 5.10075 13.4016 4.99762C13.3547 4.8945 13.3172 4.73981 13.3172 4.65544C13.3172 4.57106 13.35 4.42575 13.3875 4.32731C13.4297 4.23356 13.5094 4.10231 13.5656 4.04137C13.6219 3.98044 13.7531 3.88669 13.8563 3.83981C13.9828 3.77887 14.1234 3.75544 14.2828 3.76481ZM16.8563 3.76481C17.0203 3.77419 17.1562 3.81637 17.2922 3.90544C17.4047 3.98044 17.5312 4.11637 17.5828 4.22418C17.6391 4.33669 17.6766 4.50543 17.6766 4.64606C17.6766 4.78668 17.6391 4.95544 17.5828 5.06793C17.5266 5.17575 17.4047 5.307 17.2875 5.382C17.175 5.457 17.0016 5.51794 16.8797 5.52731C16.7391 5.53981 16.5984 5.51637 16.4578 5.457C16.3406 5.40544 16.1906 5.29294 16.1203 5.20387C16.0547 5.11481 15.975 4.95544 15.9469 4.84294C15.9094 4.69762 15.9094 4.58981 15.9469 4.4445C15.975 4.33669 16.0453 4.17731 16.1063 4.08825C16.1625 3.99919 16.3031 3.89137 16.4156 3.83981C16.5516 3.78356 16.7016 3.75544 16.8563 3.76481ZM19.3875 3.75543C19.4906 3.75543 19.6594 3.79294 19.7625 3.83981C19.8656 3.88669 20.0062 3.9945 20.0766 4.07419C20.1516 4.15387 20.2266 4.30387 20.2547 4.39762C20.2781 4.49606 20.3016 4.60387 20.3016 4.64606C20.3016 4.68356 20.2781 4.79606 20.2547 4.88981C20.2266 4.98825 20.1516 5.13356 20.0766 5.21325C20.0062 5.29762 19.8656 5.40075 19.7625 5.44762C19.6594 5.4945 19.4906 5.532 19.3875 5.532C19.2844 5.532 19.1063 5.48512 18.9891 5.42887C18.8531 5.35856 18.7359 5.25075 18.6516 5.11481C18.5484 4.95075 18.5203 4.84762 18.5203 4.64606C18.5203 4.43044 18.5438 4.35075 18.6656 4.17262C18.75 4.05075 18.9 3.91481 19.0078 3.85387C19.1109 3.79762 19.2844 3.75543 19.3875 3.75543ZM10.7672 3.82575L10.9406 3.94293C11.0344 4.00387 11.1562 4.1445 11.2172 4.24762C11.2781 4.36481 11.3203 4.51481 11.3203 4.64606C11.3203 4.77731 11.2781 4.92731 11.2172 5.0445C11.1562 5.14762 11.0344 5.28356 10.7672 5.46637L4.3875 5.48981L4.18125 5.382C4.05937 5.32106 3.91875 5.19918 3.85312 5.09137C3.75937 4.95075 3.73125 4.84762 3.73125 4.64606C3.73125 4.43044 3.75469 4.34606 3.8625 4.19137C3.9375 4.08825 4.08281 3.957 4.19063 3.90075C4.3875 3.79762 4.39219 3.79762 10.7672 3.82575Z" fill="#333333"/>
</g>
</g>
<defs>
<clipPath id="clip0_2455_1783">
<rect width="24" height="24" fill="white"/>
</clipPath>
<clipPath id="clip1_2455_1783">
<rect width="24" height="24" fill="white"/>
</clipPath>
</defs>
</svg>
