<svg width="16" height="17" viewBox="0 0 16 17" fill="none" xmlns="http://www.w3.org/2000/svg">
<path d="M3.33333 6.49975H5.33333V16.4993H3.33333V6.49975ZM6.66667 16.4993H8.66667V4.49983H6.66667V16.4993ZM0 16.4993H2V8.49967H0V16.4993ZM16 10.4996V10.1663C16 9.11298 15.294 8.23101 14.3333 7.94169V7.16639H12.3333V7.94169C11.3727 8.23101 10.6667 9.11298 10.6667 10.1663C10.6667 11.1849 11.278 12.0875 12.224 12.4662L13.7 13.0568C13.882 13.1295 14 13.3035 14 13.5001C14 13.6841 13.85 13.8334 13.6667 13.8334H13C12.8167 13.8334 12.6667 13.6841 12.6667 13.5001V13.1668H10.6667V13.5001C10.6667 14.5534 11.3727 15.4354 12.3333 15.7247V16.5H14.3333V15.7247C15.294 15.4354 16 14.5534 16 13.5001C16 12.4815 15.3887 11.5789 14.4427 11.2002L12.9667 10.6096C12.7847 10.5369 12.6667 10.3629 12.6667 10.1663C12.6667 9.98227 12.8167 9.83294 13 9.83294H13.6667C13.85 9.83294 14 9.98227 14 10.1663V10.4996H16ZM12 2.49992H10V8.06502C10.478 7.38438 11 6.78174 12 6.34576V2.49992ZM15.3333 0.5H13.3333V5.83311H15.3333V0.5Z" fill="#374357"/>
</svg>
