<svg width="16" height="17" viewBox="0 0 16 17" fill="none" xmlns="http://www.w3.org/2000/svg">
<g clip-path="url(#clip0_2051_18203)">
<path d="M1.33333 2.5C1.33333 1.39533 2.22867 0.5 3.33333 0.5C4.438 0.5 5.33333 1.39533 5.33333 2.5C5.33333 3.60467 4.438 4.5 3.33333 4.5C2.22867 4.5 1.33333 3.60467 1.33333 2.5ZM16 12.5C16 14.7093 14.2093 16.5 12 16.5C9.79067 16.5 8 14.7093 8 12.5C8 10.2907 9.79067 8.5 12 8.5C14.2093 8.5 16 10.2907 16 12.5ZM14.4747 11.3653C14.2193 11.0993 13.7967 11.092 13.532 11.346L11.7233 13.0953C11.628 13.1893 11.4707 13.1913 11.3753 13.0967L10.4727 12.2093C10.2087 11.9507 9.78733 11.9553 9.53 12.2187C9.272 12.482 9.276 12.9033 9.53933 13.1613L10.442 14.0493C10.7487 14.3487 11.15 14.4987 11.5507 14.4987C11.9513 14.4987 12.3513 14.3487 12.6527 14.0513L14.4547 12.3087C14.72 12.0533 14.7287 11.6313 14.474 11.366L14.4747 11.3653ZM10 4.5C11.1047 4.5 12 3.60467 12 2.5C12 1.39533 11.1047 0.5 10 0.5C8.89533 0.5 8 1.39533 8 2.5C8 3.60467 8.89533 4.5 10 4.5ZM4.66667 7.83333C4.66667 8.936 5.564 9.83333 6.66667 9.83333C7.76933 9.83333 8.66667 8.936 8.66667 7.83333C8.66667 6.73067 7.76933 5.83333 6.66667 5.83333C5.564 5.83333 4.66667 6.73067 4.66667 7.83333ZM3.96867 5.91733C3.83133 5.38267 3.288 5.056 2.75067 5.19867C1.15667 5.60867 0 7.13733 0 8.83333C0 9.38533 0.447333 9.83333 1 9.83333C1.55267 9.83333 2 9.38533 2 8.83333C2 8.04867 2.53733 7.31867 3.24933 7.13467C3.784 6.99733 4.106 6.452 3.96867 5.91733ZM9.36533 5.91733C9.22733 6.45267 9.54933 6.99733 10.0847 7.13533C10.3413 7.20133 10.5853 7.34267 10.7893 7.54333C10.984 7.736 11.238 7.832 11.492 7.832C11.75 7.832 12.008 7.73267 12.204 7.53467C12.592 7.14133 12.5873 6.50867 12.1947 6.12067C11.7393 5.67133 11.1827 5.35267 10.584 5.198C10.048 5.06 9.50333 5.38267 9.36533 5.91733ZM5.418 10.532C3.824 10.942 2.66733 12.4707 2.66733 14.1667C2.66733 14.7187 3.11467 15.1667 3.66733 15.1667C4.22 15.1667 4.66733 14.7187 4.66733 14.1667C4.66733 13.382 5.20467 12.652 5.91667 12.468C6.45133 12.3307 6.77333 11.7853 6.636 11.2507C6.49867 10.716 5.954 10.3913 5.418 10.532Z" fill="#374357"/>
</g>
<defs>
<clipPath id="clip0_2051_18203">
<rect width="16" height="16" fill="white" transform="translate(0 0.5)"/>
</clipPath>
</defs>
</svg>
