<svg width="20" height="20" viewBox="0 0 20 20" fill="none" xmlns="http://www.w3.org/2000/svg">
<path fill-rule="evenodd" clip-rule="evenodd" d="M6.58203 1.25391L13.3984 1.25L13.6055 1.34766C13.7148 1.40234 13.8711 1.49609 13.9453 1.55469C14.0195 1.61719 14.1367 1.76953 14.207 1.89844C14.2734 2.02344 14.3398 2.21094 14.375 2.5H15.4219C16.2422 2.5 16.5156 2.51172 16.6992 2.5625C16.8281 2.59375 17.0352 2.67969 17.1641 2.74609C17.2891 2.81641 17.4844 2.96875 17.5977 3.08594C17.707 3.20312 17.8438 3.38672 17.8984 3.49609C17.9531 3.60156 18.0273 3.78906 18.0625 3.90625C18.1211 4.10156 18.125 4.73828 18.125 10.6055C18.125 16.2539 18.1172 17.1172 18.0664 17.3164C18.0352 17.4375 17.9609 17.6328 17.9023 17.7422C17.8477 17.8555 17.7109 18.043 17.6016 18.1602C17.4922 18.2734 17.332 18.4102 17.2461 18.4609C17.1602 18.5117 16.9766 18.5977 16.582 18.75H3.41797L3.16406 18.6523C3.02344 18.5977 2.83984 18.5117 2.75391 18.4609C2.66797 18.4102 2.50781 18.2734 2.39844 18.1602C2.28906 18.043 2.15625 17.8594 2.10156 17.7539C2.04687 17.6445 1.97266 17.4609 1.9375 17.3438C1.87891 17.1484 1.875 16.5117 1.875 10.6445C1.875 4.99609 1.88281 4.13281 1.93359 3.93359C1.96484 3.8125 2.03906 3.61719 2.09766 3.50391C2.15234 3.39453 2.29297 3.20312 2.40234 3.08594C2.51562 2.96875 2.71094 2.81641 2.83594 2.74609C2.96484 2.67969 3.17188 2.59375 3.30078 2.5625C3.48438 2.51172 3.75391 2.5 5.60547 2.5L5.63281 2.32422C5.65234 2.22656 5.70312 2.06641 5.75 1.96094C5.80078 1.85938 5.91016 1.70703 5.99609 1.62109C6.08203 1.53516 6.25 1.41797 6.36719 1.35937L6.58203 1.25391ZM6.875 3.75H13.125V2.5H6.875V3.75ZM3.25391 3.97656C3.20703 4.04688 3.15625 4.15625 3.14453 4.22656C3.13281 4.29687 3.12891 7.22266 3.13281 10.7266L3.14453 17.1016C3.27344 17.2734 3.35938 17.3594 3.41406 17.4023C3.51953 17.4805 3.58203 17.4805 10 17.4805C16.418 17.4805 16.4805 17.4805 16.5859 17.4023C16.6406 17.3594 16.7266 17.2734 16.7734 17.2109L16.8555 17.1016V4.14453C16.7266 3.97266 16.6406 3.89062 16.5859 3.84766C16.4844 3.77344 16.4102 3.76953 15.4258 3.75781L14.375 3.75C14.3398 4.03516 14.2891 4.19922 14.2383 4.29688C14.1914 4.39062 14.1055 4.52344 14.0547 4.58984C14 4.65234 13.8438 4.76562 13.707 4.84375L13.457 4.98047H6.54297C6.15625 4.76562 5.99219 4.64453 5.92969 4.57031C5.87109 4.49219 5.78516 4.36328 5.74609 4.27734C5.70703 4.19141 5.66016 4.03516 5.64844 3.93359L5.625 3.75C3.87891 3.75 3.57812 3.76562 3.48047 3.80469C3.40625 3.83203 3.30469 3.91016 3.25391 3.97656ZM7.54688 6.88281C10.1602 6.89453 10.2305 6.89453 10.3359 6.97266C10.3906 7.01562 10.4766 7.09766 10.5234 7.16016C10.5859 7.24219 10.6055 7.32812 10.6055 7.5C10.6055 7.67188 10.5859 7.75391 10.5234 7.83594C10.4766 7.89844 10.3906 7.98438 10.3359 8.02734C10.2305 8.10156 10.1562 8.10547 7.58594 8.11719C5.95312 8.125 4.89062 8.11328 4.80469 8.08984C4.73047 8.07031 4.60938 7.98828 4.54297 7.91016C4.46484 7.82812 4.40234 7.71094 4.39062 7.625C4.37891 7.54688 4.37891 7.42188 4.39062 7.35156C4.40234 7.28125 4.45703 7.17188 4.50391 7.10156C4.55469 7.03516 4.65625 6.95703 4.73047 6.92969C4.83594 6.88672 5.38281 6.87891 7.54688 6.88281ZM13.9805 10.0195L14.0898 10.1016C14.1484 10.1484 14.2344 10.2305 14.2773 10.2891C14.3359 10.3672 14.3555 10.457 14.3555 10.625C14.3555 10.7969 14.3359 10.8789 14.2734 10.9609C14.2266 11.0234 14.1406 11.1094 14.0859 11.1523C13.9805 11.2266 13.9062 11.2305 9.46094 11.2422C6.625 11.25 4.89062 11.2383 4.80469 11.2148C4.73047 11.1953 4.60938 11.1133 4.54297 11.0352C4.46484 10.9531 4.40234 10.8359 4.39062 10.75C4.37891 10.6719 4.37891 10.5469 4.39062 10.4766C4.40234 10.4063 4.45703 10.2969 4.50391 10.2266C4.55469 10.1602 4.65625 10.082 4.73047 10.0547C4.83984 10.0117 5.69922 10.0039 13.9805 10.0195ZM13.9805 13.1445L14.0898 13.2266C14.1484 13.2734 14.2344 13.3555 14.2773 13.4141C14.3359 13.4922 14.3555 13.582 14.3555 13.75C14.3555 13.9219 14.3359 14.0039 14.2734 14.0859C14.2266 14.1484 14.1406 14.2344 14.0859 14.2773C13.9805 14.3516 13.9062 14.3555 9.46094 14.3672C6.625 14.375 4.89062 14.3633 4.80469 14.3398C4.73047 14.3203 4.60938 14.2383 4.54297 14.1602C4.46484 14.0781 4.40234 13.9609 4.39062 13.875C4.37891 13.7969 4.37891 13.6719 4.39062 13.6016C4.40234 13.5313 4.45703 13.4219 4.50391 13.3516C4.55469 13.2852 4.65625 13.207 4.73047 13.1797C4.83984 13.1367 5.69922 13.1289 13.9805 13.1445Z" fill="#222754"/>
</svg>
