<svg width="12" height="11" viewBox="0 0 12 11" fill="none" xmlns="http://www.w3.org/2000/svg">
<path d="M12 5.70429C11.9958 5.26921 11.8141 4.85324 11.4943 4.54652L7.81714 0.990481C7.65655 0.836455 7.4393 0.75 7.21286 0.75C6.98641 0.75 6.76917 0.836455 6.60857 0.990481C6.52823 1.06736 6.46447 1.15883 6.42095 1.2596C6.37744 1.36038 6.35503 1.46847 6.35503 1.57764C6.35503 1.68681 6.37744 1.7949 6.42095 1.89568C6.46447 1.99645 6.52823 2.08792 6.60857 2.1648L9.42857 4.87731H0.857143C0.629815 4.87731 0.411797 4.96444 0.251052 5.11953C0.090306 5.27462 0 5.48496 0 5.70429C0 5.92362 0.090306 6.13397 0.251052 6.28906C0.411797 6.44415 0.629815 6.53128 0.857143 6.53128H9.42857L6.60857 9.25206C6.44717 9.40669 6.35604 9.61684 6.35524 9.83629C6.35443 10.0557 6.44402 10.2665 6.60429 10.4222C6.76455 10.578 6.98237 10.6659 7.20983 10.6667C7.43728 10.6674 7.65574 10.581 7.81714 10.4264L11.4943 6.87034C11.8162 6.56159 11.9981 6.14225 12 5.70429Z" fill="#FFB92B"/>
</svg>
