<svg width="16" height="16" viewBox="0 0 16 16" fill="none" xmlns="http://www.w3.org/2000/svg">
<g id="ic_arrow">
<path id="Path" fill-rule="evenodd" clip-rule="evenodd" d="M3.09988 7.06143L7.76963 11.8656C7.83634 11.9343 7.9131 11.9688 7.99993 11.9688C8.08676 11.9688 8.16366 11.9343 8.23041 11.8656L12.8998 7.06143C12.9667 6.9926 13 6.91363 13 6.82426C13 6.73492 12.9666 6.65584 12.8998 6.58716L12.3989 6.07184C12.3321 6.00313 12.2552 5.96879 12.1684 5.96879C12.0816 5.96879 12.0047 6.00313 11.9379 6.07184L7.99993 10.1234L4.06181 6.07159C3.99506 6.00287 3.91816 5.96875 3.83147 5.96875C3.7445 5.96875 3.66764 6.00309 3.60089 6.07159L3.09992 6.58713C3.03317 6.65581 3 6.73492 3 6.82422C2.99996 6.91363 3.03313 6.99271 3.09988 7.06143Z" fill="#8B97A9"/>
</g>
</svg>
