<svg width="40" height="40" viewBox="0 0 40 40" fill="none" xmlns="http://www.w3.org/2000/svg">
<path d="M16.6667 23.333V31.6663C16.6667 36.268 12.935 39.9997 8.33333 39.9997C3.73167 39.9997 0 36.268 0 31.6663V23.333H16.6667ZM10.8333 31.6663C10.8333 30.2863 9.71333 29.1663 8.33333 29.1663C6.95333 29.1663 5.83333 30.2863 5.83333 31.6663C5.83333 33.0463 6.95333 34.1663 8.33333 34.1663C9.71333 34.1663 10.8333 33.0463 10.8333 31.6663ZM16.6667 23.333V31.6663C16.6667 36.268 12.935 39.9997 8.33333 39.9997C3.73167 39.9997 0 36.268 0 31.6663V23.333H16.6667ZM10.8333 31.6663C10.8333 30.2863 9.71333 29.1663 8.33333 29.1663C6.95333 29.1663 5.83333 30.2863 5.83333 31.6663C5.83333 33.0463 6.95333 34.1663 8.33333 34.1663C9.71333 34.1663 10.8333 33.0463 10.8333 31.6663ZM16.4983 39.9997H40V23.333H33.1667L16.4983 39.9997Z" fill="#F65A03"/>
<path d="M20 31.7871V31.6671H20.0017V8.21546L24.8333 3.38379L36.6183 15.1688L20 31.7871Z" fill="#F67803"/>
<path d="M0 11.667V20.0003H16.6667V11.667H0Z" fill="#F67803"/>
<path d="M16.6667 0V8.33333H0V0H16.6667Z" fill="#F9A14F"/>
</svg>
