<svg width="20" height="20" viewBox="0 0 20 20" fill="none" xmlns="http://www.w3.org/2000/svg">
<g id="file - 2024-02-23T144229.646 1" clip-path="url(#clip0_2081_936)">
<path id="Path 0" fill-rule="evenodd" clip-rule="evenodd" d="M16.8944 0.00390625C17.0429 0.00390625 17.1288 0.0273438 17.246 0.109375C17.3319 0.167969 17.4335 0.277344 17.4687 0.351562C17.5038 0.425781 17.5937 0.875 17.7929 2.20703L18.7108 2.34375C19.4062 2.45312 19.6562 2.50391 19.746 2.56641C19.8085 2.60938 19.8944 2.70703 19.9296 2.78906C19.9687 2.86719 19.9999 2.99219 19.9999 3.06641C19.9999 3.14062 19.9726 3.26953 19.9413 3.35156C19.8983 3.44922 19.4804 3.89453 18.6405 4.73828C17.9608 5.42188 17.3358 6.01562 17.2538 6.05859C17.1757 6.09766 17.0624 6.13281 16.9999 6.13281C16.9413 6.13281 16.4765 6.06641 15.0429 5.83984L9.16006 11.7695L9.17178 12.0469C9.1835 12.2656 9.16788 12.375 9.09756 12.5586C9.03506 12.7148 8.94131 12.8594 8.8085 12.9922C8.67569 13.125 8.53897 13.2187 8.38663 13.2734C8.24209 13.3281 8.07413 13.3594 7.91006 13.3594C7.746 13.3594 7.57803 13.3281 7.42959 13.2734C7.28116 13.2187 7.14053 13.125 7.00772 12.9922C6.87491 12.8594 6.78116 12.7188 6.72647 12.5664C6.67178 12.4219 6.64053 12.2539 6.64053 12.0898C6.64053 11.9219 6.66788 11.7617 6.72647 11.6094C6.78116 11.4727 6.88272 11.3203 6.99209 11.2109C7.08975 11.1133 7.25381 10.9883 7.36319 10.9375C7.52725 10.8555 7.61709 10.8398 8.24209 10.8398L14.1405 4.94141L14.0038 4.03125C13.9296 3.53516 13.8671 3.06641 13.8671 2.99609C13.8671 2.92188 13.914 2.79688 13.9804 2.69531C14.0429 2.59766 14.6249 1.99219 15.2773 1.34375C15.9296 0.695313 16.5194 0.132812 16.5819 0.0859375C16.664 0.0273438 16.7577 0.00390625 16.8944 0.00390625ZM15.1913 3.26172C15.3437 4.28906 15.3944 4.59375 15.3983 4.59766C15.4062 4.60156 15.7069 4.65234 16.0741 4.70703L16.7382 4.80859C17.6913 3.85156 17.9687 3.56641 17.9687 3.55469C17.9687 3.54297 17.8085 3.51172 17.6093 3.48438C17.4101 3.45312 17.1757 3.41406 17.0898 3.39453C17.0038 3.375 16.8866 3.3125 16.8241 3.26172C16.7655 3.20703 16.6952 3.11719 16.664 3.05469C16.6327 2.99609 16.5819 2.74219 16.5468 2.48828C16.5116 2.23828 16.4687 2.03125 16.453 2.03125C16.4374 2.03125 16.1483 2.30859 15.8085 2.64453L15.1913 3.26172ZM8.08584 4.20312C8.44131 4.21094 8.89053 4.24219 9.08194 4.27344C9.27725 4.30469 9.58194 4.36719 9.76553 4.41016C9.94913 4.45312 10.246 4.53906 10.4296 4.60156C10.6132 4.66406 10.8944 4.77344 11.0546 4.83984C11.2148 4.90625 11.4882 5.04297 11.6601 5.13672C11.8319 5.23047 11.9687 5.32422 11.9687 5.33984C11.9648 5.35937 11.8241 5.60156 11.6562 5.87891C11.4921 6.16016 11.3515 6.39453 11.3515 6.39844C11.3476 6.40625 11.1562 6.3125 10.9179 6.19531C10.6835 6.07812 10.3671 5.9375 10.2148 5.88281C10.0663 5.82422 9.77334 5.73437 9.57022 5.68359C9.36709 5.62891 9.00772 5.5625 8.76944 5.53125C8.53506 5.5 8.14834 5.47266 7.91006 5.47266C7.67569 5.47266 7.29678 5.49609 7.07022 5.52734C6.84366 5.55859 6.54678 5.60937 6.40616 5.64062C6.26553 5.67578 6.04678 5.73437 5.91788 5.77734C5.78897 5.81641 5.52725 5.91797 5.33194 5.99609C5.14053 6.07812 4.83975 6.22266 4.66788 6.32031C4.496 6.41797 4.20694 6.60547 4.02334 6.73437C3.84366 6.86719 3.53506 7.125 3.34366 7.30469C3.15225 7.48828 2.88272 7.77734 2.746 7.94922C2.60928 8.12109 2.39444 8.42188 2.27334 8.61328C2.15616 8.80859 1.97256 9.15234 1.871 9.375C1.76944 9.60156 1.63272 9.97266 1.56631 10.1953C1.49991 10.4219 1.41788 10.7578 1.38272 10.9375C1.35147 11.1211 1.31241 11.5273 1.30069 11.8359C1.28897 12.1797 1.29678 12.5586 1.32413 12.793C1.35147 13.0078 1.39834 13.3164 1.42959 13.4766C1.46475 13.6406 1.55069 13.957 1.62491 14.1797C1.69913 14.4062 1.86709 14.8008 1.996 15.0586C2.12491 15.3203 2.34756 15.6953 2.49209 15.8984C2.63272 16.1055 2.97256 16.4922 3.24209 16.7617C3.51163 17.0312 3.89834 17.3672 4.10147 17.5117C4.30459 17.6562 4.6835 17.8789 4.94131 18.0078C5.19913 18.1367 5.59366 18.3008 5.82022 18.375C6.04678 18.4492 6.36319 18.5391 6.52334 18.5703C6.6835 18.6055 6.99209 18.6523 7.20694 18.6758C7.44131 18.707 7.82413 18.7148 8.16397 18.6992C8.47647 18.6875 8.89053 18.6484 9.08194 18.6133C9.27725 18.5781 9.58194 18.5078 9.76553 18.4531C9.94913 18.3984 10.2812 18.2773 10.5077 18.1836C10.7343 18.0898 11.0858 17.9102 11.289 17.7852C11.4921 17.6602 11.7733 17.4727 11.914 17.3672C12.0546 17.2578 12.3163 17.0312 12.496 16.8594C12.6757 16.6875 12.9374 16.4023 13.0741 16.2305C13.2108 16.0625 13.4257 15.7617 13.5429 15.5664C13.664 15.375 13.8476 15.0273 13.953 14.7969C14.0546 14.5664 14.1913 14.207 14.2538 13.9961C14.3163 13.7852 14.3983 13.4375 14.4374 13.2227C14.496 12.9258 14.5116 12.6562 14.5116 12.0703C14.5116 11.4336 14.496 11.2383 14.4218 10.8594C14.371 10.6133 14.2694 10.2266 14.1913 10C14.1171 9.77734 13.953 9.38672 13.5937 8.67188L13.7226 8.59766C13.789 8.55469 14.0312 8.40625 14.2577 8.26562C14.6327 8.03516 14.6718 8.01953 14.7187 8.07812C14.746 8.11719 14.8437 8.29688 14.9413 8.47656C15.0351 8.66016 15.1835 8.99609 15.2733 9.21875C15.3632 9.44531 15.496 9.85938 15.5663 10.1367C15.6405 10.418 15.7265 10.9023 15.7655 11.2109C15.8124 11.625 15.8241 11.9336 15.8046 12.3438C15.7929 12.6562 15.7577 13.0859 15.7226 13.3008C15.6913 13.5156 15.6093 13.8945 15.5429 14.1406C15.4765 14.3906 15.3515 14.7656 15.2694 14.9805C15.1835 15.1953 15.0155 15.5586 14.8944 15.7812C14.7773 16.0078 14.5937 16.3164 14.4921 16.4648C14.3905 16.6172 14.1952 16.8828 14.0585 17.0508C13.9218 17.2227 13.6679 17.5078 13.496 17.6758C13.3241 17.8477 13.0507 18.0977 12.8905 18.2305C12.7304 18.3594 12.4296 18.5781 12.2265 18.7109C12.0233 18.8438 11.6796 19.043 11.4648 19.1523C11.2499 19.2617 10.8983 19.4141 10.6835 19.4961C10.4687 19.5781 10.1171 19.6875 9.90225 19.7422C9.68741 19.7969 9.29678 19.8789 9.03506 19.9219C8.6835 19.9805 8.37881 20 7.91006 20C7.40225 20 7.14444 19.9805 6.71084 19.9062C6.40225 19.8555 5.94131 19.75 5.6835 19.6758C5.42569 19.6016 5.06631 19.4766 4.88272 19.3984C4.69913 19.3203 4.38272 19.168 4.17959 19.0586C3.97647 18.9492 3.68741 18.7773 3.53506 18.6758C3.38663 18.5742 3.121 18.3789 2.94913 18.2422C2.77725 18.1055 2.496 17.8516 2.32413 17.6797C2.15225 17.5078 1.90225 17.2344 1.77334 17.0703C1.64053 16.9102 1.41788 16.6016 1.27725 16.3867C1.13663 16.1719 0.913969 15.7773 0.785063 15.5078C0.656157 15.2422 0.484282 14.8281 0.406157 14.5898C0.328032 14.3555 0.222563 13.9609 0.171782 13.7109C0.121001 13.4648 0.0585007 13.0547 0.0350632 12.793C0.00771942 12.5195 -9.30778e-05 12.0977 0.0155319 11.7773C0.0272507 11.4766 0.0663132 11.0664 0.0975632 10.8594C0.132719 10.6562 0.210844 10.2891 0.277251 10.0391C0.343657 9.79297 0.468657 9.41406 0.550688 9.19922C0.636626 8.98438 0.804594 8.625 0.925688 8.39844C1.04288 8.17578 1.22647 7.86719 1.32803 7.71484C1.42959 7.56641 1.61709 7.3125 1.746 7.14844C1.871 6.98828 2.13272 6.69922 2.32803 6.50781C2.51944 6.31641 2.8085 6.05469 2.96866 5.92578C3.12881 5.79687 3.42178 5.58594 3.61319 5.46094C3.8085 5.33203 4.17569 5.125 4.4335 5C4.69131 4.875 5.11319 4.69922 5.371 4.61328C5.62881 4.52344 6.05069 4.41016 6.3085 4.35547C6.56631 4.30078 6.92569 4.24219 7.10928 4.22266C7.29288 4.20312 7.73038 4.19531 8.08584 4.20312ZM8.06631 7.71875C8.34366 7.73047 8.67959 7.76953 8.88663 7.81641C9.08194 7.85938 9.246 7.90625 9.25772 7.91406C9.26944 7.92578 9.19913 8.16797 9.10538 8.45312C9.01163 8.73437 8.91788 9.00781 8.86709 9.14062L8.64444 9.07812C8.48428 9.03125 8.26944 9.00781 7.91006 9.00781C7.54288 9.00781 7.33194 9.02734 7.14834 9.07422C7.00772 9.11328 6.77334 9.20312 6.621 9.27344C6.47256 9.34375 6.26163 9.46094 6.15225 9.53516C6.04678 9.60547 5.871 9.74609 5.76553 9.84375C5.66006 9.94141 5.49991 10.125 5.41006 10.2539C5.32022 10.3828 5.19131 10.5938 5.12491 10.7227C5.06241 10.8516 4.96866 11.0898 4.91788 11.25C4.83584 11.5039 4.82413 11.6211 4.82803 12.1094C4.82803 12.6484 4.83584 12.6992 4.95694 13.0469C5.02725 13.2539 5.12881 13.5 5.18741 13.5938C5.24209 13.6914 5.33975 13.8398 5.40616 13.9258C5.46866 14.0117 5.58584 14.1523 5.66006 14.2344C5.73819 14.3164 5.89834 14.4609 6.01553 14.5508C6.13272 14.6445 6.35538 14.7812 6.50381 14.8555C6.65616 14.9336 6.91006 15.0352 7.07022 15.0859C7.32022 15.1641 7.44522 15.1758 7.91006 15.1758C8.23428 15.1758 8.52725 15.1523 8.63272 15.125C8.73038 15.0977 8.92178 15.0273 9.06241 14.9727C9.20303 14.918 9.44131 14.793 9.58975 14.6953C9.74209 14.6016 9.94913 14.4414 10.0546 14.3398C10.1601 14.2422 10.3202 14.0547 10.414 13.9258C10.5038 13.7969 10.6405 13.5625 10.7187 13.3984C10.7929 13.2383 10.8866 13 10.9179 12.8711C10.953 12.7422 10.9921 12.4609 11.0038 12.2461C11.0194 11.9648 11.0077 11.7656 10.9608 11.5234C10.9218 11.3438 10.8905 11.168 10.8866 11.1328C10.8827 11.0938 11.0429 11.0195 12.0702 10.6641L12.1288 10.8711C12.164 10.9844 12.2148 11.2422 12.246 11.4453C12.2773 11.6523 12.3046 11.9414 12.3046 12.0898C12.3046 12.2422 12.2773 12.5391 12.246 12.7539C12.2108 12.9688 12.1327 13.3047 12.0663 13.4961C12.0038 13.6914 11.8788 13.9805 11.7929 14.1406C11.703 14.3047 11.5507 14.5508 11.4452 14.6875C11.3437 14.8281 11.1015 15.0938 10.914 15.2773C10.7226 15.457 10.4179 15.6992 10.2343 15.8125C10.0507 15.9258 9.76944 16.0742 9.60928 16.1406C9.44913 16.207 9.14834 16.3047 8.94522 16.3594C8.61709 16.4492 8.496 16.4609 7.91006 16.4609C7.32413 16.4609 7.20303 16.4492 6.87491 16.3594C6.67178 16.3047 6.371 16.207 6.21084 16.1406C6.05069 16.0742 5.76944 15.9258 5.58584 15.8164C5.35928 15.6797 5.11709 15.4766 4.82022 15.1797C4.52725 14.8867 4.32413 14.6406 4.18741 14.4141C4.07413 14.2344 3.92959 13.9531 3.86319 13.7891C3.79678 13.6289 3.69913 13.332 3.64444 13.125C3.58975 12.9102 3.54288 12.5781 3.52725 12.3242C3.51553 12.0664 3.52334 11.7578 3.55459 11.543C3.57803 11.3516 3.64444 11.043 3.69913 10.8594C3.74991 10.6797 3.85538 10.3984 3.9335 10.2344C4.00772 10.0742 4.14834 9.82031 4.24991 9.66797C4.35147 9.51953 4.56631 9.25781 4.72647 9.08984C4.88663 8.91797 5.11709 8.70703 5.23428 8.61719C5.35147 8.52734 5.57413 8.37891 5.72256 8.29297C5.87491 8.20312 6.15616 8.07031 6.34756 7.99609C6.54288 7.92187 6.83975 7.83203 7.01163 7.80078C7.1835 7.76562 7.38663 7.73047 7.46084 7.72266C7.53506 7.71094 7.8085 7.71094 8.06631 7.71875Z" fill="#222754"/>
</g>
<defs>
<clipPath id="clip0_2081_936">
<rect width="20" height="20" fill="white"/>
</clipPath>
</defs>
</svg>
