<svg width="20" height="20" viewBox="0 0 20 20" fill="none" xmlns="http://www.w3.org/2000/svg">
<g clip-path="url(#clip0_793_53018)">
<path fill-rule="evenodd" clip-rule="evenodd" d="M12.5 0L12.6406 0.0898438C12.7188 0.136719 12.8164 0.242188 12.8555 0.324219C12.9219 0.453125 12.9297 0.570312 12.9297 2.34375H13.0859C13.1719 2.34375 13.3125 2.37891 13.3984 2.42188C13.5026 2.47396 13.5807 2.55208 13.6328 2.65625C13.707 2.80859 13.7109 2.89062 13.7109 8.10547L15.1875 8.84766C16.582 9.55078 16.6641 9.59766 16.7461 9.74609C16.832 9.89453 16.8359 9.94531 16.8359 11.6211L17.9219 12.168C18.9297 12.6758 19.0117 12.7266 19.1797 13.0273V18.8281H19.3555C19.4531 18.8281 19.6016 18.8633 19.6875 18.9062C19.7917 18.9583 19.8698 19.0365 19.9219 19.1406C19.9648 19.2266 20 19.3516 20 19.4141C20 19.4766 19.9688 19.5977 19.9258 19.6758C19.8867 19.7578 19.7891 19.8633 19.5703 20H0.429688L0.289062 19.9102C0.210938 19.8633 0.113281 19.7578 0.0742188 19.6758C0.03125 19.5977 0 19.4766 0 19.4141C0 19.3516 0.0351562 19.2266 0.078125 19.1406C0.130208 19.0365 0.208333 18.9583 0.3125 18.9062C0.398438 18.8633 0.546875 18.8281 0.820312 18.8281V16.8164C0.820312 14.8828 0.824219 14.7969 0.898438 14.6484C0.950521 14.5443 1.02865 14.4661 1.13281 14.4141C1.27734 14.3438 1.36719 14.3359 3.16406 14.3359V9.98047C3.16406 5.70312 3.16406 5.62109 3.24219 5.46875C3.29427 5.36458 3.3724 5.28646 3.47656 5.23438C3.625 5.16016 3.71094 5.15625 6.28906 5.15625V3.98438C6.28906 2.89062 6.29297 2.80078 6.36719 2.65625C6.41927 2.55208 6.4974 2.47396 6.60156 2.42188C6.6875 2.37891 6.82812 2.34375 7.07031 2.34375V1.40625C7.07031 0.570312 7.07812 0.453125 7.14453 0.320312C7.18359 0.242188 7.27344 0.136719 7.34766 0.0898438C7.48047 0.0078125 7.48438 0.0078125 12.5 0ZM8.24219 2.34375H11.7578V1.17188H8.24219V2.34375ZM7.46094 5.15625C8.47656 5.15625 8.57812 5.16797 8.71094 5.23438C8.8151 5.28646 8.89323 5.36458 8.94531 5.46875C9.02344 5.625 9.02344 5.70312 9.02344 12.2266V18.8281H10.9766V7.55859C11.1133 7.32422 11.2148 7.22266 11.2891 7.18359C11.3633 7.14062 11.4883 7.10938 11.5625 7.10938C11.6445 7.10938 11.8633 7.1875 12.1094 7.30469C12.3359 7.41406 12.5234 7.5 12.5273 7.5C12.5352 7.5 12.5391 6.60547 12.5391 5.50781V3.51562H7.46094V5.15625ZM4.33594 14.3359C6.13281 14.3359 6.22266 14.3438 6.36719 14.4141C6.47135 14.4661 6.54948 14.5443 6.60156 14.6484C6.67578 14.7969 6.67969 14.8828 6.67969 16.8164V18.8281H7.85156V6.32812H4.33594V14.3359ZM12.1484 18.8281H15.6641V10.4102C12.9688 9.0625 12.1797 8.67188 12.168 8.67188C12.1562 8.67188 12.1484 10.957 12.1484 13.75V18.8281ZM16.8359 18.8281H18.0078V13.5352C17.1289 13.0977 16.8672 12.9688 16.8555 12.9688C16.8438 12.9688 16.8359 14.2891 16.8359 15.8984V18.8281ZM1.99219 18.8281H3.16406C3.16406 17.4219 3.17188 17.3281 3.24219 17.1875C3.29427 17.0833 3.3724 17.0052 3.47656 16.9531C3.5625 16.9102 3.68359 16.875 3.75 16.875C3.81641 16.875 3.9375 16.9102 4.02344 16.9531C4.1276 17.0052 4.20573 17.0833 4.25781 17.1875C4.32812 17.3281 4.33594 17.4219 4.33594 18.0859V18.8281H5.50781V15.5078H1.99219V18.8281ZM6.08594 7.5C6.15234 7.5 6.28125 7.53516 6.36719 7.57812C6.47135 7.63021 6.54948 7.70833 6.60156 7.8125C6.67188 7.95312 6.67969 8.04688 6.67969 8.67188C6.67969 9.29688 6.67188 9.39062 6.60156 9.53125C6.54948 9.63542 6.47135 9.71354 6.36719 9.76562C6.28125 9.80859 6.16016 9.84375 6.09375 9.84375C6.02734 9.84375 5.90625 9.80859 5.82031 9.76562C5.71615 9.71354 5.63802 9.63542 5.58594 9.53125C5.51562 9.39062 5.50781 9.29688 5.50781 8.67188C5.50781 8.04688 5.51562 7.95312 5.58594 7.8125C5.63672 7.71484 5.71875 7.62891 5.80859 7.57812C5.89062 7.53906 6.01562 7.50391 6.08203 7.5H6.08594ZM6.08594 11.0156C6.15625 11.0156 6.28516 11.0508 6.37109 11.0938C6.47526 11.1458 6.55339 11.224 6.60547 11.3281C6.67578 11.4688 6.68359 11.5625 6.68359 12.1875C6.68359 12.8125 6.67578 12.9062 6.60547 13.0469C6.55339 13.151 6.47526 13.2292 6.37109 13.2812C6.28516 13.3242 6.16406 13.3594 6.09766 13.3594C6.03125 13.3594 5.91016 13.3242 5.82422 13.2812C5.72005 13.2292 5.64193 13.151 5.58984 13.0469C5.51953 12.9062 5.51172 12.8125 5.51172 12.1875C5.51172 11.5625 5.51953 11.4688 5.58984 11.3281C5.64062 11.2305 5.72266 11.1445 5.8125 11.0938C5.89453 11.0547 6.01953 11.0195 6.08594 11.0156ZM13.9023 11.4062C13.9688 11.4062 14.0977 11.4414 14.1836 11.4844C14.2878 11.5365 14.3659 11.6146 14.418 11.7188C14.4883 11.8594 14.4961 11.9531 14.4961 12.5781C14.4961 13.2031 14.4883 13.2969 14.418 13.4375C14.3659 13.5417 14.2878 13.6198 14.1836 13.6719C14.0977 13.7148 13.9727 13.75 13.9102 13.75C13.8477 13.75 13.7227 13.7148 13.6367 13.6719C13.5326 13.6198 13.4544 13.5417 13.4023 13.4375C13.332 13.2969 13.3242 13.2031 13.3242 12.5781C13.3242 11.9531 13.332 11.8594 13.4023 11.7188C13.4531 11.6211 13.5352 11.5352 13.6289 11.4844C13.707 11.4453 13.832 11.4102 13.9023 11.4062ZM13.9023 14.9219C13.9688 14.9219 14.0977 14.957 14.1836 15C14.2878 15.0521 14.3659 15.1302 14.418 15.2344C14.4883 15.375 14.4961 15.4688 14.4961 16.0938C14.4961 16.7188 14.4883 16.8125 14.418 16.9531C14.3659 17.0573 14.2878 17.1354 14.1836 17.1875C14.0977 17.2305 13.9727 17.2656 13.9102 17.2656C13.8477 17.2656 13.7227 17.2305 13.6367 17.1875C13.5326 17.1354 13.4544 17.0573 13.4023 16.9531C13.332 16.8125 13.3242 16.7188 13.3242 16.0938C13.3242 15.4688 13.332 15.375 13.4023 15.2344C13.4531 15.1367 13.5352 15.0508 13.6289 15C13.707 14.9609 13.832 14.9258 13.9023 14.9219Z" fill="#ACB9CB"/>
</g>
<defs>
<clipPath id="clip0_793_53018">
<rect width="20" height="20" fill="white"/>
</clipPath>
</defs>
</svg>
