<svg width="16" height="16" viewBox="0 0 16 16" fill="none" xmlns="http://www.w3.org/2000/svg">
<g id="free-icon-font-chart-histogram-5528042 (1) 1" clip-path="url(#clip0_2081_1011)">
<path id="Vector" d="M15 14H3.66667C3.22464 14 2.80072 13.8244 2.48816 13.5118C2.17559 13.1993 2 12.7754 2 12.3333V1C2 0.734784 1.89464 0.48043 1.70711 0.292893C1.51957 0.105357 1.26522 0 1 0C0.734784 0 0.48043 0.105357 0.292893 0.292893C0.105357 0.48043 0 0.734784 0 1L0 12.3333C0.00105878 13.3055 0.387707 14.2375 1.07511 14.9249C1.76252 15.6123 2.69453 15.9989 3.66667 16H15C15.2652 16 15.5196 15.8946 15.7071 15.7071C15.8946 15.5196 16 15.2652 16 15C16 14.7348 15.8946 14.4804 15.7071 14.2929C15.5196 14.1054 15.2652 14 15 14Z" fill="#F15A2B"/>
<path id="Vector_2" d="M6.33325 6C6.06804 6 5.81368 6.10536 5.62615 6.29289C5.43861 6.48043 5.33325 6.73478 5.33325 7V11.6667C5.33325 11.9319 5.43861 12.1862 5.62615 12.3738C5.81368 12.5613 6.06804 12.6667 6.33325 12.6667C6.59847 12.6667 6.85282 12.5613 7.04036 12.3738C7.2279 12.1862 7.33325 11.9319 7.33325 11.6667V7C7.33325 6.73478 7.2279 6.48043 7.04036 6.29289C6.85282 6.10536 6.59847 6 6.33325 6Z" fill="#F15A2B"/>
<path id="Vector_3" d="M9.33325 9V11.6667C9.33325 11.9319 9.43861 12.1862 9.62615 12.3738C9.81368 12.5613 10.068 12.6667 10.3333 12.6667C10.5985 12.6667 10.8528 12.5613 11.0404 12.3738C11.2279 12.1862 11.3333 11.9319 11.3333 11.6667V9C11.3333 8.73478 11.2279 8.48043 11.0404 8.29289C10.8528 8.10536 10.5985 8 10.3333 8C10.068 8 9.81368 8.10536 9.62615 8.29289C9.43861 8.48043 9.33325 8.73478 9.33325 9Z" fill="#F15A2B"/>
<path id="Vector_4" d="M13.3333 6.33301V11.6663C13.3333 11.9316 13.4386 12.1859 13.6261 12.3734C13.8137 12.561 14.068 12.6663 14.3333 12.6663C14.5985 12.6663 14.8528 12.561 15.0404 12.3734C15.2279 12.1859 15.3333 11.9316 15.3333 11.6663V6.33301C15.3333 6.06779 15.2279 5.81344 15.0404 5.6259C14.8528 5.43836 14.5985 5.33301 14.3333 5.33301C14.068 5.33301 13.8137 5.43836 13.6261 5.6259C13.4386 5.81344 13.3333 6.06779 13.3333 6.33301Z" fill="#F15A2B"/>
<path id="Vector_5" d="M3.99996 5.00027C4.22694 5.00075 4.44721 4.92332 4.62396 4.78093L6.14263 3.56693C6.44929 3.32074 6.83611 3.19654 7.22877 3.2182C7.62143 3.23986 7.99224 3.40584 8.26996 3.68427C8.9109 4.31706 9.76471 4.68819 10.6646 4.72517C11.5645 4.76216 12.4459 4.46233 13.1366 3.88427L15.646 1.76093C15.7529 1.6783 15.8419 1.57485 15.9078 1.45684C15.9736 1.33883 16.0148 1.20871 16.0289 1.07433C16.0431 0.939943 16.0298 0.804089 15.99 0.674968C15.9502 0.545847 15.8846 0.426137 15.7972 0.323067C15.7098 0.219997 15.6025 0.135704 15.4816 0.0752801C15.3607 0.0148558 15.2289 -0.0204472 15.094 -0.0284972C14.9591 -0.0365472 14.824 -0.0171772 14.6968 0.0284432C14.5696 0.0740637 14.453 0.144988 14.354 0.236934L11.8453 2.36027C11.538 2.61648 11.1463 2.7489 10.7466 2.73164C10.3469 2.71438 9.96799 2.54868 9.68396 2.26693C9.05868 1.63989 8.22384 1.26586 7.33967 1.21665C6.45551 1.16743 5.58431 1.44649 4.8933 2.00027L3.3753 3.2196C3.21357 3.34907 3.09605 3.52557 3.03896 3.72471C2.98187 3.92385 2.98805 4.13581 3.05662 4.33129C3.1252 4.52678 3.2528 4.69614 3.42178 4.81598C3.59077 4.93581 3.7928 5.00021 3.99996 5.00027Z" fill="#F15A2B"/>
</g>
<defs>
<clipPath id="clip0_2081_1011">
<rect width="16" height="16" fill="white"/>
</clipPath>
</defs>
</svg>
