<svg width="16" height="16" viewBox="0 0 16 16" fill="none" xmlns="http://www.w3.org/2000/svg">
<path fill-rule="evenodd" clip-rule="evenodd" d="M3.50973 6.24512C3.50973 2.80154 6.31137 0 9.7548 0C13.1984 0 15.9999 2.80154 16 6.24512C16 9.68845 13.1985 12.4901 9.75493 12.4901C8.3623 12.4901 6.99937 12.0174 5.90357 11.1569L3.79927 13.2612L5.25807 14.72C5.39989 14.8614 5.47784 15.0499 5.47784 15.2502C5.47784 15.4504 5.39977 15.6388 5.25807 15.7802C5.11637 15.922 4.92809 16 4.7279 16C4.52745 16 4.33917 15.9219 4.19773 15.7802L2.73879 14.3215L1.28012 15.7802C1.13842 15.922 0.950136 16 0.749818 16C0.5495 16 0.361213 15.9219 0.219646 15.7802C0.0779514 15.6388 0 15.4504 0 15.2502C0 15.0499 0.0780794 14.8614 0.219646 14.72L1.67845 13.2612L0.219646 11.8022C0.0779514 11.6608 0 11.4724 0 11.2722C0 11.072 0.0779514 10.8837 0.219518 10.742C0.361213 10.6002 0.549372 10.5224 0.74969 10.5224C0.950008 10.5224 1.13842 10.6003 1.27999 10.742L2.73867 12.201L4.84297 10.0964C3.98243 9.0007 3.50973 7.63763 3.50973 6.24512ZM5.00977 6.2456C5.00977 8.8623 7.13864 10.9909 9.7552 10.9909C12.3719 10.9909 14.5008 8.8623 14.5008 6.2456C14.5008 3.6289 12.3719 1.5 9.7552 1.5C7.13864 1.5 5.00977 3.6289 5.00977 6.2456Z" fill="#FF268B"/>
</svg>
