<svg width="16" height="16" viewBox="0 0 16 16" fill="none" xmlns="http://www.w3.org/2000/svg">
<g clip-path="url(#clip0_2690_64079)">
<path d="M1.80313 0.103125C1.69687 0.171875 1.62813 0.25 1.575 0.359375C1.5125 0.4875 1.5 0.5625 1.5 0.78125V1.04688C1.29375 1.1125 1.14375 1.18125 1.03125 1.24375C0.91875 1.30625 0.746875 1.4375 0.646875 1.5375C0.525 1.6625 0.43125 1.79688 0.346875 1.97812C0.278125 2.11875 0.209375 2.31875 0.190625 2.42188C0.171875 2.525 0.15625 2.6875 0.15625 2.78125C0.15625 2.875 0.184375 3.06562 0.21875 3.20312C0.25625 3.34063 0.328125 3.5375 0.384375 3.6375C0.440625 3.74063 0.56875 3.90937 0.675 4.0125C0.778125 4.11875 0.946875 4.24687 1.05 4.30312C1.15 4.35938 1.34687 4.43125 1.48438 4.46875C1.67813 4.51875 1.83125 4.53125 2.15625 4.53125C2.53437 4.53125 2.59375 4.5375 2.71563 4.6C2.8125 4.65 2.875 4.7125 2.92812 4.8125C2.97187 4.9 3 5.00625 3 5.09375C3.00312 5.1875 2.97813 5.26875 2.93125 5.34062C2.89062 5.4 2.81875 5.47812 2.77187 5.5125C2.69062 5.57187 2.63437 5.57812 2.08437 5.5875C1.52812 5.59375 1.47812 5.59062 1.38125 5.53125C1.30625 5.48438 1.27813 5.44063 1.2625 5.35313C1.25313 5.2875 1.23125 5.18125 1.21563 5.11875C1.2 5.04688 1.1375 4.95 1.0625 4.875C0.984375 4.79688 0.8875 4.7375 0.803125 4.71562C0.73125 4.69687 0.609375 4.69062 0.53125 4.7C0.453125 4.7125 0.340625 4.75313 0.28125 4.79063C0.221875 4.82812 0.134375 4.92188 0.0875 5C0.0125 5.11875 0 5.17188 0 5.35938C0 5.50521 0.021875 5.63542 0.065625 5.75C0.103125 5.84375 0.1625 5.98438 0.203125 6.0625C0.240625 6.14062 0.3375 6.26875 0.41875 6.35313C0.496875 6.43438 0.628125 6.54375 0.709375 6.59375C0.79375 6.64687 0.95 6.71562 1.0625 6.75C1.175 6.78438 1.31875 6.81875 1.38125 6.82812L1.5 6.84375C1.49688 7.25625 1.5125 7.325 1.58438 7.46562C1.65625 7.60938 1.7 7.65312 1.84375 7.725C1.9375 7.775 2.06562 7.81563 2.125 7.8125C2.18438 7.8125 2.30312 7.77813 2.39062 7.7375C2.49375 7.6875 2.57812 7.61562 2.64062 7.525C2.72187 7.40625 2.73125 7.35938 2.74375 7.10938L2.75625 6.82812C3.03125 6.75938 3.20937 6.69062 3.32812 6.63125C3.47187 6.55937 3.61875 6.45 3.75312 6.31563C3.89062 6.175 3.99062 6.04063 4.05937 5.89062C4.11875 5.77187 4.18438 5.58125 4.20625 5.46875C4.23125 5.35625 4.25 5.18125 4.25 5.07812C4.25 4.975 4.23125 4.8 4.20625 4.6875C4.18125 4.575 4.11562 4.38438 4.05937 4.26562C3.98437 4.10938 3.8875 3.98125 3.71875 3.8125C3.59063 3.68438 3.4125 3.54063 3.32812 3.49375C3.24062 3.44688 3.05938 3.38125 2.92188 3.34375C2.72813 3.29375 2.575 3.28125 2.24062 3.28125C1.89687 3.28125 1.79062 3.27187 1.69687 3.225C1.63437 3.19687 1.54688 3.125 1.50312 3.06562C1.43437 2.975 1.42188 2.925 1.42188 2.7625C1.42188 2.6125 1.4375 2.54688 1.4875 2.47813C1.525 2.43125 1.59375 2.3625 1.6375 2.32812C1.70938 2.275 1.78125 2.26562 2.11875 2.25625C2.39688 2.25 2.54375 2.25937 2.60625 2.2875C2.65625 2.30937 2.7125 2.3625 2.73438 2.40625C2.75625 2.45 2.78125 2.54688 2.79375 2.625C2.80313 2.70312 2.85 2.82188 2.9 2.89062C2.95312 2.96875 3.04688 3.04375 3.14062 3.09063C3.2625 3.15 3.33437 3.1625 3.45625 3.15313C3.57187 3.14375 3.65625 3.1125 3.75312 3.04688C3.82812 2.99375 3.91875 2.89062 3.95937 2.8125C4.00625 2.725 4.03125 2.61875 4.03125 2.53125C4.03125 2.45312 4.00938 2.30312 3.98438 2.19375C3.95937 2.0875 3.9 1.925 3.85625 1.83438C3.80938 1.74688 3.67812 1.58125 3.56562 1.46875C3.44375 1.34687 3.2875 1.22812 3.1875 1.18125C3.09375 1.1375 2.95625 1.08437 2.88125 1.06562L2.75 1.03125C2.73438 0.465625 2.72187 0.403125 2.65625 0.296875C2.6125 0.23125 2.51562 0.134375 2.4375 0.0875C2.32812 0.01875 2.25938 0 2.125 0C1.98438 0 1.925 0.01875 1.80313 0.103125ZM12.5938 0.075C12.5 0.115625 12.3625 0.175 12.2875 0.2125C12.2156 0.25 12.0719 0.365625 11.9688 0.46875C11.8656 0.571875 11.7406 0.740625 11.6875 0.84375C11.6375 0.946875 11.5719 1.1125 11.5469 1.20938C11.5063 1.36875 11.5 2.22188 11.5 8.06875V14.75H7L7.01562 6.4375L7.1875 6.26562L8.78125 6.25L8.98438 6.43125L9.01562 12.7344C9.15625 12.9781 9.22188 13.0375 9.34688 13.1031C9.44063 13.15 9.56563 13.1875 9.625 13.1875C9.68437 13.1875 9.80625 13.1531 9.89062 13.1125C9.99063 13.0625 10.0813 12.9875 10.1406 12.9L10.2344 12.7656C10.25 6.78125 10.2437 6.36875 10.2031 6.20312C10.175 6.1 10.1156 5.9375 10.0688 5.84375C10.0219 5.75 9.89375 5.58125 9.78125 5.46875C9.66875 5.35625 9.5 5.22813 9.40625 5.18125C9.3125 5.13438 9.15 5.075 9.04688 5.04688C8.9 5.00938 8.67813 5 8 5C7.33437 5 7.1 5.00938 6.95937 5.04688C6.8625 5.07188 6.69688 5.13438 6.59375 5.1875C6.49062 5.24062 6.32188 5.36562 6.21875 5.46875C6.11562 5.57188 5.99062 5.74062 5.9375 5.84375C5.88438 5.94688 5.82188 6.1125 5.79688 6.20937C5.75625 6.36562 5.75 6.95 5.75 10.5688V14.75H1.25L1.26562 10.775L1.46875 10.5938H3.03125L3.25 10.8125L3.24688 12.6719C3.40937 12.9875 3.45312 13.0312 3.59687 13.1031C3.69062 13.15 3.81562 13.1906 3.875 13.1875C3.93438 13.1875 4.05937 13.15 4.15312 13.1031C4.26562 13.0469 4.35312 12.9719 4.40312 12.8938L4.48438 12.7719C4.5 10.9062 4.49375 10.7031 4.45312 10.5469C4.425 10.4438 4.36562 10.2812 4.31875 10.1875C4.27187 10.0938 4.14375 9.925 4.03125 9.8125C3.91875 9.7 3.75 9.57187 3.65625 9.525C3.5625 9.47812 3.4 9.41875 3.29688 9.39062C3.15 9.35312 2.92812 9.34375 2.25 9.34375C1.58438 9.34375 1.35 9.35312 1.20938 9.39062C1.1125 9.41562 0.94375 9.48125 0.834375 9.5375C0.728125 9.59063 0.5625 9.7125 0.465625 9.80937C0.36875 9.90625 0.25 10.0625 0.203125 10.1562C0.15625 10.25 0.090625 10.4062 0.05625 10.5C0.003125 10.6625 0 10.8062 0 13.0938L0.003125 15.5156C0.14375 15.7656 0.221875 15.85 0.31875 15.9094L0.46875 16H15.5312C15.7469 15.8656 15.8469 15.7719 15.8938 15.7031C15.95 15.6198 15.9833 15.5208 15.9937 15.4062C16.0094 15.2594 15.9969 15.2125 15.9281 15.0844C15.8813 15.0031 15.7875 14.9 15.7125 14.85L15.5813 14.7656L12.75 14.75V1.46875L12.9312 1.26562L14.5312 1.25L14.7344 1.43125L14.7656 12.7656C14.9187 12.9875 15.0094 13.0625 15.1094 13.1125C15.1938 13.1531 15.3156 13.1875 15.375 13.1875C15.4344 13.1875 15.5531 13.1531 15.6406 13.1125C15.75 13.0594 15.8281 12.9906 15.8969 12.8844L16 12.7344C16 2.10938 15.9937 1.36875 15.9531 1.20938C15.9281 1.1125 15.8625 0.94375 15.8062 0.834375C15.7531 0.728125 15.6313 0.5625 15.5344 0.465625C15.4375 0.36875 15.2875 0.25625 15.2031 0.2125C15.1156 0.165625 14.9688 0.103125 14.875 0.065625C14.7125 0.003125 14.6469 0 13.7344 0.003125C12.8062 0.00625 12.7594 0.00937501 12.5938 0.075Z" fill="#222754"/>
</g>
<defs>
<clipPath id="clip0_2690_64079">
<rect width="16" height="16" fill="white"/>
</clipPath>
</defs>
</svg>
