<svg width="401" height="199" viewBox="0 0 401 199" fill="none" xmlns="http://www.w3.org/2000/svg">
<path d="M1 181H398" stroke="#CCCCCC" stroke-dasharray="4 2"/>
<path d="M1 119H398" stroke="#CCCCCC" stroke-dasharray="4 2"/>
<path d="M3 61H400" stroke="#CCCCCC" stroke-dasharray="4 2"/>
<path d="M1 1H398" stroke="#CCCCCC" stroke-dasharray="4 2"/>
<path d="M1 2V179" stroke="#CCCCCC" stroke-dasharray="4 2"/>
<path d="M102 2V179" stroke="#CCCCCC" stroke-dasharray="4 2"/>
<path d="M201 2V179" stroke="#CCCCCC" stroke-dasharray="4 2"/>
<path d="M301 2V179" stroke="#CCCCCC" stroke-dasharray="4 2"/>
<path d="M400 1V179" stroke="#CCCCCC" stroke-dasharray="4 2"/>
<path d="M4.972 196.072C4.324 196.072 3.744 195.9 3.232 195.556C2.728 195.212 2.332 194.72 2.044 194.08C1.764 193.432 1.624 192.672 1.624 191.8C1.624 190.928 1.764 190.172 2.044 189.532C2.332 188.884 2.728 188.388 3.232 188.044C3.744 187.7 4.324 187.528 4.972 187.528C5.62 187.528 6.196 187.7 6.7 188.044C7.212 188.388 7.612 188.884 7.9 189.532C8.188 190.172 8.332 190.928 8.332 191.8C8.332 192.672 8.188 193.432 7.9 194.08C7.612 194.72 7.212 195.212 6.7 195.556C6.196 195.9 5.62 196.072 4.972 196.072ZM4.972 195.28C5.46 195.28 5.888 195.144 6.256 194.872C6.632 194.6 6.924 194.204 7.132 193.684C7.34 193.164 7.444 192.536 7.444 191.8C7.444 191.064 7.34 190.436 7.132 189.916C6.924 189.396 6.632 189 6.256 188.728C5.888 188.456 5.46 188.32 4.972 188.32C4.484 188.32 4.052 188.456 3.676 188.728C3.308 189 3.02 189.396 2.812 189.916C2.604 190.436 2.5 191.064 2.5 191.8C2.5 192.536 2.604 193.164 2.812 193.684C3.02 194.204 3.308 194.6 3.676 194.872C4.052 195.144 4.484 195.28 4.972 195.28ZM11.3453 192.1C10.7773 192.1 10.3173 191.892 9.96531 191.476C9.62131 191.052 9.44931 190.5 9.44931 189.82C9.44931 189.14 9.62131 188.592 9.96531 188.176C10.3173 187.752 10.7773 187.54 11.3453 187.54C11.9053 187.54 12.3613 187.748 12.7133 188.164C13.0653 188.58 13.2413 189.132 13.2413 189.82C13.2413 190.508 13.0653 191.06 12.7133 191.476C12.3613 191.892 11.9053 192.1 11.3453 192.1ZM16.4333 187.6H17.1413L11.4053 196H10.6973L16.4333 187.6ZM11.3453 191.56C11.7373 191.56 12.0493 191.408 12.2813 191.104C12.5213 190.792 12.6413 190.364 12.6413 189.82C12.6413 189.276 12.5213 188.852 12.2813 188.548C12.0493 188.236 11.7373 188.08 11.3453 188.08C10.9453 188.08 10.6293 188.236 10.3973 188.548C10.1653 188.86 10.0493 189.284 10.0493 189.82C10.0493 190.356 10.1653 190.78 10.3973 191.092C10.6293 191.404 10.9453 191.56 11.3453 191.56ZM16.4933 196.06C15.9333 196.06 15.4773 195.852 15.1253 195.436C14.7733 195.012 14.5973 194.46 14.5973 193.78C14.5973 193.1 14.7733 192.552 15.1253 192.136C15.4773 191.712 15.9333 191.5 16.4933 191.5C17.0613 191.5 17.5173 191.712 17.8613 192.136C18.2133 192.552 18.3893 193.1 18.3893 193.78C18.3893 194.46 18.2133 195.012 17.8613 195.436C17.5173 195.852 17.0613 196.06 16.4933 196.06ZM16.4933 195.52C16.8933 195.52 17.2093 195.364 17.4413 195.052C17.6733 194.74 17.7893 194.316 17.7893 193.78C17.7893 193.244 17.6733 192.82 17.4413 192.508C17.2093 192.196 16.8933 192.04 16.4933 192.04C16.1013 192.04 15.7853 192.196 15.5453 192.508C15.3133 192.812 15.1973 193.236 15.1973 193.78C15.1973 194.324 15.3133 194.752 15.5453 195.064C15.7853 195.368 16.1013 195.52 16.4933 195.52Z" fill="#333333"/>
<path d="M96.1354 195.232V196H90.2434V195.388L93.7354 191.968C94.1754 191.536 94.4714 191.164 94.6234 190.852C94.7834 190.532 94.8634 190.212 94.8634 189.892C94.8634 189.396 94.6914 189.012 94.3474 188.74C94.0114 188.46 93.5274 188.32 92.8954 188.32C91.9114 188.32 91.1474 188.632 90.6034 189.256L89.9914 188.728C90.3194 188.344 90.7354 188.048 91.2394 187.84C91.7514 187.632 92.3274 187.528 92.9674 187.528C93.8234 187.528 94.4994 187.732 94.9954 188.14C95.4994 188.54 95.7514 189.092 95.7514 189.796C95.7514 190.228 95.6554 190.644 95.4634 191.044C95.2714 191.444 94.9074 191.904 94.3714 192.424L91.5154 195.232H96.1354ZM99.4277 191.044C100.644 191.044 101.528 191.264 102.08 191.704C102.64 192.136 102.92 192.744 102.92 193.528C102.92 194.016 102.804 194.452 102.572 194.836C102.348 195.22 102.008 195.524 101.552 195.748C101.096 195.964 100.536 196.072 99.8717 196.072C99.2717 196.072 98.6997 195.976 98.1557 195.784C97.6197 195.584 97.1877 195.32 96.8597 194.992L97.2797 194.308C97.5597 194.596 97.9277 194.832 98.3837 195.016C98.8397 195.192 99.3317 195.28 99.8597 195.28C100.556 195.28 101.092 195.124 101.468 194.812C101.852 194.5 102.044 194.084 102.044 193.564C102.044 192.988 101.828 192.552 101.396 192.256C100.972 191.96 100.252 191.812 99.2357 191.812H97.4477L97.8797 187.6H102.476V188.368H98.6357L98.3477 191.044H99.4277ZM105.675 192.1C105.107 192.1 104.647 191.892 104.295 191.476C103.951 191.052 103.779 190.5 103.779 189.82C103.779 189.14 103.951 188.592 104.295 188.176C104.647 187.752 105.107 187.54 105.675 187.54C106.235 187.54 106.691 187.748 107.043 188.164C107.395 188.58 107.571 189.132 107.571 189.82C107.571 190.508 107.395 191.06 107.043 191.476C106.691 191.892 106.235 192.1 105.675 192.1ZM110.763 187.6H111.471L105.735 196H105.027L110.763 187.6ZM105.675 191.56C106.067 191.56 106.379 191.408 106.611 191.104C106.851 190.792 106.971 190.364 106.971 189.82C106.971 189.276 106.851 188.852 106.611 188.548C106.379 188.236 106.067 188.08 105.675 188.08C105.275 188.08 104.959 188.236 104.727 188.548C104.495 188.86 104.379 189.284 104.379 189.82C104.379 190.356 104.495 190.78 104.727 191.092C104.959 191.404 105.275 191.56 105.675 191.56ZM110.823 196.06C110.263 196.06 109.807 195.852 109.455 195.436C109.103 195.012 108.927 194.46 108.927 193.78C108.927 193.1 109.103 192.552 109.455 192.136C109.807 191.712 110.263 191.5 110.823 191.5C111.391 191.5 111.847 191.712 112.191 192.136C112.543 192.552 112.719 193.1 112.719 193.78C112.719 194.46 112.543 195.012 112.191 195.436C111.847 195.852 111.391 196.06 110.823 196.06ZM110.823 195.52C111.223 195.52 111.539 195.364 111.771 195.052C112.003 194.74 112.119 194.316 112.119 193.78C112.119 193.244 112.003 192.82 111.771 192.508C111.539 192.196 111.223 192.04 110.823 192.04C110.431 192.04 110.115 192.196 109.875 192.508C109.643 192.812 109.527 193.236 109.527 193.78C109.527 194.324 109.643 194.752 109.875 195.064C110.115 195.368 110.431 195.52 110.823 195.52Z" fill="#333333"/>
<path d="M192.486 191.044C193.702 191.044 194.586 191.264 195.138 191.704C195.698 192.136 195.978 192.744 195.978 193.528C195.978 194.016 195.862 194.452 195.63 194.836C195.406 195.22 195.066 195.524 194.61 195.748C194.154 195.964 193.594 196.072 192.93 196.072C192.33 196.072 191.758 195.976 191.214 195.784C190.678 195.584 190.246 195.32 189.918 194.992L190.338 194.308C190.618 194.596 190.986 194.832 191.442 195.016C191.898 195.192 192.39 195.28 192.918 195.28C193.614 195.28 194.15 195.124 194.526 194.812C194.91 194.5 195.102 194.084 195.102 193.564C195.102 192.988 194.886 192.552 194.454 192.256C194.03 191.96 193.31 191.812 192.294 191.812H190.506L190.938 187.6H195.534V188.368H191.694L191.406 191.044H192.486ZM200.423 196.072C199.775 196.072 199.195 195.9 198.683 195.556C198.179 195.212 197.783 194.72 197.495 194.08C197.215 193.432 197.075 192.672 197.075 191.8C197.075 190.928 197.215 190.172 197.495 189.532C197.783 188.884 198.179 188.388 198.683 188.044C199.195 187.7 199.775 187.528 200.423 187.528C201.071 187.528 201.647 187.7 202.151 188.044C202.663 188.388 203.063 188.884 203.351 189.532C203.639 190.172 203.783 190.928 203.783 191.8C203.783 192.672 203.639 193.432 203.351 194.08C203.063 194.72 202.663 195.212 202.151 195.556C201.647 195.9 201.071 196.072 200.423 196.072ZM200.423 195.28C200.911 195.28 201.339 195.144 201.707 194.872C202.083 194.6 202.375 194.204 202.583 193.684C202.791 193.164 202.895 192.536 202.895 191.8C202.895 191.064 202.791 190.436 202.583 189.916C202.375 189.396 202.083 189 201.707 188.728C201.339 188.456 200.911 188.32 200.423 188.32C199.935 188.32 199.503 188.456 199.127 188.728C198.759 189 198.471 189.396 198.263 189.916C198.055 190.436 197.951 191.064 197.951 191.8C197.951 192.536 198.055 193.164 198.263 193.684C198.471 194.204 198.759 194.6 199.127 194.872C199.503 195.144 199.935 195.28 200.423 195.28ZM206.796 192.1C206.228 192.1 205.768 191.892 205.416 191.476C205.072 191.052 204.9 190.5 204.9 189.82C204.9 189.14 205.072 188.592 205.416 188.176C205.768 187.752 206.228 187.54 206.796 187.54C207.356 187.54 207.812 187.748 208.164 188.164C208.516 188.58 208.692 189.132 208.692 189.82C208.692 190.508 208.516 191.06 208.164 191.476C207.812 191.892 207.356 192.1 206.796 192.1ZM211.884 187.6H212.592L206.856 196H206.148L211.884 187.6ZM206.796 191.56C207.188 191.56 207.5 191.408 207.732 191.104C207.972 190.792 208.092 190.364 208.092 189.82C208.092 189.276 207.972 188.852 207.732 188.548C207.5 188.236 207.188 188.08 206.796 188.08C206.396 188.08 206.08 188.236 205.848 188.548C205.616 188.86 205.5 189.284 205.5 189.82C205.5 190.356 205.616 190.78 205.848 191.092C206.08 191.404 206.396 191.56 206.796 191.56ZM211.944 196.06C211.384 196.06 210.928 195.852 210.576 195.436C210.224 195.012 210.048 194.46 210.048 193.78C210.048 193.1 210.224 192.552 210.576 192.136C210.928 191.712 211.384 191.5 211.944 191.5C212.512 191.5 212.968 191.712 213.312 192.136C213.664 192.552 213.84 193.1 213.84 193.78C213.84 194.46 213.664 195.012 213.312 195.436C212.968 195.852 212.512 196.06 211.944 196.06ZM211.944 195.52C212.344 195.52 212.66 195.364 212.892 195.052C213.124 194.74 213.24 194.316 213.24 193.78C213.24 193.244 213.124 192.82 212.892 192.508C212.66 192.196 212.344 192.04 211.944 192.04C211.552 192.04 211.236 192.196 210.996 192.508C210.764 192.812 210.648 193.236 210.648 193.78C210.648 194.324 210.764 194.752 210.996 195.064C211.236 195.368 211.552 195.52 211.944 195.52Z" fill="#333333"/>
<path d="M296.316 187.6V188.212L292.8 196H291.864L295.32 188.368H291V189.94H290.148V187.6H296.316ZM299.439 191.044C300.655 191.044 301.539 191.264 302.091 191.704C302.651 192.136 302.931 192.744 302.931 193.528C302.931 194.016 302.815 194.452 302.583 194.836C302.359 195.22 302.019 195.524 301.563 195.748C301.107 195.964 300.547 196.072 299.883 196.072C299.283 196.072 298.711 195.976 298.167 195.784C297.631 195.584 297.199 195.32 296.871 194.992L297.291 194.308C297.571 194.596 297.939 194.832 298.395 195.016C298.851 195.192 299.343 195.28 299.871 195.28C300.567 195.28 301.103 195.124 301.479 194.812C301.863 194.5 302.055 194.084 302.055 193.564C302.055 192.988 301.839 192.552 301.407 192.256C300.983 191.96 300.263 191.812 299.247 191.812H297.459L297.891 187.6H302.487V188.368H298.647L298.359 191.044H299.439ZM305.687 192.1C305.119 192.1 304.659 191.892 304.307 191.476C303.963 191.052 303.791 190.5 303.791 189.82C303.791 189.14 303.963 188.592 304.307 188.176C304.659 187.752 305.119 187.54 305.687 187.54C306.247 187.54 306.703 187.748 307.055 188.164C307.407 188.58 307.583 189.132 307.583 189.82C307.583 190.508 307.407 191.06 307.055 191.476C306.703 191.892 306.247 192.1 305.687 192.1ZM310.775 187.6H311.483L305.747 196H305.039L310.775 187.6ZM305.687 191.56C306.079 191.56 306.391 191.408 306.623 191.104C306.863 190.792 306.983 190.364 306.983 189.82C306.983 189.276 306.863 188.852 306.623 188.548C306.391 188.236 306.079 188.08 305.687 188.08C305.287 188.08 304.971 188.236 304.739 188.548C304.507 188.86 304.391 189.284 304.391 189.82C304.391 190.356 304.507 190.78 304.739 191.092C304.971 191.404 305.287 191.56 305.687 191.56ZM310.835 196.06C310.275 196.06 309.819 195.852 309.467 195.436C309.115 195.012 308.939 194.46 308.939 193.78C308.939 193.1 309.115 192.552 309.467 192.136C309.819 191.712 310.275 191.5 310.835 191.5C311.403 191.5 311.859 191.712 312.203 192.136C312.555 192.552 312.731 193.1 312.731 193.78C312.731 194.46 312.555 195.012 312.203 195.436C311.859 195.852 311.403 196.06 310.835 196.06ZM310.835 195.52C311.235 195.52 311.551 195.364 311.783 195.052C312.015 194.74 312.131 194.316 312.131 193.78C312.131 193.244 312.015 192.82 311.783 192.508C311.551 192.196 311.235 192.04 310.835 192.04C310.443 192.04 310.127 192.196 309.887 192.508C309.655 192.812 309.539 193.236 309.539 193.78C309.539 194.324 309.655 194.752 309.887 195.064C310.127 195.368 310.443 195.52 310.835 195.52Z" fill="#333333"/>
<path d="M370.864 187.6V196H370V188.368H368.02V187.6H370.864ZM376.22 196.072C375.572 196.072 374.992 195.9 374.48 195.556C373.976 195.212 373.58 194.72 373.292 194.08C373.012 193.432 372.872 192.672 372.872 191.8C372.872 190.928 373.012 190.172 373.292 189.532C373.58 188.884 373.976 188.388 374.48 188.044C374.992 187.7 375.572 187.528 376.22 187.528C376.868 187.528 377.444 187.7 377.948 188.044C378.46 188.388 378.86 188.884 379.148 189.532C379.436 190.172 379.58 190.928 379.58 191.8C379.58 192.672 379.436 193.432 379.148 194.08C378.86 194.72 378.46 195.212 377.948 195.556C377.444 195.9 376.868 196.072 376.22 196.072ZM376.22 195.28C376.708 195.28 377.136 195.144 377.504 194.872C377.88 194.6 378.172 194.204 378.38 193.684C378.588 193.164 378.692 192.536 378.692 191.8C378.692 191.064 378.588 190.436 378.38 189.916C378.172 189.396 377.88 189 377.504 188.728C377.136 188.456 376.708 188.32 376.22 188.32C375.732 188.32 375.3 188.456 374.924 188.728C374.556 189 374.268 189.396 374.06 189.916C373.852 190.436 373.748 191.064 373.748 191.8C373.748 192.536 373.852 193.164 374.06 193.684C374.268 194.204 374.556 194.6 374.924 194.872C375.3 195.144 375.732 195.28 376.22 195.28ZM384.165 196.072C383.517 196.072 382.937 195.9 382.425 195.556C381.921 195.212 381.525 194.72 381.237 194.08C380.957 193.432 380.817 192.672 380.817 191.8C380.817 190.928 380.957 190.172 381.237 189.532C381.525 188.884 381.921 188.388 382.425 188.044C382.937 187.7 383.517 187.528 384.165 187.528C384.813 187.528 385.389 187.7 385.893 188.044C386.405 188.388 386.805 188.884 387.093 189.532C387.381 190.172 387.525 190.928 387.525 191.8C387.525 192.672 387.381 193.432 387.093 194.08C386.805 194.72 386.405 195.212 385.893 195.556C385.389 195.9 384.813 196.072 384.165 196.072ZM384.165 195.28C384.653 195.28 385.081 195.144 385.449 194.872C385.825 194.6 386.117 194.204 386.325 193.684C386.533 193.164 386.637 192.536 386.637 191.8C386.637 191.064 386.533 190.436 386.325 189.916C386.117 189.396 385.825 189 385.449 188.728C385.081 188.456 384.653 188.32 384.165 188.32C383.677 188.32 383.245 188.456 382.869 188.728C382.501 189 382.213 189.396 382.005 189.916C381.797 190.436 381.693 191.064 381.693 191.8C381.693 192.536 381.797 193.164 382.005 193.684C382.213 194.204 382.501 194.6 382.869 194.872C383.245 195.144 383.677 195.28 384.165 195.28ZM390.539 192.1C389.971 192.1 389.511 191.892 389.159 191.476C388.815 191.052 388.643 190.5 388.643 189.82C388.643 189.14 388.815 188.592 389.159 188.176C389.511 187.752 389.971 187.54 390.539 187.54C391.099 187.54 391.555 187.748 391.907 188.164C392.259 188.58 392.435 189.132 392.435 189.82C392.435 190.508 392.259 191.06 391.907 191.476C391.555 191.892 391.099 192.1 390.539 192.1ZM395.627 187.6H396.335L390.599 196H389.891L395.627 187.6ZM390.539 191.56C390.931 191.56 391.243 191.408 391.475 191.104C391.715 190.792 391.835 190.364 391.835 189.82C391.835 189.276 391.715 188.852 391.475 188.548C391.243 188.236 390.931 188.08 390.539 188.08C390.139 188.08 389.823 188.236 389.591 188.548C389.359 188.86 389.243 189.284 389.243 189.82C389.243 190.356 389.359 190.78 389.591 191.092C389.823 191.404 390.139 191.56 390.539 191.56ZM395.687 196.06C395.127 196.06 394.671 195.852 394.319 195.436C393.967 195.012 393.791 194.46 393.791 193.78C393.791 193.1 393.967 192.552 394.319 192.136C394.671 191.712 395.127 191.5 395.687 191.5C396.255 191.5 396.711 191.712 397.055 192.136C397.407 192.552 397.583 193.1 397.583 193.78C397.583 194.46 397.407 195.012 397.055 195.436C396.711 195.852 396.255 196.06 395.687 196.06ZM395.687 195.52C396.087 195.52 396.403 195.364 396.635 195.052C396.867 194.74 396.983 194.316 396.983 193.78C396.983 193.244 396.867 192.82 396.635 192.508C396.403 192.196 396.087 192.04 395.687 192.04C395.295 192.04 394.979 192.196 394.739 192.508C394.507 192.812 394.391 193.236 394.391 193.78C394.391 194.324 394.507 194.752 394.739 195.064C394.979 195.368 395.295 195.52 395.687 195.52Z" fill="#333333"/>
</svg>
