<svg width="16" height="16" viewBox="0 0 16 16" fill="none" xmlns="http://www.w3.org/2000/svg">
<path fill-rule="evenodd" clip-rule="evenodd" d="M6.89375 11.85C6.92136 11.85 6.94375 11.8276 6.94375 11.8C6.94375 11.7724 6.92136 11.75 6.89375 11.75C6.86614 11.75 6.84375 11.7724 6.84375 11.8C6.84375 11.8276 6.86614 11.85 6.89375 11.85Z" fill="#ACB9CB"/>
<path fill-rule="evenodd" clip-rule="evenodd" d="M7.19528 12.125C7.18166 12.125 7.16916 12.1161 7.16525 12.1023C7.15647 12.0716 7.14837 12.0443 7.14097 12.0192C7.09244 11.8553 7.07031 11.7804 7.07031 11.4688C7.07031 11.4515 7.08431 11.4375 7.10156 11.4375C7.11881 11.4375 7.13281 11.4515 7.13281 11.4688C7.13281 11.7713 7.15275 11.8387 7.20091 12.0014C7.20837 12.0267 7.21653 12.0542 7.22534 12.0852C7.23009 12.1018 7.22047 12.119 7.20388 12.1238C7.20103 12.1246 7.19813 12.125 7.19528 12.125Z" fill="#ACB9CB"/>
<path fill-rule="evenodd" clip-rule="evenodd" d="M6.56448 12.125C6.56163 12.125 6.55876 12.1246 6.55588 12.1238C6.53929 12.1191 6.52967 12.1018 6.53442 12.0852C6.54323 12.0542 6.55138 12.0267 6.55885 12.0014C6.60701 11.8387 6.62695 11.7713 6.62695 11.4688C6.62695 11.4515 6.64095 11.4375 6.6582 11.4375C6.67545 11.4375 6.68945 11.4515 6.68945 11.4688C6.68945 11.7804 6.66732 11.8552 6.61879 12.0192C6.61135 12.0443 6.60326 12.0716 6.59451 12.1023C6.5906 12.116 6.57807 12.125 6.56448 12.125Z" fill="#ACB9CB"/>
<path fill-rule="evenodd" clip-rule="evenodd" d="M7.25195 12.1625H6.50195C6.4847 12.1625 6.4707 12.1401 6.4707 12.1125C6.4707 12.0849 6.4847 12.0625 6.50195 12.0625H7.25195C7.2692 12.0625 7.2832 12.0849 7.2832 12.1125C7.2832 12.1401 7.2692 12.1625 7.25195 12.1625Z" fill="#ACB9CB"/>
<path fill-rule="evenodd" clip-rule="evenodd" d="M7.10117 11.5375H6.6582C6.64095 11.5375 6.62695 11.5151 6.62695 11.4875C6.62695 11.4599 6.64095 11.4375 6.6582 11.4375H7.10117C7.11842 11.4375 7.13242 11.4599 7.13242 11.4875C7.13242 11.5151 7.11842 11.5375 7.10117 11.5375Z" fill="#ACB9CB"/>
<path fill-rule="evenodd" clip-rule="evenodd" d="M6.96855 11.7831C6.96855 11.7838 6.96836 11.7845 6.96833 11.7852H7.0277C7.02683 11.7297 6.99608 11.6817 6.9508 11.6562L6.92383 11.7036C6.95058 11.72 6.96855 11.7493 6.96855 11.7831Z" fill="#ACB9CB"/>
<path fill-rule="evenodd" clip-rule="evenodd" d="M7.02772 11.8164H6.96834C6.95994 11.8164 6.95187 11.8131 6.946 11.807C6.94012 11.801 6.93694 11.7929 6.93709 11.7845C6.93712 11.7838 6.93719 11.7827 6.93728 11.7817C6.93681 11.7606 6.92572 11.7414 6.90744 11.7302C6.89309 11.7213 6.88834 11.7027 6.89669 11.6881L6.92369 11.6408C6.93219 11.6259 6.95112 11.6206 6.96612 11.629C7.02237 11.6606 7.05794 11.7202 7.059 11.7847C7.05912 11.793 7.05591 11.8011 7.05003 11.8071C7.04412 11.8131 7.03609 11.8164 7.02772 11.8164Z" fill="#ACB9CB"/>
<path fill-rule="evenodd" clip-rule="evenodd" d="M6.87586 11.8771C6.86005 11.8771 6.84539 11.8714 6.83233 11.8621L6.80273 11.9319C6.82498 11.9492 6.85073 11.9594 6.87833 11.9594C6.90592 11.9594 6.93167 11.9493 6.95392 11.9319L6.92314 11.8594C6.9092 11.8704 6.8932 11.8771 6.87586 11.8771Z" fill="#ACB9CB"/>
<path fill-rule="evenodd" clip-rule="evenodd" d="M6.87832 11.9651C6.84638 11.9651 6.81479 11.9565 6.787 11.9404C6.77219 11.9317 6.7671 11.9128 6.7756 11.8979L6.80522 11.8459C6.81357 11.8313 6.832 11.8259 6.84697 11.8338C6.86697 11.8444 6.88822 11.8436 6.90732 11.8324C6.9145 11.8282 6.92316 11.827 6.93122 11.8292C6.93932 11.8313 6.94619 11.8366 6.95032 11.8439L6.9811 11.8979C6.9896 11.9128 6.9845 11.9317 6.96969 11.9404C6.94185 11.9565 6.91029 11.9651 6.87832 11.9651Z" fill="#ACB9CB"/>
<path fill-rule="evenodd" clip-rule="evenodd" d="M6.78081 11.7831C6.78081 11.7478 6.80047 11.7175 6.82928 11.7015L6.80347 11.6562C6.75819 11.6817 6.72744 11.7297 6.72656 11.7852H6.78103C6.781 11.7845 6.78081 11.7838 6.78081 11.7831Z" fill="#ACB9CB"/>
<path fill-rule="evenodd" clip-rule="evenodd" d="M6.78104 11.8164H6.72657C6.71819 11.8164 6.71016 11.8131 6.70429 11.8071C6.69841 11.8011 6.69516 11.793 6.69532 11.7847C6.69635 11.7202 6.73194 11.6606 6.78819 11.629C6.80319 11.6206 6.82213 11.6259 6.83063 11.6408L6.85644 11.686C6.86057 11.6933 6.86166 11.7019 6.85938 11.7099C6.85713 11.718 6.85176 11.7248 6.84444 11.7289C6.82491 11.7397 6.8126 11.7599 6.8121 11.7817C6.81219 11.7827 6.81226 11.7838 6.81229 11.7845C6.81244 11.7929 6.80926 11.801 6.80338 11.807C6.79751 11.813 6.78944 11.8164 6.78104 11.8164Z" fill="#ACB9CB"/>
<path fill-rule="evenodd" clip-rule="evenodd" d="M6.96094 10.5543C6.96094 10.8304 7.18409 11.0547 7.46094 11.0547C7.73744 11.0547 7.96094 10.8304 7.96094 10.5543C7.96094 10.2782 7.73744 10.0547 7.46094 10.0547C7.18406 10.0547 6.96094 10.2782 6.96094 10.5543Z" fill="#ACB9CB"/>
<path fill-rule="evenodd" clip-rule="evenodd" d="M12.9632 15H13.4998C13.7759 15 13.9998 15.2239 13.9998 15.5C13.9998 15.7761 13.776 16 13.4998 16H12.589H12.5872H12.5858H2.50172H2.50025H2.49853H1.5C1.22387 16 1 15.7761 1 15.5C1 15.2238 1.22387 15 1.5 15H2.12425C2.19272 14.6596 2.25942 14.4691 2.32303 14.2875C2.35287 14.2023 2.38203 14.119 2.41037 14.0231L2.4107 14.022C3.18097 11.4188 3.49997 10.3407 3.49997 5.49994C3.49997 5.22384 3.72384 5 3.99997 5H11.0875C11.3636 5 11.5875 5.22387 11.5875 5.5C11.5875 10.3407 11.9065 11.4188 12.6767 14.0218L12.6771 14.0231C12.7054 14.119 12.7346 14.2023 12.7644 14.2875C12.828 14.4691 12.8947 14.6597 12.9632 15ZM4.49763 6C4.47359 10.5 4.1185 11.7755 3.36934 14.3068C3.34804 14.3788 3.32634 14.4786 3.30427 14.58C3.25933 14.7865 3.21287 15 3.16525 15H11.9222C11.8746 15 11.8281 14.7865 11.7832 14.58C11.7611 14.4786 11.7394 14.3788 11.7181 14.3068C10.969 11.7755 10.6139 10.5 10.5898 6H4.49763Z" fill="#ACB9CB"/>
<path fill-rule="evenodd" clip-rule="evenodd" d="M4.99997 4.49994C5.27609 4.49994 5.49997 4.27606 5.49997 3.99994C5.49997 3.72381 5.27609 3.49994 4.99997 3.49994C4.72434 3.49994 4.49997 3.27556 4.49997 2.99994C4.49972 2.63716 4.91475 2.36981 5.25363 2.57344C5.40378 2.66328 5.58931 2.66744 5.74384 2.58687C5.89838 2.50534 5.99922 2.34909 6.00972 2.17478C6.04978 1.51609 6.59444 1 7.24994 1C7.81413 1 8.30875 1.38428 8.45303 1.93456C8.49672 2.10156 8.62369 2.23413 8.78847 2.28538C8.95325 2.33688 9.13294 2.29906 9.26356 2.18625C9.36194 2.10128 9.526 1.99997 9.74988 1.99997C10.1634 1.99997 10.4999 2.33641 10.4999 2.74997C10.4999 3.16353 10.1635 3.49997 9.74988 3.49997C9.47375 3.49997 9.24988 3.72384 9.24988 3.99997C9.24988 4.27609 9.47375 4.49997 9.74988 4.49997C10.7147 4.49997 11.4998 3.71481 11.4998 2.75C11.4998 1.78519 10.7147 1.00003 9.74988 1.00003C9.55406 1.00003 9.36047 1.03397 9.17688 1.09916C8.77947 0.430656 8.05387 0 7.24994 0C6.27853 0 5.44184 0.625969 5.13375 1.50631C4.26803 1.42575 3.5 2.12838 3.5 2.99994C3.5 3.82709 4.17284 4.49994 4.99997 4.49994Z" fill="#ACB9CB"/>
<path fill-rule="evenodd" clip-rule="evenodd" d="M8.92068 8.08756C8.68093 7.95278 8.37796 8.0375 8.24174 8.27578L7.80986 9.03259C7.67633 9.26672 7.75249 9.56481 7.98199 9.70616C8.27471 9.88634 8.45196 10.1932 8.45952 10.5301C8.4578 10.5465 8.45683 10.5633 8.45633 10.575C8.45364 10.7096 8.50493 10.798 8.59893 10.894C8.69293 10.9902 8.82183 11.0027 8.95633 11.0027H9.90652C10.0406 11.0027 10.169 10.9906 10.263 10.8952C10.357 10.7995 10.4087 10.6912 10.4065 10.5571C10.3899 9.52594 9.82055 8.59269 8.92068 8.08756Z" fill="#ACB9CB"/>
<path fill-rule="evenodd" clip-rule="evenodd" d="M8.65194 11.5959C8.58578 11.4794 8.47565 11.3948 8.34628 11.3603C8.21737 11.3264 8.07919 11.3449 7.96397 11.4126C7.65878 11.5925 7.31872 11.6037 6.99865 11.4343C6.75915 11.3078 6.46425 11.3945 6.33069 11.6286L5.85681 12.4594C5.72081 12.698 5.80237 13.0012 6.03944 13.1394C6.48425 13.3982 6.98937 13.5351 7.50059 13.5351C8.01206 13.5351 8.51744 13.3982 8.96175 13.1394C9.19881 13.0012 9.28034 12.698 9.14437 12.4597L8.65194 11.5959Z" fill="#ACB9CB"/>
<path fill-rule="evenodd" clip-rule="evenodd" d="M6.32086 10.8944C6.41486 10.7984 6.46611 10.6891 6.46346 10.5546C6.46296 10.5434 6.46174 10.537 6.46027 10.5208C6.46833 10.171 6.66511 9.85344 6.97783 9.67987C7.09477 9.61519 7.18071 9.50866 7.21683 9.38C7.25296 9.25134 7.23586 9.11494 7.16971 8.99875L6.75686 8.27553C6.62086 8.03725 6.31814 7.95287 6.07793 8.08762C5.1778 8.59275 4.60846 9.54725 4.59186 10.5782C4.58968 10.7122 4.64143 10.7998 4.73543 10.8955C4.82943 10.991 4.95783 11.0031 5.09186 11.0031H5.96343C6.09796 11.0031 6.22686 10.9906 6.32086 10.8944Z" fill="#ACB9CB"/>
</svg>
