<svg width="24" height="24" viewBox="0 0 24 24" fill="none" xmlns="http://www.w3.org/2000/svg">
<g id="ic_arrow">
<path id="Path" fill-rule="evenodd" clip-rule="evenodd" d="M19.3464 10.6565L12.3436 17.8266C12.2435 17.9291 12.1284 17.9805 11.9982 17.9805C11.868 17.9805 11.7527 17.9291 11.6526 17.8266L4.65032 10.6565C4.55 10.5537 4.5 10.4359 4.5 10.3025C4.5 10.1692 4.55016 10.0511 4.65032 9.94864L5.40147 9.17955C5.50163 9.07699 5.61689 9.02574 5.74711 9.02574C5.87732 9.02574 5.99258 9.07699 6.09274 9.17955L11.9982 15.2264L17.9039 9.17917C18.004 9.07661 18.1193 9.02568 18.2493 9.02568C18.3797 9.02568 18.495 9.07694 18.5951 9.17917L19.3464 9.94859C19.4465 10.0511 19.4962 10.1692 19.4962 10.3024C19.4963 10.4359 19.4465 10.5539 19.3464 10.6565Z" fill="#4272C5"/>
</g>
</svg>
