<svg width="16" height="16" viewBox="0 0 16 16" fill="none" xmlns="http://www.w3.org/2000/svg">
<path fill-rule="evenodd" clip-rule="evenodd" d="M0 8.00005C0 3.58885 3.5888 0 8 0C12.4112 0 16 3.58885 16 8.00005C16 12.4112 12.4112 16 8 16C3.5888 16 0 12.4112 0 8.00005ZM1.45442 8.00009C1.45442 11.6093 4.39067 14.5455 7.99988 14.5455C11.609 14.5455 14.5453 11.6093 14.5453 8.00009C14.5453 4.39093 11.6091 1.45459 7.99988 1.45459C4.39067 1.45459 1.45442 4.39093 1.45442 8.00009Z" fill="#B4C4DB"/>
<path fill-rule="evenodd" clip-rule="evenodd" d="M7.9988 3.39453C7.46421 3.39453 7.0293 3.82973 7.0293 4.36466C7.0293 4.89911 7.46421 5.33393 7.9988 5.33393C8.53339 5.33393 8.9683 4.89911 8.9683 4.36466C8.9683 3.82973 8.53339 3.39453 7.9988 3.39453Z" fill="#B4C4DB"/>
<path fill-rule="evenodd" clip-rule="evenodd" d="M8.00071 6.78906C7.59906 6.78906 7.27344 7.11469 7.27344 7.51634V11.88C7.27344 12.2816 7.59906 12.6072 8.00071 12.6072C8.40236 12.6072 8.72798 12.2816 8.72798 11.88V7.51634C8.72798 7.11469 8.40236 6.78906 8.00071 6.78906Z" fill="#B4C4DB"/>
</svg>
