<svg width="36" height="36" viewBox="0 0 36 36" fill="none" xmlns="http://www.w3.org/2000/svg">
<g filter="url(#filter0_b_2067_26626)">
<rect x="2" y="2" width="32" height="32" rx="6" fill="#FAF2CF" fill-opacity="0.74"/>
<rect x="1" y="1" width="34" height="34" rx="7" stroke="#0C0E29" stroke-opacity="0.68" stroke-width="2"/>
</g>
<path d="M18.8416 13.4971C18.5673 13.7714 18.3396 14.0198 18.3396 14.0457C18.3396 14.0664 18.5207 13.937 18.7433 13.7558C18.9606 13.5747 19.1676 13.4091 19.2039 13.3884C19.2349 13.3677 19.1728 13.6213 19.059 13.9577C18.9222 14.3746 19.1139 14.6472 19.549 14.7036C19.6413 14.7156 19.7394 14.7276 19.8404 14.7392L20.5172 14.8204C20.662 14.8377 20.807 14.7889 20.9117 14.6874C21.0049 14.5942 21.0825 14.5373 21.0825 14.558C21.0825 14.6408 20.8186 15.0083 20.7565 15.0083C20.7254 15.0083 20.2648 14.941 19.7421 14.8582L19.4834 14.8158C19.0411 14.7433 18.5878 14.8417 18.2154 15.0911C17.8997 15.3033 17.6564 15.474 17.672 15.474C17.6875 15.474 17.9204 15.3705 18.1895 15.2463C18.4586 15.1221 18.6812 15.0238 18.6915 15.0341C18.6967 15.0393 18.6191 15.2826 18.5207 15.5776C18.4172 15.8674 18.3396 16.1106 18.3499 16.1158C18.3603 16.121 18.7847 16.5091 19.297 16.9801C19.8094 17.4458 20.2803 17.8702 20.3424 17.922C20.4459 18.0151 20.4563 18.01 20.7202 17.7408C20.8858 17.5701 20.9738 17.5028 20.9583 17.5701C20.9428 17.627 20.684 18.5792 20.3838 19.6868C20.0837 20.7943 19.8456 21.7051 19.856 21.7155C19.8818 21.7465 25.2228 21.4515 25.2228 21.4205C25.2228 21.405 24.4413 20.6649 23.489 19.7696C22.5368 18.8794 21.7553 18.1393 21.7553 18.129C21.7553 18.1186 22.0296 18.3412 22.366 18.6258C22.6972 18.9053 23.4839 19.5729 24.1101 20.1008L24.8297 20.7092C25.1002 20.9379 25.443 21.0634 25.7972 21.0634C26.0974 21.0634 26.8012 21.0479 27.3654 21.0272L28.2186 21.001C28.2819 20.9991 28.3137 20.9238 28.271 20.8771C28.2271 20.8292 28.2607 20.7519 28.3257 20.7512L29.2026 20.7425C29.5607 20.7372 29.7184 20.2888 29.4425 20.0605L27.3395 18.3205C25.7403 16.9956 24.4051 15.8984 24.374 15.8777C24.343 15.8622 24.1877 15.9605 24.0324 16.1054L23.9501 16.1788C23.9223 16.2035 23.9532 16.2474 23.9859 16.2296C24.1152 16.1572 24.2395 16.0951 24.255 16.0951C24.2757 16.0951 24.2912 16.3124 24.2912 16.5712C24.2879 16.8788 24.4098 17.1745 24.6289 17.3903L25.673 18.4188C26.4338 19.1692 26.9772 19.7126 26.8789 19.6298C26.6667 19.4487 22.0089 15.3188 20.4718 13.9473C20.2824 13.7784 20.102 13.619 19.9445 13.4809C19.5758 13.1575 19.1884 13.1503 18.8416 13.4971ZM22.3246 20.2405C23.0129 20.2509 23.0181 20.2509 22.5834 20.2871C22.3401 20.3078 21.7967 20.344 21.3671 20.3647L20.7446 20.3938C20.6878 20.3964 20.6561 20.3291 20.6944 20.2871C20.7927 20.1784 20.8289 20.1732 21.2119 20.2043C21.4396 20.2198 21.9416 20.2405 22.3246 20.2405Z" fill="#0C0E29"/>
<path d="M12.5379 16.2249C11.9415 16.8191 11.3972 17.364 10.9732 17.7899C10.3769 18.3889 10.3971 18.4102 11.0165 17.8352C11.4169 17.4636 11.9151 16.9992 12.4499 16.4992C13.723 15.3089 14.7736 14.3359 14.784 14.3359C14.7995 14.3359 14.4527 14.9932 14.018 15.7954C13.5833 16.6027 12.7604 18.1191 12.1911 19.1749L11.2817 20.8574C11.2048 20.9996 11.0537 21.0857 10.8921 21.0794C10.7472 21.0742 10.5868 21.0431 10.535 21.0173C10.4884 20.9914 10.3228 20.7378 10.1728 20.4532L10.036 20.1902C9.9531 20.0308 9.79727 19.9221 9.61899 19.8994C9.34988 19.8683 9.33435 19.858 9.33435 19.7183C9.33435 19.6044 9.2619 19.5061 8.9876 19.2628L8.94858 19.2278C8.74572 19.0458 8.48826 18.9362 8.21648 18.9161C7.67825 18.8695 7.48158 18.9109 7.97842 18.9678C8.21599 18.9916 8.21272 19.0651 7.97655 19.1002C7.92483 19.1078 7.86971 19.1156 7.8128 19.1231C7.35738 19.1852 7.3108 19.2059 7.17106 19.3663C6.44134 20.1944 6.0739 20.6291 6.0739 20.655C6.0739 20.6705 6.63801 20.7171 7.3315 20.7533C9.46373 20.862 9.56206 20.8931 7.80763 20.9034C6.92265 20.9086 6.12047 20.9241 6.02214 20.9396C5.88758 20.9655 5.78925 21.0328 5.64434 21.2191C5.52547 21.3654 5.32278 21.413 5.15125 21.3348L5.03366 21.2812C4.75545 21.1548 4.74661 20.9522 4.97969 20.7546C5.11999 20.6356 5.2929 20.4914 5.47873 20.3393C6.40512 19.5785 6.52932 19.4595 6.15153 19.7234C4.46955 20.8931 4.21078 21.0846 4.27806 21.126C4.31946 21.1467 4.65068 21.2709 5.01813 21.4054C5.45934 21.5628 5.92602 21.6364 6.39423 21.6226L8.67708 21.5555L10.8093 21.4891C11.3783 21.4714 11.9463 21.5462 12.4913 21.7108C13.0387 21.8784 13.6122 21.9447 14.1834 21.9064L15.5551 21.8143C16.4183 21.7599 17.1772 21.7055 17.5577 21.6742C17.7299 21.6601 17.7857 21.5656 17.677 21.4313C17.5838 21.3174 17.5114 21.2088 17.5114 21.1932C17.5114 21.1777 18.1479 20.4842 18.9294 19.651C19.7057 18.8178 20.3526 18.1243 20.363 18.1036C20.3785 18.0725 18.5775 16.5924 15.1048 13.7666C15.0738 13.7408 14.0698 14.7034 12.5379 16.2249ZM14.4993 18.9109C14.3234 19.3249 14.2975 19.4233 14.3596 19.4647C14.401 19.4906 14.6287 19.5113 14.8719 19.5164C15.6017 19.5268 15.7 19.5889 15.0531 19.6303C14.1215 19.6976 14.1836 19.6613 13.9818 20.153C13.8937 20.3619 14.0398 20.5949 14.2662 20.6067L14.4993 20.6188C14.8823 20.6343 15.4102 20.655 15.6689 20.655C16.0726 20.6602 15.9691 20.6809 14.9496 20.774C14.6412 20.8032 14.3532 20.8335 14.1318 20.8595C13.8447 20.8933 13.6152 21.0417 13.5005 21.3071C13.4229 21.4986 13.3401 21.6745 13.3193 21.7004C13.3038 21.7211 12.9674 21.6176 12.5741 21.4727C12.2394 21.3466 12.1466 20.9168 12.3996 20.6639L13.2728 19.7907C13.6724 19.3911 14.0364 19.0298 14.297 18.7748C14.5604 18.5169 14.6438 18.5718 14.4993 18.9109ZM8.42867 19.7959L8.89445 19.858L8.04052 19.8632L7.41577 19.867C7.36129 19.8673 7.3444 19.7934 7.3936 19.77C7.52299 19.7131 7.6679 19.6872 7.78175 19.7027C7.88008 19.7131 8.17508 19.7545 8.42867 19.7959Z" fill="#0C0E29"/>
<path d="M4.9095 19.7492C4.45925 19.7854 4.0504 19.8268 4.00382 19.8371C3.96241 19.8423 4.26258 19.8682 4.67143 19.8889C5.3701 19.9199 5.42703 19.9148 5.59264 19.8164C5.6858 19.7595 5.76343 19.6974 5.76343 19.6871C5.76343 19.6734 5.74618 19.6731 5.73268 19.6748C5.64744 19.6857 5.30822 19.7174 4.9095 19.7492Z" fill="#0C0E29"/>
<path d="M29.4719 19.7956C29.5542 19.8813 29.6691 19.9279 29.7878 19.9239L30.6726 19.8939C31.2626 19.8732 31.7387 19.8525 31.7335 19.8474C31.7232 19.837 31.2988 19.806 30.7864 19.7749C30.2741 19.7439 29.741 19.7025 29.5961 19.6869L29.5267 19.68C29.4632 19.6736 29.4268 19.7505 29.4719 19.7956Z" fill="#0C0E29"/>
<path d="M23.9547 22.2175C23.8402 22.2776 23.8786 22.4505 24.0078 22.4564L24.2134 22.4659C24.5861 22.4866 25.0984 22.5021 25.352 22.5021C25.449 22.5032 25.4757 22.3694 25.3858 22.3331L25.1761 22.2486C24.819 22.1088 24.4929 21.995 24.4515 21.995C24.4049 22.0001 24.1824 22.0985 23.9547 22.2175Z" fill="#0C0E29"/>
<path d="M15.6948 22.5025L15.6747 22.5153C15.564 22.5856 15.6104 22.7565 15.7414 22.7613C15.9743 22.7716 16.3572 22.7716 16.5953 22.7613C16.7099 22.7571 16.7442 22.6035 16.6424 22.5509L16.5487 22.5025L16.4884 22.4717C16.2366 22.343 15.9359 22.3546 15.6948 22.5025Z" fill="#0C0E29"/>
<path d="M13.0606 22.5546C12.7604 22.6581 12.5534 22.7461 12.5948 22.7565C12.7035 22.772 14.6235 22.9272 14.7426 22.9272C14.7995 22.9272 14.5718 22.7979 14.2354 22.6426C14.206 22.6292 14.177 22.616 14.1486 22.6031C13.8542 22.469 13.3665 22.4491 13.0606 22.5546Z" fill="#0C0E29"/>
<path d="M22.9457 22.9788C22.8578 22.997 22.8708 23.1263 22.9605 23.1267L23.4891 23.1289C24.3016 23.1289 24.845 23.103 25.0676 23.0616C25.4661 22.9788 25.4091 22.9581 24.6121 22.8753C23.8928 22.8029 23.753 22.8132 22.9457 22.9788Z" fill="#0C0E29"/>
<defs>
<filter id="filter0_b_2067_26626" x="-22.2" y="-22.2" width="80.4" height="80.4" filterUnits="userSpaceOnUse" color-interpolation-filters="sRGB">
<feFlood flood-opacity="0" result="BackgroundImageFix"/>
<feGaussianBlur in="BackgroundImageFix" stdDeviation="11.1"/>
<feComposite in2="SourceAlpha" operator="in" result="effect1_backgroundBlur_2067_26626"/>
<feBlend mode="normal" in="SourceGraphic" in2="effect1_backgroundBlur_2067_26626" result="shape"/>
</filter>
</defs>
</svg>
