<svg width="18" height="18" viewBox="0 0 18 18" fill="none" xmlns="http://www.w3.org/2000/svg">
<g clip-path="url(#clip0_3223_3562)">
<path fill-rule="evenodd" clip-rule="evenodd" d="M8.97534 0.566829C9.24956 0.563313 9.36909 0.580891 9.58706 0.651204C9.73823 0.696907 9.9562 0.795345 10.0722 0.862141C10.1882 0.932454 10.3605 1.06253 10.4519 1.15394C10.5468 1.24534 10.6664 1.38245 10.7226 1.4598C10.7753 1.53714 12.3925 4.48675 14.3121 8.01644C16.316 11.6938 17.8417 14.5379 17.891 14.6785C17.9402 14.8227 17.9824 15.0407 17.9929 15.2059C18.0035 15.4028 17.9894 15.5715 17.9472 15.7684C17.9121 15.9231 17.8277 16.1586 17.7574 16.2957C17.6871 16.4328 17.5394 16.6403 17.4164 16.7703C17.2968 16.8969 17.107 17.0551 16.9945 17.1219C16.882 17.1887 16.6605 17.2871 16.2246 17.4383H1.77534L1.49409 17.3399C1.3394 17.2871 1.11792 17.1887 1.00542 17.1219C0.892917 17.0551 0.703074 16.8969 0.587058 16.7703C0.467527 16.6438 0.319871 16.4469 0.256589 16.3309C0.196824 16.2149 0.112449 15.9934 0.0667455 15.8387C0.00697982 15.6102 -0.00708267 15.4977 0.00697983 15.241C0.0210423 15.0407 0.0561986 14.8332 0.108933 14.6785C0.158152 14.5344 1.60659 11.8344 3.59995 8.17464C5.47378 4.73284 7.06987 1.80433 7.14721 1.67074C7.22456 1.53363 7.37925 1.32972 7.49175 1.2137C7.60425 1.09769 7.78706 0.946516 7.89604 0.87972C8.00854 0.812923 8.21948 0.714485 8.36714 0.661751C8.57807 0.587923 8.69761 0.570345 8.97182 0.566829H8.97534ZM8.52534 2.16995C8.44096 2.25784 7.22807 4.45159 4.91479 8.70199L1.43081 15.1004C1.42729 15.5153 1.44487 15.5821 1.51518 15.6946C1.5644 15.7719 1.66636 15.8739 1.74018 15.9231L1.88081 16.0145H16.1261C16.3406 15.8739 16.4425 15.7719 16.4917 15.6946C16.5621 15.5821 16.5796 15.5153 16.5796 15.3289L16.5761 15.1004C11.2464 5.31995 9.66089 2.41253 9.61518 2.32816C9.56948 2.2473 9.47104 2.14183 9.39721 2.09261C9.31284 2.03284 9.20034 1.99769 9.07378 1.98714C8.96831 1.98011 8.82768 1.98714 8.7644 2.00472C8.70464 2.02581 8.59565 2.09964 8.52534 2.16995ZM8.30034 6.18831H9.70659V11.8133H8.30034V6.18831ZM8.30034 13.2196H9.70659V14.6258H8.30034V13.2196Z" fill="#FF1F00"/>
</g>
<defs>
<clipPath id="clip0_3223_3562">
<rect width="18" height="18" fill="white"/>
</clipPath>
</defs>
</svg>
