<svg width="42" height="42" viewBox="0 0 42 42" fill="none" xmlns="http://www.w3.org/2000/svg">
<path fill-rule="evenodd" clip-rule="evenodd" d="M17.1774 0H24.8145L25.1672 0.287109C25.3969 0.475781 25.5363 0.680859 25.5938 0.885938C25.6348 1.05 25.6758 2.02617 25.6758 4.92188L28.4895 4.93828C31.2457 4.96289 31.3031 4.96289 31.5656 5.14336C31.7051 5.25 31.8938 5.45508 31.9758 5.59453C32.107 5.84883 32.1152 6.35742 32.1152 12.9363C32.1152 19.9746 32.1152 20.0074 31.943 20.2371C31.8527 20.3602 31.6477 20.5488 31.2129 20.8441H10.7871L10.5082 20.6555C10.3524 20.5488 10.1473 20.3602 10.057 20.2371C9.88477 20.0074 9.88477 19.9746 9.88477 12.9363C9.88477 6.35742 9.89298 5.84883 10.0324 5.59453C10.1063 5.45508 10.2949 5.25 10.4426 5.14336C10.6969 4.96289 10.7543 4.96289 16.3242 4.92188V3.05156C16.3242 2.02617 16.3652 1.05 16.4063 0.877734C16.4637 0.680859 16.6031 0.475781 16.8328 0.287109L17.1774 0ZM18.7852 4.92188H23.2149V2.46094H18.7852V4.92188ZM12.2883 9.24492L12.3047 10.9922H29.6953L29.6543 7.42383C16.2914 7.39102 12.3867 7.40742 12.3457 7.44023C12.3047 7.46484 12.2801 8.27695 12.2883 9.24492ZM12.2883 15.9715L12.3047 18.375H29.6953L29.6543 13.4941L22.2387 13.4531C22.2305 14.8477 22.1895 15.1266 22.091 15.3398C22.009 15.4957 21.8121 15.709 21.6563 15.8156C21.4676 15.9387 21.2461 16.0043 21 16.0043C20.7539 16.0043 20.5324 15.9387 20.3438 15.8156C20.1879 15.709 19.991 15.4957 19.9172 15.3398C19.8024 15.1266 19.7695 14.8477 19.7695 14.2488V13.4531C14.0684 13.4531 12.3867 13.4777 12.3457 13.5105C12.3047 13.5352 12.2801 14.6426 12.2883 15.9715ZM8.57227 24.9457C8.93321 24.9457 9.45001 24.9949 9.72071 25.0688C9.99141 25.1426 10.4344 25.3148 10.7051 25.4543C10.984 25.602 11.4434 25.9547 11.7551 26.2664C12.1406 26.6602 12.3867 26.9965 12.5836 27.4148C12.7395 27.743 12.9035 28.2105 12.9527 28.4402C13.002 28.6781 13.043 29.1047 13.043 29.3836C13.043 29.6707 12.9856 30.1301 12.9199 30.409C12.8543 30.6961 12.6902 31.1391 12.5508 31.3934C12.4195 31.6559 12.2473 31.9512 12.1816 32.0496C12.0668 32.2301 12.075 32.2465 12.6164 32.591C12.9199 32.7879 13.3711 33.1324 13.6172 33.3621C13.8633 33.5918 14.2324 33.9855 14.8066 34.7156L14.9707 34.4777C15.0527 34.3547 15.3727 33.9938 15.668 33.6902C15.9633 33.3785 16.4965 32.9273 17.5137 32.2219L17.2676 31.8445C17.1281 31.6313 16.9231 31.2375 16.8164 30.9668C16.677 30.6059 16.6195 30.2531 16.5867 29.6543C16.5703 29.1621 16.5949 28.6535 16.6524 28.3828C16.7098 28.1367 16.8656 27.6938 17.0133 27.3984C17.1774 27.0457 17.4563 26.6684 17.8418 26.2828C18.2027 25.9137 18.6047 25.602 18.9328 25.4379C19.2117 25.2984 19.6547 25.1262 19.9172 25.0605C20.1715 24.9949 20.6637 24.9375 21 24.9375C21.3363 24.9375 21.8285 24.9949 22.091 25.0605C22.3453 25.1262 22.7883 25.2984 23.0754 25.4461C23.3543 25.5855 23.7809 25.8891 24.0188 26.1187C24.2649 26.3484 24.5848 26.7176 24.7324 26.9473C24.8801 27.1688 25.1016 27.6527 25.2246 28.0137C25.4297 28.6125 25.4461 28.752 25.4133 29.5723C25.3805 30.2531 25.3231 30.5977 25.1754 30.9668C25.077 31.2375 24.8637 31.6313 24.4453 32.2383L25.0031 32.5828C25.3066 32.7715 25.8316 33.2062 26.1762 33.5508C26.5207 33.8871 26.8899 34.2891 27.1934 34.6992L27.6691 34.125C27.9234 33.8133 28.4238 33.3211 28.7766 33.0504C29.1211 32.7715 29.5313 32.4844 29.6789 32.4105C29.8266 32.3367 29.9496 32.2629 29.9496 32.2383C29.9496 32.2137 29.8758 32.107 29.7938 31.9922C29.7035 31.8773 29.5395 31.5902 29.4164 31.3523C29.3016 31.1227 29.1457 30.6961 29.0801 30.409C29.0145 30.1301 28.957 29.6707 28.957 29.3836C28.957 29.1047 28.9981 28.6781 29.0473 28.4402C29.0965 28.2105 29.2688 27.7348 29.4328 27.3984C29.6379 26.9637 29.884 26.6273 30.2613 26.2418C30.5977 25.9137 31.0078 25.6102 31.3359 25.4461C31.6313 25.2984 32.0742 25.1262 32.3203 25.0605C32.5664 24.9949 33.0504 24.9375 33.3867 24.9375C33.7231 24.9375 34.2234 24.9949 34.4941 25.0605C34.7649 25.1344 35.2242 25.3066 35.5195 25.4543C35.8231 25.6102 36.2578 25.9301 36.5613 26.2254C36.9387 26.6027 37.1684 26.9227 37.3981 27.4148C37.5867 27.8086 37.7672 28.3418 37.8246 28.6699C37.882 29.0063 37.8984 29.4656 37.8656 29.7773C37.8328 30.0727 37.7262 30.5484 37.6277 30.8438C37.5211 31.1391 37.3242 31.5492 37.1766 31.7625C37.0289 31.984 36.9141 32.1809 36.9141 32.2137C36.9223 32.2547 37.1602 32.427 37.4555 32.6074C37.7508 32.7879 38.2594 33.198 38.5793 33.5098C38.9074 33.8297 39.3422 34.3465 39.5555 34.6582C39.7688 34.9781 40.0559 35.4867 40.2035 35.8066C40.343 36.1266 40.5316 36.6598 40.6301 36.9961C40.7613 37.4883 40.8023 37.9559 40.8352 39.293C40.868 40.8516 40.8598 40.9992 40.7121 41.3027C40.6219 41.4832 40.4168 41.7129 39.9492 42H2.05079L1.75548 41.8113C1.59141 41.7129 1.37813 41.4832 1.2879 41.3027C1.14024 40.9992 1.13204 40.8516 1.16485 39.293C1.19766 37.923 1.23868 37.4883 1.38634 36.9551C1.48477 36.5941 1.72266 35.9625 1.92774 35.5605C2.13282 35.1504 2.51016 34.5434 2.78087 34.207C3.05157 33.8707 3.53555 33.3785 3.87188 33.1078C4.20001 32.8453 4.61016 32.55 4.77423 32.4516C4.94649 32.3613 5.08595 32.2547 5.08595 32.2137C5.08595 32.1809 4.9711 31.984 4.82345 31.7625C4.67579 31.5492 4.47891 31.1391 4.37227 30.8438C4.27384 30.5484 4.1672 30.0727 4.13438 29.7773C4.10157 29.4574 4.11798 29.0145 4.1836 28.6699C4.23282 28.35 4.38868 27.8578 4.52813 27.5625C4.65938 27.2672 4.90548 26.8488 5.06954 26.6355C5.2336 26.4141 5.59454 26.0695 5.86524 25.8645C6.13595 25.6594 6.52149 25.4133 6.72657 25.323C6.93165 25.2328 7.28438 25.1098 7.50587 25.0523C7.73555 24.9949 8.21134 24.9457 8.57227 24.9457ZM7.30899 27.866C7.11212 28.0383 6.88243 28.3172 6.8004 28.4813C6.71016 28.6535 6.61993 28.9324 6.59532 29.0965C6.56251 29.2688 6.58712 29.5887 6.63634 29.8184C6.68555 30.0398 6.83321 30.3762 6.96446 30.5566C7.09571 30.7371 7.38282 30.9832 7.5961 31.098C7.81759 31.2211 8.14571 31.3441 8.32618 31.377C8.53946 31.4098 8.81837 31.3852 9.10548 31.3031C9.35977 31.2375 9.7043 31.057 9.88477 30.9012C10.0816 30.7371 10.2949 30.4418 10.4098 30.1793C10.5656 29.8184 10.5984 29.6379 10.5656 29.2441C10.541 28.9734 10.4672 28.6371 10.4016 28.5059C10.3277 28.3746 10.1473 28.1367 9.99962 27.9809C9.84376 27.825 9.57305 27.6363 9.39259 27.5543C9.19571 27.4641 8.88399 27.4066 8.61329 27.4066C8.3672 27.4066 8.05548 27.4477 7.91602 27.4805C7.78477 27.5215 7.50587 27.6938 7.30899 27.866ZM19.6465 27.907C19.5152 28.0219 19.3184 28.2844 19.2199 28.4895C19.0887 28.7602 19.0313 29.0227 19.0313 29.3672C19.0313 29.6379 19.0887 29.9988 19.1625 30.1629C19.2281 30.3352 19.4004 30.5977 19.5481 30.7453C19.6957 30.9012 19.9582 31.098 20.1387 31.1965C20.3766 31.3195 20.6227 31.3687 21 31.3687C21.3856 31.3687 21.6234 31.3195 21.8613 31.1965C22.0418 31.098 22.3043 30.9012 22.452 30.7453C22.5996 30.5977 22.7719 30.3352 22.8457 30.1629C22.9113 29.9988 22.9688 29.6461 22.9688 29.3836C22.9688 29.1293 22.9195 28.7848 22.8539 28.6289C22.7965 28.473 22.6324 28.2188 22.5094 28.0629C22.3781 27.907 22.091 27.6937 21.8613 27.5871C21.5879 27.4613 21.3008 27.3984 21 27.3984C20.7375 27.3984 20.4094 27.4641 20.2207 27.5543C20.0402 27.6363 19.7859 27.7922 19.6465 27.907ZM32.0004 27.9809C31.8527 28.1367 31.6723 28.3746 31.5984 28.5059C31.5328 28.6371 31.459 28.9734 31.4344 29.2441C31.4016 29.6379 31.4344 29.8184 31.5902 30.1793C31.7051 30.4418 31.9184 30.7371 32.1152 30.9012C32.2957 31.057 32.6402 31.2375 32.8945 31.3031C33.1898 31.3852 33.4606 31.4098 33.6738 31.377C33.8543 31.3441 34.1824 31.2211 34.4039 31.098C34.6254 30.9832 34.9043 30.7371 35.0274 30.5566C35.1504 30.3762 35.2981 30.0645 35.3555 29.8594C35.4129 29.6543 35.4293 29.3344 35.4047 29.1375C35.3801 28.9488 35.2899 28.6535 35.1996 28.4813C35.1176 28.3172 34.8879 28.0383 34.691 27.866C34.4941 27.6938 34.1988 27.5215 34.043 27.4805C33.8871 27.4312 33.5754 27.3984 33.3457 27.3984C33.1242 27.3984 32.7879 27.4723 32.6074 27.5543C32.427 27.6363 32.1563 27.825 32.0004 27.9809ZM6.31641 34.4203C5.87345 34.6418 5.52891 34.9043 5.08595 35.3473C4.65118 35.7902 4.38048 36.1512 4.15899 36.5859C3.99493 36.9223 3.79805 37.4555 3.73243 37.7754C3.6668 38.0953 3.60938 38.6203 3.60938 38.9402V39.5391H13.5352C13.5352 38.4234 13.4777 37.882 13.4039 37.6113C13.3301 37.3406 13.1578 36.8977 13.0266 36.627C12.8871 36.3563 12.6246 35.9461 12.4441 35.7246C12.2637 35.4949 11.9274 35.1586 11.6977 34.9781C11.468 34.7895 11.0496 34.5187 10.7707 34.3793C10.4836 34.2398 10.0242 34.0676 9.74532 34.002C9.45821 33.9363 8.9168 33.8871 8.53126 33.8871C8.14571 33.8871 7.62891 33.9445 7.38282 34.002C7.13673 34.0676 6.65274 34.2563 6.31641 34.4203ZM18.9082 34.3219C18.6867 34.4285 18.2684 34.6828 17.9895 34.8961C17.7024 35.1012 17.325 35.4703 17.1363 35.7C16.9477 35.9379 16.6934 36.3398 16.5703 36.5859C16.4473 36.832 16.2832 37.2422 16.2094 37.4883C16.1356 37.7344 16.0453 38.3004 16.0125 38.7434L15.9551 39.5391H26.0039C26.0039 38.809 25.9465 38.3004 25.8809 37.9395C25.807 37.5211 25.643 37.0453 25.4379 36.627C25.2574 36.266 24.9293 35.7738 24.716 35.5277C24.5027 35.2898 24.068 34.9125 23.7481 34.7074C23.4363 34.4941 22.9359 34.2398 22.6406 34.1332C22.2387 33.9855 21.8859 33.9363 21.1641 33.9117C20.4832 33.8871 20.0977 33.9117 19.7695 34.002C19.5234 34.0758 19.1379 34.2152 18.9082 34.3219ZM31.2949 34.3629C30.9832 34.5105 30.532 34.7812 30.3024 34.9699C30.0727 35.1586 29.7363 35.4949 29.5559 35.7246C29.3754 35.9461 29.1129 36.3563 28.9734 36.627C28.8422 36.8977 28.6699 37.3406 28.5961 37.6113C28.5305 37.882 28.4649 38.4234 28.4649 38.8172V39.5391H38.3906C38.3906 38.6203 38.3332 38.0953 38.2676 37.7754C38.1938 37.4555 38.0051 36.9223 37.841 36.5859C37.6195 36.143 37.357 35.7902 36.9141 35.3473C36.4301 34.8551 36.1512 34.6582 35.6016 34.3957C35.216 34.207 34.7074 34.0184 34.4777 33.9691C34.2398 33.9199 33.7395 33.8789 33.3703 33.8871C32.993 33.8871 32.509 33.9363 32.2793 33.9937C32.0578 34.043 31.6149 34.2152 31.2949 34.3629Z" fill="#F15A2B"/>
</svg>
