<svg width="42" height="42" viewBox="0 0 42 42" fill="none" xmlns="http://www.w3.org/2000/svg">
<g clip-path="url(#clip0_2085_22294)">
<path fill-rule="evenodd" clip-rule="evenodd" d="M34.084 0.418457C34.3137 0.418457 34.7156 0.467676 34.9863 0.541504C35.257 0.615332 35.6836 0.779395 35.9297 0.910645C36.266 1.08291 36.9551 1.72275 38.6121 3.37979C40.6383 5.41416 40.868 5.66846 41.1059 6.19346C41.3355 6.69385 41.3766 6.87432 41.4094 7.58799C41.434 8.26885 41.4094 8.49854 41.2699 8.9251C41.1715 9.20401 40.9992 9.58955 40.8844 9.78643C40.7613 9.9751 39.9984 10.8036 37.6934 13.1251L28.793 4.22471L30.2121 2.80557C30.9832 2.02627 31.8281 1.25518 32.0742 1.09111C32.3203 0.918848 32.7797 0.705566 33.0996 0.607129C33.4195 0.508691 33.8543 0.418457 34.084 0.418457ZM32.8945 3.6751L32.3613 4.17549L37.7426 9.55674C38.6285 8.60518 38.8418 8.29346 38.8992 8.08018C38.9648 7.83408 38.9648 7.67002 38.891 7.42393C38.809 7.16143 38.3906 6.70205 36.9305 5.22549C35.9051 4.1919 34.9699 3.28135 34.8469 3.19111C34.7156 3.10908 34.4613 3.01885 34.2727 2.99424C34.0594 2.96963 33.8215 2.99424 33.6738 3.05986C33.5426 3.11729 33.1898 3.39619 32.8945 3.6751ZM12.5508 13.7813C12.5754 13.7813 12.9855 14.1751 14.3555 15.545L1.80469 28.0958L0 26.2911L6.25078 20.0321C9.69609 16.595 12.5262 13.7813 12.5508 13.7813ZM40.2363 15.0118L42 16.7755L28.1777 30.5978L26.4141 28.8341L40.2363 15.0118ZM27.0293 5.98838L35.9297 14.8888L35.052 15.7665C34.568 16.2505 34.1496 16.6278 34.125 16.6114C34.1004 16.6032 32.7961 16.0618 31.2129 15.4302C29.6379 14.7903 28.3254 14.2899 28.3008 14.3146C28.2762 14.3392 29.1867 15.2825 32.3613 18.4571L30.5977 20.2208L21.6973 11.3204L22.5504 10.4591C23.018 9.9833 23.4445 9.59775 23.4937 9.59775C23.543 9.59775 24.8555 10.1146 26.4141 10.7462C27.9727 11.3778 29.2605 11.87 29.2852 11.8536C29.3098 11.829 28.4156 10.8938 25.2656 7.75205L27.0293 5.98838ZM20.0566 14.7165C20.5324 14.7329 20.959 14.8067 21.2461 14.9134C21.5004 15.0036 21.9188 15.2497 22.1895 15.4548C22.4602 15.6517 24.068 17.2103 28.834 21.9845L27.0293 23.7892L24.3633 21.1231L22.5996 22.8868L25.2656 25.5528L23.502 27.3165L20.1715 23.9696C18.2355 22.0255 16.7508 20.4751 16.6277 20.2618C16.5129 20.0567 16.357 19.6712 16.2914 19.4005C16.2176 19.1298 16.1602 18.7032 16.1602 18.4571C16.1602 18.211 16.2176 17.7927 16.2832 17.5302C16.3488 17.2759 16.5047 16.8657 16.6277 16.6278C16.7426 16.3981 17.0297 16.0126 17.2594 15.7829C17.4891 15.5532 17.85 15.2825 18.0469 15.1759C18.252 15.0692 18.6211 14.9134 18.8672 14.8313C19.2117 14.7165 19.4906 14.6919 20.0566 14.7165ZM18.7277 18.211C18.7031 18.4161 18.7113 18.6868 18.7441 18.8263C18.777 18.9903 19.1461 19.4169 19.8023 20.0813L20.7949 21.0821L22.5586 19.3185C21.1313 17.8747 20.6145 17.4071 20.4914 17.3415C20.3684 17.2759 20.0812 17.2267 19.8516 17.2267C19.4824 17.2267 19.4004 17.2595 19.1051 17.5302C18.8426 17.7763 18.7688 17.9157 18.7277 18.211ZM12.9609 21.845C13.732 21.8696 13.8879 21.9024 14.3965 22.1403C14.7902 22.3208 15.1266 22.5669 15.4711 22.9114C15.75 23.1985 16.0617 23.6169 16.1848 23.8712C16.2996 24.1173 16.4391 24.5438 16.6113 25.3313L17.0625 25.4052C17.3168 25.4544 17.7352 25.5938 18.0059 25.7169C18.4078 25.9056 18.7934 26.2337 21.6973 29.113L19.9336 30.8849L18.5227 29.4739C17.7434 28.7028 17.0215 28.0302 16.923 27.981C16.8164 27.9317 16.5703 27.8907 16.3652 27.8907C16.1684 27.8907 15.9141 27.9317 15.8156 27.981C15.709 28.0302 15.3973 28.3009 14.6016 29.0802L18.1699 32.6485L16.3652 34.4532L7.46484 25.5528L8.88398 24.1337C9.66328 23.3544 10.4836 22.5915 10.7051 22.4356C10.9348 22.288 11.3367 22.0829 11.6074 21.9927C12.0176 21.845 12.2473 21.8204 12.9609 21.845ZM11.5664 25.0032L11.0332 25.5036L12.8379 27.3165C13.5844 26.5864 13.8469 26.2747 13.9125 26.1435C13.9781 26.0204 14.0273 25.7497 14.0273 25.5282C14.0273 25.2821 13.9699 25.0442 13.8633 24.872C13.773 24.7243 13.5434 24.5356 13.3547 24.4454C13.1578 24.3552 12.9117 24.2813 12.7969 24.2813C12.6902 24.2896 12.4852 24.3306 12.3457 24.3962C12.2145 24.4536 11.8617 24.7243 11.5664 25.0032ZM5.61914 28.8833C5.79961 28.8751 6.20977 28.9325 6.52148 28.9981C6.84141 29.072 7.28438 29.2278 7.50586 29.3509C7.72734 29.4739 8.12109 29.7774 8.36719 30.0235C8.62148 30.2778 8.925 30.6962 9.05625 30.9669C9.1875 31.2376 9.33516 31.6806 9.49102 32.4435L9.975 32.5337C10.2457 32.5829 10.6805 32.7306 10.9512 32.8618C11.2219 32.9931 11.6484 33.3048 11.8945 33.5509C12.1652 33.8134 12.4605 34.2153 12.6164 34.5353C12.7559 34.8306 12.9199 35.3228 12.9691 35.6427C13.043 36.0774 13.043 36.3563 12.9691 36.7911C12.9199 37.1028 12.7641 37.6032 12.6164 37.8985C12.4031 38.3415 12.0914 38.7024 9.27773 41.5489L0.369141 32.6485L1.82109 31.1884C2.68242 30.3353 3.46992 29.6216 3.74883 29.4493C4.01133 29.2935 4.4625 29.0966 4.75781 29.0228C5.05312 28.9489 5.43867 28.8833 5.61914 28.8833ZM4.26562 32.2712L3.89648 32.6485L5.70117 34.4532C6.49687 33.6575 6.79219 33.2802 6.85781 33.0997C6.94805 32.8864 6.97266 32.6567 6.93984 32.4599C6.91523 32.2958 6.79219 32.0415 6.66914 31.9021C6.54609 31.7544 6.34102 31.5903 6.21797 31.5329C6.09492 31.4673 5.84883 31.4181 5.68477 31.4181C5.47969 31.4181 5.2418 31.5001 5.00391 31.656C4.79883 31.779 4.4707 32.0579 4.26562 32.2712ZM7.94063 35.7329L7.46484 36.2169L9.26953 38.0216C9.85195 37.4474 10.1309 37.1192 10.2621 36.9142C10.4262 36.6599 10.5082 36.4384 10.5082 36.2169C10.5082 36.0118 10.4344 35.7821 10.3195 35.6099C10.2211 35.454 10.0406 35.2571 9.92578 35.1751C9.81914 35.0931 9.57305 35.0028 9.39258 34.9782C9.17109 34.9536 8.95781 34.9864 8.73633 35.0931C8.55586 35.1833 8.19492 35.4704 7.94063 35.7329Z" fill="#F65A03"/>
</g>
<defs>
<clipPath id="clip0_2085_22294">
<rect width="42" height="42" fill="white"/>
</clipPath>
</defs>
</svg>
