<svg width="36" height="36" viewBox="0 0 36 36" fill="none" xmlns="http://www.w3.org/2000/svg">
<g filter="url(#filter0_b_2067_26701)">
<rect x="2" y="2" width="32" height="32" rx="6" fill="#FAF2CF" fill-opacity="0.74"/>
<rect x="1" y="1" width="34" height="34" rx="7" stroke="#0C0E29" stroke-opacity="0.68" stroke-width="2"/>
</g>
<g clip-path="url(#clip0_2067_26701)">
<path d="M17.4775 7.94172C16.6819 8.25443 16.3137 9.18068 16.6779 9.94859C17.1094 10.859 18.3483 11.0609 19.0489 10.3365C19.7812 9.58443 19.4962 8.3138 18.5146 7.94172C18.2494 7.84276 17.7348 7.84276 17.4775 7.94172ZM18.1623 9.01443C18.2019 9.03818 18.2652 9.10943 18.3008 9.17672C18.4592 9.48547 18.0673 9.7863 17.7902 9.56859C17.6596 9.46568 17.6279 9.31922 17.7031 9.17276C17.7981 8.98672 17.9842 8.92339 18.1623 9.01443Z" fill="#0C0E29"/>
<path d="M15.5656 8.51959C12.3594 9.37063 9.8181 11.7258 8.74144 14.841C8.57123 15.3438 8.40498 15.9771 8.43664 16.0088C8.44852 16.0206 8.53956 16.0008 8.64644 15.9652C8.74935 15.9296 8.92748 15.89 9.04227 15.8781L9.2481 15.8504L9.2956 15.6485C9.38665 15.2606 9.65581 14.56 9.92102 14.0138C10.78 12.2642 12.2089 10.8194 13.9585 9.94855C14.4731 9.6873 15.1302 9.43396 15.5973 9.31125C15.8387 9.24792 15.8625 9.23209 15.8625 9.13709C15.8625 9.04605 15.9021 8.86396 16.005 8.50771C16.0366 8.39688 16.0208 8.39688 15.5656 8.51959Z" fill="#0C0E29"/>
<path d="M19.995 8.50771C20.0979 8.86792 20.1375 9.04605 20.1375 9.13313C20.1375 9.23209 20.1612 9.24396 20.4542 9.32313C21.8396 9.69521 23.2962 10.5502 24.3729 11.6269C25.4535 12.7115 26.3164 14.184 26.6885 15.5892L26.7558 15.8544L26.9617 15.8781C27.0725 15.89 27.2506 15.9296 27.3535 15.9652C27.4604 16.0008 27.5514 16.0206 27.5633 16.0088C27.595 15.9771 27.4287 15.3438 27.2546 14.841C26.4035 12.3631 24.5787 10.3088 22.2156 9.17667C21.6021 8.8798 20.6046 8.53146 20.1217 8.44438C19.9752 8.41667 19.9712 8.42063 19.995 8.50771Z" fill="#0C0E29"/>
<path d="M15.3677 10.0871C13.2341 10.7957 11.5123 12.3038 10.5148 14.3344C10.2773 14.8173 9.8854 15.8782 9.92894 15.9177C9.93686 15.9257 10.0437 15.9771 10.1625 16.0325C10.2812 16.084 10.5029 16.2186 10.6494 16.3334C10.7998 16.4482 10.9264 16.5352 10.9304 16.5273C10.9344 16.5234 10.9819 16.3532 11.0333 16.1592C11.6587 13.705 13.7052 11.6586 16.1594 11.0332C16.3573 10.9817 16.5196 10.9342 16.5275 10.9302C16.5354 10.9263 16.4404 10.7917 16.3216 10.6294C16.1989 10.4711 16.0644 10.2494 16.0248 10.1425C15.9852 10.0317 15.9258 9.94067 15.8981 9.93671C15.8664 9.93275 15.6289 10 15.3677 10.0871Z" fill="#0C0E29"/>
<path d="M19.9712 10.1505C19.9198 10.2771 19.7812 10.5027 19.6664 10.6492C19.5517 10.7996 19.4646 10.9263 19.4725 10.9302C19.4764 10.9382 19.6189 10.9738 19.7812 11.0094C20.5927 11.2034 21.5942 11.6863 22.3462 12.2523C23.6089 13.1984 24.5867 14.655 24.9667 16.1592C25.0181 16.3532 25.0656 16.5234 25.0696 16.5273C25.0735 16.5352 25.2002 16.4482 25.3506 16.3334C25.4971 16.2186 25.7187 16.084 25.8375 16.0325C25.9562 15.9771 26.0631 15.9257 26.071 15.9177C26.1146 15.8782 25.7227 14.8173 25.4852 14.3344C24.6421 12.6165 23.3477 11.33 21.6337 10.4988C21.2023 10.289 20.2285 9.92483 20.1019 9.92483C20.086 9.92483 20.0267 10.0277 19.9712 10.1505Z" fill="#0C0E29"/>
<path d="M16.6739 11.6033C14.0812 12.1495 12.106 14.1564 11.5796 16.7808C11.4608 17.3706 11.4529 18.5739 11.5598 19.1281C11.6825 19.7456 11.92 20.5095 11.9873 20.4858C12.011 20.4779 17.1648 11.8883 17.331 11.5795C17.3627 11.5162 17.3508 11.5083 17.24 11.5122C17.1687 11.5122 16.9154 11.5558 16.6739 11.6033Z" fill="#0C0E29"/>
<path d="M18.669 11.5754C18.7402 11.71 23.981 20.4698 24.0008 20.4896C24.0365 20.5252 24.0879 20.4065 24.2146 20.0186C24.4442 19.2942 24.5035 18.8944 24.5075 18.0196C24.5075 17.3506 24.4956 17.1606 24.4204 16.7806C23.886 14.1246 21.8633 12.094 19.2469 11.5873C18.7125 11.4844 18.6175 11.4844 18.669 11.5754Z" fill="#0C0E29"/>
<path d="M16.8956 13.6262C16.3059 14.6158 15.8229 15.4351 15.8229 15.447C15.8229 15.4589 16.8046 15.4668 18 15.4668C19.1994 15.4668 20.1771 15.4589 20.1771 15.447C20.1771 15.3995 18.0277 11.8251 18 11.8251C17.9842 11.8251 17.4894 12.6366 16.8956 13.6262Z" fill="#0C0E29"/>
<path d="M15.4667 18.5542V20.9292H18H20.5333V18.5542V16.1792H18H15.4667V18.5542ZM18.3365 17.3469C19.524 17.6557 19.805 19.144 18.8154 19.8763C18.4235 20.1652 17.8338 20.2207 17.3983 20.0069C17.1252 19.8723 16.8363 19.5834 16.7056 19.3063C16.6146 19.1202 16.5988 19.0371 16.5948 18.7323C16.5948 18.4275 16.6106 18.3444 16.6977 18.1584C16.8877 17.7507 17.2242 17.4617 17.6438 17.3509C17.9288 17.2757 18.0515 17.2757 18.3365 17.3469Z" fill="#0C0E29"/>
<path d="M17.6517 18.0631C17.3271 18.2294 17.1727 18.6291 17.2994 18.9814C17.4023 19.2625 17.6952 19.4644 18 19.4644C18.7046 19.4644 19.0133 18.5619 18.4512 18.1304C18.2652 17.9919 17.8614 17.9562 17.6517 18.0631Z" fill="#0C0E29"/>
<path d="M8.84437 16.6107C8.44062 16.7453 8.09625 17.0778 7.94187 17.4855C7.83896 17.7547 7.83896 18.2455 7.94187 18.5147C8.28229 19.4053 9.355 19.7418 10.1506 19.1995C11.069 18.578 10.9542 17.153 9.94479 16.6741C9.63208 16.5276 9.17687 16.4999 8.84437 16.6107Z" fill="#0C0E29"/>
<path d="M26.2215 16.6104C25.8454 16.7371 25.5525 16.9865 25.3783 17.3467C25.3269 17.4536 25.2833 17.5683 25.2833 17.5921C25.2833 17.6317 25.5921 17.6436 26.6885 17.6436C27.785 17.6436 28.0937 17.6317 28.0937 17.5921C28.0898 17.4733 27.9235 17.1883 27.7375 16.9944C27.3535 16.5906 26.7519 16.4363 26.2215 16.6104Z" fill="#0C0E29"/>
<path d="M13.6538 19.049C13.064 20.0386 12.5771 20.8698 12.5771 20.8896C12.5771 20.9134 12.9729 20.9292 13.6656 20.9292H14.7542V19.0886C14.7542 18.0752 14.7502 17.2479 14.7423 17.2479C14.7383 17.2479 14.2475 18.0594 13.6538 19.049Z" fill="#0C0E29"/>
<path d="M21.2458 19.0807V20.9292H22.3344C23.0469 20.9292 23.4229 20.9134 23.4229 20.8896C23.4229 20.854 21.4556 17.5369 21.2973 17.3073C21.2538 17.244 21.2458 17.5171 21.2458 19.0807Z" fill="#0C0E29"/>
<path d="M25.2833 18.396C25.2833 18.4198 25.311 18.4989 25.3427 18.5781C25.7425 19.5321 27.021 19.7616 27.7375 19.0056C27.9235 18.8116 28.0898 18.5266 28.0937 18.4039C28.0937 18.3683 27.785 18.3564 26.6885 18.3564C25.7504 18.3564 25.2833 18.3683 25.2833 18.396Z" fill="#0C0E29"/>
<path d="M10.6217 19.6823C10.4673 19.8011 10.2496 19.9357 10.1348 19.9832C10.02 20.0307 9.92499 20.0821 9.92499 20.1019C9.92499 20.2286 10.2892 21.1984 10.4989 21.6338C11.3302 23.3478 12.6167 24.6421 14.3346 25.4853C14.9125 25.7703 15.8823 26.1107 15.9377 26.0513C15.9535 26.0315 15.9971 25.9365 16.0327 25.8375C16.0683 25.7386 16.1989 25.5288 16.3217 25.3705C16.4404 25.2082 16.5354 25.0736 16.5275 25.0696C16.5196 25.0657 16.3573 25.0182 16.1594 24.9667C13.7012 24.3413 11.6508 22.2909 11.0294 19.8288C10.9779 19.6309 10.9264 19.4646 10.9146 19.4686C10.9027 19.4686 10.7721 19.5675 10.6217 19.6823Z" fill="#0C0E29"/>
<path d="M24.9706 19.8286C24.3492 22.2867 22.2948 24.3411 19.8406 24.9665C19.6467 25.018 19.4764 25.0655 19.4725 25.0694C19.4646 25.0734 19.5517 25.2 19.6664 25.3505C19.7812 25.4969 19.9158 25.7186 19.9673 25.8373C20.0227 25.9561 20.0742 26.063 20.0821 26.0709C20.1217 26.1144 21.1825 25.7225 21.6654 25.485C23.3754 24.6459 24.646 23.3753 25.4852 21.6653C25.7227 21.1823 26.1146 20.1215 26.071 20.0819C26.0631 20.074 25.9562 20.0225 25.8375 19.9671C25.7187 19.9157 25.501 19.7811 25.3546 19.6703C25.2081 19.5555 25.0814 19.4644 25.0775 19.4644C25.0696 19.4644 25.0221 19.6307 24.9706 19.8286Z" fill="#0C0E29"/>
<path d="M8.44458 20.1218C8.53562 20.6364 8.90771 21.6735 9.23229 22.3266C10.4752 24.8085 12.5969 26.5897 15.2687 27.3933C15.5181 27.4685 15.7912 27.5437 15.8783 27.5555C16.0248 27.5833 16.0287 27.5793 16.005 27.4922C15.9021 27.132 15.8625 26.9539 15.8625 26.8628C15.8625 26.7678 15.8387 26.752 15.5973 26.6887C14.5048 26.3997 13.2975 25.7783 12.3396 25.0143C10.9344 23.8862 9.83 22.2316 9.34312 20.5137C9.24416 20.1614 9.23229 20.1376 9.13333 20.1376C9.04625 20.1376 8.86812 20.098 8.50791 19.9951C8.42083 19.9714 8.41687 19.9753 8.44458 20.1218Z" fill="#0C0E29"/>
<path d="M27.3258 20.0426C27.2387 20.0743 27.0764 20.1099 26.9656 20.1218L26.7598 20.1455L26.6529 20.5216C26.1779 22.2118 25.0656 23.8862 23.6802 25.0024C22.746 25.7545 21.3448 26.471 20.3473 26.7085C20.1573 26.752 20.1375 26.7678 20.1375 26.8628C20.1375 26.9539 20.0979 27.132 19.995 27.4922C19.9712 27.5793 19.9752 27.5833 20.1217 27.5555C20.3592 27.516 21.1429 27.2705 21.5427 27.1201C24.0642 26.1464 26.1423 24.0603 27.1279 21.523C27.2704 21.147 27.5158 20.3553 27.5554 20.1258C27.5871 19.9595 27.5673 19.9516 27.3258 20.0426Z" fill="#0C0E29"/>
<path d="M12.5771 21.63C12.5771 21.6933 13.0006 22.2238 13.2856 22.5206C14.2079 23.4904 15.4152 24.1475 16.7808 24.4206C17.426 24.5473 18.574 24.5473 19.2192 24.4206C20.5808 24.1475 21.796 23.4865 22.7144 22.5206C22.9994 22.2238 23.4229 21.6933 23.4229 21.63C23.4229 21.6142 20.9846 21.6023 18 21.6023C15.0194 21.6023 12.5771 21.6142 12.5771 21.63Z" fill="#0C0E29"/>
<path d="M17.3785 25.3625C17.054 25.5089 16.7056 25.9087 16.5988 26.261L16.571 26.3521H17.1054H17.6438V25.8177C17.6438 25.2239 17.6517 25.2358 17.3785 25.3625Z" fill="#0C0E29"/>
<path d="M18.3562 25.8177V26.3521H18.8946H19.4289L19.4012 26.261C19.2943 25.9087 18.946 25.5089 18.6214 25.3625C18.3483 25.2358 18.3562 25.2239 18.3562 25.8177Z" fill="#0C0E29"/>
<path d="M16.5988 27.1121C16.7017 27.4525 17.0263 27.8365 17.339 27.9948C17.4498 28.0502 17.5646 28.0938 17.5923 28.0938C17.6319 28.0938 17.6438 27.971 17.6438 27.5594V27.025H17.1054H16.571L16.5988 27.1121Z" fill="#0C0E29"/>
<path d="M18.3563 27.5594C18.3563 27.9117 18.3721 28.0938 18.3998 28.0938C18.4196 28.0938 18.5344 28.0502 18.6492 27.9948C18.9698 27.8444 19.2944 27.4604 19.4013 27.1121L19.429 27.025H18.8946H18.3563V27.5594Z" fill="#0C0E29"/>
</g>
<defs>
<filter id="filter0_b_2067_26701" x="-22.2" y="-22.2" width="80.4" height="80.4" filterUnits="userSpaceOnUse" color-interpolation-filters="sRGB">
<feFlood flood-opacity="0" result="BackgroundImageFix"/>
<feGaussianBlur in="BackgroundImageFix" stdDeviation="11.1"/>
<feComposite in2="SourceAlpha" operator="in" result="effect1_backgroundBlur_2067_26701"/>
<feBlend mode="normal" in="SourceGraphic" in2="effect1_backgroundBlur_2067_26701" result="shape"/>
</filter>
<clipPath id="clip0_2067_26701">
<rect width="20.2667" height="20.2667" fill="white" transform="translate(7.86664 7.8667)"/>
</clipPath>
</defs>
</svg>
