<svg width="19" height="19" viewBox="0 0 19 19" fill="none" xmlns="http://www.w3.org/2000/svg">
<g clip-path="url(#clip0_2690_57231)">
<path d="M16.418 0.628971H1.79297C1.46114 0.625594 1.14152 0.753993 0.904245 0.985994C0.666972 1.218 0.531423 1.53465 0.527344 1.86647V16.5505C0.532161 16.8819 0.668034 17.1978 0.905227 17.4292C1.14242 17.6606 1.46162 17.7886 1.79297 17.7852H16.418C16.7498 17.7879 17.0692 17.659 17.3064 17.4269C17.5435 17.1947 17.6791 16.8781 17.6836 16.5463V1.86225C17.6777 1.5314 17.5414 1.21626 17.3044 0.985323C17.0674 0.754387 16.7489 0.626324 16.418 0.628971Z" fill="#0076B2"/>
<path d="M3.06773 7.05859H5.61445V15.2528H3.06773V7.05859ZM4.3418 2.98047C4.63389 2.98047 4.91943 3.0671 5.16228 3.22941C5.40513 3.39172 5.59438 3.62241 5.7061 3.8923C5.81781 4.16219 5.84697 4.45915 5.78988 4.74561C5.7328 5.03207 5.59203 5.29517 5.38539 5.50162C5.17874 5.70806 4.91552 5.84858 4.629 5.90539C4.34248 5.96221 4.04555 5.93277 3.77577 5.82079C3.50598 5.70882 3.27547 5.51935 3.1134 5.27634C2.95132 5.03334 2.86496 4.74772 2.86524 4.45562C2.86561 4.06426 3.02134 3.68905 3.29821 3.41245C3.57508 3.13584 3.95043 2.98047 4.3418 2.98047ZM7.21195 7.05859H9.6532V8.18359H9.68695C10.0273 7.53953 10.857 6.86031 12.0959 6.86031C14.6749 6.85469 15.153 8.55203 15.153 10.7528V15.2528H12.6063V11.2661C12.6063 10.3169 12.5895 9.09484 11.283 9.09484C9.97664 9.09484 9.75445 10.1298 9.75445 11.2042V15.2528H7.21195V7.05859Z" fill="white"/>
</g>
<defs>
<clipPath id="clip0_2690_57231">
<rect width="18" height="18" fill="white" transform="translate(0.105469 0.207031)"/>
</clipPath>
</defs>
</svg>
