<svg width="18" height="10" viewBox="0 0 18 10" fill="none" xmlns="http://www.w3.org/2000/svg">
<path d="M0.414 10V2.65H1.422L4.754 8.292H4.334L7.722 2.65H8.646V10H7.736V3.784L7.918 3.868L4.754 9.104H4.306L1.114 3.812L1.324 3.77V10H0.414ZM10.6065 10V9.286L14.6805 5.296C15.0539 4.932 15.3339 4.61467 15.5205 4.344C15.7072 4.064 15.8332 3.80267 15.8985 3.56C15.9639 3.31733 15.9965 3.08867 15.9965 2.874C15.9965 2.30467 15.8005 1.85667 15.4085 1.53C15.0259 1.20333 14.4565 1.04 13.7005 1.04C13.1219 1.04 12.6085 1.12867 12.1605 1.306C11.7219 1.48333 11.3439 1.75867 11.0265 2.132L10.3125 1.516C10.6952 1.068 11.1852 0.722666 11.7825 0.48C12.3799 0.237333 13.0472 0.116 13.7845 0.116C14.4472 0.116 15.0212 0.223333 15.5065 0.438C15.9919 0.643333 16.3652 0.946666 16.6265 1.348C16.8972 1.74933 17.0325 2.22067 17.0325 2.762C17.0325 3.07933 16.9859 3.392 16.8925 3.7C16.8085 4.008 16.6499 4.33467 16.4165 4.68C16.1925 5.016 15.8612 5.39867 15.4225 5.828L11.6845 9.496L11.4045 9.104H17.4805V10H10.6065Z" fill="#222754"/>
</svg>
