<svg width="16" height="16" viewBox="0 0 16 16" fill="none" xmlns="http://www.w3.org/2000/svg">
<path fill-rule="evenodd" clip-rule="evenodd" d="M15.9671 0.578813C15.9713 0.588907 15.9755 0.599124 15.9775 0.609587C15.9793 0.618974 15.9813 0.628385 15.9833 0.637809C15.9917 0.677357 16.0001 0.71713 16 0.756318V3.87519C16 4.28849 15.6631 4.62459 15.25 4.62459C14.837 4.62459 14.5001 4.28836 14.5001 3.87519V2.5651L11.153 5.90612C12.0128 7.00122 12.4782 8.36329 12.4782 9.7548C12.4782 13.1961 9.67931 15.9956 6.23903 15.9956C2.79874 15.9956 0 13.1956 0 9.75454C0 6.31328 2.79874 3.51297 6.23903 3.51309C7.63027 3.51309 8.99207 3.98414 10.0867 4.84417L13.4274 1.50034H12.1177C11.7045 1.50034 11.3685 1.16348 11.3685 0.750172C11.3685 0.336995 11.7045 0 12.1177 0H15.2358C15.2378 0 15.2402 0.000962187 15.2428 0.00198763C15.2454 0.00301104 15.2481 0.00409746 15.2507 0.00435328C15.2965 0.00524954 15.3403 0.0133159 15.3819 0.0215103C15.4002 0.0252234 15.4179 0.030601 15.4354 0.0364907L15.4652 0.0454533C15.4844 0.0508309 15.5034 0.0564646 15.522 0.0640188C15.5439 0.0733655 15.564 0.0843768 15.5841 0.0957721L15.6084 0.10896L15.6098 0.109637C15.6237 0.116839 15.6377 0.124088 15.6508 0.132903C15.7332 0.188215 15.8033 0.257996 15.8586 0.34058C15.8682 0.355304 15.8761 0.370157 15.8836 0.385009L15.8986 0.412153C15.8997 0.414127 15.9008 0.416102 15.9019 0.418078C15.9113 0.434683 15.9206 0.451408 15.9281 0.469258C15.9364 0.489872 15.9434 0.510486 15.9493 0.531228L15.9599 0.560292C15.9619 0.566438 15.9645 0.572602 15.9671 0.578813ZM1.49805 9.75606C1.49805 12.3708 3.62478 14.4982 6.23895 14.4982C8.85299 14.4982 10.9799 12.3708 10.98 9.75606C10.98 7.14102 8.85299 5.01367 6.23895 5.01367C3.62478 5.01367 1.49805 7.14102 1.49805 9.75606Z" fill="#49A7FF"/>
</svg>
