<svg width="20" height="20" viewBox="0 0 20 20" fill="none" xmlns="http://www.w3.org/2000/svg">
<g clip-path="url(#clip0_2446_1429)">
<path fill-rule="evenodd" clip-rule="evenodd" d="M8.35938 0.00438378C8.75781 0.000477529 8.98047 0.0200088 9.27734 0.0825088C9.49219 0.125478 9.80078 0.207509 9.96094 0.262196C10.1211 0.312978 10.4219 0.44579 10.625 0.547353C10.8281 0.652821 11.1367 0.844228 11.3086 0.969228C11.4805 1.09813 11.7539 1.34032 11.9141 1.50829C12.0781 1.68017 12.3047 1.95751 12.4219 2.12938C12.5352 2.30126 12.7148 2.61767 12.8164 2.83251C12.918 3.04735 13.0391 3.35595 13.0859 3.5161C13.1289 3.67626 13.1914 3.97704 13.2227 4.18017C13.2539 4.38329 13.2812 4.6997 13.2812 4.88329C13.2812 5.06688 13.2539 5.38329 13.2227 5.58642C13.1914 5.78954 13.1289 6.09032 13.0859 6.25048C13.0391 6.41063 12.918 6.71923 12.8164 6.93407C12.7148 7.14892 12.5547 7.43798 12.4609 7.5786C12.3672 7.71923 12.2344 7.90282 12.1641 7.98876C12.0898 8.0747 12.0312 8.15673 12.0312 8.17235C12.0312 8.19188 12.1836 8.16063 12.375 8.10595C12.5625 8.05126 12.9141 7.98095 13.1523 7.9497C13.3945 7.91845 13.7578 7.8911 13.957 7.8911C14.1523 7.8911 14.5078 7.91845 14.7461 7.9497C14.9844 7.98095 15.3359 8.05126 15.5273 8.10595C15.7188 8.15673 16.0273 8.2622 16.2109 8.33642C16.3945 8.41063 16.6914 8.55126 16.875 8.65282C17.0586 8.75438 17.3125 8.91454 17.4414 9.00438C17.5703 9.09813 17.7969 9.28173 17.9492 9.41454C18.1016 9.54735 18.3438 9.78954 18.4883 9.9536C18.6328 10.1177 18.8477 10.395 18.9609 10.5669C19.0742 10.7388 19.2422 11.02 19.3281 11.1919C19.4141 11.3638 19.5312 11.6177 19.5859 11.7583C19.6445 11.8989 19.7344 12.1724 19.7852 12.3638C19.8398 12.5552 19.9102 12.9067 19.9414 13.145C19.9727 13.3833 20 13.7349 20 13.9263C20 14.1177 19.9805 14.4263 19.957 14.6099C19.9375 14.7934 19.8906 15.0747 19.8555 15.2349C19.8242 15.395 19.7539 15.6606 19.6992 15.8208C19.6445 15.9809 19.5117 16.3052 19.3984 16.5434C19.2852 16.7817 19.0938 17.1216 18.9727 17.3052C18.8516 17.4888 18.6367 17.77 18.4961 17.9302C18.3516 18.0903 18.1016 18.3442 17.9375 18.4888C17.7734 18.6333 17.4961 18.8481 17.3242 18.9614C17.1523 19.0786 16.8359 19.2622 16.6211 19.3677C16.4062 19.4731 16.0703 19.6138 15.8789 19.6802C15.6875 19.7427 15.3867 19.8247 15.2148 19.8599C15.043 19.895 14.8203 19.9419 14.7148 19.9614C14.6016 19.9849 11.9258 20.0005 0.429688 20.0005L0.289062 19.9106C0.210938 19.8638 0.113281 19.7583 0.0742188 19.6763C0.00390625 19.5395 0 19.395 0 17.313C0 16.0474 0.015625 14.9224 0.0390625 14.688C0.0625 14.4614 0.125 14.0747 0.183594 13.8286C0.238281 13.5825 0.34375 13.2036 0.417969 12.9888C0.492188 12.7739 0.652344 12.4067 0.769531 12.1684C0.886719 11.9302 1.07422 11.6059 1.17969 11.4458C1.28906 11.2856 1.47656 11.0317 1.59766 10.8833C1.71875 10.7349 1.98437 10.4536 2.19141 10.2583C2.39453 10.063 2.72266 9.79345 2.91406 9.66454C3.10547 9.53173 3.44531 9.33251 3.67188 9.21923C3.89844 9.10595 4.25781 8.9536 4.47266 8.8872C4.6875 8.81688 4.93359 8.74657 5.01953 8.73095C5.10547 8.71532 5.20312 8.69579 5.23438 8.68798C5.27344 8.67626 5.18359 8.55907 4.9375 8.30907C4.74609 8.11376 4.49219 7.80907 4.375 7.6372C4.25781 7.46532 4.08203 7.14892 3.98047 6.93407C3.87891 6.71923 3.75781 6.41063 3.71094 6.25048C3.66797 6.09032 3.60547 5.78954 3.57422 5.58642C3.54297 5.38329 3.51562 5.06688 3.51562 4.88329C3.51562 4.6997 3.54297 4.38329 3.57422 4.18017C3.60547 3.97704 3.66797 3.67626 3.71094 3.5161C3.75781 3.35595 3.87891 3.04735 3.98047 2.83251C4.08203 2.61767 4.25781 2.30126 4.375 2.12938C4.48828 1.95751 4.75 1.64892 4.95703 1.44188C5.16406 1.23485 5.47266 0.973134 5.64453 0.859853C5.81641 0.742665 6.11719 0.574696 6.30859 0.480946C6.5 0.387196 6.77344 0.273915 6.91406 0.230946C7.05469 0.191884 7.31641 0.121571 7.5 0.0825088C7.72266 0.0317275 8.00391 0.00829003 8.35938 0.00438378ZM7.22656 1.36767C7.08594 1.41454 6.86719 1.50829 6.73828 1.57079C6.60938 1.6372 6.39844 1.7622 6.26953 1.84813C6.14062 1.93798 5.92188 2.12548 5.78125 2.2661C5.64062 2.40673 5.44531 2.63329 5.35156 2.77392C5.25781 2.91454 5.11328 3.16845 5.03516 3.34032C4.95312 3.5122 4.84766 3.79345 4.80078 3.96532C4.72656 4.22704 4.71484 4.37938 4.71484 4.88329C4.71484 5.3872 4.72656 5.53954 4.80078 5.80126C4.84766 5.97313 4.95312 6.25438 5.03516 6.42626C5.11328 6.59813 5.25781 6.85204 5.35156 6.99267C5.44531 7.13329 5.64062 7.35985 5.78125 7.50048C5.92188 7.6411 6.14844 7.83642 6.28906 7.93017C6.42969 8.02392 6.68359 8.16845 6.85547 8.24657C7.02734 8.3286 7.31641 8.43407 7.5 8.48485C7.78125 8.55907 7.92188 8.5747 8.41797 8.57079C8.89062 8.56688 9.06641 8.55126 9.31641 8.48095C9.48828 8.43798 9.76953 8.33251 9.94141 8.25048C10.1133 8.16845 10.3672 8.02392 10.5078 7.93017C10.6484 7.83642 10.875 7.6411 11.0156 7.50048C11.1562 7.35985 11.3516 7.13329 11.4453 6.99267C11.5391 6.85204 11.6836 6.59813 11.7617 6.42626C11.8438 6.25438 11.9492 5.96532 12 5.78173C12.0742 5.50829 12.0898 5.35204 12.0898 4.88329C12.0898 4.41454 12.0742 4.25829 12 3.98485C11.9492 3.80126 11.8438 3.5122 11.7617 3.34032C11.6836 3.16845 11.5391 2.91454 11.4453 2.77392C11.3516 2.63329 11.1562 2.40673 11.0156 2.2661C10.875 2.12548 10.6484 1.93017 10.5078 1.83642C10.3672 1.74267 10.1133 1.59813 9.94141 1.52001C9.76953 1.43798 9.48828 1.33251 9.31641 1.28954C9.10547 1.23095 8.84375 1.1997 8.51562 1.18798C8.19922 1.18017 7.92969 1.19188 7.75391 1.22704C7.60156 1.25829 7.36719 1.32079 7.22656 1.36767ZM12.5977 9.25438C12.4258 9.30126 12.1094 9.42235 11.8945 9.52782C11.6797 9.62938 11.3633 9.80517 11.1914 9.92235C11.0195 10.0356 10.7109 10.2974 10.5039 10.5044C10.2969 10.7114 10.0352 11.02 9.92188 11.1919C9.80469 11.3638 9.62891 11.6802 9.52734 11.895C9.42578 12.1099 9.30469 12.4184 9.25781 12.5786C9.21484 12.7388 9.15234 13.0395 9.12109 13.2427C9.08984 13.4458 9.0625 13.7622 9.0625 13.9458C9.0625 14.1294 9.08984 14.4458 9.12109 14.6489C9.15234 14.852 9.21484 15.1528 9.25781 15.313C9.30469 15.4731 9.42578 15.7817 9.52734 15.9966C9.62891 16.2114 9.80859 16.5278 9.92188 16.6997C10.0391 16.8716 10.2578 17.1411 10.4102 17.3013C10.5586 17.4575 10.832 17.6997 11.0156 17.8364C11.1992 17.977 11.5156 18.1724 11.7188 18.2778C11.9219 18.3833 12.2227 18.5122 12.3828 18.5669C12.543 18.6216 12.8164 18.6958 12.9883 18.7309C13.1602 18.7661 13.4844 18.8052 13.7109 18.8169C13.9531 18.8325 14.2812 18.8208 14.5117 18.7895C14.7266 18.7622 15.0625 18.6997 15.2539 18.645C15.4453 18.5942 15.7812 18.4692 15.9961 18.3638C16.2109 18.2622 16.5273 18.0864 16.6992 17.9692C16.8711 17.8559 17.1797 17.5942 17.3867 17.3872C17.5938 17.1802 17.8555 16.8716 17.9688 16.6997C18.0859 16.5278 18.2617 16.2114 18.3633 15.9966C18.4648 15.7817 18.5859 15.4731 18.6328 15.313C18.6758 15.1528 18.7383 14.852 18.7695 14.6489C18.8008 14.4458 18.8281 14.1294 18.8281 13.9458C18.8281 13.7622 18.8008 13.4458 18.7695 13.2427C18.7383 13.0395 18.6758 12.7388 18.6328 12.5786C18.5859 12.4184 18.4648 12.1099 18.3633 11.895C18.2617 11.6802 18.0859 11.3638 17.9688 11.1919C17.8555 11.02 17.5938 10.7114 17.3867 10.5044C17.1797 10.2974 16.8711 10.0356 16.6992 9.92235C16.5273 9.80517 16.2109 9.62938 15.9961 9.52782C15.7812 9.42626 15.4727 9.30517 15.3125 9.25829C15.1523 9.21532 14.8516 9.15282 14.6484 9.12157C14.4453 9.09032 14.1094 9.06688 13.9062 9.06688C13.7031 9.07079 13.3945 9.09423 13.2227 9.12157C13.0508 9.14501 12.7695 9.20751 12.5977 9.25438ZM4.88281 9.98095C4.69922 10.0395 4.39062 10.1684 4.19922 10.2661C4.00391 10.3599 3.74219 10.5122 3.61328 10.602C3.48438 10.688 3.25781 10.8677 3.10547 10.9966C2.95703 11.1255 2.72266 11.3638 2.58594 11.5239C2.44922 11.6841 2.26172 11.9302 2.17188 12.0708C2.07812 12.2114 1.92188 12.4849 1.82422 12.6763C1.73047 12.8677 1.58594 13.2036 1.51172 13.4184C1.4375 13.6333 1.33594 14.0005 1.28516 14.2388C1.19922 14.6528 1.19531 14.7544 1.18359 16.7505L1.17188 18.8286L10.3711 18.8247C10.1914 18.6919 10.0234 18.5474 9.88281 18.4224C9.74219 18.2934 9.51953 18.063 9.38281 17.9145C9.25 17.7622 9.04297 17.4966 8.92969 17.3247C8.81641 17.1528 8.64062 16.852 8.54688 16.6606C8.44922 16.4692 8.32422 16.188 8.26953 16.0356C8.21484 15.8833 8.13281 15.6294 8.08594 15.4692C8.04297 15.3091 7.98047 14.977 7.94922 14.7388C7.91797 14.4966 7.89062 14.1333 7.89062 13.938C7.89062 13.7388 7.91797 13.3833 7.94922 13.145C7.98047 12.9067 8.05078 12.5552 8.10547 12.3638C8.15625 12.1724 8.23828 11.9184 8.28125 11.8091C8.32422 11.6958 8.44141 11.438 8.53906 11.2427C8.63672 11.0434 8.8125 10.7388 8.92578 10.5669C9.04297 10.395 9.23438 10.145 9.35156 10.0122L9.57031 9.7661C6.39453 9.77392 5.78516 9.78954 5.54688 9.8247C5.36328 9.85595 5.06641 9.92626 4.88281 9.98095ZM13.9375 10.2349C14.0039 10.2349 14.1328 10.27 14.2188 10.313C14.3229 10.3651 14.401 10.4432 14.4531 10.5474C14.4961 10.6333 14.5312 10.7739 14.5312 11.0161H14.8828C15.1562 11.0161 15.2695 11.0317 15.3906 11.0942C15.4948 11.1463 15.5729 11.2244 15.625 11.3286C15.668 11.4145 15.7031 11.5395 15.7031 11.602C15.7031 11.6645 15.668 11.7895 15.625 11.8755C15.5729 11.9796 15.4948 12.0578 15.3906 12.1099C15.25 12.1802 15.1562 12.188 14.5195 12.188C13.8594 12.1919 13.7969 12.1958 13.6562 12.2778C13.5703 12.3286 13.4766 12.4263 13.4336 12.5122C13.3945 12.5903 13.3594 12.7114 13.3594 12.7739C13.3594 12.8364 13.3945 12.9575 13.4336 13.0395C13.4766 13.1216 13.5703 13.2192 13.6562 13.27C13.7422 13.3169 13.875 13.3559 13.9531 13.3599C14.0352 13.3599 14.1953 13.3794 14.3047 13.4028C14.418 13.4263 14.6094 13.4927 14.7266 13.5474C14.8516 13.6059 15.0391 13.7466 15.1758 13.8833C15.3125 14.02 15.457 14.2153 15.5156 14.3364C15.5703 14.4536 15.6328 14.645 15.6602 14.7583C15.6836 14.8677 15.7031 15.0434 15.7031 15.1489C15.7031 15.2505 15.6797 15.4224 15.6523 15.5278C15.6211 15.6372 15.5586 15.8091 15.5039 15.9145C15.4531 16.02 15.3281 16.1958 15.2305 16.3052C15.125 16.4224 14.9453 16.5591 14.5312 16.7778V16.9849C14.5312 17.1099 14.5 17.2466 14.4531 17.3442C14.401 17.4484 14.3229 17.5265 14.2188 17.5786C14.1328 17.6216 14.0078 17.6567 13.9453 17.6567C13.8828 17.6567 13.7578 17.6216 13.6719 17.5786C13.5677 17.5265 13.4896 17.4484 13.4375 17.3442C13.3945 17.2583 13.3594 17.1177 13.3594 16.8755H13.0078C12.7344 16.8755 12.6211 16.8599 12.5 16.7974C12.3958 16.7453 12.3177 16.6671 12.2656 16.563C12.2227 16.477 12.1875 16.352 12.1875 16.2895C12.1875 16.227 12.2227 16.102 12.2656 16.0161C12.3177 15.9119 12.3958 15.8338 12.5 15.7817C12.6406 15.7114 12.7344 15.7036 13.3594 15.7036C13.9727 15.7036 14.082 15.6958 14.207 15.6294C14.293 15.5864 14.3906 15.4927 14.4414 15.4067C14.4883 15.3208 14.5273 15.1958 14.5312 15.1294C14.5312 15.0591 14.4961 14.9302 14.4531 14.8442C14.401 14.7401 14.3229 14.6619 14.2188 14.6099C14.1328 14.5669 14 14.5317 13.9258 14.5317C13.8516 14.5317 13.6953 14.5122 13.582 14.4888C13.4727 14.4614 13.2812 14.3989 13.1641 14.3442C13.0391 14.2856 12.8477 14.1411 12.7148 14.0044C12.5781 13.8716 12.4336 13.6802 12.375 13.5552C12.3203 13.438 12.2578 13.2466 12.2305 13.1372C12.207 13.0239 12.1875 12.8481 12.1875 12.7466C12.1875 12.6411 12.2109 12.4731 12.2383 12.3638C12.2656 12.2583 12.332 12.0825 12.3828 11.9731C12.4336 11.8677 12.582 11.6724 12.7109 11.5395C12.8477 11.4028 13.0352 11.2622 13.3594 11.1138V10.9106C13.3594 10.7817 13.3906 10.645 13.4375 10.5474C13.4883 10.4497 13.5703 10.3638 13.6602 10.313C13.7422 10.2739 13.8672 10.2388 13.9336 10.2349H13.9375Z" fill="#222754"/>
</g>
<defs>
<clipPath id="clip0_2446_1429">
<rect width="20" height="20" fill="white"/>
</clipPath>
</defs>
</svg>
