<svg width="20" height="20" viewBox="0 0 20 20" fill="none" xmlns="http://www.w3.org/2000/svg">
<g id="file - 2024-03-21T135524.019 1" clip-path="url(#clip0_2508_1445)">
<path id="Path 0" fill-rule="evenodd" clip-rule="evenodd" d="M9.99219 0.00320541C11.3125 -0.000700837 11.3281 -0.000700837 11.4688 0.0852367C11.5469 0.136018 11.6445 0.241487 11.6836 0.319612C11.7383 0.428987 11.7578 0.553987 11.7578 1.13211L12 1.25321C12.1367 1.31961 12.3477 1.44461 12.6953 1.67899L12.9766 1.51883C13.1602 1.41336 13.3242 1.35086 13.4375 1.33914C13.5742 1.32742 13.6445 1.34305 13.7695 1.42117C13.9062 1.50711 14.0117 1.67117 14.5625 2.6243C14.9102 3.23367 15.207 3.78055 15.2188 3.84696C15.2344 3.91336 15.2227 4.02664 15.2031 4.10086C15.1797 4.17508 15.1133 4.28446 15.0508 4.34696C14.9922 4.40555 14.8398 4.51102 14.4844 4.70633V5.83914L14.7109 5.96414C14.8398 6.03445 14.9922 6.13992 15.0508 6.19852C15.1133 6.26102 15.1797 6.37039 15.2031 6.44461C15.2227 6.51883 15.2344 6.63211 15.2188 6.69852C15.207 6.76492 14.9258 7.28055 14.5977 7.85086C14.2695 8.42117 13.9766 8.92508 13.9453 8.97196C13.9141 9.01883 13.8164 9.09696 13.7305 9.14383C13.6172 9.20633 13.5312 9.22586 13.418 9.21024C13.332 9.19852 13.1328 9.11649 12.6953 8.86649L12.4688 9.01883C12.3477 9.10086 12.1367 9.22196 11.7578 9.41336V9.74539C11.7578 9.9993 11.7383 10.1126 11.6797 10.2337C11.6276 10.3378 11.5495 10.416 11.4453 10.4681C11.2969 10.5423 11.2109 10.5462 9.98828 10.5462C8.72266 10.5423 8.6875 10.5423 8.53906 10.4563C8.45312 10.4056 8.35938 10.3079 8.31641 10.222C8.26172 10.1126 8.24219 9.99149 8.24219 9.41336L7.99609 9.29227C7.86328 9.22196 7.65234 9.10086 7.30469 8.86649L7.01953 9.02664C6.86719 9.11649 6.66797 9.19852 6.58203 9.21024C6.46484 9.22586 6.38672 9.20633 6.25781 9.13602C6.12891 9.0618 6.05078 8.96805 5.88672 8.69071C5.77344 8.4993 5.48047 7.99539 5.24219 7.57742C5 7.15946 4.79297 6.75321 4.77734 6.67899C4.76172 6.58133 4.77734 6.49149 4.83594 6.36649C4.90234 6.21805 4.96484 6.15946 5.52734 5.82352V4.72586L5.22266 4.54227C4.97266 4.38602 4.90234 4.32352 4.83594 4.17899C4.77734 4.05399 4.76172 3.96414 4.77734 3.86649C4.79297 3.79227 5 3.38602 5.24219 2.96805C5.48047 2.55008 5.77344 2.05008 5.88672 1.85477C6.05078 1.57742 6.12891 1.48367 6.25781 1.40946C6.38281 1.33914 6.46484 1.31961 6.58203 1.33524C6.66797 1.34305 6.86719 1.42508 7.30469 1.67899L7.52734 1.52664C7.65234 1.44461 7.86328 1.32352 8.24219 1.13211V0.80008C8.24219 0.553987 8.26172 0.428987 8.31641 0.319612C8.35547 0.241487 8.44531 0.136018 8.51953 0.0891429C8.64844 0.00711166 8.6875 0.00711166 9.98828 0.00320541H9.99219ZM9.41797 1.40555C9.41797 1.53446 9.39453 1.69852 9.36328 1.76883C9.33594 1.83524 9.26953 1.92899 9.21875 1.97586C9.16797 2.01883 8.97656 2.11649 8.79297 2.19071C8.60938 2.26102 8.33594 2.40555 8.1875 2.50711C8.03516 2.61258 7.84766 2.75321 7.76172 2.82352C7.64453 2.92117 7.57031 2.95242 7.41016 2.96024C7.24609 2.97196 7.17188 2.95242 6.98438 2.85477C6.86328 2.78836 6.75781 2.73367 6.75 2.73367C6.74609 2.72977 6.61328 2.94461 6.46094 3.21024C6.30469 3.47586 6.17578 3.70242 6.17578 3.72196C6.17578 3.73758 6.27344 3.80008 6.39062 3.86649C6.50781 3.93289 6.64062 4.04227 6.6875 4.11258C6.75781 4.22586 6.76562 4.26883 6.73828 4.56961C6.71875 4.75321 6.70703 5.06961 6.70703 5.27274C6.70703 5.47586 6.72266 5.79227 6.73828 5.97586C6.76562 6.27664 6.75781 6.31961 6.6875 6.4368C6.64062 6.50321 6.50781 6.61258 6.39062 6.67899C6.27344 6.74539 6.17578 6.80789 6.17578 6.82742C6.17578 6.84305 6.30469 7.06961 6.46094 7.33524C6.61328 7.60086 6.75 7.81571 6.76172 7.8118C6.77344 7.8118 6.87891 7.75321 6.99609 7.6868C7.17969 7.58524 7.24219 7.56961 7.41016 7.58133C7.56641 7.59305 7.64844 7.6243 7.76172 7.72196C7.84766 7.79227 8.03516 7.93289 8.1875 8.03836C8.33594 8.13992 8.60938 8.28446 8.79297 8.35477C8.97656 8.42508 9.16797 8.52274 9.21875 8.56571C9.26953 8.61258 9.33594 8.71024 9.36328 8.78055C9.39453 8.84696 9.41797 9.01102 9.41797 9.13992V9.3743H10.5898C10.5898 9.01102 10.6094 8.85867 10.6328 8.80008C10.6523 8.73758 10.7188 8.64383 10.7773 8.58133C10.8359 8.52274 10.9688 8.44461 11.0781 8.41336C11.1836 8.37821 11.3867 8.28836 11.5273 8.21805C11.668 8.14383 11.9023 7.98758 12.0547 7.86649C12.207 7.74539 12.3672 7.63211 12.4141 7.61258C12.4648 7.59305 12.5781 7.57742 12.668 7.57742C12.7812 7.57742 12.8984 7.61649 13.0312 7.69461C13.1367 7.75711 13.2344 7.8118 13.2461 7.8118C13.2578 7.81571 13.3945 7.60086 13.5469 7.33524C13.7031 7.06961 13.832 6.84305 13.832 6.82742C13.832 6.80789 13.7344 6.74539 13.6172 6.67899C13.5 6.61258 13.3672 6.50321 13.3203 6.4368C13.25 6.31961 13.2422 6.27664 13.2695 5.97586C13.2852 5.79227 13.3008 5.47586 13.3008 5.27274C13.3008 5.06961 13.2891 4.75321 13.2695 4.56961C13.2422 4.26883 13.25 4.22586 13.3203 4.11258C13.3672 4.04227 13.5 3.93289 13.6172 3.86649C13.7344 3.80008 13.832 3.73758 13.832 3.72196C13.832 3.70242 13.7031 3.47586 13.5469 3.21024C13.3945 2.94461 13.2617 2.72977 13.2539 2.73367C13.25 2.73367 13.1445 2.78836 13.0195 2.85086C12.8867 2.92508 12.7383 2.96805 12.6484 2.96805C12.5703 2.96805 12.4648 2.95242 12.4141 2.93289C12.3672 2.91727 12.2383 2.82352 12.1289 2.72977C12.0156 2.63602 11.8164 2.49149 11.6797 2.40946C11.543 2.33133 11.3086 2.21805 11.1562 2.16336C11.0039 2.10477 10.8398 2.02274 10.7891 1.97586C10.7383 1.93289 10.6719 1.83524 10.6445 1.76883C10.6133 1.69852 10.5898 1.53446 10.5898 1.40555V1.17117H9.41797V1.40555ZM2.96094 11.0149C5.35547 11.0149 5.4375 11.0188 5.58984 11.0931C5.69401 11.1451 5.77214 11.2233 5.82422 11.3274C5.88672 11.4524 5.90234 11.5618 5.90234 12.2259L6.25391 12.1087C6.44531 12.0462 6.76953 11.9641 6.96484 11.9251C7.19531 11.886 7.53516 11.8626 7.89453 11.8626C8.26953 11.8626 8.58594 11.886 8.83203 11.9329C9.03516 11.972 9.36328 12.054 9.55469 12.1165C9.74609 12.179 10.0742 12.3079 10.6484 12.5774H11.625C12.3906 12.5774 12.6523 12.5891 12.8359 12.6399C12.9648 12.6712 13.1562 12.7454 13.2617 12.804C13.3672 12.8626 13.5391 12.9993 13.6445 13.1048C13.7578 13.2181 13.8984 13.4212 13.9805 13.5891C14.1211 13.8704 14.125 13.8977 14.125 14.304C14.125 14.5345 14.1328 14.7259 14.1445 14.7259C14.1562 14.7298 14.2188 14.6907 14.2812 14.6438C14.3438 14.597 15.0312 13.929 15.8047 13.1595C16.6562 12.3157 17.2734 11.7337 17.3672 11.6868C17.4531 11.6438 17.6211 11.5813 17.7383 11.5462C17.8555 11.511 18.0664 11.4837 18.207 11.4837C18.3477 11.4837 18.5469 11.5071 18.6562 11.5384C18.7617 11.5657 18.9297 11.6282 19.0273 11.679C19.125 11.7298 19.2969 11.8587 19.4141 11.968C19.5273 12.0774 19.6641 12.2376 19.7148 12.3235C19.7656 12.4095 19.8398 12.5852 19.8867 12.7141C19.9414 12.8743 19.9648 13.0462 19.9648 13.2532C19.9648 13.4993 19.9414 13.6048 19.8477 13.8391C19.7812 13.9915 19.6875 14.1829 19.6328 14.2571C19.582 14.3313 18.7852 15.1438 17.8672 16.0579C16.7891 17.1282 16.0898 17.7962 15.9023 17.9251C15.7422 18.0384 15.4609 18.2063 15.2773 18.3001C15.0938 18.3899 14.8047 18.511 14.6328 18.5657C14.4609 18.6204 14.082 18.7102 13.793 18.7649C13.5039 18.8196 13.0195 18.9016 12.7188 18.9407C12.418 18.9837 11.8984 19.0384 11.5664 19.0657C11.1836 19.0931 10.5508 19.1048 9.84766 19.0891C9.21484 19.0774 8.51562 19.0423 8.22656 19.0071C7.94531 18.972 7.45312 18.8977 7.13281 18.847C6.80859 18.7923 6.40234 18.7141 5.90234 18.5931V19.0618C5.90234 19.4407 5.88672 19.5579 5.82812 19.679C5.78906 19.7571 5.69141 19.8626 5.47266 19.9993H0.472656L0.332031 19.9134C0.253906 19.8626 0.15625 19.7571 0.117188 19.679C0.046875 19.5384 0.0429688 19.347 0.0429688 15.5071C0.0429688 11.5618 0.0429687 11.4798 0.121094 11.3274C0.171875 11.2298 0.253906 11.1438 0.34375 11.0931C0.488281 11.0227 0.589844 11.0188 2.96094 11.0149ZM1.21484 18.8274H4.73047V12.1868H1.21484V18.8274ZM16.4102 14.1985C14.9844 15.6087 14.9375 15.6555 14.6133 15.8118C14.4219 15.9016 14.1484 15.9993 13.9688 16.0345C13.7031 16.0852 13.3477 16.0931 11.5586 16.0852C9.49609 16.0735 9.46094 16.0735 9.35156 15.9915C9.29297 15.9446 9.20703 15.8509 9.16797 15.7766C9.11719 15.6946 9.09375 15.5774 9.09766 15.4681C9.09766 15.3665 9.12891 15.2532 9.17188 15.1985C9.21094 15.1477 9.29297 15.0696 9.35156 15.0227C9.46094 14.9446 9.50781 14.9407 11.0352 14.9212C12.4453 14.9055 12.6172 14.8938 12.7109 14.8352C12.7695 14.7962 12.8516 14.7063 12.8945 14.6399C12.9414 14.5618 12.9727 14.4407 12.9727 14.3352C12.9727 14.2141 12.9453 14.1165 12.8867 14.0227C12.8359 13.9485 12.7344 13.8548 12.6602 13.8196C12.5391 13.7571 12.3906 13.7493 11.418 13.7493H10.3164C9.78516 13.4681 9.51953 13.343 9.37891 13.2923C9.23828 13.2376 9.01953 13.1712 8.89062 13.1438C8.76172 13.1126 8.48828 13.0696 8.28516 13.0462C8.01562 13.0149 7.79688 13.0149 7.48438 13.0462C7.24609 13.0735 6.90625 13.136 6.72266 13.1868C6.53906 13.2415 6.28125 13.3352 6.14844 13.3977L5.90234 13.5149C5.90234 16.511 5.91406 17.3899 5.93359 17.3977C5.94922 17.4056 6.16406 17.4602 6.41016 17.5149C6.65625 17.5696 7.0625 17.6477 7.30859 17.6907C7.55469 17.7337 8.01172 17.8001 8.32422 17.8391C8.77344 17.8938 9.17188 17.9095 10.2578 17.9056C11.3086 17.9056 11.7461 17.8899 12.1523 17.8391C12.4414 17.804 12.8984 17.7337 13.168 17.6907C13.4375 17.6438 13.8242 17.5657 14.0273 17.5149C14.2305 17.4641 14.5195 17.3626 14.6719 17.2923C14.8242 17.222 15.0352 17.1048 15.1406 17.0345C15.25 16.9602 16.0898 16.1516 17.0078 15.2376C17.9297 14.3235 18.707 13.5266 18.7383 13.4641C18.7695 13.4056 18.793 13.3001 18.793 13.2298C18.793 13.1634 18.7617 13.0423 18.7227 12.9681C18.6875 12.8938 18.5938 12.7923 18.5195 12.7415C18.4258 12.6829 18.3281 12.6556 18.207 12.6556C18.1094 12.6556 17.9961 12.679 17.9531 12.7024C17.9102 12.7259 17.2148 13.3977 16.4102 14.1985ZM10.1016 3.14383C10.3242 3.15164 10.5391 3.1868 10.6875 3.24149C10.8164 3.28446 11 3.37039 11.0977 3.42508C11.1953 3.48367 11.3594 3.60867 11.4648 3.70633C11.5703 3.80399 11.7266 3.99149 11.8086 4.12039C11.8906 4.2493 11.9961 4.46805 12.0469 4.60867C12.1133 4.80789 12.1328 4.95242 12.1328 5.27274C12.1328 5.59305 12.1133 5.73758 12.0469 5.9368C11.9961 6.07742 11.8906 6.29617 11.8086 6.42508C11.7266 6.55399 11.5703 6.74149 11.4648 6.83914C11.3594 6.9368 11.1953 7.0618 11.0977 7.12039C11 7.17508 10.8164 7.26102 10.6875 7.30789C10.4961 7.37821 10.3711 7.39383 10.0039 7.39383C9.63672 7.39383 9.51172 7.37821 9.32031 7.30789C9.19141 7.26102 9.00781 7.17508 8.91016 7.12039C8.8125 7.0618 8.64844 6.9368 8.54297 6.83914C8.4375 6.74149 8.28125 6.55399 8.19922 6.42508C8.11719 6.29617 8.01172 6.07742 7.96094 5.9368C7.89453 5.73758 7.875 5.59305 7.875 5.27274C7.875 4.95242 7.89453 4.80789 7.96094 4.60867C8.01172 4.46805 8.11719 4.2493 8.19922 4.12039C8.28125 3.99149 8.4375 3.80399 8.54297 3.70633C8.64844 3.60867 8.8125 3.48367 8.91016 3.42508C9.00781 3.37039 9.16406 3.29617 9.26172 3.26102C9.35938 3.22586 9.50781 3.18289 9.59375 3.16336C9.67969 3.14383 9.91016 3.13602 10.1016 3.14383ZM9.31641 4.58524C9.22266 4.67899 9.13281 4.82352 9.09375 4.94071C9.05469 5.05008 9.02734 5.19852 9.02734 5.27274C9.02734 5.34696 9.05469 5.4993 9.09375 5.60477C9.13281 5.72196 9.22266 5.86258 9.31641 5.96024C9.41406 6.05399 9.55469 6.14383 9.67188 6.18289C9.78125 6.22196 9.92969 6.2493 10.0039 6.2493C10.0781 6.2493 10.2305 6.22196 10.3359 6.18289C10.4531 6.14383 10.5938 6.05399 10.6914 5.96024C10.7852 5.86258 10.875 5.72196 10.9141 5.60477C10.9531 5.4993 10.9805 5.34696 10.9805 5.27274C10.9805 5.19852 10.9531 5.05008 10.9141 4.94071C10.875 4.82352 10.7852 4.68289 10.6914 4.58524C10.5938 4.49149 10.4531 4.40164 10.3359 4.36258C10.2305 4.32352 10.0703 4.29617 9.98438 4.30008C9.89844 4.30008 9.75 4.33133 9.65234 4.36649C9.55469 4.40164 9.40625 4.4993 9.31641 4.58524Z" fill="#222754"/>
</g>
<defs>
<clipPath id="clip0_2508_1445">
<rect width="20" height="20" fill="white"/>
</clipPath>
</defs>
</svg>
