<svg width="40" height="40" viewBox="0 0 40 40" fill="none" xmlns="http://www.w3.org/2000/svg">
<path d="M40 15.8333C40 13.8183 38.5683 12.1367 36.6667 11.75V0H31.6667C31.6667 3.52833 25.6083 6.66667 20.8333 6.66667H5.83333C2.61667 6.66667 0 9.28333 0 12.5V19.1667C0 21.995 2.025 24.36 4.70167 24.89L11.4167 40H13.7467C15.305 40 16.7417 39.22 17.59 37.9133C18.4383 36.6083 18.5683 34.9767 17.9367 33.5533L14.135 25H20.8333C25.6083 25 31.6667 28.1383 31.6667 31.6667H36.6667V19.9167C38.5683 19.53 40 17.85 40 15.8333ZM5 12.5C5 12.04 5.37333 11.6667 5.83333 11.6667H11.6667V20H5.83333C5.37333 20 5 19.6267 5 19.1667V12.5ZM20.8333 20H16.6667V11.6667H20.8333C24.295 11.6667 28.4717 10.4483 31.6667 8.25167V23.415C28.4717 21.2183 24.295 20 20.8333 20Z" fill="#F65A03"/>
</svg>
