<svg width="18" height="18" viewBox="0 0 18 18" fill="none" xmlns="http://www.w3.org/2000/svg">
<path fill-rule="evenodd" clip-rule="evenodd" d="M13.881 4.625C14.4792 4.61172 15.0581 4.84056 15.4905 5.26125C15.7605 5.53438 15.954 5.87572 16.0513 6.25019C16.1486 6.62465 16.1461 7.01872 16.044 7.39187L15.2786 10.2237C15.0825 10.9494 14.6578 11.5895 14.0696 12.0458C13.4815 12.5022 12.7624 12.7496 12.0227 12.75H5.80461C5.30367 12.7499 4.82021 12.5627 4.44603 12.2238C4.07186 11.8849 3.83303 11.4181 3.77491 10.9119L2.85344 3.5625C2.84873 3.51159 2.82567 3.46426 2.78868 3.42963C2.7517 3.39501 2.70343 3.37555 2.65317 3.375H2.29257C2.04818 3.375 1.8138 3.27623 1.64099 3.10041C1.46818 2.9246 1.37109 2.68614 1.37109 2.4375C1.37109 2.18886 1.46818 1.9504 1.64099 1.77459C1.8138 1.59877 2.04818 1.5 2.29257 1.5H2.65317C3.15379 1.50016 3.63695 1.6872 4.01106 2.02565C4.38516 2.3641 4.6242 2.83043 4.68287 3.33625L4.84444 4.625H13.881ZM12.953 10.5543C13.2205 10.347 13.4139 10.0564 13.5038 9.72687L14.2717 6.895C14.2843 6.84844 14.286 6.79956 14.2769 6.75219C14.2677 6.70482 14.2479 6.66026 14.219 6.62199C14.19 6.58372 14.1528 6.55279 14.1101 6.53163C14.0675 6.51046 14.0206 6.49964 13.9732 6.5H5.07972L5.60496 10.6875C5.60939 10.7384 5.63229 10.7858 5.6692 10.8205C5.70611 10.8551 5.75438 10.8746 5.80461 10.875H12.0227C12.3589 10.8742 12.6856 10.7616 12.953 10.5543Z" fill="#273855"/>
<path d="M5.67134 16.5C6.3499 16.5 6.89997 15.9404 6.89997 15.25C6.89997 14.5596 6.3499 14 5.67134 14C4.99279 14 4.44271 14.5596 4.44271 15.25C4.44271 15.9404 4.99279 16.5 5.67134 16.5Z" fill="#273855"/>
<path d="M11.8145 16.5C12.493 16.5 13.0431 15.9404 13.0431 15.25C13.0431 14.5596 12.493 14 11.8145 14C11.1359 14 10.5858 14.5596 10.5858 15.25C10.5858 15.9404 11.1359 16.5 11.8145 16.5Z" fill="#273855"/>
</svg>
