<svg width="18" height="18" viewBox="0 0 18 18" fill="none" xmlns="http://www.w3.org/2000/svg">
<circle cx="9" cy="9" r="9" fill="white"/>
<g clip-path="url(#clip0_755_38898)">
<path d="M11.0168 4.50978C11.286 4.24048 11.6476 4.08366 12.0282 4.07113C12.4088 4.05859 12.7799 4.19128 13.0663 4.44228L13.1383 4.50978L13.4918 4.86328C13.7609 5.13249 13.9177 5.49397 13.9302 5.87445C13.9427 6.25493 13.8101 6.62594 13.5593 6.91228L13.4918 6.98428L7.88578 12.5908C7.80651 12.67 7.71049 12.7305 7.60478 12.7678L7.52378 12.7913L5.29678 13.3053C5.21876 13.3233 5.13755 13.3224 5.05998 13.3025C4.98241 13.2826 4.91073 13.2445 4.85097 13.1912C4.79121 13.1379 4.74511 13.071 4.71654 12.9962C4.68797 12.9214 4.67776 12.8408 4.68678 12.7613L4.69678 12.7048L5.21028 10.4773C5.23564 10.368 5.28519 10.2659 5.35528 10.1783L5.41078 10.1158L11.0168 4.50978ZM10.6633 6.27728L6.16828 10.7723L5.85028 12.1513L7.22928 11.8328L11.7243 7.33778L10.6633 6.27728ZM12.4313 5.21678C12.3452 5.13069 12.2306 5.07898 12.1091 5.07134C11.9876 5.0637 11.8675 5.10066 11.7713 5.17528L11.7243 5.21678L11.3703 5.57028L12.4313 6.63078L12.7848 6.27728C12.8709 6.19119 12.9226 6.07664 12.9302 5.95512C12.9379 5.83361 12.9009 5.71348 12.8263 5.61728L12.7848 5.57028L12.4313 5.21678Z" fill="#4272C5"/>
</g>
<defs>
<clipPath id="clip0_755_38898">
<rect width="12" height="12" fill="white" transform="translate(3 3)"/>
</clipPath>
</defs>
</svg>
