<svg width="12" height="11" viewBox="0 0 12 11" fill="none" xmlns="http://www.w3.org/2000/svg">
<path d="M2.044 10L8.736 0.199999H9.562L2.87 10H2.044ZM2.8 5.45C2.36133 5.45 1.974 5.34267 1.638 5.128C1.302 4.904 1.04067 4.59133 0.854 4.19C0.676667 3.78867 0.588 3.322 0.588 2.79C0.588 2.258 0.676667 1.79133 0.854 1.39C1.04067 0.988666 1.302 0.680666 1.638 0.465999C1.974 0.241999 2.36133 0.129999 2.8 0.129999C3.23867 0.129999 3.62133 0.241999 3.948 0.465999C4.284 0.680666 4.54533 0.988666 4.732 1.39C4.91867 1.79133 5.012 2.258 5.012 2.79C5.012 3.322 4.91867 3.78867 4.732 4.19C4.54533 4.59133 4.284 4.904 3.948 5.128C3.62133 5.34267 3.23867 5.45 2.8 5.45ZM2.8 4.82C3.25733 4.82 3.62133 4.64267 3.892 4.288C4.172 3.924 4.312 3.42467 4.312 2.79C4.312 2.15533 4.172 1.66067 3.892 1.306C3.62133 0.942 3.25733 0.76 2.8 0.76C2.33333 0.76 1.96467 0.942 1.694 1.306C1.42333 1.66067 1.288 2.15533 1.288 2.79C1.288 3.42467 1.42333 3.924 1.694 4.288C1.96467 4.64267 2.33333 4.82 2.8 4.82ZM8.806 10.07C8.37667 10.07 7.994 9.96267 7.658 9.748C7.322 9.524 7.06067 9.21133 6.874 8.81C6.68733 8.40867 6.594 7.942 6.594 7.41C6.594 6.878 6.68733 6.41133 6.874 6.01C7.06067 5.60867 7.322 5.30067 7.658 5.086C7.994 4.862 8.37667 4.75 8.806 4.75C9.254 4.75 9.64133 4.862 9.968 5.086C10.304 5.30067 10.5607 5.60867 10.738 6.01C10.9247 6.41133 11.018 6.878 11.018 7.41C11.018 7.942 10.9247 8.40867 10.738 8.81C10.5607 9.21133 10.304 9.524 9.968 9.748C9.64133 9.96267 9.254 10.07 8.806 10.07ZM8.806 9.44C9.26333 9.44 9.62733 9.26267 9.898 8.908C10.178 8.544 10.318 8.04467 10.318 7.41C10.318 6.77533 10.178 6.28067 9.898 5.926C9.62733 5.562 9.26333 5.38 8.806 5.38C8.34867 5.38 7.98 5.562 7.7 5.926C7.42933 6.28067 7.294 6.77533 7.294 7.41C7.294 8.04467 7.42933 8.544 7.7 8.908C7.98 9.26267 8.34867 9.44 8.806 9.44Z" fill="#222754"/>
</svg>
