<svg width="16" height="16" viewBox="0 0 16 16" fill="none" xmlns="http://www.w3.org/2000/svg">
<path fill-rule="evenodd" clip-rule="evenodd" d="M2.20312 1.00312L7.26562 1L7.46875 1.07812C7.58125 1.12188 7.72813 1.19063 7.79688 1.23125C7.86562 1.27188 7.99375 1.38125 8.08125 1.47187C8.16875 1.56562 8.27812 1.71563 8.32187 1.80313C8.36875 1.89375 8.42812 2.05 8.45312 2.14687C8.49375 2.3 8.5 2.69375 8.5 4.75C8.5 6.80625 8.49375 7.2 8.45312 7.35313C8.42812 7.45 8.36875 7.60625 8.32187 7.69688C8.27812 7.78438 8.16563 7.9375 8.07812 8.03125C7.9875 8.125 7.83125 8.24688 7.73125 8.30313C7.62812 8.35625 7.4625 8.425 7.35938 8.45C7.19688 8.49375 6.85 8.5 4.75 8.5C2.65 8.5 2.30313 8.49375 2.14062 8.45C2.0375 8.425 1.87187 8.35625 1.76875 8.30313C1.66875 8.24688 1.5125 8.125 1.42188 8.03125C1.33437 7.9375 1.225 7.79063 1.18125 7.70312C1.1375 7.61875 1.07812 7.46875 1.05 7.375C1.00625 7.22188 1 6.92188 1 4.76562C1 2.69688 1.00625 2.3 1.04688 2.14687C1.07187 2.05 1.13125 1.89375 1.17813 1.80625C1.22188 1.71562 1.33125 1.56563 1.41875 1.475C1.50625 1.38125 1.62813 1.27813 1.6875 1.24063C1.74687 1.20313 1.8875 1.13437 2 1.0875L2.20312 1.00312ZM2.12188 2.15937C2.09063 2.2 2.05312 2.27188 2.03437 2.32188C2.0125 2.375 2 2.85938 2 3.70312V5C3.00625 4.24688 3.3375 4.02187 3.39062 4.0125C3.44375 4.00312 3.54063 4.00312 3.60938 4.01562C3.71875 4.03437 3.825 4.125 4.4 4.675C4.7625 5.025 5.075 5.30938 5.0875 5.30625C5.10313 5.3 5.3875 5.11562 5.72188 4.89687C6.3125 4.50937 6.33437 4.49687 6.5 4.49687C6.66563 4.49375 6.6875 4.50312 7.0875 4.77812L7.5 5.0625C7.48438 2.34687 7.48438 2.31563 7.41875 2.22813C7.38125 2.18125 7.3125 2.1125 7.26875 2.07812C7.18438 2.01875 7.12813 2.01563 4.7875 2.00938C2.9125 2.00313 2.36563 2.00938 2.28125 2.04063C2.22187 2.0625 2.15 2.11562 2.12188 2.15937ZM2 6.25C2.01562 7.12813 2.02188 7.19375 2.07812 7.26875C2.1125 7.3125 2.18125 7.38125 2.22813 7.41875C2.31563 7.48438 2.31875 7.48438 4.75 7.48438C7.13438 7.48438 7.18438 7.48438 7.26875 7.42188C7.3125 7.3875 7.38125 7.31875 7.41875 7.27187C7.47812 7.19062 7.48438 7.1375 7.49375 6.71562L7.5 6.25C6.775 5.76562 6.54375 5.61875 6.525 5.60938C6.50313 5.6 6.32812 5.70312 6.1375 5.83437L5.7875 6.07812C5.92812 6.23438 5.97813 6.32812 5.9875 6.38438C5.99688 6.4375 5.99687 6.54063 5.98438 6.60938C5.96979 6.69271 5.92396 6.77188 5.84688 6.84688C5.77188 6.92396 5.69271 6.96979 5.60938 6.98438C5.54063 6.99687 5.43437 6.99687 5.375 6.98438C5.28438 6.96875 5.10625 6.80625 4.35938 6.0625L3.45312 5.15938L2 6.25ZM10.7031 1.00312L13.7656 1L13.9688 1.07812C14.0781 1.12188 14.2281 1.19063 14.2969 1.23125C14.3656 1.27188 14.4938 1.38125 14.5813 1.47187C14.6687 1.56562 14.775 1.70938 14.8188 1.79688C14.8625 1.88125 14.9219 2.03125 14.95 2.125C14.9937 2.27813 15 2.57812 15 4.73438C15 6.80312 14.9906 7.2 14.9531 7.35C14.925 7.45 14.8687 7.60625 14.8219 7.69375C14.7781 7.78437 14.6656 7.9375 14.575 8.03125C14.4875 8.125 14.3312 8.24688 14.2281 8.30313C14.1281 8.35625 13.9625 8.425 13.8594 8.45C13.7 8.49062 13.4406 8.5 12.25 8.5C11.0594 8.5 10.7969 8.49062 10.6406 8.45C10.5375 8.425 10.3688 8.35625 10.2688 8.30313C10.1687 8.24688 10.0125 8.125 9.92188 8.03125C9.83125 7.9375 9.72188 7.78437 9.675 7.69375C9.63125 7.60625 9.57187 7.45 9.54688 7.35C9.50625 7.2 9.5 6.80625 9.5 4.75C9.5 2.69375 9.50625 2.3 9.54688 2.14687C9.57187 2.05 9.63125 1.89375 9.675 1.80313C9.72188 1.71563 9.83125 1.56563 9.91875 1.475C10.0062 1.38125 10.125 1.27813 10.1875 1.24063C10.2469 1.20313 10.3875 1.13437 10.5 1.0875L10.7031 1.00312ZM10.6031 2.18438C10.5625 2.2375 10.5219 2.32812 10.5125 2.38125C10.5031 2.4375 10.5 3.54062 10.5063 4.83437C10.5156 7.125 10.5156 7.18438 10.5781 7.26875C10.6125 7.3125 10.6781 7.38125 10.7281 7.41875C10.8156 7.48438 10.8375 7.48438 12.25 7.48438C13.6313 7.48438 13.6844 7.48125 13.7656 7.42188C13.8125 7.3875 13.8812 7.31875 13.9156 7.27187C13.9844 7.18437 13.9844 7.18125 13.9844 4.75C13.9844 2.31875 13.9844 2.31563 13.9156 2.22813C13.8812 2.18125 13.8125 2.1125 13.7656 2.07812C13.6844 2.01875 13.6281 2.01563 12.2844 2.00938C11.1781 2.00313 10.8688 2.00938 10.7844 2.04375C10.725 2.06563 10.6437 2.12813 10.6031 2.18438ZM4.23438 9.50313C5.89687 9.5 6.19688 9.50625 6.35938 9.55C6.4625 9.575 6.62813 9.64375 6.72813 9.69687C6.83125 9.75312 6.9875 9.875 7.075 9.96875C7.16562 10.0625 7.27813 10.2156 7.32188 10.3031C7.36875 10.3938 7.425 10.55 7.45312 10.6469C7.4875 10.7875 7.5 11.0281 7.5 11.75C7.5 12.4688 7.4875 12.7125 7.45312 12.85C7.425 12.95 7.36875 13.1063 7.32188 13.1938C7.27813 13.2844 7.16562 13.4375 7.075 13.5312C6.9875 13.625 6.83125 13.7469 6.72813 13.8031C6.62813 13.8563 6.4625 13.925 6.35938 13.95C6.2 13.9937 5.93125 14 3.15625 14L2.39062 14.5C1.70938 14.9438 1.60938 15 1.49063 15C1.39375 15 1.325 14.9781 1.225 14.9062C1.15313 14.8562 1.07187 14.7625 1.04688 14.7031C1.00625 14.6094 1 14.3156 1 12.7094C1 11.1344 1.00625 10.8 1.04688 10.6469C1.07187 10.55 1.13125 10.3938 1.175 10.3031C1.22187 10.2156 1.33125 10.0625 1.42188 9.96875C1.5125 9.875 1.66875 9.75312 1.76875 9.69687C1.86875 9.64062 2.02813 9.575 2.125 9.55C2.26562 9.5125 2.61875 9.50313 4.23438 9.50313ZM2.10313 10.6844C2.0625 10.7375 2.02188 10.8281 2.0125 10.8813C2.00313 10.9375 2 11.5625 2.00625 12.2688L2.01562 13.55L2.82812 13.0156C6.15312 12.9844 6.18438 12.9844 6.26875 12.9187C6.31875 12.8812 6.3875 12.8125 6.42188 12.7688C6.48125 12.6875 6.48438 12.6344 6.48438 11.75C6.48438 10.8469 6.48125 10.8125 6.41563 10.7281C6.38125 10.6812 6.3125 10.6125 6.26562 10.5781C6.18437 10.5188 6.12813 10.5156 4.28438 10.5094C2.7625 10.5031 2.36875 10.5094 2.28437 10.5437C2.225 10.5656 2.14375 10.6281 2.10313 10.6844ZM11.7344 9.50313C13.3969 9.5 13.6969 9.50625 13.8594 9.55C13.9625 9.575 14.1281 9.64375 14.2281 9.69687C14.3312 9.75312 14.4875 9.875 14.575 9.96875C14.6656 10.0625 14.775 10.2094 14.8188 10.2969C14.8625 10.3813 14.9219 10.5312 14.95 10.625C14.9937 10.7719 15 11.0031 15 13.7656L14.9187 13.9688C14.875 14.0813 14.8062 14.2281 14.7656 14.2969C14.725 14.3656 14.6187 14.4938 14.525 14.5813C14.4344 14.6687 14.3031 14.7688 14.2344 14.8031C14.1656 14.8406 14.0312 14.8969 13.9375 14.9344C13.7688 14.9969 13.7188 15 9.73438 15L9.53125 14.9219C9.41875 14.8781 9.27188 14.8094 9.20312 14.7688C9.13437 14.7281 9.00625 14.6187 8.91875 14.5281C8.83125 14.4344 8.72188 14.2844 8.675 14.1938C8.63125 14.1063 8.57188 13.95 8.54688 13.85C8.50625 13.7031 8.5 13.4156 8.5 12.25C8.5 11.0844 8.50625 10.7969 8.54688 10.6469C8.57188 10.55 8.63125 10.3938 8.675 10.3031C8.72188 10.2156 8.83125 10.0625 8.92188 9.96875C9.0125 9.875 9.16875 9.75312 9.26875 9.69687C9.36875 9.64062 9.52812 9.575 9.625 9.55C9.76562 9.5125 10.1187 9.50313 11.7344 9.50313ZM9.60312 10.6844C9.5625 10.7375 9.52187 10.8281 9.5125 10.8813C9.50313 10.9375 9.5 11.5906 9.50625 12.3344C9.51562 13.6531 9.51562 13.6844 9.58125 13.7719C9.61875 13.8188 9.68437 13.8875 9.73125 13.9219C9.8125 13.9812 9.86563 13.9844 11.75 13.9844C13.6313 13.9844 13.6844 13.9812 13.7656 13.9219C13.8125 13.8875 13.8812 13.8188 13.9156 13.7719C13.9812 13.6844 13.9844 13.6625 13.9844 12.25C13.9844 10.8375 13.9812 10.8156 13.9156 10.7281C13.8812 10.6812 13.8125 10.6125 13.7656 10.5781C13.6844 10.5188 13.6281 10.5156 11.7844 10.5094C10.2625 10.5031 9.86875 10.5094 9.78438 10.5437C9.725 10.5656 9.64375 10.6281 9.60312 10.6844ZM12.2844 2.50938C13.1281 2.51563 13.1875 2.51875 13.2656 2.57812C13.3125 2.6125 13.3812 2.68125 13.4156 2.72813C13.4656 2.79375 13.4844 2.8625 13.4844 3C13.4844 3.1375 13.4656 3.20312 13.4156 3.27187C13.3812 3.31875 13.3125 3.3875 13.2656 3.42188C13.1875 3.48125 13.125 3.48438 12.3156 3.49375C11.8094 3.5 11.4062 3.49062 11.3438 3.47187C11.2812 3.45625 11.1875 3.39062 11.1313 3.33125C11.0719 3.26562 11.0219 3.16875 11.0125 3.1C11 3.0375 11 2.9375 11.0125 2.88125C11.0219 2.82812 11.0625 2.7375 11.1031 2.68438C11.1437 2.62813 11.225 2.56563 11.2844 2.54375C11.3656 2.50938 11.5938 2.50313 12.2844 2.50938ZM12.2844 4.25938C13.1281 4.26562 13.1875 4.26875 13.2656 4.32812C13.3125 4.3625 13.3812 4.43125 13.4156 4.47813C13.4656 4.54375 13.4844 4.6125 13.4844 4.75C13.4844 4.8875 13.4656 4.95312 13.4156 5.02187C13.3812 5.06875 13.3125 5.1375 13.2656 5.17188C13.1875 5.23125 13.125 5.23438 12.3156 5.24375C11.8094 5.25 11.4062 5.24063 11.3438 5.22188C11.2812 5.20625 11.1875 5.14062 11.1313 5.08125C11.0719 5.01562 11.0219 4.91875 11.0125 4.85C11 4.7875 11 4.6875 11.0125 4.63125C11.0219 4.57812 11.0625 4.4875 11.1031 4.43437C11.1437 4.37812 11.225 4.31562 11.2844 4.29375C11.3656 4.25937 11.5938 4.25313 12.2844 4.25938ZM12.2844 6.00938C13.1281 6.01562 13.1875 6.01875 13.2656 6.07812C13.3125 6.1125 13.3812 6.18125 13.4156 6.22813C13.4656 6.29375 13.4844 6.3625 13.4844 6.5C13.4844 6.6375 13.4656 6.70312 13.4156 6.77187C13.3812 6.81875 13.3125 6.8875 13.2656 6.92188C13.1875 6.98125 13.125 6.98438 12.3156 6.99375C11.8094 7 11.4062 6.99063 11.3438 6.97188C11.2812 6.95625 11.1875 6.89062 11.1313 6.83125C11.0719 6.76562 11.0219 6.66875 11.0125 6.6C11 6.5375 11 6.4375 11.0125 6.38125C11.0219 6.32812 11.0625 6.2375 11.1031 6.18437C11.1437 6.12812 11.225 6.06562 11.2844 6.04375C11.3656 6.00937 11.5938 6.00313 12.2844 6.00938ZM11.2375 11.25C11.3438 11.25 11.4937 11.3062 11.9219 11.5156C12.2219 11.6625 12.5188 11.8281 12.5781 11.8813C12.6406 11.9375 12.7063 12.0344 12.7219 12.0938C12.7406 12.1531 12.7469 12.2594 12.7375 12.3281C12.7281 12.3969 12.6844 12.5 12.6406 12.5531C12.5813 12.6281 12.4 12.7375 11.9594 12.9563C11.3875 13.2406 11.35 13.2563 11.2031 13.2406C11.1156 13.2313 11.0125 13.1969 10.9719 13.1656C10.9313 13.1344 10.8688 13.0688 10.8313 13.0219C10.7688 12.9375 10.7656 12.8969 10.7656 12.25C10.7656 11.6062 10.7688 11.5625 10.8313 11.4781C10.8656 11.4312 10.9406 11.3594 11 11.3188C11.0688 11.275 11.15 11.25 11.2375 11.25Z" fill="#222754"/>
</svg>
