<svg width="40" height="40" viewBox="0 0 40 40" fill="none" xmlns="http://www.w3.org/2000/svg">
<path d="M32.5 30C33.163 30 33.7989 29.7366 34.2678 29.2678C34.7366 28.7989 35 28.163 35 27.5V17.5C35 16.837 34.7366 16.2011 34.2678 15.7322C33.7989 15.2634 33.163 15 32.5 15C31.837 15 31.2011 15.2634 30.7322 15.7322C30.2634 16.2011 30 16.837 30 17.5V27.5C30 28.163 30.2634 28.7989 30.7322 29.2678C31.2011 29.7366 31.837 30 32.5 30Z" fill="#FFB92B"/>
<path d="M12.5 30C13.163 30 13.7989 29.7366 14.2678 29.2678C14.7366 28.7989 15 28.163 15 27.5V17.5C15 16.837 14.7366 16.2011 14.2678 15.7322C13.7989 15.2634 13.163 15 12.5 15C11.837 15 11.2011 15.2634 10.7322 15.7322C10.2634 16.2011 10 16.837 10 17.5V27.5C10 28.163 10.2634 28.7989 10.7322 29.2678C11.2011 29.7366 11.837 30 12.5 30Z" fill="#F9A14F"/>
<path d="M22.5 30.0003C23.163 30.0003 23.7989 29.7369 24.2678 29.2681C24.7366 28.7993 25 28.1634 25 27.5003V9.16699C25 8.50395 24.7366 7.86807 24.2678 7.39922C23.7989 6.93038 23.163 6.66699 22.5 6.66699C21.837 6.66699 21.2011 6.93038 20.7322 7.39922C20.2634 7.86807 20 8.50395 20 9.16699V27.5003C20 28.1634 20.2634 28.7993 20.7322 29.2681C21.2011 29.7369 21.837 30.0003 22.5 30.0003Z" fill="#F7851C"/>
<path d="M9.16667 35C8.0616 35 7.00179 34.561 6.22039 33.7796C5.43899 32.9982 5 31.9384 5 30.8333V2.5C5 1.83696 4.73661 1.20107 4.26777 0.732233C3.79893 0.263392 3.16304 0 2.5 0C1.83696 0 1.20107 0.263392 0.732233 0.732233C0.263392 1.20107 0 1.83696 0 2.5V30.8333C0 33.2645 0.965771 35.5961 2.68485 37.3151C4.40394 39.0342 6.73552 40 9.16667 40H37.5C38.163 40 38.7989 39.7366 39.2678 39.2678C39.7366 38.7989 40 38.163 40 37.5C40 36.837 39.7366 36.2011 39.2678 35.7322C38.7989 35.2634 38.163 35 37.5 35H9.16667Z" fill="#F67803"/>
</svg>
