<svg width="16" height="16" viewBox="0 0 16 16" fill="none" xmlns="http://www.w3.org/2000/svg">
<g clip-path="url(#clip0_2690_64075)">
<path fill-rule="evenodd" clip-rule="evenodd" d="M8.06328 0.00826212C8.34766 0.0176371 8.65703 0.0363871 8.75078 0.0551371C8.84453 0.0738871 9.05078 0.127012 9.20391 0.170762C9.35703 0.217637 9.58203 0.292637 9.70391 0.342637C9.82578 0.392637 10.0414 0.508262 10.1883 0.595762C10.3352 0.683262 10.5383 0.820762 10.6414 0.902012C10.7445 0.980137 10.9195 1.13639 11.032 1.24889C11.1445 1.36139 11.3008 1.53639 11.3789 1.63951C11.4602 1.74264 11.5977 1.94576 11.6852 2.09264C11.7727 2.23951 11.8883 2.45826 11.9383 2.57701C11.9883 2.69576 12.0633 2.92076 12.1102 3.07701C12.1539 3.23326 12.2133 3.52076 12.2414 3.71764C12.2727 3.95514 12.282 4.19264 12.2727 4.42076C12.2633 4.61139 12.232 4.88326 12.2039 5.03014C12.1758 5.17701 12.1164 5.40826 12.0727 5.54576C12.0289 5.68326 11.932 5.92389 11.857 6.07701C11.7852 6.23014 11.6539 6.46451 11.5695 6.59264C11.4852 6.72076 11.3102 6.94264 11.1852 7.08014C11.057 7.22076 10.8727 7.40514 10.7727 7.48639C10.6727 7.57076 10.5914 7.64889 10.5945 7.66451C10.5945 7.67701 10.607 7.68639 10.6258 7.68639C10.6445 7.68639 10.7727 7.73014 10.9164 7.78639C11.057 7.84264 11.2195 7.93014 11.2789 7.98326C11.3352 8.03326 11.4008 8.11139 11.4227 8.15514C11.4445 8.19889 11.4727 8.28326 11.4852 8.34264C11.4977 8.40201 11.4914 8.51139 11.4727 8.58639C11.4539 8.65826 11.3914 8.76764 11.3383 8.83326C11.282 8.89576 11.1789 8.97076 11.1102 9.00201C11.0414 9.03326 10.9383 9.06139 10.882 9.06139C10.8289 9.06139 10.5945 8.99889 10.3695 8.92076C10.1414 8.84264 9.81953 8.74576 9.65703 8.70201C9.49453 8.66139 9.21328 8.60514 9.03203 8.57389C8.78516 8.53014 8.53828 8.51764 8.03203 8.51764C7.53516 8.51764 7.26953 8.53014 7.01641 8.57389C6.82578 8.60201 6.56016 8.65514 6.42266 8.68951C6.28516 8.72389 6.06016 8.78951 5.92266 8.83326C5.78516 8.87701 5.53828 8.96764 5.37578 9.03639C5.21328 9.10514 4.96016 9.22701 4.81328 9.30514C4.66641 9.38326 4.41328 9.53639 4.25078 9.64264C4.08828 9.75201 3.84141 9.93014 3.70391 10.0395C3.56641 10.1489 3.31016 10.3864 3.13516 10.5645C2.96016 10.7426 2.74453 10.9801 2.65391 11.0926C2.56641 11.2051 2.39453 11.4426 2.27578 11.6239C2.15703 11.8051 1.96953 12.1364 1.86016 12.3583C1.74766 12.5801 1.61016 12.9051 1.55078 13.077C1.49141 13.2489 1.40703 13.5333 1.36328 13.7114C1.31953 13.8864 1.28203 14.0614 1.28203 14.0989C1.28203 14.1395 1.29766 14.2239 1.31328 14.2864C1.33203 14.352 1.39141 14.4551 1.44453 14.5176C1.50078 14.5801 1.59141 14.6551 1.64141 14.6833C1.72266 14.727 1.95703 14.7364 5.42578 14.7645L5.55078 14.8458C5.61641 14.8895 5.70703 14.9801 5.75078 15.0489C5.81328 15.1458 5.82891 15.2114 5.82891 15.3739C5.82891 15.5364 5.81328 15.602 5.75078 15.702C5.70703 15.7676 5.61016 15.8645 5.39141 15.9989H1.64141L1.37578 15.9114C1.22891 15.8645 1.01328 15.7614 0.891406 15.6801C0.772656 15.602 0.619531 15.4801 0.557031 15.4083C0.491406 15.3395 0.388281 15.202 0.328906 15.1083C0.269531 15.0145 0.182031 14.827 0.135156 14.6926C0.0632813 14.4864 0.0507812 14.402 0.0507812 14.1083C0.0507812 13.8239 0.0695312 13.6989 0.147656 13.3895C0.203906 13.1833 0.303906 12.8614 0.372656 12.6708C0.438281 12.4801 0.550781 12.1989 0.619531 12.0458C0.691406 11.8926 0.819531 11.6301 0.910156 11.4676C1.00078 11.3051 1.15703 11.0426 1.26016 10.8895C1.36328 10.7364 1.57578 10.4489 1.73203 10.252C1.88828 10.0551 2.19766 9.72076 2.42266 9.50514C2.64766 9.29264 2.96328 9.01764 3.12578 8.89576C3.28828 8.77076 3.55703 8.58951 3.71953 8.48639C3.88203 8.38326 4.17891 8.21764 4.37578 8.12076C4.57266 8.02076 4.87578 7.88326 5.04766 7.81764C5.21953 7.74889 5.38828 7.68639 5.42266 7.67389C5.47891 7.65201 5.46953 7.63639 5.32891 7.52076C5.24453 7.44889 5.09141 7.30514 4.99141 7.20201C4.89141 7.09889 4.75078 6.93639 4.67578 6.84264C4.60078 6.74889 4.47578 6.56451 4.39766 6.43639C4.31953 6.30826 4.20703 6.08951 4.14766 5.95201C4.08516 5.81451 4.00078 5.58326 3.96016 5.43639C3.91641 5.28951 3.86016 5.02389 3.83203 4.84264C3.80391 4.66139 3.78203 4.40201 3.78203 4.26451C3.78203 4.12701 3.80391 3.86764 3.82891 3.68639C3.85078 3.50514 3.91016 3.23014 3.95391 3.07701C4.00078 2.92076 4.07578 2.69576 4.12578 2.57701C4.17578 2.45514 4.29141 2.23951 4.37891 2.09264C4.46641 1.94576 4.60391 1.74264 4.68516 1.63951C4.76328 1.53639 4.91953 1.36139 5.03203 1.24889C5.14453 1.13639 5.31953 0.980137 5.42266 0.902012C5.52578 0.820762 5.72891 0.683262 5.87578 0.595762C6.02266 0.508262 6.24141 0.392637 6.36016 0.342637C6.47891 0.292637 6.70703 0.217637 6.86016 0.170762C7.01328 0.127012 7.22578 0.0770121 7.32891 0.0613871C7.43203 0.0426371 7.52266 0.0207621 7.53203 0.0113871C7.53828 0.00201212 7.77891 0.00201212 8.06328 0.00826212ZM6.87578 1.48951C6.72891 1.55201 6.51016 1.66764 6.39141 1.74576C6.27266 1.82389 6.06016 1.99889 5.91953 2.13639C5.78203 2.27701 5.60703 2.48639 5.52891 2.60826C5.45078 2.72701 5.33516 2.94576 5.27266 3.09264C5.21016 3.23951 5.12891 3.50514 5.09453 3.68639C5.03828 3.94889 5.02891 4.08326 5.04141 4.35826C5.05078 4.57389 5.08516 4.81139 5.13516 4.99889C5.17578 5.16139 5.26953 5.41451 5.34453 5.56139C5.41641 5.70826 5.54141 5.91764 5.62578 6.03014C5.70703 6.14264 5.86328 6.31764 5.97266 6.42076C6.08203 6.52389 6.23516 6.65201 6.31328 6.70514C6.39141 6.75826 6.55391 6.85201 6.67266 6.91451C6.79141 6.97389 6.97891 7.05514 7.08828 7.08951C7.19453 7.12701 7.41328 7.17701 7.57266 7.20514C7.77578 7.24264 7.95078 7.25201 8.17266 7.23639C8.34453 7.22701 8.60391 7.18951 8.75078 7.15514C8.89766 7.11764 9.14453 7.03014 9.29766 6.95514C9.45078 6.88326 9.65078 6.77701 9.73516 6.71764C9.82266 6.65826 9.98203 6.52389 10.0914 6.42076C10.2008 6.31764 10.357 6.14264 10.4383 6.03014C10.5227 5.91764 10.6477 5.70826 10.7195 5.56139C10.7945 5.41451 10.8883 5.16139 10.9289 4.99889C10.9789 4.81139 11.0133 4.57389 11.0227 4.35826C11.0352 4.08326 11.0258 3.94889 10.9695 3.68639C10.9352 3.50514 10.8539 3.23951 10.7914 3.09264C10.7289 2.94576 10.6133 2.72701 10.5352 2.60826C10.457 2.48639 10.282 2.27701 10.1445 2.13639C10.0039 1.99889 9.79453 1.82389 9.67266 1.74576C9.55078 1.66764 9.33516 1.55201 9.18828 1.48951C9.04141 1.42701 8.77891 1.34889 8.60078 1.31451C8.41328 1.27701 8.16953 1.24889 8.01016 1.25201C7.85703 1.25201 7.60078 1.28014 7.43828 1.31451C7.27578 1.34889 7.02266 1.42701 6.87578 1.48951ZM13.4695 9.68951C14.4195 9.68639 14.6758 9.69576 14.8227 9.73326C14.9195 9.75826 15.0883 9.82389 15.1977 9.88014C15.3039 9.93326 15.4695 10.0551 15.5664 10.152C15.6883 10.2708 15.782 10.4083 15.9852 10.827L16.0008 13.6395L15.9289 13.7489C15.8883 13.8083 15.8008 13.8926 15.732 13.9364C15.6352 13.9989 15.5695 14.0145 15.407 14.0145C15.2445 14.0145 15.1789 13.9989 15.082 13.9364C15.0133 13.8926 14.9227 13.802 14.7977 13.6145L14.782 11.8895L13.632 13.0301C12.832 13.8301 12.4383 14.1989 12.3289 14.2551C12.2445 14.302 12.0883 14.3614 11.9852 14.3864C11.882 14.4145 11.7195 14.4364 11.6258 14.4364C11.532 14.4364 11.3852 14.4176 11.2977 14.3926C11.2133 14.3708 11.0664 14.3145 10.9789 14.2708C10.8883 14.2239 10.7133 14.0989 10.5914 13.9926C10.4695 13.8833 10.3352 13.777 10.2945 13.7583C10.2539 13.7364 10.1945 13.727 10.1664 13.7426C10.1352 13.7551 9.67891 14.2208 9.14766 14.7801C8.61953 15.3395 8.11953 15.8426 8.03828 15.8989C7.91641 15.9833 7.86328 15.9989 7.71953 15.9989C7.58203 15.9989 7.51953 15.9833 7.40703 15.9083C7.32891 15.8551 7.23203 15.7614 7.18828 15.6989C7.12578 15.602 7.11016 15.5426 7.11016 15.3739C7.11016 15.1989 7.12266 15.1426 7.18828 15.052C7.23203 14.9926 7.71328 14.4739 8.25703 13.902C8.80078 13.327 9.26641 12.8458 9.2914 12.827C9.31641 12.8114 9.39766 12.7551 9.47266 12.7051C9.54766 12.6551 9.66641 12.5958 9.73516 12.5708C9.80391 12.5458 9.93828 12.5145 10.032 12.4989C10.1383 12.4801 10.2852 12.4801 10.4227 12.502C10.5445 12.5176 10.7195 12.5676 10.8133 12.6114C10.907 12.6551 11.0477 12.7426 11.1258 12.8051C11.2039 12.8645 11.332 12.977 11.4133 13.052C11.4977 13.127 11.5945 13.1864 11.632 13.1864C11.6852 13.1864 12.0164 12.8739 13.9539 10.9395L13.0789 10.9301C12.207 10.9208 12.2039 10.9208 12.082 10.8426C12.0133 10.7989 11.9258 10.7145 11.8852 10.6551C11.8477 10.5958 11.807 10.4833 11.7945 10.4051C11.7852 10.327 11.7914 10.2051 11.8102 10.1333C11.832 10.0489 11.8914 9.95201 11.9695 9.87389C12.0383 9.80514 12.1414 9.73639 12.1977 9.72076C12.2508 9.70514 12.8258 9.68951 13.4695 9.68951Z" fill="#222754"/>
</g>
<defs>
<clipPath id="clip0_2690_64075">
<rect width="16" height="16" fill="white"/>
</clipPath>
</defs>
</svg>
